<svg xmlns="http://www.w3.org/2000/svg" width="66.696" height="66.696" viewBox="0 0 66.696 66.696"><defs><style>.a{fill:#f4de9b;stroke:#ed7100;stroke-width:2.332px;}.b{opacity:0.53;}.c{fill:#4ba8ae;}.d{fill:#dff2f8;}.e{fill:#e1f2f9;}.f{fill:#a4d4d8;}.g{fill:#a5d4d8;}.h{fill:#fff;}.i{fill:none;stroke:#ffc400;stroke-width:3.33px;}</style></defs><g transform="translate(455.531 1790.741)"><path class="a" d="M-422.417-1789.076a31.683,31.683,0,0,1,31.683,31.683,31.683,31.683,0,0,1-31.683,31.683,31.683,31.683,0,0,1-31.683-31.683,31.683,31.683,0,0,1,31.683-31.683Z"/><g class="b"><path class="c" d="M-424.682-1744.664a8.852,8.852,0,0,0,.854,1.586A11.868,11.868,0,0,1-424.682-1744.664Z"/><path class="d" d="M-419.432-1764.436c-.395.593-.975,1.478-1.616,2.586a4.515,4.515,0,0,0-.24.437c.647-1.136,1.328-2.241,2.069-3.31l.2-.3v-.012Zm-2.111,3.45c-.17.3-.337.616-.5.931l-.391.76c-.3.607-.6,1.254-.892,1.91a5.111,5.111,0,0,0-.2.492c.145-.348.3-.7.461-1.05.543-1.187,1.132-2.347,1.781-3.47a4.352,4.352,0,0,0-.255.426Zm-2.857,6.4-.018.083c.03-.086.048-.168.082-.241a.547.547,0,0,0-.064.156Zm-.532,1.846c-.07.289-.136.591-.19.89.075-.369.163-.741.259-1.128a1.935,1.935,0,0,0-.069.236Zm.344-1.254c-.1.336-.19.683-.275,1.016.1-.375.209-.766.33-1.159a.773.773,0,0,0-.055.141Z"/><path class="e" d="M-421.323-1774.188l2.3,9.156-.407.595c-.4.593-.975,1.478-1.616,2.586a4.515,4.515,0,0,0-.24.437,4.492,4.492,0,0,0-.255.427c-.17.3-.337.616-.5.931l-.391.76c-.3.607-.6,1.254-.892,1.91a5.121,5.121,0,0,0-.2.492,2.378,2.378,0,0,0-.1.259,2.819,2.819,0,0,0-.131.305c-.081.189-.151.375-.218.574a4.871,4.871,0,0,0-.215.585c-.054.144-.1.284-.139.425a.529.529,0,0,0-.064.158l-.018.083c-.021.018-.015.042-.021.07a2.815,2.815,0,0,0-.094.3.826.826,0,0,0-.055.143c-.1.336-.19.683-.275,1.016a1.969,1.969,0,0,0-.069.238c-.067.3-.148.6-.19.89a.21.21,0,0,0-.012.055c-.009.067-.031.138-.039.2a18.382,18.382,0,0,0-.249,1.89c-.006.028,0,.052-.006.08a1.063,1.063,0,0,0,0,.2l-.009.119c-.008.118-.014.25-.011.365a2.4,2.4,0,0,0,0,.339c.006.024,0,.052.006.076a4.58,4.58,0,0,0,.016.476,7.193,7.193,0,0,0,.06.749c.009.037.006.077.015.113l.016.061a4.076,4.076,0,0,0,.114.658c.018.073.025.15.043.223s.028.161.047.234l.19.756-6.825,1.723-.114-.866c-1.375-10.478,6.242-23.29,9.59-28.309Z"/><path class="c" d="M-414.145-1737.381a6.706,6.706,0,0,0,1.35-.094A9.246,9.246,0,0,1-414.145-1737.381Z"/><path class="c" d="M-415.227-1762.724c.183.11.357.234.531.359h.013A6.371,6.371,0,0,0-415.227-1762.724Zm3.741,2.751.006.024c.54.447,1.054.888,1.542,1.335q-.765-.721-1.548-1.359Z"/><path class="c" d="M-397.876-1752.377l-.26-.621h.012l-.441-.874c-4.707-9.3-16.369-16.675-21.167-19.4l-1.591-.908,2.3,9.156v.012l.3.17.329.176c.26.155.589.331.956.55l.381.228c.278.176.556.352.846.525l.681.438a2.474,2.474,0,0,1,.3.209c.183.11.369.231.544.356l.115-.107a.246.246,0,0,0,.082-.138l.127-.472.212-.806.2-.8a.281.281,0,0,1,.341-.19.3.3,0,0,1,.134.07l1.461,1.576a.259.259,0,0,0,.137.082l2.081.538a.3.3,0,0,1,.2.338.489.489,0,0,1-.082.137l-.946.874-.578.535-.052.052a.241.241,0,0,0-.082.137l-.154.571q.783.638,1.548,1.359.33.306.669.648c.19.185.367.374.541.55.349.353.673.712.991,1.1.149.183.311.363.449.548a16.277,16.277,0,0,1,2.083,3.273c.083.173.169.359.239.536.034.082.065.152.1.234s.07.177.107.271c.015.061.04.107.055.168l.065.2c.061.192.122.384.172.579l.018.073a9.462,9.462,0,0,1,.269,1.578c.009.192.022.4.032.589a4.679,4.679,0,0,1,0,.53,10.5,10.5,0,0,1-.393,2.757,12.079,12.079,0,0,1-.785,1.974,5.138,5.138,0,0,1-.3.568,6.941,6.941,0,0,1-.538.8l-.036.061.018.021-.322.367a8.972,8.972,0,0,1-.8.876c-.134.138-.271.263-.42.391a9.941,9.941,0,0,1-1.162.89,12.519,12.519,0,0,1-1.212.695,6.638,6.638,0,0,1-.667.285,6.074,6.074,0,0,1-.627.236,2.566,2.566,0,0,1-.3.089l-.42.132.006.025-.451.062a1.575,1.575,0,0,1-.238.034,6.706,6.706,0,0,1-1.35.094,5.522,5.522,0,0,1-.68-.023,4.771,4.771,0,0,1-.491-.044h-.012l-.284-.045a9.6,9.6,0,0,1-2.492-.732l-.894-.41-.489-.291a12.411,12.411,0,0,1-2.278-1.681l-.139.528a.08.08,0,0,1-.088.061c-.015-.009-.031-.018-.034-.031l-.4-.416c0-.013-.018-.022-.034-.031l-.4-.106-.165-.036a.068.068,0,0,1-.053-.079l0-.012a.066.066,0,0,1,.015-.043l.009-.015.423-.379a.027.027,0,0,0,.018-.031l.052-.207c-.11-.128-.22-.256-.321-.4a10.155,10.155,0,0,1-.945-1.278,8.875,8.875,0,0,1-.854-1.586.017.017,0,0,1-.007-.023v0a2.636,2.636,0,0,1-.138-.289l-.135-.277-6.813,1.72.176.746a14.3,14.3,0,0,0,.452,1.584,21,21,0,0,0,9.572,10.807l.946.513.009-.015.528.242a15.876,15.876,0,0,0,9.469,1.357l.847-.136-.006-.024.783-.237a17.4,17.4,0,0,0,8.125-5.254l.422-.482.016.009.6-.84a17.481,17.481,0,0,0,2.787-14.587A18.773,18.773,0,0,0-397.876-1752.377Zm-8.868-8.067a.128.128,0,0,1-.009.067l-.3.854a.1.1,0,0,0,0,.064l.207.868a.127.127,0,0,1-.091.153.133.133,0,0,1-.068-.009l-.823-.285v-.012l-.028-.006a.1.1,0,0,0-.064,0l-.835.185-.036.009a.105.105,0,0,1-.134-.067l0-.015v-.012a.077.077,0,0,1,0-.052l.006-.027.288-.812.009-.015a.19.19,0,0,0,.009-.067l-.209-.881a.111.111,0,0,1,.078-.136h0a.1.1,0,0,1,.064,0l.854.3a.128.128,0,0,0,.067.009l.881-.21a.114.114,0,0,1,.137.08v0Z"/><path class="f" d="M-413.4-1759.478q-.389-.311-.769-.584l.223.061a.245.245,0,0,1,.137.082Z"/><path class="g" d="M-424.682-1744.664a8.852,8.852,0,0,0,.854,1.586A11.868,11.868,0,0,1-424.682-1744.664Zm-.25-8.078c-.07.289-.136.591-.19.89.075-.369.163-.741.259-1.128A1.964,1.964,0,0,0-424.932-1752.742Zm.344-1.254c-.1.336-.19.683-.275,1.016.1-.375.209-.766.33-1.159A.826.826,0,0,0-424.588-1754Zm.188-.592-.018.083c.03-.086.048-.168.082-.241a.529.529,0,0,0-.064.158Zm2.857-6.4c-.17.3-.337.616-.5.931l-.391.76c-.3.607-.6,1.254-.892,1.91a5.109,5.109,0,0,0-.2.492c.145-.348.3-.7.461-1.05.543-1.187,1.132-2.347,1.781-3.47a4.518,4.518,0,0,0-.255.428Zm7.4,23.606a6.724,6.724,0,0,0,1.35-.094,9.285,9.285,0,0,1-1.352.095Zm-5.287-27.056c-.4.593-.975,1.478-1.616,2.586a4.53,4.53,0,0,0-.24.437c.647-1.136,1.328-2.241,2.069-3.31l.2-.3v-.012Zm4.2,1.713c.183.11.357.234.531.359h.013a6.083,6.083,0,0,0-.541-.358Zm1.421,2.8a.24.24,0,0,0-.137-.082l-.223-.061q.38.274.769.584Zm2.32-.054.006.024c.54.447,1.054.888,1.542,1.335q-.762-.721-1.545-1.358Zm5.61,17.912-.283.422a6.956,6.956,0,0,0,.538-.8,5.134,5.134,0,0,0,.3-.568,10.26,10.26,0,0,1-.552.947Zm1.414-8.368a11.228,11.228,0,0,1,.281,1.575,9.464,9.464,0,0,0-.269-1.578Zm-.178-.655.159.582h.013c-.047-.2-.108-.389-.168-.581Z"/><path class="f" d="M-404.468-1750.505l.018.073h-.012a11.226,11.226,0,0,1,.281,1.575c.009.192.022.4.032.589a4.693,4.693,0,0,1,0,.53,10.5,10.5,0,0,1-.393,2.757,12.082,12.082,0,0,1-.785,1.974c-.167.314-.346.632-.553.943l-.283.422-.036.061c-.1.128-.2.256-.3.388a8.958,8.958,0,0,1-.8.876c-.134.138-.271.263-.42.391a9.917,9.917,0,0,1-1.162.89,12.546,12.546,0,0,1-1.212.7,6.668,6.668,0,0,1-.667.285,6.046,6.046,0,0,1-.627.236,2.614,2.614,0,0,1-.3.089c-.131.046-.277.083-.411.117-.159.04-.305.077-.454.1a1.575,1.575,0,0,1-.238.034,9.384,9.384,0,0,1-1.35.094,5.7,5.7,0,0,1-.68-.023c-.164-.007-.328-.021-.491-.044h-.012l-.284-.045a12.417,12.417,0,0,1-6.147-3.142l.028-.045.432-.4.018-.03a.121.121,0,0,0-.052-.1l-.568-.142a.09.09,0,0,1-.042-.015l-.4-.432a.027.027,0,0,0-.03-.018.064.064,0,0,0-.086.032l-.005.017-.1.336c-.11-.128-.217-.244-.327-.372a10.155,10.155,0,0,1-.945-1.278,11.925,11.925,0,0,1-.854-1.586.017.017,0,0,1-.007-.023v0a2.627,2.627,0,0,1-.138-.289c-.037-.094-.062-.192-.1-.286-.056-.168-.111-.335-.151-.494l-.064-.256c-.019-.073-.025-.149-.047-.234s-.025-.15-.043-.223c-.04-.21-.083-.432-.114-.658l-.016-.061c-.009-.036-.006-.076-.015-.113-.009-.088-.007-.18-.016-.268-.012-.152-.028-.317-.044-.481s-.013-.308-.016-.476c-.006-.024,0-.052-.006-.076a2.4,2.4,0,0,1,0-.339c0-.115,0-.247.011-.365l.009-.119a1.061,1.061,0,0,1,0-.195c.006-.028,0-.052.006-.08.053-.61.128-1.238.249-1.89.008-.067.03-.138.039-.205a.209.209,0,0,1,.012-.055c.075-.369.163-.741.259-1.128s.209-.766.33-1.159a2.815,2.815,0,0,1,.094-.3c.006-.028,0-.052.021-.07.03-.086.048-.168.082-.241.042-.141.085-.281.139-.425a.842.842,0,0,1,.079-.2,2.734,2.734,0,0,1,.136-.384c.067-.2.137-.385.218-.574.04-.1.079-.2.131-.3a2.378,2.378,0,0,1,.1-.259c.145-.348.3-.7.461-1.05.543-1.187,1.132-2.347,1.781-3.47s1.328-2.241,2.069-3.31l.2-.3.3.17.329.176c.26.155.589.331.956.55l.381.228c.278.176.556.352.846.525l.681.438a2.475,2.475,0,0,1,.3.209c.183.11.357.234.531.359l-.578.535-.6.565-.274.25a.252.252,0,0,0-.082.138.286.286,0,0,0,.2.338l1.858.477q.38.274.769.584l1.052,1.135a.259.259,0,0,0,.137.082.272.272,0,0,0,.235-.047.261.261,0,0,0,.1-.155l.181-.669v-.012l.212-.8c.54.447,1.054.888,1.542,1.335q.33.306.669.648c.19.185.367.374.541.55.349.353.673.712.991,1.1.149.183.311.363.449.548a16.233,16.233,0,0,1,2.083,3.273c.083.173.169.359.239.536.034.082.065.152.1.234s.07.177.107.271c.015.061.04.107.055.168l.065.2.159.582Z"/><path class="c" d="M-404.639-1751.084l.159.582h.013C-404.518-1750.7-404.579-1750.892-404.639-1751.084Zm.178.655a11.219,11.219,0,0,1,.281,1.575,9.464,9.464,0,0,0-.269-1.578Zm-1.414,8.368-.283.422a6.945,6.945,0,0,0,.538-.8,5.047,5.047,0,0,0,.3-.568c-.17.317-.349.635-.556.946Z"/><path class="h" d="M-409.592-1762.279a.489.489,0,0,1-.082.137l-.946.874-.578.535-.052.052a.241.241,0,0,0-.082.137l-.154.571.006.024-.212.8v.012l-.181.669a.261.261,0,0,1-.1.155.268.268,0,0,1-.235.047.253.253,0,0,1-.137-.082l-1.052-1.135-.409-.441a.24.24,0,0,0-.137-.082l-.223-.061-1.858-.477a.286.286,0,0,1-.2-.338.252.252,0,0,1,.082-.138l.274-.25.6-.565.578-.535h.013l.115-.107a.246.246,0,0,0,.082-.138l.127-.472.212-.806.2-.8a.281.281,0,0,1,.341-.19.29.29,0,0,1,.134.07l1.461,1.576a.259.259,0,0,0,.137.082l2.081.538A.3.3,0,0,1-409.592-1762.279Z"/><path class="h" d="M-406.747-1760.457v.013a.127.127,0,0,1-.009.067l-.3.854a.1.1,0,0,0,0,.064l.207.868a.127.127,0,0,1-.091.153.133.133,0,0,1-.068-.009l-.823-.285v-.012l-.028-.006a.1.1,0,0,0-.064,0l-.835.185-.036.009a.105.105,0,0,1-.134-.067l0-.015v-.012a.078.078,0,0,1,0-.052l.006-.027.288-.812.009-.015a.19.19,0,0,0,.009-.067l-.209-.881a.111.111,0,0,1,.078-.136h0a.1.1,0,0,1,.064,0l.854.3a.128.128,0,0,0,.067.009l.881-.21a.113.113,0,0,1,.134.085Z"/><path class="h" d="M-421.281-1741.1l-.018.03-.432.4-.028.045-.006.028-.139.528a.079.079,0,0,1-.088.061c-.015-.009-.031-.018-.034-.031l-.4-.416c0-.013-.018-.022-.034-.031l-.4-.106-.165-.036a.067.067,0,0,1-.053-.079l0-.012a.066.066,0,0,1,.015-.043l.009-.015.423-.379a.026.026,0,0,0,.018-.031l.052-.207.006-.027.1-.336a.065.065,0,0,1,.074-.054l.017.005a.027.027,0,0,1,.03.018l.4.432c.015.009.03.019.042.015l.568.142A.123.123,0,0,1-421.281-1741.1Z"/></g><path class="i" d="M-422.183-1789.076a31.683,31.683,0,0,1,31.683,31.683,31.683,31.683,0,0,1-31.683,31.683,31.683,31.683,0,0,1-31.683-31.683,31.683,31.683,0,0,1,31.683-31.683Z"/></g></svg>