<svg xmlns="http://www.w3.org/2000/svg" width="66.697" height="66.697" viewBox="0 0 66.697 66.697"><defs><style>.a{fill:#ddd;stroke-width:2.332px;}.a,.g{stroke:#9e9e9e;stroke-miterlimit:10;}.b{opacity:0.53;}.c{fill:#c8c8c8;}.d{fill:#f7f7f7;}.e{fill:#e4e4e4;}.f{fill:#fff;}.g{fill:none;stroke-width:3.33px;}.h{fill:#a0a0a0;font-size:31.088px;font-family:Nunito-ExtraBold, Nunito;font-weight:800;}</style></defs><g transform="translate(732.951 1531.181)"><circle class="a" cx="31.683" cy="31.683" r="31.683" transform="translate(-731.521 -1529.516)"/><g class="b"><path class="c" d="M-702.1-1485.1a8.888,8.888,0,0,0,.855,1.586A11.87,11.87,0,0,1-702.1-1485.1Z"/><path class="d" d="M-696.852-1504.876c-.4.592-.975,1.478-1.616,2.586a4.75,4.75,0,0,0-.24.436c.647-1.135,1.327-2.24,2.069-3.309l.2-.3,0-.012Zm-2.111,3.45c-.17.3-.337.616-.5.931-.13.253-.261.506-.391.76-.3.607-.6,1.254-.892,1.91a5.146,5.146,0,0,0-.2.491c.145-.348.3-.7.461-1.049.543-1.188,1.131-2.347,1.781-3.471A4.739,4.739,0,0,0-698.963-1501.426Zm-2.857,6.4-.018.082c.03-.085.048-.167.081-.241A.569.569,0,0,0-701.82-1495.027Zm-.533,1.846c-.069.289-.135.591-.19.89.076-.369.163-.741.26-1.128A2.066,2.066,0,0,0-702.353-1493.181Zm.345-1.254c-.1.335-.19.683-.275,1.016.1-.376.209-.766.33-1.16A.717.717,0,0,0-702.008-1494.435Z"/><path class="d" d="M-698.743-1514.627l2.3,9.156-.407.595c-.4.592-.975,1.478-1.616,2.586a4.75,4.75,0,0,0-.24.436,4.739,4.739,0,0,0-.255.428c-.17.3-.337.616-.5.931-.13.253-.261.506-.391.76-.3.607-.6,1.254-.892,1.91a5.146,5.146,0,0,0-.2.491,2.61,2.61,0,0,0-.1.26c-.051.1-.09.2-.13.3-.082.189-.151.375-.218.573a4.64,4.64,0,0,0-.215.586c-.055.144-.1.284-.14.424a.569.569,0,0,0-.063.159l-.018.082c-.022.019-.015.043-.021.07a2.87,2.87,0,0,0-.094.3.717.717,0,0,0-.055.144c-.1.335-.19.683-.275,1.016a2.066,2.066,0,0,0-.07.238c-.066.3-.148.594-.19.89-.009.015-.006.028-.012.055-.009.067-.03.137-.039.2-.12.653-.2,1.281-.249,1.891-.006.027,0,.052-.005.079a1.067,1.067,0,0,0,0,.2l-.009.119a3.45,3.45,0,0,0-.011.366,2.527,2.527,0,0,0-.006.339c.006.024,0,.051.007.076,0,.167,0,.323.016.475a6.9,6.9,0,0,0,.06.75c.009.037.006.076.015.113l.015.061a3.915,3.915,0,0,0,.115.658c.018.073.024.149.043.222s.028.162.046.235l.191.756-6.825,1.722-.115-.865c-1.374-10.478,6.243-23.29,9.591-28.309Z"/><path class="c" d="M-691.566-1477.82a6.686,6.686,0,0,0,1.351-.1A9.245,9.245,0,0,1-691.566-1477.82Z"/><path class="c" d="M-692.647-1503.163c.183.109.357.234.531.359l.012,0C-692.278-1502.932-692.464-1503.054-692.647-1503.163Zm3.74,2.75.007.025c.54.447,1.053.888,1.542,1.335Q-688.123-1499.775-688.907-1500.413Z"/><path class="c" d="M-675.3-1492.816l-.26-.621.012,0-.441-.874c-4.707-9.3-16.369-16.675-21.168-19.405l-1.59-.908,2.3,9.156,0,.012.3.17.33.176c.259.155.589.331.955.55l.382.227c.278.177.556.353.846.526.216.14.449.288.68.437a2.582,2.582,0,0,1,.3.21c.183.109.369.231.543.355l.116-.107a.246.246,0,0,0,.082-.137l.127-.473.211-.8.2-.8a.28.28,0,0,1,.341-.19.291.291,0,0,1,.134.07l1.461,1.576a.246.246,0,0,0,.137.082l2.08.538a.3.3,0,0,1,.2.338.477.477,0,0,1-.082.137l-.946.874-.578.535-.051.052a.241.241,0,0,0-.082.137l-.155.57q.785.639,1.549,1.36.33.3.669.647c.19.186.367.375.541.551.348.353.672.712.99,1.1.15.183.312.362.45.548a16.26,16.26,0,0,1,2.083,3.272c.083.174.169.36.239.536.034.083.064.153.1.235s.071.177.107.271c.016.061.04.107.056.168l.064.2c.062.192.123.384.172.578l.019.074a9.485,9.485,0,0,1,.268,1.578c.01.192.023.4.032.588s.01.348.005.531a10.493,10.493,0,0,1-.394,2.757,11.92,11.92,0,0,1-.785,1.974,5.215,5.215,0,0,1-.3.568,6.848,6.848,0,0,1-.538.8l-.036.061.018.022-.322.366a9.063,9.063,0,0,1-.8.877c-.134.138-.271.263-.42.391a9.871,9.871,0,0,1-1.162.89,12.55,12.55,0,0,1-1.212.7,6.68,6.68,0,0,1-.667.285,6.043,6.043,0,0,1-.628.236,2.672,2.672,0,0,1-.3.089l-.421.132.006.024-.451.062a1.313,1.313,0,0,1-.237.034,6.686,6.686,0,0,1-1.351.1,5.472,5.472,0,0,1-.679-.023c-.171-.009-.33-.02-.491-.044l-.013,0-.283-.045a9.6,9.6,0,0,1-2.492-.733l-.9-.409-.488-.292a12.314,12.314,0,0,1-2.278-1.68l-.139.527a.08.08,0,0,1-.088.062c-.016-.01-.031-.019-.034-.031l-.4-.417c0-.012-.019-.021-.034-.03l-.4-.106-.164-.036a.068.068,0,0,1-.049-.091.067.067,0,0,1,.015-.043l.009-.015.423-.379a.028.028,0,0,0,.018-.031l.051-.207c-.11-.128-.22-.256-.321-.4a10.418,10.418,0,0,1-.944-1.278,8.888,8.888,0,0,1-.855-1.586.018.018,0,0,1-.006-.025,2.812,2.812,0,0,1-.138-.289l-.134-.277-6.813,1.719.176.747a14.6,14.6,0,0,0,.451,1.584,21,21,0,0,0,9.573,10.807l.946.513.009-.015.528.242a15.874,15.874,0,0,0,9.469,1.357l.847-.136-.006-.025.783-.236a17.4,17.4,0,0,0,8.124-5.253l.423-.483.015.009.605-.839a17.484,17.484,0,0,0,2.787-14.588A18.784,18.784,0,0,0-675.3-1492.816Zm-8.868-8.068a.133.133,0,0,1-.009.067l-.3.855a.1.1,0,0,0,0,.064l.206.868a.126.126,0,0,1-.091.153.136.136,0,0,1-.067-.009l-.824-.285,0-.012-.027-.006a.1.1,0,0,0-.064,0l-.835.185-.037.009a.106.106,0,0,1-.137-.082l0-.012a.077.077,0,0,1,0-.052l.006-.027.288-.812.009-.015a.217.217,0,0,0,.009-.067l-.21-.881a.113.113,0,0,1,.083-.137c.024-.006.048-.013.064,0l.854.3c.027.006.043.016.067.009l.88-.209a.114.114,0,0,1,.138.082Z"/><path class="e" d="M-690.817-1499.917q-.39-.311-.769-.584l.222.06a.259.259,0,0,1,.138.082Z"/><path class="e" d="M-702.1-1485.1a8.888,8.888,0,0,0,.855,1.586A11.87,11.87,0,0,1-702.1-1485.1Zm-.25-8.078c-.069.289-.135.591-.19.89.076-.369.163-.741.26-1.128A2.066,2.066,0,0,0-702.353-1493.181Zm.345-1.254c-.1.335-.19.683-.275,1.016.1-.376.209-.766.33-1.16A.717.717,0,0,0-702.008-1494.435Zm.188-.592-.018.082c.03-.085.048-.167.081-.241A.569.569,0,0,0-701.82-1495.027Zm2.857-6.4c-.17.3-.337.616-.5.931-.13.253-.261.506-.391.76-.3.607-.6,1.254-.892,1.91a5.146,5.146,0,0,0-.2.491c.145-.348.3-.7.461-1.049.543-1.188,1.131-2.347,1.781-3.471A4.739,4.739,0,0,0-698.963-1501.426Zm7.4,23.606a6.686,6.686,0,0,0,1.351-.1A9.245,9.245,0,0,1-691.566-1477.82Zm-5.286-27.056c-.4.592-.975,1.478-1.616,2.586a4.75,4.75,0,0,0-.24.436c.647-1.135,1.327-2.24,2.069-3.309l.2-.3,0-.012Zm4.205,1.713c.183.109.357.234.531.359l.012,0C-692.278-1502.932-692.464-1503.054-692.647-1503.163Zm1.421,2.8a.259.259,0,0,0-.138-.082l-.222-.06q.379.273.769.584Zm2.319-.054.007.025c.54.447,1.053.888,1.542,1.335Q-688.123-1499.775-688.907-1500.413Zm5.611,17.913-.283.421a6.848,6.848,0,0,0,.538-.8,5.215,5.215,0,0,0,.3-.568C-682.911-1483.129-683.09-1482.811-683.3-1482.5Zm1.414-8.368a11.259,11.259,0,0,1,.28,1.575,9.485,9.485,0,0,0-.268-1.578Zm-.179-.655.16.582.012,0C-681.938-1491.139-682-1491.331-682.061-1491.523Z"/><path class="e" d="M-681.889-1490.945l.019.074-.012,0a11.259,11.259,0,0,1,.28,1.575c.01.192.023.4.032.588s.01.348.005.531a10.493,10.493,0,0,1-.394,2.757,11.92,11.92,0,0,1-.785,1.974c-.167.314-.346.632-.552.943l-.283.421-.036.061c-.1.129-.2.257-.3.388a9.063,9.063,0,0,1-.8.877c-.134.138-.271.263-.42.391a9.871,9.871,0,0,1-1.162.89,12.55,12.55,0,0,1-1.212.7,6.68,6.68,0,0,1-.667.285,6.043,6.043,0,0,1-.628.236,2.672,2.672,0,0,1-.3.089c-.131.046-.278.083-.412.117-.158.04-.3.077-.454.1a1.313,1.313,0,0,1-.237.034,9.245,9.245,0,0,1-1.351.1,5.472,5.472,0,0,1-.679-.023c-.171-.009-.33-.02-.491-.044l-.013,0-.283-.045a12.407,12.407,0,0,1-6.147-3.142l.027-.046.432-.394.019-.03a.122.122,0,0,0-.052-.1l-.568-.142c-.012,0-.027-.006-.043-.015l-.394-.432a.027.027,0,0,0-.03-.018.066.066,0,0,0-.092.049l-.1.335c-.11-.127-.217-.243-.328-.371a10.418,10.418,0,0,1-.944-1.278,11.87,11.87,0,0,1-.855-1.586.018.018,0,0,1-.006-.025,2.812,2.812,0,0,1-.138-.289c-.036-.095-.061-.192-.1-.286-.055-.168-.11-.336-.15-.494l-.065-.256c-.018-.073-.025-.149-.046-.235s-.025-.149-.043-.222c-.04-.21-.084-.433-.115-.658l-.015-.061c-.009-.037-.006-.076-.015-.113-.01-.088-.007-.18-.016-.268-.013-.153-.028-.317-.044-.482s-.013-.308-.016-.475c-.006-.025,0-.052-.007-.076a2.527,2.527,0,0,1,.006-.339,3.45,3.45,0,0,1,.011-.366l.009-.119a1.067,1.067,0,0,1,0-.2c.006-.027,0-.052.005-.079.054-.61.129-1.238.249-1.891.009-.067.03-.137.039-.2.006-.027,0-.04.012-.055.076-.369.163-.741.26-1.128s.209-.766.33-1.16a2.87,2.87,0,0,1,.094-.3c.006-.027,0-.051.021-.07.03-.085.048-.167.081-.241.043-.14.085-.28.14-.424a.859.859,0,0,1,.079-.2,2.619,2.619,0,0,1,.136-.385c.067-.2.136-.384.218-.573.04-.1.079-.2.13-.3a2.61,2.61,0,0,1,.1-.26c.145-.348.3-.7.461-1.049.543-1.188,1.131-2.347,1.781-3.471s1.327-2.24,2.069-3.309l.2-.3.3.17.33.176c.259.155.589.331.955.55l.382.227c.278.177.556.353.846.526.216.14.449.288.68.437a2.582,2.582,0,0,1,.3.21c.183.109.357.234.531.359l-.578.534-.6.566-.274.25a.247.247,0,0,0-.082.138.285.285,0,0,0,.2.338l1.858.477q.379.273.769.584l1.051,1.134a.246.246,0,0,0,.138.082.266.266,0,0,0,.234-.046.26.26,0,0,0,.1-.156l.181-.668,0-.012.212-.8c.54.447,1.053.888,1.542,1.335q.33.3.669.647c.19.186.367.375.541.551.348.353.672.712.99,1.1.15.183.312.362.45.548a16.26,16.26,0,0,1,2.083,3.272c.083.174.169.36.239.536.034.083.064.153.1.235s.071.177.107.271c.016.061.04.107.056.168l.064.2.16.582Z"/><path class="c" d="M-682.061-1491.523l.16.582.012,0C-681.938-1491.139-682-1491.331-682.061-1491.523Zm.179.655a11.259,11.259,0,0,1,.28,1.575,9.485,9.485,0,0,0-.268-1.578Zm-1.414,8.368-.283.421a6.848,6.848,0,0,0,.538-.8,5.215,5.215,0,0,0,.3-.568C-682.911-1483.129-683.09-1482.811-683.3-1482.5Z"/><path class="f" d="M-687.013-1502.718a.477.477,0,0,1-.082.137l-.946.874-.578.535-.051.052a.241.241,0,0,0-.082.137l-.155.57.007.025-.212.8,0,.012-.181.668a.26.26,0,0,1-.1.156.266.266,0,0,1-.234.046.246.246,0,0,1-.138-.082l-1.051-1.134-.409-.442a.259.259,0,0,0-.138-.082l-.222-.06-1.858-.477a.285.285,0,0,1-.2-.338.247.247,0,0,1,.082-.138l.274-.25.6-.566.578-.534.012,0,.116-.107a.246.246,0,0,0,.082-.137l.127-.473.211-.8.2-.8a.28.28,0,0,1,.341-.19.291.291,0,0,1,.134.07l1.461,1.576a.246.246,0,0,0,.137.082l2.08.538A.3.3,0,0,1-687.013-1502.718Z"/><path class="f" d="M-684.167-1500.9l0,.012a.133.133,0,0,1-.009.067l-.3.855a.1.1,0,0,0,0,.064l.206.868a.126.126,0,0,1-.091.153.136.136,0,0,1-.067-.009l-.824-.285,0-.012-.027-.006a.1.1,0,0,0-.064,0l-.835.185-.037.009a.106.106,0,0,1-.137-.082l0-.012a.077.077,0,0,1,0-.052l.006-.027.288-.812.009-.015a.217.217,0,0,0,.009-.067l-.21-.881a.113.113,0,0,1,.083-.137c.024-.006.048-.013.064,0l.854.3c.027.006.043.016.067.009l.88-.209A.114.114,0,0,1-684.167-1500.9Z"/><path class="f" d="M-698.7-1481.541l-.019.03-.432.394-.027.046-.006.028-.139.527a.08.08,0,0,1-.088.062c-.016-.01-.031-.019-.034-.031l-.4-.417c0-.012-.019-.021-.034-.03l-.4-.106-.164-.036a.068.068,0,0,1-.049-.091.067.067,0,0,1,.015-.043l.009-.015.423-.379a.028.028,0,0,0,.018-.031l.051-.207.007-.028.1-.335a.066.066,0,0,1,.092-.049.027.027,0,0,1,.03.018l.394.432c.016.009.031.018.043.015l.568.142A.122.122,0,0,1-698.7-1481.541Z"/></g><circle class="g" cx="31.683" cy="31.683" r="31.683" transform="translate(-731.286 -1529.516)"/></g></svg>