<svg xmlns="http://www.w3.org/2000/svg" width="45.337" height="60.711" viewBox="0 0 45.337 60.711"><defs><style>.a{fill:#5cb5bc;}.b{fill:#e6f5fa;}.c{fill:#e7f5fa;}.d{fill:#b2dbdf;}.e{fill:#b3dbdf;}.f{fill:#fff;}</style></defs><g transform="translate(461.742 728.941)"><path class="a" d="M-452.518-693.167a11.431,11.431,0,0,0,.566,2.248A15.278,15.278,0,0,1-452.518-693.167Z"/><path class="b" d="M-439.743-716.181c-.679.615-1.682,1.537-2.83,2.717a6.052,6.052,0,0,0-.436.469c1.164-1.213,2.361-2.377,3.622-3.477l.34-.307v-.017Zm-3.719,3.639c-.307.324-.615.663-.922,1l-.728.825c-.566.663-1.148,1.374-1.714,2.1-.145.178-.275.356-.4.55.291-.388.6-.776.9-1.165,1.052-1.31,2.151-2.571,3.316-3.768A5.875,5.875,0,0,0-443.462-712.542Zm-5.579,7.084-.049.1c.065-.1.113-.194.178-.275A.705.705,0,0,0-449.041-705.458Zm-1.246,2.135c-.177.339-.355.7-.517,1.051.21-.437.437-.874.679-1.326A2.467,2.467,0,0,0-450.287-703.323Zm.825-1.456c-.226.388-.453.792-.663,1.181.243-.437.5-.89.776-1.343A1.106,1.106,0,0,0-449.462-704.779Z"/><path class="c" d="M-439.031-728.941l-.016,12.145-.7.615c-.679.615-1.682,1.537-2.83,2.717a6.052,6.052,0,0,0-.436.469,5.875,5.875,0,0,0-.453.453c-.307.324-.615.663-.922,1l-.728.825c-.566.663-1.148,1.374-1.714,2.1-.145.178-.275.356-.4.55a3.116,3.116,0,0,0-.21.291c-.1.113-.178.226-.259.34-.162.21-.307.42-.453.647a5.975,5.975,0,0,0-.453.663c-.113.161-.21.323-.307.485a.705.705,0,0,0-.129.178l-.049.1c-.032.016-.032.048-.048.081a3.917,3.917,0,0,0-.211.339,1.106,1.106,0,0,0-.113.162c-.226.388-.453.792-.663,1.181a2.467,2.467,0,0,0-.162.275c-.177.355-.371.7-.517,1.051-.016.016-.016.032-.032.065-.033.08-.081.161-.114.242-.355.776-.646,1.536-.9,2.28-.016.033-.016.065-.032.1a1.284,1.284,0,0,0-.065.243l-.049.146c-.048.145-.1.307-.129.452a3.088,3.088,0,0,0-.113.421c0,.032-.016.065-.016.1-.049.21-.1.4-.13.6a9.14,9.14,0,0,0-.161.955c0,.048-.017.1-.017.145v.081a5.152,5.152,0,0,0-.064.857c0,.1-.016.194-.016.291,0,.113-.017.21-.017.307v1h-9.057l.129-1.115c1.585-13.5,15.12-27.09,20.878-32.3Z"/><path class="a" d="M-441.666-680.763a8.6,8.6,0,0,0,1.715.307A11.978,11.978,0,0,1-441.666-680.763Z"/><path class="a" d="M-435.036-712.72c.194.194.372.4.55.614h.016C-434.648-712.316-434.842-712.526-435.036-712.72Zm3.8,4.609v.032c.534.728,1.035,1.439,1.505,2.151Q-430.46-707.068-431.236-708.111Z"/><path class="a" d="M-416.648-694.349l-.129-.857h.016l-.275-1.229c-2.944-13.084-15.171-25.956-20.3-30.873l-1.7-1.633-.016,12.145v.017l.323.307.356.323c.275.275.631.6,1.019.987l.4.4c.291.307.582.615.89.922l.711.76a3.083,3.083,0,0,1,.308.356c.194.194.388.4.566.614l.178-.1a.318.318,0,0,0,.145-.145l.307-.55.518-.938.5-.938a.361.361,0,0,1,.485-.13.381.381,0,0,1,.146.13l1.326,2.426a.32.32,0,0,0,.146.145l2.426,1.326a.388.388,0,0,1,.145.485.608.608,0,0,1-.145.146l-1.456.792-.889.486-.081.048a.322.322,0,0,0-.146.146l-.372.663q.777,1.043,1.505,2.183.315.484.63,1.019c.178.291.34.582.5.857.323.55.614,1.1.889,1.682.13.275.275.55.388.825a20.837,20.837,0,0,1,1.569,4.738c.049.243.1.5.13.744.016.113.032.21.048.324s.033.242.049.371c0,.081.016.146.016.227l.016.275c.016.259.032.517.032.776v.1a12.2,12.2,0,0,1-.161,2.054c-.049.243-.1.5-.146.744-.048.226-.1.437-.161.663a13.508,13.508,0,0,1-1.359,3.315,15.336,15.336,0,0,1-1.6,2.216,6.434,6.434,0,0,1-.549.615,9.053,9.053,0,0,1-.922.825l-.065.064.016.033-.517.355a11.464,11.464,0,0,1-1.278.841c-.21.13-.42.243-.647.356a12.672,12.672,0,0,1-1.73.744,16.05,16.05,0,0,1-1.731.485,8.26,8.26,0,0,1-.921.146,7.58,7.58,0,0,1-.858.1,3.413,3.413,0,0,1-.4.016l-.566.033v.032l-.582-.065a1.809,1.809,0,0,1-.307-.032,8.6,8.6,0,0,1-1.715-.307,7.269,7.269,0,0,1-.841-.243,6.285,6.285,0,0,1-.6-.21h-.016l-.34-.146a12.335,12.335,0,0,1-2.879-1.7l-.986-.792-.518-.517a15.9,15.9,0,0,1-2.313-2.814l-.339.614a.1.1,0,0,1-.13.049c-.016-.016-.032-.033-.032-.049l-.372-.647c0-.016-.016-.032-.032-.048l-.469-.259-.194-.1a.087.087,0,0,1-.033-.129c0-.016.017-.033.033-.049l.016-.016.647-.34a.034.034,0,0,0,.032-.032l.129-.243a6.525,6.525,0,0,1-.274-.6,13.242,13.242,0,0,1-.777-1.892,11.431,11.431,0,0,1-.566-2.248.022.022,0,0,1,0-.032,3.63,3.63,0,0,1-.081-.405l-.081-.388h-9.04l-.016.987a18.745,18.745,0,0,0,.065,2.119,27.012,27.012,0,0,0,8.539,16.495l1.019.938.016-.016.583.469a20.406,20.406,0,0,0,11.385,4.673l1.1.1v-.032l1.051-.049a22.4,22.4,0,0,0,11.79-4l.679-.469.016.017,1.019-.858a22.494,22.494,0,0,0,8.069-17.321A24.165,24.165,0,0,0-416.648-694.349Zm-8.523-12.857c0,.033-.016.049-.032.081l-.647.97a.125.125,0,0,0-.016.081l-.016,1.149a.162.162,0,0,1-.162.161c-.032,0-.049-.016-.081-.032l-.938-.615v-.016l-.032-.016a.123.123,0,0,0-.081-.016l-1.1-.032h-.048c-.081,0-.162-.065-.146-.146v-.016a.1.1,0,0,1,.016-.065l.016-.032.615-.922.016-.016a.284.284,0,0,0,.032-.081l.016-1.164a.146.146,0,0,1,.146-.146.123.123,0,0,1,.081.016l.97.647c.033.016.049.032.081.032l1.165.017a.144.144,0,0,1,.145.145Z"/><path class="d" d="M-433.775-708.095q-.387-.51-.776-.97l.259.145a.32.32,0,0,1,.145.146Z"/><path class="e" d="M-452.518-693.167a11.431,11.431,0,0,0,.566,2.248A15.278,15.278,0,0,1-452.518-693.167Zm2.231-10.156c-.177.339-.355.7-.517,1.051.21-.437.437-.874.679-1.326A2.467,2.467,0,0,0-450.287-703.323Zm.825-1.456c-.226.388-.453.792-.663,1.181.243-.437.5-.89.776-1.343A1.106,1.106,0,0,0-449.462-704.779Zm.421-.679-.049.1c.065-.1.113-.194.178-.275A.705.705,0,0,0-449.041-705.458Zm5.579-7.084c-.307.324-.615.663-.922,1l-.728.825c-.566.663-1.148,1.374-1.714,2.1-.145.178-.275.356-.4.55.291-.388.6-.776.9-1.165,1.052-1.31,2.151-2.571,3.316-3.768A5.875,5.875,0,0,0-443.462-712.542Zm1.8,31.779a8.6,8.6,0,0,0,1.715.307A11.978,11.978,0,0,1-441.666-680.763Zm1.923-35.418c-.679.615-1.682,1.537-2.83,2.717a6.052,6.052,0,0,0-.436.469c1.164-1.213,2.361-2.377,3.622-3.477l.34-.307v-.017Zm4.707,3.461c.194.194.372.4.55.614h.016C-434.648-712.316-434.842-712.526-435.036-712.72Zm.889,3.946a.32.32,0,0,0-.145-.146l-.259-.145q.389.461.776.97Zm2.911.663v.032c.534.728,1.035,1.439,1.505,2.151Q-430.46-707.068-431.236-708.111Zm1.36,24.113-.485.437a9.053,9.053,0,0,0,.922-.825,6.434,6.434,0,0,0,.549-.615C-429.2-684.661-429.52-684.322-429.876-684Zm4.4-9.995a14.458,14.458,0,0,1-.145,2.054,12.2,12.2,0,0,0,.161-2.054Zm-.016-.873.016.776h.016C-425.462-694.349-425.478-694.607-425.494-694.866Z"/><path class="d" d="M-425.462-694.09v.1h-.016a14.458,14.458,0,0,1-.145,2.054c-.049.243-.1.5-.146.744-.048.226-.1.437-.161.663a13.508,13.508,0,0,1-1.359,3.315,15.336,15.336,0,0,1-1.6,2.216c-.307.34-.63.679-.986,1l-.485.437-.065.064c-.162.13-.323.259-.5.388a11.464,11.464,0,0,1-1.278.841c-.21.13-.42.243-.647.356a12.672,12.672,0,0,1-1.73.744,16.05,16.05,0,0,1-1.731.485,8.26,8.26,0,0,1-.921.146,7.58,7.58,0,0,1-.858.1,3.413,3.413,0,0,1-.4.016c-.178.016-.372.016-.55.016-.21,0-.4,0-.6-.016a1.809,1.809,0,0,1-.307-.032,11.978,11.978,0,0,1-1.715-.307,7.269,7.269,0,0,1-.841-.243,6.285,6.285,0,0,1-.6-.21h-.016l-.34-.146a15.957,15.957,0,0,1-6.679-5.854l.048-.048.663-.356.033-.032a.154.154,0,0,0-.033-.146l-.663-.356c-.016,0-.032-.016-.048-.032l-.356-.663a.035.035,0,0,0-.033-.032.084.084,0,0,0-.129.032l-.226.388c-.1-.194-.194-.372-.291-.566a13.242,13.242,0,0,1-.777-1.892,15.278,15.278,0,0,1-.566-2.248.022.022,0,0,1,0-.032,3.63,3.63,0,0,1-.081-.405c-.016-.129-.016-.258-.032-.388-.016-.226-.032-.453-.033-.663v-.34c0-.1.017-.194.017-.307,0-.1.016-.194.016-.291.016-.275.032-.566.064-.857v-.081c0-.048.017-.1.017-.145.016-.114.048-.227.064-.34.033-.194.065-.4.1-.615.033-.194.081-.388.13-.6,0-.032.016-.065.016-.1a3.088,3.088,0,0,1,.113-.421c.032-.145.081-.307.129-.452l.049-.146a1.284,1.284,0,0,1,.065-.243c.016-.032.016-.064.032-.1.259-.744.55-1.5.9-2.28.033-.081.081-.162.114-.242.016-.033.016-.049.032-.065.21-.437.437-.874.679-1.326.243-.437.5-.89.776-1.343a3.917,3.917,0,0,1,.211-.339c.016-.033.016-.065.048-.081.065-.1.113-.194.178-.275.1-.162.194-.324.307-.485a1.165,1.165,0,0,1,.162-.227,3.447,3.447,0,0,1,.291-.436c.146-.227.291-.437.453-.647.081-.114.162-.227.259-.34a3.116,3.116,0,0,1,.21-.291c.291-.388.6-.776.9-1.165,1.052-1.31,2.151-2.571,3.316-3.768,1.164-1.213,2.361-2.377,3.622-3.477l.34-.307.323.307.356.323c.275.275.631.6,1.019.987l.4.4c.291.307.582.615.89.922l.711.76a3.083,3.083,0,0,1,.308.356c.194.194.372.4.55.614l-.89.486-.922.517-.42.226a.323.323,0,0,0-.146.146.366.366,0,0,0,.146.485l2.167,1.181q.389.461.776.97l.955,1.747a.314.314,0,0,0,.145.145.34.34,0,0,0,.307.016.334.334,0,0,0,.178-.161l.437-.777v-.016l.517-.938c.534.728,1.035,1.439,1.505,2.151q.315.484.63,1.019c.178.291.34.582.5.857.323.55.614,1.1.889,1.682.13.275.275.55.388.825a20.837,20.837,0,0,1,1.569,4.738c.049.243.1.5.13.744.016.113.032.21.048.324s.033.242.049.371c0,.081.016.146.016.227l.016.275.016.776Z"/><path class="a" d="M-425.494-694.866l.016.776h.016C-425.462-694.349-425.478-694.607-425.494-694.866Zm.016.873a14.458,14.458,0,0,1-.145,2.054,12.2,12.2,0,0,0,.161-2.054Zm-4.4,9.995-.485.437a9.053,9.053,0,0,0,.922-.825,6.434,6.434,0,0,0,.549-.615C-429.2-684.661-429.52-684.322-429.876-684Z"/><path class="f" d="M-428.147-710.392a.608.608,0,0,1-.145.146l-1.456.792-.889.486-.081.048a.322.322,0,0,0-.146.146l-.372.663v.032l-.517.938v.016l-.437.777a.334.334,0,0,1-.178.161.34.34,0,0,1-.307-.016.314.314,0,0,1-.145-.145l-.955-1.747-.372-.679a.32.32,0,0,0-.145-.146l-.259-.145-2.167-1.181a.366.366,0,0,1-.146-.485.323.323,0,0,1,.146-.146l.42-.226.922-.517.89-.486h.016l.178-.1a.318.318,0,0,0,.145-.145l.307-.55.518-.938.5-.938a.361.361,0,0,1,.485-.13.381.381,0,0,1,.146.13l1.326,2.426a.32.32,0,0,0,.146.145l2.426,1.326A.388.388,0,0,1-428.147-710.392Z"/><path class="f" d="M-425.171-707.222v.016c0,.033-.016.049-.032.081l-.647.97a.125.125,0,0,0-.016.081l-.016,1.149a.162.162,0,0,1-.162.161c-.032,0-.049-.016-.081-.032l-.938-.615v-.016l-.032-.016a.123.123,0,0,0-.081-.016l-1.1-.032h-.048c-.081,0-.162-.065-.146-.146v-.016a.1.1,0,0,1,.016-.065l.016-.032.615-.922.016-.016a.284.284,0,0,0,.032-.081l.016-1.164a.146.146,0,0,1,.146-.146.123.123,0,0,1,.081.016l.97.647c.033.016.049.032.081.032l1.165.017A.144.144,0,0,1-425.171-707.222Z"/><path class="f" d="M-449.4-687.652l-.033.032-.663.356-.048.048-.017.033-.339.614a.1.1,0,0,1-.13.049c-.016-.016-.032-.033-.032-.049l-.372-.647c0-.016-.016-.032-.032-.048l-.469-.259-.194-.1a.087.087,0,0,1-.033-.129c0-.016.017-.033.033-.049l.016-.016.647-.34a.034.034,0,0,0,.032-.032l.129-.243.017-.032.226-.388a.084.084,0,0,1,.129-.032.035.035,0,0,1,.033.032l.356.663c.016.016.032.032.048.032l.663.356A.154.154,0,0,1-449.4-687.652Z"/></g></svg>