<svg xmlns="http://www.w3.org/2000/svg" width="84.412" height="55.432" viewBox="0 0 84.412 55.432">
  <g id="Grupo_1774" data-name="Grupo 1774" transform="translate(-138 -435.893)">
    <g id="Grupo_1522" data-name="Grupo 1522" transform="translate(68.369 -957.016)">
      <g id="Grupo_1375" data-name="Grupo 1375">
        <g id="Caminho_260-13" data-name="Caminho 260-13">
          <path id="Caminho_2195" data-name="Caminho 2195" d="M138.444,1436.4v6.708q2.355-.129,4.645-.289,2.632-.183,5.189-.4c1.051-.087,2.088-.18,3.118-.276a2.861,2.861,0,0,0,2.556-2.392c.165-1.005-1.509-2.01-1.467-3.216.054-1.684,1.735-3.326,1.542-4.67a2.845,2.845,0,0,0-3.093-2.414q-2.055.194-4.162.368c-1.025.087-2.059,0-3.08.126a5.2,5.2,0,0,0-2.82,1.328,7.036,7.036,0,0,0-1.72,2.129,6.418,6.418,0,0,0-.367.867A6.487,6.487,0,0,0,138.444,1436.4Z" fill="#efefef"/>
        </g>
        <g id="Caminho_260-14" data-name="Caminho 260-14">
          <path id="Caminho_2196" data-name="Caminho 2196" d="M85.231,1437.389v6.708q-2.355-.129-4.645-.289-2.635-.183-5.189-.4c-1.052-.087-2.088-.18-3.119-.276a2.861,2.861,0,0,1-2.557-2.392c-.165-1.005,1.509-2.011,1.466-3.216-.053-1.685-1.735-3.325-1.541-4.671a2.844,2.844,0,0,1,3.094-2.414q2.052.194,4.162.368c1.025.087,2.057,0,3.079.125a5.192,5.192,0,0,1,2.821,1.328,7.06,7.06,0,0,1,1.72,2.129,6.3,6.3,0,0,1,.368.867A6.551,6.551,0,0,1,85.231,1437.389Z" fill="#efefef"/>
        </g>
        <path id="Caminho_261-6" data-name="Caminho 261-6" d="M146.29,1444.43a2.865,2.865,0,0,1-2.568,2.419c-9.623.9-20.146,1.479-31.451,1.492-11.635.015-22.446-.568-32.307-1.494a2.86,2.86,0,0,1-2.558-2.391,26.021,26.021,0,0,1-.073-7.886,2.846,2.846,0,0,1,3.094-2.415c9.665.915,20.265,1.492,31.672,1.484,11.212-.008,21.64-.581,31.165-1.482a2.86,2.86,0,0,1,3.1,2.485,27.484,27.484,0,0,1,.228,4.479A28,28,0,0,1,146.29,1444.43Z" fill="#f4f4f4"/>
        <g id="Grupo_1374" data-name="Grupo 1374">
          <g id="Grupo_1373" data-name="Grupo 1373">
            <path id="Caminho_2197" data-name="Caminho 2197" d="M83.013,1444.081a.485.485,0,0,1-.425-.236.506.506,0,0,1,.044-.5l2.159-3.963a.888.888,0,0,1,.3-.343.675.675,0,0,1,.745.053.863.863,0,0,1,.244.381l1.593,4.229a.517.517,0,0,1-.024.509.452.452,0,0,1-.427.172.572.572,0,0,1-.375-.144.954.954,0,0,1-.212-.382l-.256-.724-2.4-.169-.351.679a1.073,1.073,0,0,1-.258.353A.508.508,0,0,1,83.013,1444.081Zm2.356-3.861-.948,1.884,1.65.116-.687-2Zm.573-1.663a.346.346,0,0,1-.243.1.34.34,0,0,1-.217-.084.333.333,0,0,1-.115-.195.277.277,0,0,1,.067-.227l.581-.737a.355.355,0,0,1,.294-.162.472.472,0,0,1,.3.112.419.419,0,0,1,.157.261.315.315,0,0,1-.116.289Z" fill="#373737"/>
            <path id="Caminho_2198" data-name="Caminho 2198" d="M90.789,1444.6a3.039,3.039,0,0,1-1.454-.411,2.226,2.226,0,0,1-.865-.972,3.272,3.272,0,0,1,.165-2.806,2.257,2.257,0,0,1,.992-.875,3.081,3.081,0,0,1,1.5-.246,3.734,3.734,0,0,1,.785.133,2.824,2.824,0,0,1,.743.335.447.447,0,0,1,.221.3.545.545,0,0,1-.061.352.492.492,0,0,1-.26.234.44.44,0,0,1-.387-.055,2.37,2.37,0,0,0-1.091-.317,1.5,1.5,0,0,0-1.2.367,1.815,1.815,0,0,0-.46,1.232,1.766,1.766,0,0,0,.326,1.272,1.547,1.547,0,0,0,1.156.489,3.127,3.127,0,0,0,.884-.082l.056-1.008-.658-.038c-.3-.018-.445-.161-.429-.435s.176-.4.477-.384l1.147.065a.4.4,0,0,1,.427.371.393.393,0,0,1-.008.108l-.1,1.7a.611.611,0,0,1-.094.316.439.439,0,0,1-.256.177,4.521,4.521,0,0,1-.748.148A4.6,4.6,0,0,1,90.789,1444.6Z" fill="#373737"/>
            <path id="Caminho_2199" data-name="Caminho 2199" d="M95.858,1444.85a2.3,2.3,0,0,1-1.646-.634,2.25,2.25,0,0,1-.5-1.7l.106-2.486a.585.585,0,0,1,.163-.422.572.572,0,0,1,.431-.132.5.5,0,0,1,.546.459.512.512,0,0,1-.007.141l-.1,2.493a1.374,1.374,0,0,0,.244.96,1.057,1.057,0,0,0,.813.353q1.1.045,1.157-1.219l.1-2.493a.5.5,0,0,1,.445-.558.489.489,0,0,1,.143,0,.541.541,0,0,1,.406.168.6.6,0,0,1,.125.434l-.1,2.486a1.992,1.992,0,0,1-2.326,2.146Z" fill="#373737"/>
            <path id="Caminho_2200" data-name="Caminho 2200" d="M99.178,1444.967a.483.483,0,0,1-.434-.217.5.5,0,0,1,.022-.505l1.987-4.051a.905.905,0,0,1,.288-.355.68.68,0,0,1,.746.023.87.87,0,0,1,.261.369l1.772,4.157a.514.514,0,0,1,0,.509.455.455,0,0,1-.42.189.573.573,0,0,1-.381-.127.947.947,0,0,1-.227-.372l-.288-.711-2.408-.067-.32.693a1.08,1.08,0,0,1-.244.363A.5.5,0,0,1,99.178,1444.967Zm2.19-3.958-.866,1.924,1.653.045-.772-1.969Z" fill="#373737"/>
            <path id="Caminho_2201" data-name="Caminho 2201" d="M104.756,1443.513a.436.436,0,0,1-.309-.129.413.413,0,0,1-.123-.311.423.423,0,0,1,.133-.312.438.438,0,0,1,.313-.12l1.508.026a.428.428,0,0,1,.309.129.42.42,0,0,1,.124.316.415.415,0,0,1-.134.3.437.437,0,0,1-.313.12Z" fill="#373737"/>
            <path id="Caminho_2202" data-name="Caminho 2202" d="M108.131,1445.162a.508.508,0,0,1-.381-.141.551.551,0,0,1-.131-.389l.018-4.238a.53.53,0,0,1,.14-.392.55.55,0,0,1,.4-.133.62.62,0,0,1,.346.089.835.835,0,0,1,.237.287l1.555,2.868,1.577-2.855a.821.821,0,0,1,.239-.285.6.6,0,0,1,.342-.086.521.521,0,0,1,.383.138.532.532,0,0,1,.134.392l-.017,4.238a.463.463,0,0,1-.388.525.491.491,0,0,1-.127,0,.462.462,0,0,1-.518-.53l.011-2.686-1.21,2.153a.714.714,0,0,1-.186.208.527.527,0,0,1-.523,0,.609.609,0,0,1-.183-.208l-1.191-2.142-.012,2.664a.46.46,0,0,1-.384.524A.48.48,0,0,1,108.131,1445.162Z" fill="#373737"/>
            <path id="Caminho_2203" data-name="Caminho 2203" d="M114.141,1445.171a.482.482,0,0,1-.442-.2.5.5,0,0,1,0-.506l1.826-4.127a.9.9,0,0,1,.274-.365.669.669,0,0,1,.747-.008.848.848,0,0,1,.274.358l1.936,4.084a.519.519,0,0,1,.017.509.452.452,0,0,1-.411.206.574.574,0,0,1-.385-.114.981.981,0,0,1-.243-.362l-.315-.7-2.408.028-.292.706a1.04,1.04,0,0,1-.229.372A.51.51,0,0,1,114.141,1445.171Zm2.032-4.042-.79,1.957,1.654-.02-.849-1.937Z" fill="#373737"/>
            <path id="Caminho_2204" data-name="Caminho 2204" d="M120.09,1445.087a.558.558,0,0,1-.429-.143.6.6,0,0,1-.157-.428l-.1-4.059a.509.509,0,0,1,.416-.589.483.483,0,0,1,.147,0l1.777-.047a1.933,1.933,0,0,1,1.342.383,1.473,1.473,0,0,1,.5,1.152,1.521,1.521,0,0,1-.271.969,1.487,1.487,0,0,1-.832.545,1.1,1.1,0,0,1,.651.546l.476.829a.585.585,0,0,1,.071.515c-.059.16-.211.242-.454.25a.7.7,0,0,1-.4-.093.831.831,0,0,1-.271-.309l-.736-1.276a.6.6,0,0,0-.278-.272.926.926,0,0,0-.382-.063l-.556.014.038,1.479a.611.611,0,0,1-.131.435A.545.545,0,0,1,120.09,1445.087Zm.49-2.9,1.016-.025c.61-.016.909-.267.9-.755s-.324-.717-.932-.7l-1.018.028Z" fill="#373737"/>
            <path id="Caminho_2205" data-name="Caminho 2205" d="M125.168,1444.938a.558.558,0,0,1-.43-.139.6.6,0,0,1-.161-.427l-.145-4.117a.512.512,0,0,1,.407-.6.524.524,0,0,1,.143-.007c.375-.012.57.175.583.566l.146,4.118a.507.507,0,0,1-.543.6Z" fill="#373737"/>
            <path id="Caminho_2206" data-name="Caminho 2206" d="M127.289,1444.864c-.35.017-.534-.158-.55-.524l-.189-4.167a.611.611,0,0,1,.115-.43.474.474,0,0,1,.355-.163.515.515,0,0,1,.3.063,1.291,1.291,0,0,1,.26.24l2.505,2.913-.127-2.808a.473.473,0,0,1,.372-.556.459.459,0,0,1,.128-.008.472.472,0,0,1,.546.384.494.494,0,0,1,0,.133l.191,4.218a.572.572,0,0,1-.107.39.423.423,0,0,1-.33.158.579.579,0,0,1-.329-.066,1.212,1.212,0,0,1-.271-.244l-2.505-2.913.127,2.808A.471.471,0,0,1,127.289,1444.864Z" fill="#373737"/>
            <path id="Caminho_2207" data-name="Caminho 2207" d="M132.83,1444.594a.561.561,0,0,1-.433-.127.6.6,0,0,1-.172-.423l-.248-4.114a.512.512,0,0,1,.393-.608.525.525,0,0,1,.143-.01q.561-.035.6.551l.094,1.548,2.4-.144-.093-1.548a.507.507,0,0,1,.382-.607.546.546,0,0,1,.145-.011.511.511,0,0,1,.6.405.534.534,0,0,1,.007.144l.247,4.114a.612.612,0,0,1-.12.44.559.559,0,0,1-.415.179.55.55,0,0,1-.426-.129.6.6,0,0,1-.173-.422l-.1-1.621-2.4.144.1,1.621a.509.509,0,0,1-.385.607A.548.548,0,0,1,132.83,1444.594Z" fill="#373737"/>
            <path id="Caminho_2208" data-name="Caminho 2208" d="M138.078,1444.27a.486.486,0,0,1-.454-.172.508.508,0,0,1-.031-.5l1.563-4.234a.872.872,0,0,1,.25-.382.621.621,0,0,1,.363-.141.635.635,0,0,1,.381.085.853.853,0,0,1,.3.341l2.189,3.954a.515.515,0,0,1,.049.506.456.456,0,0,1-.4.232.571.571,0,0,1-.392-.089.969.969,0,0,1-.265-.347l-.358-.678-2.4.181-.246.723a1.057,1.057,0,0,1-.206.385A.508.508,0,0,1,138.078,1444.27Zm1.772-4.163-.665,2,1.649-.124-.97-1.88Z" fill="#373737"/>
          </g>
        </g>
      </g>
    </g>
    <g id="Grupo_1773" data-name="Grupo 1773">
      <g id="Grupo_1002" data-name="Grupo 1002" transform="translate(68.369 -957.016)">
        <g id="Grupo_996" data-name="Grupo 996">
          <path id="Caminho_1791" data-name="Caminho 1791" d="M103.541,1415.8a7.283,7.283,0,0,0,.362,1.438A9.761,9.761,0,0,1,103.541,1415.8Z" fill="#bbb"/>
        </g>
        <g id="Grupo_997-2" data-name="Grupo 997-2">
          <path id="Caminho_1792" data-name="Caminho 1792" d="M111.715,1401.077c-.434.394-1.076.984-1.811,1.739a3.958,3.958,0,0,0-.279.3c.745-.776,1.511-1.521,2.318-2.225l.218-.2v-.011Zm-2.38,2.329c-.2.207-.393.424-.59.64l-.465.527c-.363.425-.735.88-1.1,1.344a3.672,3.672,0,0,0-.256.352c.186-.248.384-.5.576-.745.673-.839,1.376-1.645,2.122-2.411a3.625,3.625,0,0,0-.29.293Zm-3.57,4.533-.031.064c.042-.064.072-.124.114-.176A.477.477,0,0,0,105.765,1407.939Zm-.8,1.366c-.113.217-.227.448-.331.672.135-.279.28-.559.435-.848a1.45,1.45,0,0,0-.1.176Zm.528-.932c-.145.248-.29.507-.424.756.155-.28.32-.57.5-.859a.7.7,0,0,0-.072.1Z" fill="#f5f5f5"/>
          <path id="Caminho_1793-2" data-name="Caminho 1793-2" d="M112.171,1392.912l-.01,7.772-.448.393c-.435.394-1.077.984-1.811,1.739a3.763,3.763,0,0,0-.279.3,3.611,3.611,0,0,0-.29.29c-.2.207-.394.424-.59.64l-.466.528c-.362.424-.735.879-1.1,1.343a3.994,3.994,0,0,0-.256.352q-.072.09-.135.186c-.059.07-.114.143-.166.218-.1.134-.2.269-.29.414a4.234,4.234,0,0,0-.29.424c-.072.1-.134.207-.2.311a.489.489,0,0,0-.083.114l-.031.064c-.02.01-.02.03-.031.051-.048.07-.093.143-.135.217a.811.811,0,0,0-.072.1c-.145.248-.29.507-.424.756a1.6,1.6,0,0,0-.1.176c-.113.227-.237.448-.331.672-.01.01-.01.021-.02.042-.021.051-.052.1-.073.155a15.5,15.5,0,0,0-.576,1.459c-.01.021-.01.041-.021.064a.909.909,0,0,0-.041.155l-.031.094a2.647,2.647,0,0,0-.083.289,2.1,2.1,0,0,0-.072.269c0,.021-.011.042-.011.064-.031.135-.064.256-.083.384a6.03,6.03,0,0,0-.1.611c0,.031-.011.064-.011.093v.052a3.469,3.469,0,0,0-.041.548c0,.064-.01.124-.01.186s-.011.135-.011.2v.64H97.654l.082-.714c1.014-8.638,9.676-17.335,13.36-20.669Z" fill="#f5f5f5"/>
        </g>
        <g id="Grupo_998" data-name="Grupo 998">
          <path id="Caminho_1794" data-name="Caminho 1794" d="M110.485,1423.744a5.548,5.548,0,0,0,1.1.2A7.721,7.721,0,0,1,110.485,1423.744Z" fill="#bbb"/>
        </g>
        <g id="Grupo_999" data-name="Grupo 999">
          <path id="Caminho_1795-2" data-name="Caminho 1795-2" d="M114.728,1403.292c.124.124.238.256.352.393h.01C114.976,1403.55,114.851,1403.416,114.728,1403.292Zm2.432,2.949v.021c.342.465.662.92.963,1.376q-.468-.729-.963-1.4Z" fill="#bbb"/>
          <path id="Caminho_1796-2" data-name="Caminho 1796-2" d="M126.494,1415.044l-.083-.548h.01l-.175-.786c-1.884-8.373-9.708-16.61-12.99-19.756l-1.088-1.045-.011,7.772v.01l.207.2.228.207c.176.176.4.384.652.631l.256.256c.186.2.372.394.569.59l.456.486a1.956,1.956,0,0,1,.2.228c.124.124.249.256.363.393l.114-.064a.2.2,0,0,0,.092-.093l.2-.352.331-.6.32-.6a.231.231,0,0,1,.311-.083.255.255,0,0,1,.093.083l.849,1.552a.191.191,0,0,0,.093.093l1.552.849a.247.247,0,0,1,.093.31.4.4,0,0,1-.093.094l-.931.506-.569.311-.052.031a.2.2,0,0,0-.093.093l-.238.425q.5.667.963,1.4c.133.206.266.424.4.652.114.186.217.373.32.549.206.352.393.7.569,1.075.083.177.176.353.248.529a13.363,13.363,0,0,1,1,3.032c.031.156.064.32.083.476.01.073.021.135.031.208s.021.154.031.237c0,.052.01.093.01.145l.011.176c.01.166.02.331.02.5v.064a7.819,7.819,0,0,1-.1,1.314c-.031.156-.064.32-.093.476s-.064.28-.1.424a8.688,8.688,0,0,1-.871,2.122,9.759,9.759,0,0,1-1.023,1.418,4.108,4.108,0,0,1-.352.393,5.688,5.688,0,0,1-.59.528l-.042.041.01.021-.33.227a7.173,7.173,0,0,1-.818.539c-.135.083-.269.155-.414.227a8.091,8.091,0,0,1-1.107.477,10.139,10.139,0,0,1-1.108.31,5.313,5.313,0,0,1-.589.093,4.6,4.6,0,0,1-.549.064,2.19,2.19,0,0,1-.256.011l-.362.021v.02l-.373-.041a1.114,1.114,0,0,1-.2-.021,5.47,5.47,0,0,1-1.1-.2,4.6,4.6,0,0,1-.538-.156,3.947,3.947,0,0,1-.384-.134h-.01l-.218-.094a7.837,7.837,0,0,1-1.842-1.088l-.631-.506-.331-.331a10.1,10.1,0,0,1-1.48-1.8l-.217.393a.064.064,0,0,1-.084.031c-.01-.01-.02-.021-.02-.031l-.239-.414c0-.01-.01-.02-.021-.031l-.3-.165-.124-.064a.057.057,0,0,1-.025-.075v-.008c0-.01.011-.021.021-.031l.01-.011.414-.217a.023.023,0,0,0,.021-.021l.082-.155c-.064-.125-.123-.253-.175-.384a8.3,8.3,0,0,1-.5-1.211,7.2,7.2,0,0,1-.362-1.438.014.014,0,0,1,0-.02h0a2.083,2.083,0,0,1-.052-.259l-.052-.248H97.636l-.01.631a11.8,11.8,0,0,0,.042,1.356,17.283,17.283,0,0,0,5.464,10.556l.652.6.01-.01.373.3a13.054,13.054,0,0,0,7.286,2.99l.7.064v-.02l.673-.032a14.329,14.329,0,0,0,7.544-2.559l.435-.3.01.011.652-.549a14.4,14.4,0,0,0,5.164-11.083A15.534,15.534,0,0,0,126.494,1415.044Zm-5.454-8.227a.1.1,0,0,1-.021.052l-.414.621a.086.086,0,0,0-.01.052l-.01.735a.1.1,0,0,1-.1.1h0a.1.1,0,0,1-.052-.021l-.6-.393v-.01l-.02-.011a.079.079,0,0,0-.052-.01l-.7-.02h-.031a.087.087,0,0,1-.093-.081.029.029,0,0,1,0-.013v-.01a.062.062,0,0,1,.01-.042l.01-.02.394-.59.01-.01a.235.235,0,0,0,.021-.052l.01-.745a.093.093,0,0,1,.093-.093h0a.074.074,0,0,1,.052.01l.621.414c.021.01.031.02.052.02l.745.011a.093.093,0,0,1,.093.092h0Z" fill="#bbb"/>
        </g>
        <g id="Grupo_1000" data-name="Grupo 1000">
          <path id="Caminho_1797" data-name="Caminho 1797" d="M115.534,1406.251q-.247-.325-.5-.62l.165.092a.206.206,0,0,1,.093.094Z" fill="#dedede"/>
          <path id="Caminho_1798" data-name="Caminho 1798" d="M103.541,1415.8a7.283,7.283,0,0,0,.362,1.438A9.761,9.761,0,0,1,103.541,1415.8Zm1.427-6.5c-.113.217-.227.448-.331.672.135-.279.28-.559.435-.848a1.45,1.45,0,0,0-.1.176Zm.528-.932c-.145.249-.29.507-.424.756.155-.28.32-.57.5-.859a.71.71,0,0,0-.076.1Zm.269-.434-.031.064c.042-.064.072-.124.114-.176A.477.477,0,0,0,105.765,1407.938Zm3.57-4.533c-.2.207-.393.424-.59.64l-.465.528c-.363.424-.735.879-1.1,1.343a3.67,3.67,0,0,0-.256.352c.186-.248.384-.5.576-.745.673-.839,1.376-1.645,2.122-2.411a3.6,3.6,0,0,0-.287.294Zm1.152,20.335a5.483,5.483,0,0,0,1.1.2A7.721,7.721,0,0,1,110.487,1423.74Zm1.231-22.664c-.435.394-1.077.984-1.811,1.739a3.985,3.985,0,0,0-.279.3c.745-.776,1.511-1.521,2.318-2.225l.217-.2v-.011Zm3.012,2.215c.124.124.238.256.352.393h.01c-.116-.135-.241-.269-.365-.393Zm.569,2.525a.2.2,0,0,0-.093-.094l-.166-.092c.166.2.333.4.5.62Zm1.862.424v.021c.342.465.663.92.964,1.376q-.468-.729-.966-1.4Zm.871,15.43-.311.28a5.688,5.688,0,0,0,.59-.528,4.09,4.09,0,0,0,.352-.394c-.2.218-.406.435-.634.641Zm2.815-6.4a9.186,9.186,0,0,1-.092,1.315,7.937,7.937,0,0,0,.1-1.315Zm-.01-.558.01.5h.011c0-.166-.015-.331-.025-.5Z" fill="#dedede"/>
          <path id="Caminho_1799" data-name="Caminho 1799" d="M120.854,1415.213v.064h-.011a9.182,9.182,0,0,1-.092,1.314c-.032.156-.064.32-.094.477s-.064.279-.1.424a8.7,8.7,0,0,1-.869,2.121,9.925,9.925,0,0,1-1.024,1.418,8.667,8.667,0,0,1-.631.64l-.311.28-.041.041c-.1.083-.207.165-.32.248a7.486,7.486,0,0,1-.818.538c-.134.083-.269.156-.414.228a8.139,8.139,0,0,1-1.107.476,10.139,10.139,0,0,1-1.108.31,5.13,5.13,0,0,1-.589.094,4.824,4.824,0,0,1-.55.064,2.155,2.155,0,0,1-.256.01c-.114.01-.238.01-.352.01-.134,0-.256,0-.384-.01a1.113,1.113,0,0,1-.2-.02,7.747,7.747,0,0,1-1.1-.2,4.79,4.79,0,0,1-.538-.155q-.195-.058-.384-.135h-.01l-.218-.093a10.217,10.217,0,0,1-4.274-3.746l.031-.031.424-.228.022-.02a.1.1,0,0,0-.022-.094l-.424-.227c-.01,0-.02-.011-.031-.021l-.227-.424a.023.023,0,0,0-.021-.021.055.055,0,0,0-.076.009l-.007.012-.145.248c-.064-.124-.124-.238-.186-.362a8.523,8.523,0,0,1-.5-1.211,9.76,9.76,0,0,1-.362-1.438.015.015,0,0,1,0-.02h0a2.283,2.283,0,0,1-.052-.259c-.01-.082-.01-.165-.021-.248-.01-.145-.02-.29-.021-.424v-.218c0-.064.011-.124.011-.2s.01-.125.01-.187c.011-.176.021-.362.041-.548v-.052c0-.031.011-.064.011-.093.011-.073.031-.145.041-.217.021-.124.042-.257.064-.394s.052-.249.083-.385c0-.02.011-.041.011-.063a2.063,2.063,0,0,1,.072-.27,2.713,2.713,0,0,1,.083-.289l.031-.094a.845.845,0,0,1,.042-.155c.01-.021.01-.041.02-.064.166-.476.352-.96.576-1.459.021-.052.052-.1.073-.155.01-.021.01-.032.02-.042.135-.279.28-.559.435-.847s.32-.571.5-.861c.042-.074.087-.147.135-.217.011-.021.011-.041.031-.051.035-.06.073-.119.114-.176.064-.1.124-.208.2-.311a.8.8,0,0,1,.1-.145,2.253,2.253,0,0,1,.186-.279c.094-.145.187-.28.29-.414a2.247,2.247,0,0,1,.166-.218c.042-.064.086-.126.134-.186.187-.248.384-.5.576-.745.673-.839,1.377-1.645,2.122-2.411s1.511-1.521,2.318-2.225l.217-.2.207.2.228.206c.176.176.4.384.653.632l.256.256c.186.2.372.393.57.59l.454.486a2.054,2.054,0,0,1,.2.228c.124.124.238.257.352.394l-.57.311-.59.331-.269.144a.2.2,0,0,0-.093.094.232.232,0,0,0,.093.31l1.387.756c.166.2.332.407.5.621l.612,1.118a.2.2,0,0,0,.092.092.218.218,0,0,0,.2.011.223.223,0,0,0,.114-.1l.279-.5v-.01l.331-.6c.342.466.662.921.963,1.376q.2.311.4.652c.114.187.218.373.32.549.207.352.393.7.569,1.076.083.176.176.352.248.528a13.281,13.281,0,0,1,1,3.032c.032.155.064.32.084.476.01.072.02.134.03.207s.022.155.032.238c0,.051.01.093.01.145l.01.176.01.5Z" fill="#dedede"/>
        </g>
        <g id="Grupo_1001" data-name="Grupo 1001">
          <path id="Caminho_1800" data-name="Caminho 1800" d="M120.828,1414.717l.01.5h.011A4.111,4.111,0,0,0,120.828,1414.717Zm.01.558a9.187,9.187,0,0,1-.092,1.315,7.83,7.83,0,0,0,.1-1.315Zm-2.815,6.4-.31.28a6.026,6.026,0,0,0,.59-.528,4.218,4.218,0,0,0,.351-.394,8.86,8.86,0,0,1-.63.641Z" fill="#bbb"/>
        </g>
        <path id="Caminho_1801-14" data-name="Caminho 1801-14" d="M119.136,1404.781a.415.415,0,0,1-.093.094l-.932.507-.569.311-.052.03a.2.2,0,0,0-.093.094l-.238.424v.021l-.331.6v.01l-.28.5a.213.213,0,0,1-.113.1.221.221,0,0,1-.2-.01.191.191,0,0,1-.093-.093l-.611-1.118-.238-.434a.206.206,0,0,0-.093-.094l-.165-.092-1.387-.756a.233.233,0,0,1-.093-.311.2.2,0,0,1,.093-.093l.269-.145.59-.33.569-.311h.01l.114-.064a.2.2,0,0,0,.093-.093l.2-.352.331-.6.32-.6a.23.23,0,0,1,.31-.083.252.252,0,0,1,.094.083l.848,1.553a.206.206,0,0,0,.094.093l1.552.848A.249.249,0,0,1,119.136,1404.781Z" fill="#fff"/>
        <path id="Caminho_1802-2" data-name="Caminho 1802-2" d="M121.04,1406.81v.01a.1.1,0,0,1-.021.052l-.414.621a.086.086,0,0,0-.01.052l-.01.735a.1.1,0,0,1-.1.1h0a.1.1,0,0,1-.052-.021l-.6-.393v-.01l-.02-.011a.086.086,0,0,0-.052-.01l-.7-.02h-.031a.086.086,0,0,1-.093-.08.033.033,0,0,1,0-.014v-.01a.064.064,0,0,1,.01-.042l.01-.02.394-.59.01-.01a.2.2,0,0,0,.021-.052l.01-.745a.093.093,0,0,1,.093-.093h0a.079.079,0,0,1,.052.01l.621.414c.021.01.031.02.052.02l.745.011a.093.093,0,0,1,.093.092Z" fill="#fff"/>
        <path id="Caminho_1803-2" data-name="Caminho 1803-2" d="M105.536,1419.333l-.021.02-.425.228-.03.031-.011.021-.217.393a.064.064,0,0,1-.083.031c-.011-.01-.021-.021-.021-.031l-.238-.414c0-.01-.01-.021-.02-.031l-.3-.166-.125-.064a.055.055,0,0,1-.026-.074v-.008c0-.01.011-.021.021-.031l.011-.011.414-.217a.022.022,0,0,0,.02-.021l.083-.155.011-.021.144-.248a.054.054,0,0,1,.071-.027l.012.007a.022.022,0,0,1,.021.02l.228.424c.01.011.02.021.03.021l.425.228A.1.1,0,0,1,105.536,1419.333Z" fill="#fff"/>
      </g>
      <g id="Grupo_1002-2" data-name="Grupo 1002" transform="translate(4707.453 -2107.526)">
        <g id="Grupo_996-2" data-name="Grupo 996">
          <path id="Caminho_1791-2" data-name="Caminho 1791" d="M-4535.53,2566.294a7.236,7.236,0,0,0,.362,1.438A9.7,9.7,0,0,1-4535.53,2566.294Z" fill="#5cb5bc"/>
        </g>
        <g id="Grupo_997" data-name="Grupo 997">
          <path id="Caminho_13520" data-name="Caminho 13520" d="M-4535.32,2562.826h-5.58a15.887,15.887,0,0,0-.43,2.23l-.09.711h5.8v-.641c0-.06.01-.14.01-.2s.01-.12.01-.179a2.536,2.536,0,0,1,.01-.28.635.635,0,0,1,.01-.131.6.6,0,0,1,.02-.139v-.051c0-.03.01-.07.01-.1.01-.06.01-.12.02-.19a.037.037,0,0,0,.01-.03c.03-.119.05-.26.07-.389s.05-.25.08-.391a.034.034,0,0,1,.01-.029c0-.011.01-.02.01-.031s.01-.039.01-.06a.181.181,0,0,1,.02-.07v-.01c0-.01,0-.01.01-.02" fill="#e7f5fa"/>
        </g>
        <g id="Grupo_998-2" data-name="Grupo 998">
          <path id="Caminho_1794-2" data-name="Caminho 1794" d="M-4528.586,2574.234a5.491,5.491,0,0,0,1.1.2A7.6,7.6,0,0,1-4528.586,2574.234Z" fill="#5cb5bc"/>
        </g>
        <g id="Grupo_999-2" data-name="Grupo 999">
          <path id="Caminho_13521" data-name="Caminho 13521" d="M-4512.66,2564.986h.01l-.18-.789c-.1-.461-.22-.91-.36-1.371h-5.51c.04.111.07.23.11.35q.1.391.18.781c.03.149.06.319.08.469.01.08.02.14.03.21s.02.16.03.24c0,.05.01.091.01.141l.01.18v.02c.01.159.02.32.02.48v.07c0,.109,0,.219-.01.329,0,.131-.01.26-.02.4,0,.04-.01.079-.01.119-.01.131-.03.27-.05.4,0,.02-.01.039-.01.059v.01c-.03.15-.06.32-.09.47s-.06.28-.1.43c-.05.19-.1.37-.16.551s-.12.359-.2.539a9.847,9.847,0,0,1-.51,1.03,9.339,9.339,0,0,1-.78,1.111,3.455,3.455,0,0,1-.24.3v.009l-.02.02a2.332,2.332,0,0,0-.16.181.693.693,0,0,1-.12.119c-.01.01-.01.03-.03.04l-.03.03c-.09.1-.19.19-.28.281s-.2.169-.3.25h-.01l-.03.039-.01.011.01.009-.32.221a5.567,5.567,0,0,1-.56.389,2.115,2.115,0,0,1-.26.16c-.04.02-.09.05-.13.07-.09.06-.19.1-.28.151a7.879,7.879,0,0,1-1.11.48c-.36.119-.73.22-1.11.31a5.9,5.9,0,0,1-.59.089,3.453,3.453,0,0,1-.55.071,2.267,2.267,0,0,1-.26.01l-.36.02v.02l-.37-.04a1.235,1.235,0,0,1-.2-.02,5.853,5.853,0,0,1-1.1-.2,2.992,2.992,0,0,1-.54-.16,2.371,2.371,0,0,1-.23-.079,1.072,1.072,0,0,1-.16-.05h-.01l-.21-.1a7.994,7.994,0,0,1-1.85-1.079l-.63-.511-.33-.33a10.5,10.5,0,0,1-1.47-1.79.01.01,0,0,1-.01-.01l-.21.391c-.02.029-.05.049-.08.029h-.01c-.01-.009-.02-.02-.02-.029l-.24-.411c0-.01-.01-.02-.02-.03l-.29-.17-.13-.06c-.02-.02-.03-.03-.03-.05v-.029h.01v-.02c0-.011,0-.011.01-.02h.01v-.01h.01l.14-.071.27-.14a.021.021,0,0,0,.02-.02v-.009l.03-.051.05-.1c-.06-.119-.12-.25-.17-.379a8.042,8.042,0,0,1-.5-1.211,7.94,7.94,0,0,1-.37-1.44v-.02a2.418,2.418,0,0,1-.05-.259l-.05-.25h-5.79l-.01.629a12.418,12.418,0,0,0,.05,1.36,17.245,17.245,0,0,0,5.46,10.55l.65.6.01-.01.38.3a12.962,12.962,0,0,0,7.28,2.99l.7.069v-.02l.67-.029a14.473,14.473,0,0,0,7.55-2.561l.43-.3.01.01.66-.55a14.423,14.423,0,0,0,5.16-11.089,14.428,14.428,0,0,0-.14-2.18Z" fill="#5cb5bc"/>
        </g>
        <g id="Grupo_1000-2" data-name="Grupo 1000">
          <path id="Caminho_13522" data-name="Caminho 13522" d="M-4520.72,2571.846c-.11.111-.22.22-.33.32l-.29.26c.1-.07.19-.15.29-.229s.19-.18.28-.281l.03-.03c.02-.01.02-.03.03-.04Z" fill="#b3dbdf"/>
          <path id="Caminho_13523" data-name="Caminho 13523" d="M-4518.27,2566.616a.672.672,0,0,1-.01.14c.01-.09.02-.17.03-.259A.481.481,0,0,1-4518.27,2566.616Z" fill="#b3dbdf"/>
          <path id="Caminho_13524" data-name="Caminho 13524" d="M-4518.24,2565.207c0,.06.01.109.01.169v-.169Z" fill="#b3dbdf"/>
          <path id="Caminho_13525" data-name="Caminho 13525" d="M-4518.22,2565.457v.25h.01C-4518.21,2565.616-4518.22,2565.537-4518.22,2565.457Z" fill="#b3dbdf"/>
          <path id="Caminho_13526" data-name="Caminho 13526" d="M-4535.32,2562.826v.03a.181.181,0,0,0-.02.07.148.148,0,0,0-.02.06v.031a.034.034,0,0,0-.01.029c-.03.141-.06.25-.08.391s-.04.27-.07.389a.037.037,0,0,1-.01.03c-.01.06-.02.121-.03.19,0,.03-.01.06-.01.09v.051a.729.729,0,0,0-.01.149.635.635,0,0,0-.01.131,2.354,2.354,0,0,0-.02.269c0,.06-.01.11-.01.19s-.01.13-.01.2v.22a1.51,1.51,0,0,0,.01.21c0,.07.01.141.01.211s.01.17.02.25a2.3,2.3,0,0,0,.05.259v.02c.02.11.04.221.07.33l.06.27c0,.01.01.03.01.041.04.139.07.27.11.4a2.919,2.919,0,0,0,.12.391,7.677,7.677,0,0,0,.5,1.22c.06.119.12.229.18.359l.15-.25a.045.045,0,0,1,.06-.03l.02.011a.02.02,0,0,1,.02.019l.23.421c.01.02.01.02.02.02l.43.23a.166.166,0,0,1,.03.1l-.03.02-.42.22-.03.04a10.231,10.231,0,0,0,4.27,3.74l.22.091h.01l.15.06a2.371,2.371,0,0,0,.23.079,5.4,5.4,0,0,0,.54.151.469.469,0,0,0,.11.02c.14.04.29.079.44.109h.02l.47.06a.126.126,0,0,0,.06.01.684.684,0,0,0,.2.021c.13.01.25.01.39.01.11,0,.23,0,.35-.01a1.048,1.048,0,0,0,.25-.01,5.1,5.1,0,0,0,.55-.061,5.9,5.9,0,0,0,.59-.089c.38-.09.75-.191,1.11-.31a7.879,7.879,0,0,0,1.11-.48c.09-.05.19-.091.28-.151a1.03,1.03,0,0,0,.13-.079c.09-.05.18-.1.26-.151a5.567,5.567,0,0,0,.56-.389c.11-.081.21-.151.31-.23l.01-.011.03-.039h.01v-.01a.01.01,0,0,0,.01-.011l.29-.26c.11-.1.22-.209.33-.32s.19-.2.29-.3v-.009l.01-.011h.01v-.009a3.455,3.455,0,0,0,.24-.3,7.749,7.749,0,0,0,.79-1.111,8.171,8.171,0,0,0,.5-1.03c.08-.18.14-.359.2-.539s.12-.361.17-.551c.03-.15.07-.269.1-.43l.09-.48c.01-.109.03-.21.04-.32a.672.672,0,0,0,.01-.14c0-.04.01-.079.01-.119,0-.011,0-.011.01-.02v-.051a.994.994,0,0,0,.01-.17v-.16c.01-.11.01-.22.01-.329h.01v-.06h-.01v-.01h-.01l-.01-.48v-.02l-.01-.18c0-.05-.01-.091-.01-.141-.01-.08-.02-.169-.03-.24s-.02-.13-.03-.21c-.02-.15-.05-.32-.08-.469q-.075-.39-.18-.781c-.03-.12-.07-.239-.1-.35h-16.62" fill="#b2dbdf"/>
        </g>
        <g id="Grupo_1001-2" data-name="Grupo 1001">
          <path id="Caminho_1800-2" data-name="Caminho 1800" d="M-4518.22,2565.707c0-.111,0-.221-.01-.331,0-.06-.01-.109-.01-.169l.01.49v.01Zm-.1,1.31a2.456,2.456,0,0,0,.04-.261.672.672,0,0,0,.01-.14C-4518.28,2566.747-4518.3,2566.886-4518.32,2567.017Zm.09-1.25c0,.109,0,.219-.01.329v.16a1.057,1.057,0,0,0,.01-.18c.01-.1.01-.21.01-.309Zm-.03.73c0,.04-.01.079-.01.119a.481.481,0,0,0,.02-.119v-.071A.181.181,0,0,0-4518.26,2566.5Zm-2.46,5.349c-.11.111-.22.22-.33.32l-.29.26c.1-.07.19-.15.29-.229s.19-.18.28-.281l.03-.03c.02-.01.02-.03.03-.04a.693.693,0,0,0,.12-.119,2.332,2.332,0,0,1,.16-.181C-4520.53,2571.646-4520.62,2571.747-4520.72,2571.846Z" fill="#5cb5bc"/>
        </g>
        <path id="Caminho_1803" data-name="Caminho 1803" d="M-4533.535,2569.823l-.021.02-.425.228-.03.031-.011.021-.217.394a.065.065,0,0,1-.083.031c-.011-.01-.021-.021-.021-.031l-.238-.415c0-.01-.01-.021-.02-.031l-.3-.166-.125-.064a.054.054,0,0,1-.026-.073v-.009c0-.01.011-.021.021-.031l.011-.011.414-.217a.022.022,0,0,0,.02-.021l.083-.155.011-.021.144-.248a.054.054,0,0,1,.071-.027l.012.007a.022.022,0,0,1,.021.02l.228.424c.01.011.02.021.03.021l.425.228A.1.1,0,0,1-4533.535,2569.823Z" fill="#fff"/>
      </g>
    </g>
  </g>
</svg>
