<svg xmlns="http://www.w3.org/2000/svg" xmlns:xlink="http://www.w3.org/1999/xlink" width="346" height="253.776" viewBox="0 0 346 253.776"><defs><style>.a{fill:#fff;}.b{clip-path:url(#e);}.c{opacity:0.09;}.d{fill:#165425;fill-rule:evenodd;}.e{filter:url(#c);}.f{filter:url(#a);}</style><filter id="a" x="0" y="-0.201" width="346" height="253.776" filterUnits="userSpaceOnUse"><feOffset dy="3" input="SourceAlpha"/><feGaussianBlur stdDeviation="3" result="b"/><feFlood flood-opacity="0.161"/><feComposite operator="in" in2="b"/><feComposite in="SourceGraphic"/></filter><filter id="c" x="0" y="0" width="346" height="253.776" filterUnits="userSpaceOnUse"><feOffset dy="3" input="SourceAlpha"/><feGaussianBlur stdDeviation="3" result="d"/><feFlood flood-opacity="0.161"/><feComposite operator="in" in2="d"/><feComposite in="SourceGraphic"/></filter><clipPath id="e"><g class="f" transform="matrix(1, 0, 0, 1, 0, 0)"><path class="a" d="M28,238.242a24,24,0,0,1-24-24V68.744a24,24,0,0,1,24-24H132.9c3.577-5.942,13.462-21.054,26.329-29.906,13.15-9.046,38.34-13.192,43.908-11.991a87.057,87.057,0,0,0-25.171,41.9H308a24,24,0,0,1,24,24v145.5a24,24,0,0,1-24,24ZM203.347,3.084c-.137.1-.25.086-.213-.238-.2-.248-.089-.244.038-.178.054-.147.141-.129.224-.041.443-.339.381-.082.206.175-.017.024-.034.049-.053.073l.009.02c.07.168.1.335.009.335C203.524,3.231,203.453,3.189,203.347,3.084Z" transform="translate(348 346.04) rotate(180)"/></g></clipPath></defs><g transform="translate(-7 -102)"><g class="e" transform="matrix(1, 0, 0, 1, 7, 102)"><path class="a" d="M28,238.242a24,24,0,0,1-24-24V68.744a24,24,0,0,1,24-24H132.9c3.577-5.942,13.462-21.054,26.329-29.906,13.15-9.046,38.34-13.192,43.908-11.991a87.057,87.057,0,0,0-25.171,41.9H308a24,24,0,0,1,24,24v145.5a24,24,0,0,1-24,24ZM203.347,3.084c-.137.1-.25.086-.213-.238-.2-.248-.089-.244.038-.178.054-.147.141-.129.224-.041.443-.339.381-.082.206.175-.017.024-.034.049-.053.073l.009.02c.07.168.1.335.009.335C203.524,3.231,203.453,3.189,203.347,3.084Z" transform="translate(341 244.24) rotate(180)"/></g><g class="b"><g class="c" transform="translate(-4456.354 7523.418)"><path class="d" d="M487.149,375.124v-4.731l-.513-1.06v-8.393l.513-1.574v-9.454l1.051-2.1.543-2.1.518-1.569.518-2.63v-2.111l1.051-2.627.527-2.086.523-2.106,1.061-2.625,1.568-2.111,1.056-2.624,1.041-2.094,1.06-2.1,1.579-2.634,1.578-2.111,1.569-2.624,1.578-2.1,2.106-2.622,2.1-2.1,1.584-2.1,2.106-2.106,2.1-2.619,2.629-1.594,2.619-2.619,3.167-1.581,3.152-2.092,2.63-1.563,3.152-2.111,3.685-2.1,3.152-1.574,3.685-1.589,3.675-2.1,4.208-1.046,4.2-1.043,4.213-1.051,4.721-1.569,4.745-1.06,4.721-1.046,5.263-1.051,4.73-.528,5.771-.528,5.8-.533,6.294-.528v1.061l-.533,2.106-.508.518V276.4l-.528,1.041v2.621l-.518,2.117v1.563l-.538,2.106v2.1l-.523,1.568-.523,2.1v2.614l-.523,2.114-.533,2.086v2.634l-1.051,2.1-.518,2.625-.528,2.1-.533,2.632-1.051,3.137-.533,2.624-1.045,2.111-.518,2.634-1.066,2.612-1.041,2.629-1.055,2.634-1.041,2.624-.523,3.157-2.106,2.086-1.046,3.15-1.578,2.629-1.056,2.629-2.111,2.624-1.574,2.619-1.583,2.632-1.574,2.624-2.106,2.107-1.563,2.1-2.1,2.629-2.629,2.092-2.112,2.106-2.1,2.1-2.634,2.1-2.092,2.1-2.634,1.579-3.157,1.578-2.634,1.583-2.629,2.1-3.142,1.041-3.7,1.056-3.147,1.576-3.147,1.056-3.685,1.051-3.157,1.045h-4.2l-3.162,1.051-4.2.528-4.213.522h-8.405v-2.639l.528-1.558.528-2.632.528-2.1,1.041-1.06v-1.041l1.066-1.583,1.569-1.04.518-1.046,1.051-1.071,1.061-1.035,1.568-1.061,1.574-1.04,1.588-1.056,1.574-.523,2.629-1.053h.518l1.066-.523,1.579-.523h2.1l1.568-.533h10.522l1.056.533h3.68l-1.06-1.584-.528-1.056-1.035-.518-1.056-1.051-.543-.508-1.553-1.066-2.106-.523-1.578-.523-2.63-.533H522.9l-1.584.533H519.75l-1.579.523-1.583.523-1.574.528v-.528l1.061-1.046,1.031-1.573,1.594-2.107,1.051-1.046,1.04-1.061,1.056-1.556,1.568-.543,1.066-1.569,1.046-1.056,1.579-1.563,2.107-1.056,1.045-1.051,2.1-1.04,1.578-1.589,2.111-1.041,1.563-1.055,2.1-1.056,2.116-.513,2.092-.538,1.583-1.048,2.1-.528h10.517l1.046,1.051h1.578l1.056.525v-.525l-1.583-1.051-1.051-1.051-1.046-1.035-1.056-1.061-1.583-.518-2.1-.528-1.569-1.051-2.1-1.056h-2.107l-1.056-.518h-2.629l-1.579.518h-1.563l-1.066.528h-1.041l-1.589.528v-.528l.528-.528,1.06-1.045,1.041-1.584,1.579-1.574L543.4,324.7l1.051-1.055L545.5,322.6l1.046-1.046,1.579-1.056,1.055-1.04,2.091-1.056,1.066-1.04,1.569-1.071,1.574-.508,1.583-1.056,2.1-1.061,2.1-.508,1.579-.533,2.116-1.055h2.1l2.614-.528,1.589-.513h6.842l-1.594-1.056-1.045-.525h-1.583l-1.574-.533-1.564-.518h-1.578l-1.579-.528-2.111-.518h-6.309l-1.583,1.046.538-1.046.528-1.056.518-1.041,1.051-.522,1.046-1.061,1.579-1.046,1.071-1.578,1.563-1.056,2.111-1.568,2.086-1.574,1.071-.533,1.036-.513,1.583-1.068,1.045-.518,1.056-.518,1.045-1.056,1.594-.523,2.1-1.041h-6.842l-1.583,1.041-2.107.523-2.086,1.056-2.111,1.036-2.106,1.068-2.106,1.046-1.046.513-1.569.533-1.066,1.041-1.046,1.056-2.1,1.578-2.1,2.1h0l-.528-1.046-.538-1.578-1.046-1.574-1.579-2.112-1.046-1.558-2.1-1.068h-2.1l.518,1.068v6.822l-.518,1.046v1.584l-.528,1.041v1.056l-.533,1.563-.513,1.576-.538,1.051-.513,1.584-1.066,1.041-.523,2.116-.518,1.041-1.589,1.578-1.035,1.056-1.056,1.578-1.578,1.563-1.574,1.571-1.583,1.056-1.569,2.112-.533-.533V322.6l-1.051-1.563v-1.051l-.523-1.583-1.056-1.04-1.046-1.071-.533-1.564-1.574-1.061-1.06-1.041-1.563-1.055h-1.579v.528l.528,1.061.508,1.568.543,1.564.528,2.111.513,1.056v2.614l.523,2.1-.523,1.056v4.735l-.513,1.574-.528,2.1v2.1l-.543,1.579-1.036,2.1-1.066,2.111-.518,1.574-1.574,2.1-1.055,2.106-1.051,2.1-2.112,2.091-1.574,2.1v-2.1l-.528-1.051v-1.041l-.523-1.578V346.76l-.517-1.574-.528-1.04-1.051-1.589-.533-1.041-1.574-1.055-.513-1.056-2.106-1.051-1.055-1.048v12.083l-.528,1.574v1.578l-.522,1.576v1.568l-.523,1.584-.518,1.563-.538,1.579-.528,1.573-.533,1.569-.523,1.056-.518,1.584-1.056,1.566-1.046,1.056-1.06,1.578-1.046,1.046-1.578,1.569-1.036,1.071-1.593,1.046Z" transform="translate(4400.7 -7912.396)"/><path class="d" d="M569.245,379.766v-1.589l.533-1.564v-5.256l.518-1.056v-8.39l-.518-1.584v-4.205l-1.05-2.091v-6.3l-1.056-2.629V343l-1.045-2.627-.523-2.1-.528-2.624-1.046-2.1-1.06-2.106-.533-2.634-1.036-2.1-1.584-2.614-1.594-2.634-1.036-2.1-1.578-2.629-2.1-2.624-1.589-2.621-2.1-2.1-2.1-2.629-2.117-2.1-2.1-2.106-2.624-2.107-2.614-2.617-2.106-1.578-3.162-2.1-2.624-2.1-3.685-2.121-3.152-2.1-3.685-2.1-3.675-1.561-3.675-1.578-4.208-1.569-3.675-2.106-4.735-1.051-4.731-1.589-4.212-1.04-5.244-1.066-5.268-1.041-5.248-1.06-5.259-1.036-6.32-.528-5.248-.518v11.034l.528,1.569.513,2.093v3.68l.538,2.107.523,2.619v2.111l.527,2.619v2.1l.523,2.619.527,2.624,1.046,2.624.522,2.625.538,2.1,1.046,2.632.518,3.137.538,2.624,1.051,2.64,1.051,2.624.533,3.15,1.046,2.635,1.569,2.624,1.055,2.624,1.056,3.142L475.685,343l1.563,2.629,1.061,2.63,1.579,2.624,1.573,2.619,1.579,2.624,2.106,2.1,1.579,3.167,2.1,2.086,2.624,2.644,2.1,2.076,2.111,2.639,2.625,2.1,2.107,2.1,2.629,1.579,2.619,2.106,2.64,1.046,3.147,2.624,3.152,1.041,3.162,1.583,3.157,1.574,3.675,1.576,3.147.538,3.68,1.025,3.69,1.051,4.2.538,4.208.533,4.213,1.046h4.2l4.721.522-.518-.522V388.7l-.518-1.06-.548-1.053v-1.574l-.518-.523-.518-1.573-1.045-1.066v-1.563l-1.056-1.06-1.584-1.051-1.041-1.564-1.061-1.061-1.046-1.578-1.583-1.041-1.584-1.053-2.1-1.046h-2.1l-1.041-1.051-1.066-.533h-2.619l-1.051-1.056H517.209l1.051-1.036.513-1.04,1.07-1.066,1.051-.523,1.573-1.056,1.046-.513,2.106-.528.533-.523h7.35l1.583.523h3.152l1.574,1.04,2.1.533-.523-.533-.522-1.04-1.051-1.589-2.107-1.564-1.04-1.579-.528-1.038-1.578-1.594-1.056-1.041-1.046-1.578-1.579-1.051-1.584-1.574-1.045-1.04-2.1-1.589-1.061-1.041-2.106-1.055-1.573-1.056-2.107-1.576-2.1-1.051L515.1,340.37l-1.563-.518-2.634-.517-2.1-.538-2.639-.523h-7.878l-1.056.523h-1.569l-1.051.538.523-.538,1.578-1.041.518-1.056,1.056-1.051,1.574-1.046h1.583l1.578-1.051,2.107-1.061h2.1l1.056-.513h5.258l1.04.513h2.635l1.564.528,1.583.533h0l-.513-1.061-1.07-1.046-1.036-1.578-2.1-2.094-1.578-1.579-1.051-1.056-1.051-1.04-1.584-1.056L509.326,322l-1.578-1.071-1.589-1.564-1.036-1.061-2.107-.508-1.578-1.589-1.583-.528-2.1-1.051-1.569-.518-2.1-1.058-2.117-.518-2.1-.528-2.1-.518h-1.04l-1.066-.523h-2.619L482,310.438h-2.111l-1.579.533.518-.533h2.107L482,309.4h1.041l1.583-.522h2.1l1.578-1.061h10.507l1.579,1.061-.533-1.061-.518-1.045-1.056-1.056-1.056-.523-1.04-1.574-1.056-1.051-1.584-1.574-1.046-1.045-2.635-1.586-1.563-1.574-1.056-.523-1.046-1.041-1.578-1.061-1.056-.533L482,293.112l-1.066-1.046-1.046-1.055-1.579-.518v-.548h4.731l1.051.548,2.111.518,2.1,1.055,1.563.528,2.635,1.568h1.046l1.06,1.061,1.051.518,1.569.523,2.112,1.578,2.1,2.1,1.056,1.045,1.563,1.046,1.066,1.041,1.036,1.594v-1.594l1.061-2.086,1.056-1.045,1.05-2.1,2.1-1.578.533-.523,1.051-.518H515.1l-.523,1.041v12.078l.523,1.055.538,2.1.518,1.046.528,1.051.528,1.581,1.051,2.1,1.045,1.041,1.051,1.584,1.056,1.574,1.055,1.578,1.046,1.056,2.106,2.1,1.574,1.579,2.1,1.571v-3.667l.533-1.051.523-1.583.528-1.041.518-1.071.528-1.564,1.051-1.568,1.06-1.061,1.051-1.568,1.579-.538,2.106-1.043,2.092-.533-1.051,1.058v1.056l-1.041,1.568v.528l-.533,1.041-.533,1.061v1.564L537.177,322v1.041l-.513,1.583V334.6l1.04,1.574v2.1l1.066,2.1v1.579l1.041,2.1,1.051,2.111,1.045,2.1,1.584,2.1,1.051,2.1,2.1,2.1,1.579,2.112h0V353.5l.528-1.045V351.4l.533-1.574.518-1.04.523-1.589.528-1.041,1.056-1.588,1.056-1.036,1.563-1.064,1.584-1.051,1.578-1.051v.523l-.533.528V357.7l.533,1.579v1.564l.518,1.589.518,1.573.533,1.574.543,1.578,1.04,2.091v1.584l1.061,1.046,1.036,1.576,1.06,1.578,1.051,1.045,1.056,1.051,1.569,1.046,1.574,1.589Z" transform="translate(4285.484 -7917.038)"/><path class="d" d="M582.258,315.46h0v2.1l.518,2.092V324.9l-.518,1.589v5.771l-.528,1.056v4.2l-.518,2.1-.533,2.112-.518,2.629v2.1l-.528,2.619-1.051,2.1-.522,2.629-1.051,2.629-.528,2.1-1.051,2.635-1.06,2.619-1.036,2.624-1.061,2.644-1.583,2.619-1.569,2.1-1.578,2.624-1.584,2.624-1.563,2.63-2.64,2.116-1.574,2.614L558.078,389l-2.634,2.1-2.624,2.625L550.2,395.81l-2.106,2.127-3.162,2.614-3.152,2.1-3.157,2.1-3.68,2.635-3.157,1.055-3.675,2.086-4.208,1.589-3.674,2.1-4.741,1.579-4.2,1.055-4.726,2.1L501.834,420l-5.254,1.569-5.258.528-5.264,1.035-5.244,1.051-5.8.528-6.309,1.051h-6.3l-6.3.528v-2.614l.528-1.061v-1.046l.518-1.569v-1.055l.528-1.061v-4.2l.533-1.569.518-2.112v-2.619l1.051-2.1v-2.1l.533-2.107.518-2.634.528-2.634.527-2.091.523-2.625,1.051-3.152.533-2.614.513-2.63,1.051-3.157,1.056-2.629,1.066-3.152,1.036-2.619,1.056-3.162,1.568-2.624,1.061-2.629,1.051-2.619,1.574-3.157,1.06-3.152,1.564-2.629,1.589-3.157,1.583-3.137,2.092-2.63,1.578-2.634,2.1-2.619,2.1-2.634,2.111-2.614,2.1-2.634L495,326.49l2.634-2.63,2.619-2.1,2.624-2.624,2.1-2.1,3.162-1.579,2.63-2.1,3.157-2.1,3.142-1.589,3.163-1.578,3.157-1.568,3.68-1.046,3.67-1.579,4.208-1.051,3.68-1.056,3.685-1.035,4.208-.533,4.726-.528H569.64v1.061l-.518,1.573-.533,2.107-.528,1.041-.518,1.046v1.045l-.518,1.579-1.066,1.046-.518,1.066-1.045,1.568-.543,1.578-1.568,1.056-1.051,1.046-1.578,1.056-1.046,1.579-2.106.513-2.1,1.045-2.106,1.066-2.092,1.041H548.1l-1.579.518-1.051.537h-4.741l-1.045.518h-6.837l-1.569-.518h-5.269l.523,1.569.538.533,1.046,1.055,1.056,1.051,1.569,1.041,1.051.527,2.111,1.056H536l1.584.518,1.04.533h5.781l1.583-.533,2.106-.518h3.147l-1.041,1.051-1.066,1.574-1.569,2.1-1.578,1.051-1.056,1.051-1.578,1.578-1.046,1.046-1.584,1.061-1.578,1.563-1.563,1.589L536,345.93l-2.1,1.041-2.111,1.578-2.1,1.046-1.579,1.051-2.107,1.056-2.619,1.045-2.112.523-2.1,1.051h-1.589l-1.036.523h-1.066l-1.041.543h-7.36l-1.573-.543h-1.061l-1.056-.523h-1.568l-1.579-.523H499.2l.538.523,1.563,1.066.533,1.04,1.568,1.056,1.579.523,1.584,1.558,1.578.543,2.1,1.051h1.046l1.06.518,1.579.528h4.725l2.106.523,1.046-.523h1.584l1.578-.528h2.1l-1.061.528-1.04,1.056-1.578,2.1-1.584,1.584-2.1,2.106-1.584,1.04-1.056,1.056-1.578,1.041-1.041,1.046-1.578,1.06-2.1,1.046-1.583,1.051-2.1,1.056-2.111,1.046-1.579.523-2.1.533-2.1,1.055-1.04.518-1.066.523-1.568.518h-1.051l-2.106.543-2.107.518h-3.68l-1.564.538h-4.2l2.092.5,1.045.548,1.066.523,2.1.518,1.563.522h2.111l1.574.518,2.106.538,2.106.518h3.675l1.579-.518h2.1l-.533.518L502.356,389l-1.056.528-1.046,1.046L499.2,392.15l-1.04,1.046-2.1,1.574-1.583,1.04-2.106,1.583-2.624,1.589-1.061.518-1.046,1.051-1.578,1.056-1.041.523-1.588.522-1.569,1.574-1.046.522-1.583.538.518.518h2.112l1.569-.518h2.629l1.061-.538h1.563l1.061-.522,1.051-.518,1.046-.523,1.594-.533,1.041-.522,1.051-.523,1.568-.528,1.066-.527,1.04-1.051,1.056-1.056,1.579-.508,1.568-1.056,1.056-1.071,1.061-1.04,1.573-1.051,1.051-.523,1.574-1.046h0v1.569l1.056,1.051,1.051,2.111,1.051,2.1,1.578,2.1,1.041.528,1.066.523,1.036.522h1.061v-1.046l-.528-1.056V393.2l.528-1.046v-1.056l.528-1.568.528-1.584.523-1.574.527-1.04.518-2.112.527-1.06,1.051-1.559.533-1.588,1.578-1.568,1.04-1.574,1.061-1.579,1.574-1.578,1.564-1.045,2.121-2.1,1.573-1.584,2.624-1.041h0v4.726l.528,1.045.534,1.578v1.579l1.04,1.574,1.056,1.046,1.045,2.111,1.056,1.041,1.574,1.06,2.111,1.056,2.1.5h-.528l-.523-1.041-.528-1.06-.523-1.559v-1.055l-.533-1.056-.528-1.046v-2.625l-.518-1.589v-8.405l.518-1.563v-2.1l1.06-2.112.523-1.564.528-2.1,1.051-2.117.528-2.1,1.04-2.1,2.107-2.1,1.051-2.1,1.584-2.112,2.1-2.624,2.634-2.106-.533.538.533,1.569v3.685l.528,1.563.518,1.061.528,2.1.533,1.046,1.041,2.107,1.066,1.045,1.574,1.573,1.045,1.066,2.1,1.04h0v-1.04l-.518-2.117v-8.918l.518-1.589V341.2l.518-1.589v-2.1l.528-1.578v-2.1l1.051-1.573.518-1.569.533-1.583.543-1.569,1.04-1.578.528-2.1,1.051-1.055L574.9,320.7l1.06-1.045,1.574-1.569,1.569-1.045,1.056-1.056,2.1-.523Z" transform="translate(4274.05 -7793.908)"/><path class="d" d="M486.532,315.545h0V329.2l.533,1.574v1.569l.513,2.106v1.579l1.051,2.1v2.1l.543,1.589,1.036,2.1v2.1l1.051,2.1.528,2.1.523,2.639,1.061,2.1,1.568,2.081.528,2.639,1.569,2.107,1.06,2.629,1.579,2.106,1.051,1.569,1.583,2.1,1.578,2.624,1.569,2.107,2.1,2.1,2.1,2.614,2.639,2.1,1.579,1.589,2.634,2.1,2.1,2.1,2.619,2.107,2.624,1.569,3.167,2.091,3.147,1.583,3.168,2.107,3.152,1.051,3.665,1.579,3.69,1.578,3.68,1.578,4.193,1.046,3.7,1.051L559.6,405.9l4.746,1.563h4.725l4.726,1.051,4.741.528,5.776.533h4.715l5.273.508h6.294l5.806.538V409.04l-.553-1.579-.513-1.563-.533-1.055v-2.1l-.513-1.578-.543-2.1v-1.583l-.523-1.579-.513-2.091-.518-1.584-.533-2.619v-1.579l-1.066-2.629-.533-2.1-1.035-2.63-.518-2.1-.538-2.629-1.046-2.1-1.056-2.624-.523-2.1-1.046-2.619-1.061-2.644-1.051-2.624-1.055-2.619-1.041-2.635-1.588-2.1-1.031-2.629-1.066-2.629-2.1-2.619-1.579-2.619-1.056-2.624-1.573-2.639-2.1-2.634-2.106-2.619-1.583-2.1-1.574-2.106-2.634-2.625-2.086-2.1-2.111-2.112-2.106-1.573-2.624-2.106-2.624-2.614-2.1-1.579-2.639-1.578-3.152-1.569-2.624-1.589-2.624-1.578-3.152-1.045-3.157-1.579-3.68-1.045-3.152-1.046-3.152-.518-3.685-1.061-3.69-.523-3.67-.528H501.78l-4.213.528V301.9l.528,1.558.538,1.574.518,1.579,1.045,2.624.528,1.056,1.055,1.056.528,1.045,1.578,1.578.513.533,1.056,1.046,1.569,1.056,1.578,1.558h1.051l2.117,1.065,1.569,1.041,2.106.518h2.092l1.594.537h4.715l1.589.518,1.055-.518h6.838l1.553-.537h1.6l2.1-.518-.533.518-.528,1.578-1.035.528-.533,1.061L535.422,325l-1.056,1.045-1.578.523-2.1.527-1.569.528-2.107.528H522.8l-1.061.518-1.563-.518h-4.736l.534,1.051,1.04,1.056,2.112,1.558,1.051,1.056,1.04,1.578,1.056.523,1.568,1.578,1.066,1.046,1.578,1.061,2.1,1.563,1.573,1.061,1.579,1.051,1.589,1.056,2.1.518,2.091,1.041,1.589,1.06,2.107.518,2.1.528,2.63,1.051h1.578l2.1.522h4.726l1.065-.522H557.5l1.056-.533,1.045-.518h1.578l1.056-.528H563.8l-.528.528-1.041,1.051-1.583,1.056-1.051,1.045-1.045,1.051L557.5,352.3l-2.092.543-1.593,1.04-2.107.523-2.091.533h-1.578l-1.056.523h-5.259l-1.578-.523H539.1l.518,1.04,1.051.523,1.589,2.112,1.574,1.045,2.1,1.574,1.046,1.046,1.056,1.06,1.045,1.056,2.1,1.041,1.066.522,1.569.543,1.593,1.569,2.092.528,1.056.523,2.1,1.045,2.106.518,2.106.533,2.112.528,2.1.528h2.106l2.1.518h2.1l2.1.533,1.569-.533h2.639l-1.04,1.051h-1.6L578,374.9h-1.579l-1.583,1.046h-2.1l-1.563.523L569.6,377h-3.69l-1.563.522L562.755,377h-1.579l.518.522,1.061,1.051.518,1.041,1.071,1.06,1.045.538,1.583,1.051,1.046,1.041,2.086,1.578,1.589,1.051,2.1,1.569,1.046.528,1.056.523,1.573,1.056h1.569l1.066,1.045,1.573.523,1.056,1.051,2.1.538h-.522l-.533.5h-2.1l-1.04-.5h-2.1l-1.594-.538h-2.1l-2.1-1.051-2.107-.523-1.563-1.045h-.533l-1.563-1.056h-1.065L564.86,387.5l-1.588-.518-1.041-.528-1.056-1.056-1.578-1.056-1.045-.518-1.056-1.04-1.046-1.071v.548l-.538,1.041-.508,1.578-.538,1.574-1.568,2.1-1.594,1.056-1.046,1.569-2.624,1.051h0v-2.1l.523-1.051-.523-1.578v-4.2l-.523-2.092-.533-1.056V379.1l-1.046-1.574v-1.578l-1.051-1.046-.533-1.056-1.046-1.569-.533-1.589-1.564-1.563-1.066-1.051-1.041-1.569-1.589-1.065-1.035-1.041-1.6-1.583-2.091-1.046-1.568-1.051h-.533v3.68l-.528,1.041v1.583l-.517,1.578-1.056,1.569-.523,1.051-1.051,1.574-1.056,1.051L524.91,374.9l-1.066,1.046L522.276,377v-1.056l.528-1.046.523-1.574v-2.106l.518-2.1V360.72l-.518-2.1-.523-1.051v-2.1l-.528-1.579L521.22,352.3l-.513-2.1-1.071-1.579-1.036-2.1-1.066-2.1-1.031-1.584-2.116-1.563-1.051-2.624-2.112-1.589-1.574-1.578h0v2.634l-.528,1.056v3.152l-.523,1.056-.517,1.04-.528,1.578-1.051,1.564-1.051,1.055-1.056,1.056-1.046,1.046L501.78,352.3v-9.969l-.528-1.051v-1.579l-.528-1.578v-1.574l-.528-1.578-.522-1.578-.523-1.579-.518-1.04-.538-2.106-.528-1.574-.533-1.051-1.041-1.568-1.056-1.589-1.046-1.051-1.06-1.573-1.046-1.041-1.051-1.065-1.046-1.046-2.111-.513-1.046-1.056Z" transform="translate(4400.271 -7791.369)"/><path class="d" d="M500.492,333.635l1.579-.538,2.111-.523,1.574-.528,2.112-.518,2.1-1.055,1.578-.518,1.579-1.061,1.569-1.574,1.593-2.1,1.036-1.06,1.051-1.564.527-2.1.523-2.1.523-1.578.538-2.107V310.5l-.538-2.1-.523-1.556-.523-2.111-.527-2.086-1.051-1.589-1.036-1.045-1.593-1.579-1.569-1.589-1.579-1.051-1.578-1.025-2.1-.538-2.112-1.056-1.574-.52h-7.9l-2.1.52-2.1,1.056-1.578.538-2.1,1.025-1.584,1.051-1.046,1.589-1.056,1.579-1.06,1.045-1.564,1.589-1.05,2.086-.528,2.111L480,308.4v8.42l.528,1.578.528,2.1,1.05,2.1,1.564,1.564,1.06,1.06,1.056,2.1,1.046,1.574,1.584,1.061,2.1.518,1.578,1.055,2.1.518,2.1.528,1.578.523,2.629.538Z" transform="translate(4373.16 -7823.106)"/><path class="d" d="M504.395,340.043l.518.513.528,1.061,1.583,1.046,1.051,1.579,2.106,1.568,1.036.538,1.066,1.046,1.036,1.061,1.583,1.041,1.045,1.046,1.594,1.045,1.569,1.056,1.573.523,1.584,1.045,2.106,1.066,1.564,1.045,1.573,1.056,2.107.523,1.578,1.045L533.306,360l2.624,1.056h2.1l2.634,1.046,2.086,1.056,2.654.513,2.1.522,2.63.523h2.618l2.619.533H558l2.634.533h5.253l3.162-.533,2.634-.533h3.142l3.157-.523,3.142-1.035,3.162-.533,2.634-1.046,3.686-.522,3.136-1.579L596.9,357.9l3.68-1.579,3.162-1.589,3.67-2.091,3.68-2.1,3.685-2.086,3.675-2.106,3.162-2.634,3.66-3.157,3.695-2.624,3.68-3.14,4.213-3.68,3.68-3.68,3.67-3.67,4.2-4.21-1.04-.518-1.574-1.051-2.106-1.051-2.1-1.056-1.584-1.046-1.04-1.051-1.579-.528-1.573-1.051-1.583-1.045-1.579-1.051-1.583-1.056-1.564-.523-2.116-1.587-2.112-1.04-2.081-.523-2.107-1.06-2.1-1.041-2.117-1.583-2.1-1.04-2.1-.538-2.634-1.579-2.634-.518-2.619-1.051-2.639-1.046-2.625-1.06-2.1-1.041H594.8l-2.619-1.053-3.162-1.046H586.4l-3.167-1.051-2.106-.533-3.665-.518-2.106-.538H554.329l-2.634,1.056-3.147.533-2.106,1.051-3.69.523-2.624.523-3.152,1.053-3.152,1.579-2.629,1.04-2.629,2.1-3.152,1.579-2.629,1.578-3.142,2.112-2.634,2.1L514.378,308l-2.634,3.162-2.634,2.624L506.5,316.4l-2.63,3.153-2.629,3.154,1.041.513,1.071.543,1.046,1.041,2.1.518,2.107,1.071h1.035l1.061.518h2.1l1.045.523,1.056-.523h1.574l1.569-.518h2.116l1.578-.538,1.579-.533,1.578-1.559,1.584-.543,2.086-1.556,1.574-1.061,2.106-1.568,1.579-2.1,1.051-1.056,1.056-1.046.522-1.051,1.061-1.046,1.046-1.071,1.041-1.558,1.066-1.056,1.051-1.576v1.576l.513,1.056v3.675l-.513,1.051-.518,2.1-.533,1.569-1.066,2.1-1.568,2.1-2.1,1.574-1.056,1.041-1.569,1.071-1.061,1.04-1.051,1.056H539.6l1.066-.528h2.086l1.589-.528h3.68l2.112-.523,2.1-.518,1.564-.538,1.573-.533L558,324.281l1.071-1.061,2.1-.513,2.1-1.043,1.568-1.061,2.107-1.051,1.589-1.569,1.04-1.584,2.117-1.568,1.051-1.579,1.563-2.1,1.056-2.106,1.046-1.576h0V312.2l-.518,1.579v1.573l-.528,1.579-.528,1.569-1.056,2.1-1.035,2.1-1.589,1.056-1.579,2.63-1.04.518-1.056,1.051-.533.528-1.051,1.045h5.8l1.573-.527H574.3l1.584-.518h4.2l1.589-1.056h1.563l1.594-1.04h2.1l1.046-1.071,2.111-.518,1.583-1.041,2.081-1.056,1.061-1.043,2.1-1.061,1.594-1.051,2.086-1.569,1.574-1.584,1.061-1.568,1.578-1.579,1.568-1.589-.513.538-.543,1.579-.513,1.051-.538,1.046-.513,1.056-.528,2.1-1.061,1.046-.518,1.584-1.056,1.556-1.051,1.584-1.035,1.051-1.066,1.578-1.051,1.056-1.06.518h4.212l1.051-.518h3.675l2.106-.528,1.051-.528h2.1l1.578-.523,1.056-.518h1.056l1.573-.538,1.051-.533,1.046-.518,1.579-.523,1.579-.518,1.583-.543-.528.543-1.055,1.559-1.579,1.071-1.046,1.04-1.579,1.056-1.051,1.045-2.1.518-2.1,1.061-2.116,1.046-2.107,1.06-1.568.518-1.578.523h-1.061l-1.574.533h-1.051l-1.035.523H596.9l-1.584.523h0l1.06,1.043.523,1.051.527,2.111.528,1.574.538,2.1-.538,2.1-.528,2.644-.527-1.061-1.584-1.584-1.579-1.035-1.04-1.061-1.584-1.051-2.1-1.578-1.055-.528-1.046-.513-1.051-.528-1.045-.533-1.594-.528h-1.563l-1.589-.523h-1.045l-1.574-.513h-7.37l-1.563.513-2.639.523-1.568.528h0l1.045,1.06.523.513,1.051,1.061v1.046l1.589,1.051v1.061l1.04,1.573v1.568l.523,1.579v4.715l-.523,2.111v-.533l-.517-.513-.523-1.066-1.056-1.045-1.046-2.1-1.594-1.573-1.036-1.579-2.106-2.106-1.056-1.035-1.564-.533L558,343.191l-1.051-.528-1.579-1.578-2.1-.528-1.035-.513-1.584-1.06h-2.1l-2.106-1.051h-2.1l-2.111-.513H541.2l-1.071-.538h-6.3l-1.579.538h.533l1.045,1.035,1.584,1.589,1.568,1.574.538,1.046.518,1.579,1.035,1.051.533,1.573v1.589l.528,1.558-.528,1.574v1.579h0l-1.041-.523-1.046-1.056-1.061-1.045-1.578-1.564-2.63-1.583-1.051-1.046-.533-.538-1.563-1.035-1.066-.533-1.553-.528-1.066-1.051-1.574-1.046-1.573-.533-1.584-.528-1.04-.513-1.6-.528-1.569-.533h-9.451l-1.583.533-1.046.528Z" transform="translate(4461.264 -7837.926)"/><path class="d" d="M581.083,317.856l-.543-.518v-1.051l-1.568-1.051-1.051-1.056-1.041-1.046-2.111-1.579-1.061-1.051-1.04-1.045-1.061-1.051-1.04-1.056-1.579-1.056-1.589-1.053-1.046-1.04-2.092-.523-1.583-1.573-1.588-.528L559.526,300l-2.107-1.04-2.1-1.046-1.579-.543-2.619-1.046-1.589-1.051-2.629-1.046-2.1-.523-2.1-.538-2.106-1.041-2.63-.533-2.629-.52-2.629-.523-2.087-.523h-3.172l-2.619-.533H513.261l-3.152.533h-2.624l-3.68,1.045-3.162.52-2.629.533-3.675,1.041-3.152,1.06L487.5,295.8l-3.67,1.035-3.157,2.117L476.99,300l-3.147,2.624-3.69,1.583-3.68,2.627L462.8,309.46l-3.68,2.624-4.207,3.152-3.162,2.619-4.2,3.154-4.208,4.2-3.67,3.685-3.69,4.2.527.523,1.584.522.517.518,1.579.526,1.04,1.051,1.076,1.051h1.036l1.06,1.06,1.569,1.041,1.579,1.578,1.578,1.051,1.041.528,2.639,1.051,1.563,1.573,1.583,1.051,2.107,1.061,1.589,1.035,2.091,1.056,2.629,1.041,2.1,1.056,2.091,1.046,2.644,1.066,2.1,1.045,2.1,1.056,2.634,1.046,2.624,1.579,2.111.522,2.619,1.056,3.162.523,2.624,1.056,2.1,1.035,3.157.523,2.63,1.066,2.624.508,3.157.533h2.634l2.624.518,3.152.537h12.091l2.624-.537h3.162l2.614-.518h3.7l2.1-1.041,3.674-1.066,2.63-1.046L549,360.928l2.644-1.568,3.137-1.056,2.639-1.579,3.152-1.578,3.157-2.112,2.624-1.568,2.634-2.624,3.142-2.086,2.639-3.162,3.152-2.63,2.619-2.619,3.162-3.162-.518-.526-.538-.518-1.563-.522-1.056-1.056-1.055-.523-1.051-.518H576.88l-1.066-.538-1.046-.522h-4.2l-1.579-.518H567.4l-1.563.518h-1.574l-1.583.522-2.106.538-1.584.518-1.569,1.579-2.1.522-1.579,1.581-2.1,1.564-1.589,1.573-2.106,2.106-1.569,2.112-1.051,1.573-1.056,1.046-1.051,1.584-1.051,1.564V347.28l-.518-1.061-.533-1.051v-1.573l1.051-1.051v-1.579l.528-1.578.522-2.1,1.579-1.564,1.578-2.1,1.569-1.579L549,330.984l1.056-1.04,2.1-.528,1.583-1.061-1.056-.518H539.548l-1.584.518h-1.578l-2.1,1.061h-2.107l-1.558.528-2.644.518-1.568.522-1.578.538-2.1,1.041-1.589,1.056-2.1,1.566-1.574,1.051-2.1,1.051-1.569,1.06-1.584,1.574-1.578,2.1-1.051,1.579-.518,1.055-.528,1.046v1.061l-1.051,1.558v-6.821l1.051-1.574v-1.574l1.046-2.111.528-1.576,1.056-2.1,1.568-1.579,1.584-1.568,1.046-1.579,1.061-.528,1.041-.518,1.574-1.056h-10.5l-1.583.528-2.1.528h-2.629l-2.1.518-1.579.528-1.573.518-1.589,1.061-2.1.528-1.579.518-1.578,1.06-2.1,1.041-1.563,1.056-1.594,1.566-1.578,1.051-1.564,1.051-1.578,2.1-1.584,1.578-1.574,2.112v-1.061l1.056-1.051v-1.578l1.04-1.041.538-1.06,1.046-1.564.513-1.581,1.071-1.578.528-1.579,1.045-1.04,1.574-1.589,1.061-1.046,1.035-1.045,1.066-.528h-11.05l-2.634.528-1.569.528h-1.579l-1.051.518-1.569.528-1.055.518-1.584.543-1.041.518-1.583.528-1.579.518v-1.046l2.1-1.579.533-1.045,1.569-.528,1.051-.528,2.106-1.04,1.579-1.071,2.1-1.559h1.056l1.046-.543,1.578-.513h1.056l1.578-1.043h1.046l1.055-.533h1.056l1.574-.528h4.208l-.538-1.051-.528-1.569-.518-2.107-.517-1.574v-4.2L487.5,306.3v.533l1.579,1.578,1.051,1.051,1.578,1.045,1.579,1.579,2.1,1.051.533,1.046h1.056l1.573,1.056H499.6l1.568.533,1.589.518,1.046.518,2.086.533h1.593l1.051.518h7.888l2.086-1.051h2.629l-1.036-.518-1.066-1.051-1.036-2.1-1.578-1.579v-1.589l-1.061-1.051-.538-1.563v-4.733l.538-1.579.533-2.086.528,1.04v1.045l1.041,1.579,1.046,1.06,1.594,2.1,1.036,1.576,2.1,2.106,1.071,1.045,1.041,1.051,1.578.528,1.046,1.051,1.061,1.046,1.583,1.056,1.558.533,2.107.518,1.574.518,2.106,1.051h1.584l2.624,1.051h3.157l1.574.528h4.218l1.564.533-.528-.533-1.036-1.051-1.589-2.1-1.583-1.584-.513-1.568-.533-1.051-1.051-1.579V309.46l-.523-1.569v-3.169l1.051-1.574.523.533,1.046,1.041L549,305.778l1.583,1.576,2.1,1.563,1.056,1.051,1.041.538,1.061,1.051,1.578,1.051,1.046.528,1.06,1.046h1.563l1.588,1.056,1.051.533,1.579.518,1.569.518,1.588,1.051h1.564l1.578.528h6.314l1.583-.528Z" transform="translate(4190.603 -7836.229)"/><path class="d" d="M522.461,316.953l1.056.518,1.036,1.056,1.593,1.056,1.051,1.046,2.1,2.106,1.061,1.046.518.523,1.051,1.588,1.574,1.046,1.06,1.583,1.046,1.046,1.056,1.569,1.574,1.579,1.066,1.578,1.041,1.578,1.578,1.564,1.056,1.588,1.045,2.086,1.046,1.589,1.056,2.1,1.051,2.634,1.051,2.1,1.045,2.091,1.051,2.1,1.056,2.63.518,2.634,1.066,2.1.523,2.634.523,2.624.533,2.619.518,2.624v2.629l.533,3.152v12.613l-.533,3.142v3.148L554,399.419v3.69l-1.046,3.152-1.066,3.675-1.574,3.665-1.051,3.695-2.1,3.675-1.051,3.675-2.1,4.2-1.574,4.208-2.629,3.67-2.639,4.2-2.619,3.665-2.634,4.213-3.68,4.208-2.615,4.193-3.69,4.736-3.685,4.73-.518-1.579-1.051-1.046-1.578-2.106-1.574-2.1-1.04-1.061-1.076-1.574-1.051-1.051-1.046-1.573-1.046-1.569-1.055-1.578-1.579-1.579-1.045-1.574-1.578-2.1-1.051-1.594-1.584-2.086-1.045-2.117-1.056-2.1-1.578-2.1-1.046-2.106-1.579-2.086-1.573-2.634-1.051-2.1-1.046-2.625-1.593-2.111-1.036-2.614-1.061-2.625-1.04-2.639-1.076-2.624-1.036-3.153-1.06-2.619-1.036-2.635L480.921,401l-1.036-2.614-.523-3.685-.522-2.63-.543-2.619-1.031-3.157v-8.928l-.538-3.152.538-2.629v-3.157l.518-3.142.513-3.147.543-3.157.522-3.157,1.559-2.625.548-3.669,1.564-2.639,1.051-3.147,1.594-3.157,2.1-2.619,1.568-3.157,2.107-3.675,2.1-2.614,2.624-3.167,2.106-3.147,3.152-2.624,3.163-3.152.523.522,1.051,1.056,1.051,1.574,1.055,1.573.528,2.1.518,1.046.518,1.588v1.046l.528,1.583v6.289l-.528,2.106v1.573l-1.036,2.1-.528,2.112-1.583,1.569-1.051,2.107-1.578,2.1-1.045,2.116-2.635,1.569-1.568,2.614-1.594,1.056-1.046,1.051-1.568,1.051-1.056,1.056h.528l1.579.533.518-.533h4.207l1.051-.518,1.584-.538,2.1-1.578,1.573-1.051,2.112-2.1,1.563-1.578.538-1.574L512.492,349l.518-1.569,1.035-1.055h0v3.157l.533,1.055v15.227l-.533,1.569-.513,2.1-.522,2.106-.518,2.107-.558,1.579-1.031,2.1-.538,2.106-.528,2.1-1.564,1.563-1.055,2.116-1.579,1.568-1.045,1.564-1.578,1.594-2.106,1.569-1.574,1.046-2.116,1.578h2.116l1.045-.518h1.584l1.578-.533h1.574l2.1-1.051,1.584-.522,1.563-1.569,2.126-1.051,1.553-1.589,2.106-1.569.533-1.574,1.051-1.06.518-1.041,1.056-1.056v15.745l-.523,1.6-.533,1.036v2.111l-.518,1.579-.522,2.1-.528,1.573-1.06,2.1-.518,2.1-1.061,1.051-.513,2.106-1.04,2.112-1.589,1.569-1.065,2.1-1.036,1.568-2.112,1.578-1.573,2.1.522-.518,1.579-1.051,1.055-.527,1.046-.533,1.583-1.046,1.589-.518,1.04-1.051,1.046-1.046,1.573-1.056,1.583-1.051,1.051-1.061,1.569-1.569.528-1.055,1.055-1.051h0V417.3l.523,2.1-.523,1.579-.517,2.1v4.726l-1.066,1.056v4.208l-1.046,1.036v1.579l-.523,1.588v1.574l.523-.538,1.046-1.568,1.066-1.055,1.04-1.579.538-1.036,1.036-1.593.518-2.092,1.075-2.1V425.7l.518-1.051.528-1.578.522-.533v-3.142l.533-1.573v-2.63l.513-1.588v-2.619h0l1.593.533,1.036.518,2.1.528h1.583l2.619.523,1.583-.523,2.63-1.046h-.528l-.523-.533-1.041-.523-1.066-.523-1.056-1.056-1.574-1.558-1.046-1.6-1.583-1.568-.523-1.046-.527-1.051-1.051-1.579v-1.061l-1.036-1.036-.543-1.6-.513-1.568-.537-1.564v-1.584l-.513-1.573v-3.675l-.533-2.106v-1.578l.533-2.1.513-2.1h0l1.593,1.046.518.533.518.517,1.578.533,1.046.522,1.578.513,1.583.528h5.786l2.106-.528,1.569-.513h0l-1.056-.522-1.046-.533-1.574-.517-1.583-1.051-1.564-1.056-2.121-1.569-1.574-1.578-1.568-1.056-1.061-1.051-1.051-1.579-1.051-1.051-1.036-1.055-1.056-1.569-1.051-2.1-.533-1.051-1.051-2.106-.518-1.574-.533-2.1-.543-2.634-.518-1.051V354.26l-.518-1.061v-1.046L523,350.585v-3.157l1.036,1.041h1.06l1.051,1.061H527.2l1.046,1.055,1.051.518,1.578,1.051h1.051l1.574.528h3.162l1.574-.528h2.107l-.523-.533-.518-1.036-1.6-1.055-1.041-1.061-2.1-1.041-1.583-2.1-2.1-2.121-1.036-2.1-1.593-1.578-.513-1.041-1.055-1.573-.528-1.046-1.051-1.578-1.06-1.578v-1.579L523,330.084l-.538-1.563v-2.127l-.523-1.04v-4.726l.523-2.1v-1.574Z" transform="translate(4359.606 -7724.492)"/><path class="d" d="M504.9,394.954l-.528-.518h-.522l-1.056-1.056-1.046-1.041-1.584-1.584-1.568-2.1-1.051-1.04-.533-1.056-1.06-1.051-1.046-1.061-1.568-1.558-1.056-1.068-1.046-2.092-.523-1.563-1.574-1.061-.533-2.1-1.06-1.573-1.036-2.106-1.061-2.1-1.04-1.584-1.076-2.093-.518-2.629-1.051-2.1-.528-2.116-.518-2.1-1.066-2.1-.518-2.611-.518-2.63-.523-2.629-.522-2.1V341.4l-.543-2.639v-8.388l.543-3.149v-3.164l.522-2.617.523-3.687.518-2.622.518-3.155,1.583-3.152.528-3.665,1.569-3.685,1.076-3.157,2.1-3.675,1.568-3.144,2.107-3.678,2.1-3.68,2.624-3.152,2.106-4.2,2.629-3.67,3.152-3.68,3.68-3.675,2.624-4.205,4.213-3.677,3.675-3.662,4.208-4.21v.522l1.574,1.579v1.036l.518,1.073,1.075,1.031.518,1.066,1.051,1.04.533,1.569.513,1.061,1.593,1.573,1.036,1.561,1.051,1.591.528,2.089,1.584,1.6,1.04,2.089,1.056,1.569,1.046,2.109,1.056,2.1,1.066,2.091,1.041,2.1,1.051,2.1,1.055,2.632,1.041,2.1,1.066,2.627,1.569,2.614,1.051,2.106.518,2.626,1.061,2.632,1.04,2.624,1.061,2.635.522,2.611.518,3.15,1.066,2.639.523,2.632.523,3.14v2.632l.533,2.619.518,3.149v12.078l-.518,2.634-.533,3.137v2.639l-.523,3.147L551.169,354l-.543,3.137-1.574,3.167L548,362.926l-1.046,3.157-1.583,2.612-1.573,3.162-1.578,3.152-2.1,3.157-1.574,2.619-2.639,2.617-2.1,3.157-3.152,2.625-2.086,3.157-3.162,2.1-2.639,3.139-1.036-.518-.538-.525-.523-1.051-.517-1.046-1.066-1.056V392.34l-.518-1.584-.528-1.046v-2.1l-.523-1.594v-6.292l.523-1.563v-1.594l1.045-1.563.528-1.573,1.578-2.106.538-1.563,1.554-2.117,1.593-1.566,1.583-2.1,2.107-2.106,2.086-1.578,1.051-1.061,1.583-.528,1.574-1.578,1.569-.518-.523-.523h-2.619l-1.06-.518h-1.046l-1.578.518h-1.036l-1.593,1.041-2.1.543-1.593,1.036L521.2,360.3l-2.106,2.1-1.045.528-.523,1.584-.533,1.573-1.04,1.566-.528-1.043V354l.528-2.094.522-1.574.518-2.106v-2.1l.533-1.578.523-2.1,1.045-2.106.528-1.579.538-2.094,1.04-2.1,1.574-1.579,1.06-2.1,1.051-1.583,1.583-1.579,1.564-1.048,1.578-1.576,2.1-1.581.523-.518,1.06-.528,1.574-.518h1.046l-.518-.523h-5.786l-1.578,1.04h-2.1l-2.1,1.046-1.578.531-2.1,1.578-2.112,1.048-1.056,2.1-1.569.526-.533,1.583-.528,1.056-1.046,1.04h0V322.485l.528-1.04v-2.109l.518-1.578.528-1.038.533-2.106v-1.574l1.051-1.583.518-2.1.533-1.578.523-1.576,1.045-1.558,1.066-2.112,1.04-1.571,1.574-1.574,1.06-1.586,1.579-2.1,1.569-1.056,1.593-2.106,2.086-1.038h-1.051l-1.036,1.038h-1.593l-1.046,1.058h-1.051l-1.593,1.048-1.554,1.056-1.578.518-1.066,1.053-1.045,1.049-1.574,1.063-1.051,1.046-1.06,1.048-1.046,1.581V293.6l.528-2.1.518-2.1.528-2.1.533-1.57v-1.056l.528-1.583.522-1.041.518-1.055.533-1.576.523-1.569.528-1.056h-1.051l-1.573,1.569-1.061.528-.528,1.576-1.046,1.584-1.046,1.566-1.04,2.114-1.076,1.57-.513,1.049L509.1,289.4l-.528,1.579v1.038l-.518,1.579-.518,1.048v2.626l-.528,1.049v4.738l-.533-.531L505.427,302l-1.573-.523-1.574-.52-2.112-.528h-2.1l-2.116.528L494.91,302h0l2.106,1.583.533,1.056L498.6,306.2l1.568,1.576,1.056,1.578.528,1.053.528,1.048.518,1.056.533,1.576.523,1.048v1.583l.522,1.038.528,2.1.522,1.591V330.9l-.522,2.1v2.1l-1.051-.517-1.056-1.059-1.574-1.561-2.107-1.056-1.568-.523-1.066-1.061-1.573-.526h-4.721l-1.579.526-1.578.535,1.051.525,1.06.523,1.046.513,1.573.543,1.579,1.561,2.1,1.576,1.578,2.1,1.056.525,1.045,1.574.528,1.051,1.056,1.568,1.051,1.061.528,1.574,1.051,1.578.523,2.1.522,1.574,1.051,2.107V354l1.051,2.1v5.786l.533,1.046v3.68l-.533-.523-1.051-1.055-1.573-2.1-1.574-1.046-1.578-.522-1.056-.528-1.574-1.055h-1.056l-1.578-.533h-2.1l-1.056.533-1.569.528.523.528,1.046,1.051,1.056,1.046,1.568,1.584,1.573,2.1.533,1.043,1.056,1.046.528,1.573,1.045,1.061,1.056,1.051.523,1.056.528,1.573,1.046,1.563.533,1.056.523,1.579.522,1.578,1.051,2.1v2.619l.528,1.568v3.157l-.528,1.583v1.563l-.522,1.573Z" transform="translate(4360.87 -7999.979)"/><path class="d" d="M519.781,345.538v.538h1.578l1.593.513,1.564.523,2.1.533h1.06l1.568.522,1.056.533h2.639l2.106.513h1.051l2.086.528h15.253l2.1-.528,2.106-.513h4.736l1.573-1.055,2.625-.533,2.1-1.036,2.106-.538,2.107-1.576,2.624-.528,2.112-1.041,2.624-1.055,2.1-1.568,2.1-1.579,2.614-1.046,2.121-1.583,2.1-1.574,2.1-2.1,2.634-2.1,2.1-2.1,2.106-2.1,2.1-2.619,2.1-3.157,2.112-2.1,1.573-3.677,2.619-2.619,2.1-3.162,1.6-3.675,2.1-3.159,1.584-3.655,1.569-4.213,2.1-3.685,1.583-4.713,1.564-4.726,1.578-4.736,1.594-4.19-1.071-.533h-6.3l-1.046-.523H618.1l-1.584-.518H606l-2.112-.533H592.856l-2.1.533h-6.831l-2.634.518-2.1.523h-2.1l-2.634.533-2.634,1.048h-2.619l-2.639.518-2.625.528-2.1,1.036-2.629.543-2.619.518-2.106,1.041-2.111,1.578-2.615,1.061-2.644,1.055-2.63,1.051-1.578,1.046-2.619,1.583-2.112,2.1-2.086,1.043-2.117,2.619-2.629,1.061-2.107,2.106-1.568,2.1-1.573,2.091-2.1,2.1-1.589,2.622-2.092,2.629-1.051,2.635-1.589,2.619-1.573,3.147L515.06,315.6l-1.583,3.155-1.046,3.157-.518,3.675-1.061,3.67-1.036,3.682h2.1l1.563.523,2.107-.523,2.1-.528h1.061l1.041-.523,1.051-.533h1.579l.543-1.038,1.564-.533,1.06-.528,1.036-1.036,1.06-1.578,1.056-1.056,1.045-1.04,1.574-1.579.533-2.116,1.056-1.568,1.04-2.107.523-2.093v-1.046l.543-1.579v-1.04l.513-1.583v-1.579l.538-1.04V305.62l.522-1.574v.533l1.051.528.513,1.051.528.518.528,1.056.528,1.578v1.046l.528,1.584v3.66l-.528,1.058v1.056l-.528,1.041v1.589l-.528,1.046-.528,1.578-.513,1.579-.523,1.04h0l1.035-.518,1.056-.522,2.1-1.071,1.056-1.041,1.051-.523,1.045-1.061,1.589-.508,1.563-1.061,1.056-.528,1.583-1.041,1.051-1.056,1.579-1.576,1.578-1.046,1.041-1.056,1.066-1.041,1.04-2.106,1.579-1.579,1.051-1.04,1.051-1.594.528-2.086,1.066-1.583.517-1.566.518-2.1v-2.112l.528-1.563v-2.629L565,290.39v.538l.533,1.051,1.041.508v1.589l.533,1.061.528,1.569v1.061l.528,2.619v3.149l-.528,2.086v2.634l-1.061,1.056v1.046l-1.041,1.061-.533,1.04,2.635-1.04,1.041-1.061,1.594-1.046,2.1-1.056,2.1-1.04,2.634-2.106,1.041-1.061L579.192,303l.533-1.051,1.563-1.048,1.056-1.574,1.06-1.046,1.041-1.578,1.055-1.051.528-1.579,1.031-1.589,1.08-1.558.523-2.1,1.026-1.584v-2.093l1.065-1.569.528-2.106v5.253l.518,1.561-.518,1.573v4.741l-.528,1.563v1.594l-1.065,1.041v1.055l1.065-.533,1.046-.523,1.055-1.041h1.061l1.045-1.061,1.574-1.051,1.056-1.046,1.573-1.573,2.112-1.056,1.046-1.589,2.1-2.1,2.112-1.561,1.573-1.578v.527l-.523,1.566-.533,1.046-.518,1.573L606,290.928l-1.046,1.558-1.065,1.589-1.568,1.579-1.046,1.573-1.589,1.579-2.1,1.578-1.573,2.1-2.1,1.045-2.116,1.574h0l1.055,1.051,1.061.518,1.564,1.578,1.055,1.056,1.056,1.574v2.1l1.051,1.573-1.051-.518-1.573-.523-1.583-.533h-1.579l-2.1-.523h-1.573l-1.041-.518H585.5l-1.055.518h-1.579l-1.046.523h-1.579l-1.051,1.056h-1.055l-1.573.518-2.1.528-1.061,1.05-1.573.525-1.051,1.568-2.106,1.056-1.041,1.568h1.578l2.1,1.061,2.1,1.564,1.6,1.071,2.1,2.1.523,1.578.518,1.036v1.576l1.055,1.578h-1.055v-.523l-1.041-.533-1.056-1.038-1.578-1.061-1.578-.518-2.107-.518-2.106-1.051-1.041-.528h-1.579l-1.578-.527h-6.32l-1.04.527h-3.68l-2.1,1.04-2.1.538-2.117.518-1.583,1.046-2.091,1.049-2.107,1.578h1.574l1.578.528,2.1,1.051,2.107,1.046,2.111,2.111.522,1.046,1.046,1.579v1.046l1.055,1.578h-.523l-.533-.517h-1.569l-1.573-.538-1.06-.523h-1.056l-1.041-.518h-.543l-1.564-.527h-4.735l-1.568-.528H533.46l-1.579.528h-2.639l-1.036.527-1.593.518-1.569.523-1.046.538-1.589,1.035-1.051.523-1.041.528-.538,1.576Z" transform="translate(4496.853 -7919.579)"/><path class="d" d="M499.625,354.061h-.533l-.523-1.04v-1.056l-.543-1.041-.513-1.045v-3.685l-.522-1.048-.518-1.579v-2.1l-.538-2.1V337.79l-.518-1.579v-12.6l.518-2.1.538-2.114v-2.1l.518-2.107.522-2.081.513-2.112.543-2.1.523-2.632.533-2.1,1.035-2.1,1.061-2.1,1.046-2.63,1.051-2.1,1.589-2.1,1.045-2.624,1.579-1.583,1.578-2.617,1.574-2.106,2.624-2.1,1.584-2.1,2.1-2.1,2.629-2.109,1.584-2.619,3.142-2.1,2.65-1.578,2.629-2.1,3.132-2.091,3.172-1.583,3.147-2.1,3.68-1.576,3.675-2.1,3.695-1.568,4.183-1.576,4.213-1.586,4.192-1.048,4.741-1.569,4.741-1.578,4.721-1.058v5.253l.528,1.586v4.2l.533,1.579V275.81l-.533,2.109v2.1l-.528,2.627v6.822l-.518,2.1-.517,2.639v2.619l-.538,2.634-.523,2.617-.523,2.1L573.74,306.8l-.533,2.637-.518,2.1-1.045,2.617-1.06,2.1-1.036,2.632-1.065,2.632-.533,2.622-1.578,2.1-1.031,2.626-1.6,1.583-1.568,2.619-1.579,2.1-1.578,2.1-1.569,2.109-1.583,2.1-2.106,2.1-2.107,1.579-2.1,2.094-2.1,2.1-2.635,1.584-2.1,1.584-2.639,1.553-2.629,1.594-3.137,1.046-2.639,1.574-3.147,1.051-3.157,1.573-3.152.531-3.167,1.046-3.67,1.036-3.685,1.06-.523-1.06v-5.236l.523-2.1.522-2.112,1.579-2.1v-1.041l1.046-1.584.538-1.051,1.568-1.051,1.055-1.571,1.046-.523,1.584-1.579,1.583-.517,1.569-1.059,2.106-.52.518-1.041h2.634l1.065-.543,1.046-.513h1.051l1.563-.523h3.162l1.045-.525h3.7l-.533-.535-1.061-.526-1.046-.518-.523-.535-1.06-.51-.518-.538-2.1-.523h-1.589l-1.569-.526-1.564.526h-3.7l-1.041.523-1.583.538-1.051.51-1.045.535-1.584,1.043v-.526l.528-1.053.518-1.57,1.583-2.1v-1.049l1.051-1.045.528-1.583,1.056-1.048.523-1.043,1.046-1.574,1.589-1.058,1.045-1.048,1.056-1.574,1.578-1.058,1.036-1.574,1.071-1.053,1.563-1.578,1.574-.518,1.583-1.058,1.574-1.035,2.111-1.066,1.574-.513,1.578-.525h2.1l1.573-.531h4.726l2.106.531-1.051-.531-1.055-1.051-1.041-1.048h-1.066l-1.041-1.046h-1.578l-1.041-1.063h-7.9l-2.1,1.063-2.1.521-2.1,1.573v-1.048l.518-1.573,1.046-1.058,1.056-2.1,1.045-1.586,1.584-2.1,2.112-2.094,1.046-1.053,1.056-1.048,1.04-1.578,1.056-.518,1.579-1.584,1.055-1.056,1.564-1.041,1.573-.53,1.588-1.053,1.564-.525,1.583-1.051,1.579-.528,2.106-1.038,2.1-.531,1.568-.522h.528l-1.568-.528h-3.685l-1.569-.52H554.28l-1.041.52h-2.106l-1.578.528-1.041.522-1.055.531v-.531l1.055-1.051v-1.053l1.041-.517.523-1.579,1.055-1.048.518-1.051,1.588-1.581,1.041-1.579,2.106-1.566,1.061-1.578,2.1-1.579.523-1.048,1.046-.53,1.583-1.043,1.041-1.061h-2.624l-1.568,1.061h-.533l-1.569,1.043-2.112,1.061-1.578.517-1.584,1.579-1.553,1.043-2.107,1.571-1.588,1.6-1.564,2.089-1.578,1.569-1.056,2.626-.542-.517-.5-1.049-1.066-1.061L539.57,279.5l-1.584-1.576-1.045-.53-2.1-1.038h-1.589l1.071,2.619V281.6l.518,1.566v4.2l-.518,1.576v3.68l-1.071,1.584v1.048l-1.036,1.048v1.578l-1.051,1.579-.527,1.558-1.056,1.058-1.045,1.573-1.046,1.571L526.42,306.8l-.518-.523-.523-1.578-.538-1.574-1.045-2.106-1.051-1.038-.518-1.046-1.066-1.053-1.046-.53L519.06,296.3l-1.574-.526-1.569-.523h-1.066v.523l.538.526,1.056,1.578.513,1.053,1.055,2.084v1.058l.538,1.048.508,1.056.538,1.571v3.685l.517,1.571-.517,1.056V317.3l-.538,1.578-.508,1.574-.538,2.106-.527,2.109-.528,1.561-1.041,2.626-1.066,1.583-1.046,2.619v-2.1l-1.579-2.1-.522-1.561-.523-1.066-1.056-1.038-.518-1.583-.528-.523-1.051-1.048-1.579-1.053-1.045-.53-1.051-.526v2.109l.513,2.1.538,1.058v3.665l.513,1.583v1.045l.533,1.574-.533,1.579v4.21l-.513,1.036v2.626l-.538,1.584-.513,1.571-.538,1.053-.528,1.569-.523,1.589-.518,1.045-1.06,1.041-1.031,1.056-.533,1.04Z" transform="translate(4437.123 -8008.456)"/><path class="d" d="M518.273,312.016h0l.518-.528,1.045-1.051h2.106l.523-.528,1.055-.528,1.046-.523h1.573l1.051-.517h1.579l1.071-.518,2.1-.538h3.152l1.569-.518,1.583-.533,2.1-.518h19.455l2.639.518,2.619,1.051h2.1l2.634.538,2.1.518,2.63,1.04,2.619.528,2.624,1.051,2.106,1.055,3.148,1.579,2.634,1.04,2.634,1.589,2.106,1.563,2.634,2.112,2.619,1.056,2.634,2.619,2.619,2.1,2.106,2.1,2.634,2.639,2.614,2.1,2.639,2.624,2.624,3.152,2.106,3.142,2.1,3.162,2.619,3.665,2.121,4.213,2.1,3.156,2.086,4.208,2.112,4.193,2.1,4.721,2.117,4.218,2.1,4.715,1.594,5.253,2.619,5.777h-1.061l-2.1.528h-3.675l-1.071.533h-1.568l-1.568.513h-1.594l-1.568.533h-4.2l-1.573.518-2.122.537H589.765l-2.64-.537-2.629-.518h-5.253l-3.162-1.046-2.619-.533-3.157-.528-2.1-.523-3.152-1.046-2.619-1.061-2.639-.528-2.624-.523L554,383.462l-2.106-1.055-2.624-1.579-2.619-1.056-2.625-2.1L541.4,376.63l-2.106-2.106-2.639-1.563-2.624-2.127-2.1-2.091-2.625-2.1-1.593-2.1-2.619-2.639-2.1-2.629-1.584-2.1-2.1-2.614-1.578-3.157-1.564-3.675-1.6-3.147L513,341.425l-1.563-3.674-1.066-3.68-1.041-3.66-1.046-3.685h.518l.528-.533h3.157l1.578-.522,2.112.522h1.564l1.051.533,1.578.522,1.574.523,1.061.523,1.035.528,1.061,1.046,1.578.543,1.563,1.04,1.071,1.579,1.564,1.558,1.061,1.594,1.035,2.1,1.061,2.1.533.528.523,1.056.513,1.563v1.061l.533,1.578.523,1.041v1.578l1.051,1.574v1.578l.533,1.574v1.578l1.056,2.092v-.518l1.04-1.041v-1.055l.523-1.056.543-1.046.513-1.056V349.84l.538-2.106v-2.1l-.538-1.569L541.4,343v-1.579l-.543-1.046-.523-1.578v-1.574l-1.04-1.046-1.056-1.051-.533-1.584H539.3l1.563,1.041,2.116,1.061,1.051.533,1.041.518,1.584.528,1.578,1.056,1.574,1.051,1.579,1.046,1.568,1.046L554.535,343l1.588,1.066,1.568,1.04,1.046,1.579,1.593,1.045,1.046,1.051,1.578,2.106,1.558,1.574,1.061,2.1,1.051,1.055,1.051,2.619.528,1.588,1.066,2.082v2.111l.517,2.1v1.056l.518,1.569v1.589l1.051-1.589V367.7l.533-1.578,1.041-1.051V363.5l.533-2.107.528-1.564-.528-2.106v-2.1l-.533-1.055V353.51l-.518-1.574-.523-1.046-.533-1.051v-1.056l-1.051-1.578-.518-.518h.518l1.584.518,2.1.528.528.518,1.051.533,1.056.528,1.04.528,1.061,1.051,1.563.518,1.071,1.056,1.563,1.046,1.573,1.056,1.055,1.055,1.051,1.559,1.046,1.06,1.579,1.041,1.056,1.071,1.046,1.558,1.061,2.111,1.031,1.045,1.6,2.107,1.026,1.569,1.065,2.091.528,1.583.518,2.106.548,1.051.508,1.056v1.046l.528,1.574v-9.456l-.528-1.574v-3.152l-.508-2.1-.548-1.574-.518-1.04-.528-1.071h0l1.594.548.508.523,1.584.518,1.041.522,1.583,1.056,1.579.518,1.583,1.584,2.1,1.046,1.568,1.579,2.112,1.569,1.578,2.091,1.045,1.071,1.051,1.056,1.046,1.046,1.061,1.569V371.9l-1.061-1.071-.513-1.04-1.055-1.574-1.051-2.1-1.056-1.568-1.564-1.584-2.106-1.574-1.056-2.111-2.1-1.041-2.634-2.1-1.056-.518-1.056-1.055-1.041-.533-1.056-.523v-.523l1.056-.523,1.041-1.056,1.583-1.569.528-1.589L605,346.688l1.045-2.1.538-1.584h-2.634l-.528,1.066H601.84l-1.564.518-2.116.522-2.112.528h-4.721l-1.563-.528-1.584-.522H586.6l-1.051-.518h-2.1L581.867,343l-1.045-.528-1.579-.513-2.106-1.056-1.568-1.06L573.99,338.8l-1.579-1.051.518-.523,1.061-.528,2.091-.518,2.106-1.594,1.056-1.041,1.046-1.04.533-1.056,1.045-1.04,1.056-1.589.533-1.574.523-1.578.518-2.1h-1.041v.518l-1.589.528-1.045,1.051-1.061,1.056-2.1,1.045-1.04.523-1.056.528-1.578.523-1.061.523-1.574.543h-2.624l-1.579.5h-1.578l-2.1.542h-3.68l-2.1-.542-1.568-.5H554l-2.106-.543-1.046-.523H549.8l-1.574-.523-1.06-.528-2.1-1.046-2.092-.522.528-.533,1.035-.522.528-.533,1.056-.518,1.046-.528,1.583-.518,2.1-1.578,2.1-2.1L554,318.848l.534-1.061.522-2.1.538-1.574h0l-1.06.518-1.584.528-1.055.528h-1.564l-1.06.533h-2.1l-1.574.523-1.568.523-1.573.518h-5.8l-1.569.543-1.584-.543H528.77l-1.051-.518-1.579-1.046h-2.1L523,315.691l-1.061-1.056-1.574-.518-1.051-1.06-1.045-1.041Z" transform="translate(4490.494 -7768.932)"/><path class="d" d="M498.873,334.7h-.513v.518l-.522,1.046v1.588l-.518.518v1.051l-.538,1.061v1.569l-.518,1.056v1.051l-.533,1.573v4.716l-.518,1.588v6.827l.518,2.1v5.782l.533,2.1.518,2.112.538,2.1.518,2.116.522,2.614.513,1.579.543,2.086,1.056,2.106,1.035,2.63.528,2.1,1.06,2.1,1.569,2.111,1.589,2.625,1.046,2.1,1.579,2.092,2.1,1.593,1.579,2.614,2.1,2.106,1.583,2.1,2.1,2.634,2.629,2.086,2.63,1.594,2.634,2.1,2.112,2.106,3.147,2.1L534.1,421.9l3.69,2.1,3.147,1.568,3.7,2.117,3.675,1.06,3.674,2.1,4.2,1.568,4.213,1.579,4.193,1.056,4.207,1.568,5.258,1.563,5.264,1.061v-2.624l-.533-2.1V432.4l-.528-1.051V417.167l-.518-2.1V413.5l-.517-2.106v-2.1l-.538-2.117-.523-2.086-.523-2.111-.517-2.091-.534-2.122v-2.614l-1.051-2.107-.527-2.086-.518-2.639v-1.568l-1.061-2.625-1.036-2.639-1.066-2.1-.533-2.624-1.055-2.1-1.036-2.634-1.589-2.1-1.061-2.112-1.553-2.614-1.061-2.116-1.578-2.615-1.569-2.106-1.061-2.1-1.583-2.111-1.564-2.086-2.107-2.116-2.1-2.1-1.578-2.1-2.635-2.1-1.573-1.578L541.463,341l-2.1-1.579-2.634-2.106-2.107-1.569-2.614-2.1-2.629-1.051-3.157-2.106-2.634-1.056-3.147-1.579-3.152-1.04-2.639-1.056-3.68-1.578h0v5.253l.533,2.116.523,1.046v1.051l.523,1.569.522,1.046,1.061,1.051.518,1.055,1.045,1.051L516.764,341l1.041,1.051,1.055,1.056,1.584,1.051,2.1,1.046,1.046.527,2.634,1.051h.523l1.045.528,1.06.517h1.574l1.056.533h1.045l1.569.517h2.634l1.056.533h1.578l2.1.522h-.528l-1.046,1.041h-.523l-.533,1.06h-1.046l-1.056,1.056-1.564.518h-7.9l-1.041-.518H525.17l-1.578-1.056h-1.046l-1.056-1.06h-1.583l.538,1.06.517,1.056,1.584,2.086v.533l1.046,1.578,1.051,1.046.528,1.573,1.056,1.051,1.041,1.579,1.071,1.051,1.046,1.573,1.583,1.061,1.046,1.036,1.051,1.061,2.106,1.579,1.036,1.051,1.583,1.046,1.578,1.051,2.1,1.056,1.569.517,1.6,1.061h2.1l1.579,1.04h7.877l-1.055,1.056h-1.041l-1.066,1.046-1.553.533-1.066.518h-1.574l-2.1.528-1.578.523-1.574.518-2.639-1.041-2.1-.528-2.1-.518-2.634-.533,1.071.533v.518l1.564,1.568.538,1.588,1.563,2.106,1.056,2.1,2.639,2.1.5,1.046,1.066,1.06,1.573,1.051,1.056,1.051,1.579,1.046,1.055,1.051,1.041,1.056,2.1,1.046,1.056.533,1.574,1.036,2.106.543,1.579,1.051h2.106l1.583,1.036h2.086l2.629.527H566.7l-1.589.528H562.5l-1.583.523h-6.832l-2.107-.523H550.4l-1.041-1.056h-1.055l1.055,1.579v1.055l1.041.533.523,1.036,1.055,1.579.518,1.055,1.589,1.579,1.041,1.051,2.106,2.106,1.061,1.568,2.1,1.051.523,1.046,1.045.528,1.583,1.046,1.041,1.051h-1.041l-1.583-.517-1.045-.533-1.056-.513-1.569-.533-2.112-.528-1.578-1.046-1.584-1.051-1.553-1.568-2.107-1.071-1.588-2.086-1.564-1.579-1.578-2.1-1.056-1.574h-.542l-.5,1.036-1.066,1.051-1.046,1.046-1.583,1.071-1.046,1.553-2.1.543-1.589.528v-1.071l.528-.508.543-1.046v-3.168l.518-1.568v-4.721l-.518-1.071v-2.614l-.543-1.051-.528-1.056v-1.569l-1.036-1.578v-1.578l-1.051-1.056-.528-1.041-1.056-1.573-1.045-1.569-1.589-1.594-1.045-1.056h0l-.523,1.588-1.056,1.579-.528,2.107-2.1,2.1-1.584,2.1-1.563.528-1.065,1.051-1.569.518-1.066.533v-1.051l.538-1.051.528-1.06,1.041-1.563.528-1.579.528-2.1,1.046-2.106V378.82l.538-1.574V374.1l-.538-1.574v-1.578l-.508-2.112-.538-1.578-.528-2.1-.528-1.573-1.041-2.1-1.066-2.106-1.045-1.569-1.046-2.107v.513l-.533,1.066-.522,1.574-.523,2.629-1.574,2.1-1.578,1.573-1.051,1.061-1.061,1.036-1.564.522-1.066.538h0v-2.1l.528-1.6v-1.035l.538-1.051v-3.675l.513-1.045v-1.594l.538-1.046-.538-1.569v-3.675l-.513-1.573V345.2l-.538-1.046-.528-1.579-.523-1.051-.518-1.574-.528-1.583-2.1-2.106-1.6-1.564Z" transform="translate(4436.276 -7692.33)"/><path class="d" d="M542.537,346.586h-2.091l-1.594.513h-1.031l-.538.528h-1.045l-1.061.533h-1.568l-1.055,1.056h-4.213l-2.1.518h-1.574l-1.041.523h-5.791l-1.569.528-2.112-.528h-5.781l-2.624-.523h-1.573l-2.635-.518h-1.578l-2.634-1.056-2.1-.533-2.624-1.041-1.574-.533L488.385,345l-2.1-.523-2.619-1.051-1.589-1.576-2.624-1.051-2.1-1.573-2.629-1.568-2.092-1.579-2.106-2.1-2.634-1.573-2.1-2.112-2.1-2.094-2.122-2.1-2.1-2.634-2.106-2.619-2.091-2.624-2.107-3.168-2.1-3.139-2.1-3.68-1.578-2.624-2.1-4.2-1.584-3.149-2.1-4.213-1.583-4.192-2.1-4.213-1.051-4.18-1.589-4.746L434.247,272l.533-.518h5.786l1.564-.528h1.056l1.578-.518h8.943l1.574-.531h17.354l2.625.531h2.1l2.629.518h2.63l2.634.528h2.624l2.111,1.036H492.6l2.1,1.06h2.63l2.634,1.041,2.112.543L504.7,276.2l2.63,1.061,2.634,1.055,2.091,1.051,2.634,1.046,2.1,1.584,2.111,1.573,2.624,1.051,2.106,1.561,2.086,1.573,2.63,2.112,1.589,1.574,2.1,2.1,1.578,2.111,2.106,2.1,2.106,2.089,1.031,2.629,2.1,2.635,1.583,2.619,1.589,2.106,1.568,3.142,1.056,3.144,1.573,3.685,1.051,2.634,1.051,3.675.533,3.667L552,333.981h-5.782l-1.573-.533-2.619-.528-2.121-1.046-1.056-.528-1.031-1.051-1.583-.523-1.061-1.055-1.045-1.049-1.051-1.563-1.051-1.578-1.051-1.056-1.051-2.111-1.045-1.564-.543-2.1-1.036-2.1v-1.581l-.538-1.051-.528-1.046V309.3l-.528-1.583V305.1H525.2l-1.06,1.04-.518.528-.528.527-.533,1.046v1.583l-1.046,1.041v6.3l.508,1.061v1.046l.538,1.578.533,1.041.528,1.578,1.041,1.056.538,1.578h-.538l-1.041-.538-1.061-1.04-2.1-1.056-1.568-.518-1.061-.522-1.051-1.071-1.046-.508-1.583-1.056-1.061-1.061-1.569-1.041-1.051-.528L508.9,315.6l-1.568-1.056-1.056-1.576-1.056-1.046-1.04-1.579-1.589-1.573L501.54,307.2l-1.055-1.056-1.056-2.1-.523-1.579-.518-2.091-.522-1.586-.538-2.1v-2.1l-.518-2.1.518-1.573h-.518l-.533,1.573-.513.528-.538,1.568-.528,1.061v1.563l-1.035,1.574v7.352l1.035,2.1v1.583l.528,1.041.538,1.056,1.046,1.046h-.533l-.513-.528-1.066-.518-1.035-.523-2.635-1.574-1.573-.522-2.106-1.583-2.1-1.579-1.056-1.04-1.578-1.056-1.046-1.579-1.056-1.046-1.056-1.046-1.046-1.586-1.056-1.574-1.041-1.046-1.055-1.578-.533-1.568-1.051-2.1-.533-1.056-1.036-2.112-.533-1.573v-2.089l-.522-2.1-.523.518v14.179l1.045,1.578v1.036l1.061,1.068h-.528l-1.056-.538-1.051-.53-1.056-1.036h-1.051l-1.04-1.056-1.589-1.563-1.568-.538-1.584-1.573-1.056-1.046-2.106-1.573-1.578-2.107-1.553-1.563-1.584-2.117-.528,1.046.528,1.573.518,1.061.528,1.051.538,1.574,1.553,2.1.548,1.051,1.031,1.578,1.583,2.1,1.579,1.036,1.584,1.581,2.1,1.578,1.061.528,1.04,1.051,1.051,1.056,1.583.518H470l-1.056.523-1.051,1.056-1.04,1.046-1.061,1.583-1.051,1.574-1.045,1.569v2.093l.522-.518,2.1-.525.534-.533,2.091-.518h3.69l1.041-.528h2.639l1.041.528h2.1l1.588.518,1.569.533,1.056.525,1.578.518,1.578.538,1.559,1.041,1.6.528,1.046,1.568L492.6,319.8l2.1,1.564h-2.1l-1.574,1.071-2.1,1.04-1.055.528-1.046,1.055-1.06,1.051-.518,1.036-1.056,1.061-.523,1.571-.528,1.574v1.574h0l1.051-.513.523-.533,1.051-1.051,1.584-1.051,1.578-.533,1.056-.522,1.046-.515h1.041l1.594-.533,1.035-.528h1.066l1.046-.518h6.309l2.1.518h3.157l2.1,1.061,1.578.515,2.634.522,2.1,1.056,1.584,1.051L521,332.408h-.533l-1.568.513h-1.584l-1.574,1.584-2.644,1.045-2.086,2.107-1.046,1.046-.538,1.578-.528,1.041V342.9h1.066l1.046-1.051h1.045l2.1-.528,2.629-.523,1.051-.518h3.685l1.578-.517h6.3l1.579.517,1.574.518h1.578l1.045.523,1.061.528,1.583,1.051,1.031.525,1.594,1.051,1.04.523,1.051,1.588Z" transform="translate(4183.401 -7917.466)"/><path class="d" d="M530.557,358.759h0l.528-1.06v-1.051l1.051-1.574V353.5l1.06-2.1v-1.043l.523-1.584.528-1.036v-1.586l.523-1.563L535.3,343v-2.109l.528-1.046v-5.766l1.04-1.583v-7.878l-.528-2.094v-2.1l-.513-2.629v-2.109l-.528-2.1-.528-2.622-.523-2.1-.528-2.1-1.056-2.627-.528-2.1-1.051-2.624-1.046-2.109-1.584-2.617-1.045-2.1-1.056-2.63-1.574-2.1-2.106-2.619-1.559-2.107-1.6-2.1-2.1-2.637-2.624-2.1-2.1-2.609-2.634-2.1-2.1-2.109-3.162-2.637-2.619-2.1-3.162-2.1-3.148-1.574-3.685-2.091-3.685-2.63-3.68-1.578-3.66-1.583-4.751-2.619-4.2-1.574-4.735-1.571-4.73-1.581v.538l-.518,1.561v.526L461.7,249.5v2.632l-.528,1.041v1.583l-.523,1.578v1.574l-.527,1.578v5.779l-.523,1.569-.538,2.1V294.15l.538,2.624v2.632l.523,2.1.527,2.632.523,2.627v2.617L462.228,312l.518,2.626.522,2.112,1.061,2.617L465.37,322l.538,2.081,1.051,2.107,1.583,2.626,1.046,2.632,1.046,2.109,1.045,2.627,1.589,2.088,2.1,2.1,1.584,2.1,2.1,2.114,1.573,2.089,2.107,2.1,2.091,1.584,2.106,2.1,2.1,2.1,3.157,1.571,2.634,1.579,2.625,2.106,3.157,1.041,2.619,1.578,3.162,1.056,3.68,1.574,3.674,1.055,3.686,1.579v-2.634l.513-1.574-.513-1.578v-3.142l-.523-1.589V356.12l-.528-1.046-.528-1.048-.528-1.579-.518-1.053-1.061-1.043-1.04-1.584-1.578-1.036-1.056-1.061-1.056-1.043-2.1-1.583-1.589-.522-2.1-1.053-2.107-1.051-1.036-.531H498.5l-1.056-.518-1.056-.528h-1.569l-1.573-.518-1.584-.523h-1.056l1.056-1.061.523-.53.523-.518h1.06l1.579-.513,1.569-.53h3.162l2.1.53h.518l1.061.513h1.04l1.584,1.048h1.056l1.05,1.061,1.574.523,1.056,1.046V338.8l-1.056-1.591-.528-2.1-.527-1.038-1.046-1.058-.523-1.048-.528-1.574-1.056-1.583-.533-1.048-1.036-1.578-1.066-1.053-1.041-1.576L501.113,322l-1.036-1.581-1.578-1.058-1.056-1.571-1.574-1.046-1.578-1.063-1.584-1.049-1.046-1.571-2.1-1.056h-1.579l-2.1-1.048-2.1-.53H482.2l-2.107-.528-2.107.528.533-.528,1.574-.52.528-.517,1.579-.521,1.051-.526,1.568-.53h3.162l2.1-.523,1.579.523h2.106l2.1,1.056,1.046.521,1.055.517,1.579.52,1.051,1.058v-.53l-.523-.528-.528-1.038-.533-1.576-1.046-2.1-1.055-2.1-1.569-2.114-1.579-2.1-1.06-1.053-1.046-1.576-1.056-1.041-1.046-1.056-1.579-1.571-1.056-1.051-1.04-1.049-1.066-1.06-2.091-1.569-1.569-.528-1.066-1.053-1.574-1.038-2.111-.541-1.563-.53-2.1-.518-2.112-.518H482.2l1.583,1.036h1.578l1.564.53,1.056.541,1.045,1.038v-1.038l-1.045-1.071v-1.036l-.518-.535-.538-1.563-.518-1.058-1.046-1.578-1.056-1.043-1.055-2.1-1.051-1.566-2.107-1.574-1.045-2.119-2.1-2.092-1.584-1.583h.523l1.583.526,1.051.535,1.574.522,1.066,1.038,1.569,1.053,1.056,1.048,2.1,1.579,1.04,1.066,2.1,1.566,1.579,2.1,1.056,2.1,1.046.517v1.058l1.06,1.563.523,1.053v-.518l.527-.535,1.051-1.043,1.574-1.066,1.056-1.031,2.1-1.061,1.578-.525h2.107v.525l-1.066,2.092-1.041,1.066v1.578l-.522,1.566V286.8l-.543,1.051L500.6,288.9v1.048l.513,1.579v1.051l.543,1.048v1.578l.522,1.568v1.576l1.041,1.055v1.566l1.066,2.114.513,1.048,1.056,1.571,1.056,1.578,1.578,2.094v-.517l.518-1.576,1.056-1.578,1.056-2.1,1.051-1.049.528-1.053,1.04-1.056,1.061-.523,1.574-.518,1.564-.53,1.583-.525h1.6l-.542.525L519,300.447l-1.07,1.583-1.036,2.1-.528.522-.528,1.049v1.578l-.528,1.056-.518,1.038v1.579L513.736,312v11.552l.523,1.576.538,2.1,1.046,2.1v2.106l.528,1.048.528,1.06.523,1.561,1.045,1.066v-2.1l1.051-1.583,1.056-1.571,1.573-2.639,2.106-1.571,1.061-1.053,1.04-.525,1.056-.518h1.578v.518l-.533,1.053-.518,2.1-.528,1.586-1.056,2.1v2.106l-.522,1.574v1.561l-.518,1.591v10.509l1.04,1.561v1.576l.523,1.579.533,1.048,1.045,1.046,1.056,1.579,1.045,1.06Z" transform="translate(4286.323 -8017.336)"/><path class="d" d="M545.542,311.229h-.518l-.538-.543-1.568-.513h-1.584l-1.051-.523h-1.051l-1.589-.528h-2.1l-1.036-.518h-3.68l-1.6-.543H513.474l-2.1.543h-1.589l-2.1.518-2.619.528-2.1.523-2.635,1.056-2.1.518-2.644.523-2.1,1.041-2.619.537-2.624,1.046-2.634,1.051-2.1,1.578-2.639,1.574-2.1,1.589-2.629,1.04-2.091,2.1-2.112,1.584-2.629,2.1-2.1,2.106-2.639,2.629-2.091,2.106-2.106,2.619-2.629,2.624-2.112,3.153-2.1,3.157-1.574,3.157-2.1,3.132-2.1,3.685-2.106,3.68-1.573,4.193-2.107,3.685-1.583,4.2-1.574,4.72-1.578,4.736-1.574,4.73-1.051,5.244-1.046,5.254-1.066,5.781.538-.518h24.7l2.629-.522h2.106l2.091-.528h5.263l2.629-.528,2.629-.523h2.634l2.107-.528,3.132-.518,2.644-.528,2.634-1.051,2.624-.538,2.619-.518,2.639-1.061,2.63-.508,2.624-1.051,2.63-.538,2.619-1.578,2.645-1.051,2.624-1.036,2.63-1.061,2.634-1.578,2.091-1.574,2.634-1.578,2.624-1.578,2.1-2.1,2.614-1.589,2.117-2.1,2.1-2.086,2.1-2.106,2.1-2.106,2.112-2.619,2.1-2.106,1.589-3.147,1.583-2.634,1.558-2.624,1.574-3.152,1.583-3.137,1.051-3.167,1.578-3.675,1.056-3.147.528-4.2,1.573-3.675.533-3.68.518-3.7v-.518H550.79l-1.558.518-1.076.543h-1.046l-1.056.518-1.568.533-1.045,1.046-1.061.523-1.568.533-1.055,1.051-1.574,1.573-1.051,1.056-1.046,1.041-1.066,1.584-.513,2.1-1.066,1.563-1.573,2.107v2.629l-1.041,1.046v3.147l-.528,1.06v3.152l-.533,1.574v4.208l-1.045-1.056-1.056-.523-.528-.528L526.1,354.3v-1.056l-1.061-2.1v-1.589l-.523-2.1.523-1.559v-4.212l.533-1.051.528-1.574.518-1.051.523-1.569,1.061-1.578h-.533l-1.051,1.051h-1.578l-2.1,1.568-1.051.528-1.593,1.051-1.041,1.056-1.046,1.051-1.583,1.046-1.579,1.051-1.573,1.046-1.056,1.589-1.04,1.559-1.589,1.06-1.579,1.041-1.046,2.111-1.574,1.574-1.06,1.584-1.051,1.568-1.051,2.624-.528,1.589-1.035,1.573-.533,2.619L499.8,366.9v7.858l1.061,1.061L499.8,375.3l-1.046-1.563-.528-1.055-1.046-1.051v-1.046l-.528-1.578-.528-2.1-.543-1.583-.513-2.086v-4.218l.513-1.569.543-1.056v-1.051l.528-1.569.528-1.051,1.046-1.578h-1.046v.523l-1.6.518-1.559,1.056-2.111,1.056-1.574,2.1h-1.06l-1.036,1.056-1.588,1.569-1.046,1.051-1.056,1.041-1.041,1.071-1.588,1.564-1.051,1.056-1.041,1.578-1.061,1.574-1.046,1.574-.528,2.106-1.056,1.051L475.1,375.3l-1.041,1.579v2.1l-1.061,2.107-.528,2.1v1.061l-.523,1.055v1.569l-.523-1.569v-1.055l-.522-1.061V380.04l-.538-1.583V375.3l.538-2.1V371.63l.522-1.584.523-2.1.523-1.045h-.523l-1.584,1.045h-1.045l-.538,1.574-1.563.522-1.061,1.056-1.578.528-1.041,1.573-2.1,1.559-1.061,1.588-2.1,2.106-1.563,2.1-1.076,1.051-1.04,1.055-.518,1.584-1.061,1.055v-4.212l1.061-1.579.518-1.589,1.04-1.569,1.076-1.588,1.036-2.081,1.589-2.1,1.573-1.578,1.574-2.1,2.091-2.106,1.071-1.056,1.035-.508,1.056-1.056,1.579-.527-.538-.543-1.041-.5-1.583-.538-1.578-1.051-1.041-1.569-1.051-1.579-1.046-2.1v-2.106l.518.518h.528l1.051.538h1.589l2.092.518h6.308l1.574-.518h1.051l1.583-.538,1.046-.518,1.569-.523,1.584-.518,1.588-.523,1.569-.548,1.574-1.041,1.588-1.06,1.036-1.041,2.111-1.573,1.056-1.056,2.1-1.046h-.523l-1.578-.528-1.056-.528-1.051-.518-1.06-.533-1.036-.518-1.588-.528-1.046-1.06-1.056-1.046-.523-.518-1.066-1.579-1.041-1.04-.533-2.106v-1.584l.533.528,1.041.518,1.588.538,1.056,1.041,2.634.523,1.036.543h1.06l1.051.518,1.574,1.051h11.045l1.578-.528,2.1-1.04h2.1l1.589-1.066h2.1l2.1-1.041,2.1-1.056,1.051-1.06,1.051-.513,1.578-.533,1.046-.518-.513-.533H520.3l-1.041-.523-1.046-.528-1.046-.518H516.1l-1.568-1.051h-1.056l-1.056-1.584-1.04-1.04-1.589-1.056-.513-1.04-.533-1.589-.533-1.574h.533l.533.523h1.046l2.1.523h2.112l1.045.528h2.634l1.046.522h9.466l1.045-.522,2.1-.528,1.573-.523h1.066l1.579-.523,1.558-.523,1.589-1.056,1.051-.533,1.568-1.046,1.066-.518,1.568-1.578,1.056-1.04Z" transform="translate(4176.199 -7759.206)"/><path class="d" d="M538.279,334.764l.533,1.055v1.051l.518,1.061v1.046l.528,1.051v1.056l.533,1.051v4.193l.523,1.569v1.046l.528,2.116v9.979l-.528,2.1v1.574l-.523,2.639v2.1l-.533,1.568-.528,2.634v1.578l-.518,2.624-1.061,2.1-.518,2.112-1.051,2.106-1.051,2.614-1.061,1.578-.523,2.63-1.574,2.1-1.05,2.1-2.1,2.111-1.055,2.086-2.107,2.634-1.569,2.107-2.1,2.1-1.578,2.087-2.1,2.106-2.112,2.111-2.624,2.1-2.624,2.106-3.157,1.578-2.63,2.107-3.152,2.086-3.157,1.574-3.68,2.121-3.162,1.554-3.66,1.593-3.69,1.564-4.2,1.589-3.68,2.1-4.736,1.035-4.73,1.061-4.721,1.578-4.74,1.579v-3.157l-.528-1.061v-28.87l.528-2.629.523-2.107v-4.721l.533-2.111.513-2.624.533-2.106.518-2.629.533-2.1.523-2.614,1.066-2.112v-2.624l1.036-2.624,1.056-2.619.528-2.634,1.041-2.1,1.061-2.629,1.578-2.1,1.046-2.634,1.06-2.1,1.563-2.106,1.589-2.619,1.583-2.107L477.309,350l1.563-1.578,2.106-2.1,2.1-2.1,1.583-2.1,2.624-1.578,2.106-1.579,2.106-2.106,2.619-1.569,2.635-1.588,3.147-1.564,2.111-1.051,3.68-1.578,2.614-.518,3.172-1.578,3.675-1.056,3.157-.533,3.68-.528,4.208-.508v3.675l-.538,1.573-.533,2.1-.513,1.046v1.051l-.523,1.573-.528,1.051-.528,1.061-1.045,1.569-1.061,1.056-.517,1.051-1.584.528-1.051,1.046L516.2,344.23l-1.568,1.045-2.117,1.051-1.563,1.056-2.1.513-2.106.528h-2.634l-1.569.518-1.056.543h-4.208l-1.583.518.528.538.533.518.522.523,1.046.527.533.518,1.584.533h1.046l2.1.513h4.213l1.578-.513h2.106l1.036-.533,1.589-.518,1.578-.527,1.574-.523h-.528l-.527,1.051-.518,1.051-1.05,2.107-1.056,1.046-.528,1.569-1.056,1.061-.513,1.046-1.066,1.051-1.041,1.573-1.066,1.061-1.036,1.558-1.578,1.056-1.056,1.061-1.574,1.568-1.051,1.061L499.9,371.01l-1.046,1.055-1.579,1.061-2.1,1.04-1.574,1.056h-1.588l-2.091,1.046-1.569.533h-2.111l-1.579.518-2.107-.518h-2.1v.518l1.579.528.517,1.04h1.584l.523,1.056,2.1.533h1.594l1.569.518h5.253l2.624-.518,1.056-.533H499.9l2.639-1.056-1.056,2.106-1.046,1.061-1.061,1.569-1.056,2.1-2.1,2.1-1.563,2.111-1.056,1.051-1.045,1.046-1.578,1.051-1.056,1.056-1.569.523-1.066,1.563-1.046,1.071-1.579,1.051H483.08l-1.578,1.036-2.1,1.056-1.578.523-2.092.528-1.583.528-2.107.533-2.106.518h4.212l1.583.518h7.345l1.583-.518h1.579l1.046-.518h1.066l-.538,1.036-.528.538-.528,1.041-.517,1.589-1.579,1.046-1.061,1.051-1.046,1.035-1.055,1.594-1.564,2.1-2.112,1.046-1.046,2.106-2.63,1.578-1.589,2.107h.538l2.1-.538.533-.523,1.574-.528,1.563-.518,1.589-1.061,1.579-1.051,1.563-1.046,1.578-1.574,2.107-1.051,1.588-1.568,1.569-2.107,1.568-2.1,1.588-1.589h0l.518,1.055,1.056,1.051,1.045,1.579,1.579,1.035,1.056,1.071,2.106.522,2.1,1.046-.522-1.046v-.522l-.528-.543v-1.036l-.527-1.578-.523-1.579V398.86l.523-1.04v-1.071l.527-1.569v-1.046l1.051-1.579.518-1.056.528-1.569.528-1.578,1.056-1.578,1.051-1.056,1.051-1.041,1.578-1.573,1.041-1.569v.518l1.066,1.051v2.1l1.036,1.568,1.589,2.106,2.1,2.1,1.056.517,1.056,1.056,1.578.523,2.1.527v-.527l-1.061-.523V391.5l-1.04-1.051-.527-1.569-1.051-2.106-.533-1.568-.523-2.1-.528-1.569v-8.928l.528-1.6v-1.568l.523-2.1.533-1.579,1.051-2.1.527-1.6,1.04-2.086,1.061-2.107,1.045-1.569v.523l.528,1.046.528,1.578,1.036,2.1,1.07,2.116,1.569,2.1,1.055,1.051,1.046.528,1.578.533,1.579.518h-.518v-2.629l-.534-1.061-.528-1.036v-3.685l-.523-1.046v-7.882l.523-1.574v-3.674l1.061-1.579v-1.578l.518-1.046.522-1.051L534.6,339.5l.528-1.569,1.051-1.061,1.051-1.051,1.046-1.055Z" transform="translate(4279.129 -7689.779)"/><path class="d" d="M554.841,331.762h1.578l2.1-.528,2.1-.513,2.1-.528,1.584-1.061,2.1-.523,1.583-1.576,1.035-1.04,1.6-2.1,1.03-1.06,1.06-2.107,1.051-1.563.518-1.578.533-2.107.523-2.1v-4.2l-.523-2.1-.533-1.568-.518-2.1-1.051-1.578-1.06-2.106-1.03-1.576-1.6-1.056-1.035-1.574-1.583-1.04-2.1-1.066-1.584-1.045-2.1-1.04h-12.09l-2.107,1.04-1.568,1.045-1.578,1.066-2.1,1.04-1.066,1.574-1.051,1.056L538,299.728l-1.559,2.106-.527,1.578-1.051,2.1-.548,1.568v8.4l.548,2.107,1.051,1.578.527,1.563L538,322.836l1.055,1.06,1.051,2.1,1.066,1.04,2.1,1.576,1.578.523,1.568,1.061,2.107.528,2.1.513,2.122.528Z" transform="translate(4598.483 -7828.602)"/><path class="d" d="M443.1,333.406h1.579l2.1-.518,2.107-.523,1.568-.538,2.1-1.051,1.583-1.056,1.593-1.035,1.554-1.061,1.066-2.1,1.569-1.574,1.056-1.06,1.05-2.1V318.7l1.046-1.574v-2.106l.528-2.106-.528-2.1v-2.107l-1.046-2.1v-1.576l-1.05-1.578-1.056-2.086-1.569-1.589-1.066-1.046-1.554-1.579-1.593-1.051-1.583-1.045-2.1-1.051-1.568-.518-2.107-.538H438.37l-2.112.538-1.568.518-1.578,1.051-2.1,1.045-1.594,1.051-1.045,1.579-1.056,1.046-1.04,1.589-1.584,2.086-1.051,1.578-.523,1.576V318.7l.523,2.089,1.051,2.1,1.584,1.06,1.04,1.574,1.056,2.1,1.045,1.061,1.594,1.035,2.1,1.056,1.578,1.051,1.568.538,2.112.523,2.091.518Z" transform="translate(4137.236 -7821.836)"/><path class="d" d="M501.937,390.362h1.578l2.1-.523,2.1-.527,2.1-.518,1.578-1.051,1.578-1.066,1.584-1.036,1.568-1.06,1.056-2.1,1.574-1.569.528-1.588,1.579-1.579v-2.1l1.051-1.569v-2.1l.528-2.117-.528-2.106v-2.1l-1.051-2.1V362l-1.579-2.1-.528-1.589-1.574-1.578-1.056-1.046-1.568-1.578-1.584-1.036-1.578-1.593-1.578-.528-2.1-1.04h-2.1l-2.1-.528h-3.69l-2.625.528h-1.578l-2.1,1.04-2.107.528-1.065,1.593-1.564,1.036-1.583,1.578-1.573,1.046-1.056,1.578-1.045,1.589L483,362l-1.056,1.569-.522,2.1v8.416l.522,1.569,1.056,2.1.528,1.579,1.045,1.588,1.056,1.569,1.573,2.1,1.583,1.06,1.564,1.036,1.065,1.066,2.107,1.051,2.1.518,1.578.527,2.625.523Z" transform="translate(4379.09 -7587.78)"/><path class="d" d="M500.888,277.814l2.1-.523H505.1l1.574-1.055h2.111l1.583-1.041,2.107-1.051,1.036-1.053,1.578-1.576,1.584-1.574,1.568-1.586.528-1.04,1.045-2.1.523-2.1.533-1.578.528-2.1v-4.211l-.528-2.088-.533-2.112-.523-1.563-1.045-2.114-.528-1.566-1.568-1.579-1.584-1.576-1.578-1.056-1.036-1.038-2.107-1.051-1.583-1.055-2.111-.526-1.574-1.048H496.68l-1.553,1.048-2.654.526-1.564,1.055-1.583,1.051-1.573,1.038-1.056,1.056-1.574,1.576-1.056,1.579-1.568,1.566-.528,2.114-1.056,1.563v12.09l1.056,2.1.528,2.1,1.568,1.04,1.056,1.586,1.574,1.574,1.056,1.576,1.573,1.053,1.583,1.051,1.564,1.041h2.654l1.553,1.055h2.107l2.1.523Z" transform="translate(4376.971 -8054.576)"/></g></g></g></svg>