<svg xmlns="http://www.w3.org/2000/svg" width="680.919" height="688.512" viewBox="0 0 680.919 688.512"><defs><style>.a{fill:#7d9e85;fill-rule:evenodd;}</style></defs><g transform="translate(-4560.354 7817.726)"><path class="a" d="M487.206,386.558v-5.251l-.57-1.177v-9.316l.57-1.747V358.575l1.166-2.332.6-2.327.575-1.741.575-2.919v-2.343L491.29,344l.585-2.315.581-2.338,1.177-2.913,1.741-2.343,1.172-2.913,1.155-2.324,1.177-2.327,1.753-2.924,1.752-2.343,1.741-2.913,1.752-2.327,2.338-2.91,2.327-2.327,1.758-2.327,2.338-2.338,2.327-2.907,2.918-1.769,2.907-2.907,3.515-1.755,3.5-2.322,2.919-1.735,3.5-2.343,4.09-2.332,3.5-1.747,4.09-1.763,4.079-2.327,4.67-1.161,4.659-1.157,4.676-1.166,5.24-1.741,5.267-1.177,5.24-1.161,5.842-1.166,5.251-.586,6.406-.586,6.434-.592,6.986-.586v1.178l-.592,2.338-.563.575v1.763l-.586,1.155v2.909l-.575,2.35v1.735l-.6,2.338V289.8l-.581,1.741-.58,2.332v2.9l-.58,2.346-.591,2.316v2.924l-1.166,2.332-.575,2.913-.586,2.332-.592,2.921-1.166,3.482-.591,2.913-1.16,2.343-.575,2.924-1.183,2.9-1.155,2.918-1.171,2.924-1.155,2.913-.581,3.5L593.408,344l-1.161,3.5-1.752,2.918-1.172,2.918-2.343,2.913-1.747,2.907-1.758,2.921-1.747,2.913-2.338,2.338-1.735,2.327-2.327,2.918-2.918,2.322-2.344,2.338-2.332,2.33-2.924,2.327-2.322,2.327-2.924,1.752-3.5,1.752-2.924,1.757L550.22,391.8l-3.488,1.155-4.1,1.172-3.493,1.749-3.493,1.172-4.09,1.166-3.5,1.16h-4.659l-3.51,1.166-4.665.586-4.676.58h-9.329v-2.929l.586-1.73.586-2.921.586-2.327,1.155-1.177v-1.155l1.183-1.757,1.741-1.155.575-1.161,1.166-1.188,1.177-1.149,1.741-1.177,1.747-1.155,1.763-1.172,1.747-.581,2.918-1.169h.575l1.183-.58,1.752-.58h2.327l1.741-.591h11.679l1.172.591h4.084l-1.177-1.758-.586-1.172-1.149-.575-1.172-1.166-.6-.563-1.724-1.183-2.338-.58-1.752-.58-2.919-.592h-4.09l-1.758.592h-1.735l-1.752.58-1.758.58-1.747.586v-.586l1.178-1.161,1.144-1.746,1.769-2.338,1.166-1.161,1.155-1.177,1.172-1.727,1.741-.6,1.183-1.741L529.8,357.4l1.752-1.735,2.338-1.172,1.16-1.166,2.332-1.155,1.752-1.763,2.344-1.155,1.735-1.171,2.332-1.172,2.349-.569,2.322-.6,1.758-1.163,2.332-.586h11.673l1.161,1.166H568.9l1.172.583v-.583L568.31,344l-1.166-1.166-1.161-1.149-1.172-1.178-1.758-.575-2.333-.586-1.741-1.166-2.332-1.172h-2.338l-1.172-.575H550.22l-1.752.575h-1.735l-1.183.586h-1.155l-1.763.586v-.586l.586-.586,1.177-1.16,1.155-1.758,1.752-1.747,2.344-1.747,1.166-1.171,1.166-1.164,1.161-1.161,1.752-1.172,1.171-1.155,2.321-1.172,1.183-1.155,1.741-1.189,1.747-.564,1.758-1.172,2.332-1.177,2.327-.563,1.752-.592,2.349-1.171H575.9l2.9-.586,1.763-.569h7.594l-1.769-1.172-1.16-.583h-1.758l-1.747-.591-1.735-.575h-1.752l-1.752-.586-2.343-.574h-7l-1.758,1.161.6-1.161.586-1.172.575-1.155,1.166-.58,1.16-1.178,1.752-1.161,1.189-1.752,1.735-1.172,2.343-1.741,2.316-1.747,1.188-.591,1.15-.569,1.758-1.186,1.16-.575,1.172-.575,1.16-1.172,1.769-.58,2.333-1.155H582.9l-1.758,1.155-2.338.58-2.316,1.172-2.343,1.15-2.338,1.186-2.338,1.161-1.16.569-1.741.592-1.183,1.155-1.161,1.172-2.332,1.752-2.327,2.332h0l-.586-1.161-.6-1.752-1.161-1.747-1.752-2.344-1.16-1.73-2.332-1.186h-2.332l.575,1.186v7.572l-.575,1.161v1.758l-.586,1.155v1.172l-.591,1.735-.569,1.749-.6,1.166-.569,1.758-1.183,1.155-.58,2.349-.575,1.155L542.63,323.6l-1.149,1.172-1.172,1.752-1.752,1.735L536.811,330l-1.758,1.172-1.741,2.344-.591-.592v-4.668l-1.166-1.735v-1.166l-.581-1.758-1.172-1.155-1.161-1.189-.591-1.736-1.747-1.177-1.177-1.155-1.735-1.171h-1.752v.586l.586,1.178.563,1.741.6,1.736.586,2.343.569,1.172v2.9l.581,2.329-.581,1.172v5.256l-.569,1.747-.586,2.327v2.327l-.6,1.752-1.15,2.33-1.183,2.343L519.881,351l-1.747,2.327-1.171,2.338-1.166,2.327-2.344,2.321-1.747,2.33v-2.33l-.586-1.166v-1.155l-.581-1.752v-1.166l-.574-1.747-.586-1.155-1.166-1.763-.591-1.155-1.747-1.171-.569-1.172-2.338-1.166-1.171-1.163v13.411l-.586,1.747v1.752l-.58,1.75v1.741l-.581,1.758-.575,1.735-.6,1.752-.586,1.746-.591,1.741-.581,1.172-.575,1.758-1.172,1.738-1.161,1.172-1.177,1.752-1.161,1.16-1.752,1.741-1.149,1.188-1.769,1.161Z" transform="translate(4436.653 -7892.994)"/><path class="a" d="M581.383,391.834V390.07l.591-1.735V382.5l.575-1.172v-9.313l-.575-1.758v-4.668l-1.166-2.321v-6.991l-1.172-2.918v-2.338l-1.16-2.916-.581-2.327-.586-2.913-1.161-2.327-1.177-2.338-.591-2.924-1.15-2.329-1.758-2.9-1.769-2.924-1.15-2.327-1.752-2.918-2.332-2.913-1.763-2.91-2.327-2.327-2.332-2.918-2.349-2.327-2.327-2.338-2.913-2.338-2.9-2.9-2.338-1.752-3.51-2.332-2.913-2.327-4.09-2.355-3.5-2.327-4.09-2.327-4.079-1.733L518.96,284l-4.671-1.741-4.079-2.338-5.256-1.166L499.7,276.99l-4.676-1.155-5.82-1.183L483.36,273.5l-5.825-1.177-5.837-1.15-7.014-.586-5.825-.575v12.248l.586,1.741.569,2.324v4.085l.6,2.338.581,2.907V298l.585,2.907v2.335l.581,2.907.586,2.913,1.161,2.912.58,2.913.6,2.332,1.16,2.921.575,3.482.6,2.913,1.166,2.93,1.166,2.912.591,3.5,1.161,2.924,1.741,2.912,1.171,2.913,1.172,3.487,1.753,2.916,1.735,2.918,1.177,2.919,1.752,2.912,1.746,2.907,1.752,2.913,2.337,2.33,1.752,3.515,2.327,2.316,2.913,2.935,2.332,2.3,2.343,2.93,2.913,2.329,2.338,2.332,2.918,1.752,2.907,2.338,2.93,1.161,3.492,2.912,3.5,1.155,3.51,1.757,3.5,1.747,4.079,1.749,3.493.6,4.084,1.138,4.1,1.166,4.659.6,4.671.591,4.676,1.161h4.665l5.239.58-.575-.58v-4.654l-.575-1.177-.608-1.169v-1.747l-.575-.58-.575-1.746-1.16-1.183v-1.735l-1.172-1.177-1.758-1.166-1.155-1.735-1.177-1.177-1.161-1.752-1.757-1.155-1.758-1.169-2.332-1.161h-2.327l-1.155-1.166-1.183-.591h-2.907l-1.166-1.172H523.625l1.166-1.15.569-1.155,1.188-1.183,1.166-.58,1.746-1.172,1.161-.569,2.338-.586.592-.581h8.158l1.758.581h3.5l1.747,1.155,2.327.591-.581-.591-.58-1.155-1.166-1.763-2.338-1.735-1.155-1.752-.586-1.152-1.752-1.769-1.172-1.155-1.161-1.752-1.752-1.166-1.758-1.747-1.16-1.155-2.327-1.763-1.178-1.155-2.338-1.171-1.746-1.172-2.338-1.75-2.327-1.166-2.344-1.166-1.735-.575-2.924-.574-2.332-.6-2.93-.58h-8.744l-1.172.58H499.7l-1.166.6.581-.6,1.752-1.155.575-1.172,1.172-1.166,1.747-1.161h1.757l1.752-1.166,2.338-1.177h2.327l1.172-.569h5.836l1.155.569h2.924l1.735.586,1.757.591h0l-.569-1.177L525.36,338.2l-1.15-1.752-2.332-2.324-1.752-1.753L518.96,331.2l-1.167-1.155-1.758-1.172-1.161-1.155-1.752-1.189L511.36,324.8l-1.15-1.177-2.338-.563-1.752-1.763-1.757-.586-2.332-1.166-1.741-.575-2.332-1.174-2.349-.575-2.333-.586-2.332-.574h-1.155l-1.183-.581H485.7l-1.155-.591H482.2l-1.752.591.574-.591h2.338l1.183-1.155H485.7l1.758-.58h2.332l1.752-1.178H503.2l1.753,1.178-.591-1.178-.575-1.16-1.172-1.172-1.172-.58-1.155-1.747-1.172-1.166L497.36,304.4l-1.16-1.16-2.924-1.76-1.735-1.747-1.172-.58L489.207,298l-1.752-1.177-1.172-.592-1.741-.574-1.183-1.161L482.2,293.32l-1.752-.575v-.609H485.7l1.166.609,2.343.575,2.333,1.171,1.735.586,2.924,1.741h1.16L498.537,298l1.166.575,1.741.58,2.344,1.752,2.332,2.335,1.172,1.16,1.735,1.161,1.183,1.155,1.15,1.769v-1.769l1.177-2.316,1.172-1.16,1.166-2.335,2.327-1.752.592-.58L518.96,298h2.321l-.581,1.155v13.406l.581,1.171.6,2.327.575,1.161.586,1.166.586,1.755,1.166,2.327,1.16,1.155,1.166,1.758,1.172,1.747,1.171,1.752,1.161,1.172,2.338,2.327,1.747,1.753,2.332,1.743V331.8l.591-1.166.581-1.757.586-1.155.575-1.189.586-1.736,1.166-1.741,1.177-1.178,1.166-1.741,1.752-.6,2.338-1.158,2.322-.591-1.166,1.174v1.172l-1.155,1.741v.586l-.591,1.155-.591,1.177v1.736l-.585,1.189v1.155l-.569,1.757v11.073l1.155,1.747v2.327l1.183,2.327v1.752l1.155,2.33,1.166,2.343,1.16,2.327,1.758,2.332,1.166,2.327,2.333,2.332,1.752,2.344h0v-3.516l.586-1.16v-1.166l.591-1.747.575-1.155.581-1.763.586-1.155,1.172-1.762,1.172-1.15,1.735-1.181,1.758-1.166,1.752-1.166v.58l-.591.586v18.073l.591,1.752v1.735l.575,1.763.575,1.746.591,1.747.6,1.752,1.155,2.321v1.758l1.178,1.161,1.15,1.75,1.177,1.752,1.166,1.16,1.172,1.166,1.741,1.161,1.747,1.763Z" transform="translate(4305.714 -7898.27)"/><path class="a" d="M596.13,317.194h0v2.332l.575,2.322v5.825l-.575,1.763v6.406l-.586,1.172v4.659L594.969,344l-.591,2.344-.574,2.918v2.327l-.586,2.907-1.166,2.332-.58,2.919-1.166,2.918-.586,2.327-1.166,2.924-1.177,2.907-1.149,2.912-1.178,2.935-1.757,2.907-1.741,2.327-1.752,2.913-1.758,2.912-1.735,2.919L573.375,393l-1.747,2.9-2.338,2.919-2.924,2.327-2.913,2.913-2.9,2.321-2.338,2.36-3.51,2.9-3.5,2.332-3.5,2.327-4.084,2.924-3.5,1.171-4.079,2.316-4.671,1.763-4.078,2.327-5.262,1.752-4.665,1.171-5.245,2.333-5.251,1.171-5.832,1.741-5.836.586-5.842,1.149-5.82,1.166-6.433.586-7,1.166h-7l-7,.586v-2.9l.586-1.178v-1.161l.575-1.741v-1.171l.586-1.178v-4.665l.591-1.741.575-2.344v-2.907l1.166-2.327v-2.333l.591-2.338.575-2.924.586-2.924.586-2.321.581-2.913,1.166-3.5.592-2.9.569-2.919,1.166-3.5,1.172-2.918,1.183-3.5L470.1,379l1.172-3.509,1.741-2.913,1.178-2.918,1.166-2.907,1.747-3.5,1.177-3.5,1.735-2.919,1.763-3.5,1.758-3.482,2.322-2.919L487.605,344l2.327-2.907,2.332-2.924,2.343-2.9,2.332-2.924,2.338-2.907,2.924-2.919,2.907-2.327,2.913-2.912,2.332-2.332,3.51-1.753,2.919-2.332,3.5-2.332,3.487-1.763,3.51-1.752,3.5-1.741,4.084-1.161,4.073-1.752,4.67-1.166,4.084-1.172,4.09-1.149,4.67-.591,5.245-.586h20.417v1.178l-.575,1.746-.591,2.338-.586,1.155-.575,1.161v1.16l-.575,1.752-1.183,1.16-.575,1.183-1.16,1.741-.6,1.752-1.741,1.172-1.166,1.161-1.752,1.172-1.161,1.752-2.338.569-2.333,1.16-2.338,1.183-2.322,1.155h-2.338l-1.752.575-1.166.6h-5.262l-1.16.575h-7.588l-1.741-.575H533.7l.581,1.741.6.592,1.16,1.171,1.172,1.166,1.741,1.155,1.166.585,2.343,1.172h2.332l1.758.575,1.155.591h6.417l1.758-.591,2.338-.575h3.493l-1.156,1.166-1.183,1.747-1.741,2.327-1.752,1.166-1.172,1.166-1.752,1.752-1.161,1.161-1.758,1.177-1.752,1.735-1.735,1.763-1.758,1.752-2.332,1.155-2.343,1.752-2.327,1.161-1.752,1.166L533.7,357.42l-2.907,1.16-2.344.58-2.327,1.166h-1.763l-1.149.581h-1.183l-1.155.6H512.7l-1.746-.6h-1.178l-1.172-.581h-1.741l-1.752-.58h-1.172l.6.58,1.735,1.183.592,1.155,1.741,1.172,1.752.581,1.758,1.73,1.752.6,2.332,1.166h1.161l1.177.575,1.752.586h5.245l2.338.581,1.16-.581h1.758l1.752-.586h2.332l-1.178.586-1.155,1.172-1.752,2.327-1.758,1.758L526.7,376.67l-1.758,1.155L523.775,379l-1.752,1.155-1.155,1.16-1.752,1.177-2.332,1.161-1.758,1.166-2.327,1.172-2.343,1.16-1.752.58-2.332.592-2.332,1.171-1.155.575-1.183.581-1.741.575h-1.166l-2.338.6-2.338.575h-4.084l-1.735.6h-4.665l2.322.558,1.16.608,1.183.581,2.333.575,1.735.58h2.343l1.747.575,2.338.6,2.337.575h4.079l1.752-.575h2.332l-.592.575-1.161,1.172-1.172.586-1.16,1.16-1.172,1.752-1.155,1.16-2.332,1.747-1.757,1.155-2.338,1.758-2.913,1.763-1.177.575L491.1,411.64l-1.752,1.172-1.155.581-1.763.58-1.741,1.747-1.161.58-1.758.6.575.575h2.344l1.741-.575h2.918l1.178-.6h1.735l1.177-.58,1.166-.575,1.16-.58,1.769-.591,1.155-.58,1.166-.581,1.741-.586,1.183-.586,1.155-1.166,1.172-1.172,1.752-.563,1.741-1.172,1.172-1.188,1.178-1.155,1.746-1.166,1.166-.581,1.747-1.16h0v1.741l1.172,1.166,1.166,2.343,1.166,2.333,1.752,2.327,1.155.586,1.183.581,1.149.58h1.177v-1.161l-.586-1.172v-8.163l.586-1.16v-1.172l.586-1.741.586-1.758.58-1.747.586-1.155.575-2.344.586-1.177,1.166-1.73.592-1.763,1.752-1.74,1.155-1.747,1.178-1.753,1.747-1.752,1.735-1.16,2.354-2.332,1.746-1.758,2.913-1.155h0v5.245l.586,1.16.592,1.752v1.753l1.155,1.747,1.172,1.16,1.16,2.343,1.172,1.156,1.747,1.177L555.3,393l2.332.558h-.586l-.58-1.155-.586-1.177-.581-1.73v-1.171l-.591-1.172-.586-1.16v-2.913l-.575-1.763v-9.329l.575-1.735v-2.332l1.177-2.344.581-1.735.586-2.327,1.166-2.35.586-2.332,1.155-2.332,2.338-2.327,1.166-2.327,1.758-2.344,2.327-2.912,2.924-2.338-.591.6.591,1.741v4.09l.586,1.735.575,1.177.586,2.332.592,1.161,1.155,2.338,1.183,1.16,1.747,1.746,1.16,1.183,2.332,1.155h0V361.51l-.575-2.35v-9.9l.575-1.763v-1.735l.575-1.764v-2.327l.586-1.752v-2.333l1.166-1.746.575-1.741.591-1.757.6-1.741,1.155-1.752.586-2.333,1.166-1.171,1.166-2.338,1.177-1.16,1.747-1.741,1.741-1.16,1.172-1.172,2.326-.581Z" transform="translate(4292.72 -7758.337)"/><path class="a" d="M486.532,317.221h0v15.16l.591,1.747v1.741l.57,2.338v1.752l1.166,2.327v2.327l.6,1.763,1.149,2.327v2.332l1.166,2.327.586,2.332.581,2.93,1.177,2.327,1.741,2.31.586,2.929,1.741,2.338,1.177,2.918,1.753,2.338,1.166,1.741,1.758,2.327,1.752,2.913,1.741,2.338,2.332,2.332,2.327,2.9,2.93,2.332,1.752,1.763,2.924,2.327,2.327,2.332,2.907,2.338,2.913,1.741,3.515,2.321,3.493,1.758,3.516,2.338,3.5,1.166,4.068,1.752,4.1,1.752,4.084,1.752,4.654,1.161,4.107,1.166,4.654,1.171,5.268,1.735h5.245l5.245,1.166,5.262.586,6.412.592H600.3l5.853.563h6.986l6.445.6V421l-.614-1.752-.569-1.735-.592-1.171V414.01l-.569-1.752-.6-2.332v-1.758l-.58-1.752-.569-2.321-.575-1.758-.591-2.907v-1.752l-1.183-2.918-.592-2.327-1.149-2.919-.575-2.333-.6-2.918-1.16-2.332-1.172-2.913-.581-2.327-1.161-2.907-1.178-2.935-1.166-2.912-1.171-2.907-1.156-2.924-1.763-2.327-1.144-2.918-1.183-2.919-2.327-2.907-1.753-2.907-1.172-2.913-1.746-2.93-2.333-2.924-2.338-2.907-1.758-2.327-1.747-2.338-2.924-2.913-2.316-2.327-2.343-2.344L572.3,322.46l-2.913-2.338-2.912-2.9-2.332-1.753-2.929-1.752-3.5-1.741-2.913-1.763-2.913-1.752-3.5-1.16-3.5-1.753-4.084-1.16-3.5-1.161-3.5-.575-4.09-1.178-4.1-.58-4.073-.586H503.456l-4.676.586v1.177l.586,1.73.6,1.747.575,1.753,1.16,2.912.586,1.172,1.172,1.172.586,1.16,1.752,1.752.569.592,1.172,1.16,1.741,1.172,1.752,1.73h1.166l2.349,1.183,1.741,1.155,2.338.575h2.322l1.769.6h5.234l1.763.575,1.171-.575h7.589l1.724-.6h1.775l2.327-.575-.592.575-.586,1.752-1.149.586-.591,1.178-.581,1.166-1.172,1.16-1.752.581-2.332.585-1.741.586-2.338.586h-4.67l-1.177.575-1.735-.575h-5.257l.592,1.166,1.155,1.172,2.344,1.73,1.166,1.172,1.155,1.752,1.172.581,1.741,1.752,1.183,1.161,1.752,1.177,2.327,1.735,1.746,1.178,1.753,1.166,1.763,1.172,2.327.574,2.321,1.155,1.763,1.177,2.338.575,2.327.586,2.919,1.166h1.752l2.332.58h5.245l1.183-.58H565.3l1.172-.591,1.16-.575h1.752l1.172-.586H572.3l-.586.586-1.155,1.166-1.758,1.172-1.166,1.16-1.16,1.166-1.172,1.161-2.321.6-1.768,1.155-2.338.581-2.321.591H554.8l-1.172.581h-5.837l-1.752-.581h-1.155l.575,1.155,1.166.581,1.763,2.344,1.747,1.16,2.332,1.747,1.161,1.161,1.172,1.177,1.16,1.172,2.327,1.155,1.183.58,1.741.6,1.768,1.741,2.321.586,1.172.581,2.327,1.16,2.338.575,2.337.591,2.344.586,2.327.586h2.338l2.333.575h2.327l2.327.591,1.741-.591h2.929l-1.155,1.166h-1.774l-1.15,1.172h-1.752l-1.758,1.16h-2.332l-1.735.58-1.752.592h-4.1l-1.735.58-1.763-.58h-1.752l.575.58,1.178,1.166.575,1.156,1.189,1.177,1.161.6,1.757,1.166,1.161,1.155,2.316,1.752,1.763,1.166,2.332,1.741,1.16.586,1.172.58,1.746,1.172h1.741l1.183,1.16,1.746.581,1.172,1.166,2.333.6h-.58l-.592.558h-2.333l-1.155-.558h-2.333l-1.769-.6h-2.333l-2.332-1.166-2.338-.581-1.735-1.16h-.592l-1.735-1.172h-1.183l-1.161-1.166-1.763-.575-1.155-.586-1.172-1.172-1.752-1.172-1.16-.575-1.172-1.155-1.161-1.189v.608l-.6,1.155-.564,1.752-.6,1.747-1.74,2.327-1.769,1.172-1.161,1.741-2.913,1.166h0V400.01l.581-1.166-.581-1.752v-4.659l-.581-2.322-.591-1.172v-1.177l-1.161-1.747v-1.752L551.3,383.1l-.591-1.172-1.161-1.741-.591-1.763-1.735-1.735-1.183-1.166-1.155-1.741-1.763-1.183-1.149-1.155-1.775-1.758-2.321-1.161-1.741-1.166h-.591v4.084l-.586,1.155v1.758l-.574,1.752-1.172,1.741-.581,1.166-1.166,1.747-1.172,1.166-1.161,1.172-1.183,1.16-1.741,1.172v-1.172l.586-1.16.58-1.747v-2.338l.575-2.327v-9.33l-.575-2.332-.58-1.166v-2.332l-.586-1.752-1.172-1.757-.569-2.327-1.188-1.752-1.15-2.332-1.183-2.327-1.144-1.758-2.349-1.735-1.166-2.913-2.344-1.763-1.747-1.752h0v2.924l-.586,1.172v3.5l-.581,1.172-.574,1.155-.586,1.752L508.7,352.77l-1.166,1.171-1.172,1.172-1.161,1.161-1.747,1.747V346.956l-.586-1.166v-1.752l-.586-1.752v-1.747l-.586-1.752-.58-1.752-.581-1.753-.575-1.155-.6-2.338-.586-1.747-.591-1.166-1.155-1.741-1.172-1.763-1.161-1.166-1.177-1.746-1.161-1.155-1.166-1.183-1.16-1.16-2.343-.569-1.161-1.172Z" transform="translate(4436.165 -7755.451)"/><path class="a" d="M502.745,338.14l1.752-.6,2.343-.58,1.747-.586,2.344-.575,2.326-1.171,1.752-.575,1.752-1.178,1.741-1.747,1.768-2.327,1.149-1.177,1.166-1.735.585-2.335.581-2.327.58-1.752.6-2.338v-4.676l-.6-2.332-.58-1.727-.581-2.343-.585-2.316-1.166-1.763-1.149-1.16L518.5,299.07l-1.741-1.763-1.752-1.166L513.258,295l-2.326-.6-2.344-1.172-1.747-.577h-8.765l-2.327.577-2.332,1.172-1.752.6-2.326,1.138-1.758,1.166-1.161,1.763-1.172,1.752-1.177,1.16-1.736,1.763-1.166,2.316-.586,2.343L480,310.132v9.346l.586,1.752.586,2.327,1.166,2.335,1.736,1.735,1.177,1.177,1.172,2.327,1.161,1.747,1.758,1.178,2.326.575,1.752,1.171,2.332.575,2.327.586,1.752.58,2.918.6Z" transform="translate(4405.354 -7791.52)"/><path class="a" d="M504.742,345.647l.575.569.586,1.178,1.757,1.161,1.166,1.753,2.338,1.74,1.15.6L513.5,353.8l1.15,1.177,1.758,1.155,1.16,1.161,1.769,1.16,1.742,1.172,1.746.581,1.758,1.16,2.337,1.183,1.736,1.16,1.746,1.172,2.338.581,1.752,1.16,2.344,1.172,2.913,1.172h2.333L545,370.132l2.316,1.172,2.946.569,2.327.58,2.919.581h2.906l2.907.591h2.918l2.924.591H573l3.51-.591,2.923-.591h3.487l3.5-.581,3.488-1.149,3.51-.592,2.924-1.161,4.091-.58,3.481-1.752,3.51-1.752,4.084-1.753,3.51-1.763,4.073-2.321,4.084-2.332,4.09-2.316,4.08-2.338,3.51-2.924,4.062-3.5,4.1-2.912,4.084-3.485,4.676-4.084,4.084-4.085,4.073-4.074,4.659-4.673-1.155-.575-1.747-1.166L659.356,320l-2.332-1.172-1.758-1.16-1.155-1.166-1.752-.586-1.746-1.166-1.758-1.16-1.753-1.166-1.757-1.172-1.735-.58-2.349-1.761-2.344-1.155-2.31-.581-2.338-1.177-2.327-1.155-2.349-1.757-2.327-1.155-2.327-.6-2.924-1.752L619.091,299l-2.907-1.166-2.929-1.16-2.913-1.177-2.332-1.155h-2.918l-2.907-1.169-3.51-1.161h-2.912l-3.516-1.166-2.337-.591-4.068-.575-2.338-.6H560.167l-2.924,1.172-3.494.591-2.337,1.166-4.1.58-2.913.58-3.5,1.169-3.5,1.752-2.919,1.155-2.918,2.327-3.5,1.752-2.918,1.752-3.488,2.344-2.924,2.327-2.918,2.324-2.924,3.51-2.924,2.913-2.9,2.907-2.919,3.5-2.918,3.5,1.155.57,1.189.6,1.161,1.155,2.332.575,2.338,1.188h1.149l1.178.575h2.332l1.16.58,1.172-.58h1.747l1.741-.575h2.349l1.752-.6,1.753-.591,1.752-1.73,1.758-.6,2.316-1.727,1.747-1.177,2.338-1.741L537.406,320l1.167-1.172,1.172-1.16.58-1.166,1.178-1.161,1.161-1.188,1.155-1.73L545,311.247l1.166-1.749v1.749l.569,1.172V316.5l-.569,1.166L545.592,320,545,321.737l-1.183,2.332-1.741,2.335-2.333,1.747-1.172,1.155-1.741,1.188-1.178,1.155-1.166,1.172h9.33l1.183-.586h2.316l1.763-.586h4.084l2.344-.58,2.332-.575,1.735-.6,1.746-.591,2.918-1.155,1.188-1.177,2.327-.57,2.326-1.158,1.741-1.177,2.338-1.166,1.764-1.741,1.155-1.758,2.349-1.74,1.166-1.752,1.735-2.327,1.172-2.338,1.161-1.749h0v5.248l-.575,1.752v1.746L583.5,320l-.586,1.741-1.172,2.332L580.6,326.4l-1.763,1.172-1.752,2.919-1.155.575-1.172,1.166-.592.586L573,333.982h6.434l1.746-.585h1.155l1.758-.575h4.659l1.763-1.172h1.735l1.769-1.155h2.326l1.161-1.188,2.343-.575,1.757-1.155,2.31-1.172,1.178-1.158,2.333-1.177,1.769-1.166,2.315-1.741,1.747-1.758,1.178-1.74,1.752-1.752,1.741-1.763-.569.6-.6,1.752-.569,1.166-.6,1.16L615.018,320l-.586,2.333-1.178,1.16-.575,1.758-1.172,1.727-1.166,1.758-1.149,1.166-1.183,1.752-1.166,1.172-1.177.575h4.675l1.166-.575h4.079l2.338-.586,1.166-.586h2.332l1.752-.58,1.172-.575h1.172l1.746-.6,1.166-.591,1.161-.575,1.752-.58,1.752-.575,1.757-.6-.586.6-1.171,1.73-1.752,1.188-1.161,1.155-1.752,1.172-1.166,1.16-2.327.575-2.326,1.178-2.349,1.161-2.338,1.177-1.741.575-1.752.581h-1.178l-1.747.591h-1.166l-1.149.581h-1.769l-1.758.58h0l1.177,1.158.581,1.166.585,2.343.586,1.747.6,2.327-.6,2.327-.586,2.935-.585-1.177-1.758-1.758-1.752-1.149-1.155-1.178L601,348.554l-2.327-1.752-1.171-.586-1.161-.569-1.166-.586-1.16-.591-1.769-.586H590.51l-1.763-.58h-1.16l-1.747-.569h-8.18l-1.735.569-2.93.58-1.741.586h0l1.16,1.177.581.569,1.166,1.178v1.161l1.764,1.166V350.9l1.155,1.746v1.741l.581,1.752v5.234l-.581,2.343v-.591l-.574-.569-.58-1.183-1.172-1.16-1.161-2.327-1.769-1.746-1.149-1.752-2.338-2.338-1.172-1.149-1.735-.591-1.188-1.166-1.166-.586-1.752-1.752-2.332-.586-1.149-.569-1.758-1.177H553.75l-2.337-1.166H549.08l-2.343-.569h-1.144l-1.189-.6h-7l-1.752.6h.592l1.16,1.149,1.758,1.763,1.741,1.747.6,1.161.575,1.753,1.149,1.166.592,1.746v1.763l.586,1.73-.586,1.747v1.753h0l-1.155-.581-1.161-1.172-1.178-1.16-1.752-1.735-2.919-1.758-1.166-1.161-.591-.6-1.735-1.149-1.183-.591-1.724-.586-1.183-1.166-1.747-1.161-1.746-.591-1.758-.586-1.155-.569-1.774-.586-1.741-.591H507.66l-1.757.591-1.161.586Z" transform="translate(4505.481 -7808.362)"/><path class="a" d="M597.037,320.974l-.6-.575v-1.166l-1.741-1.166-1.166-1.172-1.155-1.16-2.343-1.752-1.178-1.166-1.155-1.16-1.177-1.166-1.155-1.172-1.753-1.172-1.763-1.169-1.161-1.155-2.321-.58-1.758-1.746-1.763-.586-1.735-1.758L570.772,300l-2.332-1.161-1.752-.6-2.907-1.161-1.763-1.166-2.918-1.161-2.332-.58-2.333-.6-2.338-1.155-2.919-.591-2.918-.578-2.918-.58-2.316-.58H537.5l-2.907-.592h-12.84l-3.5.592h-2.913l-4.084,1.16-3.51.578-2.918.591-4.079,1.155-3.5,1.177-4.1,1.752-4.074,1.149-3.5,2.349-4.085,1.155-3.493,2.913-4.1,1.757-4.084,2.916-4.079,2.918-4.085,2.913-4.67,3.5-3.51,2.907-4.659,3.5-4.671,4.666-4.073,4.09-4.1,4.659.585.58,1.758.58.574.575,1.752.583,1.155,1.166L443,342.541h1.15l1.177,1.177,1.741,1.155,1.752,1.752,1.752,1.166,1.155.586,2.93,1.166,1.735,1.746,1.758,1.166,2.338,1.178,1.763,1.149,2.321,1.172,2.918,1.155,2.333,1.172,2.321,1.161,2.935,1.183,2.332,1.16,2.333,1.172,2.924,1.16,2.913,1.753,2.343.58,2.907,1.172,3.51.581,2.912,1.172,2.327,1.149,3.5.58,2.919,1.183,2.912.564,3.5.592h2.924l2.913.575,3.5.6h13.42l2.912-.6h3.51l2.9-.575h4.1l2.333-1.155,4.078-1.183,2.919-1.16,3.493-1.161,2.935-1.74,3.482-1.172,2.929-1.753,3.5-1.752,3.5-2.344,2.913-1.74,2.924-2.913,3.488-2.316,2.93-3.509,3.5-2.919,2.907-2.907,3.509-3.509-.575-.583-.6-.575-1.735-.58-1.172-1.172-1.171-.581-1.166-.575h-1.155l-1.183-.6-1.161-.58h-4.665l-1.753-.575h-1.763l-1.735.575h-1.747l-1.758.58-2.338.6-1.758.575-1.741,1.752-2.332.58-1.752,1.755-2.327,1.735-1.763,1.746-2.338,2.338-1.741,2.344-1.166,1.746-1.172,1.161-1.166,1.758-1.166,1.735v-1.735l-.575-1.178-.591-1.166v-1.746l1.166-1.166v-1.753l.586-1.752.58-2.332,1.753-1.735,1.752-2.335,1.741-1.752,1.166-1.172,1.172-1.155,2.333-.586,1.758-1.177-1.172-.575h-14.58l-1.758.575h-1.752l-2.332,1.177h-2.338l-1.73.586-2.935.575-1.741.58-1.752.6-2.332,1.155L530.5,338.47l-2.332,1.738-1.747,1.166-2.332,1.166-1.741,1.177-1.758,1.747-1.752,2.327-1.166,1.752-.575,1.171-.586,1.161v1.177l-1.166,1.73v-7.572l1.166-1.747v-1.747l1.161-2.343.586-1.75,1.172-2.327,1.741-1.753,1.758-1.74,1.16-1.752,1.177-.586,1.155-.575,1.747-1.172H516.513l-1.758.586-2.333.586H509.5l-2.327.575-1.752.586-1.746.575-1.763,1.177-2.332.586-1.752.575-1.752,1.177-2.333,1.155-1.735,1.172-1.769,1.738-1.752,1.166-1.736,1.166L485,344.873l-1.758,1.752-1.747,2.344v-1.178l1.172-1.166v-1.752l1.155-1.155.6-1.177,1.161-1.735.569-1.755,1.188-1.752.586-1.753,1.16-1.155,1.747-1.763,1.178-1.161,1.149-1.16,1.183-.586H482.079l-2.924.586-1.741.586h-1.752l-1.166.575-1.741.586-1.171.575-1.758.6-1.155.575-1.758.586-1.752.575v-1.161l2.332-1.752.592-1.16,1.741-.586,1.166-.586,2.338-1.155,1.752-1.189,2.332-1.73h1.172l1.16-.6,1.752-.57h1.172l1.752-1.157h1.161l1.171-.592h1.172l1.747-.586h4.67l-.6-1.166-.586-1.741-.575-2.338-.574-1.747v-4.659l1.149-2.344v.592l1.752,1.752,1.166,1.166,1.752,1.16,1.752,1.753,2.332,1.166.591,1.16h1.172l1.746,1.172H506.6l1.741.592,1.763.575,1.161.575,2.316.591h1.768l1.166.575h8.755l2.315-1.166H530.5l-1.15-.575-1.183-1.166-1.15-2.332-1.752-1.752v-1.763l-1.177-1.166-.6-1.735v-5.253l.6-1.753.591-2.315.586,1.155v1.16l1.155,1.753,1.16,1.177,1.769,2.327,1.15,1.749,2.332,2.338,1.189,1.16,1.155,1.166,1.752.586,1.161,1.166,1.178,1.16,1.757,1.172,1.73.592,2.338.575,1.747.575,2.337,1.166h1.758l2.912,1.166h3.5l1.747.586h4.681l1.735.592-.586-.592-1.15-1.166-1.763-2.327-1.757-1.758-.569-1.74-.591-1.166-1.166-1.753v-1.16l-.581-1.741V306.4l1.166-1.747.58.591,1.161,1.155,1.166,1.172,1.757,1.749,2.332,1.735,1.172,1.166,1.155.6,1.178,1.166,1.752,1.166,1.161.586,1.177,1.16h1.735l1.763,1.172,1.166.592,1.752.575,1.741.575,1.763,1.166h1.735l1.752.586h7.009l1.758-.586Z" transform="translate(4197.885 -7806.433)"/><path class="a" d="M527.489,317.011l1.172.575,1.15,1.172,1.768,1.172,1.166,1.161,2.327,2.338,1.177,1.161.575.581,1.166,1.763,1.746,1.161,1.177,1.758,1.161,1.16,1.172,1.741,1.747,1.752,1.183,1.752,1.156,1.752,1.752,1.735,1.172,1.763,1.16,2.316,1.161,1.763,1.172,2.327,1.166,2.924,1.166,2.333,1.16,2.321,1.166,2.327,1.172,2.919.575,2.924,1.183,2.332.58,2.924.581,2.913.591,2.907.575,2.912v2.919l.591,3.5v14l-.591,3.487v3.494l-1.166,3.5v4.1l-1.161,3.5-1.183,4.079-1.747,4.068-1.166,4.1-2.327,4.079-1.166,4.079-2.333,4.665-1.747,4.67-2.918,4.073-2.93,4.665-2.907,4.068-2.924,4.676-4.084,4.67-2.9,4.653-4.1,5.257-4.09,5.251-.575-1.752-1.166-1.161-1.752-2.337-1.747-2.333-1.155-1.177-1.194-1.747-1.166-1.166-1.16-1.746-1.161-1.741-1.171-1.752-1.752-1.752-1.16-1.747-1.752-2.327-1.166-1.769-1.758-2.315-1.16-2.349-1.172-2.327-1.752-2.327-1.161-2.338-1.752-2.316-1.746-2.924-1.166-2.332-1.161-2.913-1.768-2.343-1.15-2.9-1.178-2.913-1.155-2.93-1.194-2.912-1.15-3.5-1.177-2.907-1.15-2.924-.608-2.918-1.15-2.9-.581-4.09-.58-2.919-.6-2.907-1.144-3.5v-9.91l-.6-3.5.6-2.919v-3.5l.575-3.488.569-3.493.6-3.5.58-3.5,1.73-2.913.608-4.073,1.735-2.93,1.166-3.493,1.769-3.5,2.333-2.907,1.741-3.5,2.338-4.079,2.327-2.9,2.913-3.515,2.338-3.493,3.5-2.912,3.51-3.5.581.58,1.166,1.172,1.166,1.747,1.171,1.746.586,2.332.575,1.161.575,1.763v1.161l.586,1.758v6.981l-.586,2.338v1.746l-1.149,2.327-.586,2.344-1.758,1.741-1.166,2.338-1.752,2.327-1.16,2.349-2.924,1.741-1.741,2.9-1.769,1.172-1.161,1.166-1.741,1.166-1.172,1.172h.586l1.752.591.575-.591h4.67l1.166-.575,1.758-.6,2.332-1.752,1.746-1.166,2.344-2.327,1.735-1.752.6-1.747,1.763-1.166.575-1.741,1.149-1.171h0v3.5l.592,1.171v16.9l-.592,1.741-.569,2.327-.58,2.337-.575,2.338-.619,1.752-1.144,2.327-.6,2.338-.586,2.333-1.736,1.735-1.171,2.349-1.752,1.741-1.16,1.735-1.752,1.769-2.338,1.741-1.747,1.161-2.349,1.752h2.349l1.16-.575h1.758l1.752-.591h1.747l2.332-1.166,1.758-.58,1.735-1.741,2.36-1.166,1.724-1.763,2.338-1.741.591-1.747,1.166-1.177.575-1.155,1.172-1.172V405.62l-.581,1.774-.591,1.15v2.343l-.575,1.752-.58,2.327-.586,1.746-1.177,2.332-.575,2.333-1.178,1.166-.569,2.337-1.155,2.344-1.763,1.741-1.183,2.333-1.149,1.741-2.344,1.752-1.746,2.327.58-.575,1.752-1.166,1.171-.586,1.161-.592,1.757-1.16,1.763-.575,1.155-1.166,1.161-1.161,1.746-1.172,1.758-1.166,1.166-1.178,1.741-1.741.586-1.171,1.171-1.166h0v5.842l.581,2.327-.581,1.752-.574,2.327v5.245l-1.184,1.172v4.67l-1.16,1.15v1.752l-.581,1.763v1.747l.581-.6,1.16-1.741,1.184-1.171,1.155-1.752.6-1.15,1.15-1.769.575-2.322L531,439.457v-1.746l.575-1.167.586-1.752.58-.592v-3.488l.591-1.746v-2.919l.57-1.763v-2.907h0l1.768.591,1.149.575,2.332.586h1.757l2.907.58,1.758-.58,2.919-1.16h-.586l-.58-.591-1.156-.581-1.183-.58-1.172-1.172-1.747-1.729-1.161-1.774-1.757-1.741-.581-1.161-.585-1.166-1.166-1.752v-1.177l-1.149-1.15-.6-1.774-.57-1.74-.6-1.736v-1.758l-.57-1.746v-4.079l-.591-2.338v-1.752l.591-2.327.57-2.327h0l1.768,1.16.575.592.575.574,1.752.592,1.161.58,1.752.569,1.758.586h6.422l2.338-.586,1.741-.569h0l-1.172-.58-1.161-.592-1.747-.574-1.758-1.166-1.736-1.172-2.355-1.741-1.747-1.752-1.741-1.172-1.177-1.166-1.166-1.752-1.166-1.166-1.149-1.171-1.172-1.741-1.166-2.327-.591-1.166-1.166-2.337L531,365.991l-.591-2.332-.6-2.924-.575-1.166v-1.15l-.575-1.178v-1.16l-.575-1.741v-3.5l1.15,1.155h1.177l1.166,1.178h1.166l1.161,1.171,1.166.575,1.752,1.166h1.166l1.746.586h3.51l1.747-.586h2.338l-.58-.591-.575-1.15-1.774-1.171-1.155-1.178-2.332-1.155-1.757-2.332-2.332-2.355-1.149-2.327-1.768-1.752-.57-1.155-1.171-1.746-.586-1.161-1.166-1.752-1.177-1.752v-1.752l-1.15-1.166-.6-1.735v-2.36l-.581-1.155V321.09l.581-2.333v-1.747Z" transform="translate(4389.952 -7679.448)"/><path class="a" d="M507.969,410.891l-.586-.574h-.58l-1.172-1.172-1.16-1.155-1.758-1.758-1.74-2.332-1.166-1.155-.592-1.172-1.177-1.166-1.161-1.178-1.741-1.73-1.172-1.186-1.16-2.322-.581-1.735-1.747-1.177-.591-2.327-1.177-1.746-1.149-2.338-1.178-2.327-1.155-1.758-1.194-2.324-.575-2.918-1.166-2.327-.586-2.349-.575-2.327-1.183-2.332-.575-2.9-.575-2.919-.581-2.918-.58-2.332v-3.488l-.6-2.93v-9.31l.6-3.5V332.2l.58-2.9.581-4.093.575-2.91.575-3.5,1.758-3.5.586-4.068,1.741-4.09,1.194-3.5,2.333-4.079,1.741-3.49,2.338-4.082,2.327-4.084,2.913-3.5,2.338-4.663,2.918-4.073,3.5-4.084,4.084-4.079,2.913-4.668,4.676-4.081,4.079-4.065,4.67-4.673v.58l1.747,1.753v1.15l.575,1.191,1.194,1.144.575,1.183,1.166,1.155.591,1.741.57,1.178,1.768,1.746,1.15,1.733,1.166,1.765.586,2.319,1.758,1.777,1.155,2.319,1.172,1.741,1.16,2.341,1.172,2.33,1.183,2.321,1.155,2.335,1.166,2.332,1.171,2.921,1.155,2.332,1.183,2.916,1.741,2.9,1.166,2.338.575,2.915,1.177,2.922,1.155,2.912,1.178,2.924.58,2.9.575,3.5,1.183,2.93.58,2.921.581,3.485v2.921l.591,2.907.575,3.5v13.406l-.575,2.924-.591,3.482v2.929l-.581,3.493-1.16,2.916-.6,3.482-1.747,3.515-1.166,2.913-1.161,3.5-1.758,2.9-1.746,3.509-1.752,3.5-2.327,3.5-1.747,2.907-2.93,2.9-2.332,3.5-3.5,2.913-2.316,3.5-3.51,2.327L527.8,413.8l-1.15-.575-.6-.583-.58-1.166-.574-1.161-1.183-1.172v-1.155l-.575-1.758-.586-1.161v-2.327l-.581-1.769v-6.983l.581-1.735v-1.769l1.16-1.735.586-1.746,1.752-2.338.6-1.735,1.724-2.35,1.768-1.738,1.757-2.327,2.338-2.338,2.316-1.752,1.166-1.178,1.757-.586,1.747-1.752,1.741-.575-.581-.581h-2.907l-1.177-.575H537.14l-1.752.575h-1.15l-1.768,1.155-2.327.6-1.768,1.15-2.322,1.763-2.338,2.327-1.16.586-.581,1.758-.591,1.746-1.155,1.738-.586-1.157V365.431l.586-2.324.58-1.747.575-2.338V356.69l.591-1.752.581-2.327,1.16-2.338.586-1.752.6-2.324,1.155-2.327,1.747-1.753,1.177-2.327,1.166-1.757,1.757-1.752,1.736-1.163,1.752-1.749,2.333-1.755.58-.575,1.177-.586,1.747-.575h1.16l-.575-.58h-6.422l-1.752,1.155h-2.327l-2.332,1.161-1.752.589-2.327,1.752-2.344,1.163-1.172,2.332-1.741.583-.591,1.757-.586,1.172-1.16,1.155h0V330.453l.586-1.155v-2.341l.575-1.752.586-1.153.591-2.338v-1.747l1.166-1.758.575-2.332.591-1.752.581-1.749,1.16-1.73L524.9,308.3l1.155-1.743,1.747-1.747,1.177-1.76,1.752-2.327,1.741-1.172,1.768-2.338,2.316-1.152h-1.166l-1.15,1.152H532.47l-1.161,1.175h-1.166l-1.768,1.163-1.724,1.172-1.752.575-1.183,1.168-1.16,1.164-1.747,1.18-1.166,1.16-1.177,1.163-1.16,1.755v-10.5l.586-2.327.575-2.33.586-2.335.591-1.743v-1.172l.586-1.758.58-1.155.575-1.171.591-1.75.581-1.741.586-1.172h-1.166l-1.746,1.741-1.178.586-.586,1.749-1.16,1.758-1.161,1.738-1.155,2.347-1.194,1.743-.569,1.164-.6,1.172-.586,1.752v1.152l-.575,1.752-.575,1.163v2.915l-.586,1.164v5.259l-.592-.589-1.166-.586-1.746-.58-1.747-.577-2.344-.586h-2.326l-2.349.586-1.161,1.158h0l2.338,1.757.592,1.172,1.166,1.73,1.74,1.749,1.172,1.752.586,1.169.586,1.163.575,1.172.592,1.75.581,1.163v1.757l.58,1.153.586,2.327.58,1.766v10.493l-.58,2.327v2.327l-1.166-.574L505.63,342.7l-1.747-1.732-2.338-1.172-1.741-.58-1.183-1.177-1.746-.583h-5.24l-1.752.583-1.752.594,1.166.583,1.177.58,1.161.569,1.746.6,1.753,1.732,2.326,1.749,1.752,2.332,1.172.583,1.16,1.747.586,1.166,1.172,1.74,1.166,1.178.586,1.747,1.166,1.752.581,2.332.58,1.747,1.166,2.338v2.324l1.166,2.327v6.423l.592,1.161v4.084l-.592-.581-1.166-1.171-1.746-2.333-1.747-1.161-1.752-.58-1.172-.586-1.747-1.172h-1.172l-1.752-.592h-2.326l-1.172.592-1.741.586.581.586,1.16,1.166,1.172,1.161,1.741,1.758,1.746,2.327.592,1.157,1.172,1.161.586,1.746,1.16,1.177,1.172,1.166.58,1.172.586,1.746,1.16,1.735.592,1.172.581,1.752.58,1.752,1.166,2.335v2.907l.586,1.741v3.5l-.586,1.758v1.735l-.58,1.746Z" transform="translate(4391.388 -7992.529)"/><path class="a" d="M520.877,353.91v.6h1.752l1.769.569,1.736.581,2.326.591h1.177l1.741.58,1.172.591h2.929l2.338.57h1.166l2.315.586h16.93l2.327-.586,2.338-.57h5.256l1.746-1.171,2.913-.591,2.333-1.15,2.338-.6,2.338-1.75,2.912-.586,2.344-1.155,2.912-1.171,2.333-1.741,2.332-1.753,2.9-1.161,2.355-1.758,2.333-1.747,2.332-2.332,2.924-2.335,2.332-2.332,2.338-2.327,2.327-2.907,2.327-3.5,2.344-2.327,1.746-4.082,2.907-2.907,2.332-3.51,1.775-4.079,2.326-3.507,1.758-4.057,1.741-4.676,2.327-4.09,1.757-5.231,1.735-5.245,1.752-5.256,1.769-4.65-1.189-.592h-6.991l-1.161-.58h-1.741l-1.758-.575H616.578l-2.344-.591H601.986l-2.333.591h-7.583l-2.924.575-2.327.58h-2.327l-2.924.592-2.924,1.163h-2.907l-2.929.575-2.913.586-2.332,1.15-2.918.6-2.907.575-2.338,1.155-2.343,1.752-2.9,1.177-2.935,1.172-2.919,1.166-1.752,1.161-2.907,1.758-2.344,2.327-2.315,1.158-2.349,2.907-2.918,1.178-2.338,2.338-1.741,2.332-1.746,2.321-2.333,2.332-1.763,2.91-2.322,2.918-1.166,2.924-1.763,2.907-1.746,3.493-1.161,2.907-1.758,3.5-1.161,3.5-.575,4.079-1.177,4.073-1.15,4.087h2.327l1.735.581,2.338-.581,2.327-.586h1.178l1.155-.581,1.166-.592H523.8l.6-1.152,1.736-.592,1.177-.586,1.149-1.15,1.177-1.752,1.172-1.172,1.16-1.155,1.747-1.752.591-2.349,1.172-1.741,1.155-2.338.581-2.324v-1.161l.6-1.752v-1.155l.569-1.758v-1.752l.6-1.155V309.6l.58-1.747v.592l1.166.586.569,1.166.586.575.586,1.172.586,1.752v1.16l.586,1.758v4.063l-.586,1.174v1.172l-.586,1.155v1.763l-.586,1.16-.586,1.752-.569,1.752-.58,1.155h0l1.149-.575,1.172-.58,2.332-1.189,1.172-1.155,1.166-.581,1.16-1.177,1.763-.563,1.735-1.178,1.172-.586,1.757-1.155,1.166-1.172,1.753-1.749,1.752-1.161,1.155-1.172,1.183-1.155,1.155-2.337,1.752-1.752,1.166-1.155,1.166-1.769.586-2.316,1.183-1.758.574-1.738.575-2.332v-2.344l.586-1.735v-2.918l.58-1.763v.6l.592,1.166,1.155.563v1.763l.591,1.178.586,1.741v1.177l.586,2.907v3.5l-.586,2.316v2.924l-1.178,1.172v1.16l-1.155,1.178-.592,1.155,2.924-1.155,1.155-1.178,1.769-1.16,2.332-1.172,2.327-1.155,2.924-2.338,1.155-1.178,1.171-1.16.592-1.166,1.735-1.163,1.172-1.747,1.177-1.161,1.155-1.752,1.172-1.166.586-1.752,1.144-1.763,1.2-1.73.581-2.327,1.138-1.758v-2.324l1.183-1.741.586-2.338v5.831l.575,1.733-.575,1.746v5.262l-.586,1.735v1.769l-1.183,1.155v1.171l1.183-.591,1.161-.58,1.172-1.155h1.177l1.16-1.177,1.747-1.166,1.172-1.161,1.746-1.746,2.344-1.172,1.161-1.763,2.327-2.327,2.344-1.733,1.746-1.752v.585l-.58,1.738-.591,1.161-.575,1.746-.586,1.178-1.161,1.73-1.183,1.763-1.741,1.752-1.161,1.746-1.763,1.752-2.327,1.752-1.746,2.335-2.332,1.16-2.349,1.747h0l1.172,1.166,1.177.575,1.736,1.752,1.172,1.172,1.172,1.747v2.327l1.166,1.746-1.166-.574-1.746-.58-1.758-.591h-1.752l-2.333-.581h-1.746l-1.155-.575h-2.929l-1.172.575H590.9l-1.161.581h-1.752l-1.166,1.172h-1.171l-1.746.574-2.333.586-1.178,1.166-1.746.583-1.166,1.741-2.338,1.172-1.155,1.741h1.752l2.326,1.177,2.327,1.736,1.775,1.189,2.327,2.327.581,1.752.575,1.15v1.749l1.171,1.752h-1.171v-.581l-1.155-.592-1.172-1.152-1.752-1.178-1.752-.575-2.338-.575-2.338-1.166-1.155-.586h-1.752l-1.752-.585h-7.014l-1.155.585h-4.085L555.9,334.09l-2.326.6-2.349.575-1.758,1.161-2.321,1.164-2.338,1.752h1.747l1.752.586,2.333,1.166,2.338,1.161,2.344,2.343.58,1.161,1.161,1.753v1.16l1.171,1.752h-.58l-.591-.574h-1.741l-1.746-.6-1.177-.58h-1.172l-1.155-.575h-.6l-1.736-.585h-5.256l-1.741-.586h-4.67l-1.753.586h-2.93l-1.149.585-1.769.575-1.741.58-1.161.6-1.763,1.149-1.166.58-1.155.586-.6,1.75Z" transform="translate(4545.927 -7901.157)"/><path class="a" d="M500.087,365.726H499.5l-.581-1.155V363.4l-.6-1.155-.569-1.16v-4.09l-.58-1.163-.575-1.752v-2.327l-.6-2.327v-1.758l-.575-1.752V331.928l.575-2.327.6-2.346v-2.327l.575-2.338.58-2.31.569-2.344.6-2.33.581-2.921.591-2.327,1.149-2.335,1.178-2.327,1.16-2.919,1.166-2.327,1.763-2.335,1.16-2.913,1.752-1.758,1.752-2.9,1.747-2.338,2.913-2.327,1.758-2.332,2.327-2.332,2.918-2.341,1.758-2.907,3.487-2.335,2.941-1.752,2.918-2.335,3.477-2.321,3.521-1.758,3.493-2.335,4.085-1.75,4.079-2.327,4.1-1.741,4.643-1.75,4.676-1.76,4.653-1.163,5.262-1.741,5.262-1.752,5.24-1.175V253.8l.586,1.76v4.665l.591,1.752v16.893l-.591,2.341v2.332l-.586,2.916v7.572l-.575,2.327-.574,2.929V302.2l-.6,2.924-.58,2.9-.581,2.335-1.166,2.907-.591,2.927-.575,2.332-1.16,2.9-1.177,2.329-1.15,2.921-1.183,2.921-.592,2.91-1.752,2.327-1.144,2.915-1.774,1.758-1.741,2.907-1.753,2.332-1.752,2.332-1.741,2.341-1.758,2.327-2.338,2.327-2.338,1.752-2.327,2.324-2.327,2.332-2.924,1.758L547.93,364,545,365.726l-2.918,1.769-3.482,1.161-2.93,1.747-3.493,1.166-3.5,1.746-3.5.589-3.515,1.16-4.073,1.15-4.09,1.177-.581-1.177V370.4l.581-2.332.58-2.344,1.752-2.327v-1.155l1.161-1.758.6-1.166,1.741-1.166,1.171-1.744,1.161-.58,1.758-1.752,1.758-.574,1.741-1.175,2.338-.577.575-1.155h2.924l1.183-.6,1.161-.569h1.166l1.735-.581h3.51l1.16-.583h4.1l-.591-.594L545,347.083l-1.161-.575-.581-.594-1.177-.566-.575-.6-2.332-.58h-1.763l-1.741-.583-1.735.583h-4.106l-1.155.58-1.758.6-1.166.566-1.16.594-1.758,1.158v-.583l.586-1.169.575-1.743,1.758-2.335v-1.164l1.166-1.16.586-1.758,1.172-1.163.581-1.158,1.161-1.747,1.763-1.175,1.16-1.163,1.172-1.747,1.752-1.174,1.15-1.747,1.188-1.169,1.735-1.752,1.747-.575,1.758-1.175,1.747-1.149,2.343-1.183,1.747-.569,1.752-.583h2.333l1.747-.589h5.245l2.337.589-1.166-.589-1.171-1.166-1.156-1.163h-1.183l-1.155-1.16h-1.752l-1.155-1.18h-8.766l-2.327,1.18-2.327.578L538.6,316.77v-1.163l.575-1.746,1.161-1.175,1.172-2.327,1.16-1.76,1.758-2.327,2.344-2.324,1.161-1.169,1.172-1.163,1.155-1.752,1.172-.575,1.753-1.758,1.171-1.172,1.736-1.155,1.746-.588,1.763-1.169,1.735-.583,1.758-1.166,1.752-.586,2.338-1.152,2.333-.589,1.741-.58h.586L570.1,288.2h-4.09l-1.741-.577h-3.515l-1.156.577h-2.338l-1.752.586-1.155.58-1.171.589v-.589l1.171-1.166v-1.169l1.155-.574.581-1.753,1.171-1.163.575-1.166,1.763-1.755,1.156-1.753,2.337-1.738,1.178-1.752,2.333-1.753.58-1.163,1.161-.589,1.758-1.158,1.155-1.178h-2.913l-1.741,1.178h-.591l-1.741,1.158-2.344,1.178-1.752.574-1.758,1.753-1.724,1.158-2.338,1.744-1.763,1.777-1.736,2.319-1.752,1.741-1.172,2.915-.6-.574-.559-1.164-1.183-1.177-1.161-1.158-1.758-1.75-1.16-.589-2.332-1.153h-1.763l1.188,2.907V285.3l.575,1.738V291.7l-.575,1.749v4.085l-1.188,1.758v1.163l-1.15,1.163v1.752L535.1,305.12l-.586,1.73-1.172,1.175-1.16,1.746-1.16,1.744-1.189,1.752-.575-.58-.581-1.752-.6-1.747-1.16-2.338L525.75,305.7l-.575-1.161-1.183-1.169-1.161-.589-1.171-1.163-1.747-.583-1.741-.58h-1.183v.58l.6.583,1.172,1.752.569,1.169,1.171,2.313v1.175l.6,1.163.564,1.172.6,1.743v4.091l.574,1.743-.574,1.172v5.82l-.6,1.752-.564,1.747-.6,2.338-.585,2.341-.586,1.733-1.155,2.915-1.183,1.758-1.161,2.907v-2.332l-1.752-2.332-.58-1.732-.581-1.183-1.172-1.153-.575-1.758-.586-.581-1.166-1.163-1.752-1.169-1.16-.589-1.166-.583v2.341l.569,2.327.6,1.175v4.068l.569,1.758v1.16l.591,1.747-.591,1.752v4.673l-.569,1.15v2.915l-.6,1.758-.569,1.743-.6,1.169-.586,1.741-.58,1.763-.575,1.16-1.177,1.155-1.144,1.172-.592,1.155Z" transform="translate(4478.046 -8002.162)"/><path class="a" d="M519.371,312.708h0l.575-.586,1.16-1.166h2.338l.581-.586,1.171-.586,1.161-.581H528.1l1.166-.574h1.752l1.188-.575,2.327-.6h3.5l1.741-.575,1.758-.591,2.326-.575h21.594l2.929.575,2.907,1.166h2.332l2.924.6,2.333.575,2.919,1.155,2.907.586,2.913,1.166,2.338,1.171,3.494,1.753,2.923,1.155,2.924,1.763,2.338,1.735,2.924,2.344,2.907,1.172,2.924,2.907,2.907,2.327,2.338,2.332,2.924,2.93,2.9,2.327,2.93,2.913,2.913,3.5,2.337,3.487,2.332,3.51,2.907,4.068,2.355,4.676,2.327,3.5,2.315,4.67,2.344,4.654,2.327,5.24,2.35,4.681,2.326,5.234,1.769,5.831,2.907,6.412h-1.177l-2.327.586h-4.079l-1.189.591h-1.741l-1.741.57h-1.769l-1.74.591h-4.66l-1.746.575-2.355.6H598.724l-2.93-.6-2.918-.575h-5.831l-3.51-1.161-2.907-.591-3.5-.586-2.332-.581-3.5-1.161-2.907-1.178-2.929-.586-2.912-.581-3.516-1.735-2.337-1.171-2.913-1.752-2.907-1.172-2.913-2.327-2.913-1.16-2.338-2.338-2.929-1.735-2.913-2.36-2.327-2.321-2.913-2.327-1.768-2.327-2.907-2.929-2.327-2.918-1.758-2.332-2.333-2.9-1.751-3.5-1.736-4.079-1.775-3.493-1.752-3.51-1.735-4.078-1.183-4.085-1.155-4.062-1.161-4.09h.575l.586-.592h3.5l1.752-.58,2.344.58h1.736l1.166.592,1.752.58,1.747.581,1.178.58,1.149.586,1.178,1.16,1.752.6,1.735,1.155,1.189,1.753,1.736,1.73,1.177,1.769,1.149,2.332,1.177,2.327.591.586.581,1.172.569,1.735v1.178l.591,1.752.581,1.155v1.752l1.166,1.747v1.752l.591,1.747v1.752l1.172,2.322v-.575l1.155-1.156v-1.171l.581-1.172.6-1.16.569-1.172v-1.741l.6-2.338v-2.327l-.6-1.741-.569-1.183v-1.752l-.6-1.16-.581-1.752v-1.747l-1.155-1.16-1.172-1.166-.591-1.758h1.763l1.735,1.155,2.349,1.178,1.166.591,1.155.575,1.758.586,1.752,1.172,1.747,1.166,1.753,1.161,1.74,1.16,1.759,1.752,1.762,1.183,1.741,1.155,1.161,1.753,1.768,1.16,1.161,1.166,1.752,2.338L570.7,357.6l1.178,2.332,1.166,1.171,1.166,2.907.586,1.763,1.183,2.31v2.344l.574,2.327v1.172l.575,1.741v1.763l1.166-1.763v-1.161l.591-1.752,1.155-1.166v-1.741l.591-2.338.586-1.735-.586-2.338v-2.333l-.591-1.171v-1.172l-.575-1.747-.581-1.16-.591-1.166V353.52l-1.166-1.752-.575-.575h.575l1.758.575,2.333.586.586.575,1.166.592,1.172.585,1.155.586,1.178,1.166,1.735.575,1.189,1.172,1.735,1.16,1.747,1.172,1.171,1.171,1.166,1.73,1.161,1.177,1.752,1.155,1.172,1.189,1.161,1.73,1.177,2.344,1.144,1.16,1.78,2.338,1.138,1.741,1.182,2.321.586,1.758.575,2.338.608,1.166.564,1.172v1.16l.586,1.747v-10.5l-.586-1.747v-3.5l-.564-2.332-.608-1.747-.575-1.155-.586-1.189h0l1.769.608.564.581,1.758.575,1.155.58,1.757,1.172,1.753.575,1.758,1.758,2.327,1.16,1.741,1.752,2.344,1.741,1.752,2.321,1.16,1.188,1.166,1.172,1.161,1.16,1.178,1.741v-4.074l-1.178-1.188-.569-1.155-1.171-1.747-1.166-2.333-1.172-1.741-1.735-1.758-2.338-1.747-1.172-2.343-2.327-1.155-2.924-2.333-1.172-.575-1.172-1.171-1.155-.592-1.172-.58v-.581l1.172-.58,1.155-1.172,1.757-1.741.586-1.763,1.166-1.735,1.16-2.332.6-1.758H614.47l-.586,1.183h-1.757l-1.735.575-2.349.58-2.344.586h-5.24l-1.735-.586-1.758-.58h-1.752l-1.166-.575h-2.327l-1.763-1.183-1.16-.586-1.752-.569-2.338-1.172-1.741-1.177-1.752-1.161-1.752-1.166.575-.581,1.177-.586,2.321-.575,2.338-1.769,1.172-1.155,1.161-1.155.591-1.172,1.16-1.155,1.172-1.763.591-1.747.58-1.752.575-2.327h-1.155v.575l-1.763.586-1.16,1.166-1.178,1.172-2.327,1.16-1.155.58-1.172.586-1.752.58-1.177.581-1.747.6h-2.912l-1.753.553h-1.752l-2.332.6h-4.085l-2.332-.6-1.741-.553h-2.355l-2.337-.6-1.161-.581h-1.16l-1.747-.58-1.177-.586-2.333-1.16-2.322-.58.586-.592,1.149-.58.586-.591,1.172-.575,1.161-.586,1.758-.575,2.327-1.752,2.332-2.327,1.166-1.166.592-1.178.58-2.327.6-1.747h0l-1.177.575-1.759.586-1.171.586h-1.736l-1.177.591h-2.332l-1.747.58-1.741.58-1.746.575h-6.434l-1.741.6-1.758-.6h-5.256l-1.166-.575-1.752-1.16h-2.333l-1.149-.591-1.178-1.172-1.747-.575-1.166-1.177-1.16-1.155Z" transform="translate(4538.7 -7729.953)"/><path class="a" d="M499.275,335.858h-.569v.575l-.58,1.161v1.763l-.575.575V341.1l-.6,1.177v1.741l-.575,1.172v1.166l-.591,1.746v5.234l-.575,1.763v7.578l.575,2.327v6.417l.591,2.327.575,2.344.6,2.327.575,2.349.58,2.9.569,1.753.6,2.315,1.172,2.338,1.149,2.919.586,2.327,1.177,2.332,1.741,2.343,1.763,2.913,1.161,2.332,1.752,2.321,2.327,1.769,1.752,2.9,2.332,2.338,1.757,2.327,2.327,2.924,2.918,2.315,2.919,1.769,2.924,2.327,2.344,2.338,3.493,2.327,2.9,1.746,4.1,2.327,3.493,1.741,4.1,2.349,4.079,1.177,4.078,2.327,4.665,1.741,4.676,1.753,4.654,1.172,4.67,1.74,5.837,1.735,5.843,1.178v-2.913l-.591-2.327V444.3l-.586-1.166V427.391l-.575-2.327v-1.741l-.574-2.338v-2.327l-.6-2.35-.581-2.316-.58-2.343-.574-2.321-.592-2.355v-2.9l-1.166-2.338-.585-2.315-.575-2.929v-1.741l-1.177-2.913-1.149-2.93-1.183-2.326-.592-2.913-1.171-2.327-1.149-2.924-1.763-2.327-1.178-2.344-1.724-2.9-1.178-2.349-1.752-2.9-1.741-2.338-1.177-2.327-1.758-2.343-1.736-2.316-2.338-2.349-2.326-2.327-1.752-2.327-2.924-2.327-1.746-1.752-2.924-2.338-2.327-1.753L541.3,338.76l-2.338-1.741-2.9-2.327-2.918-1.166-3.5-2.338-2.924-1.172-3.493-1.753-3.5-1.155-2.93-1.172-4.085-1.752h0v5.831l.591,2.349.581,1.16v1.166l.581,1.741.58,1.161,1.178,1.166.575,1.171,1.16,1.166,1.183,1.753,1.155,1.166,1.171,1.172,1.758,1.166,2.332,1.161,1.16.585,2.924,1.166h.58l1.16.586,1.177.574H534.3l1.172.592h1.16l1.741.574H541.3l1.172.592h1.752l2.327.58h-.586L544.8,353.92h-.58l-.591,1.177h-1.161l-1.172,1.172-1.736.575h-8.771l-1.155-.575h-1.172l-1.752-1.172h-1.16l-1.172-1.177h-1.758l.6,1.177.574,1.172,1.758,2.316v.591l1.16,1.752,1.166,1.161.586,1.746L529.635,365l1.155,1.752,1.189,1.166,1.161,1.746,1.757,1.177,1.161,1.15,1.166,1.177,2.338,1.752,1.15,1.166,1.758,1.161,1.752,1.166,2.327,1.172,1.741.574,1.774,1.178h2.326l1.753,1.155h8.743l-1.171,1.172h-1.156l-1.183,1.161-1.724.591-1.183.575h-1.747l-2.333.586-1.752.58-1.747.575-2.929-1.155-2.332-.586-2.332-.575-2.924-.591,1.188.591v.575l1.736,1.741.6,1.763,1.735,2.338,1.172,2.327,2.93,2.327.558,1.161,1.183,1.177,1.746,1.166,1.172,1.167,1.753,1.16,1.171,1.166,1.155,1.172,2.327,1.161,1.172.591,1.747,1.15,2.337.6,1.752,1.166h2.338l1.758,1.149h2.316l2.918.585h-.569l-1.763.586h-2.9l-1.758.581h-7.584l-2.338-.581h-1.752l-1.155-1.172h-1.171l1.171,1.752V413.4l1.155.591.58,1.15,1.171,1.753.575,1.171,1.763,1.753,1.156,1.166,2.337,2.338,1.177,1.741,2.333,1.166.58,1.161,1.16.586,1.758,1.16,1.155,1.166h-1.155l-1.758-.574-1.16-.592-1.172-.569-1.741-.591-2.344-.586-1.752-1.161-1.758-1.166-1.724-1.741-2.338-1.189-1.763-2.315-1.736-1.753-1.752-2.326-1.172-1.747h-.6l-.558,1.15-1.183,1.166-1.161,1.161-1.757,1.189-1.161,1.724-2.332.6-1.763.586v-1.188l.586-.563.6-1.161v-3.516l.575-1.741v-5.24l-.575-1.189v-2.9l-.6-1.166-.586-1.172v-1.741l-1.15-1.752v-1.752l-1.166-1.172-.586-1.155-1.172-1.746-1.16-1.741-1.763-1.769-1.16-1.172h0l-.58,1.763-1.172,1.752-.586,2.338-2.327,2.327-1.758,2.327-1.735.586-1.183,1.166-1.741.575-1.183.592v-1.167l.6-1.166.586-1.177,1.155-1.735.586-1.752.586-2.327,1.161-2.338v-4.67l.6-1.747v-3.493l-.6-1.747v-1.752l-.564-2.344-.6-1.752-.586-2.327-.586-1.746-1.155-2.327-1.183-2.338-1.16-1.741-1.161-2.338v.569l-.591,1.183-.58,1.747-.581,2.918-1.747,2.327-1.752,1.746-1.166,1.177-1.177,1.15-1.735.58-1.183.6h0v-2.327l.586-1.775V367.92l.6-1.166v-4.079l.569-1.16v-1.769l.6-1.161-.6-1.741v-4.079l-.569-1.746v-3.5l-.6-1.161-.586-1.752-.58-1.166-.575-1.747-.586-1.758-2.327-2.337-1.775-1.736Z" transform="translate(4477.083 -7642.897)"/><path class="a" d="M554.444,355.017h-2.321l-1.769.57H549.21l-.6.586h-1.16l-1.178.591h-1.741l-1.171,1.172h-4.676l-2.332.575h-1.747l-1.155.58h-6.428l-1.741.586-2.344-.586h-6.417l-2.913-.58h-1.746l-2.924-.575h-1.752l-2.924-1.172-2.332-.591-2.913-1.155-1.747-.591-2.935-1.171-2.327-.581-2.907-1.166-1.763-1.75-2.913-1.166-2.333-1.746-2.918-1.741-2.322-1.753-2.338-2.327-2.924-1.746-2.332-2.344-2.327-2.324-2.355-2.327-2.327-2.924-2.338-2.907-2.321-2.912-2.338-3.516-2.332-3.484-2.332-4.085-1.752-2.912-2.327-4.66-1.758-3.5-2.326-4.676-1.758-4.653-2.327-4.676-1.166-4.64-1.763-5.267-1.166-5.245.591-.575h6.422l1.735-.586h1.172l1.752-.575h9.927l1.747-.589h19.262l2.913.589h2.327l2.918.575h2.919l2.924.586h2.913l2.343,1.15h2.907l2.327,1.177h2.919l2.924,1.155,2.344.6,2.912,1.15,2.919,1.178,2.924,1.172,2.321,1.166,2.924,1.161,2.327,1.758,2.343,1.746,2.913,1.166,2.338,1.733,2.315,1.746,2.919,2.344,1.763,1.747,2.332,2.332,1.752,2.343,2.338,2.327,2.338,2.319,1.144,2.918,2.333,2.924,1.758,2.907,1.763,2.337,1.741,3.488,1.172,3.49,1.746,4.09,1.166,2.924,1.166,4.079.591,4.071,1.161,4.67h-6.417l-1.746-.591-2.907-.586-2.355-1.161-1.172-.586-1.144-1.166-1.757-.58-1.178-1.171-1.16-1.164-1.166-1.735-1.166-1.752-1.166-1.172-1.166-2.343-1.16-1.736-.6-2.333-1.15-2.327v-1.755l-.6-1.166-.586-1.161v-2.907l-.586-1.758v-2.907H535.2l-1.177,1.155-.575.586-.586.586-.591,1.16v1.758l-1.161,1.155v6.994l.563,1.177V324.7l.6,1.752.591,1.155.586,1.752,1.155,1.172.6,1.752h-.6l-1.155-.6-1.177-1.155-2.333-1.172-1.741-.575-1.177-.58-1.166-1.189-1.161-.564-1.758-1.172-1.177-1.177-1.741-1.155-1.166-.586-1.753-1.741-1.74-1.172-1.172-1.749-1.172-1.161-1.155-1.752-1.763-1.746-1.161-1.747-1.171-1.172L506.6,307.8l-.58-1.752-.575-2.321-.58-1.761-.6-2.327V297.3l-.575-2.327.575-1.746h-.575l-.592,1.746-.569.586-.6,1.741-.586,1.177v1.735l-1.149,1.747v8.161l1.149,2.332v1.758l.586,1.155.6,1.172,1.161,1.161H503.1l-.569-.586-1.183-.574-1.149-.58-2.924-1.747-1.746-.58-2.338-1.758-2.332-1.752-1.172-1.155-1.752-1.172-1.161-1.752-1.172-1.161-1.172-1.16-1.16-1.761-1.172-1.747-1.155-1.16-1.171-1.752-.591-1.741-1.166-2.332-.592-1.172-1.149-2.344-.592-1.746v-2.319l-.58-2.327-.581.575v15.738l1.16,1.752v1.15l1.178,1.186h-.586l-1.172-.6-1.166-.588-1.172-1.15h-1.166l-1.155-1.172-1.763-1.735-1.741-.6-1.758-1.746L464,294.977l-2.338-1.746-1.752-2.338-1.724-1.735-1.758-2.35-.586,1.161.586,1.746.575,1.178.586,1.166.6,1.747,1.724,2.332.608,1.166,1.144,1.752,1.758,2.332,1.752,1.15,1.758,1.755,2.327,1.752,1.178.586,1.155,1.166,1.166,1.172,1.758.575h-.586l-1.172.58-1.166,1.172-1.155,1.16-1.178,1.758-1.166,1.747-1.16,1.741v2.324l.58-.575,2.332-.583.592-.591,2.321-.575h4.1l1.155-.586h2.929l1.155.586h2.333l1.763.575,1.741.591,1.172.583,1.752.575,1.752.6,1.73,1.155,1.774.586,1.16,1.741,1.747,1.177,2.327,1.736h-2.327l-1.747,1.189-2.332,1.155-1.171.586-1.161,1.171-1.177,1.166-.575,1.15-1.172,1.178-.58,1.743-.586,1.747v1.747h0l1.166-.569.58-.592,1.166-1.166,1.758-1.166,1.752-.591,1.172-.58,1.16-.572h1.155l1.769-.592,1.149-.586h1.183l1.161-.575h7l2.327.575h3.5l2.333,1.178,1.752.572,2.924.58,2.327,1.172,1.758,1.166,2.918,1.178h-.591l-1.741.569h-1.758l-1.747,1.758-2.935,1.16-2.316,2.338-1.16,1.161-.6,1.752-.586,1.155v1.752h1.184l1.16-1.166h1.16l2.333-.586,2.918-.58,1.166-.575h4.09l1.752-.574h7l1.752.574,1.747.575h1.752l1.16.58,1.178.586,1.757,1.166,1.144.583,1.769,1.166,1.154.581,1.166,1.763Z" transform="translate(4189.701 -7898.755)"/><path class="a" d="M538.418,371.176h0L539,370v-1.166l1.166-1.747v-1.752L541.348,363v-1.158l.581-1.758.586-1.15v-1.761l.58-1.735.586-1.76v-2.341l.586-1.16v-6.4l1.155-1.757v-8.744l-.586-2.324v-2.335l-.569-2.919v-2.34l-.586-2.332-.586-2.91-.58-2.327-.586-2.33-1.172-2.915-.586-2.335L539,305.3l-1.161-2.34-1.758-2.9-1.16-2.332-1.172-2.919-1.747-2.329-2.337-2.907-1.73-2.338-1.774-2.33-2.326-2.927-2.913-2.335-2.333-2.9-2.924-2.327-2.332-2.341-3.51-2.927-2.907-2.335-3.509-2.332-3.494-1.747-4.09-2.321-4.09-2.919-4.084-1.752-4.062-1.758-5.273-2.907-4.66-1.747-5.256-1.744-5.25-1.755v.6l-.575,1.732v.583l-.586,1.163v2.921l-.586,1.155v1.758l-.581,1.752v1.747l-.586,1.752V267.4l-.581,1.741-.6,2.327v27.991l.6,2.913V305.3l.581,2.327.586,2.921.581,2.915v2.9l1.172,2.916.575,2.915.58,2.344,1.178,2.9,1.155,2.929.6,2.31,1.166,2.338,1.757,2.915,1.161,2.921,1.161,2.34,1.16,2.916,1.763,2.318,2.326,2.332,1.758,2.33,2.333,2.346,1.746,2.319,2.338,2.327,2.321,1.758,2.338,2.327,2.332,2.332,3.5,1.744L498.751,370l2.913,2.338,3.5,1.155,2.907,1.752,3.51,1.172,4.085,1.747,4.078,1.171,4.091,1.752v-2.924l.569-1.747-.569-1.752v-3.488l-.581-1.763v-1.166l-.586-1.16-.586-1.163-.586-1.752L520.926,363l-1.178-1.158-1.155-1.758-1.752-1.15-1.172-1.177L514.5,356.6l-2.327-1.758-1.763-.58-2.332-1.169-2.338-1.166-1.149-.589h-1.752l-1.172-.575-1.172-.586h-1.741L497,349.6l-1.758-.58h-1.172l1.172-1.178.58-.588.58-.575h1.177l1.753-.569,1.741-.589h3.51l2.332.589h.575l1.178.569h1.155l1.758,1.163h1.172l1.166,1.178,1.747.58,1.172,1.16v-1.74l-1.172-1.766-.586-2.327-.586-1.153-1.161-1.175-.58-1.163-.586-1.747L511,337.936l-.591-1.163-1.149-1.752-1.183-1.169-1.155-1.75-1.183-1.73-1.149-1.755-1.752-1.175-1.172-1.744-1.747-1.161-1.752-1.18-1.758-1.164-1.161-1.743-2.332-1.172h-1.752l-2.327-1.163-2.332-.588h-1.758l-2.338-.586-2.338.586.591-.586,1.747-.578.586-.574,1.753-.578,1.166-.583,1.741-.589h3.51l2.332-.58,1.752.58h2.337l2.332,1.172,1.161.578,1.171.574,1.753.578,1.166,1.175v-.588l-.58-.586L504,315.79l-.591-1.75-1.161-2.332-1.171-2.327-1.741-2.347-1.753-2.327-1.177-1.169-1.161-1.749-1.172-1.155-1.16-1.172-1.752-1.743-1.172-1.166-1.155-1.164-1.183-1.177-2.321-1.741-1.741-.586-1.183-1.169-1.747-1.153-2.343-.6-1.735-.588-2.333-.575-2.344-.575h12.84l1.758,1.15h1.752l1.735.588,1.172.6,1.16,1.153v-1.153l-1.16-1.188v-1.15l-.575-.594-.6-1.735-.575-1.175-1.16-1.752-1.172-1.158-1.171-2.335-1.166-1.738-2.338-1.747-1.16-2.352-2.333-2.322-1.758-1.758h.581l1.758.583,1.166.594,1.747.58,1.183,1.153,1.741,1.169L486.5,273.8l2.332,1.752,1.155,1.183,2.332,1.738,1.752,2.335,1.172,2.335,1.161.574V284.9l1.177,1.735.581,1.169v-.575l.585-.594,1.166-1.158,1.747-1.183,1.172-1.144,2.332-1.178,1.752-.583h2.338v.583l-1.183,2.322-1.155,1.183v1.752l-.58,1.738v2.341l-.6,1.166-.569,1.166V294.8l.569,1.753v1.166l.6,1.163v1.752l.58,1.741v1.75l1.155,1.171v1.738l1.183,2.347.569,1.163L511,312.289l1.172,1.752,1.752,2.324v-.574l.575-1.75,1.172-1.752,1.172-2.332,1.166-1.164.586-1.169,1.155-1.172,1.178-.58,1.746-.575,1.736-.588,1.757-.583h1.774l-.6.583-1.741,1.744-1.188,1.758-1.15,2.335-.586.58-.586,1.164v1.752l-.586,1.172-.574,1.152v1.752l-1.178,1.163V332.1l.581,1.75.6,2.332,1.161,2.335v2.338l.586,1.164.586,1.177.581,1.733,1.16,1.183v-2.335l1.166-1.757,1.172-1.744,1.746-2.929,2.338-1.744,1.178-1.169,1.155-.583,1.172-.575h1.752v.575l-.591,1.169-.575,2.327-.586,1.76-1.172,2.332v2.338l-.58,1.747v1.733l-.575,1.766v11.665l1.155,1.732v1.749l.58,1.752.592,1.163,1.16,1.16L537.258,370l1.16,1.177Z" transform="translate(4306.668 -8012.255)"/><path class="a" d="M557.97,311.577H557.4l-.6-.6-1.741-.569H553.3l-1.166-.581h-1.166l-1.763-.586h-2.332l-1.15-.575h-4.084l-1.775-.6H522.376l-2.327.6h-1.763l-2.332.575-2.907.586-2.332.581-2.924,1.172-2.332.574-2.935.58-2.327,1.155-2.907.6-2.913,1.161-2.923,1.166-2.327,1.752L486.2,320.31l-2.333,1.763-2.918,1.155-2.321,2.327-2.344,1.758-2.918,2.327-2.332,2.338L468.1,334.9l-2.321,2.338-2.338,2.907-2.918,2.912-2.344,3.5-2.327,3.5-1.747,3.5-2.327,3.476-2.332,4.09-2.338,4.085-1.746,4.653-2.338,4.091-1.757,4.665-1.747,5.239-1.752,5.257-1.747,5.25-1.166,5.82-1.16,5.831-1.183,6.417.6-.575h27.414l2.918-.58h2.338l2.321-.586h5.842l2.919-.586,2.918-.581H482.7l2.338-.586,3.477-.575,2.935-.586,2.923-1.166,2.913-.6,2.907-.575,2.93-1.177,2.919-.563,2.912-1.166,2.919-.6,2.907-1.752,2.935-1.166,2.912-1.15,2.919-1.178,2.924-1.752,2.321-1.747,2.924-1.752,2.913-1.752,2.332-2.327,2.9-1.763,2.349-2.327,2.326-2.316,2.333-2.338,2.332-2.338,2.344-2.907,2.327-2.338,1.763-3.493,1.757-2.924,1.73-2.913,1.747-3.5,1.757-3.482,1.166-3.515,1.752-4.079,1.172-3.493.586-4.665,1.746-4.079.591-4.084.575-4.1v-.575H563.8l-1.729.575-1.194.6h-1.161l-1.172.575-1.741.591-1.16,1.16-1.178.581-1.741.591-1.172,1.166-1.747,1.746-1.166,1.172-1.161,1.155-1.183,1.758-.569,2.332-1.183,1.735-1.746,2.338v2.918l-1.155,1.16v3.493l-.586,1.177v3.5l-.591,1.747v4.671l-1.16-1.172-1.172-.58-.586-.586-1.155-1.16v-1.172l-1.177-2.327v-1.763l-.581-2.332.581-1.73V345.38l.591-1.166.586-1.747.574-1.166.581-1.741,1.177-1.752h-.592l-1.166,1.166H535.21l-2.327,1.741-1.166.586-1.768,1.166-1.155,1.172-1.16,1.166-1.758,1.161-1.752,1.166-1.746,1.16-1.172,1.763-1.155,1.73-1.763,1.177-1.752,1.155-1.16,2.343-1.747,1.747-1.177,1.758-1.166,1.741-1.166,2.913-.586,1.763-1.149,1.746-.592,2.907-.586,2.338V382.1l1.178,1.177-1.178-.581-1.16-1.735-.586-1.171L504.3,378.62v-1.161l-.586-1.752-.586-2.332-.6-1.758-.569-2.316V364.62l.569-1.741.6-1.172v-1.166l.586-1.741.586-1.166,1.161-1.752H504.3v.58l-1.774.575-1.73,1.172-2.343,1.172-1.747,2.327h-1.177l-1.15,1.172-1.763,1.741-1.16,1.166-1.172,1.155-1.155,1.188-1.763,1.736-1.166,1.172-1.155,1.752-1.178,1.747-1.16,1.747-.586,2.338-1.172,1.166-1.166,2.907-1.155,1.752v2.332l-1.178,2.338-.586,2.327v1.178l-.58,1.171v1.741l-.581-1.741V392.62l-.58-1.178v-3.488l-.6-1.758v-3.5l.6-2.327V378.62l.58-1.758.581-2.327.58-1.16h-.58l-1.758,1.16h-1.16l-.6,1.747-1.735.58-1.178,1.172-1.752.586-1.155,1.746-2.327,1.73-1.177,1.763-2.333,2.338-1.735,2.327-1.194,1.166-1.155,1.171-.575,1.758-1.178,1.171v-4.676l1.178-1.752.575-1.763,1.155-1.741,1.194-1.763,1.15-2.31,1.763-2.327,1.746-1.752,1.747-2.332,2.321-2.338,1.189-1.172,1.149-.563,1.172-1.172,1.752-.585-.6-.6-1.155-.558-1.758-.6L468.1,364.62l-1.155-1.741-1.166-1.752-1.161-2.327v-2.338l.575.575h.586l1.166.6h1.763l2.322.575h7l1.747-.575h1.166l1.758-.6,1.16-.575,1.741-.58,1.758-.575,1.763-.581,1.741-.608,1.747-1.155,1.763-1.177,1.15-1.156,2.343-1.746,1.172-1.172,2.333-1.161h-.581l-1.752-.586-1.172-.586-1.166-.575-1.177-.591-1.15-.575-1.763-.586-1.16-1.177-1.172-1.16-.58-.575-1.183-1.753-1.155-1.155-.592-2.338v-1.758l.592.586,1.155.575,1.763.6,1.172,1.155,2.923.58,1.15.6H496.7l1.166.575,1.747,1.166h12.259l1.752-.586,2.327-1.155h2.332l1.763-1.183h2.327l2.332-1.155,2.333-1.172,1.166-1.177,1.166-.569,1.752-.591,1.161-.575-.57-.591h-1.768l-1.155-.581-1.16-.586-1.161-.575h-1.183l-1.74-1.166h-1.172l-1.172-1.758-1.155-1.155-1.763-1.172-.569-1.155-.592-1.763-.591-1.747h.591l.592.58h1.161l2.327.58h2.344l1.16.586h2.924l1.16.58H539.3l1.16-.58,2.333-.586,1.746-.58h1.183l1.753-.58,1.729-.58,1.763-1.172,1.166-.591,1.741-1.161,1.183-.575,1.741-1.752,1.172-1.155Z" transform="translate(4181.516 -7718.899)"/><path class="a" d="M547.18,335.86l.591,1.171V338.2l.575,1.177v1.161l.586,1.166v1.172l.591,1.166v4.653l.58,1.741v1.161l.586,2.349V365.02l-.586,2.327v1.747l-.58,2.93v2.327l-.591,1.741-.586,2.924v1.752l-.575,2.913-1.177,2.327-.575,2.344-1.166,2.338-1.166,2.9-1.177,1.752-.58,2.919-1.747,2.327-1.166,2.332-2.333,2.343-1.171,2.316-2.338,2.924-1.741,2.338-2.332,2.327-1.752,2.316-2.332,2.338-2.344,2.343-2.913,2.327-2.912,2.338-3.5,1.752-2.919,2.338-3.5,2.315-3.5,1.747-4.085,2.354-3.509,1.724-4.063,1.769-4.1,1.736L483,444.328l-4.084,2.327-5.257,1.149-5.25,1.178-5.24,1.752-5.262,1.752v-3.5l-.586-1.178V415.758l.586-2.919.58-2.338v-5.24l.591-2.343.569-2.913.591-2.338.575-2.918.591-2.332.58-2.9,1.183-2.344V384.26l1.15-2.913,1.172-2.907.586-2.924,1.155-2.327,1.178-2.918,1.752-2.327,1.161-2.924,1.177-2.327,1.735-2.338L476,357.448l1.758-2.338,1.747-2.338,1.735-1.752,2.338-2.327,2.333-2.327,1.758-2.327,2.913-1.752,2.338-1.752,2.338-2.338,2.907-1.741,2.924-1.763,3.493-1.736,2.343-1.166,4.085-1.752,2.9-.575,3.521-1.752,4.079-1.172,3.5-.591,4.084-.586,4.67-.563v4.079l-.6,1.746-.591,2.333-.569,1.161v1.166l-.581,1.746-.586,1.166-.586,1.177-1.16,1.741-1.178,1.172-.574,1.166-1.758.586-1.166,1.16-1.752,1.166-1.741,1.16-2.349,1.166-1.735,1.172-2.332.569-2.338.586h-2.924l-1.741.575-1.172.6H501.67l-1.758.575.586.6.592.575.58.581,1.161.585.592.575,1.758.591h1.161l2.327.569h4.676l1.752-.569h2.338l1.15-.591,1.763-.575,1.752-.585,1.747-.581h-.586l-.585,1.166-.575,1.166-1.166,2.338-1.172,1.16-.586,1.741L518,362.693l-.569,1.161-1.183,1.166-1.155,1.746-1.183,1.177-1.15,1.73-1.752,1.172-1.172,1.178-1.747,1.74-1.166,1.178-2.343,1.149-1.16,1.171-1.752,1.178-2.332,1.155-1.747,1.172h-1.763l-2.321,1.161-1.741.591h-2.343l-1.752.575-2.338-.575H483v.575l1.753.586.574,1.155h1.758l.58,1.172L490,386.6h1.769l1.741.575h5.831l2.913-.575,1.172-.592h1.16l2.93-1.172-1.172,2.338-1.161,1.178L504,390.091l-1.172,2.327L500.5,394.75l-1.735,2.343-1.172,1.167-1.16,1.16-1.752,1.166-1.172,1.172-1.741.58-1.183,1.735-1.161,1.188-1.752,1.166h-1.758l-1.752,1.149-2.327,1.172-1.752.581-2.322.586L476,410.5l-2.338.591-2.337.575H476l1.758.575h8.153l1.758-.575h1.752l1.161-.575h1.183l-.6,1.15-.586.6L490,413.995l-.574,1.763-1.752,1.161-1.177,1.166-1.161,1.149L484.16,421l-1.735,2.327-2.344,1.161-1.16,2.338L476,428.581l-1.763,2.338h.6l2.332-.6.591-.581,1.747-.585,1.735-.575L483,427.4l1.753-1.166,1.735-1.16,1.752-1.747,2.338-1.166,1.763-1.741,1.741-2.338,1.741-2.327,1.763-1.763h0l.575,1.171,1.172,1.166,1.16,1.752,1.753,1.149,1.172,1.189,2.338.58,2.332,1.161-.58-1.161v-.58l-.586-.6v-1.15l-.585-1.752-.581-1.753V407l.581-1.155V404.66l.585-1.741v-1.161l1.166-1.752.575-1.172.586-1.741.586-1.752,1.172-1.752,1.166-1.172,1.166-1.155,1.752-1.746,1.155-1.741v.575l1.183,1.166v2.332l1.15,1.741,1.763,2.338,2.327,2.333,1.172.574,1.172,1.172,1.752.581,2.333.586v-.586l-1.178-.581v-1.172l-1.155-1.166-.585-1.741-1.166-2.338-.592-1.741-.58-2.332-.586-1.741v-9.91l.586-1.774V374.35l.58-2.327.592-1.752,1.166-2.327.585-1.774,1.155-2.315,1.178-2.338,1.16-1.741v.581l.586,1.16.586,1.752,1.15,2.327,1.188,2.349,1.741,2.327,1.171,1.166,1.161.586,1.752.591,1.753.575h-.575v-2.918l-.592-1.177-.586-1.15v-4.09l-.58-1.161v-8.749l.58-1.747v-4.079l1.178-1.752v-1.752l.575-1.16.58-1.166,1.172-1.172.586-1.741,1.166-1.177,1.166-1.166,1.161-1.171Z" transform="translate(4298.493 -7639.998)"/><path class="a" d="M557.1,336.207h1.752l2.327-.586,2.332-.569,2.332-.586,1.759-1.178,2.332-.58,1.758-1.749,1.149-1.155,1.775-2.327,1.144-1.177,1.177-2.338,1.166-1.735.575-1.752.591-2.338.581-2.327v-4.667l-.581-2.333-.591-1.74-.575-2.327-1.166-1.752-1.177-2.338-1.144-1.749-1.775-1.172-1.149-1.747-1.758-1.155-2.332-1.183-1.759-1.16-2.332-1.155h-13.42l-2.338,1.155-1.741,1.16-1.752,1.183-2.327,1.155-1.184,1.747-1.166,1.172-1.171,1.749-1.73,2.338-.585,1.752-1.167,2.327-.609,1.74v9.327l.609,2.338,1.167,1.752.585,1.735,1.73,2.338,1.171,1.177,1.166,2.327,1.184,1.155,2.327,1.749,1.752.58,1.741,1.178,2.338.586,2.326.569,2.355.586Z" transform="translate(4661.426 -7797.766)"/><path class="a" d="M445.292,337.853h1.752l2.332-.575,2.338-.58,1.741-.6,2.333-1.166,1.757-1.172,1.769-1.149,1.724-1.178,1.183-2.327,1.741-1.747,1.172-1.177,1.166-2.332v-2.319l1.161-1.747V317.45l.586-2.338-.586-2.327v-2.338L466.3,308.12V306.37l-1.166-1.752-1.172-2.316-1.741-1.763-1.183-1.16-1.724-1.752-1.769-1.166-1.757-1.16-2.333-1.166-1.741-.575-2.338-.6h-9.33l-2.344.6-1.741.575L434.21,295.3l-2.332,1.16-1.769,1.166-1.16,1.752-1.172,1.16-1.155,1.763-1.758,2.316L423.7,306.37l-.581,1.749v13.414l.581,2.319,1.166,2.332,1.758,1.177,1.155,1.747,1.172,2.327,1.16,1.178,1.769,1.149,2.332,1.172,1.752,1.166,1.741.6,2.344.58,2.321.575Z" transform="translate(4137.236 -7790.076)"/><path class="a" d="M504.192,394.867h1.752l2.327-.581,2.332-.585,2.327-.575,1.752-1.166,1.752-1.183,1.758-1.15,1.74-1.177,1.172-2.327,1.747-1.741.586-1.763,1.753-1.752V378.54l1.166-1.741v-2.327l.586-2.349-.586-2.337v-2.327l-1.166-2.327v-1.741l-1.753-2.327-.586-1.763-1.747-1.752-1.172-1.161-1.74-1.752-1.758-1.15-1.752-1.768-1.752-.586-2.327-1.155h-2.332l-2.327-.586h-4.1l-2.913.586h-1.752l-2.326,1.155-2.338.586-1.183,1.768-1.736,1.15-1.758,1.752-1.746,1.161-1.172,1.752-1.16,1.763-.586,2.327-1.172,1.741-.58,2.327V376.8l.58,1.741,1.172,2.327.586,1.752,1.16,1.763,1.172,1.741,1.746,2.327,1.758,1.177,1.736,1.15,1.183,1.183,2.338,1.166,2.326.575,1.752.585,2.913.581Z" transform="translate(4412.094 -7524.081)"/><path class="a" d="M503.084,282.319l2.332-.581h2.338l1.747-1.171h2.343l1.757-1.155,2.338-1.166,1.149-1.169,1.752-1.749,1.758-1.747,1.741-1.76.586-1.155,1.16-2.33.581-2.335.591-1.752.586-2.332v-4.673l-.586-2.318-.591-2.344-.581-1.735-1.16-2.346-.586-1.738-1.741-1.752-1.758-1.749-1.752-1.172-1.149-1.153-2.338-1.166-1.757-1.171-2.343-.583-1.747-1.163h-9.341l-1.724,1.163-2.946.583-1.736,1.171-1.758,1.166-1.746,1.153-1.172,1.172-1.747,1.749-1.172,1.752-1.74,1.738-.586,2.346-1.172,1.735V266l1.172,2.335.586,2.33,1.74,1.155,1.172,1.76,1.747,1.747,1.172,1.749,1.746,1.169,1.758,1.166,1.736,1.155h2.946l1.724,1.171h2.338l2.332.581Z" transform="translate(4409.686 -8054.576)"/></g></svg>