<svg xmlns="http://www.w3.org/2000/svg" width="66.697" height="66.696" viewBox="0 0 66.697 66.696">
  <g id="Grupo_2030" data-name="Grupo 2030" transform="translate(-238.605 -521.534)">
    <path id="Elipse_30-4-23-2" data-name="Elipse 30-4-23-2" d="M-6519.563-4704.953a31.683,31.683,0,0,1,31.683,31.683h0a31.683,31.683,0,0,1-31.683,31.683h0a31.684,31.684,0,0,1-31.684-31.683h0a31.684,31.684,0,0,1,31.684-31.683Z" transform="translate(6791.247 5228.152)" fill="#ddd" stroke="#9e9e9e" stroke-width="2.332"/>
    <g id="Grupo_1866-2" data-name="Grupo 1866-2" transform="translate(6791.247 5228.152)" opacity="0.53">
      <path id="Caminho_13746-2" data-name="Caminho 13746-2" d="M-6527.327-4686l7.409,11.088q.792,10.507,1.586,21.013c-3.678,7.493-6.04,12.306-6.041,12.307h0S-6525.665-4661.018-6527.327-4686Z" fill="#b9b9b9"/>
      <path id="Caminho_13747-2" data-name="Caminho 13747-2" d="M-6527.327-4686l7.409,11.088,18.8,9.509,13.683-.869h0Z" fill="#828282"/>
      <path id="Caminho_13748-2" data-name="Caminho 13748-2" d="M-6487.432-4666.266c-4.434.323-9.312.606-13.746.929-5.851,3.886-11.3,7.556-17.154,11.443-3.65,7.506-6.04,12.306-6.041,12.307" fill="#777"/>
      <path id="Caminho_13749-2" data-name="Caminho 13749-2" d="M-6518.332-4653.894l-1.586-21.013,18.8,9.509" fill="#a1a1a1"/>
      <path id="Caminho_1801-3" data-name="Caminho 1801-3" d="M-6517.963-4660.177a.24.24,0,0,1-.013.058l-.222.424-.136.258-.012.025a.093.093,0,0,0-.011.058l.017.22,0,.007.025.309h0l.02.255a.093.093,0,0,1-.017.067.1.1,0,0,1-.077.046.084.084,0,0,1-.058-.012l-.509-.266-.2-.1a.088.088,0,0,0-.059-.012l-.085.006-.71.064a.108.108,0,0,1-.113-.092.1.1,0,0,1,.013-.06l.064-.121.139-.273.136-.258h0l.027-.052a.1.1,0,0,0,.012-.058l-.015-.181-.026-.309-.03-.306a.1.1,0,0,1,.091-.108h0a.114.114,0,0,1,.057.007l.708.369a.079.079,0,0,0,.058.013l.795-.071A.114.114,0,0,1-6517.963-4660.177Z" fill="#fff"/>
      <path id="Caminho_1801-4" data-name="Caminho 1801-4" d="M-6515.563-4655.6a.467.467,0,0,1-.029.15l-.574,1.092-.351.669-.029.063a.234.234,0,0,0-.03.151l.044.564.013.02.068.794.007.01.05.662a.257.257,0,0,1-.043.173.255.255,0,0,1-.2.118.233.233,0,0,1-.15-.03l-1.314-.687-.511-.266a.231.231,0,0,0-.15-.031l-.22.018-1.83.165a.272.272,0,0,1-.292-.24.244.244,0,0,1,.031-.151l.166-.314.357-.7.35-.669.01-.007.068-.134a.244.244,0,0,0,.03-.15l-.038-.468-.067-.795-.079-.787a.268.268,0,0,1,.247-.281.283.283,0,0,1,.144.02l1.825.953a.242.242,0,0,0,.15.03l2.051-.183A.288.288,0,0,1-6515.563-4655.6Z" fill="#fff"/>
    </g>
    <path id="Elipse_30-4-2-2-2" data-name="Elipse 30-4-2-2-2" d="M-6519.293-4704.953a31.683,31.683,0,0,1,31.683,31.683h0a31.683,31.683,0,0,1-31.683,31.683h0a31.684,31.684,0,0,1-31.684-31.683h0a31.684,31.684,0,0,1,31.684-31.683Z" transform="translate(6791.247 5228.152)" fill="none" stroke="#9e9e9e" stroke-width="3.33"/>
  </g>
</svg>
