<svg xmlns="http://www.w3.org/2000/svg" width="66.696" height="66.696" viewBox="0 0 66.696 66.696">
  <g id="Grupo_2031" data-name="Grupo 2031" transform="translate(-146.605 -366.334)">
    <path id="Elipse_30-4-23" data-name="Elipse 30-4-23" d="M-7121.652-5470.444a31.683,31.683,0,0,1,31.683,31.683,31.683,31.683,0,0,1-31.683,31.683,31.683,31.683,0,0,1-31.683-31.683A31.683,31.683,0,0,1-7121.652-5470.444Z" transform="translate(7301.335 5838.443)" fill="#f4de9b" stroke="#ed7100" stroke-width="2.332"/>
    <g id="Grupo_1866" data-name="Grupo 1866" transform="translate(7301.335 5838.443)" opacity="0.53">
      <path id="Caminho_13746" data-name="Caminho 13746" d="M-7129.415-5451.486l7.408,11.088q.793,10.506,1.587,21.013c-3.678,7.493-6.04,12.306-6.041,12.307h0S-7127.754-5426.509-7129.415-5451.486Z" fill="#69f93c"/>
      <path id="Caminho_13747" data-name="Caminho 13747" d="M-7129.415-5451.486l7.408,11.088,18.8,9.51,13.683-.869h0Z" fill="#3dba0f"/>
      <path id="Caminho_13748" data-name="Caminho 13748" d="M-7089.52-5431.757c-4.434.323-9.312.606-13.746.929-5.851,3.886-11.3,7.556-17.154,11.443-3.651,7.506-6.04,12.306-6.041,12.307" fill="#0dbc24"/>
      <path id="Caminho_13749" data-name="Caminho 13749" d="M-7120.42-5419.385l-1.587-21.013,18.8,9.51" fill="#5adb2a"/>
      <path id="Caminho_1801" data-name="Caminho 1801" d="M-7120.052-5425.668a.216.216,0,0,1-.012.058l-.222.424-.136.259-.012.025a.088.088,0,0,0-.011.058l.017.219.005.008.026.308,0,0,.02.256a.1.1,0,0,1-.017.067.1.1,0,0,1-.077.046.085.085,0,0,1-.058-.012l-.509-.266-.2-.1a.088.088,0,0,0-.059-.012l-.085.007-.71.064a.107.107,0,0,1-.113-.093.1.1,0,0,1,.012-.059l.064-.121.139-.273.136-.259,0,0,.027-.052a.1.1,0,0,0,.012-.058l-.015-.181-.026-.309-.03-.305a.1.1,0,0,1,.095-.109.1.1,0,0,1,.056.008l.708.369a.084.084,0,0,0,.058.012l.795-.071A.114.114,0,0,1-7120.052-5425.668Z" fill="#fff"/>
      <path id="Caminho_1801-2" data-name="Caminho 1801" d="M-7117.652-5421.088a.452.452,0,0,1-.029.15l-.574,1.093-.35.669-.03.063a.237.237,0,0,0-.03.151l.044.564.013.02.068.794.007.01.051.662a.257.257,0,0,1-.044.173.253.253,0,0,1-.2.118.237.237,0,0,1-.15-.03l-1.314-.687-.511-.266a.23.23,0,0,0-.15-.031l-.22.018-1.83.165a.273.273,0,0,1-.292-.24.243.243,0,0,1,.031-.151l.166-.314.357-.7.35-.669.01-.007.069-.135a.241.241,0,0,0,.03-.15l-.038-.468-.067-.795-.079-.787a.268.268,0,0,1,.247-.281.272.272,0,0,1,.144.02l1.825.953a.239.239,0,0,0,.15.03l2.051-.183A.288.288,0,0,1-7117.652-5421.088Z" fill="#fff"/>
    </g>
    <path id="Elipse_30-4-2-2" data-name="Elipse 30-4-2-2" d="M-7121.382-5470.444a31.683,31.683,0,0,1,31.683,31.683,31.683,31.683,0,0,1-31.683,31.683,31.683,31.683,0,0,1-31.683-31.683A31.683,31.683,0,0,1-7121.382-5470.444Z" transform="translate(7301.335 5838.443)" fill="none" stroke="#ffc400" stroke-width="3.33"/>
  </g>
</svg>
