<svg xmlns="http://www.w3.org/2000/svg" width="47.755" height="41.452" viewBox="0 0 47.755 41.452">
  <g id="Grupo_1346" data-name="Grupo 1346" transform="translate(-234.465 -371.497)">
    <path id="Caminho_2118" data-name="Caminho 2118" d="M258.343,371.5V385.83l-11.131,19.727-12.747,7.391h0S244.918,394.811,258.343,371.5Z" fill="#69f93c"/>
    <path id="Caminho_2119" data-name="Caminho 2119" d="M258.343,371.5V385.83l11.13,19.727,12.747,7.391h0Z" fill="#3dba0f"/>
    <path id="Caminho_2120" data-name="Caminho 2120" d="M282.217,412.949c-4.155-2.359-8.685-5.018-12.84-7.379-7.549-.02-14.613,0-22.162-.015-7.744,4.527-12.746,7.391-12.746,7.391" fill="#0dbc24"/>
    <path id="Caminho_2121" data-name="Caminho 2121" d="M247.215,405.552l11.131-19.727,11.131,19.727" fill="#5adb2a"/>
    <path id="Caminho_1801-18" data-name="Caminho 1801-18" d="M251.3,400.16a.183.183,0,0,1-.045.047l-.451.25-.277.151-.025.015a.09.09,0,0,0-.045.045l-.116.2v.01l-.16.292h0l-.135.241a.119.119,0,0,1-.151.05.108.108,0,0,1-.045-.045l-.3-.543-.115-.21a.1.1,0,0,0-.045-.045l-.08-.044-.673-.368a.113.113,0,0,1-.045-.15.09.09,0,0,1,.045-.045l.125-.07.286-.16.277-.152h0l.055-.031a.092.092,0,0,0,.044-.045l.1-.17.162-.291.155-.291a.111.111,0,0,1,.15-.04.1.1,0,0,1,.045.04l.411.75a.1.1,0,0,0,.047.045l.75.412A.123.123,0,0,1,251.3,400.16Z" fill="#fff"/>
    <path id="Caminho_1801-19" data-name="Caminho 1801-19" d="M250.706,405.687a.492.492,0,0,1-.116.116l-1.166.634-.712.389-.065.039a.263.263,0,0,0-.116.117l-.3.531v.025l-.414.751v.013l-.35.626a.266.266,0,0,1-.141.125.276.276,0,0,1-.25-.013.258.258,0,0,1-.117-.116l-.764-1.4-.3-.544a.242.242,0,0,0-.116-.116l-.206-.117-1.735-.945a.292.292,0,0,1-.116-.388.248.248,0,0,1,.116-.117l.336-.181.738-.414.712-.389h.013l.142-.08a.253.253,0,0,0,.117-.116l.25-.441.414-.75.4-.751a.287.287,0,0,1,.388-.1.306.306,0,0,1,.117.1l1.061,1.941a.255.255,0,0,0,.117.117l1.941,1.062A.31.31,0,0,1,250.706,405.687Z" fill="#fff"/>
  </g>
</svg>
