<svg xmlns="http://www.w3.org/2000/svg" width="84.414" height="49.663" viewBox="0 0 84.414 49.663">
  <g id="Grupo_1523" data-name="Grupo 1523" transform="translate(-198.891 -1203.969)">
    <g id="Grupo_1346" data-name="Grupo 1346">
      <path id="Caminho_2118" data-name="Caminho 2118" d="M239.631,1203.969v11.46l-8.9,15.773-10.192,5.91h0S228.9,1222.61,239.631,1203.969Z" fill="#b8b8b8"/>
      <path id="Caminho_2119" data-name="Caminho 2119" d="M239.631,1203.969v11.46l8.9,15.773,10.192,5.91h0Z" fill="#adadad"/>
      <path id="Caminho_2120" data-name="Caminho 2120" d="M258.72,1237.112c-3.322-1.886-6.944-4.012-10.266-5.9-6.036-.016-11.684,0-17.72-.012-6.192,3.62-10.192,5.91-10.192,5.91" fill="#aaa"/>
      <path id="Caminho_2121" data-name="Caminho 2121" d="M230.734,1231.2l8.9-15.773,8.9,15.773" fill="#b4b4b4"/>
      <path id="Caminho_1801-20" data-name="Caminho 1801-20" d="M234,1226.887a.157.157,0,0,1-.036.037l-.361.2-.221.121-.02.012a.071.071,0,0,0-.036.036l-.093.164v.008l-.128.233h0l-.108.193a.088.088,0,0,1-.045.04.085.085,0,0,1-.076,0,.1.1,0,0,1-.036-.036l-.237-.434-.092-.168a.077.077,0,0,0-.035-.036l-.064-.036-.539-.294a.091.091,0,0,1-.035-.12.081.081,0,0,1,.035-.036l.1-.056.229-.127.221-.122h0l.043-.024a.079.079,0,0,0,.036-.036l.076-.136.129-.233.124-.233a.088.088,0,0,1,.12-.032.081.081,0,0,1,.036.032l.329.6a.085.085,0,0,0,.037.036l.6.329A.1.1,0,0,1,234,1226.887Z" fill="#fff"/>
      <path id="Caminho_1801-21" data-name="Caminho 1801-21" d="M233.525,1231.306a.41.41,0,0,1-.093.093l-.932.507-.569.311-.052.031a.209.209,0,0,0-.093.093l-.238.425v.02l-.331.6v.011l-.28.5a.212.212,0,0,1-.113.1.221.221,0,0,1-.2-.01.21.21,0,0,1-.093-.093l-.611-1.118-.238-.435a.209.209,0,0,0-.093-.093l-.165-.093-1.387-.756a.234.234,0,0,1-.093-.31.2.2,0,0,1,.093-.093l.269-.145.59-.331.569-.311h.01l.114-.064a.209.209,0,0,0,.093-.093l.2-.352.331-.6.32-.6a.229.229,0,0,1,.31-.083.251.251,0,0,1,.094.083l.848,1.552a.206.206,0,0,0,.094.093l1.552.849A.248.248,0,0,1,233.525,1231.306Z" fill="#fff"/>
    </g>
    <g id="Grupo_1349" data-name="Grupo 1349">
      <g id="Caminho_260-24" data-name="Caminho 260-24">
        <path id="Caminho_2122" data-name="Caminho 2122" d="M267.7,1241.687v6.709q2.355-.129,4.646-.289,2.634-.183,5.188-.4c1.052-.087,2.088-.179,3.118-.276a2.862,2.862,0,0,0,2.557-2.393c.165-1-1.509-2.009-1.466-3.214.053-1.685,1.735-3.326,1.542-4.671a2.845,2.845,0,0,0-3.094-2.414q-2.055.194-4.164.368c-1.023.086-2.056,0-3.077.125a5.2,5.2,0,0,0-2.82,1.328,7.013,7.013,0,0,0-1.72,2.127,6.362,6.362,0,0,0-.368.868A6.462,6.462,0,0,0,267.7,1241.687Z" fill="#efefef"/>
      </g>
      <g id="Caminho_260-25" data-name="Caminho 260-25">
        <path id="Caminho_2123" data-name="Caminho 2123" d="M214.491,1242.679v6.709q-2.355-.127-4.645-.289-2.635-.183-5.189-.4c-1.051-.087-2.088-.179-3.119-.276a2.862,2.862,0,0,1-2.557-2.393c-.165-1,1.509-2.01,1.466-3.214-.053-1.685-1.734-3.326-1.541-4.671a2.843,2.843,0,0,1,3.093-2.414q2.055.194,4.163.368c1.024.086,2.056,0,3.08.126a5.2,5.2,0,0,1,2.82,1.328,7.037,7.037,0,0,1,1.718,2.128,6.266,6.266,0,0,1,.37.868A6.56,6.56,0,0,1,214.491,1242.679Z" fill="#efefef"/>
      </g>
      <g id="Caminho_260-26" data-name="Caminho 260-26">
        <path id="Caminho_261-10" data-name="Caminho 261-10" d="M275.55,1249.721a2.864,2.864,0,0,1-2.567,2.419c-9.624.9-20.146,1.479-31.452,1.492-11.635.014-22.447-.569-32.307-1.494a2.86,2.86,0,0,1-2.558-2.391,25.725,25.725,0,0,1-.324-3.324,26.088,26.088,0,0,1,.251-4.563,2.845,2.845,0,0,1,3.094-2.414c9.665.915,20.265,1.492,31.671,1.484,11.212-.009,21.641-.582,31.165-1.482a2.86,2.86,0,0,1,3.1,2.485,27.37,27.37,0,0,1,.227,4.479A27.782,27.782,0,0,1,275.55,1249.721Z" fill="#f4f4f4"/>
      </g>
      <g id="Grupo_1348" data-name="Grupo 1348">
        <g id="Grupo_1347" data-name="Grupo 1347">
          <path id="Caminho_2124" data-name="Caminho 2124" d="M217.6,1249.673a.588.588,0,0,1-.635-.537.555.555,0,0,1,.009-.163l.263-4.458a.589.589,0,0,1,.539-.635.579.579,0,0,1,.161.009l2.865.168a.44.44,0,0,1,.478.4.431.431,0,0,1-.006.124.444.444,0,0,1-.4.479.476.476,0,0,1-.125-.007l-2.316-.137-.08,1.355,2.126.125a.445.445,0,0,1,.485.4.6.6,0,0,1-.419.608.476.476,0,0,1-.125-.008l-2.127-.126-.084,1.445,2.315.135a.441.441,0,0,1,.478.4.454.454,0,0,1-.007.122.445.445,0,0,1-.531.472Z" fill="#9a9a9a"/>
          <path id="Caminho_2125" data-name="Caminho 2125" d="M223.854,1250.1a4.875,4.875,0,0,1-1.047-.163,3.14,3.14,0,0,1-.9-.378.536.536,0,0,1-.272-.346.607.607,0,0,1,.042-.4.469.469,0,0,1,.71-.206,2.6,2.6,0,0,0,.719.312,3.59,3.59,0,0,0,.792.127,1.488,1.488,0,0,0,.858-.146.551.551,0,0,0,.28-.452.452.452,0,0,0-.164-.386,1.684,1.684,0,0,0-.621-.267l-.92-.24q-1.539-.4-1.48-1.681a1.623,1.623,0,0,1,.341-.952,1.931,1.931,0,0,1,.854-.606,3.076,3.076,0,0,1,1.24-.175,3.774,3.774,0,0,1,.9.152,2.69,2.69,0,0,1,.766.361.524.524,0,0,1,.241.332.591.591,0,0,1-.047.377.46.46,0,0,1-.275.242.562.562,0,0,1-.453-.077,2.324,2.324,0,0,0-.566-.232,2.9,2.9,0,0,0-.621-.094,1.369,1.369,0,0,0-.81.165.608.608,0,0,0-.307.509.488.488,0,0,0,.155.394,1.379,1.379,0,0,0,.588.266l.92.239q1.58.419,1.522,1.634a1.585,1.585,0,0,1-.334.937,1.9,1.9,0,0,1-.85.6A3.174,3.174,0,0,1,223.854,1250.1Z" fill="#9a9a9a"/>
          <path id="Caminho_2126" data-name="Caminho 2126" d="M227.637,1250.241a.565.565,0,0,1-.424-.169.609.609,0,0,1-.135-.44l.139-4.76a.583.583,0,0,1,.169-.436.612.612,0,0,1,.448-.139.686.686,0,0,1,.388.11.963.963,0,0,1,.259.328l1.665,3.267,1.853-3.163a.937.937,0,0,1,.277-.314.688.688,0,0,1,.385-.088.533.533,0,0,1,.566.61l-.139,4.761a.516.516,0,0,1-.447.577.509.509,0,0,1-.146,0,.519.519,0,0,1-.572-.46.54.54,0,0,1,.006-.15l.087-3.016-1.419,2.385a.8.8,0,0,1-.216.228.489.489,0,0,1-.294.07.5.5,0,0,1-.294-.087.7.7,0,0,1-.2-.24l-1.278-2.439-.086,2.992a.517.517,0,0,1-.448.578A.531.531,0,0,1,227.637,1250.241Z" fill="#9a9a9a"/>
          <path id="Caminho_2127" data-name="Caminho 2127" d="M234.9,1250.35a.59.59,0,0,1-.657-.676l.058-4.466a.588.588,0,0,1,.508-.658.573.573,0,0,1,.166,0l2.87.036a.439.439,0,0,1,.5.37.4.4,0,0,1,0,.13.442.442,0,0,1-.376.5.452.452,0,0,1-.132,0l-2.32-.031-.017,1.358,2.13.028a.508.508,0,1,1-.016,1.007l-2.13-.028-.019,1.448,2.32.03a.439.439,0,0,1,.495.375.476.476,0,0,1,0,.125.444.444,0,0,1-.376.5.451.451,0,0,1-.132,0Z" fill="#9a9a9a"/>
          <path id="Caminho_2128" data-name="Caminho 2128" d="M239.847,1250.475a.632.632,0,0,1-.477-.172.676.676,0,0,1-.165-.486v-4.565a.574.574,0,0,1,.487-.65.546.546,0,0,1,.162,0h2a2.174,2.174,0,0,1,1.5.468,1.663,1.663,0,0,1,.528,1.308,1.722,1.722,0,0,1-.332,1.081,1.663,1.663,0,0,1-.95.589,1.239,1.239,0,0,1,.716.633l.511.945a.655.655,0,0,1,.067.58c-.072.179-.244.268-.518.268a.787.787,0,0,1-.444-.114.924.924,0,0,1-.3-.354l-.792-1.456a.684.684,0,0,0-.3-.311,1.014,1.014,0,0,0-.428-.082h-.625v1.661a.686.686,0,0,1-.159.486A.612.612,0,0,1,239.847,1250.475Zm.631-3.241h1.143q1.029,0,1.027-.823t-1.028-.813h-1.144Z" fill="#9a9a9a"/>
          <path id="Caminho_2129" data-name="Caminho 2129" d="M244.962,1250.459a.54.54,0,0,1-.5-.222.564.564,0,0,1,0-.567l2.03-4.648a1.014,1.014,0,0,1,.306-.412.754.754,0,0,1,.839-.013.984.984,0,0,1,.311.4l2.2,4.578a.586.586,0,0,1,.021.572.511.511,0,0,1-.46.233.637.637,0,0,1-.434-.125,1.063,1.063,0,0,1-.274-.406l-.359-.784-2.7.044-.325.8a1.176,1.176,0,0,1-.256.419A.558.558,0,0,1,244.962,1250.459Zm2.261-4.553-.877,2.2,1.858-.03-.965-2.173Z" fill="#9a9a9a"/>
          <path id="Caminho_2130" data-name="Caminho 2130" d="M251.6,1250.256a.651.651,0,0,1-.49-.154.661.661,0,0,1-.179-.476l-.138-4.513a.653.653,0,0,1,.149-.486.639.639,0,0,1,.472-.184.566.566,0,0,1,.649.47.543.543,0,0,1,0,.161l.126,4.085,2.2-.067a.479.479,0,0,1,.561.38.53.53,0,0,1,.006.138.484.484,0,0,1-.4.557.51.51,0,0,1-.135,0Z" fill="#9a9a9a"/>
          <path id="Caminho_2131" data-name="Caminho 2131" d="M256.324,1250.1a.587.587,0,0,1-.7-.635l-.2-4.462a.587.587,0,0,1,.635-.7l1.6-.073a3.255,3.255,0,0,1,2.327.649,3.228,3.228,0,0,1,.194,4.282,3.246,3.246,0,0,1-2.258.859Zm.561-1.071.92-.042a1.889,1.889,0,0,0,.294-3.727,1.622,1.622,0,0,0-.461.021l-.921.042Z" fill="#9a9a9a"/>
          <path id="Caminho_2132" data-name="Caminho 2132" d="M262.034,1249.9a.54.54,0,0,1-.506-.2.567.567,0,0,1-.027-.567l1.819-4.735a1.007,1.007,0,0,1,.287-.426.758.758,0,0,1,.838-.053.95.95,0,0,1,.328.388l2.4,4.476a.578.578,0,0,1,.045.57.508.508,0,0,1-.449.254.638.638,0,0,1-.439-.1,1.084,1.084,0,0,1-.292-.394l-.393-.767-2.7.167-.287.809a1.2,1.2,0,0,1-.238.43A.567.567,0,0,1,262.034,1249.9Zm2.054-4.65-.777,2.24,1.855-.115-1.061-2.126Z" fill="#9a9a9a"/>
        </g>
      </g>
    </g>
  </g>
</svg>
