<svg xmlns="http://www.w3.org/2000/svg" width="174.687" height="91.14" viewBox="0 0 174.687 91.14">
  <g id="Grupo_1298" data-name="Grupo 1298" transform="translate(-4832.974 1088.44)" opacity="0.2">
    <path id="Caminho_2032" data-name="Caminho 2032" d="M5003.121-1022.363" fill="none" stroke="#5cb5bc" stroke-width="3.18"/>
    <rect id="Retângulo_397" data-name="Retângulo 397" width="19.336" height="35.755" transform="translate(4910.653 -1034.645)" fill="#76c9cf"/>
    <path id="Caminho_13745" data-name="Caminho 13745" d="M0,0H8.078V24.894H0Z" transform="translate(4891.476 -1034.637)" fill="#f3f3f3"/>
    <path id="Caminho_2033" data-name="Caminho 2033" d="M4941.087-1034.636v24.89h8.08v-24.89Zm0,0v24.89h8.08v-24.89Zm0,0v24.89h8.08v-24.89Zm0,0v24.89h8.08v-24.89Zm-20.41-47.14-40.56,18v63.3h27.36v-34.17a3.175,3.175,0,0,1,3.18-3.18h19.33a3.182,3.182,0,0,1,3.18,3.18v34.17h28.06v-63.3Zm-25.06,20.1a1.688,1.688,0,0,1,1.69-1.69h46.13a1.694,1.694,0,0,1,1.69,1.69v4.22a1.694,1.694,0,0,1-1.69,1.69h-46.13a1.688,1.688,0,0,1-1.69-1.69Zm7.12,51.93a3.181,3.181,0,0,1-3.18,3.18h-8.08a3.175,3.175,0,0,1-3.18-3.18v-24.89a3.182,3.182,0,0,1,3.18-3.18h8.08a3.188,3.188,0,0,1,3.18,3.18Zm-5.49-33.25a1.686,1.686,0,0,1-1.69-1.68v-4.23a1.686,1.686,0,0,1,1.69-1.68h46.14a1.677,1.677,0,0,1,1.68,1.68v4.23a1.677,1.677,0,0,1-1.68,1.68Zm55.1,33.25a3.182,3.182,0,0,1-3.18,3.18h-8.08a3.175,3.175,0,0,1-3.18-3.18v-24.89a3.182,3.182,0,0,1,3.18-3.18h8.08a3.188,3.188,0,0,1,3.18,3.18Zm-11.26,0h8.08v-24.89h-8.08Zm0-24.89v24.89h8.08v-24.89Zm0,0v24.89h8.08v-24.89Zm0,0v24.89h8.08v-24.89Zm0,0v24.89h8.08v-24.89Z" fill="#fed502"/>
    <path id="Caminho_2034" data-name="Caminho 2034" d="M4910.653-1000.48v3.164h-1.59v.008h20.927v-3.172Z" fill="#5cb5bc"/>
    <rect id="Retângulo_399" data-name="Retângulo 399" width="19.336" height="3.085" transform="translate(4910.653 -1000.433)" fill="#5cb5bc"/>
    <path id="Caminho_2035" data-name="Caminho 2035" d="M4979.679-1059.07" fill="none" stroke="#5cb5bc" stroke-linecap="round" stroke-width="6.361"/>
    <rect id="Retângulo_400" data-name="Retângulo 400" width="19.336" height="37.329" transform="translate(4910.653 -1034.645)" fill="#f3f3f3"/>
    <path id="Caminho_2036" data-name="Caminho 2036" d="M4907.845-998.1" fill="#fff" stroke="#5cb5bc" stroke-width="3.18"/>
    <g id="Grupo_1295" data-name="Grupo 1295">
      <rect id="Retângulo_401" data-name="Retângulo 401" width="1.59" height="0.008" transform="translate(4909.063 -997.316)" fill="#f9c900"/>
      <path id="Caminho_2037" data-name="Caminho 2037" d="M5006.119-1000.433h-17.413v-51.147l7.275,3.228a3.228,3.228,0,0,0,1.288.27,3.173,3.173,0,0,0,2.91-1.892,3.173,3.173,0,0,0-1.614-4.19l-76.5-33.958-.1-.048c-.063-.023-.127-.055-.19-.071l-.215-.072a4.1,4.1,0,0,0-.429-.095,3.177,3.177,0,0,0-.955.008c-.055.008-.119.024-.175.031s-.143.04-.214.056-.151.048-.215.072-.127.048-.191.071l-.024.016-76.574,33.99a3.167,3.167,0,0,0-1.614,4.19,3.166,3.166,0,0,0,2.91,1.892,3.221,3.221,0,0,0,1.288-.27l7.267-3.228v51.147h-18.12a1.544,1.544,0,0,0-1.542,1.543,1.543,1.543,0,0,0,1.542,1.542h42.426v.048h87.467v-.048h41.71a1.543,1.543,0,0,0,1.542-1.542A1.544,1.544,0,0,0,5006.119-1000.433Zm-129.177,0h-21.125v-52.554l21.125-9.382Zm53.048,3.125h-20.927v-.008h1.59v-37.329h19.337Zm31.238-3.172H4933.17v-34.165a3.184,3.184,0,0,0-3.18-3.18h-19.337a3.179,3.179,0,0,0-3.18,3.18v34.165h-27.351v-63.3l40.557-18,40.549,18Zm24.3.047h-21.117v-61.936l21.117,9.374Z" fill="#f9c900"/>
    </g>
    <g id="Grupo_1296" data-name="Grupo 1296">
      <path id="Caminho_2038" data-name="Caminho 2038" d="M4899.554-1037.817h-8.078a3.184,3.184,0,0,0-3.18,3.18v24.894a3.179,3.179,0,0,0,3.18,3.18h8.078a3.184,3.184,0,0,0,3.18-3.18v-24.894A3.189,3.189,0,0,0,4899.554-1037.817Zm-8.078,3.18h8.078v24.894h-8.078Z" fill="#f9c900"/>
    </g>
    <g id="Grupo_1297" data-name="Grupo 1297">
      <path id="Caminho_2039" data-name="Caminho 2039" d="M4949.167-1037.817h-8.078a3.184,3.184,0,0,0-3.18,3.18v24.894a3.179,3.179,0,0,0,3.18,3.18h8.078a3.184,3.184,0,0,0,3.18-3.18v-24.894A3.19,3.19,0,0,0,4949.167-1037.817Zm-8.078,3.18h8.078v24.894h-8.078Z" fill="#f9c900"/>
      <rect id="Retângulo_403" data-name="Retângulo 403" width="8.078" height="24.894" transform="translate(4941.089 -1034.637)" fill="#f3f3f3"/>
    </g>
  </g>
</svg>
