<svg xmlns="http://www.w3.org/2000/svg" width="66.696" height="66.696" viewBox="0 0 66.696 66.696">
  <g id="Grupo_1908" data-name="Grupo 1908" transform="translate(-146.695 -366.334)">
    <path id="Elipse_30-4-23" data-name="Elipse 30-4-23" d="M-7122.563-5391.942a31.683,31.683,0,0,1,31.683,31.683,31.683,31.683,0,0,1-31.683,31.683,31.683,31.683,0,0,1-31.683-31.683A31.683,31.683,0,0,1-7122.563-5391.942Z" transform="translate(7302.336 5759.941)" fill="#f4de9b" stroke="#ed7100" stroke-width="2.332"/>
    <g id="Grupo_1874" data-name="Grupo 1874" transform="translate(7302.336 5759.941)" opacity="0.53">
      <path id="Caminho_13750" data-name="Caminho 13750" d="M-7097.046-5344.1l-11.48,14.013-15.44-9.475-3.959-23.487,11.48-14.013,15.44,9.475Z" fill="#fff086"/>
      <path id="Caminho_13751" data-name="Caminho 13751" d="M-7120.981-5358.429l-6.945-4.623h0l11.48-14.012c1.192,7.069,1.832,10.864,1.832,10.864h0Z" fill="#fff1ae"/>
      <path id="Caminho_13752" data-name="Caminho 13752" d="M-7097.046-5344.1l-11.48,14.013-2.175-12.9-3.959-23.487-1.785-10.585,15.44,9.475Z" fill="#f9c900"/>
      <path id="Caminho_13753" data-name="Caminho 13753" d="M-7098.684-5353.813l1.637,9.711-11.48,14.012-15.44-9.474h0l5.182-5.84h0Z" fill="#f9c900"/>
      <path id="Caminho_13754" data-name="Caminho 13754" d="M-7103.856-5347.921l-6.366,7.771-8.562-5.254-2.2-13.025,6.366-7.771,8.562,5.254Z" fill="#fed502"/>
      <path id="Caminho_1801" data-name="Caminho 1801" d="M-7116.484-5365.615a.216.216,0,0,1,.036-.051l.4-.311.242-.192.022-.018a.1.1,0,0,0,.037-.051l.078-.218,0-.01.108-.308v0l.092-.255a.106.106,0,0,1,.046-.058.107.107,0,0,1,.093-.011.1.1,0,0,1,.051.037l.375.476.146.185a.1.1,0,0,0,.051.037l.085.03.711.245a.112.112,0,0,1,.069.139.106.106,0,0,1-.037.051l-.115.089-.25.2-.243.191h0l-.048.039a.1.1,0,0,0-.037.051l-.064.181-.108.308-.1.307a.109.109,0,0,1-.139.064.106.106,0,0,1-.05-.032l-.522-.662a.1.1,0,0,0-.051-.036l-.8-.275A.12.12,0,0,1-7116.484-5365.615Z" fill="#fff"/>
      <path id="Caminho_1801-2" data-name="Caminho 1801" d="M-7121.418-5361.185a.484.484,0,0,1,.094-.132l1.024-.8.626-.493.056-.048a.252.252,0,0,0,.094-.132l.2-.562,0-.025.278-.794,0-.013.237-.659a.262.262,0,0,1,.117-.148.269.269,0,0,1,.24-.028.247.247,0,0,1,.131.094l.968,1.229.377.477a.254.254,0,0,0,.132.1l.219.078,1.834.632a.289.289,0,0,1,.176.357.247.247,0,0,1-.094.132l-.3.23-.647.521-.626.493-.012,0-.125.1a.252.252,0,0,0-.094.131l-.166.466-.279.795-.264.792a.284.284,0,0,1-.359.164.294.294,0,0,1-.13-.082l-1.345-1.706a.25.25,0,0,0-.132-.094l-2.053-.71A.3.3,0,0,1-7121.418-5361.185Z" fill="#fff"/>
    </g>
    <path id="Elipse_30-4-2-2" data-name="Elipse 30-4-2-2" d="M-7122.293-5391.942a31.683,31.683,0,0,1,31.683,31.683,31.683,31.683,0,0,1-31.683,31.683,31.683,31.683,0,0,1-31.683-31.683A31.683,31.683,0,0,1-7122.293-5391.942Z" transform="translate(7302.336 5759.941)" fill="none" stroke="#ffc400" stroke-width="3.33"/>
  </g>
</svg>
