<svg xmlns="http://www.w3.org/2000/svg" width="66.696" height="66.696" viewBox="0 0 66.696 66.696">
  <g id="Grupo_2038" data-name="Grupo 2038" transform="translate(-238.605 -521.535)">
    <path id="Elipse_30-4-23" data-name="Elipse 30-4-23" d="M-6139.781-5414.849a31.683,31.683,0,0,1,31.683,31.683h0a31.683,31.683,0,0,1-31.683,31.683h0a31.683,31.683,0,0,1-31.683-31.683h0a31.683,31.683,0,0,1,31.683-31.683Z" transform="translate(6411.464 5938.049)" fill="#ddd" stroke="#9e9e9e" stroke-width="2.332"/>
    <g id="Grupo_1874" data-name="Grupo 1874" transform="translate(6411.464 5938.049)">
      <path id="Caminho_13750" data-name="Caminho 13750" d="M-6114.264-5367.007l-11.48,14.013-15.44-9.475-3.959-23.487,11.48-14.013,15.44,9.475Z" fill="#e9e9e9"/>
      <path id="Caminho_13751" data-name="Caminho 13751" d="M-6138.2-5381.336l-6.945-4.623h0l11.48-14.013c1.192,7.069,1.832,10.864,1.832,10.864h0Z" fill="#eee"/>
      <path id="Caminho_13752" data-name="Caminho 13752" d="M-6114.264-5367.007l-11.48,14.013-2.175-12.9-3.959-23.487-1.785-10.585,15.44,9.475Z" fill="#c1c1c1"/>
      <path id="Caminho_13753" data-name="Caminho 13753" d="M-6115.9-5376.72l1.637,9.711-11.48,14.012-15.44-9.474h0l5.182-5.84h0Z" fill="#c1c1c1"/>
      <path id="Caminho_13754" data-name="Caminho 13754" d="M-6121.074-5370.828l-6.367,7.771-8.562-5.254-2.2-13.025,6.366-7.771,8.562,5.254Z" fill="#cacaca"/>
      <path id="Caminho_1801" data-name="Caminho 1801" d="M-6133.7-5388.522a.211.211,0,0,1,.036-.051l.4-.311.242-.192.022-.018a.1.1,0,0,0,.037-.051l.078-.218v-.01l.108-.308h0l.092-.255a.11.11,0,0,1,.046-.058.108.108,0,0,1,.093-.011.1.1,0,0,1,.05.037l.375.476.146.185a.1.1,0,0,0,.051.037l.085.03.711.245a.113.113,0,0,1,.069.14.1.1,0,0,1-.037.05l-.115.089-.25.2-.244.191h0l-.047.039a.106.106,0,0,0-.038.051l-.064.181-.107.308-.1.308a.108.108,0,0,1-.139.063.106.106,0,0,1-.05-.032l-.522-.662a.1.1,0,0,0-.05-.036l-.8-.275A.12.12,0,0,1-6133.7-5388.522Z" fill="#fff"/>
      <path id="Caminho_1801-2" data-name="Caminho 1801-2" d="M-6138.636-5384.092a.48.48,0,0,1,.094-.132l1.024-.8.626-.493.056-.048a.251.251,0,0,0,.094-.132l.2-.562v-.025l.278-.794v-.013l.237-.659a.265.265,0,0,1,.117-.148.269.269,0,0,1,.24-.028.243.243,0,0,1,.131.094l.968,1.229.377.478a.257.257,0,0,0,.132.1l.219.078,1.834.632a.288.288,0,0,1,.176.356.246.246,0,0,1-.094.132l-.3.23-.647.521-.626.493h-.012l-.125.1a.258.258,0,0,0-.095.13l-.166.466-.278.8-.265.792a.282.282,0,0,1-.358.164.289.289,0,0,1-.13-.082l-1.346-1.706a.252.252,0,0,0-.131-.094l-2.054-.71A.3.3,0,0,1-6138.636-5384.092Z" fill="#fff"/>
    </g>
    <path id="Elipse_30-4-2-2" data-name="Elipse 30-4-2-2" d="M-6139.511-5414.849a31.683,31.683,0,0,1,31.683,31.683h0a31.683,31.683,0,0,1-31.683,31.683h0a31.683,31.683,0,0,1-31.683-31.683h0a31.683,31.683,0,0,1,31.683-31.683Z" transform="translate(6411.464 5938.049)" fill="none" stroke="#9e9e9e" stroke-width="3.33"/>
  </g>
</svg>
