<svg xmlns="http://www.w3.org/2000/svg" width="35.728" height="62.344" viewBox="0 0 35.728 62.344">
  <g id="Grupo_1525" data-name="Grupo 1525" transform="translate(-25.819 -48.951)">
    <g id="Grupo_1337" data-name="Grupo 1337" transform="translate(25.82 48.951)">
      <path id="Caminho_2094" data-name="Caminho 2094" d="M-3832.11-3119.122l-17.864,15.587-17.863-15.587v-31.172l17.863-15.586,17.864,15.586Z" transform="translate(3867.838 3165.879)" fill="#fff086"/>
      <path id="Caminho_2095" data-name="Caminho 2095" d="M-3859.88-3142.817l-7.958-7.476h0l17.864-15.585v14.418h0Z" transform="translate(3867.838 3165.879)" fill="#fff1ae"/>
      <path id="Caminho_2096" data-name="Caminho 2096" d="M-3838.858-3119.122l-17.864,15.587v-62.344l17.864,15.586Z" transform="translate(3874.586 3165.879)" fill="#f9c900"/>
      <path id="Caminho_2097" data-name="Caminho 2097" d="M-3832.11-3144.8v12.889l-17.864,15.586-17.864-15.586h0l7.958-6.409h0S-3850.93-3140.413-3832.11-3144.8Z" transform="translate(3867.838 3178.674)" fill="#f9c900"/>
      <path id="Caminho_2098" data-name="Caminho 2098" d="M-3843.073-3130.977l-9.906,8.643-9.906-8.643v-17.286l9.906-8.643,9.906,8.643Z" transform="translate(3870.844 3171.326)" fill="#fed502"/>
      <path id="Caminho_1801" data-name="Caminho 1801" d="M-3858.3-3156.052a.216.216,0,0,1,.057-.058l.581-.317.354-.192.034-.019a.134.134,0,0,0,.058-.06l.148-.264v-.012l.206-.375v-.006l.175-.31a.134.134,0,0,1,.071-.064.143.143,0,0,1,.122.006.134.134,0,0,1,.057.058l.381.7.147.27a.141.141,0,0,0,.058.06l.1.058.863.47a.146.146,0,0,1,.059.193.129.129,0,0,1-.059.058l-.167.09-.368.207-.354.193h-.006l-.073.04a.136.136,0,0,0-.058.058l-.122.219-.206.375-.2.374a.144.144,0,0,1-.194.052.143.143,0,0,1-.058-.052l-.529-.967a.13.13,0,0,0-.058-.058l-.968-.529A.154.154,0,0,1-3858.3-3156.052Z" transform="translate(3873.621 3170.82)" fill="#fff"/>
      <path id="Caminho_1801-2" data-name="Caminho 1801" d="M-3862.851-3152.156a.644.644,0,0,1,.149-.151l1.5-.813.915-.5.083-.05a.337.337,0,0,0,.151-.151l.382-.681v-.032l.531-.966v-.016l.449-.8a.352.352,0,0,1,.183-.166.351.351,0,0,1,.315.016.317.317,0,0,1,.149.15l.982,1.8.383.7a.332.332,0,0,0,.15.151l.266.149,2.229,1.213a.378.378,0,0,1,.15.5.334.334,0,0,1-.15.15l-.432.233-.948.532-.916.5h-.016l-.183.1a.328.328,0,0,0-.15.147l-.315.566-.533.966-.514.964a.369.369,0,0,1-.5.133.382.382,0,0,1-.149-.133l-1.365-2.5a.32.32,0,0,0-.149-.147l-2.5-1.365A.4.4,0,0,1-3862.851-3152.156Z" transform="translate(3870.844 3171.567)" fill="#fff"/>
    </g>
  </g>
</svg>
