<svg xmlns="http://www.w3.org/2000/svg" width="84.413" height="55.231" viewBox="0 0 84.413 55.231">
  <g id="Grupo_1817" data-name="Grupo 1817" transform="translate(-266.001 -327.299)">
    <g id="Grupo_1525" data-name="Grupo 1525" transform="translate(68.369 -957.015)">
      <g id="Grupo_1505" data-name="Grupo 1505">
        <g id="Grupo_1504" data-name="Grupo 1504">
          <g id="Caminho_260-27" data-name="Caminho 260-27">
            <path id="Caminho_2099" data-name="Caminho 2099" d="M266.444,1327.6v6.709q2.354-.129,4.645-.289,2.636-.183,5.19-.4c1.051-.087,2.088-.179,3.117-.276a2.86,2.86,0,0,0,2.558-2.393c.164-1-1.51-2.009-1.466-3.214.054-1.685,1.733-3.326,1.541-4.671a2.844,2.844,0,0,0-3.093-2.414q-2.054.194-4.162.368c-1.025.086-2.058,0-3.079.125a5.192,5.192,0,0,0-2.821,1.328,7.041,7.041,0,0,0-1.72,2.127,6.317,6.317,0,0,0-.368.868A6.488,6.488,0,0,0,266.444,1327.6Z" fill="#dcdcdc"/>
          </g>
          <g id="Caminho_260-28" data-name="Caminho 260-28">
            <path id="Caminho_2100" data-name="Caminho 2100" d="M213.231,1328.592v6.709q-2.355-.128-4.645-.289-2.634-.183-5.189-.4c-1.051-.087-2.088-.179-3.118-.276a2.86,2.86,0,0,1-2.558-2.393c-.164-1,1.51-2.01,1.466-3.214-.053-1.685-1.734-3.326-1.54-4.671a2.844,2.844,0,0,1,3.093-2.414q2.055.193,4.162.368c1.025.086,2.058,0,3.08.126a5.2,5.2,0,0,1,2.82,1.328,7.047,7.047,0,0,1,1.72,2.128,6.362,6.362,0,0,1,.368.868A6.507,6.507,0,0,1,213.231,1328.592Z" fill="#dcdcdc"/>
          </g>
          <g id="Caminho_260-29" data-name="Caminho 260-29">
            <path id="Caminho_261-11" data-name="Caminho 261-11" d="M274.294,1335.634a2.862,2.862,0,0,1-2.568,2.419c-9.623.9-20.146,1.479-31.451,1.492-11.635.014-22.446-.569-32.306-1.494a2.862,2.862,0,0,1-2.559-2.391,25.988,25.988,0,0,1-.072-7.887,2.846,2.846,0,0,1,3.094-2.414c9.664.915,20.265,1.492,31.671,1.484,11.212-.009,21.64-.582,31.165-1.482a2.86,2.86,0,0,1,3.1,2.485,27.541,27.541,0,0,1-.074,7.788Z" fill="#ededed"/>
          </g>
        </g>
        <g id="Grupo_1339" data-name="Grupo 1339">
          <g id="Grupo_1338" data-name="Grupo 1338">
            <path id="Caminho_2101" data-name="Caminho 2101" d="M225.074,1336.309a.636.636,0,0,1-.475-.192.687.687,0,0,1-.146-.5l.164-4.2-1.468-.058a.471.471,0,0,1-.521-.417.436.436,0,0,1,0-.135.471.471,0,0,1,.421-.516.448.448,0,0,1,.137.006l4.222.164a.474.474,0,0,1,.522.42.448.448,0,0,1,0,.132.474.474,0,0,1-.428.516.489.489,0,0,1-.132-.006l-1.467-.058-.164,4.2a.7.7,0,0,1-.181.483A.616.616,0,0,1,225.074,1336.309Z" fill="#373737"/>
            <path id="Caminho_2102" data-name="Caminho 2102" d="M230.628,1336.505a2.956,2.956,0,0,1-1.5-.415,2.614,2.614,0,0,1-.988-1.078,3.68,3.68,0,0,1,.077-3.181,2.574,2.574,0,0,1,1.032-1.024,3.281,3.281,0,0,1,3.042.074,2.6,2.6,0,0,1,.988,1.073,3.333,3.333,0,0,1,.323,1.59,3.367,3.367,0,0,1-.4,1.584,2.6,2.6,0,0,1-1.037,1.033A2.988,2.988,0,0,1,230.628,1336.505Zm.027-1.1a1.382,1.382,0,0,0,1.154-.483,2.647,2.647,0,0,0,.073-2.825,1.542,1.542,0,0,0-2.278-.056,2.633,2.633,0,0,0-.068,2.825,1.369,1.369,0,0,0,1.119.543Z" fill="#373737"/>
            <path id="Caminho_2103" data-name="Caminho 2103" d="M235.151,1336.573a.635.635,0,0,1-.479-.179.673.673,0,0,1-.163-.49l.04-4.607a.58.58,0,0,1,.5-.652.6.6,0,0,1,.164,0l2.017.018a2.132,2.132,0,0,1,1.5.508,1.782,1.782,0,0,1,.521,1.377,1.813,1.813,0,0,1-.545,1.375,2.125,2.125,0,0,1-1.513.483l-1.386-.012-.013,1.519a.687.687,0,0,1-.166.489A.624.624,0,0,1,235.151,1336.573Zm.667-3.174,1.168.01c.681,0,1.024-.284,1.029-.871s-.334-.866-1.013-.871l-1.171-.01Z" fill="#373737"/>
            <path id="Caminho_2104" data-name="Caminho 2104" d="M239.543,1336.61a.546.546,0,0,1-.5-.23.57.57,0,0,1,.005-.573l2.1-4.667a1.017,1.017,0,0,1,.313-.412.765.765,0,0,1,.846-.005.966.966,0,0,1,.31.41l2.165,4.646a.585.585,0,0,1,.016.576.518.518,0,0,1-.468.231.656.656,0,0,1-.438-.13,1.093,1.093,0,0,1-.271-.414l-.353-.8-2.731.014-.337.8a1.174,1.174,0,0,1-.263.42A.567.567,0,0,1,239.543,1336.61Zm2.334-4.569-.909,2.214,1.875-.01-.948-2.2Zm.5-1.928a.392.392,0,0,1-.264.13.4.4,0,0,1-.254-.077.379.379,0,0,1-.146-.211.315.315,0,0,1,.056-.262l.594-.883a.406.406,0,0,1,.319-.209.538.538,0,0,1,.345.1.482.482,0,0,1,.2.28.365.365,0,0,1-.106.338Z" fill="#373737"/>
            <path id="Caminho_2105" data-name="Caminho 2105" d="M245.925,1336.482a.647.647,0,0,1-.5-.168.572.572,0,0,1-.15-.458,1.116,1.116,0,0,1,.239-.577l2.658-3.622-2.44.048a.488.488,0,0,1-.574-.528q-.011-.539.553-.542l3.336-.067a.661.661,0,0,1,.506.169.553.553,0,0,1,.155.454,1.114,1.114,0,0,1-.245.581l-2.653,3.623,2.564-.05q.566-.012.576.52c.007.354-.178.543-.554.55Z" fill="#373737"/>
            <path id="Caminho_2106" data-name="Caminho 2106" d="M251.267,1336.433a.628.628,0,0,1-.486-.16.689.689,0,0,1-.181-.485l-.138-4.67a.579.579,0,0,1,.462-.676.6.6,0,0,1,.164-.007q.639-.021.658.644l.14,4.671a.577.577,0,0,1-.619.683Z" fill="#373737"/>
            <path id="Caminho_2107" data-name="Caminho 2107" d="M255.789,1336.289a2.954,2.954,0,0,1-1.529-.314,2.615,2.615,0,0,1-1.054-1.013,3.645,3.645,0,0,1-.127-3.172,2.609,2.609,0,0,1,.964-1.091,2.986,2.986,0,0,1,1.5-.436,3.02,3.02,0,0,1,1.538.31,2.592,2.592,0,0,1,1.055,1.008,3.288,3.288,0,0,1,.426,1.564,3.358,3.358,0,0,1-.294,1.608,2.614,2.614,0,0,1-.967,1.1A2.98,2.98,0,0,1,255.789,1336.289Zm-.045-1.095a1.381,1.381,0,0,0,1.119-.556,2.658,2.658,0,0,0-.112-2.832,1.547,1.547,0,0,0-2.279.094,2.647,2.647,0,0,0,.118,2.832A1.37,1.37,0,0,0,255.744,1335.194Z" fill="#373737"/>
          </g>
        </g>
      </g>
    </g>
    <g id="Grupo_1812" data-name="Grupo 1812">
      <g id="Grupo_1337" data-name="Grupo 1337" transform="translate(68.369 -957.015)">
        <path id="Caminho_2094" data-name="Caminho 2094" d="M250.863,1313.414l-11.116,9.7-11.115-9.7v-19.4l11.115-9.7,11.116,9.7Z" fill="#ebebeb"/>
        <path id="Caminho_2095" data-name="Caminho 2095" d="M233.583,1298.669l-4.952-4.652h0l11.116-9.7v8.972h0Z" fill="#ededed"/>
        <path id="Caminho_2096" data-name="Caminho 2096" d="M250.863,1313.414l-11.115,9.7v-38.793l11.115,9.7Z" fill="#c3c3c3"/>
        <path id="Caminho_2097" data-name="Caminho 2097" d="M250.863,1305.4v8.02l-11.116,9.7-11.116-9.7h0l4.952-3.988h0Z" fill="#c3c3c3"/>
        <path id="Caminho_2098" data-name="Caminho 2098" d="M245.911,1309.426l-6.164,5.378-6.164-5.378V1298.67l6.164-5.378,6.164,5.378Z" fill="#cecece"/>
        <path id="Caminho_1801-22" data-name="Caminho 1801-22" d="M238.169,1293.508a.136.136,0,0,1,.036-.036l.361-.2.22-.12.021-.012a.086.086,0,0,0,.036-.037l.092-.164v-.008l.128-.233h0l.108-.193a.091.091,0,0,1,.044-.04.085.085,0,0,1,.076,0,.079.079,0,0,1,.036.036l.237.434.092.168a.092.092,0,0,0,.036.037l.065.036.537.293a.09.09,0,0,1,.037.12.086.086,0,0,1-.037.036l-.1.056-.229.128-.22.121h0l-.045.024a.1.1,0,0,0-.036.036l-.076.136-.127.233-.124.233a.091.091,0,0,1-.122.032.084.084,0,0,1-.035-.032l-.33-.6a.087.087,0,0,0-.035-.036l-.6-.329A.1.1,0,0,1,238.169,1293.508Z" fill="#fff"/>
        <path id="Caminho_1801-23" data-name="Caminho 1801-23" d="M233.6,1296.4a.378.378,0,0,1,.093-.094l.931-.506.569-.311.052-.031a.214.214,0,0,0,.094-.094l.238-.424v-.02l.33-.6v-.01l.28-.5a.234.234,0,0,1,.314-.091.209.209,0,0,1,.093.093l.611,1.118.238.434a.207.207,0,0,0,.093.094l.166.093,1.387.755a.236.236,0,0,1,.093.311.2.2,0,0,1-.093.093l-.269.145-.59.331-.57.312h-.01l-.114.063a.2.2,0,0,0-.093.093l-.2.352-.332.6-.32.6a.23.23,0,0,1-.31.083.241.241,0,0,1-.093-.083l-.849-1.553a.2.2,0,0,0-.093-.092l-1.553-.849A.248.248,0,0,1,233.6,1296.4Z" fill="#fff"/>
      </g>
      <g id="Grupo_1805" data-name="Grupo 1805" transform="translate(4888.001 -2451.156)">
        <g id="Grupo_1337-2" data-name="Grupo 1337-2">
          <path id="Caminho_13699" data-name="Caminho 13699" d="M-4568.766,2797.853v9.7l-11.11,9.7-11.12-9.7v-9.7Z" fill="#fff086"/>
          <path id="Caminho_13700" data-name="Caminho 13700" d="M-4568.766,2797.853v9.7l-11.11,9.7v-19.4Z" fill="#f9c900"/>
          <path id="Caminho_2097-2" data-name="Caminho 2097-2" d="M-4568.764,2799.536v8.02l-11.116,9.7-11.116-9.7h0l4.952-3.988h0Z" fill="#f9c900"/>
          <path id="Caminho_13701" data-name="Caminho 13701" d="M-4573.716,2797.853v5.71l-6.16,5.38-6.16-5.37-.01-.01v-5.71Z" fill="#fed502"/>
        </g>
      </g>
    </g>
  </g>
</svg>
