<svg xmlns="http://www.w3.org/2000/svg" width="354.824" height="358.781" viewBox="0 0 354.824 358.781"><defs><style>.a{fill:#dee4df;fill-rule:evenodd;}</style></defs><g transform="translate(-4560.354 7817.726)"><path class="a" d="M486.933,331.279v-2.736l-.3-.613v-4.855l.3-.91V316.7l.608-1.215.314-1.212.3-.907.3-1.521V310.62l.608-1.519.305-1.207.3-1.218.614-1.518.907-1.221.611-1.518.6-1.211.613-1.213.913-1.523.913-1.221.907-1.518.913-1.212L497.88,293l1.212-1.212.916-1.213,1.218-1.218,1.213-1.515,1.521-.922,1.515-1.515,1.832-.914,1.823-1.21,1.521-.9,1.823-1.221,2.131-1.215,1.823-.91,2.131-.919,2.126-1.212,2.434-.605,2.428-.6,2.437-.608,2.73-.907,2.745-.613,2.73-.6,3.044-.608,2.736-.305,3.338-.305,3.353-.308,3.641-.305v.614l-.309,1.218-.293.3v.919l-.305.6V276.3l-.3,1.224v.9l-.311,1.218v1.215l-.3.907-.3,1.215v1.512l-.3,1.222-.308,1.207v1.524l-.608,1.215-.3,1.518-.305,1.215-.308,1.522-.608,1.814-.308,1.518-.6,1.221-.3,1.523-.616,1.511-.6,1.521-.61,1.524-.6,1.518-.3,1.826-1.218,1.207-.6,1.822-.913,1.521-.611,1.521-1.221,1.518-.91,1.515-.916,1.522-.91,1.518-1.218,1.218-.9,1.212-1.213,1.521-1.521,1.21-1.221,1.218L528.9,327.63l-1.524,1.212-1.21,1.212-1.524.913-1.826.913-1.524.916-1.521,1.215-1.818.6-2.137.611-1.82.911-1.82.611-2.131.608-1.826.6h-2.428l-1.829.608-2.431.305-2.437.3h-4.862v-1.526l.305-.9.305-1.522.305-1.213.6-.613v-.6l.616-.916.907-.6.3-.605.608-.619.614-.6.907-.614.91-.6.919-.611.91-.3,1.521-.609h.3l.616-.3.913-.3H507l.907-.308h6.086l.611.308h2.128l-.613-.916-.306-.611-.6-.3-.611-.608-.314-.294-.9-.616-1.218-.3-.913-.3-1.521-.308h-2.131l-.916.308h-.9l-.913.3-.916.3-.91.305v-.305l.614-.6.6-.91.922-1.218.608-.6.6-.614.611-.9.907-.314.616-.907.6-.611.913-.9,1.218-.611.6-.608,1.215-.6.913-.919,1.221-.6.9-.61,1.215-.611,1.224-.3,1.21-.311.916-.606,1.215-.305h6.083l.6.608h.913l.611.3v-.3l-.916-.608-.608-.608-.6-.6-.611-.614-.916-.3-1.215-.305-.907-.608-1.215-.611H521.9l-.61-.3h-1.521l-.913.3h-.9l-.616.305h-.6l-.919.306v-.306l.306-.305.613-.6.6-.916.913-.91,1.221-.91.608-.61.608-.606.6-.6.913-.611.61-.6,1.21-.611.616-.6.907-.619.91-.294.916-.611,1.215-.613,1.213-.294.913-.308,1.224-.61h1.215l1.512-.306.919-.3h3.957l-.922-.611-.6-.3H537.1l-.91-.308-.9-.3h-.913l-.913-.305-1.221-.3h-3.649l-.916.6.311-.6.305-.611.3-.6.608-.3.6-.614.913-.6.619-.913.9-.611,1.221-.907,1.207-.91.619-.308.6-.3.916-.618.6-.3.611-.3.6-.611.922-.3,1.215-.6H536.8l-.916.6-1.218.3-1.207.611-1.221.6-1.218.618-1.218.6-.6.3-.907.308-.616.6-.6.611-1.215.913-1.213,1.215h0l-.305-.6-.311-.913-.6-.91-.913-1.221-.6-.9-1.215-.618h-1.215l.3.618v3.946l-.3.6v.916l-.305.6v.611l-.308.9-.3.911-.311.608-.3.916-.616.6-.3,1.224-.3.6-.919.913-.6.611-.611.913-.913.9-.91.909-.916.611-.907,1.221-.308-.308V300.9l-.608-.9v-.608l-.3-.916-.611-.6-.6-.619-.308-.9-.91-.613-.613-.6-.9-.61h-.913v.305l.306.614.294.907.314.9.305,1.221.3.611v1.512l.3,1.214-.3.611v2.739l-.3.91-.305,1.212v1.212l-.314.913-.6,1.214-.616,1.221-.3.91-.91,1.212-.61,1.218-.608,1.212-1.221,1.21-.91,1.214V317.6l-.305-.608v-.6l-.3-.913v-.608l-.3-.91-.305-.6-.608-.919-.308-.6-.91-.61-.3-.611-1.218-.608-.61-.606v6.988l-.305.91v.913l-.3.912v.907l-.3.916-.3.9-.311.913-.305.91-.308.907-.3.611-.3.916-.611.906-.6.611-.613.913-.605.6-.913.907-.6.619-.922.605Z" transform="translate(4262.842 -7986.792)"/><path class="a" d="M522.705,333.492v-.919l.308-.9v-3.04l.3-.611v-4.853l-.3-.916v-2.432l-.607-1.21v-3.643l-.611-1.521v-1.218l-.6-1.519-.3-1.212-.305-1.518-.6-1.212-.613-1.218-.308-1.524-.6-1.214-.916-1.512-.922-1.523-.6-1.213-.913-1.521-1.215-1.518L512.973,294l-1.212-1.213-1.215-1.521-1.224-1.212-1.212-1.218-1.518-1.218-1.512-1.513-1.218-.913-1.829-1.215-1.518-1.213-2.131-1.227-1.823-1.212-2.131-1.212-2.125-.9-2.125-.913-2.434-.907-2.126-1.218-2.739-.608-2.736-.919-2.436-.6-3.033-.616-3.047-.6-3.035-.613-3.042-.6-3.655-.305-3.036-.3v6.382l.305.907.3,1.211v2.129l.311,1.218.3,1.515v1.221l.305,1.515v1.217l.3,1.515.305,1.518.605,1.518.3,1.518.311,1.215.6,1.522.3,1.814.311,1.518.608,1.527.608,1.517.308,1.822.605,1.524.907,1.518.61,1.518.611,1.817.913,1.519.9,1.521.613,1.521.913,1.518.91,1.515.913,1.518,1.218,1.214.913,1.832,1.212,1.207,1.518,1.53,1.215,1.2,1.221,1.527,1.518,1.214,1.218,1.215,1.521.913,1.515,1.218,1.527.605,1.82,1.518,1.823.6,1.829.916,1.826.91,2.125.911,1.82.311,2.128.593,2.134.608,2.428.311,2.434.308,2.437.605h2.431l2.73.3-.3-.3V338.66l-.3-.613-.317-.609v-.91l-.3-.3-.3-.91-.6-.617v-.9l-.611-.613-.916-.608-.6-.9-.613-.614-.6-.913-.916-.6-.916-.609-1.215-.6h-1.212l-.6-.608-.616-.308h-1.515l-.608-.611h-9.732l.608-.6.3-.6.619-.616.608-.3.91-.611.605-.3,1.218-.305.308-.3h4.251l.916.3h1.823l.91.6,1.212.308-.3-.308-.3-.6-.608-.919-1.219-.9-.6-.913-.305-.6-.913-.922-.611-.6-.6-.913-.913-.608-.916-.91-.6-.6-1.212-.919-.614-.6-1.218-.61-.91-.611-1.218-.912-1.212-.608-1.221-.608-.9-.3-1.524-.3-1.215-.311-1.527-.3H481.66l-.611.3h-.907l-.608.311.3-.311.913-.6.3-.611.611-.608.91-.6h.916l.913-.608,1.218-.613h1.212l.611-.3h3.041l.6.3h1.524l.9.305.916.308h0l-.3-.613-.619-.6-.6-.913-1.215-1.211-.913-.913-.608-.611-.608-.6-.916-.611-.6-.6-.913-.619-.919-.9-.6-.613-1.218-.294-.913-.919-.916-.305-1.215-.608-.907-.3-1.215-.612-1.224-.3-1.215-.305-1.215-.3h-.6l-.616-.3h-1.515l-.6-.308h-1.221l-.913.308.3-.308h1.219l.616-.6h.6l.916-.3h1.215l.913-.614h6.077l.913.614-.308-.614-.3-.6-.611-.611-.611-.3-.6-.91-.611-.608-.916-.91-.6-.6-1.524-.917-.9-.91-.611-.3-.6-.6-.913-.613-.611-.308-.907-.3-.616-.605-.6-.61-.913-.3v-.317h2.736l.608.317,1.221.3,1.216.61.9.305,1.524.907h.6l.613.613.608.3.907.3,1.221.913,1.215,1.217.611.6.9.6.616.6.6.922v-.922l.613-1.207.611-.6.607-1.217,1.212-.913.309-.3.608-.3h1.209l-.3.6v6.986l.3.61L491.7,294l.3.6.305.608.305.914.608,1.212.6.6.608.916.611.91.61.913.605.611,1.218,1.212.91.913,1.215.908v-2.121l.308-.608.3-.916.305-.6.3-.619.305-.9.608-.907.613-.614.608-.907.913-.311,1.218-.6,1.21-.308-.608.612v.611l-.6.907v.305l-.308.6-.308.613v.9l-.305.619v.6l-.3.916v5.77l.6.91v1.212l.616,1.212v.913l.6,1.214.608,1.221.6,1.213.916,1.215.608,1.212,1.215,1.215.913,1.221h0V318.3l.305-.6v-.608l.308-.91.3-.6.3-.919.305-.6.611-.918.611-.6.9-.615.916-.608.913-.608v.3l-.308.305v9.418l.308.913v.9l.3.919.3.91.308.91.314.913.6,1.21v.916l.614.6.6.912.613.913.608.6.611.608.907.605.91.919Z" transform="translate(4207.913 -7989.005)"/><path class="a" d="M529.07,308.814h0v1.215l.3,1.21v3.036l-.3.919v3.338l-.305.611v2.428l-.3,1.212L528.157,324l-.3,1.521v1.212l-.306,1.515-.608,1.215-.3,1.521-.608,1.521-.305,1.212-.608,1.524-.613,1.515-.6,1.518-.614,1.529-.916,1.515-.907,1.212-.913,1.518-.916,1.518-.9,1.521-1.527,1.224-.91,1.512-1.218,1.521-1.524,1.212-1.518,1.518-1.512,1.209-1.218,1.23-1.829,1.512-1.823,1.215-1.826,1.212-2.128,1.524-1.826.61-2.125,1.207-2.434.919-2.125,1.212-2.742.913-2.431.61-2.733,1.216-2.736.61-3.039.907-3.041.306-3.044.6-3.033.608-3.352.305-3.649.608h-3.646l-3.646.305V371.4l.305-.614v-.6l.3-.907v-.61l.305-.614v-2.431l.308-.907.3-1.221v-1.515l.608-1.213v-1.216l.308-1.218.3-1.523.306-1.524.305-1.209.3-1.518.608-1.823.308-1.512.3-1.521.608-1.826.611-1.521.616-1.823.6-1.515L464,339.19l.907-1.518.614-1.521.608-1.515.91-1.826.613-1.823.9-1.521.919-1.826.916-1.814,1.21-1.521.913-1.524,1.213-1.515,1.215-1.524,1.221-1.512,1.215-1.524,1.218-1.515,1.523-1.521,1.515-1.212,1.518-1.518,1.215-1.215,1.829-.913,1.521-1.215,1.826-1.215,1.817-.919,1.829-.913,1.826-.907,2.128-.6,2.123-.913,2.434-.608,2.128-.611,2.131-.6L508.4,300l2.733-.305h10.639v.614l-.3.91-.308,1.218-.305.6-.3.6v.6l-.3.913-.616.6-.3.616-.6.907-.314.913-.907.611-.608.6-.913.611-.6.913-1.218.3-1.215.6-1.218.616-1.21.6h-1.218l-.913.3-.608.311h-2.742l-.6.3H500.49l-.907-.3h-3.047l.3.907.311.308.6.61.611.608.907.6.608.305,1.221.611h1.215l.916.3.6.308h3.344l.916-.308,1.218-.3h1.82l-.6.608-.616.91-.907,1.212-.913.608-.611.608-.913.913-.6.605-.916.613-.913.9-.9.919-.916.913-1.215.6-1.221.913-1.212.605-.913.608-1.219.611-1.515.6-1.221.3-1.212.608h-.919l-.6.3h-.616l-.6.314h-4.257l-.91-.314h-.614l-.611-.3h-.907l-.913-.3h-.611l.311.3.9.617.309.6.907.611.913.3.916.9.913.314,1.215.608h.605l.613.3.913.305h2.733l1.218.3.6-.3h.916l.913-.305h1.215l-.614.305-.6.611-.913,1.212-.916.916-1.212,1.218-.916.6-.611.611-.913.6-.6.6-.913.613-1.215.605-.916.608-1.213.611-1.221.6-.913.3-1.216.308-1.215.61-.6.3-.616.3-.907.3H478.3l-1.218.314-1.219.3h-2.128l-.9.311H470.4l1.21.291.6.317.617.3,1.216.3.9.3h1.221l.91.3,1.218.311,1.218.3h2.126l.913-.3h1.215l-.308.3-.6.611-.611.305-.6.6-.611.913-.6.6-1.215.91-.916.6-1.218.916-1.518.919-.613.3-.605.608-.913.611-.6.3-.919.3-.907.91-.605.3-.916.311.3.3H471l.907-.3h1.521l.614-.311h.9l.613-.3.608-.3.6-.3.922-.308.6-.3.608-.3.907-.306.616-.305.6-.608.611-.611.913-.294.907-.611.611-.619.614-.6.91-.608.608-.3.91-.6h0v.907l.611.608.608,1.221.608,1.216.913,1.212.6.306.616.3.6.3h.613v-.6l-.305-.611v-4.254l.305-.6v-.611l.305-.907.305-.916.3-.91.305-.6.3-1.221.305-.613.608-.9.308-.919.913-.907.6-.91.614-.913.91-.913.9-.6,1.227-1.215.91-.916,1.518-.6h0v2.733l.305.6.309.913v.913l.6.91.611.6.6,1.221.611.6.91.613,1.221.611,1.215.291H508.7l-.3-.6-.305-.613-.3-.9v-.61l-.308-.611-.305-.6v-1.518l-.3-.919v-4.862l.3-.9v-1.215l.613-1.221.3-.9.305-1.212.608-1.224.305-1.215.6-1.215,1.218-1.212.608-1.212.916-1.221,1.212-1.518,1.524-1.218-.308.311.308.907v2.131l.305.9.3.613.305,1.215.308.605.6,1.218.616.6.91.91.6.617,1.215.6h0v-.6l-.3-1.224v-5.158l.3-.919v-.9l.3-.919V321.57l.305-.913v-1.216l.608-.91.3-.907.308-.916.314-.907.6-.913.306-1.216.608-.61.608-1.218.613-.6.91-.907.907-.6.611-.611,1.212-.3Z" transform="translate(4202.461 -7930.304)"/><path class="a" d="M486.532,309.121h0v7.9l.308.91v.907l.3,1.218v.913l.608,1.212v1.212l.314.919.6,1.213v1.215l.608,1.213.305,1.215.3,1.527.614,1.212.907,1.2.305,1.527.907,1.218.613,1.521.913,1.218.608.907.916,1.212.913,1.518.907,1.218,1.215,1.215,1.212,1.512,1.527,1.215.913.919,1.524,1.212,1.212,1.215,1.515,1.218,1.518.907,1.832,1.209,1.82.916,1.832,1.218,1.823.608,2.12.913,2.134.913,2.128.913,2.425.6,2.14.608,2.425.61,2.745.9h2.733l2.733.608,2.742.305,3.341.308h2.727l3.05.294H552.5l3.358.311V363.2l-.32-.913-.3-.9-.308-.61v-1.213l-.3-.913-.314-1.215v-.916l-.3-.913-.3-1.209-.3-.916-.308-1.515v-.913l-.616-1.521-.308-1.212-.6-1.521-.3-1.215-.311-1.52-.6-1.215-.611-1.518-.3-1.212-.6-1.515-.614-1.529-.608-1.518-.61-1.515-.6-1.524-.919-1.212-.6-1.521-.616-1.521-1.212-1.515-.913-1.515-.611-1.518-.91-1.527-1.216-1.523-1.218-1.515-.916-1.212-.91-1.218-1.524-1.518-1.207-1.212-1.221-1.221-1.218-.91-1.518-1.218-1.518-1.512-1.215-.913-1.527-.913-1.823-.907-1.518-.919-1.518-.913-1.823-.6-1.826-.913-2.128-.6-1.823-.6-1.823-.3-2.131-.614-2.134-.3-2.123-.305h-9.424l-2.437.305v.613l.305.9.311.91.3.913.6,1.518.305.611.61.611.305.6.913.913.3.309.611.6.907.611.913.9h.608l1.224.616.907.6,1.218.3h1.21l.922.311h2.727l.919.3.61-.3H513.6l.9-.311h.925l1.213-.3-.308.3-.305.913-.6.305-.308.614-.3.608-.611.6-.913.3-1.215.305-.907.306-1.218.305h-2.434l-.613.3-.9-.3h-2.739l.309.608.6.611,1.221.9.608.611.6.913.611.3.907.913.616.605.913.613,1.213.9.91.614.913.608.919.611,1.212.3,1.21.6.919.613,1.218.3,1.212.306,1.521.608h.913l1.215.3h2.733l.616-.3h1.21l.611-.308.6-.3h.913l.611-.306h.907l-.305.306-.6.608-.916.611-.608.6-.6.608-.611.6-1.21.314-.922.6-1.218.3-1.21.308H522.1l-.611.3h-3.042l-.913-.3h-.6l.3.6.608.3.919,1.221.91.6,1.215.91.6.6.611.613.6.611,1.212.6.617.3.907.314.922.907,1.21.305.611.3,1.212.6,1.218.3,1.218.308,1.221.305,1.213.305h1.218l1.215.3h1.212l1.213.308.907-.308h1.526l-.6.608h-.924l-.6.611h-.913l-.916.6h-1.215l-.9.3-.913.308h-2.134l-.9.3-.919-.3h-.913l.3.3.614.608.3.6.619.613.6.311.916.608.6.6,1.207.913.919.608,1.215.907.6.305.611.3.91.611h.907l.616.6.91.3.611.608,1.215.311h-.3l-.308.291h-1.216l-.6-.291h-1.215l-.922-.311h-1.216l-1.215-.608-1.218-.3-.9-.6h-.308l-.9-.611h-.616l-.605-.608-.919-.3-.6-.305-.611-.611-.913-.611-.6-.3-.611-.6-.6-.619v.317l-.311.6-.294.913-.311.91-.907,1.212-.922.611-.6.907-1.518.608h0v-1.213l.3-.608-.3-.913v-2.428l-.3-1.21-.308-.611v-.613l-.6-.91v-.913l-.608-.6-.308-.611-.605-.907-.308-.919-.9-.9-.616-.608-.6-.907-.919-.616-.6-.6-.925-.916-1.21-.6-.907-.608h-.308v2.128l-.306.6v.916l-.3.913-.611.907-.3.608-.608.91-.611.608-.6.611-.616.6-.907.611v-.611l.305-.6.3-.91v-1.218l.3-1.212v-4.862l-.3-1.215-.3-.608v-1.215l-.305-.913-.611-.916-.3-1.212-.619-.913-.6-1.215-.616-1.212-.6-.916-1.224-.9-.608-1.518-1.221-.919-.91-.913h0v1.523l-.305.611v1.823l-.3.611-.3.6-.305.913-.608.9-.608.61-.611.611-.6.6-.91.91v-5.766l-.305-.608V323.1l-.305-.913v-.91l-.305-.913-.3-.913-.3-.913-.3-.6-.311-1.218-.305-.91-.308-.608-.6-.907-.611-.919-.6-.608-.613-.91-.6-.6-.608-.616-.6-.6-1.221-.3-.605-.611Z" transform="translate(4262.637 -7929.093)"/><path class="a" d="M491.851,316.358l.913-.311,1.221-.3.91-.306,1.221-.3,1.212-.61.913-.3.913-.614.907-.91.922-1.212.6-.613.608-.9.305-1.217.3-1.213.3-.913.311-1.218v-2.436l-.311-1.215-.3-.9-.3-1.221-.305-1.207-.608-.919-.6-.6-.922-.913-.907-.919-.913-.608-.913-.593-1.212-.311-1.221-.611-.91-.3h-4.568l-1.213.3-1.215.611-.913.311-1.212.593-.916.608-.6.919-.611.913-.613.6-.9.919-.607,1.207-.306,1.221-.305.9v4.87l.305.913.306,1.213.607,1.217.9.9.613.613.611,1.212.6.91.916.614,1.212.3.913.61,1.215.3,1.213.306.913.3,1.521.311Z" transform="translate(4249.712 -7944.224)"/><path class="a" d="M503.063,318.558l.3.3.305.614.916.6.608.913,1.218.907.6.311.616.6.6.613.916.6.6.6.922.6.907.611.91.3.916.6,1.218.616.9.6.91.611,1.218.3.913.6,1.221.611,1.518.611h1.215l1.523.6,1.207.611,1.535.3,1.212.3,1.521.3h1.515l1.515.308h1.521l1.524.308h3.039l1.829-.308,1.523-.308H543.8l1.826-.3,1.817-.6,1.829-.308,1.523-.6,2.132-.3,1.814-.913,1.829-.913,2.128-.913,1.829-.919,2.123-1.209,2.128-1.215,2.131-1.207,2.126-1.218,1.829-1.524,2.117-1.826,2.137-1.518,2.128-1.816,2.437-2.128,2.128-2.129,2.123-2.123,2.428-2.435-.6-.3-.91-.608-1.218-.608-1.215-.611-.916-.6-.6-.608-.913-.305-.91-.608-.916-.6-.913-.608-.916-.611-.9-.3-1.224-.918-1.221-.6-1.2-.3-1.218-.613-1.212-.6-1.224-.916-1.213-.6-1.212-.311-1.523-.913-1.524-.3-1.515-.608-1.526-.6-1.518-.613-1.215-.6h-1.521l-1.515-.609-1.829-.6h-1.518L548.661,290l-1.218-.308-2.12-.3-1.218-.311h-12.16l-1.524.611L528.6,290l-1.218.608-2.134.3-1.518.3-1.823.609-1.823.913-1.521.6-1.521,1.212-1.823.913-1.521.913-1.817,1.221-1.524,1.212-1.521,1.211-1.524,1.829-1.524,1.518-1.512,1.515-1.521,1.823-1.521,1.824.6.3.619.314.6.6,1.215.3,1.218.619h.6l.614.3h1.215l.6.3.611-.3h.91l.907-.3h1.224l.913-.311.913-.308.913-.9.916-.314,1.207-.9.91-.613,1.218-.907.913-1.215.608-.611.611-.6.3-.608.614-.6.6-.619.6-.9.616-.611.608-.911v.911l.3.611v2.126l-.3.608-.3,1.215-.308.907-.616,1.215-.907,1.217-1.215.91-.611.6-.907.619-.614.6-.608.611h4.862l.616-.305h1.207l.919-.305H528.3l1.221-.3,1.215-.3.9-.311.91-.308,1.521-.6.619-.613,1.213-.3,1.212-.6.907-.613,1.218-.608.919-.907.6-.916,1.224-.907.608-.913.9-1.212.611-1.218.6-.911h0v2.734l-.3.913v.91l-.305.913-.305.907-.611,1.215-.6,1.217-.919.611-.913,1.521-.6.3-.611.608-.308.305-.608.6h3.352l.91-.305h.6l.916-.3h2.428l.919-.611h.9l.922-.6H550.8l.605-.619,1.221-.3.916-.6,1.2-.611.614-.6,1.215-.613.922-.608,1.206-.907.91-.916.614-.907.913-.913.907-.919-.3.311-.314.913-.3.608-.311.6-.3.611-.305,1.215-.614.6-.3.916-.611.9-.608.916-.6.608-.617.913-.608.611-.613.3h2.436l.608-.3h2.126l1.218-.305.608-.305h1.215l.913-.3.611-.3H566l.91-.311.608-.308.6-.3.913-.3.913-.3.916-.314-.305.314-.61.9-.913.619-.6.6-.913.611-.608.6-1.212.3-1.212.614-1.224.6-1.218.613-.907.3-.913.3h-.614l-.91.308h-.608l-.6.3h-.922l-.916.3h0l.613.6.3.608.305,1.221.305.91.311,1.212-.311,1.212-.305,1.53-.305-.613-.916-.916-.913-.6-.6-.614-.916-.608-1.213-.913-.61-.306-.605-.3-.608-.305-.6-.308-.922-.305h-.9l-.919-.3h-.6l-.91-.3h-4.263l-.9.3-1.527.3-.907.305h0l.6.613.3.3.608.614v.6l.919.608v.614l.6.91v.907l.3.913v2.727l-.3,1.221v-.308l-.3-.3-.3-.616-.611-.6-.6-1.213-.922-.91-.6-.913-1.218-1.218-.611-.6-.9-.308-.619-.608-.608-.305-.913-.913-1.215-.306-.6-.3-.916-.613H528.6l-1.218-.608h-1.215l-1.221-.3h-.6l-.619-.311h-3.646l-.913.311h.308l.6.6.916.919.907.91.311.6.3.913.6.608.309.91v.919l.305.9-.305.91v.913h0l-.6-.3-.6-.611-.614-.6-.913-.9-1.521-.916-.608-.6-.308-.311-.9-.6-.616-.308-.9-.305-.616-.608-.91-.6-.91-.308-.916-.306-.6-.3-.924-.305-.907-.308h-5.466l-.916.308-.6.305Z" transform="translate(4291.716 -7951.289)"/><path class="a" d="M519.908,305.9l-.314-.3v-.608l-.907-.608-.608-.611-.6-.6-1.221-.913-.614-.608-.6-.6-.614-.608-.6-.611-.913-.611-.919-.609-.6-.6-1.21-.3-.916-.91-.919-.305-.9-.916-1.218-.6-1.215-.6-.913-.314-1.515-.605-.919-.608-1.521-.6-1.215-.3-1.216-.311-1.218-.6-1.521-.308-1.521-.3-1.521-.3-1.207-.3h-1.835l-1.515-.308H480.68l-1.823.308h-1.518l-2.128.6-1.829.3-1.521.308-2.126.6-1.823.613-2.134.913-2.123.6-1.826,1.224-2.129.6-1.82,1.518-2.134.916-2.128,1.519-2.126,1.521-2.129,1.518-2.433,1.823L445.1,305.9l-2.428,1.824-2.434,2.431-2.123,2.131-2.134,2.428.305.3.916.3.3.3.913.3.6.608.622.608h.6l.613.613.907.6.913.913.913.608.6.306,1.527.608.9.91.916.608,1.218.614.919.6,1.209.611,1.521.6,1.216.611,1.21.6,1.529.616,1.215.6,1.216.611,1.524.6,1.518.913,1.221.3,1.515.611,1.829.3,1.518.611,1.213.6,1.826.3,1.521.616,1.518.294,1.826.308h1.524l1.518.3,1.823.311h6.993l1.518-.311h1.829l1.512-.3h2.137l1.216-.6,2.125-.616,1.521-.6,1.82-.6,1.53-.907,1.814-.611,1.526-.913,1.823-.913,1.826-1.221,1.518-.907,1.524-1.518,1.817-1.207,1.527-1.829,1.823-1.521,1.515-1.515,1.829-1.829-.3-.3-.311-.3-.9-.3-.611-.611-.61-.3-.608-.3h-.6l-.616-.311-.6-.3h-2.431l-.913-.3h-.919l-.9.3h-.91l-.916.3-1.218.311-.916.3-.907.913-1.215.3-.913.915-1.212.9-.919.91-1.218,1.218-.907,1.221-.608.91-.611.6-.608.916-.608.9v-.9l-.3-.614-.308-.608v-.91l.608-.608v-.913l.305-.913.3-1.215.913-.9.913-1.217.907-.913.608-.611.611-.6,1.216-.305.916-.614-.611-.3h-7.6l-.916.3h-.913l-1.215.614h-1.219l-.9.305-1.529.3-.907.3-.913.311-1.215.6-.919.611-1.215.906-.91.608-1.215.608-.907.613-.916.91-.913,1.212-.608.913-.3.61-.305.6v.613l-.608.9v-3.945l.608-.91v-.91l.6-1.221.305-.912.611-1.212.907-.913.916-.907.6-.913.613-.305.6-.3.91-.611h-6.074l-.916.306-1.216.305H474.3l-1.212.3-.913.305-.91.3-.919.614-1.215.305-.913.3-.913.613-1.215.6-.9.611-.922.906-.913.608-.9.608-.913,1.215-.916.913-.91,1.221v-.614l.611-.608v-.913l.6-.6.311-.613.605-.9.3-.915.619-.913.305-.913.6-.6.91-.919.614-.6.6-.6.617-.306H460l-1.523.306-.907.305h-.913l-.608.3-.907.305-.61.3-.916.314-.6.3-.916.305-.913.3v-.6l1.215-.913.308-.6.907-.305.608-.306,1.218-.6.913-.619,1.215-.9h.611l.6-.314.913-.3h.611l.913-.6h.605l.61-.308h.611l.91-.305h2.434l-.311-.608-.305-.907-.3-1.218-.3-.91v-2.428l.6-1.221v.308l.913.913.608.608.913.6.913.913,1.215.608.308.6h.611l.91.611h.611l.907.308.919.3.6.3,1.207.308h.922l.608.3h4.562l1.207-.608h1.521l-.6-.3-.616-.608-.6-1.215-.913-.913v-.919l-.613-.608-.311-.9v-2.738l.311-.913.308-1.207.305.6v.6l.6.913.6.613.922,1.213.6.911,1.215,1.218.619.6.6.608.913.305.6.608.614.6.916.611.9.308,1.219.3.91.3,1.218.608h.916l1.518.608h1.826l.91.305h2.439l.9.308-.305-.308-.6-.608-.919-1.212-.916-.916-.3-.907-.308-.608-.608-.913v-.6l-.3-.907V298.3l.608-.91.3.308.6.6.608.611.916.911,1.215.9.611.608.6.311.614.608.913.608.605.306.613.6h.9l.919.611.608.308.913.3.907.3.919.608h.9l.913.305h3.652l.916-.305Z" transform="translate(4162.679 -7950.479)"/><path class="a" d="M503.18,316.733l.611.3.6.611.922.611.608.6,1.213,1.218.613.6.3.3.608.919.91.6.613.916.6.6.611.907.91.913.616.913.6.913.913.9.611.919.6,1.207.6.919.611,1.212.608,1.523.608,1.216.6,1.209.608,1.212.611,1.521.3,1.524.616,1.215.3,1.524.3,1.518.308,1.515.3,1.518v1.521l.308,1.823v7.3l-.308,1.817v1.82l-.608,1.823v2.134l-.6,1.823-.616,2.125-.91,2.12-.608,2.137-1.212,2.126-.608,2.125-1.215,2.431-.91,2.434-1.521,2.123-1.527,2.431-1.515,2.12L508.652,393l-2.128,2.434-1.512,2.425-2.134,2.739-2.131,2.736-.3-.913-.608-.6-.913-1.218-.91-1.215-.6-.614-.622-.91-.608-.608-.6-.91-.605-.907-.61-.913-.913-.913-.6-.91-.913-1.213-.608-.922-.916-1.206-.6-1.224-.611-1.213-.913-1.212-.6-1.218-.913-1.207-.91-1.524-.608-1.215-.605-1.518-.921-1.221-.6-1.512-.614-1.518-.6-1.527-.622-1.518-.6-1.823-.613-1.515-.6-1.524-.317-1.521-.6-1.512-.3-2.131-.3-1.521-.314-1.515-.6-1.826v-5.164l-.311-1.823.311-1.521V346.5l.3-1.817.3-1.82.314-1.826.3-1.826.9-1.518.317-2.122.9-1.527.608-1.82.922-1.826,1.216-1.515.907-1.826,1.218-2.126,1.212-1.512,1.518-1.832,1.218-1.82,1.823-1.518,1.829-1.823.3.3.608.611.608.91.61.91.306,1.215.3.605.3.919v.6l.305.916v3.638l-.305,1.218v.91l-.6,1.212-.306,1.221-.916.907-.608,1.218-.913,1.212-.6,1.224-1.524.907L489.5,338.6l-.922.611-.6.608-.907.608-.611.611h.305l.913.308.3-.308h2.433l.608-.3.916-.311,1.215-.913.91-.608,1.221-1.213.9-.913.311-.91.919-.608.3-.907.6-.61h0v1.826l.308.61v8.807l-.308.907-.3,1.213-.3,1.218-.3,1.218-.323.913-.6,1.212-.311,1.218-.305,1.216-.9.9-.61,1.224-.913.907-.6.9-.913.922-1.218.907-.91.6-1.224.913H489.8l.6-.3h.916l.913-.308h.91l1.215-.608.916-.3.9-.907,1.23-.608.9-.919,1.218-.907.308-.91.608-.613.3-.6.611-.611v9.107l-.3.925-.308.6v1.221l-.3.913-.3,1.212-.306.91-.613,1.215-.3,1.216-.614.608-.3,1.218-.6,1.221-.919.907-.616,1.215-.6.907-1.221.913-.91,1.212.3-.3.913-.608.61-.305.605-.308.916-.6.919-.3.6-.608.605-.6.91-.611.916-.608.608-.614.907-.907.306-.61.61-.608h0v3.044l.3,1.212-.3.913-.3,1.212v2.733l-.617.611v2.434l-.6.6v.913l-.3.919v.91l.3-.311.6-.907.617-.61.6-.913.311-.6.6-.922.3-1.21.622-1.215v-.91l.3-.608.305-.913.3-.308v-1.817l.308-.91v-1.521l.3-.919v-1.515h0l.922.308.6.3,1.215.305h.916l1.515.3.916-.3,1.521-.6h-.305l-.3-.308-.6-.3-.616-.3-.611-.611-.91-.9-.6-.925-.916-.907-.3-.6-.305-.608-.608-.913v-.613l-.6-.6-.314-.925-.3-.907-.311-.9v-.916l-.3-.91v-2.126l-.308-1.218v-.913l.308-1.213.3-1.212h0l.922.6.3.308.3.3.913.308.605.3.913.3.916.305h3.347l1.218-.305.907-.3h0l-.611-.3-.6-.308-.91-.3-.916-.608-.9-.611-1.227-.907-.91-.913-.907-.611-.614-.608-.608-.913-.608-.608-.6-.61-.611-.907-.608-1.213-.308-.608-.608-1.218-.3-.91-.308-1.215-.314-1.524-.3-.608v-.6l-.3-.614v-.6l-.3-.907v-1.826l.6.6h.613l.608.614h.608l.605.61.608.3.913.608h.608l.91.305h1.829l.91-.305h1.219l-.3-.308-.3-.6-.924-.61-.6-.614-1.216-.6-.916-1.215-1.215-1.227-.6-1.212-.922-.913-.3-.6-.61-.91-.305-.6-.608-.913-.613-.913v-.913l-.6-.608-.311-.9v-1.23l-.3-.6v-2.733l.3-1.215v-.91Z" transform="translate(4243.25 -7897.209)"/><path class="a" d="M493.154,333.846l-.306-.3h-.3l-.611-.611-.6-.6-.916-.916-.907-1.215-.608-.6-.308-.611-.613-.608-.6-.614-.907-.9-.611-.618-.6-1.21-.3-.9-.91-.613-.308-1.213-.613-.91-.6-1.218-.614-1.212-.6-.916-.622-1.211-.3-1.521-.608-1.213-.305-1.224-.3-1.212-.616-1.215-.3-1.51-.3-1.521-.3-1.521-.3-1.215v-1.817l-.314-1.527v-4.851l.314-1.822v-1.83l.3-1.513.3-2.133.3-1.516.3-1.825.916-1.823.305-2.12.907-2.132.622-1.826,1.216-2.126.907-1.819,1.218-2.127,1.212-2.128,1.518-1.823,1.218-2.43,1.521-2.123,1.823-2.128,2.128-2.126,1.518-2.432,2.437-2.127,2.125-2.118,2.434-2.435v.3l.91.913v.6l.3.621.622.6.3.616.608.6.308.907.3.614.922.91.6.9.608.92.305,1.208.916.926.6,1.208.611.907.6,1.22.611,1.214.616,1.209.6,1.217.608,1.215.61,1.522.6,1.215.616,1.519.907,1.512.608,1.218.3,1.519.614,1.522.6,1.518.614,1.524.3,1.51.3,1.822.616,1.527.3,1.522.3,1.816v1.522l.308,1.515.3,1.822v6.986l-.3,1.524-.308,1.815v1.526l-.3,1.82-.6,1.519-.314,1.814-.91,1.832-.608,1.518-.6,1.826-.916,1.511-.91,1.829-.913,1.823-1.212,1.826-.91,1.515-1.527,1.513-1.215,1.826-1.823,1.518-1.207,1.826-1.829,1.213-1.526,1.816-.6-.3-.311-.3-.3-.608-.3-.6-.617-.611v-.6l-.3-.916-.305-.6V329.6l-.3-.922V325.04l.3-.9v-.922l.6-.9.306-.91.913-1.218.311-.9.9-1.224.922-.906.916-1.212,1.219-1.218,1.207-.913.608-.614.916-.305.91-.913.907-.3-.3-.3h-1.515l-.613-.3h-.605l-.913.3h-.6l-.922.6-1.213.314-.922.6-1.21.919-1.218,1.212-.6.305-.3.916-.308.91-.6.906-.306-.6v-7.292l.306-1.211.3-.91.3-1.218V305.6l.308-.913.3-1.213.6-1.218.306-.913.311-1.211.6-1.212.91-.913.613-1.213.608-.916.916-.913.9-.606.913-.911,1.216-.915.3-.3.613-.305.91-.3h.6l-.3-.3h-3.347l-.913.6h-1.213l-1.215.6-.913.307-1.212.913-1.221.606-.611,1.215-.907.3-.308.916-.305.611-.6.6h0V291.93l.305-.6v-1.22l.3-.913.305-.6.308-1.218v-.91l.608-.916.3-1.215.308-.913.3-.912.6-.9.617-1.221.6-.908.91-.91.613-.917.913-1.212.907-.611.922-1.218,1.207-.6h-.608l-.6.6h-.922l-.605.612h-.608l-.922.606-.9.611-.913.3-.617.609-.6.606-.91.615-.608.6-.613.606-.6.915v-5.472l.305-1.212.3-1.214.305-1.217.308-.908v-.611l.306-.916.3-.6.3-.61.308-.912.3-.907.305-.611h-.608l-.91.907-.614.306-.305.911-.6.916-.6.906-.6,1.223-.622.908-.3.607-.311.61-.305.913v.6l-.3.913-.3.606v1.519l-.306.606V280.7l-.308-.307-.608-.305-.91-.3-.91-.3-1.221-.305H489.2l-1.224.305-.6.6h0l1.218.916.308.611.608.9.907.912.611.913.305.609.305.606.3.611.308.912.3.606v.916l.3.6.306,1.212.3.92V296.8l-.3,1.213v1.212l-.608-.3-.611-.612-.91-.9-1.218-.611-.907-.3-.617-.613-.91-.3h-2.73l-.913.3-.913.31.608.3.613.3.605.3.91.314.913.9,1.212.912.913,1.215.611.3.6.91.305.608.611.907.608.614.305.91.608.913.3,1.215.3.91.608,1.218v1.211l.608,1.212v3.347l.308.6v2.128l-.308-.3-.608-.61-.91-1.215-.91-.6-.913-.3-.611-.306-.91-.61h-.611l-.913-.308h-1.212l-.611.308-.907.305.3.305.6.608.611.6.907.916.91,1.212.308.6.611.605.305.91.6.614.611.608.3.611.305.91.6.9.308.611.3.913.3.913.608,1.217v1.515l.306.907v1.826l-.306.916v.9l-.3.91Z" transform="translate(4243.853 -8028.547)"/><path class="a" d="M515.58,313.437v.311h.913l.922.3.9.3,1.212.308h.613l.907.3.611.308h1.527l1.218.3h.608l1.206.305h8.822l1.213-.305,1.218-.3h2.739l.91-.61,1.518-.308,1.215-.6,1.218-.311,1.218-.912,1.518-.305,1.221-.6,1.518-.61,1.216-.907,1.215-.913,1.512-.6,1.227-.916,1.215-.91,1.215-1.215,1.524-1.217,1.215-1.215,1.218-1.212,1.213-1.515,1.212-1.826,1.221-1.212.91-2.127,1.515-1.515,1.215-1.829.925-2.126,1.212-1.827.916-2.114.907-2.437,1.213-2.131.916-2.726.9-2.733.913-2.739.922-2.423-.619-.308h-3.643l-.605-.3h-.907l-.916-.3H565.45l-1.221-.308h-6.382l-1.216.308H552.68l-1.524.3-1.213.3h-1.212l-1.523.308-1.524.606h-1.515l-1.526.3-1.518.305-1.215.6-1.521.314-1.515.3-1.218.6-1.221.913-1.512.614-1.529.61-1.521.608-.913.605-1.515.916-1.221,1.212-1.206.6-1.224,1.515-1.521.614-1.219,1.218-.907,1.215-.91,1.209-1.215,1.215-.919,1.516-1.21,1.521-.608,1.524-.919,1.515-.91,1.82-.605,1.515-.916,1.825-.6,1.826-.3,2.126-.613,2.123-.6,2.13h1.212l.9.3,1.218-.3,1.212-.305h.614l.6-.3.608-.308h.913l.314-.6.9-.308.613-.305.6-.6.613-.913.611-.611.6-.6.91-.913.308-1.224.611-.907.6-1.218.3-1.211v-.6l.314-.913v-.6l.3-.916v-.913l.311-.6v-.922l.3-.91v.308l.608.305.3.608.305.3.305.611.305.913v.6l.305.916v2.117l-.305.612v.611l-.305.6v.919l-.305.6-.305.913-.3.913-.3.6h0l.6-.3.611-.3,1.215-.619.611-.6.608-.3.6-.613.919-.294.9-.614.611-.305.916-.6.608-.611.913-.911.913-.6.6-.611.617-.6.6-1.218.913-.913.608-.6.608-.922.305-1.207.617-.916.3-.906.3-1.215v-1.221l.306-.9v-1.521l.3-.919v.311l.308.608.6.294v.919l.308.614.305.907v.613l.305,1.515v1.822l-.305,1.207v1.524l-.614.611v.6l-.6.614-.308.6,1.524-.6.6-.614.922-.6,1.215-.611,1.212-.6,1.523-1.218.6-.614.61-.6.308-.608.9-.606.611-.91.613-.6.6-.913.61-.608.305-.913.6-.919.625-.9.3-1.212.593-.916v-1.211l.616-.907.306-1.218v3.038l.3.9-.3.91v2.742l-.306.9v.922l-.616.6v.61l.616-.308.605-.3.61-.6h.614l.6-.613.91-.608.611-.605.91-.91,1.221-.611.6-.919,1.212-1.212,1.221-.9.91-.913v.305l-.3.906-.308.605-.3.91-.305.614-.605.9-.616.919-.907.913-.6.91-.919.913-1.212.913-.91,1.217-1.215.6-1.224.91h0l.61.608.614.3.9.913.61.611.611.91v1.212l.608.91-.608-.3-.91-.3-.916-.308h-.913l-1.216-.3h-.91l-.6-.3h-1.526l-.61.3h-.913l-.6.3h-.913l-.608.611h-.61l-.91.3-1.215.306-.614.608-.91.3-.608.907-1.218.611-.6.907h.913l1.212.613,1.213.9.925.619,1.212,1.212.3.913.3.6v.912l.61.913h-.61v-.3l-.6-.308-.611-.6-.913-.614-.913-.3-1.218-.3-1.218-.608-.6-.305h-.913l-.913-.305h-3.655l-.6.305h-2.129l-1.216.6-1.212.311-1.224.3-.916.6-1.21.607-1.219.913h.91l.913.305,1.216.608,1.219.6,1.221,1.221.3.6.605.913v.6l.61.913h-.3l-.308-.3h-.907l-.91-.311-.613-.3h-.611l-.6-.3h-.314l-.9-.305h-2.739l-.907-.305h-2.433l-.913.305h-1.527l-.6.305-.922.3-.907.3-.6.311-.919.6-.608.3-.6.305-.311.912Z" transform="translate(4308.683 -7990.217)"/><path class="a" d="M497.851,309.332h-.308l-.3-.6v-.611l-.314-.6-.3-.6v-2.131l-.3-.606-.3-.913V302.05l-.311-1.212v-.916l-.3-.913V291.72l.3-1.213.311-1.223v-1.212l.3-1.218.3-1.2.3-1.221.314-1.214.3-1.522.308-1.212.6-1.217.614-1.212.6-1.521.608-1.213.919-1.217.6-1.518.913-.916.913-1.513.91-1.218,1.518-1.212.916-1.215,1.213-1.215,1.52-1.22.916-1.515,1.817-1.217,1.533-.913,1.52-1.217L517.3,258l1.835-.916,1.82-1.217,2.129-.912,2.125-1.212,2.137-.907,2.419-.912,2.437-.917,2.425-.606,2.742-.907,2.742-.913,2.73-.612v3.039l.305.917v2.431l.308.913v8.8l-.308,1.22v1.215l-.305,1.519v3.946l-.3,1.212-.3,1.527v1.515l-.311,1.524-.3,1.513-.3,1.217L540.719,282l-.308,1.525-.3,1.215-.6,1.513-.613,1.214-.6,1.522-.616,1.522-.308,1.516-.913,1.213-.6,1.519-.925.916-.907,1.515-.913,1.215-.913,1.215-.907,1.22-.916,1.212-1.218,1.212-1.218.913-1.212,1.211-1.212,1.215-1.524.916-1.212.916-1.526.9-1.521.922-1.815.6-1.527.91-1.82.608-1.826.91-1.823.307-1.832.6-2.123.6-2.131.613-.3-.613v-3.028l.3-1.215.3-1.221.913-1.212v-.6l.6-.916.311-.608.907-.608.61-.909.605-.3.916-.913.916-.3.907-.612,1.218-.3.3-.6h1.524l.616-.314.6-.3h.608l.9-.3h1.829l.6-.3h2.137l-.308-.31-.614-.3-.6-.3-.3-.31-.613-.295-.3-.311-1.215-.3H517.3l-.907-.3-.9.3h-2.14l-.6.3-.916.311-.608.295-.6.31-.916.6v-.3l.306-.609.3-.908.916-1.217v-.607l.608-.6.305-.916.611-.606.3-.6.6-.91.919-.612.6-.606.611-.91.913-.612.6-.91.619-.609.9-.913.91-.3.916-.612.91-.6,1.221-.617.91-.3.913-.3h1.216l.91-.307h2.733l1.218.307-.608-.307-.61-.608-.6-.606h-.616l-.6-.6h-.913l-.6-.615H521.56l-1.213.615-1.212.3-1.215.91v-.606l.3-.91.6-.612.611-1.212.6-.917.916-1.213,1.221-1.211.6-.609.611-.606.6-.913.611-.3.913-.916.61-.611.9-.6.91-.307.919-.609.9-.3.916-.608.913-.306,1.218-.6,1.216-.307.907-.3h.305l-.907-.306H532.2l-.907-.3h-1.832l-.6.3h-1.218l-.913.306-.6.3-.61.307v-.307l.61-.608v-.609l.6-.3.3-.913.61-.606.3-.608.919-.914.6-.913,1.218-.906.614-.913,1.216-.913.3-.606.6-.307.916-.6.6-.614h-1.518l-.907.614H532.2l-.907.6-1.221.614-.913.3-.916.913-.9.6-1.218.909-.919.926-.9,1.208-.913.907-.611,1.519-.314-.3-.291-.607-.616-.613-.6-.6-.916-.912-.6-.307-1.215-.6H517.3l.619,1.515v1.521l.3.906v2.43l-.3.911V273.8l-.619.916v.606l-.6.606v.913l-.608.913-.305.9-.611.612-.6.91-.6.909-.619.913-.3-.3-.3-.913-.311-.91-.6-1.218-.608-.6-.3-.605-.616-.609-.605-.307-.61-.606-.91-.3-.907-.3h-.616v.3l.311.3.611.913.3.609.61,1.205v.612l.311.606.294.611.311.908v2.132l.3.909-.3.611v3.033l-.311.913-.294.91-.311,1.218-.305,1.22-.305.9-.6,1.519-.616.916-.6,1.515v-1.215l-.913-1.215-.3-.9-.3-.616-.611-.6-.3-.916-.305-.3-.608-.606-.913-.609-.6-.307-.608-.3v1.22l.3,1.212.311.612v2.12l.3.916v.6l.308.91-.308.913v2.435l-.3.6v1.519l-.311.916-.3.908-.311.609-.305.907-.3.919-.3.6-.613.6-.6.611-.308.6Z" transform="translate(4280.207 -8032.588)"/><path class="a" d="M514.062,309.36h0l.3-.305.6-.608h1.218l.3-.305.61-.305.605-.3h.91l.608-.3h.913l.619-.3,1.213-.311h1.823l.907-.3.916-.308,1.212-.3h11.253l1.526.3,1.515.608h1.215l1.524.311,1.215.3,1.521.6,1.515.305,1.518.608,1.218.61,1.821.913,1.523.6,1.524.919,1.218.9,1.524,1.221,1.515.611,1.524,1.515,1.515,1.213,1.218,1.215L565.749,320l1.512,1.212,1.526,1.518,1.518,1.823,1.218,1.817,1.215,1.829,1.515,2.12,1.227,2.437,1.213,1.826,1.207,2.434,1.221,2.425,1.212,2.73,1.224,2.439,1.212,2.727.922,3.038,1.515,3.341h-.613l-1.213.305h-2.125l-.619.308h-.907l-.907.3H577.9l-.907.308h-2.428l-.91.3-1.227.311H555.412l-1.527-.311-1.521-.3h-3.039l-1.829-.605-1.515-.308-1.826-.305-1.215-.3-1.823-.6L539.6,352.2l-1.526-.305-1.518-.3-1.832-.9-1.218-.61-1.518-.913-1.515-.611-1.518-1.212-1.518-.6-1.218-1.218-1.527-.9-1.518-1.23-1.212-1.209-1.518-1.213-.922-1.212-1.515-1.526L516.8,336.7l-.916-1.215-1.215-1.512-.913-1.826-.9-2.126-.925-1.82-.913-1.829-.9-2.125-.616-2.129-.6-2.117-.6-2.131h.3l.305-.309h1.826l.913-.3,1.221.3h.9l.608.309.913.3.91.3.614.3.6.305.614.6.913.314.9.6.619.913.9.9.613.922.6,1.215.613,1.212.308.305.3.611.3.9v.614l.308.913.3.6v.913l.608.91v.913l.308.91v.913l.611,1.21v-.3l.6-.6v-.61l.3-.611.314-.6.3-.611v-.907l.311-1.218v-1.212l-.311-.907-.3-.616v-.913l-.314-.6-.3-.913v-.91l-.6-.6-.611-.608-.308-.916h.919l.9.6,1.224.614.608.308.6.3.916.305.913.611.91.608.913.6.907.6.916.913.918.616.907.6.605.913.921.6.605.608.913,1.218.9.91.614,1.215.608.61.608,1.515.305.919.616,1.2v1.221l.3,1.212v.611l.3.907v.919l.608-.919v-.605l.308-.913.6-.608v-.907l.308-1.218.305-.9-.305-1.218v-1.215l-.308-.61v-.611l-.3-.91-.3-.6-.308-.608v-.611l-.608-.913-.3-.3h.3l.916.3,1.216.305.305.3.608.308.61.305.6.305.614.608.9.3.619.611.9.6.91.611.61.61.608.9.6.613.913.6.611.619.6.9.614,1.221.6.6.927,1.218.593.907.616,1.209.305.916.3,1.218.317.608.294.611v.6l.305.91v-5.469l-.305-.91v-1.823l-.294-1.215-.317-.91-.3-.6-.305-.619h0l.922.317.294.3.916.3.6.3.916.611.913.3.916.916,1.213.6.907.913,1.221.907.913,1.209.6.619.608.611.6.6.614.907V344l-.614-.619-.3-.6-.61-.91-.608-1.216-.611-.907-.9-.916-1.218-.91-.611-1.221-1.213-.6-1.524-1.215-.611-.3-.611-.61-.6-.308-.611-.3v-.3l.611-.3.6-.611.916-.907.305-.919.608-.9.6-1.215.311-.916h-1.524l-.305.616H562.4l-.9.3-1.224.3-1.221.305h-2.73l-.9-.305-.916-.3h-.913l-.608-.3h-1.213l-.919-.616-.6-.305-.913-.3-1.218-.611-.907-.613-.913-.6-.913-.608.3-.3.614-.305,1.21-.3,1.218-.922.61-.6.6-.6.308-.611.6-.6.611-.919.308-.91.3-.913.3-1.213h-.6v.3l-.919.306-.6.608-.614.611-1.213.6-.6.3-.61.305-.913.3-.614.3-.91.314h-1.518l-.913.288h-.913l-1.215.314h-2.129l-1.215-.314-.907-.288h-1.227l-1.218-.314-.6-.3h-.6l-.91-.3-.613-.305-1.215-.6-1.21-.3.306-.309.6-.3.305-.308.611-.3.6-.306.916-.3,1.212-.913,1.215-1.212.608-.608.309-.614.3-1.212.311-.91h0l-.613.3-.916.306-.61.305h-.9l-.613.308h-1.215l-.91.3-.907.3-.91.3H524.7l-.907.314-.916-.314h-2.739l-.608-.3-.913-.6H517.4l-.6-.308-.614-.611-.91-.3-.608-.613-.6-.6Z" transform="translate(4305.651 -7918.396)"/><path class="a" d="M497.33,330.267h-.3v.3l-.3.605v.919l-.3.3V333l-.311.614v.907l-.3.611v.608l-.308.91v2.727l-.3.919v3.949l.3,1.212V348.8l.308,1.212.3,1.221.311,1.212.3,1.224.3,1.512.3.913.314,1.207.611,1.218.6,1.521.306,1.212.613,1.215.907,1.221.919,1.518.6,1.215.913,1.21,1.212.922.913,1.512,1.215,1.218.916,1.213,1.213,1.524,1.52,1.206,1.521.922,1.524,1.213,1.221,1.218,1.82,1.213,1.512.91,2.134,1.213,1.82.907,2.137,1.224,2.126.613,2.125,1.213,2.431.907,2.437.913,2.425.611,2.434.907,3.041.9,3.045.614v-1.518L543.55,388v-1.219l-.306-.608v-8.205l-.3-1.213v-.907l-.3-1.218v-1.212l-.311-1.224-.3-1.207-.3-1.221-.3-1.21-.309-1.227v-1.512l-.608-1.218-.305-1.206-.3-1.527v-.907l-.614-1.518-.6-1.527-.616-1.212-.308-1.518-.611-1.212-.6-1.524-.919-1.212-.614-1.221-.9-1.512-.614-1.224-.913-1.512-.907-1.218-.614-1.213-.916-1.221-.9-1.207-1.218-1.224-1.212-1.213-.913-1.212-1.524-1.212-.91-.913-1.524-1.218L520.751,333l-1.524-1.218-1.218-.907L516.5,329.66l-1.521-.608-1.826-1.218-1.524-.611-1.82-.913-1.823-.6-1.527-.611-2.129-.913h0v3.039l.308,1.224.3.6v.608l.3.907.3.605.614.608.3.61.6.608.616.913.6.608.61.611.916.608,1.215.6.6.305,1.524.608h.3l.6.305.613.3h.91l.611.308h.6l.907.3h1.524l.611.308h.913l1.213.3h-.305l-.6.6h-.3l-.308.613h-.6l-.611.611-.9.3h-4.571l-.6-.3h-.611l-.913-.611h-.6l-.611-.613H509.5l.311.613.3.611.916,1.207v.308l.6.913.608.6.305.91.611.608.6.913.619.608.6.91.916.614.6.6.608.613,1.218.913.6.608.916.6.913.608,1.213.611.907.3.924.614h1.212l.913.6h4.556l-.61.611h-.6l-.616.605-.9.308-.616.3h-.91l-1.216.305-.913.3-.91.3-1.526-.6-1.215-.305-1.215-.3-1.524-.308.619.308v.3l.9.907.311.919.9,1.218.611,1.212,1.527,1.213.291.6.616.613.91.608.611.608.913.6.61.608.6.611,1.212.6.611.308.91.6,1.218.314.913.608h1.218l.916.6h1.207l1.521.305h-.3l-.919.306h-1.512l-.916.3h-3.952l-1.218-.3h-.913l-.6-.611h-.61l.61.913v.61l.6.308.3.6.61.913.3.61.919.913.6.608,1.218,1.218.614.907,1.216.608.3.6.6.305.916.6.6.608h-.6l-.916-.3-.6-.308-.611-.3-.907-.308-1.221-.305-.913-.6-.916-.608-.9-.907-1.218-.62-.918-1.206-.9-.913-.913-1.212-.611-.91h-.314l-.291.6-.616.608-.605.6-.916.62-.6.9-1.215.314-.919.305v-.619l.305-.294.314-.6v-1.832l.3-.907v-2.73l-.3-.619v-1.512l-.314-.608-.305-.611v-.907l-.6-.913v-.913l-.608-.611-.305-.6-.611-.91-.6-.907-.919-.922-.6-.611h0l-.3.919-.611.913-.305,1.218-1.212,1.212-.916,1.212-.9.305-.616.608-.907.3-.616.308v-.608l.311-.608.305-.613.6-.9.305-.913.305-1.212.6-1.218v-2.433l.311-.91v-1.82l-.311-.91v-.913l-.294-1.221-.311-.913-.305-1.213-.305-.91-.6-1.213-.616-1.218-.6-.907-.6-1.218v.3l-.308.616-.3.91-.3,1.521-.91,1.213-.913.91-.608.614-.614.6-.9.3-.616.311h0V348.5l.305-.925v-.6l.311-.608v-2.126l.3-.6v-.922l.311-.6-.311-.907v-2.126l-.3-.91v-1.826l-.311-.6-.305-.913-.3-.608-.3-.91-.305-.916-1.213-1.218-.925-.9Z" transform="translate(4279.802 -7881.876)"/><path class="a" d="M496.881,314.257h-1.209l-.922.3h-.6l-.311.305h-.6l-.614.308h-.907l-.61.611H488.67l-1.215.3h-.91l-.6.3h-3.35l-.907.305-1.221-.305h-3.344l-1.518-.3h-.91l-1.524-.3h-.913l-1.523-.611-1.215-.308-1.518-.6-.91-.308-1.529-.61-1.213-.3-1.515-.608-.919-.912-1.518-.608L459.18,310l-1.521-.907-1.21-.913-1.218-1.212-1.523-.91-1.215-1.221-1.212-1.211-1.227-1.213-1.213-1.524-1.218-1.515-1.21-1.518-1.218-1.832-1.215-1.816-1.215-2.129-.913-1.518-1.212-2.428-.916-1.822-1.212-2.437-.916-2.425-1.212-2.437-.608-2.418-.919-2.745-.608-2.733.308-.3H437.9l.9-.305h.611l.913-.3H445.5l.91-.307H456.45l1.518.307h1.212l1.521.3h1.521l1.524.305h1.518l1.221.6H468l1.212.613h1.521l1.523.6,1.221.314,1.518.6,1.521.614,1.524.611,1.209.608,1.524.6,1.213.916,1.221.91,1.518.608,1.218.9,1.207.91,1.521,1.221.919.91,1.215,1.215.913,1.221,1.218,1.212,1.218,1.208.6,1.521,1.215,1.524.916,1.515L497.8,293l.907,1.818.611,1.819.91,2.131.608,1.524.608,2.125.308,2.121.605,2.434h-3.344l-.91-.308-1.515-.305-1.227-.6-.611-.305-.6-.608-.916-.3-.614-.61-.6-.606-.608-.9-.608-.913-.608-.611-.608-1.221-.6-.9-.314-1.215-.6-1.212v-.914l-.311-.608-.305-.6v-1.515l-.305-.916v-1.515h-.294l-.613.6-.3.305-.305.305-.308.6V293l-.6.6v3.645l.294.614v.6l.311.913.308.6.305.913.6.611.311.913h-.311l-.6-.311-.614-.6-1.216-.611-.907-.3-.613-.3-.608-.619-.6-.294-.916-.611-.613-.613-.907-.6-.608-.305-.913-.907-.907-.611-.611-.911-.611-.6-.6-.913-.919-.91-.605-.91-.61-.611-.611-1.213-.3-.913-.3-1.21-.3-.917-.311-1.212v-1.215l-.3-1.213.3-.91h-.3l-.308.91-.3.305-.311.907-.305.613v.9l-.6.91v4.252l.6,1.215V293l.305.6.311.611.6.6h-.308l-.3-.306-.617-.3-.6-.3-1.524-.91-.91-.3-1.218-.916-1.215-.913-.611-.6-.913-.611-.6-.913-.611-.6-.611-.6-.6-.917-.611-.91-.6-.6-.61-.913-.308-.907-.608-1.215-.308-.611-.6-1.221-.308-.91v-1.208l-.3-1.212-.3.3v8.2l.6.913v.6l.614.618h-.305l-.611-.311-.608-.307-.611-.6h-.608l-.6-.611-.919-.9-.907-.311-.916-.91-.611-.6-1.218-.91-.913-1.218-.9-.9-.916-1.224-.305.605.305.91.3.614.305.608.311.91.9,1.215.317.608.6.913.916,1.215.913.6.916.914,1.212.913.614.305.6.608.608.611.916.3h-.305l-.611.3-.608.611-.6.6-.614.916-.608.91-.6.907v1.211l.3-.3,1.215-.3.309-.308,1.209-.3h2.134l.6-.306h1.526l.6.306H460.4l.919.3.907.308.611.3.913.3.913.311.9.6.924.305.6.907.91.613,1.212.9H468l-.91.619-1.215.6-.61.306-.6.61-.613.608-.3.6-.611.614-.3.908-.305.91v.91h0l.608-.3.3-.308.608-.608.916-.608.913-.308.611-.3.6-.3h.6l.922-.308.6-.305h.617l.6-.3h3.649l1.212.3h1.826l1.216.614.913.3,1.524.3,1.213.611.916.608,1.521.614h-.308l-.907.3h-.916l-.91.916-1.529.6-1.207,1.218-.6.6-.311.913-.306.6v.913h.617l.6-.608h.6l1.216-.305,1.521-.3.608-.3h2.131l.913-.3h3.646l.913.3.91.3h.913l.6.3.614.305.916.608.6.3.922.608.6.3.608.918Z" transform="translate(4159.246 -7989.209)"/><path class="a" d="M500.414,311.147h0l.305-.613v-.608l.608-.91V308.1l.613-1.216v-.6l.3-.916.305-.6v-.917l.3-.9.305-.917v-1.22l.306-.6V296.87l.6-.916V291.4l-.305-1.211V288.97l-.3-1.521v-1.22l-.306-1.215-.305-1.516-.3-1.212-.305-1.214-.611-1.519-.305-1.217-.608-1.518-.6-1.22-.916-1.513-.6-1.215-.611-1.521-.91-1.214-1.218-1.515-.9-1.218-.924-1.214-1.212-1.525-1.518-1.217-1.215-1.509-1.524-1.212-1.215-1.22-1.829-1.525L484,256.762l-1.829-1.215-1.821-.91-2.131-1.209-2.131-1.521-2.128-.913-2.117-.916-2.748-1.515-2.428-.91-2.739-.909-2.736-.914v.311l-.3.9v.3l-.305.606v1.522l-.305.6v.916l-.3.913v.91l-.305.913v3.342l-.3.907-.311,1.212v14.586l.311,1.518v1.522l.3,1.213.305,1.522.3,1.519v1.513l.611,1.519.3,1.519.3,1.221.614,1.513.6,1.526.311,1.2.608,1.218.916,1.519.605,1.522.6,1.22.6,1.519.919,1.208,1.212,1.215.916,1.214,1.215,1.223.91,1.208,1.218,1.212,1.21.916,1.218,1.212,1.215,1.215,1.826.909,1.523.913,1.518,1.218,1.826.6,1.515.913,1.829.611,2.128.91,2.125.61,2.132.913v-1.524l.3-.91-.3-.913v-1.817l-.3-.919v-.608l-.305-.6-.305-.606-.305-.913-.3-.609-.614-.6-.6-.916-.913-.6-.611-.613-.611-.6-1.212-.916-.919-.3-1.215-.609-1.218-.608-.6-.307h-.913l-.611-.3-.611-.305h-.907l-.91-.3-.916-.3h-.611l.611-.614.3-.307.3-.3h.613l.913-.3.907-.307h1.829l1.215.307h.3l.614.3h.6l.916.606h.611l.608.614.91.3.611.6V299.6l-.611-.92-.305-1.212-.305-.6-.6-.612-.3-.606-.305-.91-.611-.916-.308-.606-.6-.913-.616-.609-.6-.912-.616-.9-.6-.914-.913-.612-.611-.909-.91-.6-.913-.615-.916-.606-.6-.908L476.7,284.1h-.913l-1.212-.606-1.215-.307h-.916l-1.218-.305-1.218.305.308-.305.91-.3.305-.3.913-.3.608-.3.907-.307h1.829l1.215-.3.913.3h1.218l1.215.611.605.3.61.3.913.3.608.612v-.307l-.3-.305-.305-.6-.308-.912-.605-1.215-.61-1.212-.907-1.223-.913-1.212-.613-.609-.6-.911-.611-.6-.6-.611-.913-.908-.611-.608-.6-.607-.616-.613-1.21-.907-.907-.305-.616-.609-.91-.6-1.221-.313-.9-.307-1.216-.3-1.221-.3h6.691l.916.6h.913l.9.307.611.313.6.6v-.6l-.6-.619v-.6l-.3-.31-.311-.9-.3-.612-.6-.913-.611-.6-.61-1.217-.608-.906-1.218-.91-.6-1.226-1.215-1.21-.916-.916h.3l.916.3.608.31.91.3.616.6.907.609.611.606,1.215.913.6.616,1.215.906.913,1.217.611,1.217.6.3v.612l.613.9.3.609v-.3l.305-.31.608-.6.91-.616.611-.6,1.215-.614.913-.3h1.218v.3l-.616,1.21-.6.616v.913l-.3.906v1.22l-.314.608-.3.608v.606l.3.913v.608l.314.606v.913l.3.907v.912l.6.61v.906l.616,1.223.3.606.611.909.611.913.913,1.211v-.3l.3-.912.611-.913.611-1.215.608-.606.305-.609.6-.611.614-.3.91-.3.9-.307.916-.3h.924l-.314.3-.907.909-.619.916-.6,1.217-.305.3-.305.607v.913l-.305.611-.3.6v.913l-.614.606v6.682l.3.912.311,1.215.6,1.217v1.218l.305.606.305.613.3.9.6.616V296.87l.608-.916.611-.909.91-1.527,1.218-.909.614-.609.6-.3.611-.3h.913v.3l-.308.609-.3,1.212-.305.917-.611,1.215v1.218l-.3.91v.9l-.3.92v6.079l.6.9v.911l.3.913.308.606.6.6.611.913.6.613Z" transform="translate(4208.313 -8036.822)"/><path class="a" d="M497.887,309.894h-.3l-.311-.314-.907-.3h-.916l-.608-.3h-.608l-.919-.305H492.1l-.6-.3h-2.128l-.925-.314h-9.113l-1.212.314h-.919l-1.215.3-1.515.305-1.216.3-1.524.611-1.215.3-1.529.3-1.213.6-1.515.311-1.518.605-1.523.608-1.213.913-1.526.91-1.216.919-1.521.6-1.209,1.212-1.221.916-1.521,1.212-1.215,1.218-1.527,1.521-1.21,1.218-1.218,1.515-1.521,1.518-1.221,1.823-1.212,1.826-.91,1.826-1.213,1.812-1.215,2.131-1.218,2.129-.91,2.425-1.219,2.132-.916,2.431-.91,2.73-.913,2.739-.91,2.736-.608,3.033-.6,3.039-.617,3.344.311-.3h14.285l1.521-.3h1.218l1.21-.306H454.1l1.521-.305,1.521-.3h1.523l1.218-.305,1.812-.3,1.529-.305,1.523-.608,1.518-.311,1.515-.3,1.527-.614,1.521-.294,1.518-.608,1.521-.311,1.515-.913,1.53-.608,1.518-.6,1.521-.614,1.524-.913,1.21-.91,1.523-.913,1.518-.913,1.215-1.213,1.512-.919,1.224-1.212,1.212-1.207,1.216-1.218,1.215-1.218,1.221-1.515,1.212-1.218.919-1.82.916-1.524.9-1.518.91-1.823.916-1.814.608-1.832.913-2.126.611-1.82.306-2.431.91-2.126.308-2.128.3-2.137v-.3h-3.347l-.9.3-.622.314h-.6l-.611.3-.907.308-.6.6-.614.3-.907.308-.61.608-.91.91-.608.611-.6.6-.617.916-.3,1.215-.616.9-.91,1.218v1.521l-.6.6v1.82l-.305.613v1.823l-.308.91v2.434l-.6-.611-.611-.3-.305-.305-.6-.6v-.611l-.614-1.212v-.919l-.3-1.215.3-.9v-2.436l.308-.608.305-.91.3-.608.3-.907.613-.913h-.308l-.608.608h-.913l-1.213.907-.608.305-.922.608-.6.611-.6.608-.916.6-.913.608-.91.6-.611.919-.6.9-.919.613-.913.6-.6,1.221-.91.91-.613.916-.608.907-.608,1.518-.305.919-.6.91-.309,1.515-.305,1.218v4.545l.614.613-.614-.3-.6-.9-.305-.61-.6-.608v-.6l-.305-.913-.305-1.215-.314-.916-.3-1.207v-2.439l.3-.907.314-.611v-.608l.305-.907.305-.608.6-.913h-.6v.3l-.924.3-.9.61-1.221.611-.91,1.212h-.613l-.6.611-.919.907-.6.608-.611.6-.6.619-.919.9-.608.611-.6.913-.614.91-.6.91-.305,1.218-.611.608-.608,1.515-.6.913v1.215l-.614,1.218-.305,1.212v.614l-.3.61v.907l-.3-.907v-.61l-.3-.614v-1.817l-.311-.916v-1.826l.311-1.212v-.91l.3-.916.3-1.212.3-.6h-.3l-.916.6h-.6l-.311.91-.9.3-.614.611-.913.305-.6.91-1.212.9-.614.919-1.216,1.218-.9,1.213-.622.608-.6.61-.3.916-.614.61V350.3l.614-.913.3-.919.6-.907.622-.919.6-1.2.919-1.213.91-.913.91-1.215,1.21-1.218.619-.611.6-.294.611-.611.913-.305-.311-.314-.6-.291-.916-.311-.913-.608-.6-.907-.608-.913-.6-1.212v-1.218l.3.3h.305l.608.311h.919l1.21.3h3.649l.91-.3h.608l.916-.311.6-.3.907-.3.916-.3.919-.3.907-.317.91-.6.919-.613.6-.6,1.221-.91.611-.611,1.215-.6h-.3l-.913-.305-.611-.305-.608-.3-.613-.308-.6-.3-.919-.305-.6-.613-.611-.6-.3-.3-.616-.913-.6-.6-.308-1.218v-.916l.308.305.6.3.919.311.611.6,1.523.3.6.314h.613l.608.3.91.608h6.388l.913-.306,1.213-.6h1.215l.919-.616h1.212l1.215-.6,1.215-.611.608-.613.608-.3.913-.308.6-.3-.3-.308h-.922l-.6-.3-.6-.305-.6-.3h-.617l-.907-.608h-.611l-.611-.916-.6-.6-.919-.611-.3-.6-.309-.919-.308-.91h.308l.309.3h.6l1.212.3h1.221l.6.306h1.524l.6.3h5.475l.6-.3,1.215-.306.91-.3h.616l.913-.3.9-.3.919-.611.608-.308.907-.6.616-.3.907-.913.611-.6Z" transform="translate(4155.812 -7913.759)"/><path class="a" d="M504.149,330.563l.308.61v.608l.3.614v.6l.305.608v.611l.308.608v2.425l.3.907v.605l.305,1.224v5.772l-.305,1.212v.91l-.3,1.527v1.212l-.308.907-.305,1.524v.913l-.3,1.518-.614,1.212-.3,1.221-.608,1.218-.608,1.512-.613.913-.3,1.521-.91,1.212-.608,1.215-1.216,1.221-.61,1.207-1.218,1.524-.907,1.218-1.215,1.212-.913,1.207-1.215,1.218-1.221,1.221-1.518,1.213-1.518,1.218-1.826.913L485,380.1l-1.823,1.207-1.826.91-2.128,1.227-1.829.9-2.117.922-2.134.9-2.431.919-2.128,1.212-2.739.6-2.736.614-2.73.913-2.742.913V389.51l-.305-.614V372.2l.305-1.521.3-1.218v-2.73l.308-1.221.3-1.518.308-1.218.3-1.521.308-1.215.3-1.512.616-1.221v-1.518l.6-1.518.611-1.515.305-1.524.6-1.212.614-1.521.913-1.213.605-1.523.613-1.213.9-1.218.919-1.515.916-1.219.91-1.218.9-.913,1.218-1.213,1.216-1.212.916-1.212,1.518-.913,1.218-.913,1.218-1.218,1.515-.907,1.524-.918,1.82-.9,1.221-.608,2.129-.913,1.512-.3,1.835-.913,2.126-.611,1.826-.308,2.128-.305,2.434-.294v2.126l-.311.91-.308,1.216-.3.6v.608l-.3.91-.305.608-.305.614-.6.907-.614.611-.3.608-.916.305-.608.6-.913.608-.907.6-1.224.608-.9.611-1.215.3-1.218.305h-1.524l-.907.3-.611.314h-2.434l-.916.3.305.311.309.3.3.3.6.305.308.3.916.308h.6l1.212.3h2.437l.913-.3h1.218l.6-.308.919-.3.913-.305.91-.3h-.305l-.305.608-.3.608-.607,1.218-.611.6-.305.907-.611.613-.3.6-.616.608-.6.91-.616.614-.6.9-.913.611-.611.614-.91.907-.608.614-1.221.6-.6.61-.913.614-1.215.6-.91.611h-.918l-1.21.605-.907.308h-1.221l-.913.3-1.219-.3h-1.212v.3l.913.305.3.6h.916l.3.611,1.212.308h.922l.907.3h3.038l1.518-.3.611-.308h.6l1.527-.611-.611,1.218-.6.614-.614.907-.611,1.212-1.216,1.215-.9,1.221-.611.608-.6.6-.913.608-.611.611-.907.3-.616.9-.6.619-.913.608h-.916l-.913.6-1.213.611-.913.3-1.21.305-.916.305-1.218.308-1.218.3h2.436l.916.3h4.248l.916-.3h.913l.6-.3h.616l-.311.6-.305.311-.306.6-.3.919-.913.6-.614.608-.6.6-.61.922-.9,1.213-1.221.6-.6,1.218-1.521.913-.919,1.218h.311l1.215-.311.308-.3.91-.305.9-.3.919-.614.913-.608.9-.6.913-.91,1.219-.608.919-.907.907-1.218.907-1.212.918-.919h0l.3.61.611.608.6.913.913.6.611.62,1.218.3,1.215.6-.3-.6v-.3l-.306-.314v-.6l-.305-.913-.3-.913v-4.254l.3-.6v-.619l.305-.907v-.6l.608-.913.3-.611.305-.907.305-.913.611-.913.608-.611.608-.6.913-.91.6-.907v.3l.616.608v1.215l.6.907.919,1.218,1.212,1.216.611.3.611.611.913.3,1.216.305v-.305l-.614-.3v-.611l-.6-.608-.305-.907-.608-1.218-.308-.907-.3-1.215-.305-.907v-5.164l.305-.925v-.907l.3-1.212.308-.913.608-1.213.305-.925.6-1.207.614-1.218.6-.907v.3l.305.6.305.913.6,1.213.619,1.224.907,1.213.61.608.605.305.913.308.913.3h-.3v-1.521l-.309-.613-.305-.6v-2.131l-.3-.6v-4.559l.3-.91v-2.125l.614-.913v-.913l.3-.6.3-.608.611-.611.305-.907.608-.614.608-.608.6-.61Z" transform="translate(4204.883 -7880.66)"/><path class="a" d="M546.189,314.716h.913l1.212-.306,1.215-.3,1.215-.305.916-.614,1.215-.3.916-.912.6-.6.925-1.213.6-.613.613-1.218.608-.9.3-.913.308-1.218.3-1.213v-2.432l-.3-1.216-.308-.907-.3-1.213-.608-.913-.613-1.218-.6-.911-.925-.611-.6-.91-.916-.6-1.215-.617-.916-.6-1.215-.6h-6.993l-1.218.6-.907.6-.913.617-1.212.6-.617.91-.608.611-.61.911-.9,1.218-.305.913-.608,1.213-.317.907v4.86l.317,1.218.608.913.305.9.9,1.218.61.613.608,1.213.617.6,1.212.912.913.3.907.614,1.218.305,1.212.3,1.227.306Z" transform="translate(4357.134 -7946.844)"/><path class="a" d="M434.672,316.354h.913l1.215-.3,1.219-.3.907-.311,1.216-.608.916-.611.922-.6.9-.614.616-1.213.907-.91.611-.613.608-1.215v-1.208l.6-.91v-1.218l.306-1.218-.306-1.212v-1.218l-.6-1.213v-.911l-.608-.913-.611-1.207-.907-.919-.616-.6-.9-.913-.922-.608-.916-.6-1.216-.608-.907-.3-1.219-.311h-4.862l-1.221.311-.907.3-.913.608-1.215.6-.922.608-.6.913-.611.6-.6.919-.916,1.207-.608.913-.3.911v6.99l.3,1.208.608,1.215.916.613.6.91.611,1.213.6.614.922.6,1.215.611.913.608.907.311,1.221.3,1.21.3Z" transform="translate(4137.236 -7943.618)"/><path class="a" d="M493.289,373.088h.913l1.212-.3,1.215-.305,1.213-.3.913-.608.913-.616.916-.6.907-.613.611-1.213.91-.907.305-.919.913-.913v-1.212l.608-.907v-1.212l.305-1.224-.305-1.218v-1.213l-.608-1.212v-.907l-.913-1.212-.305-.919-.91-.913-.611-.6-.907-.913-.916-.6-.913-.921-.913-.306-1.213-.6h-1.215l-1.212-.305h-2.134l-1.518.305h-.913l-1.212.6-1.219.306-.616.921-.9.6-.916.913-.91.6-.611.913-.6.919-.305,1.212-.611.907-.3,1.212v4.868l.3.907.611,1.212.305.913.6.919.611.907.91,1.213.916.613.9.6.616.616,1.219.608,1.212.3.913.305,1.518.3Z" transform="translate(4252.54 -7832.033)"/><path class="a" d="M492.467,260.544l1.215-.3H494.9l.91-.61h1.221l.916-.6,1.219-.608.6-.609.913-.911.916-.91.907-.917.305-.6.6-1.214.3-1.217.308-.913.305-1.215v-2.435l-.305-1.208-.308-1.221-.3-.9-.6-1.223-.305-.906-.907-.913-.916-.911-.913-.611-.6-.6-1.219-.608-.916-.61-1.221-.3-.91-.606h-4.868l-.9.606-1.535.3-.9.61-.916.608-.91.6-.611.611-.91.911-.611.913-.907.906-.305,1.223-.611.9v6.993l.611,1.217.305,1.214.907.6.611.917.91.91.611.911.91.609.916.608.9.6h1.535l.9.61h1.218l1.216.3Z" transform="translate(4251.529 -8054.576)"/></g></svg>