<svg xmlns="http://www.w3.org/2000/svg" width="49.218" height="65.715" viewBox="0 0 49.218 65.715">
  <g id="Grupo_1517" data-name="Grupo 1517" transform="translate(-43.391)">
    <g id="Grupo_1310" data-name="Grupo 1310" transform="translate(43.391 0)">
      <path id="Caminho_2052" data-name="Caminho 2052" d="M-4482.278-2972.879" transform="translate(4531.496 2972.879)" fill="#ffe780"/>
      <g id="Grupo_1309" data-name="Grupo 1309" transform="translate(0 17.2)">
        <g id="Grupo_1308" data-name="Grupo 1308">
          <path id="Caminho_2053" data-name="Caminho 2053" d="M-4512.9-2954.8l6.662-7.38,6.119,7.969-4.811,5.4Z" transform="translate(4512.903 2962.176)" fill="#f5f2f7"/>
          <path id="Caminho_2054" data-name="Caminho 2054" d="M-4466.453-2921.066l.032.024-6.66,7.38h-35.677l6.119-7.971h23.436l4.784-5.4.028-18.043v-3.731l-4.812-5.4h-23.437l-6.119-7.969h35.677l6.66,7.378-.033.024Z" transform="translate(4515.42 2962.177)" fill="#985eb7"/>
          <path id="Caminho_2055" data-name="Caminho 2055" d="M-4500.123-2924.426l-6.119,7.971-6.662-7.38v-33.749l7.969,5.99v21.774Z" transform="translate(4512.903 2964.964)" fill="#efe9f4"/>
          <path id="Caminho_2056" data-name="Caminho 2056" d="M-4474.882-2951.818q0,8.678-.014,17.356h-.01v4.42q-2.4,2.7-4.784,5.4h-23.443l-4.812-5.4v-21.775l4.812-5.4h23.439Z" transform="translate(4515.915 2965.188)" fill="#cbb2db"/>
        </g>
        <path id="Caminho_1801" data-name="Caminho 1801" d="M-4491-2956.329a.222.222,0,0,1,.058-.057l.581-.322.353-.193.032-.019a.125.125,0,0,0,.058-.058l.148-.263v-.013l.206-.373h0l.174-.311a.13.13,0,0,1,.07-.064.136.136,0,0,1,.122,0,.14.14,0,0,1,.058.058l.381.7.148.27a.113.113,0,0,0,.058.058l.1.058.863.471a.148.148,0,0,1,.058.193.125.125,0,0,1-.058.058l-.161.092-.368.206-.355.193h0l-.071.04a.129.129,0,0,0-.058.058l-.122.218-.206.374-.2.374a.145.145,0,0,1-.193.052.142.142,0,0,1-.059-.052l-.529-.964a.147.147,0,0,0-.057-.058l-.965-.527A.159.159,0,0,1-4491-2956.329Z" transform="translate(4526.192 2964.7)" fill="#fff"/>
        <path id="Caminho_1801-2" data-name="Caminho 1801-2" d="M-4490.146-2951.487a.637.637,0,0,1,.15-.15l1.5-.813.913-.5.083-.048a.335.335,0,0,0,.151-.15l.382-.681v-.034l.531-.964v-.016l.448-.8a.355.355,0,0,1,.184-.161.351.351,0,0,1,.321.016.337.337,0,0,1,.15.15l.981,1.793.381.7a.324.324,0,0,0,.149.149l.265.148,2.226,1.213a.378.378,0,0,1,.149.5.329.329,0,0,1-.149.149l-.431.233-.949.532-.914.5h-.016l-.184.1a.329.329,0,0,0-.149.148l-.322.566-.532.964-.512.964a.371.371,0,0,1-.5.133.379.379,0,0,1-.149-.133l-1.361-2.493a.334.334,0,0,0-.15-.147l-2.49-1.363A.4.4,0,0,1-4490.146-2951.487Z" transform="translate(4526.698 2966.023)" fill="#fff"/>
      </g>
    </g>
  </g>
</svg>
