<svg xmlns="http://www.w3.org/2000/svg" width="84.413" height="57.788" viewBox="0 0 84.413 57.788">
  <g id="Grupo_1517" data-name="Grupo 1517" transform="translate(44.367 -1410.186)">
    <g id="Grupo_1331" data-name="Grupo 1331">
      <g id="Caminho_260-15" data-name="Caminho 260-15">
        <path id="Caminho_2074" data-name="Caminho 2074" d="M24.444,1456.032v6.709q2.354-.129,4.646-.291,2.632-.181,5.189-.4c1.051-.087,2.088-.179,3.118-.276a2.861,2.861,0,0,0,2.558-2.392c.164-1-1.509-2.01-1.467-3.215.055-1.685,1.735-3.325,1.542-4.671a2.845,2.845,0,0,0-3.094-2.414q-2.053.2-4.163.369c-1.023.086-2.057,0-3.078.126a5.2,5.2,0,0,0-2.82,1.328,7,7,0,0,0-1.719,2.128,6.315,6.315,0,0,0-.37.867A6.52,6.52,0,0,0,24.444,1456.032Z" fill="#ebebeb"/>
      </g>
      <g id="Caminho_260-16" data-name="Caminho 260-16">
        <path id="Caminho_2075" data-name="Caminho 2075" d="M-28.767,1457.023v6.709q-2.355-.131-4.647-.29-2.632-.183-5.187-.4c-1.052-.087-2.088-.179-3.119-.276a2.859,2.859,0,0,1-2.556-2.4c-.165-1.005,1.509-2.01,1.466-3.215-.055-1.685-1.734-3.325-1.542-4.671a2.845,2.845,0,0,1,3.094-2.414q2.055.193,4.164.368c1.023.087,2.056,0,3.078.126a5.191,5.191,0,0,1,2.819,1.328,7.007,7.007,0,0,1,1.72,2.128,6.076,6.076,0,0,1,.37.867A6.536,6.536,0,0,1-28.767,1457.023Z" fill="#ebebeb"/>
      </g>
      <g id="Grupo_1330" data-name="Grupo 1330">
        <g id="Caminho_260-17" data-name="Caminho 260-17">
          <path id="Caminho_261-7" data-name="Caminho 261-7" d="M32.291,1464.063a2.863,2.863,0,0,1-2.567,2.419c-9.623.9-20.146,1.479-31.451,1.492-11.635.015-22.447-.569-32.307-1.495a2.861,2.861,0,0,1-2.559-2.392,25.868,25.868,0,0,1-.323-3.323,25.693,25.693,0,0,1,.251-4.562,2.847,2.847,0,0,1,3.094-2.415c9.666.915,20.265,1.493,31.672,1.484,11.211-.008,21.639-.581,31.164-1.482a2.861,2.861,0,0,1,3.1,2.486,27.477,27.477,0,0,1,.227,4.478A27.578,27.578,0,0,1,32.291,1464.063Z" fill="#f3f3f3"/>
        </g>
        <g id="Grupo_1329" data-name="Grupo 1329">
          <g id="Grupo_1328" data-name="Grupo 1328">
            <path id="Caminho_2076" data-name="Caminho 2076" d="M-21.5,1464.328a.544.544,0,0,1-.482-.252.565.565,0,0,1,.033-.566l2.311-4.516a1.007,1.007,0,0,1,.33-.393.718.718,0,0,1,.425-.109.707.707,0,0,1,.414.147.941.941,0,0,1,.286.421l1.913,4.7a.576.576,0,0,1-.014.571.514.514,0,0,1-.475.206.648.648,0,0,1-.425-.151,1.093,1.093,0,0,1-.249-.423l-.31-.8-2.7-.122-.372.775a1.206,1.206,0,0,1-.282.4A.571.571,0,0,1-21.5,1464.328Zm2.537-4.406-1.01,2.144,1.856.083-.829-2.228Z" fill="#9a9a9a"/>
            <path id="Caminho_2077" data-name="Caminho 2077" d="M-14.912,1464.607a.564.564,0,0,1-.423-.168.6.6,0,0,1-.136-.439l.129-4.76a.587.587,0,0,1,.168-.436.606.606,0,0,1,.449-.139.675.675,0,0,1,.388.109.907.907,0,0,1,.258.328l1.671,3.263,1.847-3.167a.948.948,0,0,1,.277-.314.669.669,0,0,1,.384-.088.577.577,0,0,1,.428.163.589.589,0,0,1,.139.446l-.129,4.76a.517.517,0,0,1-.446.579.532.532,0,0,1-.144,0,.52.52,0,0,1-.572-.462.51.51,0,0,1,0-.146l.082-3.019-1.414,2.39a.828.828,0,0,1-.217.228.5.5,0,0,1-.293.071.519.519,0,0,1-.294-.087.7.7,0,0,1-.2-.24l-1.283-2.437-.081,2.994a.516.516,0,0,1-.449.575A.537.537,0,0,1-14.912,1464.607Z" fill="#9a9a9a"/>
            <path id="Caminho_2078" data-name="Caminho 2078" d="M-7.666,1464.7a.59.59,0,0,1-.661-.509.544.544,0,0,1,0-.166l.05-4.466a.588.588,0,0,1,.508-.66.57.57,0,0,1,.165,0l2.87.031a.439.439,0,0,1,.5.37.405.405,0,0,1,0,.13.441.441,0,0,1-.374.5.445.445,0,0,1-.131,0l-2.319-.026-.015,1.358,2.13.023a.446.446,0,0,1,.5.386.49.49,0,0,1,0,.121.449.449,0,0,1-.387.5.434.434,0,0,1-.13,0l-2.129-.024-.017,1.448,2.318.025a.439.439,0,0,1,.5.37.405.405,0,0,1,0,.13.443.443,0,0,1-.378.5.43.43,0,0,1-.13,0Z" fill="#9a9a9a"/>
            <path id="Caminho_2079" data-name="Caminho 2079" d="M-1.33,1464.813a.632.632,0,0,1-.479-.172.68.68,0,0,1-.165-.484l-.009-4.162H-3.44a.469.469,0,0,1-.535-.39.463.463,0,0,1,0-.134.47.47,0,0,1,.4-.529.445.445,0,0,1,.131,0l4.187-.009a.468.468,0,0,1,.535.392.449.449,0,0,1,0,.132.47.47,0,0,1-.4.529.5.5,0,0,1-.133,0H-.709l.009,4.162a.706.706,0,0,1-.159.487A.621.621,0,0,1-1.33,1464.813Z" fill="#9a9a9a"/>
            <path id="Caminho_2080" data-name="Caminho 2080" d="M2.486,1464.785a.632.632,0,0,1-.479-.167.679.679,0,0,1-.171-.483l-.056-4.63a.574.574,0,0,1,.47-.662.593.593,0,0,1,.163,0q.634-.008.642.65l.057,4.63Q3.118,1464.777,2.486,1464.785Z" fill="#9a9a9a"/>
            <path id="Caminho_2081" data-name="Caminho 2081" d="M6.338,1464.736a4.906,4.906,0,0,1-1.056-.093,3.185,3.185,0,0,1-.92-.316.537.537,0,0,1-.3-.327.594.594,0,0,1,.016-.407.467.467,0,0,1,.693-.254,2.544,2.544,0,0,0,.739.262,3.509,3.509,0,0,0,.8.073,1.494,1.494,0,0,0,.847-.2.552.552,0,0,0,.25-.471.456.456,0,0,0-.189-.375,1.675,1.675,0,0,0-.64-.223l-.934-.177q-1.56-.3-1.589-1.576a1.623,1.623,0,0,1,.274-.973,1.93,1.93,0,0,1,.811-.664,3.046,3.046,0,0,1,1.226-.258,3.63,3.63,0,0,1,.905.09,2.607,2.607,0,0,1,.79.308.529.529,0,0,1,.263.314.6.6,0,0,1-.021.38.472.472,0,0,1-.258.261.561.561,0,0,1-.458-.048,2.287,2.287,0,0,0-.58-.193,3,3,0,0,0-.627-.052,1.363,1.363,0,0,0-.8.219.612.612,0,0,0-.271.529.475.475,0,0,0,.18.382,1.4,1.4,0,0,0,.606.227l.933.176q1.6.309,1.63,1.525a1.6,1.6,0,0,1-.271.956,1.89,1.89,0,0,1-.808.653A3.168,3.168,0,0,1,6.338,1464.736Z" fill="#9a9a9a"/>
            <path id="Caminho_2082" data-name="Caminho 2082" d="M11.413,1464.571a.623.623,0,0,1-.483-.156.672.672,0,0,1-.182-.478l-.149-4.159-1.455.053a.469.469,0,0,1-.548-.375.426.426,0,0,1-.006-.133.468.468,0,0,1,.383-.541.458.458,0,0,1,.133,0l4.185-.151a.468.468,0,0,1,.546.376.487.487,0,0,1,.006.132.468.468,0,0,1-.382.541.452.452,0,0,1-.132,0l-1.457.052.15,4.159a.688.688,0,0,1-.143.491A.618.618,0,0,1,11.413,1464.571Z" fill="#9a9a9a"/>
            <path id="Caminho_2083" data-name="Caminho 2083" d="M14.107,1464.476a.54.54,0,0,1-.5-.206.56.56,0,0,1-.02-.566l1.875-4.713a1.006,1.006,0,0,1,.292-.421.7.7,0,0,1,.412-.149.72.72,0,0,1,.426.106.97.97,0,0,1,.325.393l2.346,4.505a.576.576,0,0,1,.04.57.508.508,0,0,1-.453.248.64.64,0,0,1-.437-.109,1.074,1.074,0,0,1-.287-.4l-.384-.771-2.7.133-.3.8a1.229,1.229,0,0,1-.242.428A.576.576,0,0,1,14.107,1464.476Zm2.111-4.626-.805,2.231,1.856-.092-1.037-2.14Z" fill="#9a9a9a"/>
          </g>
        </g>
      </g>
    </g>
    <g id="Grupo_1310" data-name="Grupo 1310">
      <path id="Caminho_2052" data-name="Caminho 2052" d="M13.257,1410.186" fill="#e3e3e3"/>
      <g id="Grupo_1309" data-name="Grupo 1309">
        <g id="Grupo_1308" data-name="Grupo 1308">
          <path id="Caminho_2053" data-name="Caminho 2053" d="M-17.365,1425.481l4.145-4.592,3.808,4.959-2.994,3.36Z" fill="#f3f3f3"/>
          <path id="Caminho_2054" data-name="Caminho 2054" d="M13.1,1446.47l.02.015-4.144,4.592h-22.2l3.809-4.96H5.168l2.977-3.359.017-11.227v-2.322l-2.994-3.36H-9.416l-3.809-4.959h22.2l4.144,4.591-.02.015Z" fill="#6d6d6d"/>
          <path id="Caminho_2055" data-name="Caminho 2055" d="M-9.416,1446.113l-3.809,4.96-4.145-4.592v-21l4.959,3.727v13.549Z" fill="#ebebeb"/>
          <path id="Caminho_2056" data-name="Caminho 2056" d="M8.163,1429.208q0,5.4-.009,10.8H8.148v2.75q-1.491,1.68-2.977,3.36H-9.416l-2.994-3.36v-13.549l2.994-3.359H5.169Z" fill="#b9b9b9"/>
        </g>
        <path id="Caminho_1801-15" data-name="Caminho 1801-15" d="M4.527,1426.1a.137.137,0,0,1,.036-.036l.361-.2.22-.12.02-.012a.078.078,0,0,0,.036-.036l.092-.164v-.008l.128-.232h0l.108-.193a.082.082,0,0,1,.044-.04.085.085,0,0,1,.076,0,.083.083,0,0,1,.036.036l.237.433.092.168a.07.07,0,0,0,.036.036l.065.036.537.292a.093.093,0,0,1,.036.121.083.083,0,0,1-.036.036l-.1.056-.229.128-.221.12h0l-.044.025a.079.079,0,0,0-.036.036l-.077.136-.127.233-.125.233a.09.09,0,0,1-.12.032.091.091,0,0,1-.036-.032l-.329-.6a.089.089,0,0,0-.036-.036l-.6-.328A.1.1,0,0,1,4.527,1426.1Z" fill="#fff"/>
        <path id="Caminho_1801-2-2" data-name="Caminho 1801-2-2" d="M5.375,1429.934a.387.387,0,0,1,.092-.093l.932-.506.567-.311.052-.03a.211.211,0,0,0,.094-.093l.238-.425v-.021l.33-.6v-.01l.279-.5a.235.235,0,0,1,.314-.09.214.214,0,0,1,.093.093l.611,1.116.236.434a.2.2,0,0,0,.093.093l.165.092,1.385.755a.234.234,0,0,1,.093.31.2.2,0,0,1-.093.093l-.268.145-.59.331-.569.311H9.42l-.114.064a.2.2,0,0,0-.093.092l-.2.353-.331.6-.319.6a.232.232,0,0,1-.31.083.24.24,0,0,1-.093-.083l-.847-1.551a.2.2,0,0,0-.093-.092l-1.55-.848A.246.246,0,0,1,5.375,1429.934Z" fill="#fff"/>
      </g>
    </g>
  </g>
</svg>
