<svg xmlns="http://www.w3.org/2000/svg" width="66.696" height="66.695" viewBox="0 0 66.696 66.695">
  <g id="Grupo_2001" data-name="Grupo 2001" transform="translate(-146.57 -366.335)">
    <path id="Elipse_30-4-23" data-name="Elipse 30-4-23" d="M-7212.678-5410.22A31.683,31.683,0,0,1-7181-5378.537a31.682,31.682,0,0,1-31.683,31.682,31.682,31.682,0,0,1-31.683-31.682A31.682,31.682,0,0,1-7212.678-5410.22Z" transform="translate(7392.361 5778.221)" fill="#f4de9b" stroke="#ed7100" stroke-width="2.332"/>
    <g id="Grupo_2001-2" data-name="Grupo 2001">
      <g id="Grupo_1310" data-name="Grupo 1310" transform="translate(7390.361 5778.959)" opacity="0.53">
        <path id="Caminho_2052" data-name="Caminho 2052" d="M-7185.526-5404.383" fill="#ffe780"/>
        <g id="Grupo_1309" data-name="Grupo 1309" transform="translate(3 -2)">
          <g id="Grupo_1308" data-name="Grupo 1308">
            <path id="Caminho_2053" data-name="Caminho 2053" d="M-7223.134-5385.6l5.09-5.639,4.676,6.09-3.677,4.126Z" fill="#f5f2f7"/>
            <path id="Caminho_2054" data-name="Caminho 2054" d="M-7185.718-5359.827l.025.019-5.089,5.639h-27.261l4.676-6.091h17.908l3.655-4.125.021-13.787v-2.851l-3.676-4.126h-17.909l-4.676-6.089h27.261l5.089,5.637-.025.019Z" fill="#985eb7"/>
            <path id="Caminho_2055" data-name="Caminho 2055" d="M-7213.368-5360.265l-4.676,6.091-5.09-5.639V-5385.6l6.089,4.577v16.638Z" fill="#efe9f4"/>
            <path id="Caminho_2056" data-name="Caminho 2056" d="M-7191.781-5381.024q0,6.631-.011,13.262h-.008v3.377q-1.83,2.063-3.656,4.126h-17.912l-3.677-4.126v-16.638l3.677-4.125h17.91Z" fill="#cbb2db"/>
          </g>
          <path id="Caminho_1801" data-name="Caminho 1801" d="M-7196.246-5384.843a.19.19,0,0,1,.044-.044l.443-.246.27-.147.025-.015a.1.1,0,0,0,.044-.044l.113-.2v-.009l.157-.285h0l.133-.237a.1.1,0,0,1,.054-.049.1.1,0,0,1,.093,0,.086.086,0,0,1,.044.044l.291.531.113.207a.1.1,0,0,0,.045.044l.08.044.659.36a.11.11,0,0,1,.044.147.09.09,0,0,1-.044.045l-.123.07-.281.157-.271.147h0l-.055.031a.1.1,0,0,0-.044.044l-.093.167-.157.286-.152.286a.111.111,0,0,1-.148.04.116.116,0,0,1-.044-.04l-.4-.736a.094.094,0,0,0-.044-.045l-.737-.4A.123.123,0,0,1-7196.246-5384.843Z" fill="#fff"/>
          <path id="Caminho_1801-2" data-name="Caminho 1801-2" d="M-7195.205-5380.133a.488.488,0,0,1,.114-.114l1.143-.621.7-.382.064-.037a.252.252,0,0,0,.115-.114l.292-.521v-.026l.406-.736v-.013l.342-.614a.26.26,0,0,1,.14-.122.265.265,0,0,1,.246.012.246.246,0,0,1,.114.114l.75,1.371.291.533a.262.262,0,0,0,.115.114l.2.113,1.7.927a.286.286,0,0,1,.114.38.242.242,0,0,1-.114.115l-.329.178-.725.406-.7.382h-.013l-.14.079a.258.258,0,0,0-.114.113l-.245.432-.407.737-.392.736a.282.282,0,0,1-.38.1.286.286,0,0,1-.114-.1l-1.041-1.9a.242.242,0,0,0-.114-.113l-1.9-1.041A.306.306,0,0,1-7195.205-5380.133Z" fill="#fff"/>
        </g>
      </g>
      <path id="Elipse_30-4-2-2" data-name="Elipse 30-4-2-2" d="M-7212.444-5410.22a31.682,31.682,0,0,1,31.683,31.683,31.682,31.682,0,0,1-31.683,31.682,31.682,31.682,0,0,1-31.683-31.682A31.683,31.683,0,0,1-7212.444-5410.22Z" transform="translate(7392.362 5778.221)" fill="none" stroke="#ffc400" stroke-width="3.33"/>
    </g>
  </g>
</svg>
