<svg xmlns="http://www.w3.org/2000/svg" width="66.696" height="66.695" viewBox="0 0 66.696 66.695">
  <g id="Grupo_2025" data-name="Grupo 2025" transform="translate(-238.574 -520.898)">
    <path id="Elipse_30-4-23" data-name="Elipse 30-4-23" d="M-7930.709-4912.786a31.684,31.684,0,0,1,31.679,31.683,31.683,31.683,0,0,1-31.682,31.682h0A31.683,31.683,0,0,1-7962.4-4881.1h0a31.682,31.682,0,0,1,31.681-31.683Z" transform="translate(8202.396 5435.35)" fill="#ddd" stroke="#9e9e9e" stroke-width="2.332"/>
    <g id="Grupo_1310" data-name="Grupo 1310" transform="translate(8202.396 5435.35)" opacity="0.53">
      <path id="Caminho_2052" data-name="Caminho 2052" d="M-7905.556-4906.211" fill="#e3e3e3"/>
      <g id="Grupo_1309" data-name="Grupo 1309">
        <g id="Grupo_1308" data-name="Grupo 1308">
          <path id="Caminho_2053" data-name="Caminho 2053" d="M-7940.164-4889.428l5.09-5.639,4.675,6.089-3.676,4.126Z" fill="#f3f3f3"/>
          <path id="Caminho_2054" data-name="Caminho 2054" d="M-7902.748-4863.655l.025.019-5.089,5.639h-27.261l4.675-6.091h17.909l3.654-4.125.021-13.787v-2.851l-3.675-4.126h-17.91l-4.675-6.089h27.261l5.089,5.637-.025.019Z" fill="#797979"/>
          <path id="Caminho_2055" data-name="Caminho 2055" d="M-7930.4-4864.093l-4.675,6.091-5.09-5.64v-25.786l6.089,4.577v16.638Z" fill="#ececec"/>
          <path id="Caminho_2056" data-name="Caminho 2056" d="M-7908.811-4884.852q0,6.63-.011,13.262h-.008v3.377q-1.83,2.064-3.656,4.126H-7930.4l-3.677-4.126v-16.638l3.677-4.125h17.91Z" fill="#bebebe"/>
        </g>
        <path id="Caminho_1801" data-name="Caminho 1801" d="M-7913.277-4888.671a.188.188,0,0,1,.044-.044l.443-.246.27-.147.025-.015a.1.1,0,0,0,.044-.044l.113-.2v-.009l.157-.285h0l.133-.237a.1.1,0,0,1,.054-.049.1.1,0,0,1,.093,0,.094.094,0,0,1,.044.044l.291.531.113.207a.091.091,0,0,0,.045.044l.08.044.659.36a.11.11,0,0,1,.044.147.1.1,0,0,1-.044.045l-.123.069-.281.158-.271.147h0l-.055.03a.1.1,0,0,0-.044.044l-.093.167-.157.286-.152.287a.112.112,0,0,1-.148.04.124.124,0,0,1-.044-.04l-.4-.736a.089.089,0,0,0-.044-.045l-.736-.4A.123.123,0,0,1-7913.277-4888.671Z" fill="#fff"/>
        <path id="Caminho_1801-2" data-name="Caminho 1801-2" d="M-7912.236-4883.961a.5.5,0,0,1,.114-.114l1.143-.621.7-.382.064-.037a.251.251,0,0,0,.116-.114l.292-.521v-.025l.405-.736v-.013l.342-.614a.26.26,0,0,1,.14-.122.262.262,0,0,1,.246.012.242.242,0,0,1,.114.114l.75,1.371.291.533a.267.267,0,0,0,.115.114l.2.113,1.7.926a.287.287,0,0,1,.114.38.245.245,0,0,1-.114.115l-.329.179-.725.4-.7.382h-.013l-.14.079a.258.258,0,0,0-.114.113l-.245.432-.407.737-.392.736a.283.283,0,0,1-.38.1.288.288,0,0,1-.114-.1l-1.041-1.9a.251.251,0,0,0-.113-.113l-1.9-1.041A.306.306,0,0,1-7912.236-4883.961Z" fill="#fff"/>
      </g>
    </g>
    <path id="Elipse_30-4-2-2-2" data-name="Elipse 30-4-2-2-2" d="M-7930.474-4912.786a31.682,31.682,0,0,1,31.683,31.68v0a31.683,31.683,0,0,1-31.682,31.682h0a31.682,31.682,0,0,1-31.683-31.681h0a31.683,31.683,0,0,1,31.683-31.683Z" transform="translate(8202.396 5435.35)" fill="none" stroke="#9e9e9e" stroke-width="3.33"/>
  </g>
</svg>
