<svg xmlns="http://www.w3.org/2000/svg" width="83.256" height="65.987" viewBox="0 0 83.256 65.987">
  <g id="Grupo_1345" data-name="Grupo 1345" transform="translate(-314.027 -524.283)">
    <g id="Grupo_1521" data-name="Grupo 1521">
      <g id="Grupo_1341" data-name="Grupo 1341">
        <g id="Grupo_1340" data-name="Grupo 1340">
          <path id="Caminho_2108" data-name="Caminho 2108" d="M333.308,546.63l22.347-22.347V546.63Z" fill="#c3c3dd"/>
          <path id="Caminho_2109" data-name="Caminho 2109" d="M378,546.63h0l-22.347-22.347V546.63H333.308l22.347,22.347h0L366.829,557.8,378,546.63Z" fill="#5d5dba"/>
          <rect id="Retângulo_413" data-name="Retângulo 413" width="16.046" height="16.046" transform="translate(344.309 546.63) rotate(-45)" fill="#8d8dc6"/>
        </g>
        <path id="Caminho_1801" data-name="Caminho 1801" d="M354.3,535.594a.246.246,0,0,1,.045-.046l.452-.25.276-.152.025-.015a.091.091,0,0,0,.045-.044l.115-.206v-.01l.16-.291h0l.136-.241a.113.113,0,0,1,.055-.051.106.106,0,0,1,.1,0,.1.1,0,0,1,.045.045l.3.543.116.21a.088.088,0,0,0,.044.045l.081.045.672.366a.115.115,0,0,1,.046.152.105.105,0,0,1-.046.045l-.125.07-.287.16-.275.151h0l-.056.031a.109.109,0,0,0-.045.045l-.1.17-.16.292-.155.291a.114.114,0,0,1-.152.04.121.121,0,0,1-.044-.04l-.412-.751a.1.1,0,0,0-.045-.045l-.75-.411A.126.126,0,0,1,354.3,535.594Z" fill="#fff"/>
        <path id="Caminho_1801-2" data-name="Caminho 1801-2" d="M348.366,538.845a.47.47,0,0,1,.115-.116l1.165-.634.712-.389.065-.038a.257.257,0,0,0,.117-.118l.3-.53v-.026l.414-.751v-.012l.35-.626a.293.293,0,0,1,.393-.112.242.242,0,0,1,.116.116l.765,1.4.3.543a.262.262,0,0,0,.117.118l.207.115,1.734.945a.292.292,0,0,1,.117.388.253.253,0,0,1-.117.118l-.335.181-.738.413-.713.389h-.013l-.142.08a.263.263,0,0,0-.117.116l-.25.441-.415.75-.4.751a.291.291,0,0,1-.388.1.309.309,0,0,1-.118-.1l-1.06-1.943a.262.262,0,0,0-.117-.116l-1.942-1.06A.312.312,0,0,1,348.366,538.845Z" fill="#fff"/>
      </g>
      <g id="Grupo_1344" data-name="Grupo 1344">
        <g id="Caminho_260" data-name="Caminho 260">
          <path id="Caminho_2110" data-name="Caminho 2110" d="M377.649,575.238v8.445q2.964-.164,5.847-.364,3.313-.231,6.531-.5c1.323-.109,2.627-.227,3.925-.347a3.6,3.6,0,0,0,3.218-3.013c.207-1.263-1.9-2.529-1.845-4.044.067-2.126,2.182-4.187,1.939-5.878a3.58,3.58,0,0,0-3.893-3.038q-2.586.243-5.239.464c-1.289.109-2.59,0-3.877.157a6.54,6.54,0,0,0-3.549,1.672,8.88,8.88,0,0,0-2.165,2.678,8.053,8.053,0,0,0-.892,3.768Z" fill="#e9e8ef"/>
        </g>
        <g id="Caminho_260-2" data-name="Caminho 260-2">
          <path id="Caminho_2111" data-name="Caminho 2111" d="M333.663,576.487v8.443q-2.964-.16-5.847-.364-3.316-.231-6.531-.5c-1.323-.109-2.627-.226-3.926-.348a3.6,3.6,0,0,1-3.218-3.011c-.207-1.264,1.9-2.529,1.846-4.046-.067-2.127-2.184-4.188-1.94-5.879a3.58,3.58,0,0,1,3.895-3.037q2.583.249,5.238.464c1.289.108,2.589,0,3.877.157a6.543,6.543,0,0,1,3.549,1.672,8.851,8.851,0,0,1,2.165,2.678,8.054,8.054,0,0,1,.892,3.771Z" fill="#e9e8ef"/>
        </g>
        <g id="Caminho_260-3" data-name="Caminho 260-3">
          <path id="Caminho_261" data-name="Caminho 261" d="M387.629,585.35a3.185,3.185,0,0,1-2.383,3.044,234.157,234.157,0,0,1-59.168,0,3.169,3.169,0,0,1-2.376-3.009c-.153-1.267-.264-2.667-.3-4.183a44.411,44.411,0,0,1,.234-5.743c.2-1.889,1.471-3.218,2.877-3.038a228.708,228.708,0,0,0,58.313,0c1.425-.183,2.689,1.2,2.876,3.126a47.177,47.177,0,0,1,.212,5.638C387.874,582.688,387.771,584.08,387.629,585.35Z" fill="#f2f2f4"/>
        </g>
        <g id="Grupo_1343" data-name="Grupo 1343">
          <g id="Grupo_1342" data-name="Grupo 1342">
            <path id="Caminho_2112" data-name="Caminho 2112" d="M340.585,586.09a6.134,6.134,0,0,1-1.32-.185,4.057,4.057,0,0,1-1.135-.459.679.679,0,0,1-.35-.43.757.757,0,0,1,.048-.511.587.587,0,0,1,.889-.274,3.257,3.257,0,0,0,.909.375,4.512,4.512,0,0,0,1,.145,1.891,1.891,0,0,0,1.078-.2.7.7,0,0,0,.344-.575.572.572,0,0,0-.212-.482,2.113,2.113,0,0,0-.789-.325l-1.16-.284q-1.944-.474-1.894-2.09a2.052,2.052,0,0,1,.41-1.2,2.437,2.437,0,0,1,1.066-.78,3.874,3.874,0,0,1,1.556-.243,4.649,4.649,0,0,1,1.134.177,3.33,3.33,0,0,1,.97.438.654.654,0,0,1,.309.415.731.731,0,0,1-.052.474.581.581,0,0,1-.342.31.7.7,0,0,1-.571-.091,3.032,3.032,0,0,0-.717-.282,3.691,3.691,0,0,0-.783-.106,1.723,1.723,0,0,0-1.017.221.779.779,0,0,0-.375.647.616.616,0,0,0,.2.5,1.775,1.775,0,0,0,.75.323l1.161.285q1.993.5,1.946,2.027a1.988,1.988,0,0,1-.4,1.185,2.371,2.371,0,0,1-1.059.764A4,4,0,0,1,340.585,586.09Z" fill="#373737"/>
            <path id="Caminho_2113" data-name="Caminho 2113" d="M344.713,586.187a.685.685,0,0,1-.618-.3.712.712,0,0,1,.021-.714l2.744-5.766a1.256,1.256,0,0,1,.4-.5.946.946,0,0,1,1.056.016,1.193,1.193,0,0,1,.376.518l2.577,5.851a.727.727,0,0,1,0,.717.646.646,0,0,1-.59.277.817.817,0,0,1-.542-.175,1.372,1.372,0,0,1-.328-.522l-.418-1-3.406-.055-.441.987a1.536,1.536,0,0,1-.339.517A.7.7,0,0,1,344.713,586.187Zm3.029-5.634-1.193,2.734,2.34.038-1.126-2.772Z" fill="#373737"/>
            <path id="Caminho_2114" data-name="Caminho 2114" d="M353.118,586.293a.809.809,0,0,1-.6-.218.866.866,0,0,1-.211-.633l.009-5.7a.741.741,0,0,1,.839-.837h3.541a.554.554,0,0,1,.625.472.566.566,0,0,1,0,.154.558.558,0,0,1-.631.625H353.91v1.781h2.548a.559.559,0,0,1,.639.464.542.542,0,0,1,0,.161.562.562,0,0,1-.489.628.573.573,0,0,1-.155,0h-2.546v2.251C353.9,586.012,353.643,586.294,353.118,586.293Z" fill="#373737"/>
            <path id="Caminho_2115" data-name="Caminho 2115" d="M358.994,586.281a.8.8,0,0,1-.6-.214.86.86,0,0,1-.211-.608l-.046-5.829a.723.723,0,0,1,.6-.831.749.749,0,0,1,.206,0,.721.721,0,0,1,.8.822l.045,5.828Q359.79,586.274,358.994,586.281Zm.548-8.09a.475.475,0,0,1-.645.068.48.48,0,0,1-.184-.264.386.386,0,0,1,.07-.325l.736-1.1a.5.5,0,0,1,.4-.261.67.67,0,0,1,.431.125.593.593,0,0,1,.25.35.449.449,0,0,1-.125.419Z" fill="#373737"/>
            <path id="Caminho_2116" data-name="Caminho 2116" d="M362.057,586.25a.791.791,0,0,1-.605-.207.848.848,0,0,1-.218-.607l-.106-5.743a.722.722,0,0,1,.6-.83.7.7,0,0,1,.2,0l2.516-.047a2.743,2.743,0,0,1,1.9.554,2.1,2.1,0,0,1,.693,1.634,2.16,2.16,0,0,1-.394,1.376,2.1,2.1,0,0,1-1.181.76,1.567,1.567,0,0,1,.914.78l.663,1.18a.828.828,0,0,1,.1.728q-.129.339-.646.349a.986.986,0,0,1-.561-.134,1.154,1.154,0,0,1-.375-.439l-1.028-1.813a.857.857,0,0,0-.39-.388,1.313,1.313,0,0,0-.54-.094l-.787.015.04,2.091a.862.862,0,0,1-.19.614A.773.773,0,0,1,362.057,586.25Zm.721-4.092,1.438-.026q1.293-.026,1.275-1.059c-.013-.683-.452-1.017-1.312-1l-1.438.026Z" fill="#373737"/>
            <path id="Caminho_2117" data-name="Caminho 2117" d="M368.479,586.12a.679.679,0,0,1-.625-.269.714.714,0,0,1-.014-.714l2.452-5.894a1.258,1.258,0,0,1,.376-.525.893.893,0,0,1,.521-.181.9.9,0,0,1,.533.143,1.207,1.207,0,0,1,.4.5l2.867,5.715a.738.738,0,0,1,.04.718.646.646,0,0,1-.575.3.8.8,0,0,1-.548-.147,1.331,1.331,0,0,1-.355-.5l-.469-.98-3.4.118-.391,1.007a1.529,1.529,0,0,1-.312.534A.715.715,0,0,1,368.479,586.12Zm2.745-5.779-1.055,2.791,2.339-.08-1.262-2.712Z" fill="#373737"/>
          </g>
        </g>
      </g>
    </g>
  </g>
</svg>
