<svg xmlns="http://www.w3.org/2000/svg" xmlns:xlink="http://www.w3.org/1999/xlink" width="346" height="318" viewBox="0 0 346 318"><defs><style>.a{fill:#fff;}.b{filter:url(#a);}</style><filter id="a" x="0" y="0" width="346" height="318" filterUnits="userSpaceOnUse"><feOffset dy="3" input="SourceAlpha"/><feGaussianBlur stdDeviation="3" result="b"/><feFlood flood-opacity="0.161"/><feComposite operator="in" in2="b"/><feComposite in="SourceGraphic"/></filter></defs><g transform="translate(9 5.992)"><g class="b" transform="matrix(1, 0, 0, 1, -9, -5.99)"><path class="a" d="M24,0A23.814,23.814,0,0,0,0,23.624V234.76a23.814,23.814,0,0,0,24,23.624H128.9c3.577,5.849,13.462,20.724,26.329,29.437,13.15,8.9,38.34,12.985,43.908,11.8a85.534,85.534,0,0,1-25.171-41.24H304a23.814,23.814,0,0,0,24-23.624V23.624A23.814,23.814,0,0,0,304,0ZM199.347,299.391c-.137-.1-.25-.085-.213.234-.2.244-.089.24.038.175.054.145.141.127.224.04.443.334.381.081.206-.172-.017-.024-.034-.048-.053-.071l.009-.02c.07-.165.1-.33.009-.33C199.523,299.247,199.453,299.288,199.347,299.391Z" transform="translate(9 6)"/></g></g></svg>