<svg xmlns="http://www.w3.org/2000/svg" xmlns:xlink="http://www.w3.org/1999/xlink" width="346" height="379.736" viewBox="0 0 346 379.736"><defs><style>.a{fill:#fff;}.b{filter:url(#a);}</style><filter id="a" x="0" y="0" width="346" height="379.736" filterUnits="userSpaceOnUse"><feOffset dy="3" input="SourceAlpha"/><feGaussianBlur stdDeviation="3" result="b"/><feFlood flood-opacity="0.161"/><feComposite operator="in" in2="b"/><feComposite in="SourceGraphic"/></filter></defs><g transform="translate(9 128)"><g class="b" transform="matrix(1, 0, 0, 1, -9, -128)"><path class="a" d="M200.037,246.6c-.083.071-.171.086-.224-.033-.127.054-.242.057-.038-.144-.037-.263.076-.275.213-.193.319-.254.316-.051.212.153l-.009.017c.018.019.036.039.052.058.115.137.181.273.088.273A.724.724,0,0,1,200.037,246.6Zm-44.17-9.884c-12.867-7.166-22.752-19.4-26.329-24.211H24c-13.255,0-24-8.7-24-19.429V-95.57C0-106.3,10.745-115,24-115H304c13.254,0,24,8.7,24,19.43V193.08c0,10.731-10.745,19.429-24,19.429H174.6c5.819,18.353,19.866,30.1,25.172,33.918a15.991,15.991,0,0,1-2.59.164C188.673,246.592,167.532,243.217,155.867,236.72Z" transform="translate(9 121)"/></g></g></svg>