<svg xmlns="http://www.w3.org/2000/svg" xmlns:xlink="http://www.w3.org/1999/xlink" width="346" height="283.976" viewBox="0 0 346 283.976"><defs><style>.a{fill:#fff;}.b{clip-path:url(#e);}.c{filter:url(#c);}.d{filter:url(#a);}</style><filter id="a" x="0" y="16.799" width="346" height="266.977" filterUnits="userSpaceOnUse"><feOffset dy="3" input="SourceAlpha"/><feGaussianBlur stdDeviation="3" result="b"/><feFlood flood-opacity="0.161"/><feComposite operator="in" in2="b"/><feComposite in="SourceGraphic"/></filter><filter id="c" x="0" y="0" width="346" height="283.976" filterUnits="userSpaceOnUse"><feOffset dy="3" input="SourceAlpha"/><feGaussianBlur stdDeviation="3" result="d"/><feFlood flood-opacity="0.161"/><feComposite operator="in" in2="d"/><feComposite in="SourceGraphic"/></filter><clipPath id="e"><g class="d" transform="matrix(1, 0, 0, 1, 0, 0)"><path class="a" d="M199.4,248.805c-.083.093-.171.112-.224-.043-.127.07-.242.074-.038-.188-.037-.343.076-.359.214-.251.32-.332.316-.066.211.2l-.009.022c.018.025.036.051.052.076.115.178.181.356.088.356A.648.648,0,0,1,199.4,248.805Zm-44.169-12.893c-12.868-9.348-22.753-25.306-26.33-31.581H24a24,24,0,0,1-24-24V24A24,24,0,0,1,24,0H304a24,24,0,0,1,24,24V180.332a24,24,0,0,1-24,24H173.962a92.737,92.737,0,0,0,25.171,44.243,12.329,12.329,0,0,1-2.59.215C188.032,248.789,166.891,244.387,155.226,235.913Z"/></g></clipPath></defs><g transform="translate(9 22.799)"><g class="c" transform="matrix(1, 0, 0, 1, -9, -22.8)"><path class="a" d="M199.4,265.794c-.084.1-.171.12-.224-.046-.127.075-.242.079-.038-.2-.037-.366.076-.384.214-.268.32-.354.316-.07.211.213l-.009.023c.018.027.035.054.052.081.115.19.182.381.088.381C199.64,265.976,199.547,265.924,199.4,265.794Zm-44.17-13.773c-12.868-9.986-22.753-27.034-26.33-33.737H24a24,24,0,0,1-24-24V24A24,24,0,0,1,24,0H304a24,24,0,0,1,24,24V194.284a24,24,0,0,1-24,24H173.962c5.818,25.574,19.865,41.942,25.171,47.264a11.562,11.562,0,0,1-2.59.229C188.032,265.776,166.891,261.073,155.226,252.021Z" transform="translate(9 6)"/></g></g></svg>