<svg xmlns="http://www.w3.org/2000/svg" width="66.696" height="66.696" viewBox="0 0 66.696 66.696">
  <g id="Grupo_2034" data-name="Grupo 2034" transform="translate(-146.569 -366.334)">
    <path id="Elipse_30-4-23" data-name="Elipse 30-4-23" d="M-7414.777-5457.706a31.683,31.683,0,0,1,31.683,31.683,31.683,31.683,0,0,1-31.683,31.683,31.683,31.683,0,0,1-31.683-31.683A31.683,31.683,0,0,1-7414.777-5457.706Z" transform="translate(7594.46 5825.705)" fill="#f4de9b" stroke="#ed7100" stroke-width="2.332"/>
    <g id="Grupo_1857" data-name="Grupo 1857" transform="translate(7593.46 5825.705)" opacity="0.53">
      <path id="Caminho_13727" data-name="Caminho 13727" d="M-7427.5-5440.721l5.1-5.646,4.682,6.1-3.681,4.131Z" fill="#7f7f7f"/>
      <path id="Caminho_13728" data-name="Caminho 13728" d="M-7390.016-5440.721l-5.1-5.646-4.683,6.1,3.681,4.131Z" fill="#191919"/>
      <path id="Caminho_13729" data-name="Caminho 13729" d="M-7422.408-5446.367h27.3l-4.683,6.1h-17.931Z" fill="#191919"/>
      <path id="Caminho_13730" data-name="Caminho 13730" d="M-7421.407-5436.139l-6.1-4.583v36.771l6.1-4.583v-27.606Z" fill="#686868"/>
      <path id="Caminho_13731" data-name="Caminho 13731" d="M-7396.113-5436.139v13.8l-.021,13.8,6.094,4.583v-36.771Z" fill="#191919"/>
      <path id="Caminho_13732" data-name="Caminho 13732" d="M-7427.5-5403.95l5.1,5.646,4.682-6.1-3.681-4.131Z" fill="#686868"/>
      <path id="Caminho_13733" data-name="Caminho 13733" d="M-7390.016-5403.95l-5.1,5.646-4.683-6.1,3.66-4.131Z" fill="#191919"/>
      <path id="Caminho_13734" data-name="Caminho 13734" d="M-7422.408-5398.3h27.3l-4.683-6.1h-17.931Z" fill="#191919"/>
      <path id="Caminho_13735" data-name="Caminho 13735" d="M-7399.794-5404.4h-17.932l-3.681-4.131v-27.607l3.681-4.131h17.932l3.681,4.131-.022,27.607Z" fill="#3a3a3a"/>
      <path id="Caminho_1801" data-name="Caminho 1801" d="M-7422.457-5436.643a.188.188,0,0,1,.044-.044l.444-.241.271-.149.024-.014a.1.1,0,0,0,.045-.045l.113-.2v-.009l.158-.286v-.005l.133-.237a.1.1,0,0,1,.054-.049.106.106,0,0,1,.094,0,.1.1,0,0,1,.044.044l.291.532.113.207a.1.1,0,0,0,.044.045l.079.044.661.36a.111.111,0,0,1,.044.148.1.1,0,0,1-.044.044l-.128.069-.281.158-.272.148h0l-.055.03a.1.1,0,0,0-.044.044l-.093.168-.158.286-.153.286a.109.109,0,0,1-.147.039.12.12,0,0,1-.045-.039l-.4-.74a.1.1,0,0,0-.044-.044l-.74-.4A.119.119,0,0,1-7422.457-5436.643Z" fill="#fff"/>
      <path id="Caminho_1801-2" data-name="Caminho 1801" d="M-7425.048-5430.074a.47.47,0,0,1,.114-.115l1.144-.622.7-.382.064-.037a.255.255,0,0,0,.115-.115l.292-.521v-.025l.406-.737v-.013l.344-.61a.258.258,0,0,1,.139-.127.267.267,0,0,1,.242.013.254.254,0,0,1,.114.114l.75,1.372.292.534a.257.257,0,0,0,.114.115l.2.114,1.7.928a.287.287,0,0,1,.114.381.25.25,0,0,1-.114.114l-.33.178-.725.406-.7.382h-.013l-.14.079a.252.252,0,0,0-.114.114l-.241.432-.407.737-.393.737a.284.284,0,0,1-.381.1.309.309,0,0,1-.115-.1l-1.042-1.906a.247.247,0,0,0-.114-.114l-1.907-1.042A.306.306,0,0,1-7425.048-5430.074Z" fill="#fff"/>
    </g>
    <path id="Elipse_30-4-2-2" data-name="Elipse 30-4-2-2" d="M-7414.543-5457.706a31.683,31.683,0,0,1,31.683,31.683,31.683,31.683,0,0,1-31.683,31.683,31.683,31.683,0,0,1-31.683-31.683A31.683,31.683,0,0,1-7414.543-5457.706Z" transform="translate(7594.46 5825.705)" fill="none" stroke="#ffc400" stroke-width="3.33"/>
  </g>
</svg>
