<svg xmlns="http://www.w3.org/2000/svg" width="66.696" height="66.697" viewBox="0 0 66.696 66.697">
  <g id="Grupo_2026" data-name="Grupo 2026" transform="translate(-238.568 -521.534)">
    <path id="Elipse_30-4-23-2" data-name="Elipse 30-4-23-2" d="M-7365.683-4602.934A31.683,31.683,0,0,1-7334-4571.251h0a31.683,31.683,0,0,1-31.683,31.684h0a31.683,31.683,0,0,1-31.683-31.684h0a31.683,31.683,0,0,1,31.683-31.683Z" transform="translate(7637.365 5126.133)" fill="#ddd" stroke="#9e9e9e" stroke-width="2.332"/>
    <g id="Grupo_1857-2" data-name="Grupo 1857-2" transform="translate(7637.365 5126.133)" opacity="0.53">
      <path id="Caminho_13727-2" data-name="Caminho 13727-2" d="M-7379.406-4585.949l5.1-5.646,4.682,6.1-3.681,4.131Z" fill="#7f7f7f"/>
      <path id="Caminho_13728-2" data-name="Caminho 13728-2" d="M-7341.922-4585.949l-5.1-5.646-4.683,6.1,3.681,4.131Z" fill="#191919"/>
      <path id="Caminho_13729-2" data-name="Caminho 13729-2" d="M-7374.314-4591.6h27.3l-4.684,6.1h-17.931Z" fill="#191919"/>
      <path id="Caminho_13730-2" data-name="Caminho 13730-2" d="M-7373.313-4581.367l-6.1-4.583v36.771l6.1-4.583v-27.606Z" fill="#686868"/>
      <path id="Caminho_13731-2" data-name="Caminho 13731-2" d="M-7348.019-4581.367v13.8l-.021,13.8,6.094,4.583v-36.771Z" fill="#191919"/>
      <path id="Caminho_13732-2" data-name="Caminho 13732-2" d="M-7379.406-4549.178l5.1,5.646,4.682-6.1-3.681-4.131Z" fill="#686868"/>
      <path id="Caminho_13733-2" data-name="Caminho 13733-2" d="M-7341.922-4549.178l-5.1,5.646-4.683-6.1,3.66-4.131Z" fill="#191919"/>
      <path id="Caminho_13734-2" data-name="Caminho 13734-2" d="M-7374.314-4543.527h27.3l-4.684-6.1h-17.931Z" fill="#191919"/>
      <path id="Caminho_13735-2" data-name="Caminho 13735-2" d="M-7351.7-4549.627h-17.932l-3.681-4.131v-27.607l3.681-4.131h17.932l3.681,4.131-.022,27.607Z" fill="#3a3a3a"/>
      <path id="Caminho_1801-3" data-name="Caminho 1801-3" d="M-7374.363-4581.871a.2.2,0,0,1,.044-.044l.444-.241.271-.149.024-.014a.1.1,0,0,0,.045-.045l.112-.2v-.009l.159-.286v0l.132-.237a.1.1,0,0,1,.055-.048.1.1,0,0,1,.094,0,.1.1,0,0,1,.044.043l.291.533.113.207a.1.1,0,0,0,.043.045l.08.044.661.359a.112.112,0,0,1,.044.148.1.1,0,0,1-.044.044l-.128.069-.281.158-.272.148h0l-.055.03a.1.1,0,0,0-.044.044l-.093.168-.158.286-.153.286a.109.109,0,0,1-.147.039.109.109,0,0,1-.045-.039l-.4-.74a.1.1,0,0,0-.044-.044l-.74-.4A.117.117,0,0,1-7374.363-4581.871Z" fill="#fff"/>
      <path id="Caminho_1801-4" data-name="Caminho 1801-4" d="M-7376.954-4575.3a.466.466,0,0,1,.114-.115l1.144-.622.7-.382.064-.037a.253.253,0,0,0,.115-.115l.292-.521v-.025l.406-.737v-.013l.344-.61a.261.261,0,0,1,.139-.127.266.266,0,0,1,.243.013.258.258,0,0,1,.113.114l.75,1.372.292.534a.257.257,0,0,0,.114.115l.2.114,1.7.928a.287.287,0,0,1,.113.381.243.243,0,0,1-.113.114l-.331.178-.725.406-.7.382h-.013l-.14.079a.246.246,0,0,0-.114.114l-.241.432-.407.737-.393.737a.285.285,0,0,1-.381.1.324.324,0,0,1-.116-.1l-1.042-1.906a.241.241,0,0,0-.113-.114l-1.908-1.042A.306.306,0,0,1-7376.954-4575.3Z" fill="#fff"/>
    </g>
    <path id="Elipse_30-4-2-2-2" data-name="Elipse 30-4-2-2-2" d="M-7365.449-4602.934a31.683,31.683,0,0,1,31.683,31.683h0a31.683,31.683,0,0,1-31.683,31.684h0a31.683,31.683,0,0,1-31.683-31.684h0a31.683,31.683,0,0,1,31.683-31.683Z" transform="translate(7637.365 5126.133)" fill="none" stroke="#9e9e9e" stroke-width="3.33"/>
  </g>
</svg>
