<svg xmlns="http://www.w3.org/2000/svg" width="38.181" height="48.959" viewBox="0 0 38.181 48.959">
  <g id="Grupo_1362" data-name="Grupo 1362" transform="translate(-329.06 -255.405)">
    <path id="Caminho_2160" data-name="Caminho 2160" d="M329.06,261.159l5.19-5.754,4.769,6.21-3.752,4.208Z" fill="#7f7f7f"/>
    <path id="Caminho_2161" data-name="Caminho 2161" d="M367.241,261.159,362.05,255.4l-4.768,6.21,3.752,4.208Z" fill="#191919"/>
    <path id="Caminho_2162" data-name="Caminho 2162" d="M334.25,255.408h27.8l-4.768,6.21h-18.26Z" fill="#191919"/>
    <path id="Caminho_2163" data-name="Caminho 2163" d="M335.27,265.826l-6.21-4.667V298.61l6.21-4.667V265.826Z" fill="#686868"/>
    <path id="Caminho_2164" data-name="Caminho 2164" d="M361.031,265.826v14.058l-.022,14.059,6.2,4.667V261.158Z" fill="#191919"/>
    <path id="Caminho_2165" data-name="Caminho 2165" d="M329.06,298.61l5.19,5.754,4.769-6.21-3.752-4.207Z" fill="#686868"/>
    <path id="Caminho_2166" data-name="Caminho 2166" d="M367.241,298.61l-5.191,5.754-4.768-6.21,3.727-4.207Z" fill="#191919"/>
    <path id="Caminho_2167" data-name="Caminho 2167" d="M334.25,304.36h27.8l-4.768-6.21h-18.26Z" fill="#191919"/>
    <path id="Caminho_2168" data-name="Caminho 2168" d="M357.282,298.15h-18.26l-3.752-4.207V265.826l3.752-4.207h18.26l3.752,4.207-.022,28.117Q359.146,296.043,357.282,298.15Z" fill="#3a3a3a"/>
    <path id="Caminho_1801-16" data-name="Caminho 1801-16" d="M334.2,265.312a.213.213,0,0,1,.045-.045l.452-.25.276-.151.025-.015a.094.094,0,0,0,.045-.045l.116-.206v-.01l.16-.291h0l.135-.241a.118.118,0,0,1,.151-.05.1.1,0,0,1,.045.045l.3.541.115.212a.1.1,0,0,0,.045.045l.08.044.673.367a.115.115,0,0,1,.045.151.1.1,0,0,1-.045.045l-.125.07-.287.16-.276.152h0l-.055.031a.09.09,0,0,0-.045.045l-.1.17-.161.291-.155.291a.116.116,0,0,1-.2,0l-.412-.75a.1.1,0,0,0-.046-.045l-.751-.412A.125.125,0,0,1,334.2,265.312Z" fill="#fff"/>
    <path id="Caminho_1801-17" data-name="Caminho 1801-17" d="M331.561,272a.468.468,0,0,1,.117-.118l1.164-.634.712-.389.065-.038a.253.253,0,0,0,.116-.117l.3-.531v-.025l.413-.75v-.013l.35-.625a.267.267,0,0,1,.142-.125.275.275,0,0,1,.251.012.258.258,0,0,1,.116.117l.764,1.4.3.543a.258.258,0,0,0,.116.117l.208.116,1.733.945a.294.294,0,0,1,.118.389.265.265,0,0,1-.118.116l-.335.181-.738.414-.713.389h-.013l-.142.08a.244.244,0,0,0-.116.115l-.251.441-.415.75-.4.751a.29.29,0,0,1-.388.1.306.306,0,0,1-.116-.1l-1.062-1.942a.253.253,0,0,0-.117-.116l-1.942-1.062A.311.311,0,0,1,331.561,272Z" fill="#fff"/>
  </g>
</svg>
