<svg id="Layer_1" data-name="Layer 1" xmlns="http://www.w3.org/2000/svg" xmlns:xlink="http://www.w3.org/1999/xlink" viewBox="0 0 512 512"><defs><style>.cls-1{fill:none;}.cls-2{fill:#ffd002;}.cls-3{clip-path:url(#clip-path);}.cls-4{fill:#008ed5;}.cls-5{fill:#004f9f;}.cls-6{fill:#1d71b8;}.cls-7{fill:#e30613;}.cls-8{fill:#008d36;}.cls-9{fill:#f9b233;}.cls-10{fill:#e71d73;}.cls-11{fill:#fcea10;}.cls-12{fill:#3aaa35;}.cls-13{fill:#2d2e83;}.cls-14{fill:#be1622;}.cls-15{fill:#e6007e;}.cls-16{fill:#00a19a;}.cls-17{clip-path:url(#clip-path-2);}.cls-18{fill:#e51f2d;}.cls-19{fill:#063;}.cls-20{fill:#95c11f;}.cls-21{fill:#009640;}.cls-22{fill:#d60b52;}.cls-23{fill:#f39200;}.cls-24{fill:#e6332a;}</style><clipPath id="clip-path"><path class="cls-1" d="M314.63,161.56h79.68c36.46,0,73.68,8.74,73.68,52.19,0,16.47-8.24,32.71-24.73,37.95v1.5c20.48,7.24,33.47,22.22,33.47,44.7,0,38.72-36,52-68.93,52H314.63Zm69.69,71.24c10,0,21.23-.22,21.23-13.2,0-14-12.74-12.6-22.73-12.6h-3.19v25.8ZM379.63,303h6.18c11.24,0,25.92.91,25.92-14.57,0-15.73-15.93-14.7-26.91-14.7h-5.19Z"/></clipPath><clipPath id="clip-path-2"><path class="cls-1" d="M80.76,165h69.49l25.63,97.58h1.73c1.23-8.13,2.46-16.75,4.68-24.64l21-72.94H272l30.56,185.8H237.24L228.13,249h-1.24a154.89,154.89,0,0,1-4.43,18.48L195.6,350.8H156.17L132,272.2c-2-7.89-3.7-15.28-4.19-23.17h-2.22c-.49,7.39-1,15-1.72,22.43L116,350.8H50.7Z"/></clipPath></defs><path class="cls-2" d="M512,407.3C512,464.88,464.88,512,407.3,512H104.7C47.12,512,0,464.88,0,407.3V104.7C0,47.12,47.12,0,104.7,0H407.3C464.88,0,512,47.12,512,104.7Z"/><g class="cls-3"><polygon class="cls-4" points="477.37 383.5 456.44 364.94 435.91 383.5 435.91 335.49 477.37 335.49 477.37 383.5"/><polygon class="cls-5" points="354.29 383.5 333.37 364.94 312.83 383.5 312.83 335.49 354.29 335.49 354.29 383.5"/><polygon class="cls-4" points="395.67 383.5 374.75 364.94 354.21 383.5 354.21 335.49 395.67 335.49 395.67 383.5"/><polygon class="cls-6" points="354.29 358.27 333.37 339.71 312.83 358.27 312.83 310.26 354.29 310.26 354.29 358.27"/><polygon class="cls-6" points="395.67 358.27 374.75 339.71 354.21 358.27 354.21 310.26 395.67 310.26 395.67 358.27"/><polygon class="cls-7" points="354.29 334.4 333.37 315.85 312.83 334.4 312.83 286.39 354.29 286.39 354.29 334.4"/><polygon class="cls-8" points="395.67 334.4 374.75 315.85 354.21 334.4 354.21 286.39 395.67 286.39 395.67 334.4"/><polygon class="cls-5" points="436.67 383.5 415.74 364.94 395.21 383.5 395.21 335.49 436.67 335.49 436.67 383.5"/><polygon class="cls-6" points="436.6 358.27 415.68 339.71 395.14 358.27 395.14 310.26 436.6 310.26 436.6 358.27"/><polygon class="cls-6" points="479.45 358.27 457.76 339.71 436.48 358.27 436.48 310.26 479.45 310.26 479.45 358.27"/><polygon class="cls-9" points="436.8 334.4 415.87 315.85 395.33 334.4 395.33 286.39 436.8 286.39 436.8 334.4"/><polygon class="cls-10" points="480.55 334.4 458.31 315.85 436.48 334.4 436.48 286.39 480.55 286.39 480.55 334.4"/><polygon class="cls-6" points="354.29 305.29 333.37 286.73 312.83 305.29 312.83 257.29 354.29 257.29 354.29 305.29"/><polygon class="cls-6" points="395.54 305.29 374.62 286.73 354.08 305.29 354.08 257.29 395.54 257.29 395.54 305.29"/><polygon class="cls-11" points="354.29 279.38 333.37 260.83 312.83 279.38 312.83 231.38 354.29 231.38 354.29 279.38"/><polygon class="cls-12" points="395.67 279.38 374.75 260.83 354.21 279.38 354.21 231.38 395.67 231.38 395.67 279.38"/><polygon class="cls-6" points="354.29 255.52 333.37 236.97 312.83 255.52 312.83 207.52 354.29 207.52 354.29 255.52"/><polygon class="cls-6" points="395.67 255.52 374.75 236.97 354.21 255.52 354.21 207.52 395.67 207.52 395.67 255.52"/><polygon class="cls-9" points="354.29 230.29 333.37 211.74 312.83 230.29 312.83 182.29 354.29 182.29 354.29 230.29"/><polygon class="cls-13" points="395.67 230.29 374.75 211.74 354.21 230.29 354.21 182.29 395.67 182.29 395.67 230.29"/><polygon class="cls-5" points="354.29 206.43 333.37 187.87 312.83 206.43 312.83 158.42 354.29 158.42 354.29 206.43"/><polygon class="cls-14" points="395.67 206.43 374.75 187.87 354.21 206.43 354.21 158.42 395.67 158.42 395.67 206.43"/><polygon class="cls-6" points="436.67 305.29 415.74 286.73 395.21 305.29 395.21 257.29 436.67 257.29 436.67 305.29"/><polygon class="cls-6" points="477.88 305.29 456.95 286.73 436.42 305.29 436.42 257.29 477.88 257.29 477.88 305.29"/><polygon class="cls-15" points="436.73 279.38 415.81 260.83 395.27 279.38 395.27 231.38 436.73 231.38 436.73 279.38"/><polygon class="cls-12" points="481.76 279.38 458.84 260.83 436.35 279.38 436.35 231.38 481.76 231.38 481.76 279.38"/><polygon class="cls-6" points="436.24 255.52 415.5 236.97 395.15 255.52 395.15 207.52 436.24 207.52 436.24 255.52"/><polygon class="cls-6" points="477.69 255.52 456.76 236.97 436.23 255.52 436.23 207.52 477.69 207.52 477.69 255.52"/><polygon class="cls-16" points="436.42 230.29 415.63 211.74 395.24 230.29 395.24 182.29 436.42 182.29 436.42 230.29"/><polygon class="cls-9" points="477.56 230.29 456.63 211.74 436.1 230.29 436.1 182.29 477.56 182.29 477.56 230.29"/><polygon class="cls-6" points="436.67 206.43 415.74 187.87 395.21 206.43 395.21 158.42 436.67 158.42 436.67 206.43"/><polygon class="cls-10" points="477.37 206.43 456.44 187.87 435.91 206.43 435.91 158.42 477.37 158.42 477.37 206.43"/></g><g class="cls-17"><path class="cls-14" d="M308.71,276.37c-6.82-3.71-8.86-10.86-8.86-16.9,0-16.74-10.38-21-18.61-21s-18.61,4.24-18.61,21c0,8.57-4.07,19.41-20.14,19.41S222.35,268,222.35,259.47c0-16.74-10.4-21-18.63-21s-18.64,4.24-18.64,21c0,8.57-4.07,19.41-20.14,19.41S144.81,268,144.81,259.47c0-16.74-10.38-21-18.61-21s-18.61,4.24-18.61,21c0,8.57-4.07,19.41-20.14,19.41S67.31,268,67.31,259.47c0-16.74-10.38-21-18.62-21v38.13c8.24,0,18.62,4.24,18.62,21,0,8.56,4.07,19.42,20.14,19.42s20.14-10.86,20.14-19.42c0-16.75,10.38-21,18.61-21s18.61,4.24,18.61,21c0,8.56,4.07,19.42,20.13,19.42s20.14-10.86,20.14-19.42c0-16.75,10.41-21,18.64-21s18.63,4.24,18.63,21c0,8.56,4.07,19.42,20.14,19.42s20.14-10.86,20.14-19.42c0-16.75,10.38-21,18.61-21s18.61,4.24,18.61,21c0,6,2,13.19,8.86,16.9Z"/><path class="cls-18" d="M308.71,304.45c-6.82-3.7-8.86-10.86-8.86-16.9,0-16.74-10.38-21-18.61-21s-18.61,4.23-18.61,21c0,8.57-4.07,19.42-20.14,19.42s-20.14-10.85-20.14-19.42c0-16.74-10.4-21-18.63-21s-18.64,4.23-18.64,21c0,8.57-4.07,19.42-20.14,19.42s-20.13-10.85-20.13-19.42c0-16.74-10.38-21-18.61-21s-18.61,4.23-18.61,21c0,8.57-4.07,19.42-20.14,19.42s-20.14-10.85-20.14-19.42c0-16.74-10.38-21-18.62-21v18.19c8.24,0,18.62,4.23,18.62,21,0,8.56,4.07,19.41,20.14,19.41s20.14-10.85,20.14-19.41c0-16.75,10.38-21,18.61-21s18.61,4.23,18.61,21c0,8.56,4.07,19.41,20.13,19.41s20.14-10.85,20.14-19.41c0-16.75,10.41-21,18.64-21s18.63,4.23,18.63,21c0,8.56,4.07,19.41,20.14,19.41s20.14-10.85,20.14-19.41c0-16.75,10.38-21,18.61-21s18.61,4.23,18.61,21c0,6,2,13.2,8.86,16.9Z"/><path class="cls-19" d="M308.71,239.94c-6.82-3.7-8.86-10.86-8.86-16.9,0-16.73-10.38-21-18.61-21s-18.61,4.25-18.61,21c0,8.57-4.07,19.41-20.14,19.41S222.35,231.61,222.35,223c0-16.73-10.4-21-18.63-21s-18.64,4.25-18.64,21c0,8.57-4.07,19.41-20.14,19.41S144.81,231.61,144.81,223c0-16.73-10.38-21-18.61-21s-18.61,4.25-18.61,21c0,8.57-4.07,19.41-20.14,19.41S67.31,231.61,67.31,223c0-16.73-10.38-21-18.62-21V240.2c8.24,0,18.62,4.23,18.62,21,0,8.57,4.07,19.41,20.14,19.41s20.14-10.84,20.14-19.41c0-16.75,10.38-21,18.61-21s18.61,4.23,18.61,21c0,8.57,4.07,19.41,20.13,19.41s20.14-10.84,20.14-19.41c0-16.75,10.41-21,18.64-21s18.63,4.23,18.63,21c0,8.57,4.07,19.41,20.14,19.41s20.14-10.84,20.14-19.41c0-16.75,10.38-21,18.61-21s18.61,4.23,18.61,21c0,6,2,13.19,8.86,16.89Z"/><path class="cls-7" d="M308.71,268.07c-6.82-3.7-8.86-10.86-8.86-16.9,0-16.74-10.38-21-18.61-21s-18.61,4.23-18.61,21c0,8.58-4.07,19.42-20.14,19.42s-20.14-10.84-20.14-19.42c0-16.74-10.4-21-18.63-21s-18.64,4.23-18.64,21c0,8.58-4.07,19.42-20.14,19.42s-20.13-10.84-20.13-19.42c0-16.74-10.38-21-18.61-21s-18.61,4.23-18.61,21c0,8.58-4.07,19.42-20.14,19.42s-20.14-10.84-20.14-19.42c0-16.74-10.38-21-18.62-21v18.19c8.24,0,18.62,4.23,18.62,21,0,8.58,4.07,19.42,20.14,19.42s20.14-10.84,20.14-19.42c0-16.74,10.38-21,18.61-21s18.61,4.23,18.61,21c0,8.58,4.07,19.42,20.13,19.42s20.14-10.84,20.14-19.42c0-16.74,10.41-21,18.64-21s18.63,4.23,18.63,21c0,8.58,4.07,19.42,20.14,19.42s20.14-10.84,20.14-19.42c0-16.74,10.38-21,18.61-21s18.61,4.23,18.61,21c0,6,2,13.2,8.86,16.91Z"/><path class="cls-20" d="M308.71,231.78c-6.82-3.7-8.86-10.85-8.86-16.89,0-16.74-10.38-21-18.61-21s-18.61,4.24-18.61,21c0,8.57-4.07,19.41-20.14,19.41s-20.14-10.84-20.14-19.41c0-16.74-10.4-21-18.63-21s-18.64,4.24-18.64,21c0,8.57-4.07,19.41-20.14,19.41s-20.13-10.84-20.13-19.41c0-16.74-10.38-21-18.61-21s-18.61,4.24-18.61,21c0,8.57-4.07,19.41-20.14,19.41s-20.14-10.84-20.14-19.41c0-16.74-10.38-21-18.62-21V212.1c8.24,0,18.62,4.25,18.62,21,0,8.56,4.07,19.41,20.14,19.41s20.14-10.85,20.14-19.41c0-16.73,10.38-21,18.61-21s18.61,4.25,18.61,21c0,8.56,4.07,19.41,20.13,19.41s20.14-10.85,20.14-19.41c0-16.73,10.41-21,18.64-21s18.63,4.25,18.63,21c0,8.56,4.07,19.41,20.14,19.41s20.14-10.85,20.14-19.41c0-16.73,10.38-21,18.61-21s18.61,4.25,18.61,21c0,6,2,13.18,8.86,16.89Z"/><path class="cls-19" d="M308.7,196c-6.82-3.68-8.88-10.83-8.9-16.86,0-16.74-10.43-21-18.67-20.94s-18.59,4.3-18.55,21c0,8.56-4,19.41-20.09,19.45s-20.16-10.79-20.18-19.35c-.05-16.74-10.46-21-18.69-20.94s-18.63,4.3-18.58,21c0,8.57-4,19.42-20.09,19.46s-20.17-10.79-20.19-19.35c0-16.74-10.43-21-18.66-20.94s-18.6,4.3-18.56,21c0,8.56-4,19.42-20.09,19.46s-20.16-10.79-20.18-19.35c0-16.74-10.44-21-18.68-20.94l.1,37.69V197c8.23,0,18.63,4.19,18.67,20.93,0,8.57,4.12,19.4,20.19,19.36s20.12-10.89,20.09-19.47c0-16.73,10.33-21,18.56-21s18.62,4.18,18.66,20.92c0,8.57,4.12,19.4,20.19,19.36s20.11-10.89,20.08-19.46c0-16.74,10.35-21,18.58-21s18.65,4.18,18.69,20.92c0,8.57,4.12,19.4,20.19,19.36S262.7,226,262.68,217.38c-.05-16.74,10.32-21,18.55-21s18.63,4.18,18.67,20.92c0,6,2.07,13.19,8.9,16.87Z"/><path class="cls-21" d="M308.71,188.2c-6.82-3.7-8.86-10.84-8.86-16.88,0-16.74-10.38-21-18.61-21s-18.61,4.24-18.61,21c0,8.57-4.07,19.4-20.14,19.4s-20.14-10.83-20.14-19.4c0-16.74-10.4-21-18.63-21s-18.64,4.24-18.64,21c0,8.57-4.07,19.4-20.14,19.4s-20.13-10.83-20.13-19.4c0-16.74-10.38-21-18.61-21s-18.61,4.24-18.61,21c0,8.57-4.07,19.4-20.14,19.4s-20.14-10.83-20.14-19.4c0-16.74-10.38-21-18.62-21v18.19c8.24,0,18.62,4.25,18.62,21,0,8.56,4.07,19.41,20.14,19.41s20.14-10.85,20.14-19.41c0-16.72,10.38-21,18.61-21s18.61,4.25,18.61,21c0,8.56,4.07,19.41,20.13,19.41s20.14-10.85,20.14-19.41c0-16.72,10.41-21,18.64-21s18.63,4.25,18.63,21c0,8.56,4.07,19.41,20.14,19.41s20.14-10.85,20.14-19.41c0-16.72,10.38-21,18.61-21s18.61,4.25,18.61,21c0,6,2,13.18,8.86,16.89Z"/><path class="cls-19" d="M308.71,152.94c-6.82-3.7-8.86-10.85-8.86-16.9,0-16.73-10.38-21-18.61-21s-18.61,4.25-18.61,21c0,8.58-4.07,19.42-20.14,19.42S222.35,144.62,222.35,136c0-16.73-10.4-21-18.63-21s-18.64,4.25-18.64,21c0,8.58-4.07,19.42-20.14,19.42S144.81,144.62,144.81,136c0-16.73-10.38-21-18.61-21s-18.61,4.25-18.61,21c0,8.58-4.07,19.42-20.14,19.42S67.31,144.62,67.31,136c0-16.73-10.38-21-18.62-21v38.15c8.24,0,18.62,4.23,18.62,21,0,8.57,4.07,19.41,20.14,19.41s20.14-10.84,20.14-19.41c0-16.74,10.38-21,18.61-21s18.61,4.23,18.61,21c0,8.57,4.07,19.41,20.13,19.41s20.14-10.84,20.14-19.41c0-16.74,10.41-21,18.64-21s18.63,4.23,18.63,21c0,8.57,4.07,19.41,20.14,19.41s20.14-10.84,20.14-19.41c0-16.74,10.38-21,18.61-21s18.61,4.23,18.61,21c0,6,2,13.18,8.86,16.89Z"/><path class="cls-12" d="M308.71,144.79c-6.82-3.7-8.86-10.86-8.86-16.9,0-16.74-10.38-21-18.61-21s-18.61,4.24-18.61,21c0,8.57-4.07,19.42-20.14,19.42s-20.14-10.85-20.14-19.42c0-16.74-10.4-21-18.63-21s-18.64,4.24-18.64,21c0,8.57-4.07,19.42-20.14,19.42s-20.13-10.85-20.13-19.42c0-16.74-10.38-21-18.61-21s-18.61,4.24-18.61,21c0,8.57-4.07,19.42-20.14,19.42s-20.14-10.85-20.14-19.42c0-16.74-10.38-21-18.62-21V125.1c8.24,0,18.62,4.25,18.62,21,0,8.57,4.07,19.42,20.14,19.42s20.14-10.85,20.14-19.42c0-16.73,10.38-21,18.61-21s18.61,4.25,18.61,21c0,8.57,4.07,19.42,20.13,19.42s20.14-10.85,20.14-19.42c0-16.73,10.41-21,18.64-21s18.63,4.25,18.63,21c0,8.57,4.07,19.42,20.14,19.42s20.14-10.85,20.14-19.42c0-16.73,10.38-21,18.61-21s18.61,4.25,18.61,21c0,6,2,13.19,8.86,16.9Z"/><path class="cls-14" d="M308.71,341c-6.82-3.7-8.86-10.86-8.86-16.9,0-16.74-10.38-21-18.61-21s-18.61,4.25-18.61,21c0,8.58-4.07,19.42-20.14,19.42s-20.14-10.84-20.14-19.42c0-16.74-10.4-21-18.63-21s-18.64,4.25-18.64,21c0,8.58-4.07,19.42-20.14,19.42s-20.13-10.84-20.13-19.42c0-16.74-10.38-21-18.61-21s-18.61,4.25-18.61,21c0,8.58-4.07,19.42-20.14,19.42s-20.14-10.84-20.14-19.42c0-16.74-10.38-21-18.62-21v38.14c8.24,0,18.62,4.25,18.62,21,0,8.56,4.07,19.41,20.14,19.41s20.14-10.85,20.14-19.41c0-16.75,10.38-21,18.61-21s18.61,4.25,18.61,21c0,8.56,4.07,19.41,20.13,19.41s20.14-10.85,20.14-19.41c0-16.75,10.41-21,18.64-21s18.63,4.25,18.63,21c0,8.56,4.07,19.41,20.14,19.41s20.14-10.85,20.14-19.41c0-16.75,10.38-21,18.61-21s18.61,4.25,18.61,21c0,6,2,13.19,8.86,16.89Z"/><path class="cls-18" d="M308.71,376c-6.82-3.7-8.86-10.86-8.86-16.9,0-16.74-10.38-21-18.61-21s-18.61,4.24-18.61,21c0,8.57-4.07,19.42-20.14,19.42s-20.14-10.85-20.14-19.42c0-16.74-10.4-21-18.63-21s-18.64,4.24-18.64,21c0,8.57-4.07,19.42-20.14,19.42s-20.13-10.85-20.13-19.42c0-16.74-10.38-21-18.61-21s-18.61,4.24-18.61,21c0,8.57-4.07,19.42-20.14,19.42s-20.14-10.85-20.14-19.42c0-16.74-10.38-21-18.62-21v18.2c8.24,0,18.62,4.23,18.62,21,0,8.56,4.07,19.41,20.14,19.41s20.14-10.85,20.14-19.41c0-16.75,10.38-21,18.61-21s18.61,4.23,18.61,21c0,8.56,4.07,19.41,20.13,19.41s20.14-10.85,20.14-19.41c0-16.75,10.41-21,18.64-21s18.63,4.23,18.63,21c0,8.56,4.07,19.41,20.14,19.41s20.14-10.85,20.14-19.41c0-16.75,10.38-21,18.61-21s18.61,4.23,18.61,21c0,6,2,13.2,8.86,16.9Z"/><path class="cls-14" d="M308.71,346.21c-6.82-3.7-8.86-10.86-8.86-16.9,0-16.74-10.38-21-18.61-21s-18.61,4.25-18.61,21c0,8.58-4.07,19.41-20.14,19.41s-20.14-10.83-20.14-19.41c0-16.74-10.4-21-18.63-21s-18.64,4.25-18.64,21c0,8.58-4.07,19.41-20.14,19.41s-20.13-10.83-20.13-19.41c0-16.74-10.38-21-18.61-21s-18.61,4.25-18.61,21c0,8.58-4.07,19.41-20.14,19.41s-20.14-10.83-20.14-19.41c0-16.74-10.38-21-18.62-21v38.14c8.24,0,18.62,4.25,18.62,21,0,8.57,4.07,19.42,20.14,19.42s20.14-10.85,20.14-19.42c0-16.74,10.38-21,18.61-21s18.61,4.25,18.61,21c0,8.57,4.07,19.42,20.13,19.42s20.14-10.85,20.14-19.42c0-16.74,10.41-21,18.64-21s18.63,4.25,18.63,21c0,8.57,4.07,19.42,20.14,19.42s20.14-10.85,20.14-19.42c0-16.74,10.38-21,18.61-21s18.61,4.25,18.61,21c0,6,2,13.2,8.86,16.9Z"/><path class="cls-22" d="M308.71,374.3c-6.82-3.71-8.86-10.87-8.86-16.9,0-16.74-10.38-21-18.61-21s-18.61,4.24-18.61,21c0,8.57-4.07,19.42-20.14,19.42S222.35,366,222.35,357.4c0-16.74-10.4-21-18.63-21s-18.64,4.24-18.64,21c0,8.57-4.07,19.42-20.14,19.42S144.81,366,144.81,357.4c0-16.74-10.38-21-18.61-21s-18.61,4.24-18.61,21c0,8.57-4.07,19.42-20.14,19.42S67.31,366,67.31,357.4c0-16.74-10.38-21-18.62-21v18.19c8.24,0,18.62,4.24,18.62,21,0,8.57,4.07,19.42,20.14,19.42s20.14-10.85,20.14-19.42c0-16.74,10.38-21,18.61-21s18.61,4.24,18.61,21c0,8.57,4.07,19.42,20.13,19.42s20.14-10.85,20.14-19.42c0-16.74,10.41-21,18.64-21s18.63,4.24,18.63,21c0,8.57,4.07,19.42,20.14,19.42s20.14-10.85,20.14-19.42c0-16.74,10.38-21,18.61-21s18.61,4.24,18.61,21c0,6,2,13.2,8.86,16.9Z"/><path class="cls-14" d="M308.71,387.72c-6.82-3.71-8.86-10.86-8.86-16.9,0-16.74-10.38-21-18.61-21s-18.61,4.25-18.61,21c0,8.57-4.07,19.41-20.14,19.41s-20.14-10.84-20.14-19.41c0-16.74-10.4-21-18.63-21s-18.64,4.25-18.64,21c0,8.57-4.07,19.41-20.14,19.41s-20.13-10.84-20.13-19.41c0-16.74-10.38-21-18.61-21s-18.61,4.25-18.61,21c0,8.57-4.07,19.41-20.14,19.41s-20.14-10.84-20.14-19.41c0-16.74-10.38-21-18.62-21V388c8.24,0,18.62,4.24,18.62,21,0,8.57,4.07,19.42,20.14,19.42s20.14-10.85,20.14-19.42c0-16.74,10.38-21,18.61-21s18.61,4.24,18.61,21c0,8.57,4.07,19.42,20.13,19.42s20.14-10.85,20.14-19.42c0-16.74,10.41-21,18.64-21s18.63,4.24,18.63,21c0,8.57,4.07,19.42,20.14,19.42s20.14-10.85,20.14-19.42c0-16.74,10.38-21,18.61-21s18.61,4.24,18.61,21c0,6,2,13.2,8.86,16.9Z"/><path class="cls-18" d="M308.71,422.73c-6.82-3.7-8.86-10.86-8.86-16.9,0-16.74-10.38-21-18.61-21s-18.61,4.24-18.61,21c0,8.57-4.07,19.42-20.14,19.42s-20.14-10.85-20.14-19.42c0-16.74-10.4-21-18.63-21s-18.64,4.24-18.64,21c0,8.57-4.07,19.42-20.14,19.42s-20.13-10.85-20.13-19.42c0-16.74-10.38-21-18.61-21s-18.61,4.24-18.61,21c0,8.57-4.07,19.42-20.14,19.42S67.31,414.4,67.31,405.83c0-16.74-10.38-21-18.62-21v18.2c8.24,0,18.62,4.23,18.62,21,0,8.56,4.07,19.41,20.14,19.41s20.14-10.85,20.14-19.41c0-16.75,10.38-21,18.61-21s18.61,4.23,18.61,21c0,8.56,4.07,19.41,20.13,19.41s20.14-10.85,20.14-19.41c0-16.75,10.41-21,18.64-21s18.63,4.23,18.63,21c0,8.56,4.07,19.41,20.14,19.41s20.14-10.85,20.14-19.41c0-16.75,10.38-21,18.61-21s18.61,4.23,18.61,21c0,6,2,13.19,8.86,16.89Z"/><path class="cls-14" d="M308.71,392.89c-6.82-3.7-8.86-10.85-8.86-16.9,0-16.74-10.38-21-18.61-21s-18.61,4.24-18.61,21c0,8.58-4.07,19.42-20.14,19.42S222.35,384.57,222.35,376c0-16.74-10.4-21-18.63-21s-18.64,4.24-18.64,21c0,8.58-4.07,19.42-20.14,19.42S144.81,384.57,144.81,376c0-16.74-10.38-21-18.61-21s-18.61,4.24-18.61,21c0,8.58-4.07,19.42-20.14,19.42S67.31,384.57,67.31,376c0-16.74-10.38-21-18.62-21v38.14c8.24,0,18.62,4.24,18.62,21,0,8.57,4.07,19.41,20.14,19.41s20.14-10.84,20.14-19.41c0-16.75,10.38-21,18.61-21s18.61,4.24,18.61,21c0,8.57,4.07,19.41,20.13,19.41s20.14-10.84,20.14-19.41c0-16.75,10.41-21,18.64-21s18.63,4.24,18.63,21c0,8.57,4.07,19.41,20.14,19.41s20.14-10.84,20.14-19.41c0-16.75,10.38-21,18.61-21s18.61,4.24,18.61,21c0,6,2,13.2,8.86,16.9Z"/><path class="cls-18" d="M308.71,421c-6.82-3.71-8.86-10.87-8.86-16.91,0-16.73-10.38-21-18.61-21s-18.61,4.25-18.61,21c0,8.57-4.07,19.43-20.14,19.43s-20.14-10.86-20.14-19.43c0-16.73-10.4-21-18.63-21s-18.64,4.25-18.64,21c0,8.57-4.07,19.43-20.14,19.43s-20.13-10.86-20.13-19.43c0-16.73-10.38-21-18.61-21s-18.61,4.25-18.61,21c0,8.57-4.07,19.43-20.14,19.43s-20.14-10.86-20.14-19.43c0-16.73-10.38-21-18.62-21v18.2c8.24,0,18.62,4.23,18.62,21,0,8.56,4.07,19.42,20.14,19.42s20.14-10.86,20.14-19.42c0-16.75,10.38-21,18.61-21s18.61,4.23,18.61,21c0,8.56,4.07,19.42,20.13,19.42s20.14-10.86,20.14-19.42c0-16.75,10.41-21,18.64-21s18.63,4.23,18.63,21c0,8.56,4.07,19.42,20.14,19.42s20.14-10.86,20.14-19.42c0-16.75,10.38-21,18.61-21s18.61,4.23,18.61,21c0,6,2,13.2,8.86,16.89Z"/><path class="cls-14" d="M308.71,311.52c-6.82-3.71-8.86-10.86-8.86-16.9,0-16.74-10.38-21-18.61-21s-18.61,4.25-18.61,21c0,8.57-4.07,19.42-20.14,19.42s-20.14-10.85-20.14-19.42c0-16.74-10.4-21-18.63-21s-18.64,4.25-18.64,21c0,8.57-4.07,19.42-20.14,19.42s-20.13-10.85-20.13-19.42c0-16.74-10.38-21-18.61-21s-18.61,4.25-18.61,21c0,8.57-4.07,19.42-20.14,19.42s-20.14-10.85-20.14-19.42c0-16.74-10.38-21-18.62-21v38.15c8.24,0,18.62,4.24,18.62,21,0,8.57,4.07,19.42,20.14,19.42s20.14-10.85,20.14-19.42c0-16.74,10.38-21,18.61-21s18.61,4.24,18.61,21c0,8.57,4.07,19.42,20.13,19.42s20.14-10.85,20.14-19.42c0-16.74,10.41-21,18.64-21s18.63,4.24,18.63,21c0,8.57,4.07,19.42,20.14,19.42s20.14-10.85,20.14-19.42c0-16.74,10.38-21,18.61-21s18.61,4.24,18.61,21c0,6,2,13.19,8.86,16.9Z"/><path class="cls-23" d="M308.71,339.66c-6.82-3.71-8.86-10.86-8.86-16.9,0-16.74-10.38-21-18.61-21s-18.61,4.25-18.61,21c0,8.57-4.07,19.42-20.14,19.42s-20.14-10.85-20.14-19.42c0-16.74-10.4-21-18.63-21s-18.64,4.25-18.64,21c0,8.57-4.07,19.42-20.14,19.42s-20.13-10.85-20.13-19.42c0-16.74-10.38-21-18.61-21s-18.61,4.25-18.61,21c0,8.57-4.07,19.42-20.14,19.42s-20.14-10.85-20.14-19.42c0-16.74-10.38-21-18.62-21V320c8.24,0,18.62,4.24,18.62,21,0,8.57,4.07,19.42,20.14,19.42s20.14-10.85,20.14-19.42c0-16.74,10.38-21,18.61-21s18.61,4.24,18.61,21c0,8.57,4.07,19.42,20.13,19.42s20.14-10.85,20.14-19.42c0-16.74,10.41-21,18.64-21s18.63,4.24,18.63,21c0,8.57,4.07,19.42,20.14,19.42s20.14-10.85,20.14-19.42c0-16.74,10.38-21,18.61-21s18.61,4.24,18.61,21c0,6,2,13.2,8.86,16.9Z"/><path class="cls-24" d="M308.71,303.36c-6.82-3.7-8.86-10.86-8.86-16.9,0-16.74-10.38-21-18.61-21s-18.61,4.23-18.61,21c0,8.58-4.07,19.42-20.14,19.42S222.35,295,222.35,286.46c0-16.74-10.4-21-18.63-21s-18.64,4.23-18.64,21c0,8.58-4.07,19.42-20.14,19.42S144.81,295,144.81,286.46c0-16.74-10.38-21-18.61-21s-18.61,4.23-18.61,21c0,8.58-4.07,19.42-20.14,19.42S67.31,295,67.31,286.46c0-16.74-10.38-21-18.62-21v18.19c8.24,0,18.62,4.24,18.62,21,0,8.56,4.07,19.41,20.14,19.41s20.14-10.85,20.14-19.41c0-16.74,10.38-21,18.61-21s18.61,4.24,18.61,21c0,8.56,4.07,19.41,20.13,19.41s20.14-10.85,20.14-19.41c0-16.74,10.41-21,18.64-21s18.63,4.24,18.63,21c0,8.56,4.07,19.41,20.14,19.41s20.14-10.85,20.14-19.41c0-16.74,10.38-21,18.61-21s18.61,4.24,18.61,21c0,6,2,13.18,8.86,16.89Z"/><path class="cls-1" d="M217.89,312.09h-5.18v29.27h6.18c11.24,0,25.92.92,25.92-14.57C244.81,311.06,228.88,312.09,217.89,312.09Z"/></g></svg>