<svg xmlns="http://www.w3.org/2000/svg" xmlns:xlink="http://www.w3.org/1999/xlink" width="117.708" height="18.648" viewBox="0 0 117.708 18.648"><defs><style>.a{fill:none;}.b{clip-path:url(#a);}.c{fill:#007ecd;}.d{fill:#003f8f;}.e{fill:#005fab;}.f{fill:#d9000d;}.g{fill:#227c26;}.h{fill:#fca01f;}.i{fill:#db0060;}.j{fill:#ffe400;}.k{fill:#449b23;}.l{fill:#0c2372;}.m{fill:#ae0018;}.n{fill:#d8006b;}.o{fill:#009289;}.p{fill:#165425;}.q{clip-path:url(#b);}.r{fill:#db0020;}.s{fill:#91b508;}.t{fill:#00862f;}.u{fill:#c80040;}.v{fill:#f27c00;}.w{fill:#dd1a1e;}.x{fill:#161615;}</style><clipPath id="a"><path class="a" d="M840.05,855.231H847.9c3.594,0,7.261.861,7.261,5.143a3.746,3.746,0,0,1-2.437,3.739v.148a4.484,4.484,0,0,1,3.3,4.405c0,3.815-3.543,5.12-6.792,5.12H840.05Zm6.867,7.02c.984,0,2.092-.021,2.092-1.3,0-1.377-1.255-1.241-2.24-1.241h-.314v2.542Zm-.462,6.912h.609c1.108,0,2.555.091,2.555-1.436,0-1.549-1.57-1.448-2.653-1.448h-.511Z"/></clipPath><clipPath id="b"><path class="a" d="M817.005,855.57h6.848l2.525,9.616h.17a20.637,20.637,0,0,1,.461-2.428l2.064-7.188h6.775l3.012,18.309h-6.435l-.9-10.029h-.121a15.5,15.5,0,0,1-.437,1.822l-2.647,8.207h-3.886l-2.379-7.746a12.426,12.426,0,0,1-.413-2.283h-.219c-.048.729-.1,1.482-.17,2.21l-.777,7.819h-6.435Z"/></clipPath></defs><g transform="translate(-814.042 -855.231)"><g class="b"><path class="c" d="M856.086,877.1l-2.062-1.828L852,877.1V872.37h4.086Z"/><path class="d" d="M843.959,877.1l-2.062-1.828-2.023,1.828V872.37h4.085Z"/><path class="c" d="M848.036,877.1l-2.062-1.828L843.95,877.1V872.37h4.085Z"/><path class="e" d="M843.959,874.615l-2.062-1.828-2.023,1.828v-4.73h4.085Z"/><path class="e" d="M848.036,874.615l-2.062-1.828-2.023,1.828v-4.73h4.085Z"/><path class="f" d="M843.959,872.263l-2.062-1.829-2.023,1.829v-4.731h4.085Z"/><path class="g" d="M848.036,872.263l-2.062-1.829-2.023,1.829v-4.731h4.085Z"/><path class="d" d="M852.076,877.1l-2.062-1.828L847.99,877.1V872.37h4.086Z"/><path class="e" d="M852.069,874.615l-2.062-1.828-2.023,1.828v-4.73h4.085Z"/><path class="e" d="M856.291,874.615l-2.137-1.828-2.1,1.828v-4.73h4.234Z"/><path class="h" d="M852.088,872.263l-2.062-1.829L848,872.263v-4.731h4.086Z"/><path class="i" d="M856.4,872.263l-2.192-1.829-2.151,1.829v-4.731H856.4Z"/><path class="e" d="M843.959,869.394l-2.062-1.828-2.023,1.828v-4.73h4.085Z"/><path class="e" d="M848.023,869.394l-2.062-1.828-2.023,1.828v-4.73h4.085Z"/><path class="j" d="M843.959,866.841l-2.062-1.828-2.023,1.828v-4.73h4.085Z"/><path class="k" d="M848.036,866.841l-2.062-1.828-2.023,1.828v-4.73h4.085Z"/><path class="e" d="M843.959,864.49l-2.062-1.828-2.023,1.828v-4.73h4.085Z"/><path class="e" d="M848.036,864.49l-2.062-1.828-2.023,1.828v-4.73h4.085Z"/><path class="h" d="M843.959,862l-2.062-1.828L839.873,862v-4.73h4.085Z"/><path class="l" d="M848.036,862l-2.062-1.828L843.95,862v-4.73h4.085Z"/><path class="d" d="M843.959,859.652l-2.062-1.828-2.023,1.828v-4.731h4.085Z"/><path class="m" d="M848.036,859.652l-2.062-1.828-2.023,1.828v-4.731h4.085Z"/><path class="e" d="M852.076,869.394l-2.062-1.828-2.023,1.828v-4.73h4.086Z"/><path class="e" d="M856.137,869.394l-2.062-1.828-2.023,1.828v-4.73h4.086Z"/><path class="n" d="M852.082,866.841l-2.062-1.828L848,866.841v-4.73h4.085Z"/><path class="k" d="M856.519,866.841l-2.258-1.828-2.216,1.828v-4.73h4.474Z"/><path class="e" d="M852.034,864.49l-2.044-1.828-2.006,1.828v-4.73h4.05Z"/><path class="e" d="M856.118,864.49l-2.062-1.828-2.023,1.828v-4.73h4.085Z"/><path class="o" d="M852.051,862,850,860.176,847.993,862v-4.73h4.058Z"/><path class="h" d="M856.1,862l-2.062-1.828L852.02,862v-4.73H856.1Z"/><path class="e" d="M852.076,859.652l-2.062-1.828-2.023,1.828v-4.731h4.086Z"/><path class="i" d="M856.086,859.652l-2.062-1.828L852,859.652v-4.731h4.086Z"/></g><path class="p" d="M915.376,862.52c.027-.069.056-.135.08-.206a4.571,4.571,0,0,0,.219-1.452,4.732,4.732,0,0,0-.219-1.478,3.156,3.156,0,0,0-.65-1.148,2.873,2.873,0,0,0-1.067-.734,3.918,3.918,0,0,0-1.486-.259,3.874,3.874,0,0,0-1.471.259,2.872,2.872,0,0,0-1.067.734,3.155,3.155,0,0,0-.65,1.148,4.733,4.733,0,0,0-.218,1.478,4.571,4.571,0,0,0,.218,1.452,3.085,3.085,0,0,0,.65,1.126,2.8,2.8,0,0,0,1.067.722,3.956,3.956,0,0,0,1.471.253,4,4,0,0,0,1.486-.253,2.966,2.966,0,0,0,.659-.361l.794.754a4.5,4.5,0,0,0,.608-.521,6.175,6.175,0,0,0,.53-.608Zm-3.123.079a.943.943,0,0,1-.861-.451,2.456,2.456,0,0,1-.278-1.286,2.483,2.483,0,0,1,.278-1.3.943.943,0,0,1,.861-.451.959.959,0,0,1,.869.451,2.44,2.44,0,0,1,.285,1.3,4.134,4.134,0,0,1-.025.447c-.075.067-.148.132-.219.2a5.855,5.855,0,0,0-.531.608l.275.261A1,1,0,0,1,912.253,862.6Z"/><path class="p" d="M860.435,862.007a1.912,1.912,0,0,1,.279-1.073,2.1,2.1,0,0,1,.716-.677,3.026,3.026,0,0,1,.967-.35,5.615,5.615,0,0,1,1.033-.1h.808a.717.717,0,0,0-.133-.4.813.813,0,0,0-.3-.245,1.541,1.541,0,0,0-.41-.119,3.215,3.215,0,0,0-.465-.033,4.517,4.517,0,0,0-.741.073,5.388,5.388,0,0,0-.875.233c-.079-.151-.147-.288-.205-.412a1.97,1.97,0,0,1-.133-.377,2.81,2.81,0,0,1-.066-.4c-.014-.138-.02-.294-.02-.471a8.634,8.634,0,0,1,1.266-.319,7.05,7.05,0,0,1,1.133-.1,4.366,4.366,0,0,1,1.244.166,2.454,2.454,0,0,1,.948.51,2.251,2.251,0,0,1,.6.88,3.476,3.476,0,0,1,.212,1.279v3.881q-.5.148-1.219.292a7.562,7.562,0,0,1-1.51.147,5.937,5.937,0,0,1-1.266-.126,2.789,2.789,0,0,1-.987-.4,1.933,1.933,0,0,1-.643-.735A2.463,2.463,0,0,1,860.435,862.007Zm3.128.741a3.088,3.088,0,0,0,.344-.026,2.945,2.945,0,0,0,.331-.052v-1.458h-.755a1.445,1.445,0,0,0-.782.2.623.623,0,0,0-.318.556.667.667,0,0,0,.119.418.771.771,0,0,0,.3.231,1.314,1.314,0,0,0,.384.106A2.894,2.894,0,0,0,863.563,862.748Z"/><path class="p" d="M870.479,862.378h2.5a3.176,3.176,0,0,1,.087.49c.013.15.02.3.02.437s-.007.29-.02.445a3.15,3.15,0,0,1-.087.495h-4.743l.013-6.849a4.581,4.581,0,0,1,.577-.093c.19-.017.373-.026.55-.026s.348.009.543.026a4.091,4.091,0,0,1,.569.093Z"/><path class="p" d="M877.315,857.264a6.73,6.73,0,0,1,1.073.086,2.805,2.805,0,0,1,.98.351,4.738,4.738,0,0,1,.809-.3,3.784,3.784,0,0,1,1.046-.132,5.923,5.923,0,0,1,1.067.1,2.425,2.425,0,0,1,.994.417,2.34,2.34,0,0,1,.728.915,3.683,3.683,0,0,1,.285,1.576v3.961a5.325,5.325,0,0,1-.623.086c-.185.014-.348.021-.49.021s-.317-.007-.5-.021a5.326,5.326,0,0,1-.623-.086V860.51a1.652,1.652,0,0,0-.239-1.008.934.934,0,0,0-.781-.3,1.969,1.969,0,0,0-.61.107,4.233,4.233,0,0,1,.119,1.058v3.869a5.311,5.311,0,0,1-.622.086c-.186.014-.349.021-.49.021s-.318-.007-.5-.021a5.355,5.355,0,0,1-.623-.086V860.51a1.73,1.73,0,0,0-.225-1.008.9.9,0,0,0-.768-.3,2.173,2.173,0,0,0-.311.026.689.689,0,0,0-.206.053v4.955a5.369,5.369,0,0,1-.622.086c-.186.014-.349.021-.491.021s-.317-.007-.5-.021a5.309,5.309,0,0,1-.622-.086v-6.505q.463-.159,1.113-.311A7.343,7.343,0,0,1,877.315,857.264Z"/><path class="p" d="M885.9,862.007a1.92,1.92,0,0,1,.278-1.073,2.118,2.118,0,0,1,.716-.677,3.043,3.043,0,0,1,.967-.35,5.625,5.625,0,0,1,1.034-.1h.808a.718.718,0,0,0-.133-.4.8.8,0,0,0-.3-.245,1.536,1.536,0,0,0-.411-.119,3.2,3.2,0,0,0-.464-.033,4.486,4.486,0,0,0-.741.073,5.414,5.414,0,0,0-.875.233c-.08-.151-.148-.288-.205-.412a1.97,1.97,0,0,1-.133-.377,2.81,2.81,0,0,1-.066-.4c-.014-.138-.02-.294-.02-.471a8.62,8.62,0,0,1,1.265-.319,7.07,7.07,0,0,1,1.133-.1,4.368,4.368,0,0,1,1.245.166,2.454,2.454,0,0,1,.948.51,2.272,2.272,0,0,1,.6.88,3.5,3.5,0,0,1,.212,1.279v3.881q-.5.148-1.219.292a7.573,7.573,0,0,1-1.511.147,5.933,5.933,0,0,1-1.265-.126,2.781,2.781,0,0,1-.987-.4,1.924,1.924,0,0,1-.643-.735A2.449,2.449,0,0,1,885.9,862.007Zm3.127.741a3.1,3.1,0,0,0,.345-.026,2.91,2.91,0,0,0,.331-.052v-1.458h-.755a1.444,1.444,0,0,0-.782.2.621.621,0,0,0-.318.556.668.668,0,0,0,.119.418.769.769,0,0,0,.3.231,1.324,1.324,0,0,0,.384.106A2.906,2.906,0,0,0,889.027,862.748Z"/><path class="p" d="M896.486,857.264a6.854,6.854,0,0,1,1.166.1,2.658,2.658,0,0,1,1.054.417,2.34,2.34,0,0,1,.768.915,3.539,3.539,0,0,1,.3,1.576v3.961a5.324,5.324,0,0,1-.623.086c-.185.014-.349.021-.489.021s-.319-.007-.5-.021a5.3,5.3,0,0,1-.623-.086V860.51a1.531,1.531,0,0,0-.265-1.008,1.019,1.019,0,0,0-.809-.3,2.173,2.173,0,0,0-.31.026.689.689,0,0,0-.206.053v4.955a5.354,5.354,0,0,1-.623.086c-.185.014-.349.021-.489.021s-.319-.007-.5-.021a5.326,5.326,0,0,1-.623-.086v-6.505a11.459,11.459,0,0,1,1.127-.311A7.515,7.515,0,0,1,896.486,857.264Z"/><path class="p" d="M901.375,862.007a1.92,1.92,0,0,1,.278-1.073,2.114,2.114,0,0,1,.715-.677,3.04,3.04,0,0,1,.968-.35,5.623,5.623,0,0,1,1.033-.1h.809a.733.733,0,0,0-.132-.4.832.832,0,0,0-.3-.245,1.544,1.544,0,0,0-.412-.119,3.187,3.187,0,0,0-.463-.033,4.527,4.527,0,0,0-.742.073,5.441,5.441,0,0,0-.875.233c-.079-.151-.147-.288-.205-.412a2.113,2.113,0,0,1-.133-.377,3.133,3.133,0,0,1-.066-.4c-.012-.138-.019-.294-.019-.471a8.622,8.622,0,0,1,1.265-.319,7.059,7.059,0,0,1,1.132-.1,4.387,4.387,0,0,1,1.247.166,2.453,2.453,0,0,1,.946.51,2.251,2.251,0,0,1,.6.88,3.474,3.474,0,0,1,.212,1.279v3.881q-.5.148-1.219.292a7.563,7.563,0,0,1-1.51.147,5.928,5.928,0,0,1-1.265-.126,2.8,2.8,0,0,1-.988-.4,1.913,1.913,0,0,1-.642-.735A2.45,2.45,0,0,1,901.375,862.007Zm3.127.741a3.057,3.057,0,0,0,.344-.026,2.933,2.933,0,0,0,.332-.052v-1.458h-.756a1.439,1.439,0,0,0-.781.2.619.619,0,0,0-.318.556.667.667,0,0,0,.119.418.768.768,0,0,0,.3.231,1.315,1.315,0,0,0,.384.106A2.9,2.9,0,0,0,904.5,862.748Z"/><path class="p" d="M923.356,863.927q-.227.081-.537.16c-.208.054-.429.1-.663.152s-.474.087-.722.113a7.243,7.243,0,0,1-.729.04,7.8,7.8,0,0,1-1.3-.106,2.672,2.672,0,0,1-1.093-.431,2.207,2.207,0,0,1-.749-.941,4.071,4.071,0,0,1-.278-1.65V857.4a4.6,4.6,0,0,1,.576-.093c.19-.017.373-.026.55-.026s.349.009.544.026a4.091,4.091,0,0,1,.569.093v3.684a1.644,1.644,0,0,0,.266,1.085,1.035,1.035,0,0,0,.807.292,3.073,3.073,0,0,0,.345-.013,1.451,1.451,0,0,0,.172-.026V857.4a4.565,4.565,0,0,1,.576-.093c.19-.017.373-.026.55-.026s.349.009.544.026a4.156,4.156,0,0,1,.57.093Z"/><path class="p" d="M927.29,861.53a1.221,1.221,0,0,0,.511.768,1.805,1.805,0,0,0,.959.226,4.452,4.452,0,0,0,.861-.094,5.118,5.118,0,0,0,.942-.278,4.259,4.259,0,0,1,.324.822,3.843,3.843,0,0,1,.152.994,6.891,6.891,0,0,1-2.411.436,4.54,4.54,0,0,1-1.636-.263,2.821,2.821,0,0,1-1.749-1.856,4.68,4.68,0,0,1-.2-1.417,4.607,4.607,0,0,1,.212-1.419,3.235,3.235,0,0,1,.636-1.152,3.009,3.009,0,0,1,1.059-.775,3.618,3.618,0,0,1,1.484-.285,3.1,3.1,0,0,1,1.253.239,2.734,2.734,0,0,1,.934.656,2.853,2.853,0,0,1,.59,1.006,3.889,3.889,0,0,1,.205,1.279,5.635,5.635,0,0,1-.033.643c-.023.189-.042.346-.06.47Zm1.06-2.611a1.076,1.076,0,0,0-.729.265,1.2,1.2,0,0,0-.358.821h2.12a1.283,1.283,0,0,0-.284-.773A.914.914,0,0,0,928.35,858.919Z"/><g class="q"><path class="m" d="M839.466,866.544a1.807,1.807,0,0,1-.872-1.665c0-1.649-1.023-2.068-1.835-2.068s-1.833.419-1.833,2.068a1.986,1.986,0,0,1-3.969,0c0-1.649-1.025-2.068-1.836-2.068s-1.836.419-1.836,2.068a1.986,1.986,0,0,1-3.969,0c0-1.649-1.022-2.068-1.834-2.068s-1.833.419-1.833,2.068a1.986,1.986,0,0,1-3.969,0c0-1.649-1.024-2.068-1.835-2.068v3.758c.811,0,1.835.418,1.835,2.068a1.986,1.986,0,0,0,3.969,0c0-1.65,1.023-2.068,1.833-2.068s1.834.418,1.834,2.068a1.986,1.986,0,0,0,3.969,0c0-1.65,1.025-2.068,1.836-2.068s1.836.418,1.836,2.068a1.986,1.986,0,0,0,3.969,0c0-1.65,1.023-2.068,1.833-2.068s1.835.418,1.835,2.068a1.811,1.811,0,0,0,.872,1.666Z"/><path class="r" d="M839.466,869.312a1.809,1.809,0,0,1-.872-1.665c0-1.65-1.023-2.067-1.835-2.067s-1.833.417-1.833,2.067a1.986,1.986,0,0,1-3.969,0c0-1.65-1.025-2.067-1.836-2.067s-1.836.417-1.836,2.067a1.986,1.986,0,0,1-3.969,0c0-1.65-1.022-2.067-1.834-2.067s-1.833.417-1.833,2.067a1.986,1.986,0,0,1-3.969,0c0-1.65-1.024-2.067-1.835-2.067v1.792c.811,0,1.835.417,1.835,2.067a1.986,1.986,0,0,0,3.969,0c0-1.65,1.023-2.067,1.833-2.067s1.834.417,1.834,2.067a1.986,1.986,0,0,0,3.969,0c0-1.65,1.025-2.067,1.836-2.067s1.836.417,1.836,2.067a1.986,1.986,0,0,0,3.969,0c0-1.65,1.023-2.067,1.833-2.067s1.835.417,1.835,2.067a1.81,1.81,0,0,0,.872,1.666Z"/><path class="p" d="M839.466,862.954a1.806,1.806,0,0,1-.872-1.665c0-1.648-1.023-2.067-1.835-2.067s-1.833.419-1.833,2.067a1.986,1.986,0,0,1-3.969,0c0-1.648-1.025-2.067-1.836-2.067s-1.836.419-1.836,2.067a1.986,1.986,0,0,1-3.969,0c0-1.648-1.022-2.067-1.834-2.067s-1.833.419-1.833,2.067a1.986,1.986,0,0,1-3.969,0c0-1.648-1.024-2.067-1.835-2.067v3.758c.811,0,1.835.418,1.835,2.067a1.986,1.986,0,0,0,3.969,0c0-1.649,1.023-2.067,1.833-2.067s1.834.418,1.834,2.067a1.986,1.986,0,0,0,3.969,0c0-1.649,1.025-2.067,1.836-2.067s1.836.418,1.836,2.067a1.986,1.986,0,0,0,3.969,0c0-1.649,1.023-2.067,1.833-2.067s1.835.418,1.835,2.067a1.808,1.808,0,0,0,.872,1.665Z"/><path class="f" d="M839.466,865.727a1.809,1.809,0,0,1-.872-1.666c0-1.649-1.023-2.066-1.835-2.066s-1.833.417-1.833,2.066a1.986,1.986,0,0,1-3.969,0c0-1.649-1.025-2.066-1.836-2.066s-1.836.417-1.836,2.066a1.986,1.986,0,0,1-3.969,0c0-1.649-1.022-2.066-1.834-2.066s-1.833.417-1.833,2.066a1.986,1.986,0,0,1-3.969,0c0-1.649-1.024-2.066-1.835-2.066v1.792c.811,0,1.835.417,1.835,2.067a1.986,1.986,0,0,0,3.969,0c0-1.65,1.023-2.067,1.833-2.067s1.834.417,1.834,2.067a1.986,1.986,0,0,0,3.969,0c0-1.65,1.025-2.067,1.836-2.067s1.836.417,1.836,2.067a1.986,1.986,0,0,0,3.969,0c0-1.65,1.023-2.067,1.833-2.067s1.835.417,1.835,2.067a1.811,1.811,0,0,0,.872,1.666Z"/><path class="s" d="M839.466,862.151a1.807,1.807,0,0,1-.872-1.665c0-1.649-1.023-2.067-1.835-2.067s-1.833.418-1.833,2.067a1.986,1.986,0,0,1-3.969,0c0-1.649-1.025-2.067-1.836-2.067s-1.836.418-1.836,2.067a1.986,1.986,0,0,1-3.969,0c0-1.649-1.022-2.067-1.834-2.067s-1.833.418-1.833,2.067a1.986,1.986,0,0,1-3.969,0c0-1.649-1.024-2.067-1.835-2.067v1.793c.811,0,1.835.418,1.835,2.066a1.986,1.986,0,0,0,3.969,0c0-1.648,1.023-2.066,1.833-2.066s1.834.418,1.834,2.066a1.986,1.986,0,0,0,3.969,0c0-1.648,1.025-2.066,1.836-2.066s1.836.418,1.836,2.066a1.986,1.986,0,0,0,3.969,0c0-1.648,1.023-2.066,1.833-2.066s1.835.418,1.835,2.066a1.808,1.808,0,0,0,.872,1.665Z"/><path class="p" d="M839.466,858.627a1.808,1.808,0,0,1-.877-1.662c0-1.649-1.028-2.065-1.839-2.062s-1.833.423-1.829,2.072a1.985,1.985,0,0,1-3.968.01c0-1.649-1.031-2.065-1.842-2.063s-1.835.423-1.831,2.072a1.985,1.985,0,0,1-3.968.011c-.005-1.65-1.028-2.065-1.84-2.063s-1.832.423-1.828,2.072a1.986,1.986,0,0,1-3.969.01c0-1.649-1.029-2.065-1.84-2.063l.01,3.714v.044c.811,0,1.836.413,1.84,2.062a1.986,1.986,0,0,0,3.969-.011c0-1.649,1.018-2.068,1.828-2.071s1.835.413,1.839,2.062a1.986,1.986,0,0,0,3.969-.01c0-1.649,1.02-2.069,1.831-2.071s1.837.412,1.841,2.061a1.986,1.986,0,0,0,3.969-.01c0-1.649,1.017-2.069,1.828-2.071s1.835.413,1.84,2.062a1.8,1.8,0,0,0,.877,1.662Z"/><path class="t" d="M839.466,857.856a1.8,1.8,0,0,1-.872-1.663c0-1.65-1.023-2.067-1.835-2.067s-1.833.417-1.833,2.067a1.986,1.986,0,0,1-3.969,0c0-1.65-1.025-2.067-1.836-2.067s-1.836.417-1.836,2.067a1.986,1.986,0,0,1-3.969,0c0-1.65-1.022-2.067-1.834-2.067s-1.833.417-1.833,2.067a1.986,1.986,0,0,1-3.969,0c0-1.65-1.024-2.067-1.835-2.067v1.792c.811,0,1.835.418,1.835,2.066a1.986,1.986,0,0,0,3.969,0c0-1.648,1.023-2.066,1.833-2.066s1.834.418,1.834,2.066a1.986,1.986,0,0,0,3.969,0c0-1.648,1.025-2.066,1.836-2.066s1.836.418,1.836,2.066a1.986,1.986,0,0,0,3.969,0c0-1.648,1.023-2.066,1.833-2.066s1.835.418,1.835,2.066a1.809,1.809,0,0,0,.872,1.665Z"/><path class="p" d="M839.466,854.382a1.808,1.808,0,0,1-.872-1.665c0-1.649-1.023-2.068-1.835-2.068s-1.833.419-1.833,2.068a1.986,1.986,0,0,1-3.969,0c0-1.649-1.025-2.068-1.836-2.068s-1.836.419-1.836,2.068a1.986,1.986,0,0,1-3.969,0c0-1.649-1.022-2.068-1.834-2.068s-1.833.419-1.833,2.068a1.986,1.986,0,0,1-3.969,0c0-1.649-1.024-2.068-1.835-2.068v3.759c.811,0,1.835.418,1.835,2.067a1.986,1.986,0,0,0,3.969,0c0-1.649,1.023-2.067,1.833-2.067s1.834.418,1.834,2.067a1.986,1.986,0,0,0,3.969,0c0-1.649,1.025-2.067,1.836-2.067s1.836.418,1.836,2.067a1.986,1.986,0,0,0,3.969,0c0-1.649,1.023-2.067,1.833-2.067s1.835.418,1.835,2.067a1.807,1.807,0,0,0,.872,1.664Z"/><path class="k" d="M839.466,853.578a1.806,1.806,0,0,1-.872-1.665c0-1.649-1.023-2.067-1.835-2.067s-1.833.418-1.833,2.067a1.986,1.986,0,0,1-3.969,0c0-1.649-1.025-2.067-1.836-2.067s-1.836.418-1.836,2.067a1.986,1.986,0,0,1-3.969,0c0-1.649-1.022-2.067-1.834-2.067s-1.833.418-1.833,2.067a1.986,1.986,0,0,1-3.969,0c0-1.649-1.024-2.067-1.835-2.067v1.793c.811,0,1.835.418,1.835,2.067a1.986,1.986,0,0,0,3.969,0c0-1.649,1.023-2.067,1.833-2.067s1.834.418,1.834,2.067a1.986,1.986,0,0,0,3.969,0c0-1.649,1.025-2.067,1.836-2.067s1.836.418,1.836,2.067a1.986,1.986,0,0,0,3.969,0c0-1.649,1.023-2.067,1.833-2.067s1.835.418,1.835,2.067a1.808,1.808,0,0,0,.872,1.665Z"/><path class="m" d="M839.466,872.916a1.808,1.808,0,0,1-.872-1.665c0-1.65-1.023-2.068-1.835-2.068s-1.833.418-1.833,2.068a1.986,1.986,0,0,1-3.969,0c0-1.65-1.025-2.068-1.836-2.068s-1.836.418-1.836,2.068a1.986,1.986,0,0,1-3.969,0c0-1.65-1.022-2.068-1.834-2.068s-1.833.418-1.833,2.068a1.986,1.986,0,0,1-3.969,0c0-1.65-1.024-2.068-1.835-2.068v3.758c.811,0,1.835.418,1.835,2.068a1.986,1.986,0,0,0,3.969,0c0-1.65,1.023-2.068,1.833-2.068s1.834.418,1.834,2.068a1.986,1.986,0,0,0,3.969,0c0-1.65,1.025-2.068,1.836-2.068s1.836.418,1.836,2.068a1.986,1.986,0,0,0,3.969,0c0-1.65,1.023-2.068,1.833-2.068s1.835.418,1.835,2.068a1.81,1.81,0,0,0,.872,1.666Z"/><path class="r" d="M839.466,876.366a1.808,1.808,0,0,1-.872-1.665c0-1.65-1.023-2.068-1.835-2.068s-1.833.418-1.833,2.068a1.986,1.986,0,0,1-3.969,0c0-1.65-1.025-2.068-1.836-2.068s-1.836.418-1.836,2.068a1.986,1.986,0,0,1-3.969,0c0-1.65-1.022-2.068-1.834-2.068s-1.833.418-1.833,2.068a1.986,1.986,0,0,1-3.969,0c0-1.65-1.024-2.068-1.835-2.068v1.793c.811,0,1.835.418,1.835,2.068a1.986,1.986,0,0,0,3.969,0c0-1.65,1.023-2.068,1.833-2.068s1.834.418,1.834,2.068a1.986,1.986,0,0,0,3.969,0c0-1.65,1.025-2.068,1.836-2.068s1.836.418,1.836,2.068a1.986,1.986,0,0,0,3.969,0c0-1.65,1.023-2.068,1.833-2.068s1.835.418,1.835,2.068a1.809,1.809,0,0,0,.872,1.665Z"/><path class="m" d="M839.466,873.427a1.811,1.811,0,0,1-.872-1.666c0-1.65-1.023-2.068-1.835-2.068s-1.833.418-1.833,2.068a1.986,1.986,0,0,1-3.969,0c0-1.65-1.025-2.068-1.836-2.068s-1.836.418-1.836,2.068a1.986,1.986,0,0,1-3.969,0c0-1.65-1.022-2.068-1.834-2.068s-1.833.418-1.833,2.068a1.986,1.986,0,0,1-3.969,0c0-1.65-1.024-2.068-1.835-2.068v3.758c.811,0,1.835.419,1.835,2.069a1.986,1.986,0,0,0,3.969,0c0-1.65,1.023-2.069,1.833-2.069s1.834.419,1.834,2.069a1.986,1.986,0,0,0,3.969,0c0-1.65,1.025-2.069,1.836-2.069s1.836.419,1.836,2.069a1.986,1.986,0,0,0,3.969,0c0-1.65,1.023-2.069,1.833-2.069s1.835.419,1.835,2.069a1.809,1.809,0,0,0,.872,1.665Z"/><path class="u" d="M839.466,876.194a1.809,1.809,0,0,1-.872-1.665c0-1.65-1.023-2.067-1.835-2.067s-1.833.417-1.833,2.067a1.986,1.986,0,0,1-3.969,0c0-1.65-1.025-2.067-1.836-2.067s-1.836.417-1.836,2.067a1.986,1.986,0,0,1-3.969,0c0-1.65-1.022-2.067-1.834-2.067s-1.833.417-1.833,2.067a1.986,1.986,0,0,1-3.969,0c0-1.65-1.024-2.067-1.835-2.067v1.792c.811,0,1.835.418,1.835,2.068a1.986,1.986,0,0,0,3.969,0c0-1.65,1.023-2.068,1.833-2.068s1.834.418,1.834,2.068a1.986,1.986,0,0,0,3.969,0c0-1.65,1.025-2.068,1.836-2.068s1.836.418,1.836,2.068a1.986,1.986,0,0,0,3.969,0c0-1.65,1.023-2.068,1.833-2.068s1.835.418,1.835,2.068a1.808,1.808,0,0,0,.872,1.665Z"/><path class="m" d="M839.466,877.516a1.806,1.806,0,0,1-.872-1.665c0-1.649-1.023-2.068-1.835-2.068s-1.833.419-1.833,2.068a1.986,1.986,0,0,1-3.969,0c0-1.649-1.025-2.068-1.836-2.068s-1.836.419-1.836,2.068a1.986,1.986,0,0,1-3.969,0c0-1.649-1.022-2.068-1.834-2.068s-1.833.419-1.833,2.068a1.986,1.986,0,0,1-3.969,0c0-1.649-1.024-2.068-1.835-2.068v3.759c.811,0,1.835.418,1.835,2.068a1.986,1.986,0,0,0,3.969,0c0-1.65,1.023-2.068,1.833-2.068s1.834.418,1.834,2.068a1.986,1.986,0,0,0,3.969,0c0-1.65,1.025-2.068,1.836-2.068s1.836.418,1.836,2.068a1.986,1.986,0,0,0,3.969,0c0-1.65,1.023-2.068,1.833-2.068s1.835.418,1.835,2.068a1.808,1.808,0,0,0,.872,1.665Z"/><path class="r" d="M839.466,880.966a1.807,1.807,0,0,1-.872-1.665c0-1.649-1.023-2.067-1.835-2.067s-1.833.418-1.833,2.067a1.986,1.986,0,0,1-3.969,0c0-1.649-1.025-2.067-1.836-2.067s-1.836.418-1.836,2.067a1.986,1.986,0,0,1-3.969,0c0-1.649-1.022-2.067-1.834-2.067s-1.833.418-1.833,2.067a1.986,1.986,0,0,1-3.969,0c0-1.649-1.024-2.067-1.835-2.067v1.793c.811,0,1.835.417,1.835,2.067a1.986,1.986,0,0,0,3.969,0c0-1.65,1.023-2.067,1.833-2.067s1.834.417,1.834,2.067a1.986,1.986,0,0,0,3.969,0c0-1.65,1.025-2.067,1.836-2.067s1.836.417,1.836,2.067a1.986,1.986,0,0,0,3.969,0c0-1.65,1.023-2.067,1.833-2.067s1.835.417,1.835,2.067a1.808,1.808,0,0,0,.872,1.665Z"/><path class="m" d="M839.466,878.027a1.809,1.809,0,0,1-.872-1.666c0-1.649-1.023-2.068-1.835-2.068s-1.833.419-1.833,2.068a1.986,1.986,0,0,1-3.969,0c0-1.649-1.025-2.068-1.836-2.068s-1.836.419-1.836,2.068a1.986,1.986,0,0,1-3.969,0c0-1.649-1.022-2.068-1.834-2.068s-1.833.419-1.833,2.068a1.986,1.986,0,0,1-3.969,0c0-1.649-1.024-2.068-1.835-2.068v3.759c.811,0,1.835.418,1.835,2.068a1.986,1.986,0,0,0,3.969,0c0-1.65,1.023-2.068,1.833-2.068s1.834.418,1.834,2.068a1.986,1.986,0,0,0,3.969,0c0-1.65,1.025-2.068,1.836-2.068s1.836.418,1.836,2.068a1.986,1.986,0,0,0,3.969,0c0-1.65,1.023-2.068,1.833-2.068s1.835.418,1.835,2.068a1.808,1.808,0,0,0,.872,1.665Z"/><path class="r" d="M839.466,880.795a1.811,1.811,0,0,1-.872-1.666c0-1.649-1.023-2.067-1.835-2.067s-1.833.418-1.833,2.067a1.986,1.986,0,0,1-3.969,0c0-1.649-1.025-2.067-1.836-2.067s-1.836.418-1.836,2.067a1.986,1.986,0,0,1-3.969,0c0-1.649-1.022-2.067-1.834-2.067s-1.833.418-1.833,2.067a1.986,1.986,0,0,1-3.969,0c0-1.649-1.024-2.067-1.835-2.067v1.793c.811,0,1.835.417,1.835,2.067a1.986,1.986,0,0,0,3.969,0c0-1.65,1.023-2.067,1.833-2.067s1.834.417,1.834,2.067a1.986,1.986,0,0,0,3.969,0c0-1.65,1.025-2.067,1.836-2.067s1.836.417,1.836,2.067a1.986,1.986,0,0,0,3.969,0c0-1.65,1.023-2.067,1.833-2.067s1.835.417,1.835,2.067a1.807,1.807,0,0,0,.872,1.665Z"/><path class="m" d="M839.466,870.008a1.808,1.808,0,0,1-.872-1.665c0-1.65-1.023-2.069-1.835-2.069s-1.833.419-1.833,2.069a1.986,1.986,0,0,1-3.969,0c0-1.65-1.025-2.069-1.836-2.069s-1.836.419-1.836,2.069a1.986,1.986,0,0,1-3.969,0c0-1.65-1.022-2.069-1.834-2.069s-1.833.419-1.833,2.069a1.986,1.986,0,0,1-3.969,0c0-1.65-1.024-2.069-1.835-2.069v3.76c.811,0,1.835.417,1.835,2.067a1.986,1.986,0,0,0,3.969,0c0-1.65,1.023-2.067,1.833-2.067s1.834.417,1.834,2.067a1.986,1.986,0,0,0,3.969,0c0-1.65,1.025-2.067,1.836-2.067s1.836.417,1.836,2.067a1.986,1.986,0,0,0,3.969,0c0-1.65,1.023-2.067,1.833-2.067s1.835.417,1.835,2.067a1.81,1.81,0,0,0,.872,1.666Z"/><path class="v" d="M839.466,872.781a1.809,1.809,0,0,1-.872-1.666c0-1.649-1.023-2.067-1.835-2.067s-1.833.418-1.833,2.067a1.986,1.986,0,0,1-3.969,0c0-1.649-1.025-2.067-1.836-2.067s-1.836.418-1.836,2.067a1.986,1.986,0,0,1-3.969,0c0-1.649-1.022-2.067-1.834-2.067s-1.833.418-1.833,2.067a1.986,1.986,0,0,1-3.969,0c0-1.649-1.024-2.067-1.835-2.067v1.793c.811,0,1.835.418,1.835,2.067a1.986,1.986,0,0,0,3.969,0c0-1.649,1.023-2.067,1.833-2.067s1.834.418,1.834,2.067a1.986,1.986,0,0,0,3.969,0c0-1.649,1.025-2.067,1.836-2.067s1.836.418,1.836,2.067a1.986,1.986,0,0,0,3.969,0c0-1.649,1.023-2.067,1.833-2.067s1.835.418,1.835,2.067a1.81,1.81,0,0,0,.872,1.666Z"/><path class="w" d="M839.466,869.2a1.808,1.808,0,0,1-.872-1.665c0-1.65-1.023-2.067-1.835-2.067s-1.833.417-1.833,2.067a1.986,1.986,0,0,1-3.969,0c0-1.65-1.025-2.067-1.836-2.067s-1.836.417-1.836,2.067a1.986,1.986,0,0,1-3.969,0c0-1.65-1.022-2.067-1.834-2.067s-1.833.417-1.833,2.067a1.986,1.986,0,0,1-3.969,0c0-1.65-1.024-2.067-1.835-2.067v1.792c.811,0,1.835.419,1.835,2.068a1.986,1.986,0,0,0,3.969,0c0-1.649,1.023-2.068,1.833-2.068s1.834.419,1.834,2.068a1.986,1.986,0,0,0,3.969,0c0-1.649,1.025-2.068,1.836-2.068s1.836.419,1.836,2.068a1.986,1.986,0,0,0,3.969,0c0-1.649,1.023-2.068,1.833-2.068s1.835.419,1.835,2.068a1.809,1.809,0,0,0,.872,1.665Z"/><path class="a" d="M830.518,870.065h-.511v2.884h.609c1.108,0,2.554.09,2.554-1.436C833.17,869.963,831.6,870.065,830.518,870.065Z"/></g><path class="x" d="M860.785,866.214h2.077l.766,2.917h.051l.007-.044c.049-.315.094-.545.133-.693l.626-2.18H866.5l.913,5.553h-1.952l-.272-3.041h-.037l-.007.029a3.919,3.919,0,0,1-.126.523l-.8,2.489h-1.179l-.721-2.349a3.877,3.877,0,0,1-.126-.692h-.066v.037q-.03.441-.051.633l-.236,2.371h-1.952Z"/><path class="x" d="M868.1,866.214h2.018v5.553H868.1Z"/><path class="x" d="M876.928,868.5v.051a7.12,7.12,0,0,1-.125,1.355,2.079,2.079,0,0,1-.545.965,2.944,2.944,0,0,1-1.064.729,3.382,3.382,0,0,1-1.293.258,3.646,3.646,0,0,1-1.2-.192,2.875,2.875,0,0,1-.975-.56,2.562,2.562,0,0,1-.656-.894,2.865,2.865,0,0,1-.236-1.182,3.017,3.017,0,0,1,.233-1.2,2.6,2.6,0,0,1,.651-.921,2.876,2.876,0,0,1,.98-.578,3.621,3.621,0,0,1,2-.107,3.733,3.733,0,0,1,.795.273,2.856,2.856,0,0,1,.689.453,1.842,1.842,0,0,1,.46.611l-1.886.692a.759.759,0,0,0-.313-.317.935.935,0,0,0-.453-.11.989.989,0,0,0-.817.379,1.418,1.418,0,0,0-.3.91,1.284,1.284,0,0,0,.284.835.92.92,0,0,0,.755.35,1.09,1.09,0,0,0,.508-.125.572.572,0,0,0,.309-.361h-.913V868.5Z"/><path class="x" d="M882.731,866.214V869.5a2.212,2.212,0,0,1-.681,1.768,3.324,3.324,0,0,1-3.778,0,2.212,2.212,0,0,1-.681-1.768v-3.285h2.018v3.094c0,.137.005.25.014.338a.753.753,0,0,0,.067.243.366.366,0,0,0,.166.173.772.772,0,0,0,.611,0,.392.392,0,0,0,.169-.173.663.663,0,0,0,.067-.243c.007-.088.01-.2.01-.338v-3.094Z"/><path class="x" d="M883.593,866.214h3.734v1.518h-1.7v.53h1.554v1.443h-1.554v.545h1.76v1.517h-3.793Z"/><path class="x" d="M888.218,866.214h2.018v3.771h1.694v1.782h-3.712Z"/><path class="x" d="M895.531,866.214h2.349a4.673,4.673,0,0,1,.825.067,2.217,2.217,0,0,1,.681.232,1.226,1.226,0,0,1,.486.475,1.49,1.49,0,0,1,.181.766,1.307,1.307,0,0,1-.192.7.953.953,0,0,1-.537.423v.044a1.513,1.513,0,0,1,.729.5,1.307,1.307,0,0,1,.258.821,1.372,1.372,0,0,1-.174.708,1.4,1.4,0,0,1-.464.478,2.018,2.018,0,0,1-.651.265,3.391,3.391,0,0,1-.744.081h-2.747Zm2.055,2.136a1.108,1.108,0,0,0,.456-.077.329.329,0,0,0,.17-.335.3.3,0,0,0-.162-.313,1.366,1.366,0,0,0-.509-.07h-.14v.795Zm-.185,2.092h.229c.118,0,.218,0,.3-.011a.972.972,0,0,0,.243-.055.422.422,0,0,0,.191-.141.409.409,0,0,0,.074-.257.415.415,0,0,0-.074-.258.4.4,0,0,0-.2-.136,1.173,1.173,0,0,0-.257-.052c-.089-.007-.192-.011-.31-.011h-.2Z"/><path class="x" d="M906.077,866.214V869.5a2.212,2.212,0,0,1-.681,1.768,3.324,3.324,0,0,1-3.778,0,2.209,2.209,0,0,1-.682-1.768v-3.285h2.018v3.094a3.1,3.1,0,0,0,.015.338.777.777,0,0,0,.066.243.375.375,0,0,0,.166.173.775.775,0,0,0,.612,0,.392.392,0,0,0,.169-.173.643.643,0,0,0,.066-.243c.007-.088.011-.2.011-.338v-3.094Z"/><path class="x" d="M906.968,866.214h2.438a3.634,3.634,0,0,1,.9.107,2.111,2.111,0,0,1,.733.339,1.611,1.611,0,0,1,.5.6,2,2,0,0,1,.18.88,1.506,1.506,0,0,1-.246.931,1.671,1.671,0,0,1-.829.512v.045l.029.022a1.527,1.527,0,0,1,.31.309l1.208,1.8h-2.328l-.883-1.782h-.037v1.782h-1.974Zm1.974,2.46h.14a1.056,1.056,0,0,0,.486-.092.38.38,0,0,0,.177-.372.4.4,0,0,0-.17-.383.981.981,0,0,0-.479-.1h-.154Z"/><path class="x" d="M912.514,866.214h1.936l1.812,3.079h.059l-.015-.074c-.049-.29-.087-.536-.114-.74a4.562,4.562,0,0,1-.04-.6v-1.665h1.929v5.553h-1.929l-1.775-2.916h-.059a7.062,7.062,0,0,1,.125,1.112v1.8h-1.929Z"/><path class="x" d="M918.98,866.214H921v5.553H918.98Z"/><path class="x" d="M921.9,866.214h3.733v1.518h-1.7v.53h1.554v1.443h-1.554v.545h1.76v1.517H921.9Z"/><path class="x" d="M926.528,866.214h2.438a3.628,3.628,0,0,1,.9.107,2.1,2.1,0,0,1,.733.339,1.6,1.6,0,0,1,.5.6,1.987,1.987,0,0,1,.181.88,1.506,1.506,0,0,1-.247.931,1.672,1.672,0,0,1-.828.512v.045l.029.022a1.545,1.545,0,0,1,.309.309l1.208,1.8h-2.327l-.884-1.782H928.5v1.782h-1.974Zm1.974,2.46h.14a1.056,1.056,0,0,0,.486-.092.378.378,0,0,0,.177-.372.4.4,0,0,0-.169-.383.984.984,0,0,0-.479-.1H928.5Z"/></g></svg>