<svg xmlns="http://www.w3.org/2000/svg" xmlns:xlink="http://www.w3.org/1999/xlink" width="189.479" height="142.459" viewBox="0 0 189.479 142.459"><defs><style>.a{fill:none;}.b{clip-path:url(#a);}.c{fill:#ae0018;}.d{fill:#db0020;}.e{fill:#165425;}.f{fill:#d9000d;}.g{fill:#91b508;}.h{fill:#00862f;}.i{fill:#449b23;}.j{fill:#c80040;}.k{fill:#f27c00;}.l{fill:#dd1a1e;}.m{clip-path:url(#b);}.n{fill:#007ecd;}.o{fill:#003f8f;}.p{fill:#005fab;}.q{fill:#227c26;}.r{fill:#fca01f;}.s{fill:#db0060;}.t{fill:#ffe400;}.u{fill:#0c2372;}.v{fill:#d8006b;}.w{fill:#009289;}.x{fill:#161615;}</style><clipPath id="a"><path class="a" d="M373.915,181.432h30.908l11.4,43.4h.768a91.9,91.9,0,0,1,2.082-10.96l9.316-32.442h30.578l13.592,82.638H443.512l-4.055-45.264h-.549a68.8,68.8,0,0,1-1.973,8.22L424.989,264.07H407.453l-10.741-34.961a56.549,56.549,0,0,1-1.863-10.3h-.986c-.219,3.288-.439,6.686-.767,9.974l-3.508,35.29H360.544Z"/></clipPath><clipPath id="b"><path class="a" d="M477.929,179.9h35.437c16.219,0,32.771,3.888,32.771,23.212,0,7.328-3.666,14.547-11,16.879v.666c9.109,3.221,14.884,9.884,14.884,19.883,0,17.218-15.994,23.108-30.658,23.108H477.929Zm31,31.686c4.442,0,9.441-.1,9.441-5.872,0-6.218-5.666-5.6-10.109-5.6h-1.418v11.473Zm-2.086,31.2h2.75c5,0,11.528.407,11.528-6.482,0-6.994-7.084-6.537-11.972-6.537h-2.306Z"/></clipPath></defs><g transform="translate(-360.544 -179.902)"><g class="b"><path class="c" d="M475.3,230.964c-3.031-1.647-3.94-4.827-3.94-7.516,0-7.444-4.617-9.331-8.278-9.331S454.8,216,454.8,223.448c0,3.814-1.811,8.635-8.955,8.635s-8.957-4.821-8.957-8.635c0-7.444-4.627-9.331-8.287-9.331s-8.288,1.887-8.288,9.331c0,3.814-1.81,8.635-8.957,8.635s-8.956-4.821-8.956-8.635c0-7.444-4.614-9.331-8.277-9.331s-8.275,1.887-8.275,9.331c0,3.814-1.811,8.635-8.958,8.635s-8.956-4.821-8.956-8.635c0-7.444-4.62-9.331-8.281-9.331v16.96c3.661,0,8.281,1.886,8.281,9.334,0,3.81,1.811,8.636,8.956,8.636s8.958-4.826,8.958-8.636c0-7.448,4.617-9.334,8.275-9.334s8.277,1.886,8.277,9.334c0,3.81,1.812,8.636,8.956,8.636s8.957-4.826,8.957-8.636c0-7.448,4.627-9.334,8.288-9.334s8.287,1.886,8.287,9.334c0,3.81,1.81,8.636,8.957,8.636s8.955-4.826,8.955-8.636c0-7.448,4.617-9.334,8.276-9.334s8.278,1.886,8.278,9.334c0,2.685.909,5.869,3.94,7.517Z"/><path class="d" d="M475.3,243.456c-3.031-1.647-3.94-4.833-3.94-7.516,0-7.445-4.617-9.33-8.278-9.33s-8.276,1.885-8.276,9.33c0,3.811-1.811,8.637-8.955,8.637s-8.957-4.826-8.957-8.637c0-7.445-4.627-9.33-8.287-9.33s-8.288,1.885-8.288,9.33c0,3.811-1.81,8.637-8.957,8.637s-8.956-4.826-8.956-8.637c0-7.445-4.614-9.33-8.277-9.33s-8.275,1.885-8.275,9.33c0,3.811-1.811,8.637-8.958,8.637s-8.956-4.826-8.956-8.637c0-7.445-4.62-9.33-8.281-9.33v8.09c3.661,0,8.281,1.884,8.281,9.332,0,3.808,1.811,8.635,8.956,8.635s8.958-4.827,8.958-8.635c0-7.448,4.617-9.332,8.275-9.332s8.277,1.884,8.277,9.332c0,3.808,1.812,8.635,8.956,8.635s8.957-4.827,8.957-8.635c0-7.448,4.627-9.332,8.288-9.332s8.287,1.884,8.287,9.332c0,3.808,1.81,8.635,8.957,8.635s8.955-4.827,8.955-8.635c0-7.448,4.617-9.332,8.276-9.332s8.278,1.884,8.278,9.332c0,2.685.909,5.869,3.94,7.515Z"/><path class="e" d="M475.3,214.762c-3.031-1.646-3.94-4.827-3.94-7.515,0-7.442-4.617-9.331-8.278-9.331s-8.276,1.889-8.276,9.331c0,3.812-1.811,8.632-8.955,8.632s-8.957-4.82-8.957-8.632c0-7.442-4.627-9.331-8.287-9.331s-8.288,1.889-8.288,9.331c0,3.812-1.81,8.632-8.957,8.632s-8.956-4.82-8.956-8.632c0-7.442-4.614-9.331-8.277-9.331s-8.275,1.889-8.275,9.331c0,3.812-1.811,8.632-8.958,8.632s-8.956-4.82-8.956-8.632c0-7.442-4.62-9.331-8.281-9.331v16.962c3.661,0,8.281,1.884,8.281,9.33,0,3.813,1.811,8.632,8.956,8.632s8.958-4.819,8.958-8.632c0-7.446,4.617-9.33,8.275-9.33s8.277,1.884,8.277,9.33c0,3.813,1.812,8.632,8.956,8.632s8.957-4.819,8.957-8.632c0-7.446,4.627-9.33,8.288-9.33s8.287,1.884,8.287,9.33c0,3.813,1.81,8.632,8.957,8.632s8.955-4.819,8.955-8.632c0-7.446,4.617-9.33,8.276-9.33s8.278,1.884,8.278,9.33c0,2.687.909,5.867,3.94,7.516Z"/><path class="f" d="M475.3,227.275c-3.031-1.648-3.94-4.829-3.94-7.516,0-7.444-4.617-9.329-8.278-9.329s-8.276,1.885-8.276,9.329c0,3.814-1.811,8.634-8.955,8.634s-8.957-4.82-8.957-8.634c0-7.444-4.627-9.329-8.287-9.329s-8.288,1.885-8.288,9.329c0,3.814-1.81,8.634-8.957,8.634s-8.956-4.82-8.956-8.634c0-7.444-4.614-9.329-8.277-9.329s-8.275,1.885-8.275,9.329c0,3.814-1.811,8.634-8.958,8.634s-8.956-4.82-8.956-8.634c0-7.444-4.62-9.329-8.281-9.329v8.09c3.661,0,8.281,1.884,8.281,9.33,0,3.813,1.811,8.633,8.956,8.633s8.958-4.82,8.958-8.633c0-7.446,4.617-9.33,8.275-9.33s8.277,1.884,8.277,9.33c0,3.813,1.812,8.633,8.956,8.633s8.957-4.82,8.957-8.633c0-7.446,4.627-9.33,8.288-9.33s8.287,1.884,8.287,9.33c0,3.813,1.81,8.633,8.957,8.633s8.955-4.82,8.955-8.633c0-7.446,4.617-9.33,8.276-9.33s8.278,1.884,8.278,9.33c0,2.686.909,5.867,3.94,7.518Z"/><path class="g" d="M475.3,211.135c-3.031-1.645-3.94-4.826-3.94-7.512,0-7.445-4.617-9.33-8.278-9.33s-8.276,1.885-8.276,9.33c0,3.811-1.811,8.631-8.955,8.631s-8.957-4.82-8.957-8.631c0-7.445-4.627-9.33-8.287-9.33s-8.288,1.885-8.288,9.33c0,3.811-1.81,8.631-8.957,8.631s-8.956-4.82-8.956-8.631c0-7.445-4.614-9.33-8.277-9.33s-8.275,1.885-8.275,9.33c0,3.811-1.811,8.631-8.958,8.631s-8.956-4.82-8.956-8.631c0-7.445-4.62-9.33-8.281-9.33v8.09c3.661,0,8.281,1.888,8.281,9.328,0,3.81,1.811,8.634,8.956,8.634s8.958-4.824,8.958-8.634c0-7.44,4.617-9.328,8.275-9.328s8.277,1.888,8.277,9.328c0,3.81,1.812,8.634,8.956,8.634s8.957-4.824,8.957-8.634c0-7.44,4.627-9.328,8.288-9.328s8.287,1.888,8.287,9.328c0,3.81,1.81,8.634,8.957,8.634s8.955-4.824,8.955-8.634c0-7.44,4.617-9.328,8.276-9.328s8.278,1.888,8.278,9.328c0,2.683.909,5.864,3.94,7.515Z"/><path class="e" d="M475.293,195.231c-3.035-1.639-3.951-4.816-3.959-7.5-.019-7.443-4.641-9.32-8.3-9.311s-8.27,1.911-8.252,9.354c.01,3.809-1.788,8.633-8.933,8.651s-8.969-4.8-8.979-8.6c-.018-7.444-4.651-9.322-8.311-9.312s-8.283,1.91-8.264,9.354c.01,3.808-1.788,8.634-8.935,8.652s-8.968-4.8-8.978-8.605c-.019-7.445-4.638-9.321-8.3-9.312s-8.27,1.91-8.251,9.354c.01,3.807-1.789,8.633-8.935,8.651s-8.969-4.8-8.978-8.605c-.02-7.444-4.645-9.321-8.306-9.311l.043,16.76v.2c3.661-.009,8.286,1.863,8.3,9.307.01,3.812,1.832,8.629,8.978,8.61s8.946-4.844,8.936-8.657c-.02-7.444,4.593-9.338,8.251-9.348s8.282,1.861,8.3,9.3c.01,3.814,1.834,8.631,8.978,8.611s8.945-4.844,8.934-8.656c-.019-7.444,4.6-9.339,8.264-9.349s8.293,1.863,8.312,9.306c.01,3.813,1.832,8.629,8.979,8.611s8.943-4.843,8.933-8.657c-.019-7.443,4.592-9.339,8.252-9.349s8.283,1.863,8.3,9.306c.007,2.688.923,5.866,3.96,7.505Z"/><path class="h" d="M475.3,191.752c-3.031-1.644-3.94-4.822-3.94-7.508,0-7.445-4.617-9.329-8.278-9.329s-8.276,1.884-8.276,9.329c0,3.811-1.811,8.628-8.955,8.628s-8.957-4.817-8.957-8.628c0-7.445-4.627-9.329-8.287-9.329s-8.288,1.884-8.288,9.329c0,3.811-1.81,8.628-8.957,8.628s-8.956-4.817-8.956-8.628c0-7.445-4.614-9.329-8.277-9.329s-8.275,1.884-8.275,9.329c0,3.811-1.811,8.628-8.958,8.628s-8.956-4.817-8.956-8.628c0-7.445-4.62-9.329-8.281-9.329V183c3.661,0,8.281,1.888,8.281,9.325,0,3.81,1.811,8.634,8.956,8.634s8.958-4.824,8.958-8.634c0-7.437,4.617-9.325,8.275-9.325s8.277,1.888,8.277,9.325c0,3.81,1.812,8.634,8.956,8.634s8.957-4.824,8.957-8.634c0-7.437,4.627-9.325,8.288-9.325s8.287,1.888,8.287,9.325c0,3.81,1.81,8.634,8.957,8.634s8.955-4.824,8.955-8.634c0-7.437,4.617-9.325,8.276-9.325s8.278,1.888,8.278,9.325c0,2.683.909,5.864,3.94,7.513Z"/><path class="e" d="M475.3,176.071c-3.031-1.647-3.94-4.827-3.94-7.516,0-7.443-4.617-9.334-8.278-9.334s-8.276,1.891-8.276,9.334c0,3.813-1.811,8.635-8.955,8.635s-8.957-4.822-8.957-8.635c0-7.443-4.627-9.334-8.287-9.334s-8.288,1.891-8.288,9.334c0,3.813-1.81,8.635-8.957,8.635s-8.956-4.822-8.956-8.635c0-7.443-4.614-9.334-8.277-9.334s-8.275,1.891-8.275,9.334c0,3.813-1.811,8.635-8.958,8.635s-8.956-4.822-8.956-8.635c0-7.443-4.62-9.334-8.281-9.334v16.967c3.661,0,8.281,1.885,8.281,9.329,0,3.81,1.811,8.63,8.956,8.63s8.958-4.82,8.958-8.63c0-7.444,4.617-9.329,8.275-9.329s8.277,1.885,8.277,9.329c0,3.81,1.812,8.63,8.956,8.63s8.957-4.82,8.957-8.63c0-7.444,4.627-9.329,8.288-9.329s8.287,1.885,8.287,9.329c0,3.81,1.81,8.63,8.957,8.63s8.955-4.82,8.955-8.63c0-7.444,4.617-9.329,8.276-9.329s8.278,1.885,8.278,9.329c0,2.687.909,5.862,3.94,7.511Z"/><path class="i" d="M475.3,172.444c-3.031-1.646-3.94-4.828-3.94-7.516,0-7.444-4.617-9.33-8.278-9.33s-8.276,1.886-8.276,9.33c0,3.815-1.811,8.636-8.955,8.636s-8.957-4.821-8.957-8.636c0-7.444-4.627-9.33-8.287-9.33s-8.288,1.886-8.288,9.33c0,3.815-1.81,8.636-8.957,8.636s-8.956-4.821-8.956-8.636c0-7.444-4.614-9.33-8.277-9.33s-8.275,1.886-8.275,9.33c0,3.815-1.811,8.636-8.958,8.636s-8.956-4.821-8.956-8.636c0-7.444-4.62-9.33-8.281-9.33v8.091c3.661,0,8.281,1.888,8.281,9.331,0,3.811,1.811,8.635,8.956,8.635s8.958-4.824,8.958-8.635c0-7.443,4.617-9.331,8.275-9.331s8.277,1.888,8.277,9.331c0,3.811,1.812,8.635,8.956,8.635s8.957-4.824,8.957-8.635c0-7.443,4.627-9.331,8.288-9.331s8.287,1.888,8.287,9.331c0,3.811,1.81,8.635,8.957,8.635s8.955-4.824,8.955-8.635c0-7.443,4.617-9.331,8.276-9.331s8.278,1.888,8.278,9.331c0,2.684.909,5.865,3.94,7.516Z"/><path class="c" d="M475.3,259.723c-3.031-1.646-3.94-4.828-3.94-7.515,0-7.448-4.617-9.335-8.278-9.335s-8.276,1.887-8.276,9.335c0,3.814-1.811,8.634-8.955,8.634s-8.957-4.82-8.957-8.634c0-7.448-4.627-9.335-8.287-9.335s-8.288,1.887-8.288,9.335c0,3.814-1.81,8.634-8.957,8.634s-8.956-4.82-8.956-8.634c0-7.448-4.614-9.335-8.277-9.335s-8.275,1.887-8.275,9.335c0,3.814-1.811,8.634-8.958,8.634s-8.956-4.82-8.956-8.634c0-7.448-4.62-9.335-8.281-9.335v16.963c3.661,0,8.281,1.889,8.281,9.336,0,3.809,1.811,8.635,8.956,8.635s8.958-4.826,8.958-8.635c0-7.447,4.617-9.336,8.275-9.336s8.277,1.889,8.277,9.336c0,3.809,1.812,8.635,8.956,8.635s8.957-4.826,8.957-8.635c0-7.447,4.627-9.336,8.288-9.336s8.287,1.889,8.287,9.336c0,3.809,1.81,8.635,8.957,8.635s8.955-4.826,8.955-8.635c0-7.447,4.617-9.336,8.276-9.336s8.278,1.889,8.278,9.336c0,2.686.909,5.87,3.94,7.516Z"/><path class="d" d="M475.3,275.3c-3.031-1.648-3.94-4.832-3.94-7.515,0-7.447-4.617-9.332-8.278-9.332s-8.276,1.885-8.276,9.332c0,3.808-1.811,8.637-8.955,8.637s-8.957-4.829-8.957-8.637c0-7.447-4.627-9.332-8.287-9.332s-8.288,1.885-8.288,9.332c0,3.808-1.81,8.637-8.957,8.637s-8.956-4.829-8.956-8.637c0-7.447-4.614-9.332-8.277-9.332s-8.275,1.885-8.275,9.332c0,3.808-1.811,8.637-8.958,8.637s-8.956-4.829-8.956-8.637c0-7.447-4.62-9.332-8.281-9.332v8.092c3.661,0,8.281,1.884,8.281,9.332,0,3.808,1.811,8.634,8.956,8.634s8.958-4.826,8.958-8.634c0-7.448,4.617-9.332,8.275-9.332s8.277,1.884,8.277,9.332c0,3.808,1.812,8.634,8.956,8.634s8.957-4.826,8.957-8.634c0-7.448,4.627-9.332,8.288-9.332s8.287,1.884,8.287,9.332c0,3.808,1.81,8.634,8.957,8.634s8.955-4.826,8.955-8.634c0-7.448,4.617-9.332,8.276-9.332s8.278,1.884,8.278,9.332c0,2.683.909,5.869,3.94,7.515Z"/><path class="c" d="M475.3,262.028c-3.031-1.649-3.94-4.83-3.94-7.518,0-7.445-4.617-9.334-8.278-9.334s-8.276,1.889-8.276,9.334c0,3.815-1.811,8.635-8.955,8.635s-8.957-4.82-8.957-8.635c0-7.445-4.627-9.334-8.287-9.334s-8.288,1.889-8.288,9.334c0,3.815-1.81,8.635-8.957,8.635s-8.956-4.82-8.956-8.635c0-7.445-4.614-9.334-8.277-9.334s-8.275,1.889-8.275,9.334c0,3.815-1.811,8.635-8.958,8.635s-8.956-4.82-8.956-8.635c0-7.445-4.62-9.334-8.281-9.334v16.963c3.661,0,8.281,1.889,8.281,9.336,0,3.811,1.811,8.635,8.956,8.635s8.958-4.824,8.958-8.635c0-7.447,4.617-9.336,8.275-9.336s8.277,1.889,8.277,9.336c0,3.811,1.812,8.635,8.956,8.635s8.957-4.824,8.957-8.635c0-7.447,4.627-9.336,8.288-9.336s8.287,1.889,8.287,9.336c0,3.811,1.81,8.635,8.957,8.635s8.955-4.824,8.955-8.635c0-7.447,4.617-9.336,8.276-9.336s8.278,1.889,8.278,9.336c0,2.684.909,5.867,3.94,7.516Z"/><path class="j" d="M475.3,274.52c-3.031-1.648-3.94-4.834-3.94-7.518,0-7.445-4.617-9.33-8.278-9.33S454.8,259.557,454.8,267c0,3.813-1.811,8.637-8.955,8.637s-8.957-4.824-8.957-8.637c0-7.445-4.627-9.33-8.287-9.33s-8.288,1.885-8.288,9.33c0,3.813-1.81,8.637-8.957,8.637S402.4,270.815,402.4,267c0-7.445-4.614-9.33-8.277-9.33s-8.275,1.885-8.275,9.33c0,3.813-1.811,8.637-8.958,8.637s-8.956-4.824-8.956-8.637c0-7.445-4.62-9.33-8.281-9.33v8.092c3.661,0,8.281,1.885,8.281,9.33,0,3.811,1.811,8.637,8.956,8.637s8.958-4.826,8.958-8.637c0-7.445,4.617-9.33,8.275-9.33s8.277,1.885,8.277,9.33c0,3.811,1.812,8.637,8.956,8.637s8.957-4.826,8.957-8.637c0-7.445,4.627-9.33,8.288-9.33s8.287,1.885,8.287,9.33c0,3.811,1.81,8.637,8.957,8.637s8.955-4.826,8.955-8.637c0-7.445,4.617-9.33,8.276-9.33s8.278,1.885,8.278,9.33c0,2.686.909,5.871,3.94,7.516Z"/><path class="c" d="M475.3,280.487c-3.031-1.647-3.94-4.828-3.94-7.516,0-7.445-4.617-9.334-8.278-9.334s-8.276,1.889-8.276,9.334c0,3.815-1.811,8.635-8.955,8.635s-8.957-4.82-8.957-8.635c0-7.445-4.627-9.334-8.287-9.334s-8.288,1.889-8.288,9.334c0,3.815-1.81,8.635-8.957,8.635s-8.956-4.82-8.956-8.635c0-7.445-4.614-9.334-8.277-9.334s-8.275,1.889-8.275,9.334c0,3.815-1.811,8.635-8.958,8.635s-8.956-4.82-8.956-8.635c0-7.445-4.62-9.334-8.281-9.334V280.6c3.661,0,8.281,1.889,8.281,9.334,0,3.811,1.811,8.637,8.956,8.637s8.958-4.826,8.958-8.637c0-7.445,4.617-9.334,8.275-9.334s8.277,1.889,8.277,9.334c0,3.811,1.812,8.637,8.956,8.637s8.957-4.826,8.957-8.637c0-7.445,4.627-9.334,8.288-9.334s8.287,1.889,8.287,9.334c0,3.811,1.81,8.637,8.957,8.637s8.955-4.826,8.955-8.637c0-7.445,4.617-9.334,8.276-9.334s8.278,1.889,8.278,9.334c0,2.686.909,5.869,3.94,7.516Z"/><path class="d" d="M475.3,296.059c-3.031-1.646-3.94-4.832-3.94-7.516,0-7.445-4.617-9.332-8.278-9.332s-8.276,1.887-8.276,9.332c0,3.811-1.811,8.637-8.955,8.637s-8.957-4.826-8.957-8.637c0-7.445-4.627-9.332-8.287-9.332s-8.288,1.887-8.288,9.332c0,3.811-1.81,8.637-8.957,8.637s-8.956-4.826-8.956-8.637c0-7.445-4.614-9.332-8.277-9.332s-8.275,1.887-8.275,9.332c0,3.811-1.811,8.637-8.958,8.637s-8.956-4.826-8.956-8.637c0-7.445-4.62-9.332-8.281-9.332V287.3c3.661,0,8.281,1.883,8.281,9.33,0,3.81,1.811,8.635,8.956,8.635s8.958-4.825,8.958-8.635c0-7.447,4.617-9.33,8.275-9.33s8.277,1.883,8.277,9.33c0,3.81,1.812,8.635,8.956,8.635s8.957-4.825,8.957-8.635c0-7.447,4.627-9.33,8.288-9.33s8.287,1.883,8.287,9.33c0,3.81,1.81,8.635,8.957,8.635s8.955-4.825,8.955-8.635c0-7.447,4.617-9.33,8.276-9.33s8.278,1.883,8.278,9.33c0,2.685.909,5.869,3.94,7.515Z"/><path class="c" d="M475.3,282.79c-3.031-1.647-3.94-4.829-3.94-7.516,0-7.445-4.617-9.334-8.278-9.334s-8.276,1.889-8.276,9.334c0,3.814-1.811,8.635-8.955,8.635s-8.957-4.821-8.957-8.635c0-7.445-4.627-9.334-8.287-9.334s-8.288,1.889-8.288,9.334c0,3.814-1.81,8.635-8.957,8.635s-8.956-4.821-8.956-8.635c0-7.445-4.614-9.334-8.277-9.334s-8.275,1.889-8.275,9.334c0,3.814-1.811,8.635-8.958,8.635s-8.956-4.821-8.956-8.635c0-7.445-4.62-9.334-8.281-9.334V282.9c3.661,0,8.281,1.889,8.281,9.336,0,3.81,1.811,8.634,8.956,8.634s8.958-4.824,8.958-8.634c0-7.447,4.617-9.336,8.275-9.336s8.277,1.889,8.277,9.336c0,3.81,1.812,8.634,8.956,8.634s8.957-4.824,8.957-8.634c0-7.447,4.627-9.336,8.288-9.336s8.287,1.889,8.287,9.336c0,3.81,1.81,8.634,8.957,8.634s8.955-4.824,8.955-8.634c0-7.447,4.617-9.336,8.276-9.336s8.278,1.889,8.278,9.336c0,2.683.909,5.869,3.94,7.515Z"/><path class="d" d="M475.3,295.284c-3.031-1.649-3.94-4.832-3.94-7.518,0-7.443-4.617-9.33-8.278-9.33s-8.276,1.887-8.276,9.33c0,3.811-1.811,8.639-8.955,8.639s-8.957-4.828-8.957-8.639c0-7.443-4.627-9.33-8.287-9.33s-8.288,1.887-8.288,9.33c0,3.811-1.81,8.639-8.957,8.639s-8.956-4.828-8.956-8.639c0-7.443-4.614-9.33-8.277-9.33s-8.275,1.887-8.275,9.33c0,3.811-1.811,8.639-8.958,8.639s-8.956-4.828-8.956-8.639c0-7.443-4.62-9.33-8.281-9.33v8.092c3.661,0,8.281,1.883,8.281,9.33,0,3.81,1.811,8.636,8.956,8.636s8.958-4.826,8.958-8.636c0-7.447,4.617-9.33,8.275-9.33s8.277,1.883,8.277,9.33c0,3.81,1.812,8.636,8.956,8.636s8.957-4.826,8.957-8.636c0-7.447,4.627-9.33,8.288-9.33s8.287,1.883,8.287,9.33c0,3.81,1.81,8.636,8.957,8.636s8.955-4.826,8.955-8.636c0-7.447,4.617-9.33,8.276-9.33s8.278,1.883,8.278,9.33c0,2.685.909,5.87,3.94,7.515Z"/><path class="c" d="M475.3,246.6c-3.031-1.648-3.94-4.828-3.94-7.515,0-7.447-4.617-9.336-8.278-9.336s-8.276,1.889-8.276,9.336c0,3.812-1.811,8.634-8.955,8.634s-8.957-4.822-8.957-8.634c0-7.447-4.627-9.336-8.287-9.336s-8.288,1.889-8.288,9.336c0,3.812-1.81,8.634-8.957,8.634s-8.956-4.822-8.956-8.634c0-7.447-4.614-9.336-8.277-9.336s-8.275,1.889-8.275,9.336c0,3.812-1.811,8.634-8.958,8.634s-8.956-4.822-8.956-8.634c0-7.447-4.62-9.336-8.281-9.336v16.968c3.661,0,8.281,1.885,8.281,9.33,0,3.813,1.811,8.637,8.956,8.637s8.958-4.824,8.958-8.637c0-7.445,4.617-9.33,8.275-9.33s8.277,1.885,8.277,9.33c0,3.813,1.812,8.637,8.956,8.637s8.957-4.824,8.957-8.637c0-7.445,4.627-9.33,8.288-9.33s8.287,1.885,8.287,9.33c0,3.813,1.81,8.637,8.957,8.637s8.955-4.824,8.955-8.637c0-7.445,4.617-9.33,8.276-9.33s8.278,1.885,8.278,9.33c0,2.688.909,5.868,3.94,7.518Z"/><path class="k" d="M475.3,259.114c-3.031-1.649-3.94-4.83-3.94-7.518,0-7.445-4.617-9.332-8.278-9.332s-8.276,1.887-8.276,9.332c0,3.815-1.811,8.637-8.955,8.637s-8.957-4.822-8.957-8.637c0-7.445-4.627-9.332-8.287-9.332s-8.288,1.887-8.288,9.332c0,3.815-1.81,8.637-8.957,8.637s-8.956-4.822-8.956-8.637c0-7.445-4.614-9.332-8.277-9.332s-8.275,1.887-8.275,9.332c0,3.815-1.811,8.637-8.958,8.637s-8.956-4.822-8.956-8.637c0-7.445-4.62-9.332-8.281-9.332v8.094c3.661,0,8.281,1.885,8.281,9.33,0,3.813,1.811,8.635,8.956,8.635s8.958-4.822,8.958-8.635c0-7.445,4.617-9.33,8.275-9.33s8.277,1.885,8.277,9.33c0,3.813,1.812,8.635,8.956,8.635s8.957-4.822,8.957-8.635c0-7.445,4.627-9.33,8.288-9.33s8.287,1.885,8.287,9.33c0,3.813,1.81,8.635,8.957,8.635s8.955-4.822,8.955-8.635c0-7.445,4.617-9.33,8.276-9.33s8.278,1.885,8.278,9.33c0,2.688.909,5.869,3.94,7.518Z"/><path class="l" d="M475.3,242.969c-3.031-1.646-3.94-4.828-3.94-7.515,0-7.445-4.617-9.329-8.278-9.329s-8.276,1.884-8.276,9.329c0,3.814-1.811,8.636-8.955,8.636s-8.957-4.822-8.957-8.636c0-7.445-4.627-9.329-8.287-9.329s-8.288,1.884-8.288,9.329c0,3.814-1.81,8.636-8.957,8.636s-8.956-4.822-8.956-8.636c0-7.445-4.614-9.329-8.277-9.329s-8.275,1.884-8.275,9.329c0,3.814-1.811,8.636-8.958,8.636s-8.956-4.822-8.956-8.636c0-7.445-4.62-9.329-8.281-9.329v8.09c3.661,0,8.281,1.889,8.281,9.33,0,3.811,1.811,8.635,8.956,8.635s8.958-4.824,8.958-8.635c0-7.441,4.617-9.33,8.275-9.33s8.277,1.889,8.277,9.33c0,3.811,1.812,8.635,8.956,8.635s8.957-4.824,8.957-8.635c0-7.441,4.627-9.33,8.288-9.33s8.287,1.889,8.287,9.33c0,3.811,1.81,8.635,8.957,8.635s8.955-4.824,8.955-8.635c0-7.441,4.617-9.33,8.276-9.33s8.278,1.889,8.278,9.33c0,2.686.909,5.866,3.94,7.516Z"/><path class="a" d="M434.906,246.854H432.6v13.018h2.75c5,0,11.527.408,11.527-6.481C446.877,246.4,439.793,246.854,434.906,246.854Z"/></g><g class="m"><path class="n" d="M550.309,278.612,541,270.359l-9.133,8.253V257.26h18.441Z"/><path class="o" d="M495.57,278.612l-9.307-8.253-9.133,8.253V257.26H495.57Z"/><path class="n" d="M513.973,278.612l-9.307-8.253-9.133,8.253V257.26h18.44Z"/><path class="p" d="M495.57,267.39l-9.307-8.252-9.133,8.252V246.04H495.57Z"/><path class="p" d="M513.973,267.39l-9.307-8.252-9.133,8.252V246.04h18.44Z"/><path class="f" d="M495.57,256.776l-9.307-8.253-9.133,8.253V235.423H495.57Z"/><path class="q" d="M513.973,256.776l-9.307-8.253-9.133,8.253V235.423h18.44Z"/><path class="o" d="M532.207,278.612l-9.308-8.253-9.133,8.253V257.26h18.44Z"/><path class="p" d="M532.178,267.39l-9.307-8.252-9.133,8.252V246.04h18.439Z"/><path class="p" d="M551.232,267.39l-9.644-8.252-9.465,8.252V246.04h19.109Z"/><path class="r" d="M532.264,256.776l-9.308-8.253-9.133,8.253V235.423h18.44Z"/><path class="s" d="M551.725,256.776l-9.895-8.253-9.707,8.253V235.423h19.6Z"/><path class="p" d="M495.57,243.828l-9.307-8.253-9.133,8.253V222.48H495.57Z"/><path class="p" d="M513.916,243.828l-9.307-8.253-9.133,8.253V222.48h18.439Z"/><path class="t" d="M495.57,232.3l-9.307-8.251-9.133,8.251V210.958H495.57Z"/><path class="i" d="M513.973,232.3l-9.307-8.251-9.133,8.251V210.958h18.44Z"/><path class="p" d="M495.57,221.691l-9.307-8.25-9.133,8.25V200.343H495.57Z"/><path class="p" d="M513.973,221.691l-9.307-8.25-9.133,8.25V200.343h18.44Z"/><path class="r" d="M495.57,210.472l-9.307-8.25-9.133,8.25V189.124H495.57Z"/><path class="u" d="M513.973,210.472l-9.307-8.25-9.133,8.25V189.124h18.44Z"/><path class="o" d="M495.57,199.858l-9.307-8.251-9.133,8.251V178.507H495.57Z"/><path class="c" d="M513.973,199.858l-9.307-8.251-9.133,8.251V178.507h18.44Z"/><path class="p" d="M532.207,243.828l-9.308-8.253-9.133,8.253V222.48h18.44Z"/><path class="p" d="M550.535,243.828l-9.309-8.253-9.133,8.253V222.48h18.441Z"/><path class="v" d="M532.234,232.3l-9.307-8.251-9.133,8.251V210.958h18.44Z"/><path class="i" d="M552.262,232.3l-10.193-8.251-10,8.251V210.958h20.2Z"/><path class="p" d="M532.018,221.691l-9.225-8.25-9.054,8.25V200.343h18.278Z"/><path class="p" d="M550.449,221.691l-9.309-8.25-9.131,8.25V200.343h18.439Z"/><path class="w" d="M532.094,210.472l-9.244-8.25-9.07,8.25V189.124h18.315Z"/><path class="r" d="M550.393,210.472l-9.309-8.25-9.131,8.25V189.124h18.44Z"/><path class="p" d="M532.207,199.858l-9.308-8.251-9.133,8.251V178.507h18.44Z"/><path class="s" d="M550.309,199.858,541,191.607l-9.133,8.251V178.507h18.441Z"/></g><path class="e" d="M506,298.021c.072-.181.148-.354.209-.538a11.928,11.928,0,0,0,.57-3.786,12.362,12.362,0,0,0-.57-3.854,8.227,8.227,0,0,0-1.693-2.992,7.521,7.521,0,0,0-2.784-1.915,10.211,10.211,0,0,0-3.873-.674,10.1,10.1,0,0,0-3.836.674,7.514,7.514,0,0,0-2.782,1.915,8.215,8.215,0,0,0-1.694,2.992,12.333,12.333,0,0,0-.57,3.854,11.9,11.9,0,0,0,.57,3.786,8.051,8.051,0,0,0,1.694,2.937,7.341,7.341,0,0,0,2.782,1.883,10.349,10.349,0,0,0,3.836.658,10.459,10.459,0,0,0,3.873-.658,7.73,7.73,0,0,0,1.72-.944l2.069,1.967a11.71,11.71,0,0,0,1.586-1.359,16.122,16.122,0,0,0,1.38-1.584Zm-8.141.205a2.458,2.458,0,0,1-2.246-1.176,6.4,6.4,0,0,1-.724-3.353,6.48,6.48,0,0,1,.724-3.387,2.459,2.459,0,0,1,2.246-1.175,2.5,2.5,0,0,1,2.266,1.175,6.379,6.379,0,0,1,.743,3.387,10.507,10.507,0,0,1-.067,1.167c-.194.174-.385.343-.57.534a15.161,15.161,0,0,0-1.383,1.585l.716.681A2.606,2.606,0,0,1,497.855,298.226Z"/><path class="e" d="M362.749,296.682a4.989,4.989,0,0,1,.728-2.8,5.455,5.455,0,0,1,1.865-1.763,7.879,7.879,0,0,1,2.522-.914,14.637,14.637,0,0,1,2.693-.259h2.108a1.858,1.858,0,0,0-.347-1.038,2.071,2.071,0,0,0-.794-.64,3.9,3.9,0,0,0-1.068-.31,8.291,8.291,0,0,0-1.211-.087,11.8,11.8,0,0,0-1.934.191,14.108,14.108,0,0,0-2.281.606q-.309-.588-.535-1.073a5.136,5.136,0,0,1-.346-.983,7.342,7.342,0,0,1-.172-1.036c-.036-.358-.053-.765-.053-1.227a22.285,22.285,0,0,1,3.3-.831,18.178,18.178,0,0,1,2.954-.275,11.388,11.388,0,0,1,3.245.433,6.421,6.421,0,0,1,2.471,1.33,5.874,5.874,0,0,1,1.571,2.295,9.052,9.052,0,0,1,.553,3.334v10.12q-1.312.387-3.177.76a19.659,19.659,0,0,1-3.937.382,15.5,15.5,0,0,1-3.3-.328,7.294,7.294,0,0,1-2.573-1.054,5.017,5.017,0,0,1-1.675-1.916A6.411,6.411,0,0,1,362.749,296.682Zm8.156,1.933a8.242,8.242,0,0,0,.9-.067,7.452,7.452,0,0,0,.864-.137v-3.8H370.7a3.776,3.776,0,0,0-2.038.518,1.625,1.625,0,0,0-.83,1.451,1.733,1.733,0,0,0,.311,1.088,2.02,2.02,0,0,0,.777.6,3.48,3.48,0,0,0,1,.277A7.73,7.73,0,0,0,370.9,298.615Z"/><path class="e" d="M388.936,297.65h6.527a8.158,8.158,0,0,1,.226,1.279c.035.391.052.768.052,1.139s-.017.754-.052,1.159a8.056,8.056,0,0,1-.226,1.291H383.1l.034-17.856a11.367,11.367,0,0,1,1.5-.244q.742-.068,1.434-.068c.437,0,.908.023,1.416.068a10.233,10.233,0,0,1,1.484.244Z"/><path class="e" d="M406.76,284.316a17.509,17.509,0,0,1,2.8.225,7.3,7.3,0,0,1,2.555.916,12.139,12.139,0,0,1,2.108-.8,9.824,9.824,0,0,1,2.729-.346,15.4,15.4,0,0,1,2.78.259,6.309,6.309,0,0,1,2.591,1.088,6.088,6.088,0,0,1,1.9,2.383,9.627,9.627,0,0,1,.742,4.111v10.327a13.473,13.473,0,0,1-1.623.225c-.484.037-.909.055-1.279.055q-.585,0-1.312-.055a13.446,13.446,0,0,1-1.623-.225v-9.705a4.31,4.31,0,0,0-.623-2.626,2.432,2.432,0,0,0-2.037-.794,4.494,4.494,0,0,0-.95.1,4.733,4.733,0,0,0-.64.175,11.085,11.085,0,0,1,.311,2.76v10.087a13.446,13.446,0,0,1-1.623.225q-.726.055-1.278.055-.589,0-1.313-.055a13.529,13.529,0,0,1-1.625-.225v-9.705a4.492,4.492,0,0,0-.587-2.626,2.327,2.327,0,0,0-2-.794,5.392,5.392,0,0,0-.811.069,1.78,1.78,0,0,0-.537.138v12.918a13.514,13.514,0,0,1-1.622.225q-.726.055-1.279.055c-.392,0-.828-.018-1.314-.055a13.487,13.487,0,0,1-1.624-.225v-16.96q1.211-.414,2.9-.811A19.075,19.075,0,0,1,406.76,284.316Z"/><path class="e" d="M429.144,296.682a5.021,5.021,0,0,1,.725-2.8,5.5,5.5,0,0,1,1.867-1.763,7.888,7.888,0,0,1,2.522-.914,14.65,14.65,0,0,1,2.7-.259h2.106a1.85,1.85,0,0,0-.345-1.038,2.089,2.089,0,0,0-.795-.64,3.9,3.9,0,0,0-1.069-.31,8.281,8.281,0,0,0-1.211-.087,11.754,11.754,0,0,0-1.933.191,14.153,14.153,0,0,0-2.28.606c-.209-.392-.386-.75-.536-1.073a5.276,5.276,0,0,1-.347-.983,7.644,7.644,0,0,1-.172-1.036c-.035-.358-.052-.765-.052-1.227a22.243,22.243,0,0,1,3.3-.831,18.167,18.167,0,0,1,2.953-.275,11.393,11.393,0,0,1,3.247.433,6.447,6.447,0,0,1,2.472,1.33,5.9,5.9,0,0,1,1.57,2.295,9.093,9.093,0,0,1,.553,3.334v10.12q-1.312.387-3.179.76a19.633,19.633,0,0,1-3.938.382,15.48,15.48,0,0,1-3.3-.328,7.281,7.281,0,0,1-2.572-1.054,5.006,5.006,0,0,1-1.677-1.916A6.412,6.412,0,0,1,429.144,296.682Zm8.153,1.933a8.2,8.2,0,0,0,.9-.067,7.3,7.3,0,0,0,.864-.137v-3.8H437.09a3.781,3.781,0,0,0-2.038.518,1.623,1.623,0,0,0-.828,1.451,1.721,1.721,0,0,0,.31,1.088,2.01,2.01,0,0,0,.776.6,3.506,3.506,0,0,0,1,.277A7.748,7.748,0,0,0,437.3,298.615Z"/><path class="e" d="M456.746,284.316a17.814,17.814,0,0,1,3.039.259,6.919,6.919,0,0,1,2.748,1.088,6.073,6.073,0,0,1,2,2.383,9.226,9.226,0,0,1,.777,4.111v10.327a13.46,13.46,0,0,1-1.624.225q-.725.055-1.276.055-.589,0-1.313-.055a13.353,13.353,0,0,1-1.624-.225v-9.705a3.989,3.989,0,0,0-.692-2.626,2.645,2.645,0,0,0-2.107-.794,5.392,5.392,0,0,0-.811.069,1.769,1.769,0,0,0-.536.138v12.918a13.542,13.542,0,0,1-1.624.225c-.482.037-.909.055-1.276.055-.393,0-.83-.018-1.314-.055a13.53,13.53,0,0,1-1.625-.225v-16.96a30.21,30.21,0,0,1,2.939-.811A19.539,19.539,0,0,1,456.746,284.316Z"/><path class="e" d="M469.492,296.682a5,5,0,0,1,.726-2.8,5.478,5.478,0,0,1,1.864-1.763,7.888,7.888,0,0,1,2.522-.914,14.683,14.683,0,0,1,2.7-.259h2.108a1.865,1.865,0,0,0-.345-1.038,2.1,2.1,0,0,0-.794-.64,3.929,3.929,0,0,0-1.073-.31,8.233,8.233,0,0,0-1.209-.087,11.794,11.794,0,0,0-1.933.191,14.2,14.2,0,0,0-2.282.606q-.309-.588-.535-1.073a5.344,5.344,0,0,1-.345-.983,7.644,7.644,0,0,1-.173-1.036c-.033-.358-.05-.765-.05-1.227a22.186,22.186,0,0,1,3.3-.831,18.2,18.2,0,0,1,2.952-.275,11.419,11.419,0,0,1,3.25.433,6.427,6.427,0,0,1,2.469,1.33,5.872,5.872,0,0,1,1.57,2.295,9.03,9.03,0,0,1,.555,3.334v10.12q-1.312.387-3.18.76a19.64,19.64,0,0,1-3.938.382,15.463,15.463,0,0,1-3.3-.328,7.32,7.32,0,0,1-2.575-1.054A5,5,0,0,1,470.1,299.6,6.386,6.386,0,0,1,469.492,296.682Zm8.152,1.933a8.2,8.2,0,0,0,.9-.067,7.415,7.415,0,0,0,.864-.137v-3.8h-1.97a3.772,3.772,0,0,0-2.037.518,1.621,1.621,0,0,0-.83,1.451,1.739,1.739,0,0,0,.311,1.088,2.02,2.02,0,0,0,.777.6,3.5,3.5,0,0,0,1,.277A7.746,7.746,0,0,0,477.644,298.615Z"/><path class="e" d="M526.8,301.69c-.394.14-.86.277-1.4.415s-1.118.27-1.727.4-1.239.226-1.883.295a18.7,18.7,0,0,1-1.9.1,20.387,20.387,0,0,1-3.385-.275,7.014,7.014,0,0,1-2.85-1.123,5.778,5.778,0,0,1-1.953-2.453,10.63,10.63,0,0,1-.725-4.3V284.662a11.392,11.392,0,0,1,1.5-.244q.742-.068,1.434-.068.657,0,1.417.068a10.269,10.269,0,0,1,1.485.244v9.6a4.286,4.286,0,0,0,.692,2.828,2.7,2.7,0,0,0,2.106.762,7.986,7.986,0,0,0,.9-.034,3.325,3.325,0,0,0,.449-.069V284.662a11.338,11.338,0,0,1,1.5-.244c.5-.045.972-.068,1.433-.068.44,0,.911.023,1.418.068a10.341,10.341,0,0,1,1.487.244Z"/><path class="e" d="M537.061,295.44a3.182,3.182,0,0,0,1.331,2,4.717,4.717,0,0,0,2.5.588,11.728,11.728,0,0,0,2.245-.244,13.294,13.294,0,0,0,2.455-.727,11.139,11.139,0,0,1,.845,2.145,10.078,10.078,0,0,1,.4,2.59,17.944,17.944,0,0,1-6.286,1.139,11.834,11.834,0,0,1-4.266-.688,7.36,7.36,0,0,1-4.561-4.839,12.228,12.228,0,0,1-.536-3.7,11.985,11.985,0,0,1,.555-3.7,8.42,8.42,0,0,1,1.658-3,7.814,7.814,0,0,1,2.762-2.021,9.427,9.427,0,0,1,3.869-.744,8.092,8.092,0,0,1,3.265.623,7.094,7.094,0,0,1,2.435,1.71,7.394,7.394,0,0,1,1.538,2.625,10.084,10.084,0,0,1,.536,3.333,14.775,14.775,0,0,1-.087,1.676c-.058.495-.109.9-.157,1.227Zm2.763-6.808a2.8,2.8,0,0,0-1.9.692,3.1,3.1,0,0,0-.933,2.14h5.528a3.36,3.36,0,0,0-.743-2.017A2.384,2.384,0,0,0,539.824,288.632Z"/><path class="x" d="M363.661,307.652h5.415l2,7.6h.134l.019-.115q.192-1.23.346-1.806l1.632-5.684h5.358l2.38,14.479h-5.088l-.71-7.931h-.1l-.019.077a10.3,10.3,0,0,1-.326,1.364l-2.093,6.49h-3.072l-1.882-6.125a10.091,10.091,0,0,1-.327-1.806h-.173v.1q-.076,1.15-.134,1.651l-.615,6.183h-5.088Z"/><path class="x" d="M382.747,307.652h5.261v14.479h-5.261Z"/><path class="x" d="M405.751,313.605v.134a18.566,18.566,0,0,1-.326,3.533A5.411,5.411,0,0,1,404,319.788a7.661,7.661,0,0,1-2.775,1.9,8.818,8.818,0,0,1-3.37.672,9.545,9.545,0,0,1-3.12-.5,7.509,7.509,0,0,1-2.544-1.46,6.688,6.688,0,0,1-1.709-2.333,7.456,7.456,0,0,1-.615-3.082,7.889,7.889,0,0,1,.605-3.138,6.783,6.783,0,0,1,1.7-2.4,7.519,7.519,0,0,1,2.553-1.508,9.448,9.448,0,0,1,5.2-.278,9.909,9.909,0,0,1,2.074.711,7.462,7.462,0,0,1,1.8,1.181,4.8,4.8,0,0,1,1.2,1.593l-4.915,1.8a1.985,1.985,0,0,0-.816-.825,2.429,2.429,0,0,0-1.181-.288,2.581,2.581,0,0,0-2.132.988,3.691,3.691,0,0,0-.787,2.372,3.348,3.348,0,0,0,.739,2.179,2.406,2.406,0,0,0,1.968.912,2.856,2.856,0,0,0,1.326-.326,1.5,1.5,0,0,0,.806-.941h-2.381v-3.418Z"/><path class="x" d="M420.882,307.652v8.565a5.763,5.763,0,0,1-1.776,4.608,8.664,8.664,0,0,1-9.85,0,5.76,5.76,0,0,1-1.777-4.608v-8.565h5.262v8.066a8.2,8.2,0,0,0,.038.883,2.013,2.013,0,0,0,.173.633.983.983,0,0,0,.432.452,2.03,2.03,0,0,0,1.594,0,1.034,1.034,0,0,0,.441-.452,1.7,1.7,0,0,0,.173-.633q.028-.347.029-.883v-8.066Z"/><path class="x" d="M423.129,307.652h9.735v3.956h-4.435v1.382h4.051v3.764h-4.051v1.421h4.589v3.956h-9.889Z"/><path class="x" d="M435.187,307.652h5.262v9.832h4.416v4.647h-9.678Z"/><path class="x" d="M454.255,307.652h6.125a12.438,12.438,0,0,1,2.151.173,5.823,5.823,0,0,1,1.776.606,3.22,3.22,0,0,1,1.267,1.238,3.9,3.9,0,0,1,.471,2,3.4,3.4,0,0,1-.5,1.814,2.473,2.473,0,0,1-1.4,1.1v.115a3.935,3.935,0,0,1,1.9,1.3,3.412,3.412,0,0,1,.672,2.141,3.581,3.581,0,0,1-.451,1.843,3.651,3.651,0,0,1-1.21,1.249,5.348,5.348,0,0,1-1.7.691,8.816,8.816,0,0,1-1.939.211h-7.162Zm5.356,5.569a2.926,2.926,0,0,0,1.192-.2.859.859,0,0,0,.441-.874.789.789,0,0,0-.422-.816,3.559,3.559,0,0,0-1.326-.183h-.364v2.074Zm-.479,5.454h.6c.308,0,.57-.01.788-.029a2.423,2.423,0,0,0,.633-.144,1.091,1.091,0,0,0,.5-.365,1.266,1.266,0,0,0,0-1.344,1.03,1.03,0,0,0-.518-.355,2.945,2.945,0,0,0-.672-.135c-.23-.019-.5-.029-.807-.029h-.518Z"/><path class="x" d="M481.752,307.652v8.565a5.766,5.766,0,0,1-1.776,4.608,8.665,8.665,0,0,1-9.851,0,5.759,5.759,0,0,1-1.776-4.608v-8.565h5.26v8.066a8.419,8.419,0,0,0,.039.883,2.012,2.012,0,0,0,.173.633.975.975,0,0,0,.433.452,2.03,2.03,0,0,0,1.594,0,1.045,1.045,0,0,0,.441-.452,1.717,1.717,0,0,0,.172-.633q.029-.347.029-.883v-8.066Z"/><path class="x" d="M484.074,307.652h6.357a9.426,9.426,0,0,1,2.352.279,5.5,5.5,0,0,1,1.91.883,4.175,4.175,0,0,1,1.3,1.575,5.213,5.213,0,0,1,.47,2.295,3.912,3.912,0,0,1-.644,2.428,4.361,4.361,0,0,1-2.16,1.335v.116l.077.057a3.972,3.972,0,0,1,.807.807l3.149,4.7h-6.068l-2.3-4.647h-.1v4.647h-5.147Zm5.147,6.414h.365a2.781,2.781,0,0,0,1.268-.24.99.99,0,0,0,.46-.97,1.05,1.05,0,0,0-.441-1,2.574,2.574,0,0,0-1.249-.249h-.4Z"/><path class="x" d="M498.533,307.652h5.051l4.724,8.027h.153l-.038-.192q-.192-1.134-.3-1.929a12,12,0,0,1-.105-1.566v-4.34h5.031v14.479H508.02l-4.628-7.6h-.154a18.341,18.341,0,0,1,.326,2.9v4.7h-5.031Z"/><path class="x" d="M515.393,307.652h5.261v14.479h-5.261Z"/><path class="x" d="M523.016,307.652h9.736v3.956h-4.436v1.382h4.051v3.764h-4.051v1.421h4.589v3.956h-9.889Z"/><path class="x" d="M535.074,307.652h6.357a9.427,9.427,0,0,1,2.352.279,5.5,5.5,0,0,1,1.91.883,4.174,4.174,0,0,1,1.3,1.575,5.213,5.213,0,0,1,.47,2.295,3.912,3.912,0,0,1-.644,2.428,4.36,4.36,0,0,1-2.16,1.335v.116l.077.057a3.971,3.971,0,0,1,.807.807l3.149,4.7h-6.068l-2.3-4.647h-.095v4.647h-5.147Zm5.147,6.414h.365a2.781,2.781,0,0,0,1.268-.24.99.99,0,0,0,.46-.97,1.05,1.05,0,0,0-.441-1,2.574,2.574,0,0,0-1.249-.249h-.4Z"/></g></svg>