<svg xmlns="http://www.w3.org/2000/svg" xmlns:xlink="http://www.w3.org/1999/xlink" width="189.48" height="151.23" viewBox="0 0 189.48 151.23"><defs><style>.a{fill:none;}.b{clip-path:url(#a);}.c{fill:#008ed5;}.d{fill:#004f9f;}.e{fill:#1d71b8;}.f{fill:#e30613;}.g{fill:#008d36;}.h{fill:#f9b233;}.i{fill:#e71d73;}.j{fill:#fcea10;}.k{fill:#3aaa35;}.l{fill:#2d2e83;}.m{fill:#be1622;}.n{fill:#e6007e;}.o{fill:#00a19a;}.p{clip-path:url(#b);}.q{fill:#e51f2d;}.r{fill:#063;}.s{fill:#95c11f;}.t{fill:#009640;}.u{fill:#d60b52;}.v{fill:#f39200;}.w{fill:#e6332a;}.x{fill:#1d1d1b;font-size:19.2px;font-family:Futura-ExtraBold;font-weight:800;}</style><clipPath id="a"><path class="a" d="M118.27,1.26h35.44c16.22,0,32.77,3.88,32.77,23.21,0,7.33-3.66,14.55-11,16.88V42c9.11,3.22,14.89,9.89,14.89,19.89,0,17.21-16,23.1-30.66,23.1H118.27Zm31,31.68c4.44,0,9.44-.1,9.44-5.87,0-6.22-5.66-5.6-10.11-5.6h-1.42V32.94Zm-2.09,31.2h2.75c5,0,11.53.41,11.53-6.48s-7.08-6.54-12-6.54h-2.31Z"/></clipPath><clipPath id="b"><path class="a" d="M14.26,2.79H45.17l11.4,43.4h.76a91.729,91.729,0,0,1,2.09-11l9.31-32.4H99.31L112.9,85.42h-29L79.8,40.16h-.55a66.919,66.919,0,0,1-2,8.22l-11.94,37H47.8l-10.74-35a55.36,55.36,0,0,1-1.86-10.3h-1c-.22,3.29-.44,6.69-.77,10l-3.5,35.34H.89Z"/></clipPath></defs><g transform="translate(-0.89 -1.26)"><g class="b"><path class="c" d="M190.66,99.97l-9.31-8.26-9.14,8.26V78.61h18.45Z"/><path class="d" d="M135.92,99.97l-9.31-8.26-9.13,8.26V78.61h18.44Z"/><path class="c" d="M154.32,99.97l-9.31-8.26-9.13,8.26V78.61h18.44Z"/><path class="e" d="M135.92,88.74l-9.31-8.25-9.13,8.25V67.39h18.44Z"/><path class="e" d="M154.32,88.74l-9.31-8.25-9.13,8.25V67.39h18.44Z"/><path class="f" d="M135.92,78.13l-9.31-8.25-9.13,8.25V56.78h18.44Z"/><path class="g" d="M154.32,78.13l-9.31-8.25-9.13,8.25V56.78h18.44Z"/><path class="d" d="M172.55,99.97l-9.3-8.26-9.14,8.26V78.61h18.44Z"/><path class="e" d="M172.52,88.74l-9.3-8.25-9.14,8.25V67.39h18.44Z"/><path class="e" d="M191.58,88.74l-9.65-8.25-9.46,8.25V67.39h19.11Z"/><path class="h" d="M172.61,78.13l-9.31-8.25-9.13,8.25V56.78h18.44Z"/><path class="i" d="M192.07,78.13l-9.89-8.25-9.71,8.25V56.78h19.6Z"/><path class="e" d="M135.92,65.18l-9.31-8.25-9.13,8.25V43.83h18.44Z"/><path class="e" d="M154.26,65.18l-9.3-8.25-9.14,8.25V43.83h18.44Z"/><path class="j" d="M135.92,53.66l-9.31-8.25-9.13,8.25V32.31h18.44Z"/><path class="k" d="M154.32,53.66l-9.31-8.25-9.13,8.25V32.31h18.44Z"/><path class="e" d="M135.92,43.05l-9.31-8.25-9.13,8.25V21.7h18.44Z"/><path class="e" d="M154.32,43.05l-9.31-8.25-9.13,8.25V21.7h18.44Z"/><path class="h" d="M135.92,31.83l-9.31-8.26-9.13,8.26V10.48h18.44Z"/><path class="l" d="M154.32,31.83l-9.31-8.26-9.13,8.26V10.48h18.44Z"/><path class="d" d="M135.92,21.21l-9.31-8.25-9.13,8.25V-.14h18.44Z"/><path class="m" d="M154.32,21.21l-9.31-8.25-9.13,8.25V-.14h18.44Z"/><path class="e" d="M172.55,65.18l-9.3-8.25-9.14,8.25V43.83h18.44Z"/><path class="e" d="M190.88,65.18l-9.31-8.25-9.13,8.25V43.83h18.44Z"/><path class="n" d="M172.58,53.66l-9.31-8.25-9.13,8.25V32.31h18.44Z"/><path class="k" d="M192.61,53.66l-10.2-8.25-10,8.25V32.31h20.2Z"/><path class="e" d="M172.36,43.05l-9.22-8.25-9.05,8.25V21.7h18.27Z"/><path class="e" d="M190.79,43.05l-9.3-8.25-9.13,8.25V21.7h18.43Z"/><path class="o" d="M172.44,31.83l-9.24-8.26-9.07,8.26V10.48h18.31Z"/><path class="h" d="M190.74,31.83l-9.31-8.26-9.13,8.26V10.48h18.44Z"/><path class="e" d="M172.55,21.21l-9.3-8.25-9.14,8.25V-.14h18.44Z"/><path class="i" d="M190.66,21.21l-9.31-8.25-9.14,8.25V-.14h18.45Z"/></g><g class="p"><path class="m" d="M115.64,52.32c-3-1.65-3.94-4.83-3.94-7.52,0-7.44-4.62-9.33-8.28-9.33s-8.27,1.89-8.27,9.33c0,3.82-1.81,8.64-9,8.64s-9-4.82-9-8.64c0-7.44-4.62-9.33-8.28-9.33s-8.29,1.89-8.29,9.33c0,3.82-1.81,8.64-9,8.64s-9-4.82-9-8.64c0-7.44-4.62-9.33-8.28-9.33s-8.1,1.89-8.1,9.33c0,3.82-1.82,8.64-9,8.64s-9-4.82-9-8.64c0-7.44-4.62-9.33-8.28-9.33v17c3.66,0,8.28,1.89,8.28,9.33,0,3.82,1.81,8.64,9,8.64s9-4.82,9-8.64c0-7.44,4.61-9.33,8.27-9.33s8.28,1.89,8.28,9.33c0,3.82,1.81,8.64,9,8.64s9-4.82,9-8.64c0-7.44,4.63-9.33,8.29-9.33s8.28,1.89,8.28,9.33c0,3.82,1.82,8.64,9,8.64s9-4.82,9-8.64c0-7.44,4.61-9.33,8.27-9.33s8.28,1.89,8.28,9.33c0,2.69.91,5.87,3.94,7.52Z"/><path class="q" d="M115.64,64.81c-3-1.65-3.94-4.83-3.94-7.52,0-7.44-4.62-9.33-8.28-9.33s-8.27,1.89-8.27,9.33c0,3.81-1.81,8.64-9,8.64s-9-4.83-9-8.64C77.23,49.85,72.61,48,69,48s-8.29,1.89-8.29,9.33c0,3.81-1.81,8.64-9,8.64s-9-4.83-9-8.64c0-7.44-4.62-9.33-8.28-9.33s-8.27,1.89-8.27,9.33c0,3.81-1.82,8.64-9,8.64s-9-4.83-9-8.64C8.28,49.85,3.66,48,0,48v8.09c3.66,0,8.28,1.89,8.28,9.34,0,3.8,1.81,8.63,9,8.63s9-4.83,9-8.63c0-7.45,4.61-9.34,8.27-9.34s8.28,1.89,8.28,9.34c0,3.8,1.81,8.63,9,8.63s9-4.83,9-8.63c0-7.45,4.63-9.34,8.29-9.34s8.28,1.89,8.28,9.34c0,3.8,1.82,8.63,9,8.63s9-4.83,9-8.63c0-7.45,4.61-9.34,8.27-9.34s8.28,1.89,8.28,9.34c0,2.68.91,5.86,3.94,7.51Z"/><path class="r" d="M115.64,36.12c-3-1.65-3.94-4.83-3.94-7.52,0-7.44-4.62-9.33-8.28-9.33s-8.27,1.89-8.27,9.33c0,3.81-1.81,8.63-9,8.63s-9-4.82-9-8.63c0-7.44-4.62-9.33-8.28-9.33s-8.29,1.89-8.29,9.33c0,3.81-1.81,8.63-9,8.63s-9-4.82-9-8.63c0-7.44-4.62-9.33-8.28-9.33s-8.1,1.89-8.1,9.33c0,3.81-1.82,8.63-9,8.63s-9-4.82-9-8.63c0-7.44-4.62-9.33-8.28-9.33v17c3.66,0,8.28,1.89,8.28,9.33,0,3.81,1.81,8.63,9,8.63s9-4.82,9-8.63c0-7.44,4.61-9.33,8.27-9.33s8.28,1.89,8.28,9.33c0,3.81,1.81,8.63,9,8.63s9-4.82,9-8.63c0-7.44,4.63-9.33,8.29-9.33s8.28,1.89,8.28,9.33c0,3.81,1.82,8.63,9,8.63s9-4.82,9-8.63c0-7.44,4.61-9.33,8.27-9.33s8.28,1.89,8.28,9.33c0,2.69.91,5.87,3.94,7.52Z"/><path class="f" d="M115.64,48.63c-3-1.65-3.94-4.83-3.94-7.52,0-7.44-4.62-9.33-8.28-9.33s-8.27,1.89-8.27,9.33c0,3.82-1.81,8.64-9,8.64s-9-4.82-9-8.64c0-7.44-4.62-9.33-8.28-9.33s-8.29,1.89-8.29,9.33c0,3.82-1.81,8.64-9,8.64s-9-4.82-9-8.64c0-7.44-4.62-9.33-8.28-9.33s-8.27,1.89-8.27,9.33c0,3.82-1.82,8.64-9,8.64s-9-4.82-9-8.64c0-7.44-4.62-9.33-8.28-9.33v8.09c3.66,0,8.28,1.89,8.28,9.33,0,3.82,1.81,8.64,9,8.64s9-4.82,9-8.64c0-7.44,4.61-9.33,8.27-9.33s8.28,1.89,8.28,9.33c0,3.82,1.81,8.64,9,8.64s9-4.82,9-8.64c0-7.44,4.63-9.33,8.29-9.33s8.28,1.89,8.28,9.33c0,3.82,1.82,8.64,9,8.64s9-4.82,9-8.64c0-7.44,4.61-9.33,8.27-9.33s8.28,1.89,8.28,9.33c0,2.69.91,5.87,3.94,7.52Z"/><path class="s" d="M115.64,32.49c-3-1.65-3.94-4.83-3.94-7.51,0-7.45-4.62-9.33-8.28-9.33S95.15,17.53,95.15,25c0,3.81-1.81,8.63-9,8.63s-9-4.82-9-8.63c0-7.45-4.62-9.33-8.28-9.33S60.66,17.53,60.66,25c0,3.81-1.81,8.63-9,8.63s-9-4.82-9-8.63c0-7.45-4.62-9.33-8.28-9.33S26.2,17.53,26.2,25c0,3.81-1.82,8.63-9,8.63s-9-4.82-9-8.63c0-7.45-4.62-9.33-8.28-9.33v8.09c3.66,0,8.28,1.88,8.28,9.33,0,3.8,1.81,8.63,9,8.63s9-4.83,9-8.63c0-7.45,4.61-9.33,8.27-9.33s8.28,1.88,8.28,9.33c0,3.8,1.81,8.63,9,8.63s9-4.83,9-8.63c0-7.45,4.63-9.33,8.29-9.33s8.28,1.88,8.28,9.33c0,3.8,1.82,8.63,9,8.63s9-4.83,9-8.63c0-7.45,4.61-9.33,8.27-9.33s8.28,1.88,8.28,9.33c0,2.68.91,5.86,3.94,7.51Z"/><path class="r" d="M115.64,16.58a8.234,8.234,0,0,1-4-7.5c0-7.44-4.64-9.32-8.3-9.31s-8.27,1.91-8.25,9.36c0,3.81-1.79,8.63-8.94,8.65s-9-4.8-9-8.61c0-7.44-4.65-9.32-8.31-9.31s-8.28,1.91-8.26,9.36c0,3.8-1.79,8.63-8.94,8.65s-9-4.8-9-8.61c0-7.44-4.64-9.32-8.3-9.31S26.16,1.86,26.17,9.3c0,3.81-1.78,8.64-8.93,8.66s-9-4.8-9-8.61C8.24,1.91,3.62,0,0,0V17c3.66,0,8.29,1.86,8.3,9.31,0,3.81,1.84,8.62,9,8.61s9-4.85,8.94-8.66c0-7.44,4.59-9.34,8.25-9.35s8.28,1.86,8.3,9.31c0,3.81,1.83,8.63,9,8.61s8.94-4.85,8.93-8.66c0-7.44,4.61-9.34,8.27-9.35s8.29,1.86,8.31,9.31c0,3.81,1.83,8.63,9,8.61s8.94-4.84,8.93-8.66c0-7.44,4.59-9.34,8.25-9.35s8.29,1.87,8.3,9.31c0,2.69.93,5.87,4,7.5Z"/><path class="t" d="M115.64,13.11c-3-1.65-3.94-4.83-3.94-7.51,0-7.45-4.62-9.33-8.28-9.33S95.15-1.85,95.15,5.6c0,3.81-1.81,8.63-9,8.63s-9-4.82-9-8.63c0-7.45-4.62-9.33-8.28-9.33S60.66-1.85,60.66,5.6c0,3.81-1.81,8.63-9,8.63s-9-4.82-9-8.63c0-7.45-4.62-9.33-8.28-9.33S26.2-1.85,26.2,5.6c0,3.81-1.82,8.63-9,8.63s-9-4.82-9-8.63C8.28-1.85,3.66-3.73,0-3.73V4.36c3.66,0,8.28,1.89,8.28,9.32,0,3.81,1.81,8.64,9,8.64s9-4.83,9-8.64c0-7.43,4.61-9.32,8.27-9.32s8.28,1.89,8.28,9.32c0,3.81,1.81,8.64,9,8.64s9-4.83,9-8.64c0-7.43,4.63-9.32,8.29-9.32s8.28,1.89,8.28,9.32c0,3.81,1.82,8.64,9,8.64s9-4.83,9-8.64c0-7.43,4.61-9.32,8.27-9.32s8.28,1.89,8.28,9.32c0,2.69.91,5.87,3.94,7.52Z"/><path class="r" d="M115.64-2.58c-3-1.64-3.94-4.82-3.94-7.51,0-7.44-4.62-9.33-8.28-9.33s-8.27,1.89-8.27,9.33c0,3.81-1.81,8.63-9,8.63s-9-4.82-9-8.63c0-7.44-4.62-9.33-8.28-9.33s-8.29,1.89-8.29,9.33c0,3.81-1.81,8.63-9,8.63s-9-4.82-9-8.63c0-7.44-4.62-9.33-8.28-9.33s-8.27,1.89-8.27,9.33c0,3.81-1.82,8.63-9,8.63s-9-4.82-9-8.63c0-7.44-4.62-9.33-8.28-9.33v17c3.66,0,8.28,1.89,8.28,9.33,0,3.81,1.81,8.63,9,8.63s9-4.82,9-8.63c0-7.44,4.61-9.33,8.27-9.33s8.28,1.89,8.28,9.33c0,3.81,1.81,8.63,9,8.63s9-4.82,9-8.63c0-7.44,4.63-9.33,8.29-9.33s8.28,1.89,8.28,9.33c0,3.81,1.82,8.63,9,8.63s9-4.82,9-8.63c0-7.44,4.61-9.33,8.27-9.33s8.28,1.89,8.28,9.33c0,2.69.91,5.86,3.94,7.51Z"/><path class="k" d="M115.64-6.2c-3-1.65-3.94-4.83-3.94-7.52,0-7.44-4.62-9.33-8.28-9.33s-8.27,1.89-8.27,9.33c0,3.82-1.81,8.64-9,8.64s-9-4.82-9-8.64C77.23-21.16,72.61-23,69-23s-8.29,1.89-8.29,9.33c0,3.82-1.81,8.64-9,8.64s-9-4.82-9-8.64c0-7.44-4.62-9.33-8.28-9.33s-8.27,1.89-8.27,9.33c0,3.82-1.82,8.64-9,8.64s-9-4.82-9-8.64C8.28-21.16,3.66-23,0-23v8c3.66,0,8.28,1.89,8.28,9.33,0,3.81,1.81,8.64,9,8.64s9-4.83,9-8.64c0-7.44,4.61-9.33,8.27-9.33s8.28,1.89,8.28,9.33c0,3.81,1.81,8.64,9,8.64s9-4.83,9-8.64C60.66-13.07,65.29-15,69-15s8.28,1.89,8.28,9.33c0,3.81,1.82,8.64,9,8.64s9-4.83,9-8.64c0-7.44,4.61-9.33,8.27-9.33s8.28,1.89,8.28,9.33c0,2.69.91,5.87,3.94,7.52Z"/><path class="m" d="M115.64,81.08c-3-1.65-3.94-4.83-3.94-7.52,0-7.45-4.62-9.33-8.28-9.33s-8.27,1.88-8.27,9.33c0,3.82-1.81,8.64-9,8.64s-9-4.82-9-8.64c0-7.45-4.62-9.33-8.28-9.33s-8.29,1.88-8.29,9.33c0,3.82-1.81,8.64-9,8.64s-9-4.82-9-8.64c0-7.45-4.62-9.33-8.28-9.33s-8.27,1.88-8.27,9.33c0,3.82-1.82,8.64-9,8.64s-9-4.82-9-8.64c0-7.45-4.62-9.33-8.28-9.33v17c3.66,0,8.28,1.89,8.28,9.34,0,3.8,1.81,8.63,9,8.63s9-4.83,9-8.63c0-7.45,4.61-9.34,8.27-9.34s8.28,1.89,8.28,9.34c0,3.8,1.81,8.63,9,8.63s9-4.83,9-8.63c0-7.45,4.63-9.34,8.29-9.34s8.28,1.89,8.28,9.34c0,3.8,1.82,8.63,9,8.63s9-4.83,9-8.63c0-7.45,4.61-9.34,8.27-9.34s8.28,1.89,8.28,9.34c0,2.68.91,5.87,3.94,7.51Z"/><path class="q" d="M115.64,96.65c-3-1.65-3.94-4.83-3.94-7.52,0-7.44-4.62-9.33-8.28-9.33s-8.27,1.89-8.27,9.33c0,3.81-1.81,8.64-9,8.64s-9-4.83-9-8.64c0-7.44-4.62-9.33-8.28-9.33s-8.29,1.89-8.29,9.33c0,3.81-1.81,8.64-9,8.64s-9-4.83-9-8.64c0-7.44-4.62-9.33-8.28-9.33s-8.27,1.89-8.27,9.33c0,3.81-1.82,8.64-9,8.64s-9-4.83-9-8.64c0-7.44-4.62-9.33-8.28-9.33v8.09c3.66,0,8.28,1.89,8.28,9.34,0,3.8,1.81,8.63,9,8.63s9-4.83,9-8.63c0-7.45,4.61-9.34,8.27-9.34s8.28,1.89,8.28,9.34c0,3.8,1.81,8.63,9,8.63s9-4.83,9-8.63c0-7.45,4.63-9.34,8.29-9.34s8.28,1.89,8.28,9.34c0,3.8,1.82,8.63,9,8.63s9-4.83,9-8.63c0-7.45,4.61-9.34,8.27-9.34s8.28,1.89,8.28,9.34c0,2.68.91,5.86,3.94,7.51Z"/><path class="m" d="M115.64,83.38c-3-1.65-3.94-4.83-3.94-7.52,0-7.44-4.62-9.33-8.28-9.33s-8.27,1.89-8.27,9.33c0,3.82-1.81,8.64-9,8.64s-9-4.82-9-8.64c0-7.44-4.62-9.33-8.28-9.33s-8.29,1.89-8.29,9.33c0,3.82-1.81,8.64-9,8.64s-9-4.82-9-8.64c0-7.44-4.62-9.33-8.28-9.33s-8.27,1.89-8.27,9.33c0,3.82-1.82,8.64-9,8.64s-9-4.82-9-8.64c0-7.44-4.62-9.33-8.28-9.33v17c3.66,0,8.28,1.89,8.28,9.34,0,3.81,1.81,8.63,9,8.63s9-4.82,9-8.63c0-7.45,4.61-9.34,8.27-9.34s8.28,1.89,8.28,9.34c0,3.81,1.81,8.63,9,8.63s9-4.82,9-8.63c0-7.45,4.63-9.34,8.29-9.34s8.28,1.89,8.28,9.34c0,3.81,1.82,8.63,9,8.63s9-4.82,9-8.63c0-7.45,4.61-9.34,8.27-9.34s8.28,1.89,8.28,9.34c0,2.68.91,5.87,3.94,7.51Z"/><path class="u" d="M115.64,95.87c-3-1.64-3.94-4.83-3.94-7.51,0-7.45-4.62-9.33-8.28-9.33s-8.27,1.88-8.27,9.33c0,3.81-1.81,8.63-9,8.63s-9-4.82-9-8.63C77.23,80.91,72.61,79,69,79s-8.29,1.88-8.29,9.33c0,3.81-1.81,8.63-9,8.63s-9-4.82-9-8.63c0-7.45-4.62-9.33-8.28-9.33s-8.27,1.88-8.27,9.33c0,3.81-1.82,8.63-9,8.63s-9-4.82-9-8.63C8.28,80.91,3.66,79,0,79v8.09c3.66,0,8.28,1.88,8.28,9.33,0,3.81,1.81,8.63,9,8.63s9-4.82,9-8.63c0-7.45,4.61-9.33,8.27-9.33s8.28,1.88,8.28,9.33c0,3.81,1.81,8.63,9,8.63s9-4.82,9-8.63c0-7.45,4.63-9.33,8.29-9.33s8.28,1.88,8.28,9.33c0,3.81,1.82,8.63,9,8.63s9-4.82,9-8.63c0-7.45,4.61-9.33,8.27-9.33s8.28,1.88,8.28,9.33c0,2.68.91,5.87,3.94,7.51Z"/><path class="m" d="M115.64,101.84c-3-1.65-3.94-4.83-3.94-7.51,0-7.45-4.62-9.34-8.28-9.34s-8.27,1.89-8.27,9.34c0,3.81-1.81,8.63-9,8.63s-9-4.82-9-8.63C77.23,86.88,72.61,85,69,85s-8.29,1.89-8.29,9.34c0,3.81-1.81,8.63-9,8.63s-9-4.82-9-8.63c0-7.45-4.62-9.34-8.28-9.34s-8.27,1.89-8.27,9.34c0,3.81-1.82,8.63-9,8.63s-9-4.82-9-8.63C8.28,86.88,3.66,85,0,85v17c3.66,0,8.28,1.88,8.28,9.33,0,3.81,1.81,8.64,9,8.64s9-4.83,9-8.64c0-7.45,4.61-9.33,8.27-9.33s8.28,1.88,8.28,9.33c0,3.81,1.81,8.64,9,8.64s9-4.83,9-8.64c0-7.45,4.63-9.33,8.29-9.33s8.28,1.88,8.28,9.33c0,3.81,1.82,8.64,9,8.64s9-4.83,9-8.64c0-7.45,4.61-9.33,8.27-9.33s8.28,1.88,8.28,9.33c0,2.69.91,5.87,3.94,7.52Z"/><path class="q" d="M115.64,117.41c-3-1.64-3.94-4.83-3.94-7.51,0-7.45-4.62-9.33-8.28-9.33s-8.27,1.88-8.27,9.33c0,3.81-1.81,8.63-9,8.63s-9-4.82-9-8.63c0-7.45-4.62-9.33-8.28-9.33s-8.29,1.88-8.29,9.33c0,3.81-1.81,8.63-9,8.63s-9-4.82-9-8.63c0-7.45-4.62-9.33-8.28-9.33s-8.27,1.88-8.27,9.33c0,3.81-1.82,8.63-9,8.63s-9-4.82-9-8.63c0-7.45-4.62-9.33-8.28-9.33v8.09c3.66,0,8.28,1.88,8.28,9.33,0,3.81,1.81,8.63,9,8.63s9-4.82,9-8.63c0-7.45,4.61-9.33,8.27-9.33s8.28,1.88,8.28,9.33c0,3.81,1.81,8.63,9,8.63s9-4.82,9-8.63c0-7.45,4.63-9.33,8.29-9.33s8.28,1.88,8.28,9.33c0,3.81,1.82,8.63,9,8.63s9-4.82,9-8.63c0-7.45,4.61-9.33,8.27-9.33s8.28,1.88,8.28,9.33c0,2.68.91,5.87,3.94,7.51Z"/><path class="m" d="M115.64,104.14c-3-1.64-3.94-4.82-3.94-7.51,0-7.45-4.62-9.34-8.28-9.34s-8.27,1.89-8.27,9.34c0,3.81-1.81,8.63-9,8.63s-9-4.82-9-8.63c0-7.45-4.62-9.34-8.28-9.34s-8.29,1.89-8.29,9.34c0,3.81-1.81,8.63-9,8.63s-9-4.82-9-8.63c0-7.45-4.62-9.34-8.28-9.34s-8.27,1.89-8.27,9.34c0,3.81-1.82,8.63-9,8.63s-9-4.82-9-8.63c0-7.45-4.62-9.34-8.28-9.34v17c3.66,0,8.28,1.89,8.28,9.33,0,3.81,1.81,8.64,9,8.64s9-4.83,9-8.64c0-7.44,4.61-9.33,8.27-9.33s8.28,1.89,8.28,9.33c0,3.81,1.81,8.64,9,8.64s9-4.83,9-8.64c0-7.44,4.63-9.33,8.29-9.33s8.28,1.89,8.28,9.33c0,3.81,1.82,8.64,9,8.64s9-4.83,9-8.64c0-7.44,4.61-9.33,8.27-9.33s8.28,1.89,8.28,9.33c0,2.69.91,5.87,3.94,7.52Z"/><path class="q" d="M115.64,116.64c-3-1.65-3.94-4.83-3.94-7.52,0-7.44-4.62-9.33-8.28-9.33s-8.27,1.89-8.27,9.33c0,3.81-1.81,8.64-9,8.64s-9-4.83-9-8.64c0-7.44-4.62-9.33-8.28-9.33s-8.29,1.89-8.29,9.33c0,3.81-1.81,8.64-9,8.64s-9-4.83-9-8.64c0-7.44-4.62-9.33-8.28-9.33s-8.27,1.89-8.27,9.33c0,3.81-1.82,8.64-9,8.64s-9-4.83-9-8.64c0-7.44-4.62-9.33-8.28-9.33v8.09c3.66,0,8.28,1.88,8.28,9.33,0,3.81,1.81,8.64,9,8.64s9-4.83,9-8.64c0-7.45,4.61-9.33,8.27-9.33s8.28,1.88,8.28,9.33c0,3.81,1.81,8.64,9,8.64s9-4.83,9-8.64c0-7.45,4.63-9.33,8.29-9.33s8.28,1.88,8.28,9.33c0,3.81,1.82,8.64,9,8.64s9-4.83,9-8.64c0-7.45,4.61-9.33,8.27-9.33s8.28,1.88,8.28,9.33c0,2.69.91,5.87,3.94,7.52Z"/><path class="m" d="M115.64,68c-3-1.65-3.94-4.83-3.94-7.51,0-7.45-4.62-9.34-8.28-9.34S95.15,53,95.15,60.44c0,3.81-1.81,8.63-9,8.63s-9-4.82-9-8.63c0-7.45-4.62-9.34-8.28-9.34s-8.21,1.9-8.21,9.34c0,3.81-1.81,8.63-9,8.63s-9-4.82-9-8.63c0-7.45-4.62-9.34-8.28-9.34S26.2,53,26.2,60.44c0,3.81-1.82,8.63-9,8.63s-9-4.82-9-8.63C8.28,53,3.66,51.1,0,51.1v17c3.66,0,8.28,1.88,8.28,9.33,0,3.81,1.81,8.64,9,8.64s9-4.83,9-8.64c0-7.45,4.61-9.33,8.27-9.33s8.2,1.9,8.2,9.3c0,3.81,1.81,8.64,9,8.64s9-4.83,9-8.64c0-7.45,4.63-9.33,8.29-9.33S77.23,70,77.23,77.4c0,3.81,1.82,8.64,9,8.64s9-4.83,9-8.64c0-7.45,4.61-9.33,8.27-9.33s8.2,1.93,8.2,9.33c0,2.69.91,5.87,3.94,7.52Z"/><path class="v" d="M115.64,80.47c-3-1.65-3.94-4.83-3.94-7.52,0-7.45-4.62-9.33-8.28-9.33S95.15,65.5,95.15,73c0,3.81-1.81,8.64-9,8.64s-9-4.83-9-8.64c0-7.45-4.62-9.33-8.28-9.33S60.66,65.5,60.66,73c0,3.81-1.81,8.64-9,8.64s-9-4.83-9-8.64c0-7.45-4.62-9.33-8.28-9.33S26.2,65.5,26.2,73c0,3.81-1.82,8.64-9,8.64s-9-4.83-9-8.64c0-7.45-4.62-9.33-8.28-9.33v8.09c3.66,0,8.28,1.89,8.28,9.33,0,3.81,1.81,8.64,9,8.64s9-4.83,9-8.64c0-7.44,4.61-9.33,8.27-9.33S42.75,73.6,42.75,81c0,3.81,1.81,8.64,9,8.64s9-4.83,9-8.64c0-7.44,4.63-9.33,8.29-9.33S77.23,73.6,77.23,81c0,3.81,1.82,8.64,9,8.64s9-4.83,9-8.64c0-7.44,4.61-9.33,8.27-9.33s8.2,1.93,8.2,9.33c0,2.69.91,5.87,3.94,7.52Z"/><path class="w" d="M115.64,64.32c-3-1.64-3.94-4.82-3.94-7.51,0-7.45-4.62-9.33-8.28-9.33s-8.27,1.88-8.27,9.33c0,3.81-1.81,8.63-9,8.63s-9-4.82-9-8.63c0-7.45-4.62-9.33-8.28-9.33s-8.29,1.88-8.29,9.33c0,3.81-1.81,8.63-9,8.63s-9-4.82-9-8.63c0-7.45-4.62-9.33-8.28-9.33s-8.27,1.88-8.27,9.33c0,3.81-1.82,8.63-9,8.63s-9-4.82-9-8.63c0-7.45-4.62-9.33-8.28-9.33v8.09c3.66,0,8.28,1.89,8.28,9.33,0,3.81,1.81,8.63,9,8.63s9-4.82,9-8.63c0-7.44,4.61-9.33,8.27-9.33s8.28,1.89,8.28,9.33c0,3.81,1.81,8.63,9,8.63s9-4.82,9-8.63c0-7.44,4.63-9.33,8.29-9.33s8.28,1.89,8.28,9.33c0,3.81,1.82,8.63,9,8.63s9-4.82,9-8.63c0-7.44,4.61-9.33,8.27-9.33s8.28,1.89,8.28,9.33c0,2.68.91,5.86,3.94,7.51Z"/><path class="a" d="M75.25,68.21H73v13h2.7c5,0,11.52.4,11.52-6.48S80.14,68.21,75.25,68.21Z"/></g><path class="r" d="M146.92,123.37c.07-.18.15-.35.21-.53a12,12,0,0,0,.57-3.79,12.351,12.351,0,0,0-.57-3.85,8.26,8.26,0,0,0-1.69-3,7.49,7.49,0,0,0-2.79-1.92,11.43,11.43,0,0,0-7.71,0,7.53,7.53,0,0,0-2.78,1.92,8.12,8.12,0,0,0-1.69,3,12.351,12.351,0,0,0-.57,3.85,12,12,0,0,0,.57,3.79,7.94,7.94,0,0,0,1.69,2.93,7.46,7.46,0,0,0,2.78,1.89,11.76,11.76,0,0,0,7.71,0,7.52,7.52,0,0,0,1.72-1l2.07,2a11.5,11.5,0,0,0,1.59-1.36,16.413,16.413,0,0,0,1.38-1.58Zm-8.14.21a2.46,2.46,0,0,1-2.25-1.18,6.44,6.44,0,0,1-.72-3.35,6.57,6.57,0,0,1,.72-3.39,2.47,2.47,0,0,1,2.25-1.17,2.52,2.52,0,0,1,2.27,1.17,6.46,6.46,0,0,1,.74,3.39,10.669,10.669,0,0,1-.07,1.17c-.19.17-.38.34-.57.53a14.262,14.262,0,0,0-1.38,1.59l.71.68A2.63,2.63,0,0,1,138.78,123.58Z"/><path class="r" d="M3.67,122a5,5,0,0,1,.73-2.8,5.34,5.34,0,0,1,1.87-1.76,7.83,7.83,0,0,1,2.52-.92,14.829,14.829,0,0,1,2.69-.26h2.11a1.85,1.85,0,0,0-.35-1,2.17,2.17,0,0,0-.79-.64,3.92,3.92,0,0,0-1.07-.3,8,8,0,0,0-1.21-.09,11.18,11.18,0,0,0-1.93.19A14.19,14.19,0,0,0,6,115c-.2-.4-.38-.75-.53-1.08a5.22,5.22,0,0,1-.35-1,8.68,8.68,0,0,1-.17-1c0-.35-.05-.76-.05-1.22a22.189,22.189,0,0,1,3.3-.84,18.34,18.34,0,0,1,2.95-.27,11.68,11.68,0,0,1,3.25.43,6.46,6.46,0,0,1,2.47,1.33,5.93,5.93,0,0,1,1.57,2.3,9,9,0,0,1,.55,3.33V127.1c-.87.26-1.93.51-3.17.76a19.3,19.3,0,0,1-3.94.38,16.061,16.061,0,0,1-3.3-.32A7.34,7.34,0,0,1,6,126.87,5,5,0,0,1,4.28,125a6.46,6.46,0,0,1-.61-3Zm8.16,2a7.41,7.41,0,0,0,.89-.07,5.811,5.811,0,0,0,.87-.14V120h-2a3.81,3.81,0,0,0-2,.52,1.64,1.64,0,0,0-.83,1.45,1.77,1.77,0,0,0,.3,1.03,1.91,1.91,0,0,0,.78.6,3.29,3.29,0,0,0,1,.28,7.188,7.188,0,0,0,.99.12Z"/><path class="r" d="M29.86,123h6.53a8.39,8.39,0,0,1,.22,1.28,11.11,11.11,0,0,1,0,1.14v1.16a8.3,8.3,0,0,1-.22,1.29H24V110.02a11.59,11.59,0,0,1,1.51-.25c.49,0,1-.07,1.43-.07a10.2,10.2,0,0,1,1.42.07,10.391,10.391,0,0,1,1.48.25Z"/><path class="r" d="M47.68,109.67a18.551,18.551,0,0,1,2.8.22,7.34,7.34,0,0,1,2.56.92,12.141,12.141,0,0,1,2.11-.79,9.49,9.49,0,0,1,2.72-.35,15.1,15.1,0,0,1,2.79.26A6.27,6.27,0,0,1,63.25,111a6.14,6.14,0,0,1,1.9,2.38,9.72,9.72,0,0,1,.74,4.11v10.33a13.94,13.94,0,0,1-1.63.22c-.48,0-.9.06-1.27.06a10.64,10.64,0,0,1-1.32-.06,14.082,14.082,0,0,1-1.62-.22v-9.71a4.33,4.33,0,0,0-.62-2.62,2.45,2.45,0,0,0-2-.8,4.33,4.33,0,0,0-1,.11,4.74,4.74,0,0,0-.64.17,11,11,0,0,1,.31,2.76v10.09a14.082,14.082,0,0,1-1.62.22c-.48,0-.91.06-1.28.06a10.408,10.408,0,0,1-1.31-.06,13.939,13.939,0,0,1-1.63-.22v-9.71a4.51,4.51,0,0,0-.58-2.62,2.34,2.34,0,0,0-2-.8,6,6,0,0,0-.81.07,1.56,1.56,0,0,0-.53.14v12.92a13.94,13.94,0,0,1-1.63.22c-.48,0-.91.06-1.27.06a10.72,10.72,0,0,1-1.32-.06,14.082,14.082,0,0,1-1.62-.22v-17a27.817,27.817,0,0,1,2.9-.81A18.91,18.91,0,0,1,47.68,109.67Z"/><path class="r" d="M70.07,122a5,5,0,0,1,.72-2.8,5.43,5.43,0,0,1,1.87-1.76,7.83,7.83,0,0,1,2.52-.92,14.861,14.861,0,0,1,2.7-.26H80a1.84,1.84,0,0,0-.34-1,2.2,2.2,0,0,0-.8-.64,3.92,3.92,0,0,0-1.07-.3,7.919,7.919,0,0,0-1.21-.09,11.181,11.181,0,0,0-1.93.19,13.819,13.819,0,0,0-2.28.61c-.21-.4-.39-.75-.54-1.08a5.18,5.18,0,0,1-.34-1,7.05,7.05,0,0,1-.17-1,10.929,10.929,0,0,1-.06-1.22,22.83,22.83,0,0,1,3.3-.84,18.451,18.451,0,0,1,3-.27,11.6,11.6,0,0,1,3.24.43,6.58,6.58,0,0,1,2.48,1.33,6,6,0,0,1,1.57,2.3,9.21,9.21,0,0,1,.55,3.33v10.12c-.88.26-1.94.51-3.18.76a19.231,19.231,0,0,1-3.94.38,16.14,16.14,0,0,1-3.3-.32,7.21,7.21,0,0,1-2.57-1.06A5,5,0,0,1,70.67,125,6.47,6.47,0,0,1,70.07,122Zm8.15,2a7.4,7.4,0,0,0,.9-.07,5.628,5.628,0,0,0,.86-.14V120H78a3.8,3.8,0,0,0-2,.52,1.62,1.62,0,0,0-.83,1.45,1.7,1.7,0,0,0,.31,1.09,1.88,1.88,0,0,0,.77.6,3.44,3.44,0,0,0,1,.28,7,7,0,0,0,.97.06Z"/><path class="r" d="M97.67,109.67a17.341,17.341,0,0,1,3,.26,6.82,6.82,0,0,1,2.75,1.09,6.16,6.16,0,0,1,2,2.38,9.23,9.23,0,0,1,.78,4.11v10.33a13.937,13.937,0,0,1-1.63.22c-.48,0-.91.06-1.27.06a10.72,10.72,0,0,1-1.32-.06,14.082,14.082,0,0,1-1.62-.22v-9.71a4,4,0,0,0-.69-2.62,2.64,2.64,0,0,0-2.11-.8,6,6,0,0,0-.81.07,1.74,1.74,0,0,0-.54.14v12.92a14.079,14.079,0,0,1-1.62.22c-.48,0-.91.06-1.28.06a10.408,10.408,0,0,1-1.31-.06,13.939,13.939,0,0,1-1.63-.22v-17a28.135,28.135,0,0,1,2.94-.81,19.348,19.348,0,0,1,4.36-.36Z"/><path class="r" d="M110.42,122a5,5,0,0,1,.72-2.8,5.43,5.43,0,0,1,1.87-1.76,7.83,7.83,0,0,1,2.52-.92,14.829,14.829,0,0,1,2.69-.26h2.11a1.92,1.92,0,0,0-.34-1,2.29,2.29,0,0,0-.8-.64,3.92,3.92,0,0,0-1.07-.3,7.92,7.92,0,0,0-1.21-.09,11.18,11.18,0,0,0-1.93.19,13.819,13.819,0,0,0-2.28.61c-.21-.4-.39-.75-.54-1.08a6,6,0,0,1-.35-1c-.07-.34-.13-.68-.17-1s0-.76,0-1.22a22.83,22.83,0,0,1,3.3-.84,18.339,18.339,0,0,1,3-.27,11.68,11.68,0,0,1,3.25.43,6.46,6.46,0,0,1,2.47,1.33,5.93,5.93,0,0,1,1.57,2.3,9,9,0,0,1,.56,3.33v10.12c-.88.26-1.94.51-3.18.76a19.3,19.3,0,0,1-3.94.38,16.06,16.06,0,0,1-3.3-.32,7.21,7.21,0,0,1-2.57-1.06A4.93,4.93,0,0,1,111,125a6.47,6.47,0,0,1-.58-3Zm8.15,1.93a7.4,7.4,0,0,0,.9-.07,5.631,5.631,0,0,0,.86-.14V120h-2a3.86,3.86,0,0,0-2,.52,1.64,1.64,0,0,0-.83,1.45,1.77,1.77,0,0,0,.31,1.09,1.91,1.91,0,0,0,.78.6,3.38,3.38,0,0,0,1,.28,7.192,7.192,0,0,0,.98.06Z"/><path class="r" d="M167.73,127c-.4.14-.86.28-1.4.42s-1.12.27-1.73.4a18.9,18.9,0,0,1-1.88.29,17.672,17.672,0,0,1-1.9.1,20.6,20.6,0,0,1-3.39-.27,7,7,0,0,1-2.85-1.12,5.73,5.73,0,0,1-2-2.46,10.64,10.64,0,0,1-.73-4.3V110a11.59,11.59,0,0,1,1.51-.25c.49,0,1-.07,1.43-.07a10.2,10.2,0,0,1,1.42.07,10.391,10.391,0,0,1,1.48.25v9.6a4.31,4.31,0,0,0,.69,2.83,2.71,2.71,0,0,0,2.11.76h.9l.45-.07V110a11.179,11.179,0,0,1,1.5-.25c.49,0,1-.07,1.43-.07a10.2,10.2,0,0,1,1.42.07,10.529,10.529,0,0,1,1.49.25Z"/><path class="r" d="M178,120.79a3.18,3.18,0,0,0,1.33,2,4.7,4.7,0,0,0,2.5.58,11.81,11.81,0,0,0,2.24-.24,13,13,0,0,0,2.46-.73,11.21,11.21,0,0,1,.84,2.15,9.66,9.66,0,0,1,.4,2.59,17.93,17.93,0,0,1-6.29,1.14,11.78,11.78,0,0,1-4.26-.69,7.44,7.44,0,0,1-2.9-1.92,7.6,7.6,0,0,1-1.66-2.92,12.69,12.69,0,0,1,0-7.39,8.27,8.27,0,0,1,1.65-3,7.82,7.82,0,0,1,2.77-2,9.44,9.44,0,0,1,3.87-.74,8.2,8.2,0,0,1,3.26.62,7.26,7.26,0,0,1,2.44,1.71,7.44,7.44,0,0,1,1.53,2.63,9.94,9.94,0,0,1,.54,3.33,14.2,14.2,0,0,1-.09,1.68l-.15,1.22Zm2.76-6.8a2.8,2.8,0,0,0-1.9.69,3.08,3.08,0,0,0-.93,2.14h5.52a3.31,3.31,0,0,0-.74-2,2.39,2.39,0,0,0-1.96-.82Z"/><text class="x" transform="translate(1.65 147.49)"><tspan x="0" y="0">MIGUEL BURNIER</tspan></text></g></svg>