<svg xmlns="http://www.w3.org/2000/svg" width="255.82" height="242.814" viewBox="0 0 255.82 242.814">
  <g id="Grupo_771" data-name="Grupo 771" transform="translate(1173.294 -1324.228)">
    <circle id="Elipse_30-2" data-name="Elipse 30-2" cx="121.407" cy="121.407" r="121.407" transform="translate(-1164.495 1324.228)" fill="#36a39a"/>
    <g id="Grupo_355-2" data-name="Grupo 355-2">
      <g id="VOCÊ_SABIA_" data-name="VOCÊ SABIA " style="mix-blend-mode: normal;isolation: isolate">
        <g id="Grupo_1888" data-name="Grupo 1888" style="mix-blend-mode: normal;isolation: isolate">
          <path id="Caminho_13560" data-name="Caminho 13560" d="M-1121.061,1407.378a6.081,6.081,0,0,1,2.923-1.719,7.065,7.065,0,0,1,4.932.459,5.288,5.288,0,0,1,3.085,3.536,6.046,6.046,0,0,1,.087,2.647l-9.735,53.368a6.813,6.813,0,0,1-1.95,3.685,8.209,8.209,0,0,1-3.71,2.106,8.207,8.207,0,0,1-4.265.033,6.808,6.808,0,0,1-3.533-2.215l-35.127-41.34a5.511,5.511,0,0,1-1.227-2.253,5.3,5.3,0,0,1,.964-4.71,7.516,7.516,0,0,1,4.206-2.91,6.312,6.312,0,0,1,3.432.015,5.641,5.641,0,0,1,2.9,2.027l28.2,34.113,7.354-43.646A5.708,5.708,0,0,1-1121.061,1407.378Z" fill="#f08800"/>
          <path id="Caminho_13561" data-name="Caminho 13561" d="M-1080.2,1455.64a25.861,25.861,0,0,1-12.734-7.806,35.478,35.478,0,0,1-7.755-14.972,35.5,35.5,0,0,1-.776-16.846,25.608,25.608,0,0,1,7.132-13.088,31.273,31.273,0,0,1,14.182-7.72,31.273,31.273,0,0,1,16.14-.41,25.622,25.622,0,0,1,12.724,7.764,35.522,35.522,0,0,1,7.755,14.975,35.51,35.51,0,0,1,.776,16.843,25.872,25.872,0,0,1-7.122,13.13,30.972,30.972,0,0,1-14.169,7.762A30.974,30.974,0,0,1-1080.2,1455.64Zm23.582-18.656q2.814-6.274.209-15.995t-8.13-13.716q-5.526-3.994-12.917-2.013t-10.137,8.194q-2.742,6.211-.136,15.932t8.141,13.757q5.535,4.038,12.845,2.077T-1056.621,1436.984Z" fill="#f08800"/>
          <path id="Caminho_13562" data-name="Caminho 13562" d="M-1014.771,1438.14a25.435,25.435,0,0,1-12.775-7.794,35.764,35.764,0,0,1-7.767-15.014,35.5,35.5,0,0,1-.775-16.845,25.536,25.536,0,0,1,7.173-13.1,31.345,31.345,0,0,1,14.14-7.708,31.266,31.266,0,0,1,20.379.947,6.48,6.48,0,0,1,2.279,1.527,5.742,5.742,0,0,1,1.167,2.358,6.028,6.028,0,0,1-.213,4.021,3.757,3.757,0,0,1-2.538,2.327,6.671,6.671,0,0,1-2.114.255,8.193,8.193,0,0,1-2.23-.515,28.972,28.972,0,0,0-6.982-1.468,19.5,19.5,0,0,0-6.321.671q-7.977,2.139-10.679,8.162t-.076,15.826q5.3,19.773,21.335,15.473a18.191,18.191,0,0,0,5.559-2.515,38.089,38.089,0,0,0,5.561-4.83,12.27,12.27,0,0,1,1.8-1.594,5.978,5.978,0,0,1,1.833-.8,3.755,3.755,0,0,1,3.361.746,6.026,6.026,0,0,1,2.2,3.374,5.643,5.643,0,0,1,.14,2.679,6.37,6.37,0,0,1-1.181,2.409,31.271,31.271,0,0,1-17.171,11.015A31.3,31.3,0,0,1-1014.771,1438.14Z" fill="#f08800"/>
          <path id="Caminho_13563" data-name="Caminho 13563" d="M-968.308,1427.109a6.283,6.283,0,0,1-2.781-4.063l-12.451-46.44a6.281,6.281,0,0,1,.375-4.909,6.288,6.288,0,0,1,4.063-2.782l29.41-7.884q6.146-1.648,7.483,3.336,1.359,5.069-4.788,6.716l-22.846,6.125,3.675,13.707,21.185-5.679q6.145-1.648,7.5,3.419,1.337,4.984-4.81,6.633l-21.185,5.68,3.943,14.7,22.845-6.125q6.147-1.647,7.507,3.419,1.336,4.984-4.811,6.633l-29.41,7.885A6.281,6.281,0,0,1-968.308,1427.109Zm-5.062-64.717a3.815,3.815,0,0,1-2.938-.326,3.4,3.4,0,0,1-1.736-2.16,3.761,3.761,0,0,1,.738-3.226l5.132-7.432a6.527,6.527,0,0,1,3.79-2.8,6.536,6.536,0,0,1,4.683.526l8.161,3.867a3.755,3.755,0,0,1,2.252,2.424,3.4,3.4,0,0,1-.423,2.739,3.711,3.711,0,0,1-2.3,1.73,4.4,4.4,0,0,1-3.324-.445l-7.225-4.029-4.24,7.1A4.124,4.124,0,0,1-973.37,1362.392Z" fill="#f08800"/>
        </g>
        <g id="Grupo_1889" data-name="Grupo 1889" style="mix-blend-mode: normal;isolation: isolate">
          <path id="Caminho_13564" data-name="Caminho 13564" d="M-1132.675,1536.4a20.85,20.85,0,0,1-8.217-1.494,4.778,4.778,0,0,1-1.826-1.164,4.605,4.605,0,0,1-.981-1.955,4.594,4.594,0,0,1,.243-3.164,3.076,3.076,0,0,1,2-1.873,4.683,4.683,0,0,1,1.474-.15,9.274,9.274,0,0,1,1.9.374,22.853,22.853,0,0,0,6.411,1.062,24.026,24.026,0,0,0,6.592-.888,12.963,12.963,0,0,0,6.246-3.224,4.769,4.769,0,0,0,1.19-4.754,3.857,3.857,0,0,0-3.015-2.712,28.458,28.458,0,0,0-8.222-.331,43.491,43.491,0,0,1-10.564-.406,13.083,13.083,0,0,1-6.5-2.974,12.025,12.025,0,0,1-3.383-5.924,12.852,12.852,0,0,1,.4-8.1,16.429,16.429,0,0,1,5.244-6.967,24.2,24.2,0,0,1,9.055-4.435q9.327-2.5,16.622.543a5.379,5.379,0,0,1,1.843,1.231,4.452,4.452,0,0,1,.964,1.888,4.592,4.592,0,0,1-.243,3.164,3.067,3.067,0,0,1-2,1.872,4.582,4.582,0,0,1-1.4.165,9.652,9.652,0,0,1-1.969-.388,28.689,28.689,0,0,0-5.646-1.231,17.094,17.094,0,0,0-5.976.685,11.6,11.6,0,0,0-5.893,3.236,5.01,5.01,0,0,0-1.163,4.853,3.943,3.943,0,0,0,1.582,2.357,7.635,7.635,0,0,0,3.44,1.014,46.665,46.665,0,0,0,6.32.066q9.461-.424,14.2,1.614a10.573,10.573,0,0,1,6.18,7.426,12.763,12.763,0,0,1-.341,8.048,15.587,15.587,0,0,1-5.231,6.754,26.191,26.191,0,0,1-9.344,4.407A37.952,37.952,0,0,1-1132.675,1536.4Z" fill="#f08800"/>
          <path id="Caminho_13565" data-name="Caminho 13565" d="M-1054.858,1511.768a4.118,4.118,0,0,1-.642,3.516,5.194,5.194,0,0,1-3.04,2.188,4.575,4.575,0,0,1-2.549-.056,4.508,4.508,0,0,1-2.263-1.612l-5.559-6.817-22.268,5.97-1.4,8.685a4.6,4.6,0,0,1-1.12,2.519,4.535,4.535,0,0,1-2.213,1.333,5.329,5.329,0,0,1-3.759-.366,4.091,4.091,0,0,1-2.348-2.715,5.476,5.476,0,0,1-.038-2.244l7.75-42a5.319,5.319,0,0,1,1.525-2.978,6.366,6.366,0,0,1,2.867-1.65,6.335,6.335,0,0,1,3.382.008,6.038,6.038,0,0,1,2.868,1.767l27.722,32.49A5.483,5.483,0,0,1-1054.858,1511.768Zm-19.613-9.6-12.2-15.036-3.106,19.14Z" fill="#f08800"/>
          <path id="Caminho_13566" data-name="Caminho 13566" d="M-1017.463,1484.878a12.028,12.028,0,0,1,4.128,6.6,11.594,11.594,0,0,1-1.819,10.416q-3.387,4.569-10.941,6.594l-17.211,4.614a4.965,4.965,0,0,1-3.881-.3,4.964,4.964,0,0,1-2.2-3.212l-9.846-36.72a4.966,4.966,0,0,1,.3-3.881,4.967,4.967,0,0,1,3.212-2.2l16.554-4.437q7.226-1.938,12.325.145a10.822,10.822,0,0,1,6.6,7.665,11.039,11.039,0,0,1-.238,6.859,11.385,11.385,0,0,1-4.288,5.409A12.032,12.032,0,0,1-1017.463,1484.878Zm-28.015-.622,9.657-2.59q3.942-1.056,5.452-2.9a4.883,4.883,0,0,0,.771-4.607,5.04,5.04,0,0,0-3.008-3.736q-2.234-.843-6.174.212l-9.657,2.59Zm21.647,13.771a5.4,5.4,0,0,0,.641-4.96,5.6,5.6,0,0,0-3.054-4.039q-2.227-.953-6.3.139l-10.839,2.907,3.17,11.824,10.839-2.906Q-1025.3,1499.9-1023.831,1498.027Z" fill="#f08800"/>
          <path id="Caminho_13567" data-name="Caminho 13567" d="M-1001.726,1500.9a5.233,5.233,0,0,1-2.383-3.374l-9.88-36.851a5.145,5.145,0,0,1,.393-4.049,5.232,5.232,0,0,1,3.374-2.383,5.237,5.237,0,0,1,4.114.376,5.144,5.144,0,0,1,2.365,3.309l9.881,36.851a5.243,5.243,0,0,1-.375,4.113,5.239,5.239,0,0,1-3.375,2.384A5.232,5.232,0,0,1-1001.726,1500.9Z" fill="#f08800"/>
          <path id="Caminho_13568" data-name="Caminho 13568" d="M-940.826,1481.194a4.122,4.122,0,0,1-.641,3.516,5.2,5.2,0,0,1-3.04,2.189,4.6,4.6,0,0,1-2.55-.057,4.526,4.526,0,0,1-2.262-1.611l-5.56-6.818-22.268,5.97-1.4,8.685a4.583,4.583,0,0,1-1.121,2.518,4.521,4.521,0,0,1-2.212,1.333,5.318,5.318,0,0,1-3.759-.365,4.082,4.082,0,0,1-2.347-2.715,5.435,5.435,0,0,1-.039-2.243l7.75-42a5.319,5.319,0,0,1,1.524-2.978,6.365,6.365,0,0,1,2.868-1.65,6.314,6.314,0,0,1,3.382.009,6.023,6.023,0,0,1,2.867,1.767l27.722,32.489A5.461,5.461,0,0,1-940.826,1481.194Zm-19.613-9.6-12.2-15.036-3.106,19.14Z" fill="#f08800"/>
        </g>
        <g id="Grupo_1890" data-name="Grupo 1890" style="mix-blend-mode: normal;isolation: isolate">
          <path id="Caminho_13569" data-name="Caminho 13569" d="M-930,1466.079a4.17,4.17,0,0,1-1.547-2.442,12.162,12.162,0,0,1-.287-6,29.475,29.475,0,0,1,2.293-5.973,28.078,28.078,0,0,0,1.712-4.138,6.045,6.045,0,0,0,0-3.324,3.736,3.736,0,0,0-2.161-2.6,5.938,5.938,0,0,0-3.995-.108,9.5,9.5,0,0,0-3.733,1.93q-1.6,1.358-4.184,3.98a7.307,7.307,0,0,1-2.914,1.924,3.009,3.009,0,0,1-2.7-.6,4.832,4.832,0,0,1-1.763-2.707,4.516,4.516,0,0,1-.111-2.151,5.105,5.105,0,0,1,.946-1.931,22.974,22.974,0,0,1,5.792-5.447,24.712,24.712,0,0,1,7.35-3.364,18.79,18.79,0,0,1,7.825-.527,12.686,12.686,0,0,1,6.213,2.656,10.034,10.034,0,0,1,3.379,5.275,10.725,10.725,0,0,1,.24,4.759,15.466,15.466,0,0,1-1.352,4.149q-.932,1.857-2.608,4.665a40.588,40.588,0,0,0-2.754,4.918,7.777,7.777,0,0,0-.661,3.927,3.5,3.5,0,0,1-.573,2.261,3.159,3.159,0,0,1-1.845,1.245A2.928,2.928,0,0,1-930,1466.079Zm2.2,14.736a5.82,5.82,0,0,1-2.7-3.671,5.822,5.822,0,0,1,.5-4.528,5.642,5.642,0,0,1,3.629-2.723,5.558,5.558,0,0,1,4.437.561,5.819,5.819,0,0,1,2.7,3.67,5.823,5.823,0,0,1-.5,4.529,5.554,5.554,0,0,1-3.562,2.705A5.641,5.641,0,0,1-927.8,1480.815Z" fill="#f08800"/>
        </g>
      </g>
      <g id="VOCÊ_SABIA_2" data-name="VOCÊ SABIA 2" style="mix-blend-mode: normal;isolation: isolate">
        <g id="Grupo_1891" data-name="Grupo 1891" style="mix-blend-mode: normal;isolation: isolate">
          <path id="Caminho_13570" data-name="Caminho 13570" d="M-1124.58,1404.118a6.1,6.1,0,0,1,2.924-1.72,7.07,7.07,0,0,1,4.931.46,5.29,5.29,0,0,1,3.085,3.535,6.053,6.053,0,0,1,.086,2.648l-9.733,53.368a6.818,6.818,0,0,1-1.951,3.685,8.221,8.221,0,0,1-3.71,2.107,8.239,8.239,0,0,1-4.265.032,6.809,6.809,0,0,1-3.533-2.216l-35.126-41.339a5.509,5.509,0,0,1-1.228-2.254,5.3,5.3,0,0,1,.963-4.71,7.517,7.517,0,0,1,4.207-2.909,6.3,6.3,0,0,1,3.433.016,5.632,5.632,0,0,1,2.9,2.025l28.2,34.113,7.355-43.646A5.7,5.7,0,0,1-1124.58,1404.118Z" fill="#ffd000"/>
          <path id="Caminho_13571" data-name="Caminho 13571" d="M-1083.723,1452.379a25.856,25.856,0,0,1-12.733-7.805,35.5,35.5,0,0,1-7.755-14.973,35.5,35.5,0,0,1-.776-16.846,25.611,25.611,0,0,1,7.131-13.087,31.254,31.254,0,0,1,14.182-7.72,31.258,31.258,0,0,1,16.142-.41,25.624,25.624,0,0,1,12.723,7.764,35.521,35.521,0,0,1,7.754,14.975,35.5,35.5,0,0,1,.777,16.844,25.875,25.875,0,0,1-7.122,13.128,30.956,30.956,0,0,1-14.169,7.763A30.967,30.967,0,0,1-1083.723,1452.379Zm23.583-18.655q2.814-6.276.209-15.995t-8.131-13.717q-5.523-3.994-12.917-2.012t-10.136,8.194q-2.742,6.21-.136,15.932t8.141,13.757q5.533,4.038,12.845,2.077T-1060.14,1433.724Z" fill="#ffd000"/>
          <path id="Caminho_13572" data-name="Caminho 13572" d="M-1018.29,1434.88a25.464,25.464,0,0,1-12.776-7.794,35.787,35.787,0,0,1-7.766-15.014,35.523,35.523,0,0,1-.776-16.846,25.546,25.546,0,0,1,7.174-13.1,31.331,31.331,0,0,1,14.14-7.709,31.26,31.26,0,0,1,20.379.948,6.475,6.475,0,0,1,2.279,1.526,5.735,5.735,0,0,1,1.166,2.358,6.016,6.016,0,0,1-.213,4.021,3.754,3.754,0,0,1-2.537,2.327,6.668,6.668,0,0,1-2.113.256,8.234,8.234,0,0,1-2.231-.516,29.069,29.069,0,0,0-6.982-1.467,19.5,19.5,0,0,0-6.321.67q-7.977,2.139-10.679,8.163t-.076,15.826q5.3,19.772,21.335,15.472a18.14,18.14,0,0,0,5.559-2.513,38.148,38.148,0,0,0,5.562-4.831,12.3,12.3,0,0,1,1.8-1.6,5.986,5.986,0,0,1,1.833-.8,3.758,3.758,0,0,1,3.361.745,6.023,6.023,0,0,1,2.2,3.374,5.634,5.634,0,0,1,.14,2.68,6.343,6.343,0,0,1-1.18,2.407,31.252,31.252,0,0,1-17.171,11.017A31.3,31.3,0,0,1-1018.29,1434.88Z" fill="#ffd000"/>
          <path id="Caminho_13573" data-name="Caminho 13573" d="M-971.827,1423.848a6.279,6.279,0,0,1-2.781-4.062l-12.452-46.44a6.289,6.289,0,0,1,.376-4.91,6.282,6.282,0,0,1,4.063-2.78l29.409-7.886q6.148-1.648,7.484,3.337,1.359,5.068-4.789,6.716l-22.845,6.126,3.675,13.707,21.184-5.68q6.147-1.648,7.507,3.419,1.335,4.984-4.812,6.633l-21.184,5.679,3.943,14.706,22.845-6.126q6.147-1.648,7.507,3.419,1.335,4.986-4.812,6.632l-29.409,7.886A6.272,6.272,0,0,1-971.827,1423.848Zm-5.062-64.716a3.816,3.816,0,0,1-2.937-.326,3.4,3.4,0,0,1-1.738-2.161,3.759,3.759,0,0,1,.739-3.225l5.132-7.431a6.515,6.515,0,0,1,3.791-2.8,6.535,6.535,0,0,1,4.682.525l8.16,3.868a3.758,3.758,0,0,1,2.253,2.423,3.407,3.407,0,0,1-.423,2.74,3.712,3.712,0,0,1-2.3,1.73,4.417,4.417,0,0,1-3.326-.444l-7.224-4.03-4.24,7.1A4.125,4.125,0,0,1-976.889,1359.132Z" fill="#ffd000"/>
        </g>
        <g id="Grupo_1892" data-name="Grupo 1892" style="mix-blend-mode: normal;isolation: isolate">
          <path id="Caminho_13574" data-name="Caminho 13574" d="M-1136.194,1533.139a20.861,20.861,0,0,1-8.216-1.495,4.731,4.731,0,0,1-1.826-1.164,4.6,4.6,0,0,1-.982-1.955,4.584,4.584,0,0,1,.243-3.163,3.065,3.065,0,0,1,2-1.872,4.606,4.606,0,0,1,1.474-.151,9.335,9.335,0,0,1,1.9.373,22.873,22.873,0,0,0,6.41,1.063,24.088,24.088,0,0,0,6.591-.888,12.978,12.978,0,0,0,6.248-3.224,4.771,4.771,0,0,0,1.189-4.754,3.85,3.85,0,0,0-3.016-2.712,28.37,28.37,0,0,0-8.22-.331,43.5,43.5,0,0,1-10.566-.407,13.079,13.079,0,0,1-6.5-2.974,12.012,12.012,0,0,1-3.383-5.923,12.852,12.852,0,0,1,.4-8.1,16.444,16.444,0,0,1,5.243-6.968,24.234,24.234,0,0,1,9.055-4.435q9.327-2.5,16.622.543a5.453,5.453,0,0,1,1.844,1.23,4.47,4.47,0,0,1,.964,1.89,4.6,4.6,0,0,1-.243,3.163,3.075,3.075,0,0,1-2,1.873,4.6,4.6,0,0,1-1.4.164,9.623,9.623,0,0,1-1.97-.387,28.515,28.515,0,0,0-5.646-1.232,17.08,17.08,0,0,0-5.977.687,11.588,11.588,0,0,0-5.892,3.234,5.017,5.017,0,0,0-1.163,4.854,3.943,3.943,0,0,0,1.582,2.356,7.625,7.625,0,0,0,3.441,1.014,46.467,46.467,0,0,0,6.319.066q9.461-.424,14.2,1.615a10.575,10.575,0,0,1,6.18,7.426,12.749,12.749,0,0,1-.342,8.048,15.568,15.568,0,0,1-5.23,6.753,26.157,26.157,0,0,1-9.344,4.408A38.032,38.032,0,0,1-1136.194,1533.139Z" fill="#ffd000"/>
          <path id="Caminho_13575" data-name="Caminho 13575" d="M-1058.377,1508.508a4.12,4.12,0,0,1-.642,3.517,5.2,5.2,0,0,1-3.039,2.187,4.579,4.579,0,0,1-2.55-.056,4.5,4.5,0,0,1-2.262-1.611l-5.561-6.817-22.267,5.97-1.4,8.684a4.575,4.575,0,0,1-1.12,2.518,4.521,4.521,0,0,1-2.212,1.333,5.318,5.318,0,0,1-3.759-.364,4.086,4.086,0,0,1-2.348-2.715,5.456,5.456,0,0,1-.038-2.243l7.75-42a5.324,5.324,0,0,1,1.524-2.98,6.372,6.372,0,0,1,2.867-1.647,6.318,6.318,0,0,1,3.383.007,6.032,6.032,0,0,1,2.866,1.767l27.723,32.489A5.494,5.494,0,0,1-1058.377,1508.508Zm-19.613-9.6-12.2-15.038-3.106,19.141Z" fill="#ffd000"/>
          <path id="Caminho_13576" data-name="Caminho 13576" d="M-1020.983,1481.619a12.013,12.013,0,0,1,4.129,6.6,11.6,11.6,0,0,1-1.819,10.416q-3.387,4.57-10.94,6.6l-17.211,4.614a4.967,4.967,0,0,1-3.882-.3,4.965,4.965,0,0,1-2.2-3.214l-9.846-36.719a4.967,4.967,0,0,1,.3-3.88,4.96,4.96,0,0,1,3.213-2.2l16.553-4.439q7.226-1.937,12.325.145a10.825,10.825,0,0,1,6.6,7.667,11.022,11.022,0,0,1-.238,6.858,11.389,11.389,0,0,1-4.288,5.409A12.024,12.024,0,0,1-1020.983,1481.619ZM-1049,1481l9.656-2.588q3.94-1.056,5.452-2.9a4.887,4.887,0,0,0,.771-4.608,5.037,5.037,0,0,0-3.008-3.735q-2.232-.843-6.174.212l-9.656,2.589Zm21.646,13.771a5.4,5.4,0,0,0,.642-4.96,5.6,5.6,0,0,0-3.055-4.039q-2.226-.951-6.3.14l-10.838,2.906,3.169,11.824,10.839-2.906Q-1028.82,1496.64-1027.35,1494.767Z" fill="#ffd000"/>
          <path id="Caminho_13577" data-name="Caminho 13577" d="M-1005.245,1497.642a5.241,5.241,0,0,1-2.383-3.375l-9.88-36.851a5.139,5.139,0,0,1,.393-4.047,5.235,5.235,0,0,1,3.374-2.384,5.233,5.233,0,0,1,4.114.376,5.146,5.146,0,0,1,2.366,3.308l9.88,36.851a5.246,5.246,0,0,1-.375,4.114,5.249,5.249,0,0,1-3.375,2.384A5.24,5.24,0,0,1-1005.245,1497.642Z" fill="#ffd000"/>
          <path id="Caminho_13578" data-name="Caminho 13578" d="M-944.345,1477.934a4.123,4.123,0,0,1-.641,3.517,5.2,5.2,0,0,1-3.039,2.187,4.56,4.56,0,0,1-2.55-.057,4.492,4.492,0,0,1-2.263-1.61l-5.56-6.817-22.268,5.97-1.4,8.685a4.583,4.583,0,0,1-1.12,2.517,4.534,4.534,0,0,1-2.213,1.334,5.329,5.329,0,0,1-3.759-.365,4.088,4.088,0,0,1-2.348-2.716,5.471,5.471,0,0,1-.038-2.243l7.75-42a5.325,5.325,0,0,1,1.525-2.98,6.372,6.372,0,0,1,2.867-1.648,6.324,6.324,0,0,1,3.382.008,6.042,6.042,0,0,1,2.868,1.767l27.721,32.49A5.451,5.451,0,0,1-944.345,1477.934Zm-19.612-9.6-12.2-15.036-3.106,19.14Z" fill="#ffd000"/>
        </g>
        <g id="Grupo_1893" data-name="Grupo 1893" style="mix-blend-mode: normal;isolation: isolate">
          <path id="Caminho_13579" data-name="Caminho 13579" d="M-933.517,1462.82a4.166,4.166,0,0,1-1.549-2.443,12.147,12.147,0,0,1-.285-6,29.477,29.477,0,0,1,2.291-5.972,27.972,27.972,0,0,0,1.714-4.139,6.04,6.04,0,0,0,0-3.323,3.741,3.741,0,0,0-2.161-2.6,5.936,5.936,0,0,0-3.994-.108,9.517,9.517,0,0,0-3.734,1.929q-1.6,1.36-4.184,3.98a7.309,7.309,0,0,1-2.914,1.925,3,3,0,0,1-2.7-.6,4.814,4.814,0,0,1-1.762-2.705,4.513,4.513,0,0,1-.112-2.15,5.085,5.085,0,0,1,.946-1.932,22.989,22.989,0,0,1,5.792-5.447,24.679,24.679,0,0,1,7.35-3.365,18.779,18.779,0,0,1,7.826-.526,12.681,12.681,0,0,1,6.213,2.656,10.041,10.041,0,0,1,3.379,5.276,10.733,10.733,0,0,1,.24,4.758,15.529,15.529,0,0,1-1.353,4.148q-.932,1.857-2.607,4.664a40.334,40.334,0,0,0-2.754,4.918,7.786,7.786,0,0,0-.662,3.93,3.5,3.5,0,0,1-.573,2.26,3.161,3.161,0,0,1-1.845,1.245A2.932,2.932,0,0,1-933.517,1462.82Zm2.2,14.736a5.827,5.827,0,0,1-2.7-3.671,5.822,5.822,0,0,1,.5-4.528,5.641,5.641,0,0,1,3.628-2.724,5.557,5.557,0,0,1,4.437.561,5.823,5.823,0,0,1,2.7,3.671,5.826,5.826,0,0,1-.5,4.528,5.555,5.555,0,0,1-3.562,2.7A5.638,5.638,0,0,1-931.317,1477.556Z" fill="#ffd000"/>
        </g>
      </g>
    </g>
  </g>
</svg>
