<svg xmlns="http://www.w3.org/2000/svg" width="147.833" height="49.074" viewBox="0 0 147.833 49.074"><defs><style>.a,.b{fill:#b50014;}.b{fill-rule:evenodd;}</style></defs><g transform="translate(0 0)"><g transform="translate(0 0)"><path class="a" d="M156.893,321l1.062-.5.426.9-1.062.5Zm2.456-1.162,6.134-2.9.426.9-6.134,2.9Z" transform="translate(-156.893 -283.412)"/><path class="a" d="M158.893,296.806l-.149-1,1.012-.152a3.036,3.036,0,0,1-1.488-2.193,2,2,0,0,1,.317-1.566,2.041,2.041,0,0,1,1.393-.747l4.82-.723.148.985-4.7.7a1.252,1.252,0,0,0-.923.47,1.319,1.319,0,0,0-.15.934,2.279,2.279,0,0,0,.29.833,2.345,2.345,0,0,0,.528.625,2,2,0,0,0,.683.367,1.65,1.65,0,0,0,.741.062l4.037-.606.15,1Z" transform="translate(-157.869 -264.107)"/><path class="a" d="M164.506,266.393a1.263,1.263,0,0,0,1.138-.2,1.88,1.88,0,0,0,.564-1,3.686,3.686,0,0,0,.091-.568,1.863,1.863,0,0,0-.035-.571,1.176,1.176,0,0,0-.226-.478.835.835,0,0,0-.471-.285.759.759,0,0,0-.675.143,3.074,3.074,0,0,0-.591.627q-.287.393-.572.864a5.372,5.372,0,0,1-.632.849,2.6,2.6,0,0,1-.763.585,1.386,1.386,0,0,1-.973.069,1.512,1.512,0,0,1-.715-.381,1.631,1.631,0,0,1-.4-.641,2.544,2.544,0,0,1-.131-.806,3.54,3.54,0,0,1,.107-.888,4.145,4.145,0,0,1,.338-.915,2.412,2.412,0,0,1,.514-.682,1.612,1.612,0,0,1,.689-.371,1.982,1.982,0,0,1,.861-.012q-.029.119-.072.263t-.069.25l-.115.464a.891.891,0,0,0-.846.3,2.26,2.26,0,0,0-.438.919,1.728,1.728,0,0,0,0,1.033.751.751,0,0,0,.539.491.712.712,0,0,0,.642-.151,3.227,3.227,0,0,0,.584-.629q.287-.393.585-.861a6.562,6.562,0,0,1,.638-.848,2.631,2.631,0,0,1,.743-.59,1.236,1.236,0,0,1,.894-.089,1.915,1.915,0,0,1,.869.44,1.828,1.828,0,0,1,.475.722,2.624,2.624,0,0,1,.145.922,4.48,4.48,0,0,1-.136,1.035,3.468,3.468,0,0,1-.368.922,2.4,2.4,0,0,1-.6.7,2.117,2.117,0,0,1-.82.388,2.229,2.229,0,0,1-1.01-.01Z" transform="translate(-159.236 -243.182)"/><path class="a" d="M165.036,238.027l1.71,1.077.56-.889.728.458-.56.89,3.72,2.343a.761.761,0,0,0,.638.152.827.827,0,0,0,.431-.365,2.268,2.268,0,0,0,.2-.422l.693.437a3.238,3.238,0,0,1-.366.786,1.944,1.944,0,0,1-.335.4,1.172,1.172,0,0,1-.423.249,1.057,1.057,0,0,1-.507.036,1.52,1.52,0,0,1-.572-.231l-4.02-2.532-.56.89-.728-.459.561-.89-1.71-1.077Z" transform="translate(-162.432 -225.945)"/><path class="a" d="M177.7,218.227l.827.834-.708.7-.827-.834Zm1.913,1.93,4.777,4.819-.708.7-4.777-4.819Z" transform="translate(-171.53 -211.524)"/><path class="a" d="M195.708,207.454l1.063,1.718.894-.553.453.731-.894.553,2.314,3.738a.76.76,0,0,0,.507.417.831.831,0,0,0,.549-.139,2.3,2.3,0,0,0,.366-.291l.431.7a3.219,3.219,0,0,1-.674.546,1.939,1.939,0,0,1-.477.215,1.181,1.181,0,0,1-.49.038,1.064,1.064,0,0,1-.471-.19,1.524,1.524,0,0,1-.412-.459l-2.5-4.039-.894.553-.453-.731.894-.553-1.063-1.718Z" transform="translate(-184.536 -203.678)"/><path class="a" d="M225.387,206.972l-.97.228-.234-1a3.116,3.116,0,0,1-.9,1.116,3.164,3.164,0,0,1-1.175.55,1.878,1.878,0,0,1-2.445-1.516l-1.114-4.744.984-.231L220.616,206a1.253,1.253,0,0,0,.544.882,1.323,1.323,0,0,0,.942.073,2.244,2.244,0,0,0,.794-.355,2.435,2.435,0,0,0,.586-.58,1.957,1.957,0,0,0,.317-.712,1.658,1.658,0,0,0,0-.743l-.933-3.974.97-.228Z" transform="translate(-201.795 -198.516)"/><path class="a" d="M252.739,193.654l-.193,2.011,1.046.1-.082.856-1.046-.1-.42,4.376a.761.761,0,0,0,.152.638.83.83,0,0,0,.52.221,2.257,2.257,0,0,0,.468-.01l-.078.816a3.223,3.223,0,0,1-.867.027,1.935,1.935,0,0,1-.51-.117,1.18,1.18,0,0,1-.414-.266,1.067,1.067,0,0,1-.26-.437,1.522,1.522,0,0,1-.051-.615l.453-4.73-1.047-.1.082-.856,1.046.1.193-2.011Z" transform="translate(-225.003 -193.558)"/><path class="a" d="M267.97,209.1a4.47,4.47,0,0,1,.722-1.177,3.38,3.38,0,0,1,.984-.8,2.81,2.81,0,0,1,1.182-.321,2.957,2.957,0,0,1,1.316.254,3,3,0,0,1,1.1.773,2.87,2.87,0,0,1,.6,1.079,3.309,3.309,0,0,1,.115,1.265,4.649,4.649,0,0,1-1.068,2.513,3.315,3.315,0,0,1-.99.8,2.8,2.8,0,0,1-1.192.309,3.057,3.057,0,0,1-1.319-.264,3.016,3.016,0,0,1-1.1-.764,2.739,2.739,0,0,1-.593-1.068,3.375,3.375,0,0,1-.109-1.262A4.473,4.473,0,0,1,267.97,209.1Zm.917.39a3.543,3.543,0,0,0-.268,1,2.632,2.632,0,0,0,.051.926,1.936,1.936,0,0,0,.384.771,1.936,1.936,0,0,0,1.6.678,2,2,0,0,0,.828-.257,2.554,2.554,0,0,0,.709-.6,3.732,3.732,0,0,0,.8-1.885,2.571,2.571,0,0,0-.058-.929,2.083,2.083,0,0,0-.388-.78,1.881,1.881,0,0,0-1.6-.678,2.014,2.014,0,0,0-.825.265,2.643,2.643,0,0,0-.7.606A3.553,3.553,0,0,0,268.888,209.485Z" transform="translate(-237.527 -203.199)"/></g><g transform="translate(13.65 8.416)"><path class="b" d="M425.066,263.284c-5.594-4.556-6.281-11.394-7.027-18.044-.686-6.1.746-12.945-1.074-18.489-.709-2.162-2.749-2.74-4.669-1.743-6.613,3.43-9.027,13.247-10.327,21.532l-.849.627c1.343,3.895-.79,8.916,1.478,12.985.367.661,1.432.059,1.7-.461a.777.777,0,0,0-.719-1.194c-.808-1.925-.278-5.527-.342-8.041-.047-1.842,3.069-.6,4.369-1.049a83.758,83.758,0,0,0,8.638-.63c.494,4.524.975,8.583,3.449,12.266,1.291,1.928,3.005,4.811,5.146,4.012A1,1,0,0,0,425.066,263.284Zm-18.119-16.006c-.222-1.388-2.647-.664-3.052-.739.94-6.831,3.046-13.654,8.193-18.712,1.209-1.192,2.732-.93,2.864.714.58,6.712.672,12.58,1.074,19.387A42.975,42.975,0,0,0,406.946,247.278Z" transform="translate(-348.412 -224.533)"/><path class="b" d="M515.343,271.082c.194,3.11,2.113,5.322,3.311,8.151-.013.926-1.55.289-2.1,0-.846-.442-1.79-1.712-2.152-1.166-.734,1.118-1.393,2.584-2.741,3.031a4.667,4.667,0,0,1-4.687-1.1,5.282,5.282,0,0,1-1.834-5.286,4.167,4.167,0,0,1,2.326-2.6,3.872,3.872,0,0,1,3.235.009,2.119,2.119,0,0,1,1.063,2.767c-.343.7-1.408,1.392-2.232.8-.222-.157-.376-.381-.224-.616.293-.453,1.332-.43,1.115-1.083-.169-.505-1.435-.512-2.106-.135a2.58,2.58,0,0,0-1.163,3.269,4.088,4.088,0,0,0,2.371,2.105c1.478.493,2.58-.743,3.179-1.791,1.9-3.324-1.653-10.917,1.475-14.6C517.009,264.849,515.132,267.666,515.343,271.082Z" transform="translate(-424.07 -252.437)"/><path class="b" d="M343.1,269.807c-.666.667-2.728-.013-4.161.166-2.193.135-4.877,1.348-5.24,3.281-1.057,5.618,6.547,9.932,6.715,13.706.2,4.371-5.49,3.4-8.818,5.192a.7.7,0,0,1-.8-1.13c1.684-1.407,4.1-1.591,6.213-2.274,1.044-.338,2-.877,1.787-2.015-.24-1.288-4.2-5.51-5.952-8.643-.581,2.06-2.817,2.462-4.027,3.939-.538.628.113,1.318.82,1.45,1.622.3,2.032-.775,2.581.028a1.09,1.09,0,0,1-.9,1.616c-1.567.245-4.139-.02-4.431-1.929-.473-3.079,4.774-4.309,4.431-5.417s-3,.625-3.268.225c-.565-.865.965-1.263,1.612-1.479a2.818,2.818,0,0,1,2.552.315,6.7,6.7,0,0,1,1.476-5.823c2.015-2.2,6.67-2.82,9.4-1.21" transform="translate(-294.336 -256.847)"/><path class="b" d="M211.436,253.362a5.761,5.761,0,0,0-1.752,3.961c-.115,3,4.241,3.791,2.716,7.073-.736,1.414-2.945,2.829-1.529,4.356,1.64,1.642,4.715,2.916,4.41,5.235a1.171,1.171,0,0,1-2.2.257c-1.576-2.915-6.851-4.086-5.695-7.954.506-1.683,3.6-2.757,2.3-4.158-1.338-1.438-2.466-2.931-2.547-4.809-.124-2.868,2.093-5.831,4.865-7.018.5-.215,1.58-.334,1.659.566S212.151,252.642,211.436,253.362Z" transform="translate(-207.131 -243.192)"/><path class="b" d="M248.783,272.768c-1.34-1.354-.662-4.174-1.388-4.79-1.529-1.3-1.6,1.2-2.371,1.926a3.647,3.647,0,0,1-3.849.627c-.706-.39-1.434-.942-1.343-1.791,2.821-3.495,5.636-7.432,4.475-12.222a3.037,3.037,0,0,0-5.373-1.168c-3.059,3.762-4.194,10.238-1.836,14.593a6.278,6.278,0,0,0,4.869,2.967c1.886.235,2.632-1.409,4.266.129C247.488,274.22,249.68,273.676,248.783,272.768Zm-8.862-14.417c.828-1.53,3-1.879,3,.312.043,3.315-2.059,6-4.3,8.288C237.684,264.037,238.564,260.868,239.921,258.351Z" transform="translate(-228.037 -246.108)"/><path class="b" d="M274.383,286.44c-.587-1.715-2.461-.223-3-.625a1.75,1.75,0,0,0-1.255,1.7c.113,1.187,1.716,1.187,2.623.973C273.633,288.283,274.754,287.527,274.383,286.44Zm-1.88.691c-.412.318-1.1-.326-.467-.709.1.1.345.062.481.127C272.761,286.664,272.76,286.934,272.5,287.131Z" transform="translate(-253.01 -269.004)"/><path class="b" d="M556.229,294.083a3.209,3.209,0,0,1,3.464-.094c.707.43,1.157.9.7,1.5-.7.9-1.76-.107-2.511.3-.932.5-1.156,2.761-2.711,1.657-.7-1.96-1.513-5.729-.5-6.429,1.45-1,.8,2.211,1.557,3.061" transform="translate(-459.898 -272.817)"/><path class="b" d="M670.4,297.519a3.135,3.135,0,0,1,.372,3.745c-1.476,2.23-4.523,2.259-6.951,1.429a5.329,5.329,0,0,1-3.481-2.729,3.177,3.177,0,0,1,.717-3.311c.635-.737,2.483-1.614,2.374-.718s-1.568,1.21-1.79,2.193c-.405,1.612,1.141,2.593,2.236,3,1.516.557,3.556.979,5.1.133a2,2,0,0,0,.714-2.061c-.439-1.98-3.175-1.611-2.86-3.448A5.139,5.139,0,0,1,670.4,297.519Z" transform="translate(-537.045 -276.258)"/><path class="b" d="M481.074,311.563c.446.371.138,1.254-.447.941-2.064-1.11-2.678-3.61-3.626-5.553a.892.892,0,0,0-1.34-.4c-1.466.748-1.591,3.415-2.82,3.091-.977-.258-.853-2.2-.316-3.091.581.108.436,1.074.9,1.161.672-1.118,1.262-2.691,2.732-2.686,2.865.014,3,4.477,4.921,6.539" transform="translate(-400.116 -283.154)"/><path class="b" d="M610.521,279.9A10.351,10.351,0,0,1,602.6,276.5c-2.952-3.669-4.25-9.133-2.328-13.7,2.42-.313,6.362.111,7.566-.313-1-.857-4.653-.717-6.849-.762-.4,0-.508-.5-.4-.852.135-.444.34-1.285,1.164-1.209.687.062.565-.673.449-1.029-1.391-3.177-3,2.013-3.851,3.089-2.553-.313-7.012-.059-8.731-.852-.891-.412-.955.813-.446,1.034,2.667,1.143,6.4.444,8.952.985l-.538,5.235a9.16,9.16,0,0,0-7.342-.537v-.315a2.28,2.28,0,0,0-1.789-1.834,4.984,4.984,0,0,0-4.075,1.074,7,7,0,0,0-2.015,4.882c-.8-.226-.086-1.345-1.072-1.21-.627.137-1.388.9-1.074,1.524a2.38,2.38,0,0,0,2.235,1.162c5.509,7.794,5.921-5.419,11.956-3.984.7.168,2.062.295,1.788,1.435-.155.646-2.6,0-4.027.311a2.7,2.7,0,0,0-1.926,1.924,4.72,4.72,0,0,0,1.075,4.029c.908,1.079,2.544,1.332,3.716,1.524.931.153,2.292.24,2.236-.9-.108-2.261-4.4-.044-5.1-2.555-1.214-4.346,4.656-.175,5.865-3.265.894,4.343,4.741,8.411,9.042,10.117,1.2.476,3.257,1.269,4.384.313C612.1,281.282,611.584,279.886,610.521,279.9Zm-24.89-6.852c-.556-.639.807-1.029,1.3-1.255C586.528,272.246,586.017,273.494,585.631,273.05Zm.585-2.729c-.486.35-1.256,1.072-1.613.311.089-1.7,1.789-3.673,3.716-3.045C589.241,268.225,587.065,269.693,586.216,270.322Z" transform="translate(-478.794 -248.627)"/><path class="b" d="M299.881,256.768c-1.611-1.122-6.53-.926-4.565-3.585,3.089-4.17,5.866-6.991,3.908-13.547-1.139-3.808-3.939-3.461-4.94-1.663-3.326,5.985-1.742,11.5-.669,17.854-1.253.537-3.551.416-3.536,2.1.053,5.286,2.663,9.312,4.951,13.882.421.845.913.694,1.136.628.813-.24.729-2.311,1.165-3.628C298.884,264.112,292.628,257.127,299.881,256.768Zm-3.716-17.6c.786-.916,1.442,1.448,1.668,2.209.82,4-.591,7.149-2.832,10.016C294.286,247.591,293.583,242.181,296.165,239.17ZM295,267.336c-1.387-2.419-3.015-5.2-2.683-8.242.111-1.038,1.252-.934,1.877-1.068A32.08,32.08,0,0,1,295,267.336Z" transform="translate(-267.541 -233.374)"/></g></g></svg>