<svg xmlns="http://www.w3.org/2000/svg" width="78.387" height="51.402" viewBox="0 0 78.387 51.402">
  <g id="Grupo_498" data-name="Grupo 498" transform="translate(1341.105 -1909.652)">
    <circle id="Elipse_30" data-name="Elipse 30" cx="25.701" cy="25.701" r="25.701" transform="translate(-1328.444 1909.652)" fill="#36a39a"/>
    <g id="Grupo_355" data-name="Grupo 355">
      <g id="EUREKA_" data-name="EUREKA ">
        <g id="EUREKA_2" data-name="EUREKA 2" style="mix-blend-mode: normal;isolation: isolate">
          <g id="Grupo_1915" data-name="Grupo 1915" style="mix-blend-mode: normal;isolation: isolate">
            <path id="Caminho_13694" data-name="Caminho 13694" d="M-1337.819,1951.949a1.552,1.552,0,0,1-.685-1.005l-2.522-9.409a1.557,1.557,0,0,1,.089-1.212,1.552,1.552,0,0,1,1-.684l6.086-1.632a1.826,1.826,0,0,1,1.227.011,1.158,1.158,0,0,1,.633.811q.339,1.265-1.191,1.676l-4.432,1.189.631,2.356,4.081-1.094q1.53-.41,1.866.839a1.159,1.159,0,0,1-.142,1.018,1.843,1.843,0,0,1-1.059.623l-4.081,1.094.689,2.567,4.433-1.188q1.529-.411,1.869.856a1.155,1.155,0,0,1-.142,1.019,1.837,1.837,0,0,1-1.058.623l-6.085,1.631A1.553,1.553,0,0,1-1337.819,1951.949Z" fill="#f08800"/>
            <path id="Caminho_13695" data-name="Caminho 13695" d="M-1326.6,1948.054a5.562,5.562,0,0,1-2.474-3.635l-1.523-5.68a1.611,1.611,0,0,1,.122-1.267,1.611,1.611,0,0,1,1.036-.741,1.609,1.609,0,0,1,1.268.123,1.619,1.619,0,0,1,.74,1.036l1.556,5.8a3.255,3.255,0,0,0,1.149,1.9,2.187,2.187,0,0,0,1.917.259,2.183,2.183,0,0,0,1.531-1.184,3.254,3.254,0,0,0,.046-2.217l-1.556-5.8a1.612,1.612,0,0,1,.122-1.267,1.611,1.611,0,0,1,1.036-.741,1.644,1.644,0,0,1,1.276.121,1.592,1.592,0,0,1,.749,1.033l1.523,5.681a5.525,5.525,0,0,1-.343,4.381,5.816,5.816,0,0,1-3.719,2.477A5.8,5.8,0,0,1-1326.6,1948.054Z" fill="#f08800"/>
            <path id="Caminho_13696" data-name="Caminho 13696" d="M-1304.067,1942.069a1.209,1.209,0,0,1-.214,1.066,1.724,1.724,0,0,1-.981.668,1.755,1.755,0,0,1-.843.02,1.823,1.823,0,0,1-.789-.412l-3.182-2.728a1.9,1.9,0,0,0-.657-.38,1.258,1.258,0,0,0-.688.006l-1.143.307.844,3.146a1.65,1.65,0,0,1-.108,1.283,1.6,1.6,0,0,1-1.045.743,1.633,1.633,0,0,1-1.285-.118,1.63,1.63,0,0,1-.744-1.054l-2.523-9.409a1.553,1.553,0,0,1,.089-1.212,1.555,1.555,0,0,1,1.005-.684l4.414-1.184a5.243,5.243,0,0,1,3.646.07,3.637,3.637,0,0,1,1.893,2.518,3.854,3.854,0,0,1-.136,2.591,3.934,3.934,0,0,1-1.829,1.894,2.468,2.468,0,0,1,1.114.116,3.749,3.749,0,0,1,1.094.669l1.511,1.272A1.708,1.708,0,0,1-1304.067,1942.069Zm-5.483-5.222a1.289,1.289,0,0,0,.174-1.216,1.341,1.341,0,0,0-.766-.991,2.751,2.751,0,0,0-1.63.069l-2.252.6.774,2.885,2.252-.6A2.783,2.783,0,0,0-1309.55,1936.847Z" fill="#f08800"/>
            <path id="Caminho_13697" data-name="Caminho 13697" d="M-1301.784,1942.288a1.554,1.554,0,0,1-.685-1.005l-2.522-9.41a1.549,1.549,0,0,1,.09-1.212,1.55,1.55,0,0,1,1-.684l6.085-1.631a1.828,1.828,0,0,1,1.228.011,1.153,1.153,0,0,1,.633.81q.339,1.266-1.191,1.677l-4.432,1.188.632,2.357,4.081-1.094q1.529-.411,1.864.838a1.152,1.152,0,0,1-.142,1.018,1.827,1.827,0,0,1-1.058.623l-4.08,1.094.688,2.568,4.433-1.189q1.529-.409,1.869.857a1.15,1.15,0,0,1-.142,1.017,1.832,1.832,0,0,1-1.058.625l-6.085,1.631A1.553,1.553,0,0,1-1301.784,1942.288Z" fill="#f08800"/>
            <path id="Caminho_13698" data-name="Caminho 13698" d="M-1281.025,1935.627a1.453,1.453,0,0,1-.166,1.139,1.472,1.472,0,0,1-.92.717,1.7,1.7,0,0,1-1.347-.242l-6.389-3.791,1.113,4.15a1.621,1.621,0,0,1-.126,1.287,1.693,1.693,0,0,1-1.081.752,1.637,1.637,0,0,1-1.285-.117,1.639,1.639,0,0,1-.744-1.055l-2.523-9.408a1.618,1.618,0,0,1,.122-1.268,1.632,1.632,0,0,1,1.054-.745,1.694,1.694,0,0,1,1.312.111,1.6,1.6,0,0,1,.748,1.034l1.037,3.869,3.608-6.3a1.461,1.461,0,0,1,.91-.753,1.468,1.468,0,0,1,1.136.159,1.417,1.417,0,0,1,.711.892,1.532,1.532,0,0,1-.222,1.211l-2.658,4.5,4.979,2.963A1.421,1.421,0,0,1-1281.025,1935.627Z" fill="#f08800"/>
            <path id="Caminho_13699" data-name="Caminho 13699" d="M-1267.763,1932.147a1.307,1.307,0,0,1-.2,1.11,1.634,1.634,0,0,1-.955.69,1.407,1.407,0,0,1-.8-.013,1.475,1.475,0,0,1-.7-.492l-1.268-1.564-5.7,1.529-.333,1.992a1.452,1.452,0,0,1-.366.777,1.457,1.457,0,0,1-.692.411,1.694,1.694,0,0,1-1.189-.114,1.283,1.283,0,0,1-.748-.855,1.577,1.577,0,0,1-.017-.694l2.088-10.777a1.689,1.689,0,0,1,.482-.91,2.041,2.041,0,0,1,.924-.523,2.081,2.081,0,0,1,1.054-.009,1.689,1.689,0,0,1,.882.546l7.2,8.288A1.563,1.563,0,0,1-1267.763,1932.147Zm-5.658-2.4-2.811-3.451-.707,4.394Z" fill="#f08800"/>
            <path id="Caminho_13700" data-name="Caminho 13700" d="M-1266.573,1928.6a1.234,1.234,0,0,1-.514-.617l-2.382-5.224a1.954,1.954,0,0,1-.093-.277,1.58,1.58,0,0,1,.2-1.383,2.106,2.106,0,0,1,1.226-.811,2.065,2.065,0,0,1,1.477.1,1.618,1.618,0,0,1,.861,1.107,1.874,1.874,0,0,1,.059.287l.529,5.7a1.16,1.16,0,0,1-.119.787.892.892,0,0,1-.558.414A.9.9,0,0,1-1266.573,1928.6Zm.463,4.117a1.721,1.721,0,0,1-.81-1.084,1.725,1.725,0,0,1,.159-1.343,1.7,1.7,0,0,1,1.09-.82,1.677,1.677,0,0,1,1.337.17,1.723,1.723,0,0,1,.809,1.083,1.727,1.727,0,0,1-.159,1.344,1.673,1.673,0,0,1-1.072.815A1.7,1.7,0,0,1-1266.11,1932.722Z" fill="#f08800"/>
          </g>
        </g>
      </g>
      <g id="EUREKA_2-2" data-name="EUREKA 2-2">
        <g id="EUREKA_3" data-name="EUREKA 3" style="mix-blend-mode: normal;isolation: isolate">
          <g id="Grupo_1916" data-name="Grupo 1916" style="mix-blend-mode: normal;isolation: isolate">
            <path id="Caminho_13701" data-name="Caminho 13701" d="M-1337.08,1952.161a1.556,1.556,0,0,1-.685-1.005l-2.522-9.41a1.55,1.55,0,0,1,.09-1.211,1.551,1.551,0,0,1,1-.684l6.085-1.632a1.819,1.819,0,0,1,1.227.012,1.149,1.149,0,0,1,.633.809q.339,1.266-1.191,1.677l-4.432,1.189.632,2.356,4.081-1.094q1.528-.409,1.865.839a1.156,1.156,0,0,1-.142,1.018,1.839,1.839,0,0,1-1.059.623l-4.08,1.094.688,2.567,4.433-1.188q1.529-.411,1.869.856a1.155,1.155,0,0,1-.142,1.019,1.834,1.834,0,0,1-1.057.623l-6.086,1.631A1.549,1.549,0,0,1-1337.08,1952.161Z" fill="#ffd000"/>
            <path id="Caminho_13702" data-name="Caminho 13702" d="M-1325.861,1948.266a5.564,5.564,0,0,1-2.475-3.635l-1.522-5.68a1.611,1.611,0,0,1,.122-1.267,1.608,1.608,0,0,1,1.036-.74,1.606,1.606,0,0,1,1.267.122,1.614,1.614,0,0,1,.741,1.036l1.555,5.8a3.252,3.252,0,0,0,1.15,1.9,2.184,2.184,0,0,0,1.917.26,2.184,2.184,0,0,0,1.53-1.184,3.257,3.257,0,0,0,.046-2.218l-1.556-5.8a1.612,1.612,0,0,1,.122-1.267,1.61,1.61,0,0,1,1.036-.74,1.642,1.642,0,0,1,1.277.12,1.6,1.6,0,0,1,.749,1.033l1.522,5.681a5.521,5.521,0,0,1-.343,4.381,5.813,5.813,0,0,1-3.718,2.477A5.794,5.794,0,0,1-1325.861,1948.266Z" fill="#ffd000"/>
            <path id="Caminho_13703" data-name="Caminho 13703" d="M-1303.328,1942.282a1.21,1.21,0,0,1-.214,1.066,1.727,1.727,0,0,1-.981.668,1.767,1.767,0,0,1-.842.019,1.819,1.819,0,0,1-.789-.412l-3.183-2.728a1.871,1.871,0,0,0-.657-.379,1.248,1.248,0,0,0-.688.005l-1.142.307.843,3.147a1.65,1.65,0,0,1-.108,1.283,1.6,1.6,0,0,1-1.045.741,1.633,1.633,0,0,1-1.285-.116,1.639,1.639,0,0,1-.744-1.054l-2.523-9.41a1.558,1.558,0,0,1,.089-1.212,1.561,1.561,0,0,1,1.005-.684l4.414-1.184a5.251,5.251,0,0,1,3.647.07,3.638,3.638,0,0,1,1.892,2.518,3.854,3.854,0,0,1-.136,2.591,3.932,3.932,0,0,1-1.829,1.9,2.474,2.474,0,0,1,1.115.115,3.729,3.729,0,0,1,1.093.669l1.511,1.272A1.7,1.7,0,0,1-1303.328,1942.282Zm-5.483-5.223a1.289,1.289,0,0,0,.174-1.216,1.338,1.338,0,0,0-.765-.991,2.743,2.743,0,0,0-1.63.069l-2.252.6.773,2.885,2.252-.6A2.783,2.783,0,0,0-1308.811,1937.059Z" fill="#ffd000"/>
            <path id="Caminho_13704" data-name="Caminho 13704" d="M-1301.045,1942.5a1.547,1.547,0,0,1-.685-1l-2.522-9.41a1.548,1.548,0,0,1,.09-1.212,1.55,1.55,0,0,1,1-.683l6.085-1.632a1.825,1.825,0,0,1,1.227.011,1.148,1.148,0,0,1,.633.81q.341,1.266-1.19,1.677l-4.433,1.189.632,2.356,4.081-1.094q1.529-.411,1.864.838a1.152,1.152,0,0,1-.141,1.019,1.845,1.845,0,0,1-1.059.623l-4.08,1.093.688,2.568,4.433-1.189q1.528-.409,1.869.857a1.144,1.144,0,0,1-.142,1.017,1.821,1.821,0,0,1-1.058.624l-6.085,1.632A1.549,1.549,0,0,1-1301.045,1942.5Z" fill="#ffd000"/>
            <path id="Caminho_13705" data-name="Caminho 13705" d="M-1280.286,1935.839a1.449,1.449,0,0,1-.166,1.139,1.476,1.476,0,0,1-.92.718,1.7,1.7,0,0,1-1.347-.243l-6.389-3.791,1.113,4.15a1.616,1.616,0,0,1-.126,1.288,1.694,1.694,0,0,1-1.08.751,1.637,1.637,0,0,1-1.285-.117,1.635,1.635,0,0,1-.745-1.054l-2.523-9.409a1.618,1.618,0,0,1,.122-1.268,1.634,1.634,0,0,1,1.054-.745,1.689,1.689,0,0,1,1.312.112,1.592,1.592,0,0,1,.748,1.033l1.037,3.869,3.608-6.3a1.47,1.47,0,0,1,.91-.753,1.467,1.467,0,0,1,1.136.158,1.428,1.428,0,0,1,.712.894,1.535,1.535,0,0,1-.223,1.21l-2.658,4.5,4.979,2.963A1.422,1.422,0,0,1-1280.286,1935.839Z" fill="#ffd000"/>
            <path id="Caminho_13706" data-name="Caminho 13706" d="M-1267.024,1932.359a1.3,1.3,0,0,1-.2,1.11,1.631,1.631,0,0,1-.955.69,1.409,1.409,0,0,1-.8-.013,1.481,1.481,0,0,1-.7-.492l-1.267-1.564-5.7,1.529-.333,1.992a1.444,1.444,0,0,1-.366.777,1.444,1.444,0,0,1-.691.411,1.691,1.691,0,0,1-1.19-.114,1.287,1.287,0,0,1-.748-.856,1.572,1.572,0,0,1-.016-.693l2.087-10.776a1.688,1.688,0,0,1,.482-.911,2.048,2.048,0,0,1,.925-.523,2.044,2.044,0,0,1,1.053-.008,1.681,1.681,0,0,1,.882.545l7.2,8.288A1.554,1.554,0,0,1-1267.024,1932.359Zm-5.658-2.405-2.81-3.45-.707,4.394Z" fill="#ffd000"/>
            <path id="Caminho_13707" data-name="Caminho 13707" d="M-1265.834,1928.817a1.23,1.23,0,0,1-.514-.617l-2.382-5.224a1.841,1.841,0,0,1-.092-.277,1.573,1.573,0,0,1,.2-1.383,2.1,2.1,0,0,1,1.225-.81,2.066,2.066,0,0,1,1.477.095,1.615,1.615,0,0,1,.861,1.107,1.915,1.915,0,0,1,.059.287l.529,5.7a1.157,1.157,0,0,1-.119.786.9.9,0,0,1-.558.414A.9.9,0,0,1-1265.834,1928.817Zm.463,4.117a1.727,1.727,0,0,1-.81-1.084,1.725,1.725,0,0,1,.159-1.343,1.7,1.7,0,0,1,1.09-.82,1.677,1.677,0,0,1,1.337.17,1.723,1.723,0,0,1,.809,1.083,1.727,1.727,0,0,1-.158,1.344,1.678,1.678,0,0,1-1.073.815A1.7,1.7,0,0,1-1265.371,1932.934Z" fill="#ffd000"/>
          </g>
        </g>
      </g>
    </g>
  </g>
</svg>
