<svg xmlns="http://www.w3.org/2000/svg" width="95.844" height="80.866" viewBox="0 0 95.844 80.866"><defs><style>.a{fill:#003062;}.b{fill:#fff;}</style></defs><g transform="translate(0 0)"><path class="a" d="M182.033,352.385l3.855,0v-9.676h-8.331v3.328l4.311.018c-.836,1.511-1.947,2.93-3.928,2.911-2.183.11-4.329-1.727-4.384-4.766-.092-3.292,2.2-5.038,4.239-4.965a3.479,3.479,0,0,1,3.22,2.11l3.946-1.874a7.935,7.935,0,0,0-7.021-4.091c-4.93-.036-8.823,3.037-8.987,8.639a8.462,8.462,0,0,0,7.9,8.585,6.027,6.027,0,0,0,5.184-2.073Zm6.728.016H200.2v-3.621h-6.912v-3.256h5.82v-3.509h-5.8v-2.856H200.2v-3.673H188.761Zm61.868-16.915.019,10.585c0,4.093,2.493,6.421,7.093,6.33,4.458-.092,6.675-2.057,7.057-6.294V335.486h-4.473V345.6a2.408,2.408,0,0,1-2.583,2.838,2.37,2.37,0,0,1-2.673-2.838V335.486Zm-41.519,7.945a2.191,2.191,0,0,0,0-4.375,7.189,7.189,0,0,0-1.1,0h-.953v4.338l1.41.037A3.726,3.726,0,0,0,209.11,343.431Zm0-7.926a7.361,7.361,0,0,1,4.339,1.116,5.064,5.064,0,0,1,1.995,4.21,4.559,4.559,0,0,1-3.879,4.833l4.888,6.737h-5.474l-1.869-2.91-2.049-3.223V352.4h-4.43V335.486h5.236C208.287,335.486,208.708,335.5,209.11,335.5Zm16.223.054a7.745,7.745,0,0,1,3.736,1.3,8.85,8.85,0,0,1,3.586,7.1,8.391,8.391,0,0,1-4.117,7.47,9.632,9.632,0,0,1-3.205.879,17.294,17.294,0,0,1-2.014.092h-5.035V335.486h5.894C224.564,335.5,224.948,335.522,225.333,335.559Zm0,12.742c1.592-.385,2.637-1.647,2.563-4.449-.073-2.636-1.024-3.86-2.563-4.266a5.443,5.443,0,0,0-1.117-.162H222.77v8.987h1.391A6.055,6.055,0,0,0,225.333,348.3Zm15.845-12.8h2.564l6.207,16.9H245.1l-.916-3.112h-6.041L237.3,352.4h-4.78l5.86-16.9Zm0,10.289h1.978l-1.978-5.968-.127-.4-1.85,6.371Z" transform="translate(-168.953 -287.801)"/><rect class="a" width="40.863" height="40.31" transform="translate(27.49 0)"/><path class="b" d="M350.877,201.879h-2.936v-1.392A6.767,6.767,0,0,1,343.2,202.3a8.424,8.424,0,0,1-8.508-8.646c0-4,2.812-8.66,8.424-8.66a8.667,8.667,0,0,1,7.732,5.016l-2.539,1.522s-1.75-3.316-5.136-3.316a5.423,5.423,0,0,0,.057,10.846,5.136,5.136,0,0,0,4.317-2.325H343.2v-3.1h7.682Z" transform="translate(-303.169 -166.024)"/><path class="b" d="M422.4,193.643h7.68v3.1H425.73a5.133,5.133,0,0,0,4.316,2.324,5.424,5.424,0,0,0,.058-10.847c-3.386,0-5.137,3.316-5.137,3.316l-2.539-1.523A8.668,8.668,0,0,1,430.161,185c5.611,0,8.423,4.658,8.423,8.66a8.424,8.424,0,0,1-8.509,8.646,6.768,6.768,0,0,1-4.744-1.815v1.393H422.4Z" transform="translate(-374.196 -166.025)"/><path class="a" d="M265.032,471.254a1.438,1.438,0,0,0,.9-.284.88.88,0,0,0,.371-.729v-.433a.066.066,0,0,0-.074-.074h-.878a1.589,1.589,0,0,0-.878.21.669.669,0,0,0-.321.593.634.634,0,0,0,.241.525.993.993,0,0,0,.636.192M265.28,466a3.517,3.517,0,0,1,1.434.278,2.367,2.367,0,0,1,.983.76,1.78,1.78,0,0,1,.352,1.076v4.129a.186.186,0,0,1-.21.21h-1.323a.186.186,0,0,1-.21-.21v-.3c0-.033-.008-.052-.025-.056s-.037.006-.062.031a2.165,2.165,0,0,1-1.694.631,2.364,2.364,0,0,1-1.533-.47,1.675,1.675,0,0,1-.581-1.385,1.772,1.772,0,0,1,.668-1.477,3.017,3.017,0,0,1,1.9-.525h1.249a.065.065,0,0,0,.074-.074v-.26a.814.814,0,0,0-.253-.637,1.063,1.063,0,0,0-.736-.229,1.334,1.334,0,0,0-.612.124.65.65,0,0,0-.328.346.234.234,0,0,1-.247.161l-1.372-.173a.312.312,0,0,1-.154-.056.115.115,0,0,1-.043-.117,1.652,1.652,0,0,1,.427-.915,2.423,2.423,0,0,1,.964-.637A3.7,3.7,0,0,1,265.28,466Zm-5.86,4.5a3.2,3.2,0,0,0-.012-2.5.944.944,0,0,0-.828-.482.962.962,0,0,0-.866.47,2.5,2.5,0,0,0-.3,1.3,2.538,2.538,0,0,0,.259,1.211.97.97,0,0,0,.9.532A.922.922,0,0,0,259.42,470.5Zm.26-6.491a.186.186,0,0,1,.21-.21h1.323a.186.186,0,0,1,.21.21v8.234a.186.186,0,0,1-.21.21h-1.323a.186.186,0,0,1-.21-.21v-.334q0-.05-.031-.056c-.021,0-.039.006-.056.031a1.669,1.669,0,0,1-1.409.668,2.372,2.372,0,0,1-1.49-.5,2.551,2.551,0,0,1-.9-1.317,4.489,4.489,0,0,1-.21-1.483,4.342,4.342,0,0,1,.235-1.533,2.585,2.585,0,0,1,.9-1.261,2.369,2.369,0,0,1,1.465-.47,1.715,1.715,0,0,1,1.409.606c.017.025.035.033.056.025s.031-.029.031-.062ZM253,472.453a.186.186,0,0,1-.21-.21v-8.234a.186.186,0,0,1,.21-.21h1.323a.186.186,0,0,1,.21.21v8.234a.186.186,0,0,1-.21.21Zm-4.3-1.4a1,1,0,0,0,.68-.247,1.376,1.376,0,0,0,.408-.68,3.117,3.117,0,0,0,.1-.865,3.341,3.341,0,0,0-.1-.878,1.3,1.3,0,0,0-.408-.655,1.069,1.069,0,0,0-.7-.235,1.051,1.051,0,0,0-.692.235,1.3,1.3,0,0,0-.408.655,3.342,3.342,0,0,0-.1.878,3.285,3.285,0,0,0,.1.865,1.353,1.353,0,0,0,.414.68A1.059,1.059,0,0,0,248.7,471.056Zm0,1.5a2.947,2.947,0,0,1-1.792-.544,2.716,2.716,0,0,1-1.014-1.483,4.407,4.407,0,0,1-.173-1.261,4.155,4.155,0,0,1,.185-1.31,2.668,2.668,0,0,1,1.02-1.434,3.018,3.018,0,0,1,1.786-.519,2.9,2.9,0,0,1,1.737.519,2.689,2.689,0,0,1,1.008,1.422,4.181,4.181,0,0,1,.185,1.3,4.842,4.842,0,0,1-.161,1.249,2.826,2.826,0,0,1-1.02,1.514A2.859,2.859,0,0,1,248.7,472.552ZM242.606,466a1.966,1.966,0,0,1,1.508.581,2.3,2.3,0,0,1,.544,1.632v4.031a.186.186,0,0,1-.21.21h-1.323a.186.186,0,0,1-.21-.21V468.6a1.177,1.177,0,0,0-.26-.8.874.874,0,0,0-.692-.3.912.912,0,0,0-.7.3,1.126,1.126,0,0,0-.272.791v3.66a.186.186,0,0,1-.21.21h-1.31a.186.186,0,0,1-.21-.21V468.6a1.149,1.149,0,0,0-.272-.8.9.9,0,0,0-.7-.3.961.961,0,0,0-.661.235.991.991,0,0,0-.315.655v3.857a.186.186,0,0,1-.21.21h-1.323a.186.186,0,0,1-.21-.21v-5.934a.186.186,0,0,1,.21-.21h1.323a.186.186,0,0,1,.21.21v.4c0,.033.01.054.031.062s.039,0,.056-.037a1.767,1.767,0,0,1,1.558-.729,2.184,2.184,0,0,1,1.075.253,1.71,1.71,0,0,1,.7.736c.008.033.023.047.043.043a.09.09,0,0,0,.056-.043,1.887,1.887,0,0,1,.742-.742A2.15,2.15,0,0,1,242.606,466Zm-13.537,1.5a1.1,1.1,0,0,0-.661.192.967.967,0,0,0-.365.538c-.041.157-.066.26-.074.309s.012.074.062.074h2.1c.041,0,.062-.016.062-.049a.9.9,0,0,0-.05-.284,1.113,1.113,0,0,0-.383-.569A1.1,1.1,0,0,0,229.069,467.5Zm.321,3.585a1.619,1.619,0,0,0,1.249-.569.212.212,0,0,1,.161-.087.188.188,0,0,1,.136.062l.7.68a.214.214,0,0,1,.074.148.23.23,0,0,1-.049.148,2.817,2.817,0,0,1-1.045.8,3.31,3.31,0,0,1-1.391.291,2.981,2.981,0,0,1-1.885-.581,2.841,2.841,0,0,1-1.008-1.595,4.352,4.352,0,0,1-.148-1.15,4.628,4.628,0,0,1,.136-1.211,2.64,2.64,0,0,1,1-1.471,2.889,2.889,0,0,1,1.774-.556,2.586,2.586,0,0,1,1.922.717,3.594,3.594,0,0,1,.921,2.015q.049.408.074.9a.186.186,0,0,1-.21.21h-3.8a.066.066,0,0,0-.074.074,1.784,1.784,0,0,0,.086.383,1.009,1.009,0,0,0,.488.587A1.784,1.784,0,0,0,229.39,471.081Zm-6.75,1.459a4.065,4.065,0,0,1-1.447-.235,2.158,2.158,0,0,1-.952-.655,1.489,1.489,0,0,1-.334-.952v-.062a.186.186,0,0,1,.21-.21h1.249q.21,0,.21.074v.087a.55.55,0,0,0,.3.464,1.366,1.366,0,0,0,.754.191,1.277,1.277,0,0,0,.68-.161.48.48,0,0,0,.26-.42.356.356,0,0,0-.223-.334,3.77,3.77,0,0,0-.729-.235,7.644,7.644,0,0,1-.9-.284,3.918,3.918,0,0,1-1.273-.668,1.4,1.4,0,0,1-.47-1.137,1.721,1.721,0,0,1,.717-1.453,3.052,3.052,0,0,1,1.879-.538,3.547,3.547,0,0,1,1.391.253,2.123,2.123,0,0,1,.927.711,1.739,1.739,0,0,1,.328,1.038.13.13,0,0,1-.056.105.247.247,0,0,1-.155.043H223.79q-.21,0-.21-.074v-.074a.543.543,0,0,0-.272-.457,1.276,1.276,0,0,0-.729-.185,1.371,1.371,0,0,0-.674.148.453.453,0,0,0-.266.408.4.4,0,0,0,.254.371,4.309,4.309,0,0,0,.835.26,6.1,6.1,0,0,1,.692.185,4.008,4.008,0,0,1,1.4.668,1.434,1.434,0,0,1,.507,1.187,1.648,1.648,0,0,1-.73,1.428A3.333,3.333,0,0,1,222.64,472.54Zm-9.074-1.484a1,1,0,0,0,.68-.247,1.376,1.376,0,0,0,.408-.68,3.118,3.118,0,0,0,.1-.865,3.342,3.342,0,0,0-.1-.878,1.3,1.3,0,0,0-.408-.655,1.069,1.069,0,0,0-.7-.235,1.051,1.051,0,0,0-.693.235,1.3,1.3,0,0,0-.408.655,3.345,3.345,0,0,0-.1.878,3.288,3.288,0,0,0,.1.865,1.353,1.353,0,0,0,.414.68A1.059,1.059,0,0,0,213.566,471.056Zm0,1.5a2.947,2.947,0,0,1-1.792-.544,2.717,2.717,0,0,1-1.014-1.483,4.407,4.407,0,0,1-.173-1.261,4.152,4.152,0,0,1,.185-1.31,2.668,2.668,0,0,1,1.02-1.434,3.018,3.018,0,0,1,1.786-.519,2.9,2.9,0,0,1,1.737.519,2.69,2.69,0,0,1,1.008,1.422,4.182,4.182,0,0,1,.186,1.3,4.855,4.855,0,0,1-.161,1.249,2.827,2.827,0,0,1-1.02,1.514A2.859,2.859,0,0,1,213.566,472.552Zm-4.228-6.54a1.307,1.307,0,0,1,.655.148.213.213,0,0,1,.111.26l-.235,1.3c-.008.074-.031.119-.068.136a.317.317,0,0,1-.179,0,1.5,1.5,0,0,0-.359-.049,2.558,2.558,0,0,0-.284.025,1.214,1.214,0,0,0-.754.328,1.01,1.01,0,0,0-.309.772v3.313a.186.186,0,0,1-.21.21h-1.323a.186.186,0,0,1-.21-.21v-5.934a.186.186,0,0,1,.21-.21h1.323a.186.186,0,0,1,.21.21v.383c0,.033.008.054.025.062s.037,0,.062-.025A1.543,1.543,0,0,1,209.338,466.012Zm-6.194.3a.186.186,0,0,1,.21-.21h1.323a.186.186,0,0,1,.21.21v5.934a.186.186,0,0,1-.21.21h-1.323a.186.186,0,0,1-.21-.21v-.334c0-.033-.01-.052-.031-.056s-.039.006-.056.031a1.762,1.762,0,0,1-1.521.656,2.168,2.168,0,0,1-1.545-.569,2.081,2.081,0,0,1-.606-1.595v-4.067a.186.186,0,0,1,.21-.21h1.311a.186.186,0,0,1,.21.21v3.635a1.189,1.189,0,0,0,.266.8.918.918,0,0,0,.736.309.976.976,0,0,0,.692-.253,1.1,1.1,0,0,0,.334-.661Zm-4.76.977a.186.186,0,0,1-.21.21h-1.113a.066.066,0,0,0-.074.074v2.559a.9.9,0,0,0,.167.6.678.678,0,0,0,.538.192h.346a.186.186,0,0,1,.21.21v1.063a.206.206,0,0,1-.21.222q-.47.025-.68.025a2.742,2.742,0,0,1-1.533-.346,1.476,1.476,0,0,1-.519-1.286V467.57a.066.066,0,0,0-.074-.074H194.6a.186.186,0,0,1-.21-.21v-.977a.186.186,0,0,1,.21-.21h.631a.066.066,0,0,0,.074-.074v-1.4a.186.186,0,0,1,.21-.21h1.261a.186.186,0,0,1,.21.21v1.4a.066.066,0,0,0,.074.074h1.113a.186.186,0,0,1,.21.21Zm-6.676-.977a.186.186,0,0,1,.21-.21h1.323a.186.186,0,0,1,.21.21v5.934a.186.186,0,0,1-.21.21h-1.323a.186.186,0,0,1-.21-.21v-.334q0-.05-.031-.056a.054.054,0,0,0-.056.031,1.762,1.762,0,0,1-1.521.656,2.168,2.168,0,0,1-1.545-.569,2.081,2.081,0,0,1-.606-1.595v-4.067a.186.186,0,0,1,.21-.21h1.311a.186.186,0,0,1,.21.21v3.635a1.189,1.189,0,0,0,.266.8.918.918,0,0,0,.736.309.976.976,0,0,0,.692-.253,1.1,1.1,0,0,0,.334-.661Zm-4.933-.222a.186.186,0,0,1,.21.21v1.051a.186.186,0,0,1-.21.21H185.65a.066.066,0,0,0-.074.074v4.611a.186.186,0,0,1-.21.21h-1.323a.186.186,0,0,1-.21-.21v-4.611a.066.066,0,0,0-.074-.074H183.1a.186.186,0,0,1-.21-.21V466.3a.186.186,0,0,1,.21-.21h.655a.066.066,0,0,0,.074-.074v-.26a2.5,2.5,0,0,1,.235-1.193,1.306,1.306,0,0,1,.76-.606,4.3,4.3,0,0,1,1.453-.154h.408a.186.186,0,0,1,.21.21v.878a.186.186,0,0,1-.21.21h-.346a.877.877,0,0,0-.6.179.862.862,0,0,0-.167.612v.124a.065.065,0,0,0,.074.074Zm-10.521,5.007a1.464,1.464,0,0,0,1.1-.433,1.58,1.58,0,0,0,.42-1.15v-2.72a1.615,1.615,0,0,0-.414-1.156,1.449,1.449,0,0,0-1.106-.439,1.434,1.434,0,0,0-1.094.439,1.615,1.615,0,0,0-.414,1.156v2.72a1.593,1.593,0,0,0,.414,1.15A1.444,1.444,0,0,0,176.255,471.093Zm0,1.5a3.536,3.536,0,0,1-1.7-.4,2.844,2.844,0,0,1-1.144-1.107,3.233,3.233,0,0,1-.408-1.638V466.8a3.175,3.175,0,0,1,.408-1.62,2.813,2.813,0,0,1,1.144-1.094,3.93,3.93,0,0,1,3.412,0,2.813,2.813,0,0,1,1.144,1.094,3.173,3.173,0,0,1,.408,1.62v2.646a3.265,3.265,0,0,1-.408,1.644,2.79,2.79,0,0,1-1.144,1.107A3.607,3.607,0,0,1,176.255,472.589Z" transform="translate(-172.233 -391.723)"/></g></svg>