<svg xmlns="http://www.w3.org/2000/svg" width="301.939" height="242.814" viewBox="0 0 301.939 242.814">
  <g id="Grupo_481" data-name="Grupo 481" transform="translate(1441.801 -490.94)">
    <circle id="Elipse_30-5" data-name="Elipse 30-5" cx="121.407" cy="121.407" r="121.407" transform="translate(-1408.829 490.94)" fill="#36a39a"/>
    <g id="Grupo_355-5" data-name="Grupo 355-5" transform="translate(-1441.801 530.909)">
      <g id="PALAVRA_ENIGMÁTICA" data-name="PALAVRA ENIGMÁTICA" style="mix-blend-mode: normal;isolation: isolate">
        <g id="Grupo_1904" data-name="Grupo 1904" style="mix-blend-mode: normal;isolation: isolate">
          <path id="Caminho_13624" data-name="Caminho 13624" d="M-1430.6,641.5a4.691,4.691,0,0,1-2.137-3.023l-8.839-32.968a4.461,4.461,0,0,1,.266-3.48,4.457,4.457,0,0,1,2.88-1.969l14.776-3.962q6.768-1.815,11.453.588t6.324,8.529q1.642,6.122-1.21,10.546t-9.623,6.241l-9.89,2.652,3.047,11.362a4.693,4.693,0,0,1-.336,3.686,4.689,4.689,0,0,1-3.025,2.137A4.7,4.7,0,0,1-1430.6,641.5Zm10.852-26.131q6.887-1.847,5.292-7.793-1.608-6-8.5-4.157l-8.713,2.335,3.2,11.95Z" transform="translate(1441.801 -532.607)" fill="#f08800"/>
          <path id="Caminho_13625" data-name="Caminho 13625" d="M-1357.86,619a3.688,3.688,0,0,1-.574,3.15,4.652,4.652,0,0,1-2.725,1.962,4.1,4.1,0,0,1-2.285-.049,4.038,4.038,0,0,1-2.027-1.444l-4.983-6.11-19.958,5.35-1.257,7.783a4.108,4.108,0,0,1-1,2.258,4.071,4.071,0,0,1-1.983,1.194,4.759,4.759,0,0,1-3.368-.329,3.657,3.657,0,0,1-2.1-2.433,4.885,4.885,0,0,1-.034-2.01l6.946-37.641a4.76,4.76,0,0,1,1.366-2.671,5.7,5.7,0,0,1,2.568-1.478,5.675,5.675,0,0,1,3.032.006,5.406,5.406,0,0,1,2.57,1.586l24.846,29.117A4.9,4.9,0,0,1-1357.86,619Zm-17.578-8.6-10.933-13.475-2.783,17.153Z" transform="translate(1441.125 -532.461)" fill="#f08800"/>
          <path id="Caminho_13626" data-name="Caminho 13626" d="M-1350.353,619.8a4.458,4.458,0,0,1-1.97-2.878l-8.84-32.97a4.614,4.614,0,0,1,.352-3.628,4.7,4.7,0,0,1,3.025-2.136,4.694,4.694,0,0,1,3.687.336,4.61,4.61,0,0,1,2.12,2.965l7.987,29.789,15.072-4.04q4.3-1.152,5.308,2.616.995,3.71-3.3,4.861l-19.957,5.352A4.461,4.461,0,0,1-1350.353,619.8Z" transform="translate(1440.492 -532.325)" fill="#f08800"/>
          <path id="Caminho_13627" data-name="Caminho 13627" d="M-1279.284,597.934a3.685,3.685,0,0,1-.575,3.151,4.646,4.646,0,0,1-2.723,1.962,4.1,4.1,0,0,1-2.285-.05,4.033,4.033,0,0,1-2.027-1.444l-4.983-6.109-19.958,5.349-1.258,7.783a4.111,4.111,0,0,1-1,2.259,4.07,4.07,0,0,1-1.983,1.193,4.764,4.764,0,0,1-3.368-.329,3.659,3.659,0,0,1-2.105-2.432,4.894,4.894,0,0,1-.035-2.012l6.947-37.64a4.76,4.76,0,0,1,1.366-2.671,5.711,5.711,0,0,1,2.568-1.477,5.664,5.664,0,0,1,3.032.006,5.41,5.41,0,0,1,2.569,1.584l24.846,29.118A4.923,4.923,0,0,1-1279.284,597.934Zm-17.577-8.6-10.933-13.476-2.784,17.152Z" transform="translate(1439.846 -532.118)" fill="#f08800"/>
          <path id="Caminho_13628" data-name="Caminho 13628" d="M-1256.349,551.444a4.314,4.314,0,0,1,2.072-1.219,5,5,0,0,1,3.494.326,3.747,3.747,0,0,1,2.187,2.506,4.3,4.3,0,0,1,.062,1.877l-6.9,37.816a4.819,4.819,0,0,1-1.382,2.613,5.83,5.83,0,0,1-2.629,1.492,5.815,5.815,0,0,1-3.023.024,4.806,4.806,0,0,1-2.5-1.571l-24.892-29.293a3.893,3.893,0,0,1-.871-1.6,3.751,3.751,0,0,1,.683-3.338,5.319,5.319,0,0,1,2.982-2.061,4.467,4.467,0,0,1,2.432.01,4.006,4.006,0,0,1,2.057,1.435l19.985,24.174,5.212-30.929A4.044,4.044,0,0,1-1256.349,551.444Z" transform="translate(1439.344 -531.871)" fill="#f08800"/>
          <path id="Caminho_13629" data-name="Caminho 13629" d="M-1199.19,576.864a3.434,3.434,0,0,1-.6,3.063,4.963,4.963,0,0,1-2.807,1.887,4.97,4.97,0,0,1-2.32.055,4.557,4.557,0,0,1-2.208-1.175l-10.864-9.456a7.258,7.258,0,0,0-2.712-1.64,5.588,5.588,0,0,0-3.007.082l-4.768,1.279,3.188,11.892a4.746,4.746,0,0,1-.308,3.677,4.506,4.506,0,0,1-2.935,2.113,4.7,4.7,0,0,1-3.687-.336,4.7,4.7,0,0,1-2.137-3.024l-8.839-32.968a4.45,4.45,0,0,1,.266-3.479,4.461,4.461,0,0,1,2.879-1.971l14.776-3.96q7.3-1.96,11.9.249t6.224,8.27a12.422,12.422,0,0,1-.518,8.658,13.175,13.175,0,0,1-6.355,6.185,8,8,0,0,1,3.52.539,12.3,12.3,0,0,1,3.475,2.253l6.274,5.513A4.654,4.654,0,0,1-1199.19,576.864Zm-17.154-18.087a5.331,5.331,0,0,0,.606-4.8,5.322,5.322,0,0,0-2.934-3.884q-2.128-.879-6.074.176l-8.772,2.353,3.063,11.422,8.772-2.353Q-1217.74,560.635-1216.344,558.777Z" transform="translate(1438.572 -531.74)" fill="#f08800"/>
          <path id="Caminho_13630" data-name="Caminho 13630" d="M-1153.609,564.238a3.691,3.691,0,0,1-.574,3.151,4.655,4.655,0,0,1-2.724,1.963,4.12,4.12,0,0,1-2.285-.05,4.052,4.052,0,0,1-2.028-1.444l-4.983-6.11-19.957,5.351-1.258,7.781a4.107,4.107,0,0,1-1,2.259,4.059,4.059,0,0,1-1.983,1.193,4.755,4.755,0,0,1-3.369-.328,3.659,3.659,0,0,1-2.1-2.433,4.885,4.885,0,0,1-.034-2.01l6.946-37.642a4.777,4.777,0,0,1,1.366-2.671,5.712,5.712,0,0,1,2.571-1.476,5.658,5.658,0,0,1,3.03.006,5.4,5.4,0,0,1,2.571,1.584l24.845,29.117A4.922,4.922,0,0,1-1153.609,564.238Zm-17.577-8.6-10.933-13.475-2.784,17.153Z" transform="translate(1437.8 -531.57)" fill="#f08800"/>
        </g>
        <g id="Grupo_1905" data-name="Grupo 1905" transform="translate(11.997 53.155)" style="mix-blend-mode: normal;isolation: isolate">
          <path id="Caminho_13631" data-name="Caminho 13631" d="M-1421.061,688.875a3.445,3.445,0,0,1-1.529-2.233l-6.844-25.522a3.454,3.454,0,0,1,.208-2.7,3.453,3.453,0,0,1,2.232-1.528l16.163-4.333q3.378-.906,4.114,1.833.747,2.786-2.633,3.691l-12.554,3.366,2.02,7.533,11.641-3.121q3.379-.907,4.126,1.879.735,2.74-2.644,3.646l-11.641,3.12,2.166,8.082,12.555-3.367q3.378-.9,4.126,1.88.735,2.74-2.645,3.645l-16.161,4.333A3.453,3.453,0,0,1-1421.061,688.875Z" transform="translate(1429.606 -586.691)" fill="#f08800"/>
          <path id="Caminho_13632" data-name="Caminho 13632" d="M-1375.6,643.9a3.645,3.645,0,0,1,1.615,2.282l6.867,25.614a3.717,3.717,0,0,1-.244,2.831,3.339,3.339,0,0,1-2.18,1.635,3.419,3.419,0,0,1-2.966-.475l-20.546-15.488,4.615,17.213a3.815,3.815,0,0,1-.2,2.818,3.179,3.179,0,0,1-2.133,1.622,3.258,3.258,0,0,1-2.682-.331,3.763,3.763,0,0,1-1.605-2.335l-6.867-25.613a3.651,3.651,0,0,1,.257-2.785,3.335,3.335,0,0,1,2.179-1.636,3.2,3.2,0,0,1,2.921.489l20.51,15.349-4.59-17.121a3.7,3.7,0,0,1,.233-2.779,3.2,3.2,0,0,1,2.111-1.618A3.336,3.336,0,0,1-1375.6,643.9Z" transform="translate(1429.158 -586.546)" fill="#f08800"/>
          <path id="Caminho_13633" data-name="Caminho 13633" d="M-1358.5,672.366a3.647,3.647,0,0,1-1.657-2.346l-6.867-25.613a3.577,3.577,0,0,1,.273-2.812,3.639,3.639,0,0,1,2.345-1.657,3.642,3.642,0,0,1,2.86.261,3.583,3.583,0,0,1,1.645,2.3l6.866,25.613a3.642,3.642,0,0,1-.261,2.86,3.642,3.642,0,0,1-2.345,1.656A3.642,3.642,0,0,1-1358.5,672.366Z" transform="translate(1428.59 -586.486)" fill="#f08800"/>
          <path id="Caminho_13634" data-name="Caminho 13634" d="M-1323.164,645.291a2.619,2.619,0,0,1,1.273,1.738l2.387,8.9a10.834,10.834,0,0,1,.462,2.911,3.251,3.251,0,0,1-.6,1.873,6.356,6.356,0,0,1-1.923,1.592,27.058,27.058,0,0,1-3.852,1.964,33.255,33.255,0,0,1-4.274,1.487,19.3,19.3,0,0,1-9.391.39,14.155,14.155,0,0,1-7.282-4.164,18.978,18.978,0,0,1-4.378-8.3,18.963,18.963,0,0,1-.358-9.275,14.252,14.252,0,0,1,4.148-7.255,18.424,18.424,0,0,1,8.09-4.322,16.978,16.978,0,0,1,11.382.471,3.575,3.575,0,0,1,1.253.838,3.166,3.166,0,0,1,.64,1.3,3.305,3.305,0,0,1-.117,2.209,2.029,2.029,0,0,1-1.349,1.267,3.09,3.09,0,0,1-1.122.1,7.891,7.891,0,0,1-1.323-.28,16.4,16.4,0,0,0-3.969-.747,12.005,12.005,0,0,0-3.649.44q-9.314,2.5-6.413,13.318,1.495,5.572,4.647,7.659t8.04.781a21.314,21.314,0,0,0,5.067-2.091l-1.9-7.078-4.2,1.126a3.133,3.133,0,0,1-2.226-.087,2.377,2.377,0,0,1-1.22-1.631,2.385,2.385,0,0,1,.24-2.022,3.125,3.125,0,0,1,1.884-1.191l7.807-2.092A2.95,2.95,0,0,1-1323.164,645.291Z" transform="translate(1428.335 -586.361)" fill="#f08800"/>
          <path id="Caminho_13635" data-name="Caminho 13635" d="M-1288.69,620.579a3.642,3.642,0,0,1,1.615,2.282l6.953,25.932a3.313,3.313,0,0,1-.231,2.606,3.2,3.2,0,0,1-2.05,1.48,3.129,3.129,0,0,1-2.469-.267,3.315,3.315,0,0,1-1.5-2.142l-4.322-16.115-3.214,13.928a5.259,5.259,0,0,1-.928,2.107,3.088,3.088,0,0,1-1.657,1.032,3.118,3.118,0,0,1-1.928-.071,5.075,5.075,0,0,1-1.881-1.355L-1310,639.773l4.26,15.888a3.341,3.341,0,0,1-.236,2.584,3.15,3.15,0,0,1-2.044,1.5,3.132,3.132,0,0,1-2.469-.267,3.315,3.315,0,0,1-1.505-2.142l-6.952-25.932a3.637,3.637,0,0,1,.256-2.785,3.326,3.326,0,0,1,2.18-1.636,3.721,3.721,0,0,1,3.957,1.434l13.981,15.092,4.51-20.05a3.822,3.822,0,0,1,2.662-3.209A3.333,3.333,0,0,1-1288.69,620.579Z" transform="translate(1427.807 -586.166)" fill="#f08800"/>
          <path id="Caminho_13636" data-name="Caminho 13636" d="M-1242.544,638.717a2.863,2.863,0,0,1-.445,2.445,3.618,3.618,0,0,1-2.113,1.521,3.2,3.2,0,0,1-1.772-.04,3.127,3.127,0,0,1-1.573-1.12l-3.864-4.739-15.477,4.149-.976,6.035a3.192,3.192,0,0,1-.778,1.752,3.168,3.168,0,0,1-1.538.927,3.7,3.7,0,0,1-2.614-.254,2.844,2.844,0,0,1-1.632-1.888,3.806,3.806,0,0,1-.026-1.559l5.386-29.192a3.7,3.7,0,0,1,1.061-2.07,4.42,4.42,0,0,1,1.992-1.146,4.376,4.376,0,0,1,2.351.006,4.2,4.2,0,0,1,1.993,1.228l19.267,22.58A3.8,3.8,0,0,1-1242.544,638.717Zm-25.012-27.4a1.675,1.675,0,0,1-1.235-.133,1.387,1.387,0,0,1-.755-.9,1.767,1.767,0,0,1,.275-1.346l2.886-4.933a3.258,3.258,0,0,1,1.955-1.651,2.5,2.5,0,0,1,1.96.281,2.5,2.5,0,0,1,1.226,1.557,2.336,2.336,0,0,1-.1,1.447,3.746,3.746,0,0,1-1.076,1.462l-4.316,3.8A1.991,1.991,0,0,1-1267.556,611.313Zm11.383,20.733-8.48-10.45-2.159,13.3Z" transform="translate(1427.096 -585.876)" fill="#f08800"/>
          <path id="Caminho_13637" data-name="Caminho 13637" d="M-1233.361,638.67a3.525,3.525,0,0,1-1.667-2.292l-6.194-23.1-7.4,1.983q-3.379.906-4.162-2.015-.772-2.876,2.607-3.782l21.914-5.875q3.379-.906,4.15,1.97.784,2.922-2.6,3.827l-7.4,1.982,6.194,23.1a3.576,3.576,0,0,1-.274,2.813,3.633,3.633,0,0,1-2.345,1.657A3.652,3.652,0,0,1-1233.361,638.67Z" transform="translate(1426.73 -585.894)" fill="#f08800"/>
          <path id="Caminho_13638" data-name="Caminho 13638" d="M-1211.89,633.057a3.643,3.643,0,0,1-1.657-2.344l-6.867-25.613a3.579,3.579,0,0,1,.273-2.814,3.639,3.639,0,0,1,2.345-1.656,3.645,3.645,0,0,1,2.861.26,3.583,3.583,0,0,1,1.643,2.3l6.867,25.613a3.638,3.638,0,0,1-.261,2.858,3.645,3.645,0,0,1-2.346,1.657A3.645,3.645,0,0,1-1211.89,633.057Z" transform="translate(1426.204 -585.846)" fill="#f08800"/>
          <path id="Caminho_13639" data-name="Caminho 13639" d="M-1192.842,626.917a13.982,13.982,0,0,1-7.021-4.283,19.654,19.654,0,0,1-4.267-8.252,19.493,19.493,0,0,1-.427-9.257,14.043,14.043,0,0,1,3.942-7.2,17.223,17.223,0,0,1,7.771-4.235,17.181,17.181,0,0,1,11.2.52,3.558,3.558,0,0,1,1.252.838,3.178,3.178,0,0,1,.641,1.3,3.317,3.317,0,0,1-.117,2.208,2.067,2.067,0,0,1-1.395,1.279,3.652,3.652,0,0,1-1.161.141,4.5,4.5,0,0,1-1.228-.284,15.972,15.972,0,0,0-3.836-.806,10.661,10.661,0,0,0-3.474.369q-4.382,1.175-5.869,4.485t-.041,8.7q2.913,10.866,11.725,8.5a9.973,9.973,0,0,0,3.055-1.383,20.923,20.923,0,0,0,3.055-2.654,6.855,6.855,0,0,1,.989-.878,3.33,3.33,0,0,1,1.007-.441,2.071,2.071,0,0,1,1.848.409,3.313,3.313,0,0,1,1.206,1.856,3.077,3.077,0,0,1,.077,1.472,3.486,3.486,0,0,1-.648,1.324,17.183,17.183,0,0,1-9.437,6.053A17.2,17.2,0,0,1-1192.842,626.917Z" transform="translate(1425.949 -585.725)" fill="#f08800"/>
          <path id="Caminho_13640" data-name="Caminho 13640" d="M-1138.259,610.94a2.867,2.867,0,0,1-.446,2.445,3.621,3.621,0,0,1-2.113,1.521,3.2,3.2,0,0,1-1.771-.038,3.129,3.129,0,0,1-1.573-1.121l-3.864-4.738-15.478,4.15-.976,6.035a3.18,3.18,0,0,1-.777,1.751,3.163,3.163,0,0,1-1.539.927,3.7,3.7,0,0,1-2.613-.254,2.839,2.839,0,0,1-1.631-1.889,3.779,3.779,0,0,1-.027-1.558l5.386-29.191a3.7,3.7,0,0,1,1.06-2.072,4.431,4.431,0,0,1,1.993-1.145,4.373,4.373,0,0,1,2.35.006,4.185,4.185,0,0,1,1.993,1.227l19.269,22.582A3.813,3.813,0,0,1-1138.259,610.94Zm-13.632-6.671-8.479-10.45-2.159,13.3Z" transform="translate(1425.399 -585.604)" fill="#f08800"/>
        </g>
      </g>
      <g id="PALAVRA_ENIGMÁTICA-2" data-name="PALAVRA ENIGMÁTICA-2" transform="translate(2.698 2.487)" style="mix-blend-mode: normal;isolation: isolate">
        <g id="Grupo_1906" data-name="Grupo 1906" style="mix-blend-mode: normal;isolation: isolate">
          <path id="Caminho_13641" data-name="Caminho 13641" d="M-1427.86,644.027A4.693,4.693,0,0,1-1430,641l-8.84-32.97a4.452,4.452,0,0,1,.267-3.478,4.45,4.45,0,0,1,2.879-1.971l14.776-3.962q6.77-1.813,11.454.589t6.325,8.528q1.641,6.124-1.211,10.547t-9.623,6.241l-9.89,2.652,3.046,11.362a4.688,4.688,0,0,1-.336,3.686,4.7,4.7,0,0,1-3.024,2.137A4.7,4.7,0,0,1-1427.86,644.027Zm10.853-26.133q6.888-1.847,5.293-7.791-1.608-6.006-8.5-4.159l-8.714,2.336,3.2,11.951Z" transform="translate(1439.058 -535.135)" fill="#ffd000"/>
          <path id="Caminho_13642" data-name="Caminho 13642" d="M-1355.117,621.53a3.693,3.693,0,0,1-.575,3.152,4.645,4.645,0,0,1-2.723,1.962,4.106,4.106,0,0,1-2.286-.05,4.048,4.048,0,0,1-2.027-1.444l-4.983-6.11-19.958,5.351-1.257,7.783a4.1,4.1,0,0,1-1,2.257,4.068,4.068,0,0,1-1.983,1.2,4.77,4.77,0,0,1-3.368-.33,3.658,3.658,0,0,1-2.1-2.433,4.888,4.888,0,0,1-.035-2.011l6.946-37.641a4.772,4.772,0,0,1,1.366-2.67,5.707,5.707,0,0,1,2.569-1.477,5.662,5.662,0,0,1,3.031.006,5.4,5.4,0,0,1,2.571,1.584l24.846,29.117A4.917,4.917,0,0,1-1355.117,621.53Zm-17.577-8.6-10.933-13.475-2.784,17.152Z" transform="translate(1438.382 -534.989)" fill="#ffd000"/>
          <path id="Caminho_13643" data-name="Caminho 13643" d="M-1347.609,622.327a4.453,4.453,0,0,1-1.97-2.879l-8.84-32.968a4.614,4.614,0,0,1,.353-3.628,4.691,4.691,0,0,1,3.024-2.137,4.691,4.691,0,0,1,3.687.336,4.617,4.617,0,0,1,2.12,2.965l7.987,29.789,15.071-4.04q4.3-1.152,5.309,2.616.992,3.707-3.3,4.861l-19.957,5.351A4.453,4.453,0,0,1-1347.609,622.327Z" transform="translate(1437.749 -534.853)" fill="#ffd000"/>
          <path id="Caminho_13644" data-name="Caminho 13644" d="M-1276.54,600.462a3.692,3.692,0,0,1-.575,3.152,4.652,4.652,0,0,1-2.723,1.962,4.124,4.124,0,0,1-2.286-.049,4.044,4.044,0,0,1-2.028-1.444l-4.982-6.111-19.958,5.351-1.257,7.783a4.1,4.1,0,0,1-1,2.257,4.059,4.059,0,0,1-1.983,1.194,4.756,4.756,0,0,1-3.369-.329,3.658,3.658,0,0,1-2.1-2.433,4.884,4.884,0,0,1-.035-2.01l6.945-37.641a4.786,4.786,0,0,1,1.367-2.672,5.713,5.713,0,0,1,2.569-1.476,5.651,5.651,0,0,1,3.031.007,5.393,5.393,0,0,1,2.57,1.584l24.845,29.117A4.907,4.907,0,0,1-1276.54,600.462Zm-17.578-8.6-10.932-13.474-2.784,17.152Z" transform="translate(1437.103 -534.646)" fill="#ffd000"/>
          <path id="Caminho_13645" data-name="Caminho 13645" d="M-1253.6,553.972a4.308,4.308,0,0,1,2.071-1.218,5.009,5.009,0,0,1,3.5.323,3.757,3.757,0,0,1,2.186,2.508,4.3,4.3,0,0,1,.061,1.876l-6.9,37.818a4.838,4.838,0,0,1-1.382,2.612,5.835,5.835,0,0,1-2.628,1.493,5.826,5.826,0,0,1-3.023.022,4.808,4.808,0,0,1-2.5-1.57l-24.892-29.294a3.9,3.9,0,0,1-.871-1.6,3.756,3.756,0,0,1,.683-3.339,5.326,5.326,0,0,1,2.982-2.06,4.48,4.48,0,0,1,2.433.011,4,4,0,0,1,2.057,1.435l19.985,24.174,5.211-30.929A4.043,4.043,0,0,1-1253.6,553.972Z" transform="translate(1436.602 -534.399)" fill="#ffd000"/>
          <path id="Caminho_13646" data-name="Caminho 13646" d="M-1196.446,579.391a3.438,3.438,0,0,1-.6,3.064,4.981,4.981,0,0,1-2.808,1.888,4.981,4.981,0,0,1-2.32.055,4.582,4.582,0,0,1-2.208-1.177l-10.864-9.454a7.2,7.2,0,0,0-2.712-1.64,5.564,5.564,0,0,0-3.006.081l-4.769,1.278,3.188,11.892a4.753,4.753,0,0,1-.308,3.679,4.506,4.506,0,0,1-2.935,2.112,4.689,4.689,0,0,1-3.686-.336,4.688,4.688,0,0,1-2.137-3.023l-8.84-32.969a4.453,4.453,0,0,1,.266-3.479,4.454,4.454,0,0,1,2.879-1.97l14.776-3.962q7.3-1.957,11.9.249t6.224,8.269a12.416,12.416,0,0,1-.518,8.659,13.17,13.17,0,0,1-6.356,6.185,8.065,8.065,0,0,1,3.521.539,12.279,12.279,0,0,1,3.476,2.255l6.274,5.512A4.659,4.659,0,0,1-1196.446,579.391ZM-1213.6,561.3a5.338,5.338,0,0,0,.606-4.8,5.327,5.327,0,0,0-2.935-3.884q-2.129-.881-6.073.177l-8.772,2.351,3.062,11.422,8.772-2.351Q-1215,563.164-1213.6,561.3Z" transform="translate(1435.829 -534.267)" fill="#ffd000"/>
          <path id="Caminho_13647" data-name="Caminho 13647" d="M-1150.866,566.767a3.688,3.688,0,0,1-.575,3.15,4.646,4.646,0,0,1-2.724,1.962,4.106,4.106,0,0,1-2.286-.049,4.045,4.045,0,0,1-2.026-1.444l-4.983-6.11-19.958,5.35-1.257,7.783a4.106,4.106,0,0,1-1,2.257,4.063,4.063,0,0,1-1.984,1.2,4.769,4.769,0,0,1-3.368-.328,3.659,3.659,0,0,1-2.1-2.435,4.861,4.861,0,0,1-.034-2.009l6.945-37.641a4.778,4.778,0,0,1,1.366-2.671,5.713,5.713,0,0,1,2.569-1.478,5.674,5.674,0,0,1,3.032.007,5.4,5.4,0,0,1,2.57,1.584l24.846,29.117A4.888,4.888,0,0,1-1150.866,566.767Zm-17.577-8.6-10.932-13.476-2.784,17.153Z" transform="translate(1435.057 -534.098)" fill="#ffd000"/>
        </g>
        <g id="Grupo_1907" data-name="Grupo 1907" transform="translate(11.997 53.156)" style="mix-blend-mode: normal;isolation: isolate">
          <path id="Caminho_13648" data-name="Caminho 13648" d="M-1418.319,691.4a3.447,3.447,0,0,1-1.528-2.232l-6.843-25.522a3.453,3.453,0,0,1,.207-2.7,3.453,3.453,0,0,1,2.233-1.528l16.162-4.333q3.378-.9,4.114,1.834.747,2.784-2.633,3.691l-12.555,3.365,2.02,7.533,11.641-3.121q3.379-.906,4.126,1.879.735,2.74-2.644,3.645l-11.641,3.121,2.166,8.08,12.555-3.365q3.378-.907,4.126,1.88.735,2.739-2.644,3.646l-16.163,4.332A3.448,3.448,0,0,1-1418.319,691.4Z" transform="translate(1426.862 -589.22)" fill="#ffd000"/>
          <path id="Caminho_13649" data-name="Caminho 13649" d="M-1372.854,646.426a3.649,3.649,0,0,1,1.614,2.283l6.867,25.612a3.714,3.714,0,0,1-.244,2.831,3.338,3.338,0,0,1-2.18,1.636,3.416,3.416,0,0,1-2.966-.477l-20.547-15.486,4.616,17.213a3.822,3.822,0,0,1-.2,2.817,3.18,3.18,0,0,1-2.134,1.624,3.255,3.255,0,0,1-2.683-.332,3.759,3.759,0,0,1-1.605-2.334l-6.866-25.612a3.645,3.645,0,0,1,.256-2.785,3.337,3.337,0,0,1,2.18-1.638,3.2,3.2,0,0,1,2.921.491l20.51,15.348-4.59-17.121a3.69,3.69,0,0,1,.233-2.778,3.2,3.2,0,0,1,2.111-1.619A3.337,3.337,0,0,1-1372.854,646.426Z" transform="translate(1426.414 -589.075)" fill="#ffd000"/>
          <path id="Caminho_13650" data-name="Caminho 13650" d="M-1355.756,674.894a3.637,3.637,0,0,1-1.657-2.345l-6.867-25.612a3.579,3.579,0,0,1,.273-2.814,3.641,3.641,0,0,1,2.345-1.657,3.635,3.635,0,0,1,2.859.262,3.579,3.579,0,0,1,1.645,2.3l6.866,25.612a3.638,3.638,0,0,1-.261,2.86,3.64,3.64,0,0,1-2.345,1.657A3.635,3.635,0,0,1-1355.756,674.894Z" transform="translate(1425.847 -589.015)" fill="#ffd000"/>
          <path id="Caminho_13651" data-name="Caminho 13651" d="M-1320.421,647.821a2.616,2.616,0,0,1,1.273,1.738l2.386,8.9a10.892,10.892,0,0,1,.464,2.91,3.273,3.273,0,0,1-.6,1.875,6.367,6.367,0,0,1-1.922,1.591,26.971,26.971,0,0,1-3.853,1.964,32.972,32.972,0,0,1-4.275,1.488,19.289,19.289,0,0,1-9.39.389,14.16,14.16,0,0,1-7.282-4.163,18.974,18.974,0,0,1-4.378-8.3,18.942,18.942,0,0,1-.359-9.275,14.257,14.257,0,0,1,4.148-7.255,18.425,18.425,0,0,1,8.09-4.32,16.975,16.975,0,0,1,11.383.471,3.553,3.553,0,0,1,1.252.838,3.157,3.157,0,0,1,.64,1.295,3.3,3.3,0,0,1-.117,2.21,2.022,2.022,0,0,1-1.349,1.267,3.068,3.068,0,0,1-1.122.1,7.712,7.712,0,0,1-1.322-.282,16.517,16.517,0,0,0-3.969-.746,12.1,12.1,0,0,0-3.65.44q-9.314,2.5-6.414,13.319,1.495,5.57,4.649,7.66t8.039.781a21.377,21.377,0,0,0,5.067-2.091l-1.9-7.079-4.2,1.127a3.127,3.127,0,0,1-2.226-.089,2.375,2.375,0,0,1-1.22-1.629,2.391,2.391,0,0,1,.24-2.024,3.128,3.128,0,0,1,1.884-1.19l7.807-2.094A2.949,2.949,0,0,1-1320.421,647.821Z" transform="translate(1425.592 -588.89)" fill="#ffd000"/>
          <path id="Caminho_13652" data-name="Caminho 13652" d="M-1285.946,623.108a3.65,3.65,0,0,1,1.615,2.283l6.953,25.932a3.322,3.322,0,0,1-.232,2.606,3.193,3.193,0,0,1-2.05,1.479,3.134,3.134,0,0,1-2.469-.268,3.319,3.319,0,0,1-1.505-2.143l-4.321-16.114-3.215,13.928a5.236,5.236,0,0,1-.928,2.108,3.079,3.079,0,0,1-1.656,1.031,3.106,3.106,0,0,1-1.927-.07,5.1,5.1,0,0,1-1.881-1.356l-9.691-10.225,4.26,15.888a3.352,3.352,0,0,1-.237,2.586,3.152,3.152,0,0,1-2.044,1.5,3.14,3.14,0,0,1-2.47-.268,3.326,3.326,0,0,1-1.5-2.143l-6.952-25.931a3.637,3.637,0,0,1,.257-2.785,3.334,3.334,0,0,1,2.179-1.638,3.726,3.726,0,0,1,3.957,1.437l13.982,15.092,4.509-20.05a3.826,3.826,0,0,1,2.663-3.212A3.34,3.34,0,0,1-1285.946,623.108Z" transform="translate(1425.064 -588.695)" fill="#ffd000"/>
          <path id="Caminho_13653" data-name="Caminho 13653" d="M-1239.8,641.245a2.863,2.863,0,0,1-.446,2.445,3.613,3.613,0,0,1-2.112,1.522,3.183,3.183,0,0,1-1.773-.04,3.131,3.131,0,0,1-1.573-1.119l-3.863-4.739-15.478,4.15-.976,6.035a3.174,3.174,0,0,1-.778,1.75,3.158,3.158,0,0,1-1.537.929,3.7,3.7,0,0,1-2.613-.256,2.833,2.833,0,0,1-1.632-1.887,3.769,3.769,0,0,1-.026-1.558l5.385-29.192a3.706,3.706,0,0,1,1.06-2.071,4.429,4.429,0,0,1,1.993-1.145,4.363,4.363,0,0,1,2.35.006,4.194,4.194,0,0,1,1.994,1.227l19.267,22.581A3.825,3.825,0,0,1-1239.8,641.245Zm-25.013-27.4a1.67,1.67,0,0,1-1.234-.134,1.389,1.389,0,0,1-.756-.9,1.769,1.769,0,0,1,.276-1.346l2.886-4.932a3.25,3.25,0,0,1,1.955-1.651,2.5,2.5,0,0,1,1.961.281,2.494,2.494,0,0,1,1.225,1.557,2.337,2.337,0,0,1-.1,1.445,3.749,3.749,0,0,1-1.077,1.464l-4.315,3.8A1.981,1.981,0,0,1-1264.813,613.843Zm11.382,20.732-8.479-10.451-2.158,13.3Z" transform="translate(1424.353 -588.405)" fill="#ffd000"/>
          <path id="Caminho_13654" data-name="Caminho 13654" d="M-1230.618,641.2a3.522,3.522,0,0,1-1.667-2.293l-6.194-23.1-7.4,1.983q-3.379.906-4.161-2.016-.772-2.876,2.607-3.781l21.914-5.876q3.378-.906,4.15,1.971.783,2.922-2.6,3.826l-7.4,1.983,6.194,23.1a3.583,3.583,0,0,1-.272,2.814,3.641,3.641,0,0,1-2.346,1.657A3.652,3.652,0,0,1-1230.618,641.2Z" transform="translate(1423.987 -588.423)" fill="#ffd000"/>
          <path id="Caminho_13655" data-name="Caminho 13655" d="M-1209.147,635.587a3.647,3.647,0,0,1-1.656-2.347l-6.867-25.612a3.577,3.577,0,0,1,.273-2.812,3.647,3.647,0,0,1,2.345-1.659,3.646,3.646,0,0,1,2.86.263,3.58,3.58,0,0,1,1.645,2.3l6.867,25.612a3.648,3.648,0,0,1-.262,2.861,3.639,3.639,0,0,1-2.345,1.656A3.643,3.643,0,0,1-1209.147,635.587Z" transform="translate(1423.46 -588.375)" fill="#ffd000"/>
          <path id="Caminho_13656" data-name="Caminho 13656" d="M-1190.1,629.447a13.986,13.986,0,0,1-7.021-4.284,19.648,19.648,0,0,1-4.269-8.25,19.522,19.522,0,0,1-.425-9.258,14.026,14.026,0,0,1,3.942-7.2,17.216,17.216,0,0,1,7.771-4.235,17.188,17.188,0,0,1,11.2.519,3.568,3.568,0,0,1,1.252.838,3.161,3.161,0,0,1,.641,1.3,3.306,3.306,0,0,1-.117,2.209,2.063,2.063,0,0,1-1.4,1.281,3.673,3.673,0,0,1-1.161.14,4.544,4.544,0,0,1-1.227-.283,15.938,15.938,0,0,0-3.836-.807,10.739,10.739,0,0,0-3.475.368q-4.382,1.176-5.869,4.486t-.041,8.7q2.913,10.865,11.725,8.5a9.94,9.94,0,0,0,3.056-1.382,20.985,20.985,0,0,0,3.056-2.654,6.753,6.753,0,0,1,.989-.878,3.324,3.324,0,0,1,1.006-.441,2.07,2.07,0,0,1,1.847.409,3.318,3.318,0,0,1,1.207,1.855,3.109,3.109,0,0,1,.077,1.473,3.506,3.506,0,0,1-.648,1.322,17.18,17.18,0,0,1-9.438,6.055A17.2,17.2,0,0,1-1190.1,629.447Z" transform="translate(1423.206 -588.254)" fill="#ffd000"/>
          <path id="Caminho_13657" data-name="Caminho 13657" d="M-1135.516,613.469a2.866,2.866,0,0,1-.446,2.445,3.614,3.614,0,0,1-2.113,1.522,3.18,3.18,0,0,1-1.772-.04,3.127,3.127,0,0,1-1.573-1.119l-3.864-4.739-15.477,4.149-.976,6.037a3.182,3.182,0,0,1-.778,1.749,3.162,3.162,0,0,1-1.537.928,3.7,3.7,0,0,1-2.614-.255,2.836,2.836,0,0,1-1.631-1.888,3.78,3.78,0,0,1-.027-1.557l5.387-29.193a3.694,3.694,0,0,1,1.059-2.07,4.42,4.42,0,0,1,1.992-1.146,4.376,4.376,0,0,1,2.351.006,4.2,4.2,0,0,1,1.993,1.228l19.268,22.582A3.8,3.8,0,0,1-1135.516,613.469Zm-13.631-6.67-8.479-10.45-2.158,13.3Z" transform="translate(1422.656 -588.133)" fill="#ffd000"/>
        </g>
      </g>
    </g>
  </g>
</svg>
