<svg xmlns="http://www.w3.org/2000/svg" width="329.411" height="242.814" viewBox="0 0 329.411 242.814">
  <g id="Grupo_771" data-name="Grupo 771" transform="translate(1693.758 -1760.229)">
    <circle id="Elipse_30" data-name="Elipse 30" cx="121.407" cy="121.407" r="121.407" transform="translate(-1639.378 1760.229)" fill="#36a39a"/>
    <g id="Grupo_355" data-name="Grupo 355">
      <g id="SE_LIGA_" data-name="SE LIGA " style="mix-blend-mode: normal;isolation: isolate">
        <g id="Grupo_1913" data-name="Grupo 1913" style="mix-blend-mode: normal;isolation: isolate">
          <path id="Caminho_13680" data-name="Caminho 13680" d="M-1673.352,1956.038a24.817,24.817,0,0,1-9.787-1.779,5.667,5.667,0,0,1-2.176-1.388,5.476,5.476,0,0,1-1.169-2.328,5.472,5.472,0,0,1,.291-3.768,3.662,3.662,0,0,1,2.378-2.232,5.5,5.5,0,0,1,1.756-.176,10.864,10.864,0,0,1,2.258.443,27.277,27.277,0,0,0,7.635,1.266,28.7,28.7,0,0,0,7.852-1.058q5.164-1.384,7.442-3.84a5.689,5.689,0,0,0,1.417-5.664,4.6,4.6,0,0,0-3.592-3.231q-2.942-.8-9.792-.393a51.773,51.773,0,0,1-12.585-.484,15.573,15.573,0,0,1-7.744-3.543,14.312,14.312,0,0,1-4.03-7.054,15.313,15.313,0,0,1,.475-9.646,19.6,19.6,0,0,1,6.245-8.3,28.861,28.861,0,0,1,10.787-5.282q11.11-2.979,19.8.646a6.427,6.427,0,0,1,2.2,1.466,5.3,5.3,0,0,1,1.148,2.25,5.47,5.47,0,0,1-.29,3.768,3.656,3.656,0,0,1-2.379,2.231,5.475,5.475,0,0,1-1.667.2,11.48,11.48,0,0,1-2.346-.462,34.171,34.171,0,0,0-6.725-1.467,20.355,20.355,0,0,0-7.12.819,13.8,13.8,0,0,0-7.019,3.852,5.976,5.976,0,0,0-1.386,5.782,4.7,4.7,0,0,0,1.886,2.807,9.076,9.076,0,0,0,4.1,1.207,55.278,55.278,0,0,0,7.527.078q11.271-.5,16.913,1.925a12.6,12.6,0,0,1,7.362,8.845,15.193,15.193,0,0,1-.408,9.586,18.532,18.532,0,0,1-6.23,8.045,31.169,31.169,0,0,1-11.131,5.25A45.264,45.264,0,0,1-1673.352,1956.038Z" fill="#f08800"/>
          <path id="Caminho_13681" data-name="Caminho 13681" d="M-1629.5,1943.484a5.91,5.91,0,0,1-2.619-3.826l-11.727-43.74a5.914,5.914,0,0,1,.353-4.624,5.922,5.922,0,0,1,3.827-2.62l27.7-7.426q5.79-1.553,7.049,3.143,1.28,4.774-4.511,6.325l-21.517,5.769,3.462,12.91,19.952-5.35q5.79-1.551,7.07,3.222,1.258,4.7-4.531,6.247l-19.953,5.35,3.713,13.849,21.518-5.768q5.789-1.552,7.069,3.219,1.258,4.7-4.531,6.248l-27.7,7.425A5.913,5.913,0,0,1-1629.5,1943.484Z" fill="#f08800"/>
          <path id="Caminho_13682" data-name="Caminho 13682" d="M-1561.272,1925.191a5.915,5.915,0,0,1-2.619-3.827l-11.748-43.818a6.128,6.128,0,0,1,.468-4.822,6.239,6.239,0,0,1,4.02-2.838,6.239,6.239,0,0,1,4.9.446,6.133,6.133,0,0,1,2.818,3.942l10.616,39.593,20.031-5.371q5.709-1.531,7.054,3.476,1.322,4.929-4.39,6.461l-26.526,7.111A5.913,5.913,0,0,1-1561.272,1925.191Z" fill="#f08800"/>
          <path id="Caminho_13683" data-name="Caminho 13683" d="M-1516.979,1913.652a6.24,6.24,0,0,1-2.838-4.021l-11.77-43.9a6.135,6.135,0,0,1,.468-4.823,6.242,6.242,0,0,1,4.02-2.838,6.239,6.239,0,0,1,4.9.447,6.132,6.132,0,0,1,2.818,3.941l11.77,43.9a6.242,6.242,0,0,1-.448,4.9,6.237,6.237,0,0,1-4.019,2.838A6.241,6.241,0,0,1-1516.979,1913.652Z" fill="#f08800"/>
          <path id="Caminho_13684" data-name="Caminho 13684" d="M-1456.858,1867.464a4.493,4.493,0,0,1,2.183,2.979l4.091,15.258a18.645,18.645,0,0,1,.792,4.988,5.59,5.59,0,0,1-1.026,3.211,10.938,10.938,0,0,1-3.294,2.728,46.572,46.572,0,0,1-6.6,3.365,56.662,56.662,0,0,1-7.325,2.55,33.062,33.062,0,0,1-16.093.666,24.276,24.276,0,0,1-12.481-7.136,32.531,32.531,0,0,1-7.5-14.219,32.5,32.5,0,0,1-.614-15.9,24.415,24.415,0,0,1,7.11-12.432,31.574,31.574,0,0,1,13.865-7.407q10.875-2.918,19.507.808a6.1,6.1,0,0,1,2.147,1.438,5.422,5.422,0,0,1,1.1,2.22,5.678,5.678,0,0,1-.2,3.786,3.467,3.467,0,0,1-2.312,2.172,5.263,5.263,0,0,1-1.923.179,13.424,13.424,0,0,1-2.268-.481,28.2,28.2,0,0,0-6.8-1.28,20.784,20.784,0,0,0-6.256.754q-15.96,4.281-10.989,22.824,2.559,9.549,7.965,13.129t13.777,1.339a36.442,36.442,0,0,0,8.684-3.586l-3.252-12.128-7.2,1.93a5.354,5.354,0,0,1-3.815-.151,4.078,4.078,0,0,1-2.091-2.8,4.074,4.074,0,0,1,.413-3.464,5.358,5.358,0,0,1,3.227-2.04l13.38-3.587A5.053,5.053,0,0,1-1456.858,1867.464Z" fill="#f08800"/>
          <path id="Caminho_13685" data-name="Caminho 13685" d="M-1386.691,1874.694a4.9,4.9,0,0,1-.764,4.187,6.192,6.192,0,0,1-3.62,2.607,5.467,5.467,0,0,1-3.037-.066,5.381,5.381,0,0,1-2.7-1.92l-6.622-8.121-26.526,7.112-1.671,10.345a5.479,5.479,0,0,1-1.335,3,5.393,5.393,0,0,1-2.635,1.587,6.339,6.339,0,0,1-4.478-.435,4.864,4.864,0,0,1-2.8-3.234,6.52,6.52,0,0,1-.045-2.673l9.231-50.028a6.342,6.342,0,0,1,1.817-3.549,7.6,7.6,0,0,1,3.415-1.965,7.518,7.518,0,0,1,4.029.011,7.165,7.165,0,0,1,3.415,2.1l33.022,38.7A6.518,6.518,0,0,1-1386.691,1874.694Zm-23.362-11.434-14.531-17.91-3.7,22.8Z" fill="#f08800"/>
          <path id="Caminho_13686" data-name="Caminho 13686" d="M-1381.158,1859.2a4.623,4.623,0,0,1-1.947-2.415l-10.786-26.462a6.193,6.193,0,0,1-.371-1.076,5.938,5.938,0,0,1,.8-5.161,7.869,7.869,0,0,1,4.624-3.085,7.876,7.876,0,0,1,5.547.358,6.034,6.034,0,0,1,3.294,4.149,6.131,6.131,0,0,1,.215,1.116l3.8,28.252a4.3,4.3,0,0,1-.4,3.043,3.429,3.429,0,0,1-2.135,1.578A3.433,3.433,0,0,1-1381.158,1859.2Zm2.051,17.188a6.829,6.829,0,0,1-3.168-4.309,6.83,6.83,0,0,1,.587-5.315,6.625,6.625,0,0,1,4.26-3.2,6.627,6.627,0,0,1,5.286.637,6.838,6.838,0,0,1,3.169,4.309,6.825,6.825,0,0,1-.589,5.315,6.612,6.612,0,0,1-4.258,3.2A6.622,6.622,0,0,1-1379.107,1876.392Z" fill="#f08800"/>
        </g>
      </g>
      <g id="SE_LIGA_2" data-name="SE LIGA 2" style="mix-blend-mode: normal;isolation: isolate">
        <g id="Grupo_1914" data-name="Grupo 1914" style="mix-blend-mode: normal;isolation: isolate">
          <path id="Caminho_13687" data-name="Caminho 13687" d="M-1669.008,1960.78a24.854,24.854,0,0,1-9.787-1.78,5.679,5.679,0,0,1-2.175-1.388,5.49,5.49,0,0,1-1.17-2.328,5.478,5.478,0,0,1,.29-3.768,3.661,3.661,0,0,1,2.379-2.231,5.491,5.491,0,0,1,1.757-.177,10.856,10.856,0,0,1,2.256.443,27.254,27.254,0,0,0,7.637,1.265,28.7,28.7,0,0,0,7.852-1.057q5.164-1.384,7.441-3.841a5.683,5.683,0,0,0,1.417-5.663,4.594,4.594,0,0,0-3.592-3.231q-2.941-.8-9.792-.394a51.776,51.776,0,0,1-12.585-.483,15.582,15.582,0,0,1-7.743-3.543,14.312,14.312,0,0,1-4.031-7.055,15.316,15.316,0,0,1,.475-9.647,19.6,19.6,0,0,1,6.245-8.3,28.874,28.874,0,0,1,10.787-5.282q11.111-2.979,19.8.646a6.428,6.428,0,0,1,2.195,1.465,5.315,5.315,0,0,1,1.149,2.251,5.468,5.468,0,0,1-.29,3.769,3.653,3.653,0,0,1-2.379,2.23,5.443,5.443,0,0,1-1.667.195,11.413,11.413,0,0,1-2.346-.461,34.164,34.164,0,0,0-6.725-1.467,20.377,20.377,0,0,0-7.12.817,13.809,13.809,0,0,0-7.018,3.855,5.97,5.97,0,0,0-1.386,5.78,4.691,4.691,0,0,0,1.885,2.807,9.069,9.069,0,0,0,4.1,1.208,55.594,55.594,0,0,0,7.526.079q11.271-.506,16.913,1.924a12.591,12.591,0,0,1,7.362,8.845,15.2,15.2,0,0,1-.407,9.586,18.552,18.552,0,0,1-6.23,8.045,31.2,31.2,0,0,1-11.132,5.25A45.307,45.307,0,0,1-1669.008,1960.78Z" fill="#ffd000"/>
          <path id="Caminho_13688" data-name="Caminho 13688" d="M-1625.156,1948.225a5.9,5.9,0,0,1-2.619-3.826l-11.728-43.739a5.921,5.921,0,0,1,.354-4.625,5.923,5.923,0,0,1,3.827-2.62l27.7-7.425q5.789-1.554,7.049,3.141,1.28,4.774-4.511,6.326l-21.518,5.769,3.462,12.91,19.952-5.349q5.791-1.553,7.071,3.221,1.258,4.695-4.532,6.246l-19.952,5.35,3.713,13.85,21.518-5.768q5.789-1.553,7.069,3.22,1.26,4.7-4.531,6.247l-27.7,7.426A5.912,5.912,0,0,1-1625.156,1948.225Z" fill="#ffd000"/>
          <path id="Caminho_13689" data-name="Caminho 13689" d="M-1556.927,1929.932a5.912,5.912,0,0,1-2.62-3.827l-11.748-43.818a6.127,6.127,0,0,1,.469-4.822,6.236,6.236,0,0,1,4.019-2.839,6.237,6.237,0,0,1,4.9.448,6.127,6.127,0,0,1,2.817,3.94l10.615,39.594,20.032-5.37q5.711-1.533,7.054,3.474,1.323,4.93-4.39,6.462l-26.525,7.112A5.912,5.912,0,0,1-1556.927,1929.932Z" fill="#ffd000"/>
          <path id="Caminho_13690" data-name="Caminho 13690" d="M-1512.635,1918.393a6.244,6.244,0,0,1-2.839-4.021l-11.769-43.9a6.124,6.124,0,0,1,.468-4.821,6.239,6.239,0,0,1,4.019-2.84,6.242,6.242,0,0,1,4.9.448,6.127,6.127,0,0,1,2.818,3.941l11.769,43.9a6.242,6.242,0,0,1-.447,4.9,6.239,6.239,0,0,1-4.02,2.838A6.239,6.239,0,0,1-1512.635,1918.393Z" fill="#ffd000"/>
          <path id="Caminho_13691" data-name="Caminho 13691" d="M-1452.513,1872.2a4.5,4.5,0,0,1,2.183,2.98l4.091,15.258a18.645,18.645,0,0,1,.792,4.987,5.577,5.577,0,0,1-1.027,3.211,10.909,10.909,0,0,1-3.294,2.729,46.457,46.457,0,0,1-6.6,3.364,56.653,56.653,0,0,1-7.326,2.552,33.084,33.084,0,0,1-16.092.666,24.281,24.281,0,0,1-12.482-7.137,32.546,32.546,0,0,1-7.5-14.219,32.486,32.486,0,0,1-.614-15.9,24.407,24.407,0,0,1,7.11-12.432,31.575,31.575,0,0,1,13.864-7.407q10.876-2.917,19.508.808a6.065,6.065,0,0,1,2.146,1.438,5.377,5.377,0,0,1,1.1,2.221,5.667,5.667,0,0,1-.2,3.786,3.466,3.466,0,0,1-2.311,2.171,5.265,5.265,0,0,1-1.923.179,13.413,13.413,0,0,1-2.268-.481,28.151,28.151,0,0,0-6.8-1.279,20.767,20.767,0,0,0-6.256.753q-15.963,4.281-10.99,22.825,2.561,9.547,7.965,13.129t13.778,1.337a36.494,36.494,0,0,0,8.684-3.585l-3.252-12.129-7.2,1.93a5.343,5.343,0,0,1-3.815-.151,4.076,4.076,0,0,1-2.091-2.8,4.083,4.083,0,0,1,.412-3.466,5.369,5.369,0,0,1,3.228-2.038l13.38-3.588A5.063,5.063,0,0,1-1452.513,1872.2Z" fill="#ffd000"/>
          <path id="Caminho_13692" data-name="Caminho 13692" d="M-1382.347,1879.434a4.9,4.9,0,0,1-.764,4.188,6.184,6.184,0,0,1-3.621,2.607,5.465,5.465,0,0,1-3.037-.066,5.392,5.392,0,0,1-2.695-1.919l-6.622-8.122-26.525,7.112-1.672,10.345a5.475,5.475,0,0,1-1.335,3,5.4,5.4,0,0,1-2.635,1.587,6.338,6.338,0,0,1-4.479-.435,4.863,4.863,0,0,1-2.795-3.235,6.459,6.459,0,0,1-.045-2.671l9.231-50.029a6.329,6.329,0,0,1,1.816-3.549,7.582,7.582,0,0,1,3.415-1.964,7.518,7.518,0,0,1,4.029.009,7.181,7.181,0,0,1,3.416,2.106l33.021,38.7A6.507,6.507,0,0,1-1382.347,1879.434ZM-1405.709,1868l-14.531-17.911-3.7,22.8Z" fill="#ffd000"/>
          <path id="Caminho_13693" data-name="Caminho 13693" d="M-1376.814,1863.944a4.617,4.617,0,0,1-1.947-2.414l-10.785-26.462a6.149,6.149,0,0,1-.373-1.075,5.939,5.939,0,0,1,.8-5.162,7.872,7.872,0,0,1,4.624-3.085,7.88,7.88,0,0,1,5.548.358,6.038,6.038,0,0,1,3.293,4.148,6.131,6.131,0,0,1,.215,1.118l3.8,28.251a4.306,4.306,0,0,1-.4,3.043,3.441,3.441,0,0,1-2.135,1.579A3.436,3.436,0,0,1-1376.814,1863.944Zm2.051,17.189a6.829,6.829,0,0,1-3.168-4.308,6.83,6.83,0,0,1,.588-5.316,6.621,6.621,0,0,1,4.258-3.2,6.627,6.627,0,0,1,5.287.638,6.828,6.828,0,0,1,3.169,4.308,6.831,6.831,0,0,1-.588,5.316,6.618,6.618,0,0,1-4.259,3.2A6.618,6.618,0,0,1-1374.763,1881.133Z" fill="#ffd000"/>
        </g>
      </g>
    </g>
  </g>
</svg>
