<svg xmlns="http://www.w3.org/2000/svg" width="59.162" height="51.402" viewBox="0 0 59.162 51.402">
  <g id="Grupo_481" data-name="Grupo 481" transform="translate(1371.953 -1977.342)">
    <circle id="Elipse_30" data-name="Elipse 30" cx="25.701" cy="25.701" r="25.701" transform="translate(-1367.953 1977.342)" fill="#36a39a"/>
    <g id="DE_QUEM_SÃO_ESSES_OLHOS_" data-name="DE QUEM SÃO ESSES OLHOS " transform="translate(-0.054)">
      <g id="ORIGEM_DA" data-name="ORIGEM DA" style="mix-blend-mode: normal;isolation: isolate">
        <g id="Grupo_1917" data-name="Grupo 1917" style="mix-blend-mode: normal;isolation: isolate">
          <path id="Caminho_13708" data-name="Caminho 13708" d="M-1369.215,2010.278a3.147,3.147,0,0,1-1.566-.935,4.184,4.184,0,0,1-.946-1.8,4.22,4.22,0,0,1-.084-2.035,3.125,3.125,0,0,1,.891-1.586,3.944,3.944,0,0,1,1.76-.945,3.947,3.947,0,0,1,2-.062,3.067,3.067,0,0,1,1.559.929,4.225,4.225,0,0,1,.941,1.8,4.209,4.209,0,0,1,.083,2.033,3.153,3.153,0,0,1-.889,1.593,3.9,3.9,0,0,1-1.749.948A3.931,3.931,0,0,1-1369.215,2010.278Zm2.72-2.373a2.7,2.7,0,0,0,.009-1.77,2.661,2.661,0,0,0-.9-1.521,1.571,1.571,0,0,0-1.4-.225,1.573,1.573,0,0,0-1.1.891,2.666,2.666,0,0,0-.009,1.769,2.688,2.688,0,0,0,.894,1.532,1.568,1.568,0,0,0,1.4.226A1.563,1.563,0,0,0-1366.495,2007.905Z" fill="#f08800"/>
          <path id="Caminho_13709" data-name="Caminho 13709" d="M-1356.677,2006.588a.683.683,0,0,1-.122.607.991.991,0,0,1-.559.382.988.988,0,0,1-.48.01,1.03,1.03,0,0,1-.449-.234l-1.814-1.556a1.135,1.135,0,0,0-.374-.217.7.7,0,0,0-.391.006l-.652.174.481,1.793a.948.948,0,0,1-.062.731.913.913,0,0,1-.595.423.93.93,0,0,1-.733-.068.932.932,0,0,1-.424-.6l-1.436-5.36a.878.878,0,0,1,.051-.69.881.881,0,0,1,.572-.391l2.514-.674a3,3,0,0,1,2.079.038,2.077,2.077,0,0,1,1.077,1.435,2.2,2.2,0,0,1-.076,1.476,2.241,2.241,0,0,1-1.043,1.081,1.386,1.386,0,0,1,.635.066,2.068,2.068,0,0,1,.622.381l.862.724A.966.966,0,0,1-1356.677,2006.588Zm-3.124-2.976a.733.733,0,0,0,.1-.692.762.762,0,0,0-.436-.564,1.556,1.556,0,0,0-.929.039l-1.284.344.442,1.644,1.283-.344A1.579,1.579,0,0,0-1359.8,2003.612Z" fill="#f08800"/>
          <path id="Caminho_13710" data-name="Caminho 13710" d="M-1355.343,2006.741a.942.942,0,0,1-.424-.6l-1.436-5.36a.92.92,0,0,1,.068-.723.923.923,0,0,1,.6-.424.963.963,0,0,1,.747.063.909.909,0,0,1,.426.59l1.437,5.36a.923.923,0,0,1-.071.733.96.96,0,0,1-.616.428A.934.934,0,0,1-1355.343,2006.741Z" fill="#f08800"/>
          <path id="Caminho_13711" data-name="Caminho 13711" d="M-1347.374,2000.727a.677.677,0,0,1,.328.442l.468,1.744a3.149,3.149,0,0,1,.131.787.808.808,0,0,1-.161.489,1.787,1.787,0,0,1-.515.418,7.1,7.1,0,0,1-.825.388,8.44,8.44,0,0,1-.872.293,4.431,4.431,0,0,1-2.116.1,3.146,3.146,0,0,1-1.634-.9,4.1,4.1,0,0,1-.971-1.819,4.061,4.061,0,0,1-.064-2.039,3.186,3.186,0,0,1,.947-1.6,4.212,4.212,0,0,1,1.826-.963,4.6,4.6,0,0,1,1.3-.172,3.684,3.684,0,0,1,1.173.229.783.783,0,0,1,.315.195.783.783,0,0,1,.172.34.855.855,0,0,1-.029.572.531.531,0,0,1-.353.325.788.788,0,0,1-.288.029,2,2,0,0,1-.338-.077,3.559,3.559,0,0,0-.773-.1,2.723,2.723,0,0,0-.731.1,1.844,1.844,0,0,0-1.275.913,2.5,2.5,0,0,0-.029,1.757,2.557,2.557,0,0,0,.936,1.547,1.953,1.953,0,0,0,1.635.147,4.672,4.672,0,0,0,.925-.355l-.352-1.312-.722.193a.749.749,0,0,1-.555-.028.621.621,0,0,1-.305-.418.623.623,0,0,1,.055-.514.757.757,0,0,1,.466-.3l1.655-.443A.761.761,0,0,1-1347.374,2000.727Z" fill="#f08800"/>
          <path id="Caminho_13712" data-name="Caminho 13712" d="M-1344.8,2003.875a.88.88,0,0,1-.39-.572l-1.437-5.36a.885.885,0,0,1,.051-.691.888.888,0,0,1,.573-.39l3.467-.93a1.054,1.054,0,0,1,.7.006.653.653,0,0,1,.36.462q.194.721-.678.956l-2.525.676.36,1.343,2.324-.623q.873-.234,1.062.478a.65.65,0,0,1-.08.579,1.036,1.036,0,0,1-.6.355l-2.325.624.393,1.462,2.525-.675q.872-.235,1.065.486a.664.664,0,0,1-.08.58,1.042,1.042,0,0,1-.6.355l-3.467.93A.88.88,0,0,1-1344.8,2003.875Z" fill="#f08800"/>
          <path id="Caminho_13713" data-name="Caminho 13713" d="M-1333.922,1993.838a.939.939,0,0,1,.416.588l1.461,5.45a.844.844,0,0,1-.06.662.812.812,0,0,1-.521.375.812.812,0,0,1-.636-.066.83.83,0,0,1-.386-.541l-.79-2.946-.579,2.41a1.322,1.322,0,0,1-.238.553.778.778,0,0,1-.414.256.789.789,0,0,1-.487-.014,1.3,1.3,0,0,1-.483-.36l-1.68-1.74.773,2.887a.839.839,0,0,1-.065.656.826.826,0,0,1-.527.383.819.819,0,0,1-.635-.066.832.832,0,0,1-.386-.541l-1.462-5.45a.927.927,0,0,1,.071-.718.87.87,0,0,1,.56-.418.858.858,0,0,1,.532.023,1.268,1.268,0,0,1,.49.346l2.773,2.973.9-3.96a.974.974,0,0,1,.682-.826A.853.853,0,0,1-1333.922,1993.838Z" fill="#f08800"/>
          <path id="Caminho_13714" data-name="Caminho 13714" d="M-1327.512,1999.241a.888.888,0,0,1-.389-.573l-1.437-5.359a.88.88,0,0,1,.051-.691.886.886,0,0,1,.572-.391l2.024-.542a4.589,4.589,0,0,1,2.132-.116,3.126,3.126,0,0,1,1.625.871,3.867,3.867,0,0,1,.956,1.762,3.962,3.962,0,0,1,.064,2.018,3.062,3.062,0,0,1-.967,1.565,4.683,4.683,0,0,1-1.916.964l-2.024.542A.882.882,0,0,1-1327.512,1999.241Zm2.188-1.94a2.2,2.2,0,0,0,1.412-.922,2.146,2.146,0,0,0,.1-1.685,2.143,2.143,0,0,0-.928-1.405,2.219,2.219,0,0,0-1.684-.085l-.9.242,1.1,4.1Z" fill="#f08800"/>
          <path id="Caminho_13715" data-name="Caminho 13715" d="M-1313.488,1994.9a.747.747,0,0,1-.115.633.925.925,0,0,1-.545.392.8.8,0,0,1-.453-.008.838.838,0,0,1-.4-.279l-.723-.891-3.246.87-.189,1.135a.839.839,0,0,1-.209.443.839.839,0,0,1-.394.235.961.961,0,0,1-.678-.065.728.728,0,0,1-.425-.488.881.881,0,0,1-.01-.394l1.189-6.142a.961.961,0,0,1,.275-.518,1.149,1.149,0,0,1,.526-.3,1.168,1.168,0,0,1,.6-.006.966.966,0,0,1,.5.31l4.1,4.723A.892.892,0,0,1-1313.488,1994.9Zm-3.224-1.369-1.6-1.966-.4,2.5Z" fill="#f08800"/>
        </g>
      </g>
      <g id="EXPRESSÃO" style="mix-blend-mode: normal;isolation: isolate">
        <g id="Grupo_1918" data-name="Grupo 1918" style="mix-blend-mode: normal;isolation: isolate">
          <path id="Caminho_13716" data-name="Caminho 13716" d="M-1361.532,2016.746a.687.687,0,0,1-.3-.444l-1.114-4.158a.678.678,0,0,1,.039-.535.686.686,0,0,1,.443-.3l2.69-.722a.821.821,0,0,1,.543.005.515.515,0,0,1,.278.359c.1.373-.075.62-.527.74l-1.957.525.28,1.041,1.8-.483c.451-.121.725,0,.825.371a.509.509,0,0,1-.064.449.818.818,0,0,1-.468.276l-1.8.483.3,1.135,1.958-.526q.677-.18.826.379a.511.511,0,0,1-.062.45.811.811,0,0,1-.468.275l-2.688.722A.693.693,0,0,1-1361.532,2016.746Z" fill="#f08800"/>
          <path id="Caminho_13717" data-name="Caminho 13717" d="M-1352.557,2013.872a.645.645,0,0,1-.083.519.671.671,0,0,1-.408.321.632.632,0,0,1-.537-.106l-1.766-1.242-.93,1.965a.625.625,0,0,1-.4.359.668.668,0,0,1-.517-.08.65.65,0,0,1-.33-.41.658.658,0,0,1,.05-.463l1.03-2.125-1.906-1.3a.677.677,0,0,1-.283-.374.644.644,0,0,1,.081-.518.683.683,0,0,1,.418-.324.626.626,0,0,1,.536.106l1.73,1.2.889-1.9a.587.587,0,0,1,.4-.355.678.678,0,0,1,.524.072.644.644,0,0,1,.329.407.664.664,0,0,1-.05.463l-1,2.075,1.947,1.328A.653.653,0,0,1-1352.557,2013.872Z" fill="#f08800"/>
          <path id="Caminho_13718" data-name="Caminho 13718" d="M-1351.566,2014.1a.725.725,0,0,1-.33-.466l-1.115-4.158a.691.691,0,0,1,.04-.535.688.688,0,0,1,.445-.3l1.988-.534a2.093,2.093,0,0,1,1.539.084,1.715,1.715,0,0,1,.849,1.151,1.706,1.706,0,0,1-.165,1.417,2.074,2.074,0,0,1-1.285.846l-1.22.326.354,1.322a.711.711,0,0,1-.056.569.751.751,0,0,1-.477.331A.727.727,0,0,1-1351.566,2014.1Zm1.484-3.519a.909.909,0,0,0,.544-.32.66.66,0,0,0,.055-.557q-.183-.673-.959-.466l-1.026.275.36,1.344Z" fill="#f08800"/>
          <path id="Caminho_13719" data-name="Caminho 13719" d="M-1341.848,2011.1a.538.538,0,0,1-.094.472.767.767,0,0,1-.433.295.772.772,0,0,1-.373.008.8.8,0,0,1-.348-.18l-1.407-1.207a.861.861,0,0,0-.29-.168.543.543,0,0,0-.3,0l-.505.135.373,1.392a.737.737,0,0,1-.047.566.713.713,0,0,1-.462.328.731.731,0,0,1-.569-.052.726.726,0,0,1-.329-.465l-1.114-4.158a.682.682,0,0,1,.04-.535.687.687,0,0,1,.443-.3l1.951-.523a2.325,2.325,0,0,1,1.612.031,1.612,1.612,0,0,1,.836,1.113,1.7,1.7,0,0,1-.061,1.144,1.728,1.728,0,0,1-.808.837,1.072,1.072,0,0,1,.493.052,1.653,1.653,0,0,1,.483.3l.667.563A.741.741,0,0,1-1341.848,2011.1Zm-2.423-2.307a.568.568,0,0,0,.078-.536.594.594,0,0,0-.338-.438,1.2,1.2,0,0,0-.72.03l-.995.267.341,1.274,1-.267A1.227,1.227,0,0,0-1344.271,2008.793Z" fill="#f08800"/>
          <path id="Caminho_13720" data-name="Caminho 13720" d="M-1340.84,2011.2a.694.694,0,0,1-.3-.444l-1.115-4.158a.686.686,0,0,1,.04-.535.689.689,0,0,1,.444-.3l2.688-.72a.822.822,0,0,1,.543,0,.515.515,0,0,1,.279.36c.1.373-.075.619-.525.74l-1.959.525.279,1.041,1.8-.483q.677-.181.824.37a.51.51,0,0,1-.062.45.819.819,0,0,1-.468.276l-1.8.483.3,1.135,1.958-.525c.45-.122.726.005.826.378a.51.51,0,0,1-.063.45.806.806,0,0,1-.467.275l-2.689.721A.685.685,0,0,1-1340.84,2011.2Z" fill="#f08800"/>
          <path id="Caminho_13721" data-name="Caminho 13721" d="M-1335.517,2009.882a2.734,2.734,0,0,1-.974-.142.677.677,0,0,1-.246-.16.592.592,0,0,1-.134-.263.649.649,0,0,1,.031-.442.43.43,0,0,1,.281-.258.639.639,0,0,1,.2-.021,1.239,1.239,0,0,1,.265.054,2.619,2.619,0,0,0,.7.087,3.1,3.1,0,0,0,.732-.113,1.47,1.47,0,0,0,.659-.323.448.448,0,0,0,.129-.464.376.376,0,0,0-.3-.247,3.255,3.255,0,0,0-.911-.026,5.1,5.1,0,0,1-1.31-.066,1.479,1.479,0,0,1-.752-.369,1.557,1.557,0,0,1-.374-.7,1.556,1.556,0,0,1,.054-.981,2.043,2.043,0,0,1,.643-.851,2.953,2.953,0,0,1,1.1-.54,3.934,3.934,0,0,1,1.044-.147,2.619,2.619,0,0,1,.912.172.658.658,0,0,1,.256.159.636.636,0,0,1,.132.262.658.658,0,0,1-.027.441.419.419,0,0,1-.278.256.616.616,0,0,1-.192.024,1.427,1.427,0,0,1-.274-.056c-.03-.01-.115-.029-.253-.061a1.817,1.817,0,0,0-.47-.041,2.337,2.337,0,0,0-.547.085,1.226,1.226,0,0,0-.6.321.473.473,0,0,0-.133.465.356.356,0,0,0,.15.219.885.885,0,0,0,.367.1,4.642,4.642,0,0,0,.74,0,4.836,4.836,0,0,1,1.279.078,1.553,1.553,0,0,1,.749.371,1.412,1.412,0,0,1,.37.667,1.545,1.545,0,0,1-.044.982,1.913,1.913,0,0,1-.643.822,3.214,3.214,0,0,1-1.142.534A4.809,4.809,0,0,1-1335.517,2009.882Z" fill="#f08800"/>
          <path id="Caminho_13722" data-name="Caminho 13722" d="M-1330.357,2008.5a2.722,2.722,0,0,1-.975-.142.666.666,0,0,1-.246-.158.619.619,0,0,1-.134-.264.643.643,0,0,1,.032-.442.426.426,0,0,1,.28-.259.639.639,0,0,1,.2-.021,1.3,1.3,0,0,1,.263.054,2.621,2.621,0,0,0,.7.088,3.093,3.093,0,0,0,.732-.113,1.458,1.458,0,0,0,.659-.324.449.449,0,0,0,.13-.463.378.378,0,0,0-.3-.248,3.321,3.321,0,0,0-.911-.026,5.131,5.131,0,0,1-1.308-.065,1.482,1.482,0,0,1-.752-.369,1.52,1.52,0,0,1-.374-.695,1.546,1.546,0,0,1,.053-.982,2.033,2.033,0,0,1,.643-.85,2.946,2.946,0,0,1,1.1-.541,3.918,3.918,0,0,1,1.044-.146,2.606,2.606,0,0,1,.912.172.63.63,0,0,1,.255.16.62.62,0,0,1,.133.26.664.664,0,0,1-.027.441.418.418,0,0,1-.278.257.625.625,0,0,1-.193.023,1.215,1.215,0,0,1-.273-.056c-.031-.009-.115-.029-.254-.061a1.813,1.813,0,0,0-.469-.04,2.349,2.349,0,0,0-.548.084,1.22,1.22,0,0,0-.6.322.474.474,0,0,0-.134.465.353.353,0,0,0,.15.218.862.862,0,0,0,.367.1,4.648,4.648,0,0,0,.741,0,4.715,4.715,0,0,1,1.279.079,1.557,1.557,0,0,1,.749.369,1.433,1.433,0,0,1,.37.667,1.538,1.538,0,0,1-.045.982,1.9,1.9,0,0,1-.642.822,3.191,3.191,0,0,1-1.142.535A4.767,4.767,0,0,1-1330.357,2008.5Z" fill="#f08800"/>
          <path id="Caminho_13723" data-name="Caminho 13723" d="M-1325.368,2000.653a2.847,2.847,0,0,0-.608.062.26.26,0,0,0-.11.055.663.663,0,0,0-.095.109.405.405,0,0,1-.247.2.268.268,0,0,1-.22-.03.319.319,0,0,1-.133-.2.748.748,0,0,1,.006-.381.9.9,0,0,1,.2-.377.7.7,0,0,1,.364-.227,2.332,2.332,0,0,1,.617-.058,2.973,2.973,0,0,0,.608-.062.382.382,0,0,0,.206-.164.425.425,0,0,1,.249-.192.264.264,0,0,1,.222.024.321.321,0,0,1,.129.2.738.738,0,0,1-.01.383.964.964,0,0,1-.2.379.7.7,0,0,1-.356.223A2.376,2.376,0,0,1-1325.368,2000.653Zm4.347,4.781a.576.576,0,0,1-.088.489.726.726,0,0,1-.422.306.623.623,0,0,1-.353-.006.638.638,0,0,1-.307-.217l-.561-.691-2.518.675-.146.881a.635.635,0,0,1-.163.342.626.626,0,0,1-.305.183.746.746,0,0,1-.525-.052.562.562,0,0,1-.33-.377.68.68,0,0,1-.008-.306l.923-4.762a.75.75,0,0,1,.212-.4.916.916,0,0,1,.409-.23.92.92,0,0,1,.466,0,.736.736,0,0,1,.388.241l3.182,3.662A.692.692,0,0,1-1321.021,2005.434Zm-2.5-1.063-1.242-1.525-.312,1.942Z" fill="#f08800"/>
          <path id="Caminho_13724" data-name="Caminho 13724" d="M-1319.339,2005.321a2.451,2.451,0,0,1-1.215-.725,3.251,3.251,0,0,1-.733-1.4,3.264,3.264,0,0,1-.066-1.578,2.426,2.426,0,0,1,.692-1.231,3.061,3.061,0,0,1,1.365-.731,3.071,3.071,0,0,1,1.548-.05,2.4,2.4,0,0,1,1.21.721,3.291,3.291,0,0,1,.729,1.4,3.251,3.251,0,0,1,.065,1.578,2.449,2.449,0,0,1-.689,1.234,3.033,3.033,0,0,1-1.357.734A3.05,3.05,0,0,1-1319.339,2005.321Zm2.109-1.84a2.086,2.086,0,0,0,.007-1.373,2.065,2.065,0,0,0-.695-1.18,1.226,1.226,0,0,0-1.084-.175,1.225,1.225,0,0,0-.856.692,2.062,2.062,0,0,0-.007,1.372,2.076,2.076,0,0,0,.693,1.188,1.22,1.22,0,0,0,1.089.175A1.219,1.219,0,0,0-1317.23,2003.481Z" fill="#f08800"/>
        </g>
      </g>
    </g>
    <g id="DE_QUEM_SÃO_ESSES_OLHOS_2" data-name="DE QUEM SÃO ESSES OLHOS 2">
      <g id="ORIGEM_DA-2" data-name="ORIGEM DA-2" style="mix-blend-mode: normal;isolation: isolate">
        <g id="Grupo_1919" data-name="Grupo 1919" style="mix-blend-mode: normal;isolation: isolate">
          <path id="Caminho_13725" data-name="Caminho 13725" d="M-1368.544,2010.49a3.147,3.147,0,0,1-1.566-.935,4.187,4.187,0,0,1-.946-1.8,4.213,4.213,0,0,1-.084-2.034,3.124,3.124,0,0,1,.891-1.586,3.942,3.942,0,0,1,1.76-.944,3.937,3.937,0,0,1,2-.063,3.086,3.086,0,0,1,1.559.928,4.254,4.254,0,0,1,.941,1.805,4.214,4.214,0,0,1,.083,2.034,3.15,3.15,0,0,1-.889,1.593,3.894,3.894,0,0,1-1.749.947A3.932,3.932,0,0,1-1368.544,2010.49Zm2.72-2.372a2.692,2.692,0,0,0,.008-1.77,2.64,2.64,0,0,0-.9-1.521,1.575,1.575,0,0,0-1.4-.227,1.578,1.578,0,0,0-1.1.892,2.667,2.667,0,0,0-.009,1.769,2.688,2.688,0,0,0,.894,1.532,1.574,1.574,0,0,0,1.4.227A1.575,1.575,0,0,0-1365.824,2008.118Z" fill="#ffd000"/>
          <path id="Caminho_13726" data-name="Caminho 13726" d="M-1356.006,2006.8a.682.682,0,0,1-.122.607.985.985,0,0,1-.559.382,1,1,0,0,1-.48.01,1.05,1.05,0,0,1-.449-.234l-1.814-1.555a1.082,1.082,0,0,0-.374-.217.723.723,0,0,0-.391,0l-.652.175.481,1.793a.948.948,0,0,1-.062.731.9.9,0,0,1-.6.422.928.928,0,0,1-.732-.066.937.937,0,0,1-.424-.6l-1.436-5.36a.881.881,0,0,1,.05-.691.885.885,0,0,1,.573-.39l2.514-.675a3.009,3.009,0,0,1,2.079.039,2.081,2.081,0,0,1,1.077,1.436,2.191,2.191,0,0,1-.077,1.476,2.228,2.228,0,0,1-1.042,1.078,1.459,1.459,0,0,1,.635.067,2.079,2.079,0,0,1,.622.383l.862.722A.969.969,0,0,1-1356.006,2006.8Zm-3.124-2.975a.738.738,0,0,0,.1-.694.764.764,0,0,0-.436-.564,1.567,1.567,0,0,0-.93.039l-1.283.344.442,1.644,1.283-.344A1.6,1.6,0,0,0-1359.13,2003.825Z" fill="#ffd000"/>
          <path id="Caminho_13727" data-name="Caminho 13727" d="M-1354.672,2006.952a.934.934,0,0,1-.424-.6l-1.436-5.36a.919.919,0,0,1,.068-.724.937.937,0,0,1,.6-.424.968.968,0,0,1,.747.063.908.908,0,0,1,.425.59l1.438,5.361a.92.92,0,0,1-.071.732.966.966,0,0,1-.617.43A.933.933,0,0,1-1354.672,2006.952Z" fill="#ffd000"/>
          <path id="Caminho_13728" data-name="Caminho 13728" d="M-1346.7,2000.938a.682.682,0,0,1,.328.443l.468,1.744a3.2,3.2,0,0,1,.131.788.807.807,0,0,1-.161.488,1.787,1.787,0,0,1-.515.418,6.946,6.946,0,0,1-.825.387,8.161,8.161,0,0,1-.873.294,4.465,4.465,0,0,1-2.115.1,3.159,3.159,0,0,1-1.635-.9,4.123,4.123,0,0,1-.97-1.819,4.069,4.069,0,0,1-.064-2.041,3.185,3.185,0,0,1,.947-1.6,4.2,4.2,0,0,1,1.826-.963,4.564,4.564,0,0,1,1.3-.172,3.618,3.618,0,0,1,1.172.227.813.813,0,0,1,.316.2.78.78,0,0,1,.172.342.845.845,0,0,1-.03.57.524.524,0,0,1-.352.326.767.767,0,0,1-.288.029,2,2,0,0,1-.338-.077,3.623,3.623,0,0,0-.774-.1,2.766,2.766,0,0,0-.73.1,1.849,1.849,0,0,0-1.275.911,2.5,2.5,0,0,0-.029,1.758,2.555,2.555,0,0,0,.936,1.548,1.964,1.964,0,0,0,1.635.148,4.644,4.644,0,0,0,.924-.356l-.351-1.312-.722.193a.757.757,0,0,1-.556-.029.621.621,0,0,1-.3-.417.629.629,0,0,1,.054-.515.762.762,0,0,1,.467-.3l1.655-.443A.756.756,0,0,1-1346.7,2000.938Z" fill="#ffd000"/>
          <path id="Caminho_13729" data-name="Caminho 13729" d="M-1344.125,2004.086a.878.878,0,0,1-.39-.571l-1.437-5.36a.888.888,0,0,1,.051-.692.883.883,0,0,1,.573-.388l3.467-.93a1.036,1.036,0,0,1,.7.006.652.652,0,0,1,.36.461q.194.721-.679.955l-2.524.678.359,1.341,2.325-.623q.873-.233,1.062.479a.653.653,0,0,1-.08.58,1.052,1.052,0,0,1-.6.355l-2.325.623.393,1.463,2.525-.677q.872-.234,1.065.487a.667.667,0,0,1-.08.581,1.062,1.062,0,0,1-.6.355l-3.467.93A.884.884,0,0,1-1344.125,2004.086Z" fill="#ffd000"/>
          <path id="Caminho_13730" data-name="Caminho 13730" d="M-1333.251,1994.05a.939.939,0,0,1,.416.588l1.461,5.45a.839.839,0,0,1-.06.66.812.812,0,0,1-.521.377.82.82,0,0,1-.636-.066.832.832,0,0,1-.386-.541l-.79-2.946-.579,2.411a1.348,1.348,0,0,1-.238.553.789.789,0,0,1-.414.255.8.8,0,0,1-.487-.013,1.329,1.329,0,0,1-.483-.36l-1.681-1.74.774,2.885a.836.836,0,0,1-.066.657.821.821,0,0,1-.526.383.824.824,0,0,1-.635-.065.834.834,0,0,1-.386-.542l-1.462-5.451a.922.922,0,0,1,.071-.718.872.872,0,0,1,.56-.418.88.88,0,0,1,.532.024,1.23,1.23,0,0,1,.49.347l2.772,2.972.905-3.959a.968.968,0,0,1,.681-.826A.851.851,0,0,1-1333.251,1994.05Z" fill="#ffd000"/>
          <path id="Caminho_13731" data-name="Caminho 13731" d="M-1326.841,1999.453a.893.893,0,0,1-.39-.572l-1.436-5.361a.882.882,0,0,1,.051-.691.881.881,0,0,1,.572-.389l2.023-.543a4.607,4.607,0,0,1,2.133-.115,3.115,3.115,0,0,1,1.625.869,3.882,3.882,0,0,1,.956,1.763,3.961,3.961,0,0,1,.064,2.018,3.057,3.057,0,0,1-.967,1.564,4.67,4.67,0,0,1-1.916.965l-2.024.543A.882.882,0,0,1-1326.841,1999.453Zm2.188-1.941a2.2,2.2,0,0,0,1.412-.92,2.15,2.15,0,0,0,.1-1.686,2.146,2.146,0,0,0-.928-1.406,2.238,2.238,0,0,0-1.684-.086l-.9.243,1.1,4.1Z" fill="#ffd000"/>
          <path id="Caminho_13732" data-name="Caminho 13732" d="M-1312.817,1995.113a.747.747,0,0,1-.115.633.926.926,0,0,1-.545.393.8.8,0,0,1-.453-.009.841.841,0,0,1-.4-.28l-.723-.891-3.246.871-.189,1.135a.839.839,0,0,1-.209.443.838.838,0,0,1-.394.235.976.976,0,0,1-.678-.064.734.734,0,0,1-.425-.489.88.88,0,0,1-.01-.394l1.189-6.141a.957.957,0,0,1,.275-.519,1.17,1.17,0,0,1,.526-.3,1.2,1.2,0,0,1,.6-.006.968.968,0,0,1,.5.311l4.1,4.722A.911.911,0,0,1-1312.817,1995.113Zm-3.224-1.37-1.6-1.965-.4,2.5Z" fill="#ffd000"/>
        </g>
      </g>
      <g id="EXPRESSÃO-2" style="mix-blend-mode: normal;isolation: isolate">
        <g id="Grupo_1920" data-name="Grupo 1920" style="mix-blend-mode: normal;isolation: isolate">
          <path id="Caminho_13733" data-name="Caminho 13733" d="M-1360.861,2016.957a.681.681,0,0,1-.3-.443l-1.114-4.158a.678.678,0,0,1,.039-.535.687.687,0,0,1,.443-.3l2.689-.721a.827.827,0,0,1,.543,0,.519.519,0,0,1,.279.36c.1.373-.075.619-.527.74l-1.957.525.28,1.041,1.8-.483c.451-.121.725,0,.825.37a.515.515,0,0,1-.064.451.811.811,0,0,1-.468.274l-1.8.484.3,1.135,1.958-.526c.45-.121.726.006.825.379a.5.5,0,0,1-.061.449.807.807,0,0,1-.468.276l-2.688.72A.68.68,0,0,1-1360.861,2016.957Z" fill="#ffd000"/>
          <path id="Caminho_13734" data-name="Caminho 13734" d="M-1351.886,2014.084a.642.642,0,0,1-.083.518.666.666,0,0,1-.408.322.631.631,0,0,1-.537-.1l-1.766-1.244-.93,1.966a.627.627,0,0,1-.4.359.672.672,0,0,1-.517-.079.654.654,0,0,1-.33-.411.661.661,0,0,1,.05-.464l1.03-2.124-1.906-1.3a.671.671,0,0,1-.283-.375.643.643,0,0,1,.081-.517.687.687,0,0,1,.418-.324.628.628,0,0,1,.536.1l1.73,1.2.889-1.905a.587.587,0,0,1,.4-.355.68.68,0,0,1,.523.072.648.648,0,0,1,.33.406.669.669,0,0,1-.05.465l-1,2.074,1.947,1.328A.659.659,0,0,1-1351.886,2014.084Z" fill="#ffd000"/>
          <path id="Caminho_13735" data-name="Caminho 13735" d="M-1350.9,2014.315a.727.727,0,0,1-.329-.466l-1.115-4.158a.687.687,0,0,1,.04-.535.688.688,0,0,1,.444-.3l1.989-.533a2.094,2.094,0,0,1,1.539.082,1.717,1.717,0,0,1,.849,1.152,1.708,1.708,0,0,1-.165,1.418,2.074,2.074,0,0,1-1.285.844l-1.221.328.355,1.32a.713.713,0,0,1-.056.57.75.75,0,0,1-.477.331A.729.729,0,0,1-1350.9,2014.315Zm1.485-3.519a.917.917,0,0,0,.544-.32.658.658,0,0,0,.054-.556q-.181-.677-.959-.467l-1.025.274.36,1.344Z" fill="#ffd000"/>
          <path id="Caminho_13736" data-name="Caminho 13736" d="M-1341.177,2011.313a.534.534,0,0,1-.095.471.765.765,0,0,1-.432.295.772.772,0,0,1-.373.008.8.8,0,0,1-.348-.18l-1.407-1.207a.86.86,0,0,0-.29-.168.543.543,0,0,0-.3,0l-.505.135.373,1.392a.733.733,0,0,1-.048.566.7.7,0,0,1-.461.327.731.731,0,0,1-.569-.05.733.733,0,0,1-.329-.466l-1.114-4.158a.682.682,0,0,1,.04-.535.683.683,0,0,1,.443-.3l1.95-.524a2.335,2.335,0,0,1,1.613.03,1.619,1.619,0,0,1,.836,1.114,1.707,1.707,0,0,1-.061,1.143,1.725,1.725,0,0,1-.808.838,1.074,1.074,0,0,1,.493.051,1.664,1.664,0,0,1,.483.3l.667.562A.741.741,0,0,1-1341.177,2011.313Zm-2.423-2.307a.568.568,0,0,0,.077-.537.592.592,0,0,0-.337-.439,1.21,1.21,0,0,0-.72.031l-.995.267.341,1.274,1-.267A1.234,1.234,0,0,0-1343.6,2009.006Z" fill="#ffd000"/>
          <path id="Caminho_13737" data-name="Caminho 13737" d="M-1340.169,2011.41a.691.691,0,0,1-.3-.444l-1.115-4.158a.687.687,0,0,1,.04-.535.686.686,0,0,1,.444-.3l2.688-.722a.819.819,0,0,1,.543.005.511.511,0,0,1,.279.358c.1.373-.075.621-.525.741l-1.959.525.279,1.041,1.8-.483q.677-.182.824.37a.506.506,0,0,1-.063.45.817.817,0,0,1-.467.276l-1.8.483.305,1.135,1.958-.526c.45-.12.726.005.826.378a.515.515,0,0,1-.063.452.811.811,0,0,1-.467.274l-2.689.722A.692.692,0,0,1-1340.169,2011.41Z" fill="#ffd000"/>
          <path id="Caminho_13738" data-name="Caminho 13738" d="M-1334.846,2010.094a2.713,2.713,0,0,1-.974-.142.666.666,0,0,1-.246-.16.592.592,0,0,1-.134-.263.643.643,0,0,1,.031-.442.428.428,0,0,1,.281-.258.635.635,0,0,1,.2-.021,1.235,1.235,0,0,1,.265.054,2.619,2.619,0,0,0,.7.087,3.1,3.1,0,0,0,.732-.113,1.47,1.47,0,0,0,.659-.323.449.449,0,0,0,.129-.464.38.38,0,0,0-.3-.248,3.261,3.261,0,0,0-.911-.025,5.091,5.091,0,0,1-1.31-.066,1.486,1.486,0,0,1-.752-.369,1.537,1.537,0,0,1-.374-.695,1.554,1.554,0,0,1,.054-.982,2.041,2.041,0,0,1,.643-.85,2.915,2.915,0,0,1,1.1-.54,3.855,3.855,0,0,1,1.044-.147,2.624,2.624,0,0,1,.912.172.668.668,0,0,1,.256.16.621.621,0,0,1,.132.26.661.661,0,0,1-.027.442.415.415,0,0,1-.278.255.564.564,0,0,1-.192.024,1.353,1.353,0,0,1-.275-.055c-.029-.01-.114-.029-.252-.062a1.869,1.869,0,0,0-.47-.04,2.39,2.39,0,0,0-.547.085,1.219,1.219,0,0,0-.6.321.474.474,0,0,0-.134.465.358.358,0,0,0,.151.218.868.868,0,0,0,.367.1,4.879,4.879,0,0,0,.74,0,4.765,4.765,0,0,1,1.279.077,1.571,1.571,0,0,1,.749.37,1.44,1.44,0,0,1,.37.667,1.545,1.545,0,0,1-.044.982,1.9,1.9,0,0,1-.643.822,3.2,3.2,0,0,1-1.142.535A4.762,4.762,0,0,1-1334.846,2010.094Z" fill="#ffd000"/>
          <path id="Caminho_13739" data-name="Caminho 13739" d="M-1329.686,2008.71a2.72,2.72,0,0,1-.975-.141.681.681,0,0,1-.246-.16.614.614,0,0,1-.134-.264.641.641,0,0,1,.032-.441.424.424,0,0,1,.28-.258.616.616,0,0,1,.2-.022,1.305,1.305,0,0,1,.263.054,2.58,2.58,0,0,0,.7.087,3.035,3.035,0,0,0,.732-.112,1.454,1.454,0,0,0,.659-.324.451.451,0,0,0,.13-.464.378.378,0,0,0-.3-.247,3.264,3.264,0,0,0-.911-.025,5.127,5.127,0,0,1-1.309-.066,1.475,1.475,0,0,1-.752-.37,1.528,1.528,0,0,1-.374-.7,1.547,1.547,0,0,1,.054-.98,2.031,2.031,0,0,1,.643-.852,2.936,2.936,0,0,1,1.1-.539,3.878,3.878,0,0,1,1.044-.147,2.579,2.579,0,0,1,.912.172.641.641,0,0,1,.255.16.615.615,0,0,1,.133.26.667.667,0,0,1-.027.442.421.421,0,0,1-.278.256.625.625,0,0,1-.193.023,1.222,1.222,0,0,1-.273-.056l-.254-.061a1.956,1.956,0,0,0-.469-.041,2.346,2.346,0,0,0-.548.086,1.229,1.229,0,0,0-.6.32.476.476,0,0,0-.133.465.35.35,0,0,0,.15.219.875.875,0,0,0,.367.1,4.91,4.91,0,0,0,.74,0,4.764,4.764,0,0,1,1.28.078,1.556,1.556,0,0,1,.749.37,1.439,1.439,0,0,1,.37.667,1.538,1.538,0,0,1-.045.982,1.9,1.9,0,0,1-.642.822,3.258,3.258,0,0,1-1.142.536A4.856,4.856,0,0,1-1329.686,2008.71Z" fill="#ffd000"/>
          <path id="Caminho_13740" data-name="Caminho 13740" d="M-1324.7,2000.864a2.9,2.9,0,0,0-.608.062.284.284,0,0,0-.11.055.772.772,0,0,0-.095.109.4.4,0,0,1-.247.2.257.257,0,0,1-.22-.028.317.317,0,0,1-.133-.2.754.754,0,0,1,.005-.38.907.907,0,0,1,.2-.379.709.709,0,0,1,.364-.226,2.3,2.3,0,0,1,.617-.057,2.868,2.868,0,0,0,.608-.064.371.371,0,0,0,.206-.163.428.428,0,0,1,.249-.192.261.261,0,0,1,.222.024.324.324,0,0,1,.129.2.738.738,0,0,1-.011.383.939.939,0,0,1-.2.378.7.7,0,0,1-.356.225A2.4,2.4,0,0,1-1324.7,2000.864Zm4.347,4.781a.573.573,0,0,1-.089.49.722.722,0,0,1-.421.306.624.624,0,0,1-.353-.006.645.645,0,0,1-.308-.217l-.56-.691-2.518.675-.146.88a.639.639,0,0,1-.163.343.626.626,0,0,1-.305.183.746.746,0,0,1-.525-.052.557.557,0,0,1-.33-.378.677.677,0,0,1-.008-.3l.923-4.762a.746.746,0,0,1,.212-.4.9.9,0,0,1,.409-.229.909.909,0,0,1,.466-.005.742.742,0,0,1,.388.241l3.182,3.662A.7.7,0,0,1-1320.35,2005.645Zm-2.5-1.062-1.242-1.524-.312,1.941Z" fill="#ffd000"/>
          <path id="Caminho_13741" data-name="Caminho 13741" d="M-1318.668,2005.533a2.456,2.456,0,0,1-1.215-.724,3.268,3.268,0,0,1-.733-1.4,3.262,3.262,0,0,1-.066-1.578,2.425,2.425,0,0,1,.692-1.231,3.06,3.06,0,0,1,1.365-.731,3.061,3.061,0,0,1,1.548-.05,2.4,2.4,0,0,1,1.21.721,3.279,3.279,0,0,1,.729,1.4,3.251,3.251,0,0,1,.065,1.578,2.449,2.449,0,0,1-.689,1.234,3.039,3.039,0,0,1-1.357.734A3.05,3.05,0,0,1-1318.668,2005.533Zm2.109-1.841a2.082,2.082,0,0,0,.007-1.371,2.055,2.055,0,0,0-.695-1.18,1.22,1.22,0,0,0-1.084-.176,1.229,1.229,0,0,0-.857.692,2.069,2.069,0,0,0-.006,1.372,2.076,2.076,0,0,0,.693,1.188,1.219,1.219,0,0,0,1.089.175A1.215,1.215,0,0,0-1316.559,2003.692Z" fill="#ffd000"/>
        </g>
      </g>
    </g>
  </g>
</svg>
