<svg xmlns="http://www.w3.org/2000/svg" width="317.373" height="242.814" viewBox="0 0 317.373 242.814">
  <g id="Grupo_771-3" data-name="Grupo 771-3" transform="translate(1209.29 -2799.699)">
    <circle id="Elipse_30-4" data-name="Elipse 30-4" cx="121.407" cy="121.407" r="121.407" transform="translate(-1162.495 2799.699)" fill="#36a39a"/>
    <g id="Grupo_355-4" data-name="Grupo 355-4">
      <g id="COISAS_NOSSAS" data-name="COISAS NOSSAS" style="mix-blend-mode: normal;isolation: isolate">
        <g id="Grupo_1900" data-name="Grupo 1900" style="mix-blend-mode: normal;isolation: isolate">
          <path id="Caminho_13600" data-name="Caminho 13600" d="M-1187.293,2954.527a25.471,25.471,0,0,1-12.776-7.794,35.774,35.774,0,0,1-7.766-15.015,35.507,35.507,0,0,1-.776-16.846,25.543,25.543,0,0,1,7.174-13.1,31.327,31.327,0,0,1,14.14-7.709,31.265,31.265,0,0,1,20.378.947,6.457,6.457,0,0,1,2.279,1.527,5.737,5.737,0,0,1,1.167,2.359,6.016,6.016,0,0,1-.213,4.019,3.755,3.755,0,0,1-2.537,2.328,6.674,6.674,0,0,1-2.114.255,8.268,8.268,0,0,1-2.23-.515,28.958,28.958,0,0,0-6.983-1.467,19.505,19.505,0,0,0-6.321.671q-7.976,2.138-10.679,8.162t-.076,15.826q5.3,19.773,21.335,15.472a18.174,18.174,0,0,0,5.559-2.514,38.079,38.079,0,0,0,5.562-4.83,12.351,12.351,0,0,1,1.8-1.6,6.005,6.005,0,0,1,1.834-.8,3.753,3.753,0,0,1,3.36.745,6.025,6.025,0,0,1,2.2,3.374,5.641,5.641,0,0,1,.14,2.679,6.353,6.353,0,0,1-1.181,2.409,31.256,31.256,0,0,1-17.17,11.015A31.3,31.3,0,0,1-1187.293,2954.527Z" fill="#f08800"/>
          <path id="Caminho_13601" data-name="Caminho 13601" d="M-1132.267,2939.73a25.863,25.863,0,0,1-12.734-7.807,35.507,35.507,0,0,1-7.755-14.972,35.509,35.509,0,0,1-.776-16.846,25.611,25.611,0,0,1,7.132-13.087,31.267,31.267,0,0,1,14.182-7.721,31.276,31.276,0,0,1,16.141-.409,25.612,25.612,0,0,1,12.723,7.764,35.495,35.495,0,0,1,7.754,14.974,35.5,35.5,0,0,1,.778,16.844,25.884,25.884,0,0,1-7.122,13.13,30.991,30.991,0,0,1-14.17,7.762A31,31,0,0,1-1132.267,2939.73Zm23.582-18.656q2.814-6.274.209-15.995t-8.131-13.716q-5.523-4-12.917-2.013t-10.135,8.193q-2.743,6.213-.137,15.933t8.141,13.757q5.535,4.038,12.845,2.076T-1108.685,2921.074Z" fill="#f08800"/>
          <path id="Caminho_13602" data-name="Caminho 13602" d="M-1076.441,2926.587a6.624,6.624,0,0,1-3.015-4.267l-12.495-46.606a6.506,6.506,0,0,1,.5-5.12,6.628,6.628,0,0,1,4.266-3.015,6.63,6.63,0,0,1,5.2.476,6.513,6.513,0,0,1,2.992,4.185l12.5,46.6a6.629,6.629,0,0,1-.475,5.2,6.625,6.625,0,0,1-4.268,3.014A6.624,6.624,0,0,1-1076.441,2926.587Z" fill="#f08800"/>
          <path id="Caminho_13603" data-name="Caminho 13603" d="M-1044.585,2918.536a26.352,26.352,0,0,1-10.39-1.89,6.01,6.01,0,0,1-2.309-1.472,5.814,5.814,0,0,1-1.242-2.473,5.8,5.8,0,0,1,.307-4,3.883,3.883,0,0,1,2.526-2.369,5.814,5.814,0,0,1,1.864-.189,11.593,11.593,0,0,1,2.4.472,28.95,28.95,0,0,0,8.108,1.342,30.431,30.431,0,0,0,8.337-1.122q5.483-1.47,7.9-4.077a6.036,6.036,0,0,0,1.5-6.013,4.876,4.876,0,0,0-3.814-3.43q-3.123-.853-10.4-.418a55.015,55.015,0,0,1-13.36-.514,16.537,16.537,0,0,1-8.222-3.762,15.191,15.191,0,0,1-4.279-7.491,16.249,16.249,0,0,1,.5-10.242,20.789,20.789,0,0,1,6.63-8.811,30.662,30.662,0,0,1,11.454-5.61q11.795-3.162,21.021.687a6.854,6.854,0,0,1,2.332,1.555,5.652,5.652,0,0,1,1.219,2.39,5.815,5.815,0,0,1-.307,4,3.886,3.886,0,0,1-2.527,2.368,5.782,5.782,0,0,1-1.77.208,12.131,12.131,0,0,1-2.491-.49,36.324,36.324,0,0,0-7.141-1.558,21.6,21.6,0,0,0-7.558.869q-5.069,1.36-7.452,4.091a6.342,6.342,0,0,0-1.471,6.137,4.979,4.979,0,0,0,2,2.981,9.64,9.64,0,0,0,4.351,1.283,58.993,58.993,0,0,0,7.993.083q11.964-.535,17.956,2.042a13.376,13.376,0,0,1,7.817,9.392,16.14,16.14,0,0,1-.433,10.178,19.707,19.707,0,0,1-6.615,8.542,33.123,33.123,0,0,1-11.819,5.573A48.054,48.054,0,0,1-1044.585,2918.536Z" fill="#f08800"/>
          <path id="Caminho_13604" data-name="Caminho 13604" d="M-946.169,2887.384a5.211,5.211,0,0,1-.811,4.447,6.572,6.572,0,0,1-3.844,2.768,5.8,5.8,0,0,1-3.224-.07,5.709,5.709,0,0,1-2.862-2.038l-7.032-8.622-28.163,7.55-1.774,10.984a5.806,5.806,0,0,1-1.417,3.185,5.732,5.732,0,0,1-2.8,1.685,6.733,6.733,0,0,1-4.755-.462,5.161,5.161,0,0,1-2.968-3.434,6.887,6.887,0,0,1-.048-2.837l9.8-53.117a6.727,6.727,0,0,1,1.928-3.767,8.061,8.061,0,0,1,3.626-2.086,7.992,7.992,0,0,1,4.277.01,7.623,7.623,0,0,1,3.627,2.235l35.06,41.09A6.922,6.922,0,0,1-946.169,2887.384Zm-24.8-12.138L-986.4,2856.23l-3.928,24.206Z" fill="#f08800"/>
          <path id="Caminho_13605" data-name="Caminho 13605" d="M-929.775,2887.752a26.361,26.361,0,0,1-10.39-1.888,6.011,6.011,0,0,1-2.31-1.473,5.826,5.826,0,0,1-1.241-2.473,5.809,5.809,0,0,1,.307-4,3.888,3.888,0,0,1,2.526-2.369,5.841,5.841,0,0,1,1.864-.188,11.505,11.505,0,0,1,2.4.471,28.951,28.951,0,0,0,8.107,1.343,30.429,30.429,0,0,0,8.338-1.122q5.481-1.47,7.9-4.077a6.037,6.037,0,0,0,1.5-6.014,4.875,4.875,0,0,0-3.813-3.429q-3.123-.855-10.4-.419a54.934,54.934,0,0,1-13.362-.514,16.536,16.536,0,0,1-8.221-3.761,15.2,15.2,0,0,1-4.279-7.491,16.255,16.255,0,0,1,.5-10.242,20.808,20.808,0,0,1,6.631-8.813,30.662,30.662,0,0,1,11.453-5.608q11.8-3.162,21.021.686a6.852,6.852,0,0,1,2.332,1.556,5.647,5.647,0,0,1,1.219,2.39,5.812,5.812,0,0,1-.307,4,3.885,3.885,0,0,1-2.527,2.369,5.837,5.837,0,0,1-1.769.208,12.272,12.272,0,0,1-2.491-.49,36.355,36.355,0,0,0-7.141-1.558,21.61,21.61,0,0,0-7.56.869q-5.067,1.359-7.451,4.09a6.341,6.341,0,0,0-1.47,6.138,4.978,4.978,0,0,0,2,2.981,9.627,9.627,0,0,0,4.35,1.282,58.862,58.862,0,0,0,7.992.083q11.965-.536,17.957,2.042a13.378,13.378,0,0,1,7.817,9.393,16.14,16.14,0,0,1-.433,10.178,19.7,19.7,0,0,1-6.615,8.542,33.113,33.113,0,0,1-11.818,5.572A47.983,47.983,0,0,1-929.775,2887.752Z" fill="#f08800"/>
        </g>
        <g id="Grupo_1901" data-name="Grupo 1901" style="mix-blend-mode: normal;isolation: isolate">
          <path id="Caminho_13606" data-name="Caminho 13606" d="M-1136.259,2966.929a5.25,5.25,0,0,1,2.323,3.285l9.881,36.851a5.341,5.341,0,0,1-.351,4.072,4.8,4.8,0,0,1-3.136,2.355,4.913,4.913,0,0,1-4.269-.687l-29.56-22.279,6.639,24.763a5.491,5.491,0,0,1-.285,4.055,4.582,4.582,0,0,1-3.07,2.337,4.685,4.685,0,0,1-3.86-.478,5.412,5.412,0,0,1-2.309-3.36l-9.88-36.85a5.248,5.248,0,0,1,.369-4.007,4.8,4.8,0,0,1,3.135-2.356,4.6,4.6,0,0,1,4.2.7l29.509,22.084-6.6-24.632a5.314,5.314,0,0,1,.335-4,4.611,4.611,0,0,1,3.038-2.33A4.8,4.8,0,0,1-1136.259,2966.929Z" fill="#f08800"/>
          <path id="Caminho_13607" data-name="Caminho 13607" d="M-1104.921,3004.5a20.441,20.441,0,0,1-10.069-6.173,28.062,28.062,0,0,1-6.131-11.839,28.069,28.069,0,0,1-.614-13.319,20.238,20.238,0,0,1,5.639-10.348,24.73,24.73,0,0,1,11.214-6.1,24.738,24.738,0,0,1,12.762-.324,20.234,20.234,0,0,1,10.06,6.14,28.065,28.065,0,0,1,6.132,11.838,28.075,28.075,0,0,1,.614,13.32,20.452,20.452,0,0,1-5.631,10.382,24.492,24.492,0,0,1-11.2,6.136A24.494,24.494,0,0,1-1104.921,3004.5Zm18.646-14.751q2.226-4.962.166-12.648t-6.429-10.845a11.508,11.508,0,0,0-10.213-1.593,11.412,11.412,0,0,0-8.015,6.48q-2.169,4.911-.108,12.6t6.437,10.877a11.391,11.391,0,0,0,10.157,1.641A11.485,11.485,0,0,0-1086.275,2989.754Z" fill="#f08800"/>
          <path id="Caminho_13608" data-name="Caminho 13608" d="M-1055.034,2992.959a20.826,20.826,0,0,1-8.215-1.493,4.735,4.735,0,0,1-1.826-1.165,4.594,4.594,0,0,1-.982-1.955,4.585,4.585,0,0,1,.243-3.163,3.073,3.073,0,0,1,2-1.873,4.564,4.564,0,0,1,1.473-.149,9.246,9.246,0,0,1,1.9.372,22.848,22.848,0,0,0,6.411,1.062,24.064,24.064,0,0,0,6.592-.888,12.991,12.991,0,0,0,6.247-3.222,4.775,4.775,0,0,0,1.189-4.756,3.855,3.855,0,0,0-3.016-2.712,28.386,28.386,0,0,0-8.22-.329,43.551,43.551,0,0,1-10.566-.407,13.067,13.067,0,0,1-6.5-2.976,12.012,12.012,0,0,1-3.383-5.923,12.841,12.841,0,0,1,.4-8.1,16.446,16.446,0,0,1,5.243-6.968,24.217,24.217,0,0,1,9.056-4.434q9.327-2.5,16.622.541a5.422,5.422,0,0,1,1.844,1.233,4.451,4.451,0,0,1,.964,1.887,4.6,4.6,0,0,1-.244,3.164,3.068,3.068,0,0,1-2,1.873,4.607,4.607,0,0,1-1.4.165,9.842,9.842,0,0,1-1.97-.387,28.768,28.768,0,0,0-5.646-1.234,17.1,17.1,0,0,0-5.977.687,11.594,11.594,0,0,0-5.892,3.235,5.014,5.014,0,0,0-1.164,4.854,3.937,3.937,0,0,0,1.582,2.355,7.608,7.608,0,0,0,3.441,1.016,46.666,46.666,0,0,0,6.319.065q9.462-.424,14.2,1.615a10.574,10.574,0,0,1,6.18,7.425,12.759,12.759,0,0,1-.342,8.049,15.561,15.561,0,0,1-5.23,6.753,26.164,26.164,0,0,1-9.344,4.407A37.953,37.953,0,0,1-1055.034,2992.959Z" fill="#f08800"/>
          <path id="Caminho_13609" data-name="Caminho 13609" d="M-1012.272,2981.5a20.842,20.842,0,0,1-8.215-1.5,4.724,4.724,0,0,1-1.827-1.165,4.608,4.608,0,0,1-.982-1.954,4.592,4.592,0,0,1,.244-3.163,3.07,3.07,0,0,1,2-1.873,4.55,4.55,0,0,1,1.474-.149,9.224,9.224,0,0,1,1.895.372,22.845,22.845,0,0,0,6.412,1.062,24.039,24.039,0,0,0,6.591-.887,12.987,12.987,0,0,0,6.247-3.224,4.773,4.773,0,0,0,1.19-4.755,3.855,3.855,0,0,0-3.016-2.712,28.46,28.46,0,0,0-8.22-.33,43.5,43.5,0,0,1-10.566-.407,13.059,13.059,0,0,1-6.5-2.975,12.013,12.013,0,0,1-3.384-5.923,12.848,12.848,0,0,1,.4-8.1,16.443,16.443,0,0,1,5.243-6.968,24.244,24.244,0,0,1,9.056-4.435q9.325-2.5,16.622.542a5.424,5.424,0,0,1,1.843,1.232,4.457,4.457,0,0,1,.964,1.888,4.6,4.6,0,0,1-.243,3.165,3.077,3.077,0,0,1-2,1.873,4.658,4.658,0,0,1-1.4.164,9.8,9.8,0,0,1-1.97-.388,28.738,28.738,0,0,0-5.646-1.232,17.08,17.08,0,0,0-5.976.686,11.61,11.61,0,0,0-5.893,3.234,5.016,5.016,0,0,0-1.163,4.855,3.939,3.939,0,0,0,1.582,2.355,7.616,7.616,0,0,0,3.441,1.016,46.659,46.659,0,0,0,6.319.065q9.462-.424,14.2,1.615a10.577,10.577,0,0,1,6.18,7.426,12.763,12.763,0,0,1-.342,8.048,15.56,15.56,0,0,1-5.23,6.752,26.151,26.151,0,0,1-9.345,4.408A37.989,37.989,0,0,1-1012.272,2981.5Z" fill="#f08800"/>
          <path id="Caminho_13610" data-name="Caminho 13610" d="M-934.455,2956.864a4.117,4.117,0,0,1-.641,3.516,5.2,5.2,0,0,1-3.04,2.189,4.589,4.589,0,0,1-2.55-.057,4.517,4.517,0,0,1-2.262-1.61l-5.56-6.819-22.268,5.97-1.4,8.686a4.583,4.583,0,0,1-1.12,2.517,4.533,4.533,0,0,1-2.213,1.334,5.328,5.328,0,0,1-3.76-.366,4.082,4.082,0,0,1-2.346-2.715,5.435,5.435,0,0,1-.038-2.243l7.749-42a5.312,5.312,0,0,1,1.525-2.978,6.354,6.354,0,0,1,2.867-1.649,6.3,6.3,0,0,1,3.382.009,6.013,6.013,0,0,1,2.867,1.766l27.722,32.49A5.448,5.448,0,0,1-934.455,2956.864Zm-19.612-9.6-12.2-15.036-3.106,19.14Z" fill="#f08800"/>
          <path id="Caminho_13611" data-name="Caminho 13611" d="M-921.492,2957.155a20.866,20.866,0,0,1-8.216-1.493,4.764,4.764,0,0,1-1.826-1.166,4.6,4.6,0,0,1-.982-1.955,4.6,4.6,0,0,1,.243-3.163,3.078,3.078,0,0,1,2-1.873,4.623,4.623,0,0,1,1.473-.149,9.257,9.257,0,0,1,1.9.372,22.807,22.807,0,0,0,6.411,1.062,24.025,24.025,0,0,0,6.591-.887,12.989,12.989,0,0,0,6.247-3.223,4.775,4.775,0,0,0,1.19-4.756,3.854,3.854,0,0,0-3.016-2.711,28.394,28.394,0,0,0-8.221-.33,43.544,43.544,0,0,1-10.565-.407,13.058,13.058,0,0,1-6.5-2.976,12,12,0,0,1-3.383-5.922,12.844,12.844,0,0,1,.4-8.1,16.446,16.446,0,0,1,5.243-6.968,24.215,24.215,0,0,1,9.056-4.433q9.327-2.5,16.621.541a5.384,5.384,0,0,1,1.844,1.232,4.468,4.468,0,0,1,.965,1.888,4.6,4.6,0,0,1-.244,3.164,3.075,3.075,0,0,1-2,1.873,4.607,4.607,0,0,1-1.4.164,9.864,9.864,0,0,1-1.97-.387,28.736,28.736,0,0,0-5.645-1.233,17.1,17.1,0,0,0-5.977.686,11.59,11.59,0,0,0-5.892,3.236,5.013,5.013,0,0,0-1.164,4.853,3.941,3.941,0,0,0,1.582,2.356,7.614,7.614,0,0,0,3.441,1.015,46.8,46.8,0,0,0,6.319.066q9.462-.426,14.2,1.614a10.575,10.575,0,0,1,6.18,7.426,12.756,12.756,0,0,1-.342,8.048,15.569,15.569,0,0,1-5.23,6.753,26.171,26.171,0,0,1-9.345,4.408A38.027,38.027,0,0,1-921.492,2957.155Z" fill="#f08800"/>
        </g>
      </g>
      <g id="COISAS_NOSSAS-2" data-name="COISAS NOSSAS-2" style="mix-blend-mode: normal;isolation: isolate">
        <g id="Grupo_1902" data-name="Grupo 1902" style="mix-blend-mode: normal;isolation: isolate">
          <path id="Caminho_13612" data-name="Caminho 13612" d="M-1183.108,2958.527a25.474,25.474,0,0,1-12.775-7.794,35.772,35.772,0,0,1-7.766-15.015,35.51,35.51,0,0,1-.776-16.846,25.541,25.541,0,0,1,7.174-13.1,31.316,31.316,0,0,1,14.14-7.709,31.265,31.265,0,0,1,20.378.947,6.465,6.465,0,0,1,2.279,1.526,5.744,5.744,0,0,1,1.167,2.359,6.019,6.019,0,0,1-.213,4.02,3.753,3.753,0,0,1-2.537,2.328,6.609,6.609,0,0,1-2.113.254,8.222,8.222,0,0,1-2.231-.514,29.013,29.013,0,0,0-6.983-1.468,19.5,19.5,0,0,0-6.321.671q-7.975,2.139-10.679,8.162t-.076,15.826q5.3,19.773,21.335,15.473a18.175,18.175,0,0,0,5.559-2.514,38.091,38.091,0,0,0,5.562-4.831,12.357,12.357,0,0,1,1.8-1.6,5.988,5.988,0,0,1,1.833-.8,3.749,3.749,0,0,1,3.361.745,6.022,6.022,0,0,1,2.2,3.374,5.639,5.639,0,0,1,.14,2.678,6.374,6.374,0,0,1-1.18,2.409,31.258,31.258,0,0,1-17.171,11.016A31.319,31.319,0,0,1-1183.108,2958.527Z" fill="#ffd000"/>
          <path id="Caminho_13613" data-name="Caminho 13613" d="M-1128.081,2943.729a25.861,25.861,0,0,1-12.734-7.806,35.494,35.494,0,0,1-7.755-14.972,35.507,35.507,0,0,1-.776-16.846,25.606,25.606,0,0,1,7.132-13.088,31.266,31.266,0,0,1,14.182-7.72,31.277,31.277,0,0,1,16.141-.41,25.62,25.62,0,0,1,12.723,7.764,35.521,35.521,0,0,1,7.755,14.974,35.5,35.5,0,0,1,.776,16.844,25.873,25.873,0,0,1-7.121,13.13,30.983,30.983,0,0,1-14.17,7.763A30.987,30.987,0,0,1-1128.081,2943.729Zm23.582-18.655q2.814-6.276.209-15.995t-8.13-13.717q-5.526-3.995-12.917-2.012t-10.137,8.193q-2.742,6.212-.135,15.933t8.14,13.756q5.535,4.038,12.846,2.078T-1104.5,2925.074Z" fill="#ffd000"/>
          <path id="Caminho_13614" data-name="Caminho 13614" d="M-1072.255,2930.586a6.619,6.619,0,0,1-3.015-4.266l-12.5-46.606a6.514,6.514,0,0,1,.5-5.12,6.628,6.628,0,0,1,4.267-3.015,6.63,6.63,0,0,1,5.2.475,6.509,6.509,0,0,1,2.992,4.185l12.5,46.6a6.628,6.628,0,0,1-.475,5.2,6.621,6.621,0,0,1-4.268,3.014A6.619,6.619,0,0,1-1072.255,2930.586Z" fill="#ffd000"/>
          <path id="Caminho_13615" data-name="Caminho 13615" d="M-1040.4,2922.536a26.378,26.378,0,0,1-10.391-1.89,6.027,6.027,0,0,1-2.309-1.473,5.822,5.822,0,0,1-1.241-2.472,5.8,5.8,0,0,1,.307-4,3.885,3.885,0,0,1,2.526-2.37,5.838,5.838,0,0,1,1.864-.188,11.531,11.531,0,0,1,2.4.471,28.951,28.951,0,0,0,8.107,1.343,30.38,30.38,0,0,0,8.337-1.122q5.483-1.469,7.9-4.077a6.036,6.036,0,0,0,1.5-6.014,4.875,4.875,0,0,0-3.814-3.429q-3.123-.853-10.4-.419a55.034,55.034,0,0,1-13.361-.513,16.554,16.554,0,0,1-8.222-3.762,15.2,15.2,0,0,1-4.278-7.492,16.259,16.259,0,0,1,.5-10.241,20.821,20.821,0,0,1,6.631-8.812,30.637,30.637,0,0,1,11.454-5.609q11.795-3.164,21.021.686a6.865,6.865,0,0,1,2.332,1.556,5.645,5.645,0,0,1,1.219,2.39,5.814,5.814,0,0,1-.307,4,3.884,3.884,0,0,1-2.527,2.369,5.81,5.81,0,0,1-1.77.207,12.1,12.1,0,0,1-2.491-.489,36.207,36.207,0,0,0-7.141-1.559,21.581,21.581,0,0,0-7.559.869q-5.069,1.359-7.451,4.09a6.34,6.34,0,0,0-1.471,6.138,4.978,4.978,0,0,0,2,2.981,9.636,9.636,0,0,0,4.351,1.282,58.95,58.95,0,0,0,7.992.084q11.966-.537,17.957,2.043a13.367,13.367,0,0,1,7.816,9.391,16.147,16.147,0,0,1-.432,10.178,19.7,19.7,0,0,1-6.615,8.541,33.074,33.074,0,0,1-11.819,5.573A48.058,48.058,0,0,1-1040.4,2922.536Z" fill="#ffd000"/>
          <path id="Caminho_13616" data-name="Caminho 13616" d="M-941.983,2891.384a5.21,5.21,0,0,1-.811,4.448,6.57,6.57,0,0,1-3.845,2.767,5.807,5.807,0,0,1-3.224-.069,5.718,5.718,0,0,1-2.861-2.039l-7.032-8.622-28.163,7.55-1.774,10.984a5.81,5.81,0,0,1-1.417,3.185,5.737,5.737,0,0,1-2.8,1.685,6.728,6.728,0,0,1-4.754-.461,5.165,5.165,0,0,1-2.969-3.436,6.877,6.877,0,0,1-.049-2.835l9.8-53.119a6.733,6.733,0,0,1,1.929-3.766,8.041,8.041,0,0,1,3.627-2.086,7.988,7.988,0,0,1,4.276.01,7.628,7.628,0,0,1,3.627,2.235l35.06,41.09A6.923,6.923,0,0,1-941.983,2891.384Zm-24.8-12.138-15.428-19.016-3.929,24.206Z" fill="#ffd000"/>
          <path id="Caminho_13617" data-name="Caminho 13617" d="M-925.588,2891.753a26.362,26.362,0,0,1-10.391-1.889,6.011,6.011,0,0,1-2.309-1.473,5.816,5.816,0,0,1-1.242-2.473,5.809,5.809,0,0,1,.307-4,3.883,3.883,0,0,1,2.527-2.369,5.8,5.8,0,0,1,1.863-.188,11.559,11.559,0,0,1,2.4.47,28.953,28.953,0,0,0,8.107,1.344,30.434,30.434,0,0,0,8.338-1.122q5.483-1.469,7.9-4.078a6.038,6.038,0,0,0,1.5-6.014,4.877,4.877,0,0,0-3.813-3.429q-3.124-.854-10.4-.418a55.029,55.029,0,0,1-13.361-.513,16.536,16.536,0,0,1-8.222-3.763,15.2,15.2,0,0,1-4.279-7.491,16.246,16.246,0,0,1,.5-10.241,20.8,20.8,0,0,1,6.631-8.813,30.662,30.662,0,0,1,11.453-5.609q11.794-3.162,21.021.687a6.842,6.842,0,0,1,2.332,1.556,5.641,5.641,0,0,1,1.219,2.389,5.824,5.824,0,0,1-.307,4,3.887,3.887,0,0,1-2.527,2.369,5.837,5.837,0,0,1-1.77.207,12.25,12.25,0,0,1-2.491-.489,36.2,36.2,0,0,0-7.14-1.559,21.6,21.6,0,0,0-7.559.868q-5.068,1.36-7.452,4.091a6.342,6.342,0,0,0-1.471,6.137,4.984,4.984,0,0,0,2,2.981,9.624,9.624,0,0,0,4.351,1.282,58.685,58.685,0,0,0,7.993.084q11.964-.536,17.956,2.043a13.37,13.37,0,0,1,7.817,9.391,16.143,16.143,0,0,1-.433,10.179,19.7,19.7,0,0,1-6.615,8.541,33.1,33.1,0,0,1-11.818,5.573A48.025,48.025,0,0,1-925.588,2891.753Z" fill="#ffd000"/>
        </g>
        <g id="Grupo_1903" data-name="Grupo 1903" style="mix-blend-mode: normal;isolation: isolate">
          <path id="Caminho_13618" data-name="Caminho 13618" d="M-1132.073,2970.93a5.251,5.251,0,0,1,2.324,3.284l9.88,36.851a5.339,5.339,0,0,1-.351,4.073,4.8,4.8,0,0,1-3.136,2.355,4.917,4.917,0,0,1-4.268-.687l-29.561-22.28,6.64,24.763a5.5,5.5,0,0,1-.286,4.056,4.587,4.587,0,0,1-3.07,2.337,4.693,4.693,0,0,1-3.86-.478,5.417,5.417,0,0,1-2.308-3.361l-9.881-36.85a5.245,5.245,0,0,1,.369-4.006,4.8,4.8,0,0,1,3.135-2.356,4.607,4.607,0,0,1,4.2.7l29.508,22.083-6.6-24.632a5.324,5.324,0,0,1,.337-4,4.606,4.606,0,0,1,3.037-2.329A4.8,4.8,0,0,1-1132.073,2970.93Z" fill="#ffd000"/>
          <path id="Caminho_13619" data-name="Caminho 13619" d="M-1100.734,3008.5a20.432,20.432,0,0,1-10.07-6.173,28.048,28.048,0,0,1-6.131-11.838,28.059,28.059,0,0,1-.614-13.32,20.233,20.233,0,0,1,5.64-10.348,24.726,24.726,0,0,1,11.213-6.1,24.738,24.738,0,0,1,12.762-.324,20.235,20.235,0,0,1,10.06,6.14,28.05,28.05,0,0,1,6.132,11.838,28.059,28.059,0,0,1,.613,13.32,20.449,20.449,0,0,1-5.63,10.382,24.494,24.494,0,0,1-11.2,6.136A24.492,24.492,0,0,1-1100.734,3008.5Zm18.646-14.751q2.223-4.962.165-12.648t-6.429-10.845a11.509,11.509,0,0,0-10.214-1.592,11.41,11.41,0,0,0-8.014,6.48q-2.169,4.911-.108,12.6t6.437,10.878a11.392,11.392,0,0,0,10.157,1.641A11.489,11.489,0,0,0-1082.088,2993.754Z" fill="#ffd000"/>
          <path id="Caminho_13620" data-name="Caminho 13620" d="M-1050.848,2996.959a20.808,20.808,0,0,1-8.215-1.493,4.752,4.752,0,0,1-1.827-1.164,4.627,4.627,0,0,1-.981-1.956,4.588,4.588,0,0,1,.243-3.162,3.068,3.068,0,0,1,2-1.873,4.537,4.537,0,0,1,1.474-.149,9.1,9.1,0,0,1,1.9.372,22.882,22.882,0,0,0,6.411,1.062,24.065,24.065,0,0,0,6.592-.889,12.97,12.97,0,0,0,6.247-3.222,4.773,4.773,0,0,0,1.189-4.755,3.852,3.852,0,0,0-3.015-2.712,28.429,28.429,0,0,0-8.221-.33,43.49,43.49,0,0,1-10.565-.407,13.078,13.078,0,0,1-6.5-2.975,12.013,12.013,0,0,1-3.383-5.922,12.855,12.855,0,0,1,.4-8.1,16.424,16.424,0,0,1,5.243-6.967,24.21,24.21,0,0,1,9.055-4.435q9.327-2.5,16.621.542a5.407,5.407,0,0,1,1.845,1.232,4.451,4.451,0,0,1,.964,1.888,4.6,4.6,0,0,1-.244,3.163,3.071,3.071,0,0,1-2,1.874,4.646,4.646,0,0,1-1.4.164,9.646,9.646,0,0,1-1.97-.387,28.691,28.691,0,0,0-5.646-1.233,17.1,17.1,0,0,0-5.977.687,11.607,11.607,0,0,0-5.892,3.234,5.014,5.014,0,0,0-1.163,4.854,3.938,3.938,0,0,0,1.582,2.356,7.6,7.6,0,0,0,3.44,1.015,46.487,46.487,0,0,0,6.32.066q9.461-.426,14.2,1.616a10.566,10.566,0,0,1,6.18,7.423,12.763,12.763,0,0,1-.342,8.05,15.553,15.553,0,0,1-5.23,6.752,26.145,26.145,0,0,1-9.344,4.407A37.906,37.906,0,0,1-1050.848,2996.959Z" fill="#ffd000"/>
          <path id="Caminho_13621" data-name="Caminho 13621" d="M-1008.086,2985.5A20.847,20.847,0,0,1-1016.3,2984a4.764,4.764,0,0,1-1.826-1.164,4.6,4.6,0,0,1-.981-1.956,4.586,4.586,0,0,1,.243-3.163,3.07,3.07,0,0,1,2-1.873,4.568,4.568,0,0,1,1.473-.148,9.114,9.114,0,0,1,1.9.372,22.883,22.883,0,0,0,6.411,1.062,24.026,24.026,0,0,0,6.592-.888,12.975,12.975,0,0,0,6.246-3.223,4.774,4.774,0,0,0,1.19-4.756,3.854,3.854,0,0,0-3.015-2.711,28.432,28.432,0,0,0-8.221-.33,43.539,43.539,0,0,1-10.565-.407,13.064,13.064,0,0,1-6.5-2.976,12.018,12.018,0,0,1-3.384-5.922,12.858,12.858,0,0,1,.4-8.1,16.434,16.434,0,0,1,5.243-6.967,24.24,24.24,0,0,1,9.056-4.435q9.327-2.5,16.621.541a5.42,5.42,0,0,1,1.844,1.233,4.447,4.447,0,0,1,.965,1.888,4.6,4.6,0,0,1-.244,3.164,3.07,3.07,0,0,1-2,1.873,4.637,4.637,0,0,1-1.4.164,9.724,9.724,0,0,1-1.97-.387,28.753,28.753,0,0,0-5.645-1.233,17.065,17.065,0,0,0-5.977.687,11.6,11.6,0,0,0-5.892,3.234,5.012,5.012,0,0,0-1.163,4.854,3.933,3.933,0,0,0,1.582,2.356,7.608,7.608,0,0,0,3.44,1.015,46.793,46.793,0,0,0,6.319.066q9.462-.426,14.2,1.615a10.571,10.571,0,0,1,6.18,7.425,12.762,12.762,0,0,1-.342,8.048,15.566,15.566,0,0,1-5.23,6.753,26.171,26.171,0,0,1-9.345,4.407A37.948,37.948,0,0,1-1008.086,2985.5Z" fill="#ffd000"/>
          <path id="Caminho_13622" data-name="Caminho 13622" d="M-930.269,2960.865a4.118,4.118,0,0,1-.641,3.516,5.2,5.2,0,0,1-3.039,2.188,4.588,4.588,0,0,1-2.55-.056,4.528,4.528,0,0,1-2.263-1.611l-5.559-6.819-22.269,5.971-1.4,8.686a4.59,4.59,0,0,1-1.12,2.517,4.527,4.527,0,0,1-2.213,1.333,5.324,5.324,0,0,1-3.759-.365,4.08,4.08,0,0,1-2.347-2.715,5.44,5.44,0,0,1-.038-2.244l7.749-42a5.312,5.312,0,0,1,1.525-2.978,6.372,6.372,0,0,1,2.868-1.649,6.3,6.3,0,0,1,3.381.008,6.033,6.033,0,0,1,2.868,1.766l27.721,32.49A5.453,5.453,0,0,1-930.269,2960.865Zm-19.612-9.6-12.2-15.036-3.107,19.14Z" fill="#ffd000"/>
          <path id="Caminho_13623" data-name="Caminho 13623" d="M-917.306,2961.155a20.848,20.848,0,0,1-8.216-1.493,4.763,4.763,0,0,1-1.826-1.165,4.611,4.611,0,0,1-.981-1.956,4.583,4.583,0,0,1,.243-3.162,3.069,3.069,0,0,1,2-1.873,4.565,4.565,0,0,1,1.474-.149,9.184,9.184,0,0,1,1.9.372,22.842,22.842,0,0,0,6.411,1.062,24.023,24.023,0,0,0,6.591-.888,12.971,12.971,0,0,0,6.247-3.223,4.77,4.77,0,0,0,1.19-4.755,3.856,3.856,0,0,0-3.016-2.712,28.465,28.465,0,0,0-8.221-.33,43.483,43.483,0,0,1-10.564-.407,13.065,13.065,0,0,1-6.5-2.975,12,12,0,0,1-3.383-5.922,12.845,12.845,0,0,1,.4-8.1,16.429,16.429,0,0,1,5.242-6.968,24.217,24.217,0,0,1,9.056-4.434q9.327-2.5,16.621.542a5.376,5.376,0,0,1,1.844,1.231,4.472,4.472,0,0,1,.965,1.889,4.6,4.6,0,0,1-.244,3.163,3.078,3.078,0,0,1-2,1.874,4.642,4.642,0,0,1-1.4.163,9.619,9.619,0,0,1-1.969-.387,28.681,28.681,0,0,0-5.646-1.232,17.1,17.1,0,0,0-5.977.686,11.6,11.6,0,0,0-5.892,3.235,5.012,5.012,0,0,0-1.163,4.853,3.937,3.937,0,0,0,1.582,2.357,7.606,7.606,0,0,0,3.44,1.014,46.616,46.616,0,0,0,6.32.067q9.46-.427,14.2,1.615a10.566,10.566,0,0,1,6.18,7.424,12.759,12.759,0,0,1-.342,8.049,15.568,15.568,0,0,1-5.23,6.752,26.13,26.13,0,0,1-9.345,4.408A37.987,37.987,0,0,1-917.306,2961.155Z" fill="#ffd000"/>
        </g>
      </g>
    </g>
  </g>
</svg>
