<svg xmlns="http://www.w3.org/2000/svg" width="70.364" height="49.17" viewBox="0 0 70.364 49.17"><defs><style>.a{fill:#2e3192;}.b{fill:#fcaf17;}.c{fill:#f26522;}</style></defs><g transform="translate(0 0)"><g transform="translate(0 0)"><path class="a" d="M155.328,137.88a3.54,3.54,0,1,0-3.528-3.528A3.5,3.5,0,0,0,155.328,137.88Z" transform="translate(-125.535 -118.526)"/><path class="a" d="M197.258,215.9A3.545,3.545,0,0,0,194,218.08h6.492A3.6,3.6,0,0,0,197.258,215.9Z" transform="translate(-157.396 -182.777)"/><path class="a" d="M272.952,223.08a3.54,3.54,0,1,0-3.552-3.528A3.534,3.534,0,0,0,272.952,223.08Z" transform="translate(-214.324 -182.852)"/><path class="a" d="M297.862,137.7a1.862,1.862,0,1,0,1.862,1.862A1.861,1.861,0,0,0,297.862,137.7Z" transform="translate(-234.407 -123.735)"/><path class="a" d="M92.247,89.642a3.227,3.227,0,0,0-.2-1.078,5.2,5.2,0,0,0,.588-2.474,5.377,5.377,0,0,0-10.559-1.445H77.915a3,3,0,0,0-2.572,1.445c-.318-.025-.637-.049-.98-.049A10.324,10.324,0,0,0,68.433,87.9c-.147-.122-.294-.245-.465-.367l-3.405-2.107a3.126,3.126,0,0,0-1.592-.441A3.048,3.048,0,0,0,60.4,86.408l-3.405,5.512-3.405-5.512a2.992,2.992,0,0,0-2.572-1.421,3.192,3.192,0,0,0-1.592.441l-3.405,2.107a2.952,2.952,0,0,0-1.347,1.886,3.09,3.09,0,0,0,.367,2.278l9.31,15.067L51.7,107.943a3.027,3.027,0,0,0-1.543,3.969L56.87,127.2a3.029,3.029,0,0,0,2.768,1.813h0a3.029,3.029,0,0,0,2.768-1.813l2.156-4.924,2.156,4.924a3.029,3.029,0,0,0,2.768,1.813h0a3.029,3.029,0,0,0,2.768-1.813l2.107-4.8a10.519,10.519,0,0,0,10.045,7.472h.588a3.011,3.011,0,0,0,3.013-3.013v-3.871h1.935a3.053,3.053,0,0,0,.857,1.837l2.744,2.768a3,3,0,0,0,2.131.882h0a3,3,0,0,0,2.131-.882l.759-.759a10.5,10.5,0,1,0,4.606-19.943,4.154,4.154,0,0,0-.539.024v-1.4a3.742,3.742,0,0,0,.882-.171,3.062,3.062,0,0,0,1.96-2.327,6.675,6.675,0,0,0,2.425.465,3.07,3.07,0,0,0,1.96.735h2.082a3.011,3.011,0,0,0,3.013-3.013V91.872a3.011,3.011,0,0,0-3.013-3.013h-2.082a3,3,0,0,0-1.984.735,7.023,7.023,0,0,0-3.479,1,3.031,3.031,0,0,0-1.911-.686h-2.082a3.087,3.087,0,0,0-1.494.392l-1.3-1.69a3.007,3.007,0,0,0-5.341,1.911Zm3.038.882,5.194,6.272v-3.92h1.641a6.91,6.91,0,0,0,.441,7.889v1.715l-5.194-6.247v3.92H95.285Zm-6.051,12.887H85.289V89.642h3.944Zm-1.96-19.673a2.352,2.352,0,1,1-2.352,2.352A2.307,2.307,0,0,1,87.273,83.738Zm-9.334,6.223V87.633h3.944v17.738H77.939v-2.3a7.1,7.1,0,0,1-3.552.931,7.455,7.455,0,0,1-7.472-7.472,7.605,7.605,0,0,1,.269-1.984l1.788-2.866a3.985,3.985,0,0,0,.27-.563,7.475,7.475,0,0,1,5.145-2.058A7.156,7.156,0,0,1,77.939,89.961Zm-26.9-1.984,5.978,9.677,5.978-9.677L66.2,89.961a10.42,10.42,0,0,0-1.788,3.332l-7.4,11.956L47.633,90.083Zm18.473,38-4.924-11.221-4.924,11.221L52.95,110.687l3.552-1.592,3.16,7.227L64.587,105.1l4.924,11.221,3.16-7.227,3.552,1.592-.171.367a10.2,10.2,0,0,0-1.935,4.434Zm11.441-6.027a3.591,3.591,0,0,0,3.479,2.964h.588v3.92h-.588a7.455,7.455,0,0,1-7.472-7.472v-1.984a6.685,6.685,0,0,1,.074-1L78.7,112.6a7.48,7.48,0,0,1,13.23,4.777v2.107l-.465.465Zm22.27-10.045a7.485,7.485,0,1,1-5,13.058l-2.5,2.5-2.695-2.695A2.922,2.922,0,0,0,94.77,120.9l.931-.931V105.567h3.944v5.267A7.266,7.266,0,0,1,103.223,109.9Zm8.771-8.722h-2.082v-1.2a3.64,3.64,0,0,1-1.862.49,3.867,3.867,0,0,1-2.474-.882V93.464a4.009,4.009,0,0,1,2.474-.882,3.64,3.64,0,0,1,1.862.49V91.847h2.082Z" transform="translate(-44.594 -80.7)"/></g><g transform="translate(3.039 3.063)"><g transform="translate(0)"><path class="b" d="M66.383,120.077l5.978-9.677,3.405,2.107-9.383,15.165L57,112.507l3.405-2.107Z" transform="translate(-57 -106.186)"/><path class="b" d="M150.669,109.1v17.738h-3.944v-2.3a7.1,7.1,0,0,1-3.552.931,7.485,7.485,0,0,1,0-14.969,7.172,7.172,0,0,1,3.552.931V109.1Zm-11.025,8.893a3.54,3.54,0,0,0,7.08,0,3.555,3.555,0,0,0-3.552-3.552A3.519,3.519,0,0,0,139.644,117.993Z" transform="translate(-116.419 -105.205)"/><path class="b" d="M211.552,97.9a2.352,2.352,0,1,1,2.352-2.352A2.368,2.368,0,0,1,211.552,97.9Zm1.96,14.945h-3.944V99.08h3.944Z" transform="translate(-171.912 -93.2)"/></g><g transform="translate(5.341 21.364)"><path class="b" d="M85.513,191.621,90.437,180.4l4.924,11.221,3.16-7.227,3.552,1.592-6.713,15.288-4.924-11.221-4.924,11.221L78.8,185.986l3.552-1.592Z" transform="translate(-78.8 -180.4)"/><path class="b" d="M184.172,212.909h.588v3.92h-.588a7.455,7.455,0,0,1-7.472-7.472v-1.984a7.485,7.485,0,0,1,14.969,0v2.572H180.693A3.548,3.548,0,0,0,184.172,212.909Zm.025-9.089a3.545,3.545,0,0,0-3.258,2.18h6.492A3.6,3.6,0,0,0,184.2,203.82Z" transform="translate(-152.715 -195.123)"/><path class="b" d="M252.341,186.461a7.485,7.485,0,1,1-5,13.058l-2.5,2.5L242.1,199.25l2.744-2.744V182.1h3.944v5.267A7.352,7.352,0,0,1,252.341,186.461Zm-3.552,7.5a3.552,3.552,0,1,0,3.552-3.552A3.534,3.534,0,0,0,248.788,193.958Z" transform="translate(-202.092 -181.683)"/></g></g><g transform="translate(50.691 9.849)"><path class="c" d="M258.776,132.856l-5.194-6.272v3.92H251.5v-9.6l5.194,6.272v-3.92h2.082Z" transform="translate(-251.5 -120.9)"/><path class="c" d="M295.389,126.2v9.334h-2.082v-1.2a3.64,3.64,0,0,1-1.862.49,3.944,3.944,0,0,1,0-7.889,3.64,3.64,0,0,1,1.862.49V126.2Zm-5.806,4.679a1.862,1.862,0,1,0,1.862-1.862A1.861,1.861,0,0,0,289.582,130.879Z" transform="translate(-278.68 -124.902)"/></g></g></svg>