<svg xmlns="http://www.w3.org/2000/svg" width="342.625" height="247.466" viewBox="0 0 342.625 247.466">
  <g id="Grupo_481" data-name="Grupo 481" transform="translate(1213.911 -485.662)">
    <circle id="Elipse_30" data-name="Elipse 30" cx="121.407" cy="121.407" r="121.407" transform="translate(-1147.305 490.314)" fill="#36a39a"/>
    <g id="Grupo_355" data-name="Grupo 355">
      <g id="O_QUE_É_O_QUE_É_" data-name="O QUE É O QUE É " style="mix-blend-mode: normal;isolation: isolate">
        <g id="Grupo_1908" data-name="Grupo 1908" style="mix-blend-mode: normal;isolation: isolate">
          <path id="Caminho_13658" data-name="Caminho 13658" d="M-1191.966,642.115a25.863,25.863,0,0,1-12.734-7.806,35.514,35.514,0,0,1-7.755-14.973,35.519,35.519,0,0,1-.777-16.845A25.62,25.62,0,0,1-1206.1,589.4a31.275,31.275,0,0,1,14.181-7.721,31.269,31.269,0,0,1,16.142-.409,25.619,25.619,0,0,1,12.723,7.764,35.508,35.508,0,0,1,7.754,14.974,35.492,35.492,0,0,1,.777,16.844,25.871,25.871,0,0,1-7.121,13.13,30.979,30.979,0,0,1-14.171,7.761A30.971,30.971,0,0,1-1191.966,642.115Zm23.582-18.657q2.814-6.273.209-15.994t-8.131-13.717q-5.523-3.995-12.917-2.012t-10.135,8.193q-2.743,6.213-.137,15.933t8.141,13.757q5.533,4.038,12.845,2.076T-1168.384,623.458Z" fill="#f08800"/>
          <path id="Caminho_13659" data-name="Caminho 13659" d="M-1062.746,617.754a6.885,6.885,0,0,1,2.121,3.259,4.769,4.769,0,0,1-.867,4.241,7.019,7.019,0,0,1-3.96,2.664,7.041,7.041,0,0,1-3.505.049,6.421,6.421,0,0,1-3.1-1.752l-7.212-6.971a6.078,6.078,0,0,0-3.3-1.7,11.531,11.531,0,0,0-4.687.456,30.975,30.975,0,0,1-16.153.368,25.863,25.863,0,0,1-12.734-7.806,35.508,35.508,0,0,1-7.755-14.973,35.521,35.521,0,0,1-.776-16.846,25.6,25.6,0,0,1,7.132-13.086,31.261,31.261,0,0,1,14.182-7.721,31.266,31.266,0,0,1,16.141-.41,25.619,25.619,0,0,1,12.723,7.764,35.512,35.512,0,0,1,7.755,14.975,35.166,35.166,0,0,1,.641,17.5A24.817,24.817,0,0,1-1074.085,611a11.99,11.99,0,0,1,7.988,3.558Zm-17.081-18.039q2.814-6.275.209-16t-8.13-13.716q-5.524-4-12.917-2.012t-10.137,8.193q-2.742,6.213-.136,15.933t8.141,13.756q5.535,4.038,12.846,2.077T-1079.827,599.715Z" fill="#f08800"/>
          <path id="Caminho_13660" data-name="Caminho 13660" d="M-1044.391,599.7q-8.143-4.629-11.417-16.842l-7.617-28.411a6.509,6.509,0,0,1,.5-5.12,6.508,6.508,0,0,1,4.184-2.993,6.371,6.371,0,0,1,5.079.509,6.605,6.605,0,0,1,2.951,4.2l7.773,28.993q1.872,6.978,6.049,9.776t10.243,1.172q6.063-1.626,8.314-6.192t.4-11.46l-7.773-28.994a6.6,6.6,0,0,1,.456-5.109,6.358,6.358,0,0,1,4.143-2.98,6.506,6.506,0,0,1,5.12.5,6.51,6.51,0,0,1,2.992,4.184l7.617,28.411q3.254,12.132-1.512,20.264t-17.06,11.432Q-1036.249,604.328-1044.391,599.7Z" fill="#f08800"/>
          <path id="Caminho_13661" data-name="Caminho 13661" d="M-986.445,588.481a6.288,6.288,0,0,1-2.782-4.064l-12.451-46.439a6.285,6.285,0,0,1,.376-4.909,6.281,6.281,0,0,1,4.063-2.781l29.409-7.885q6.146-1.648,7.484,3.336,1.358,5.068-4.789,6.716l-22.846,6.125,3.675,13.708,21.185-5.68q6.145-1.648,7.506,3.419,1.336,4.983-4.811,6.633l-21.184,5.679,3.942,14.705,22.846-6.125q6.146-1.647,7.506,3.419,1.336,4.986-4.811,6.633l-29.409,7.885A6.281,6.281,0,0,1-986.445,588.481Z" fill="#f08800"/>
          <path id="Caminho_13662" data-name="Caminho 13662" d="M-914,569.058A6.279,6.279,0,0,1-916.786,565l-12.451-46.44a6.28,6.28,0,0,1,.376-4.91,6.278,6.278,0,0,1,4.062-2.78l29.409-7.886q6.147-1.648,7.485,3.337,1.358,5.069-4.789,6.716l-22.847,6.126,3.676,13.707,21.184-5.68q6.147-1.648,7.506,3.419,1.336,4.983-4.81,6.633l-21.185,5.679,3.942,14.705,22.846-6.126q6.147-1.647,7.507,3.42,1.336,4.986-4.812,6.632l-29.409,7.886A6.274,6.274,0,0,1-914,569.058Zm3.515-66.928a3.035,3.035,0,0,1-2.246-.243,2.523,2.523,0,0,1-1.373-1.635,3.223,3.223,0,0,1,.5-2.45l5.251-8.976a5.917,5.917,0,0,1,3.559-3,4.535,4.535,0,0,1,3.565.513A4.541,4.541,0,0,1-899,489.167a4.242,4.242,0,0,1-.185,2.632,6.825,6.825,0,0,1-1.958,2.662L-909,501.374A3.628,3.628,0,0,1-910.489,502.13Z" fill="#f08800"/>
        </g>
        <g id="Grupo_1909" data-name="Grupo 1909" style="mix-blend-mode: normal;isolation: isolate">
          <path id="Caminho_13663" data-name="Caminho 13663" d="M-1158.79,705.327a20.444,20.444,0,0,1-10.068-6.173,28.053,28.053,0,0,1-6.132-11.839A28.07,28.07,0,0,1-1175.6,674a20.24,20.24,0,0,1,5.639-10.349,24.736,24.736,0,0,1,11.214-6.1,24.749,24.749,0,0,1,12.763-.324,20.251,20.251,0,0,1,10.059,6.14A28.059,28.059,0,0,1-1129.8,675.2a28.057,28.057,0,0,1,.613,13.319,20.455,20.455,0,0,1-5.63,10.382,24.51,24.51,0,0,1-11.2,6.137A24.507,24.507,0,0,1-1158.79,705.327Zm18.647-14.751q2.224-4.963.164-12.649t-6.428-10.845a11.511,11.511,0,0,0-10.213-1.591,11.408,11.408,0,0,0-8.015,6.479q-2.169,4.913-.108,12.6t6.437,10.878a11.392,11.392,0,0,0,10.157,1.64A11.494,11.494,0,0,0-1140.143,690.576Z" fill="#f08800"/>
          <path id="Caminho_13664" data-name="Caminho 13664" d="M-1056.616,686.064a5.446,5.446,0,0,1,1.677,2.578,3.769,3.769,0,0,1-.685,3.353,5.555,5.555,0,0,1-3.132,2.106,5.577,5.577,0,0,1-2.77.039,5.084,5.084,0,0,1-2.45-1.386l-5.7-5.511a4.784,4.784,0,0,0-2.612-1.34,9.1,9.1,0,0,0-3.706.358,24.5,24.5,0,0,1-12.772.292,20.444,20.444,0,0,1-10.069-6.173,28.062,28.062,0,0,1-6.132-11.84,28.076,28.076,0,0,1-.613-13.318,20.247,20.247,0,0,1,5.64-10.349,24.729,24.729,0,0,1,11.212-6.1,24.739,24.739,0,0,1,12.763-.324,20.247,20.247,0,0,1,10.061,6.139,28.07,28.07,0,0,1,6.131,11.839,27.82,27.82,0,0,1,.507,13.841,19.629,19.629,0,0,1-6.314,10.46,9.468,9.468,0,0,1,6.316,2.813Zm-13.505-14.262q2.225-4.962.165-12.648t-6.429-10.845a11.509,11.509,0,0,0-10.214-1.593,11.41,11.41,0,0,0-8.014,6.48q-2.169,4.911-.108,12.6t6.437,10.878a11.393,11.393,0,0,0,10.157,1.641A11.491,11.491,0,0,0-1070.121,671.8Z" fill="#f08800"/>
          <path id="Caminho_13665" data-name="Caminho 13665" d="M-1042.1,671.788q-6.438-3.66-9.026-13.316l-6.024-22.466a5.15,5.15,0,0,1,.393-4.049,5.148,5.148,0,0,1,3.309-2.366,5.03,5.03,0,0,1,4.015.4,5.22,5.22,0,0,1,2.333,3.317l6.146,22.925q1.481,5.517,4.784,7.73t8.1.926q4.794-1.284,6.573-4.9t.317-9.061l-6.147-22.925a5.225,5.225,0,0,1,.36-4.04,5.032,5.032,0,0,1,3.277-2.357,5.151,5.151,0,0,1,4.048.393,5.155,5.155,0,0,1,2.366,3.31l6.023,22.466q2.571,9.59-1.2,16.02t-13.488,9.039Q-1035.667,675.448-1042.1,671.788Z" fill="#f08800"/>
          <path id="Caminho_13666" data-name="Caminho 13666" d="M-996.285,662.917a4.959,4.959,0,0,1-2.2-3.212l-9.845-36.719a4.964,4.964,0,0,1,.3-3.882,4.963,4.963,0,0,1,3.213-2.2l23.253-6.235q4.86-1.3,5.917,2.639,1.074,4.006-3.787,5.31l-18.064,4.843,2.906,10.839,16.751-4.491q4.86-1.3,5.936,2.7,1.056,3.941-3.8,5.244l-16.751,4.491,3.118,11.628,18.064-4.843q4.86-1.3,5.935,2.7,1.056,3.941-3.8,5.243l-23.253,6.234A4.962,4.962,0,0,1-996.285,662.917Z" fill="#f08800"/>
          <path id="Caminho_13667" data-name="Caminho 13667" d="M-939.006,647.56a4.959,4.959,0,0,1-2.2-3.212l-9.845-36.72a4.969,4.969,0,0,1,.3-3.882,4.969,4.969,0,0,1,3.213-2.2l23.254-6.235q4.86-1.3,5.917,2.639,1.074,4-3.786,5.309l-18.065,4.844,2.906,10.839,16.751-4.491q4.86-1.3,5.935,2.7,1.056,3.941-3.8,5.244l-16.751,4.491,3.118,11.628L-914,633.675q4.86-1.3,5.935,2.7,1.058,3.94-3.8,5.243l-23.254,6.236A4.964,4.964,0,0,1-939.006,647.56Zm2.78-52.919a2.4,2.4,0,0,1-1.777-.192,2,2,0,0,1-1.086-1.293,2.553,2.553,0,0,1,.4-1.937l4.153-7.1a4.677,4.677,0,0,1,2.812-2.375,3.594,3.594,0,0,1,2.821.407,3.582,3.582,0,0,1,1.761,2.238,3.351,3.351,0,0,1-.146,2.082,5.4,5.4,0,0,1-1.548,2.1l-6.208,5.465A2.851,2.851,0,0,1-936.226,594.641Z" fill="#f08800"/>
        </g>
        <g id="Grupo_1910" data-name="Grupo 1910" style="mix-blend-mode: normal;isolation: isolate">
          <path id="Caminho_13668" data-name="Caminho 13668" d="M-896.4,619.863a4.413,4.413,0,0,1-1.637-2.585,12.868,12.868,0,0,1-.3-6.344,31.084,31.084,0,0,1,2.426-6.318,29.752,29.752,0,0,0,1.811-4.38,6.4,6.4,0,0,0,0-3.515,3.956,3.956,0,0,0-2.288-2.751,6.282,6.282,0,0,0-4.225-.113,10.04,10.04,0,0,0-3.95,2.04q-1.7,1.44-4.427,4.211a7.728,7.728,0,0,1-3.082,2.036,3.18,3.18,0,0,1-2.853-.634,5.1,5.1,0,0,1-1.864-2.863,4.782,4.782,0,0,1-.119-2.274,5.389,5.389,0,0,1,1-2.044,24.268,24.268,0,0,1,6.127-5.762,26.114,26.114,0,0,1,7.776-3.56,19.866,19.866,0,0,1,8.278-.557,13.4,13.4,0,0,1,6.574,2.811,10.6,10.6,0,0,1,3.575,5.579,11.36,11.36,0,0,1,.254,5.035,16.341,16.341,0,0,1-1.431,4.39q-.985,1.965-2.759,4.934a42.945,42.945,0,0,0-2.913,5.2,8.226,8.226,0,0,0-.7,4.155,3.71,3.71,0,0,1-.606,2.393,3.353,3.353,0,0,1-1.952,1.316A3.105,3.105,0,0,1-896.4,619.863Zm2.329,15.588a6.155,6.155,0,0,1-2.856-3.883,6.162,6.162,0,0,1,.529-4.791,5.976,5.976,0,0,1,3.839-2.879,5.886,5.886,0,0,1,4.7.592,6.163,6.163,0,0,1,2.855,3.882,6.156,6.156,0,0,1-.53,4.791,5.875,5.875,0,0,1-3.768,2.864A5.961,5.961,0,0,1-894.068,635.451Z" fill="#f08800"/>
        </g>
      </g>
      <g id="O_QUE_É_O_QUE_É_2" data-name="O QUE É O QUE É 2" style="mix-blend-mode: normal;isolation: isolate">
        <g id="Grupo_1911" data-name="Grupo 1911" style="mix-blend-mode: normal;isolation: isolate">
          <path id="Caminho_13669" data-name="Caminho 13669" d="M-1188.615,647.046a25.864,25.864,0,0,1-12.734-7.8,35.5,35.5,0,0,1-7.755-14.973,35.536,35.536,0,0,1-.776-16.846,25.619,25.619,0,0,1,7.132-13.088,31.263,31.263,0,0,1,14.182-7.718,31.272,31.272,0,0,1,16.142-.412,25.634,25.634,0,0,1,12.723,7.764,35.516,35.516,0,0,1,7.754,14.975,35.5,35.5,0,0,1,.776,16.844,25.865,25.865,0,0,1-7.121,13.129,30.964,30.964,0,0,1-14.17,7.763A30.964,30.964,0,0,1-1188.615,647.046Zm23.583-18.655q2.814-6.276.209-15.995t-8.131-13.717q-5.524-3.995-12.917-2.012t-10.136,8.194q-2.744,6.21-.137,15.932t8.141,13.756q5.534,4.039,12.846,2.078T-1165.032,628.391Z" fill="#ffd000"/>
          <path id="Caminho_13670" data-name="Caminho 13670" d="M-1059.4,622.686a6.874,6.874,0,0,1,2.121,3.261,4.761,4.761,0,0,1-.867,4.239,7.014,7.014,0,0,1-3.96,2.664,7.036,7.036,0,0,1-3.5.049,6.415,6.415,0,0,1-3.1-1.751l-7.212-6.972a6.087,6.087,0,0,0-3.3-1.7,11.526,11.526,0,0,0-4.686.456,30.957,30.957,0,0,1-16.154.368,25.859,25.859,0,0,1-12.734-7.807,35.486,35.486,0,0,1-7.754-14.972,35.5,35.5,0,0,1-.776-16.846,25.611,25.611,0,0,1,7.131-13.087,31.283,31.283,0,0,1,14.183-7.72,31.277,31.277,0,0,1,16.141-.41,25.609,25.609,0,0,1,12.722,7.764,35.5,35.5,0,0,1,7.755,14.975,35.155,35.155,0,0,1,.641,17.5,24.825,24.825,0,0,1-7.984,13.228,11.983,11.983,0,0,1,7.988,3.558Zm-17.08-18.039q2.813-6.274.208-15.995t-8.13-13.716q-5.523-4-12.917-2.013t-10.136,8.194q-2.742,6.211-.136,15.932t8.141,13.757q5.533,4.038,12.845,2.077T-1076.475,604.647Z" fill="#ffd000"/>
          <path id="Caminho_13671" data-name="Caminho 13671" d="M-1041.04,604.63q-8.143-4.63-11.416-16.842l-7.617-28.412a6.506,6.506,0,0,1,.5-5.12,6.508,6.508,0,0,1,4.184-2.991,6.365,6.365,0,0,1,5.078.508,6.6,6.6,0,0,1,2.951,4.2l7.774,28.994q1.87,6.978,6.049,9.776t10.243,1.172q6.063-1.625,8.314-6.193t.4-11.46l-7.774-28.994a6.593,6.593,0,0,1,.457-5.108,6.356,6.356,0,0,1,4.143-2.981,6.512,6.512,0,0,1,5.119.5,6.506,6.506,0,0,1,2.992,4.185l7.618,28.412q3.254,12.131-1.512,20.264t-17.061,11.429Q-1032.9,609.261-1041.04,604.63Z" fill="#ffd000"/>
          <path id="Caminho_13672" data-name="Caminho 13672" d="M-983.093,593.413a6.281,6.281,0,0,1-2.782-4.062l-12.451-46.44A6.282,6.282,0,0,1-997.95,538a6.277,6.277,0,0,1,4.062-2.78l29.409-7.886q6.147-1.647,7.485,3.336,1.358,5.069-4.789,6.717l-22.846,6.126,3.675,13.707,21.184-5.681q6.148-1.647,7.506,3.42,1.336,4.986-4.81,6.633l-21.185,5.681,3.943,14.7,22.845-6.126q6.147-1.648,7.507,3.419,1.336,4.984-4.811,6.633l-29.41,7.885A6.279,6.279,0,0,1-983.093,593.413Z" fill="#ffd000"/>
          <path id="Caminho_13673" data-name="Caminho 13673" d="M-910.653,573.991a6.288,6.288,0,0,1-2.782-4.063l-12.451-46.44a6.285,6.285,0,0,1,.376-4.909,6.282,6.282,0,0,1,4.063-2.782l29.409-7.884q6.146-1.648,7.484,3.335,1.358,5.069-4.789,6.717l-22.846,6.125,3.675,13.707,21.185-5.679q6.147-1.648,7.506,3.419,1.336,4.984-4.811,6.633l-21.184,5.68,3.942,14.7,22.846-6.125q6.146-1.648,7.506,3.419,1.336,4.984-4.811,6.633l-29.409,7.885A6.285,6.285,0,0,1-910.653,573.991Zm3.516-66.928a3.043,3.043,0,0,1-2.247-.243,2.527,2.527,0,0,1-1.373-1.636,3.217,3.217,0,0,1,.5-2.449l5.251-8.978a5.922,5.922,0,0,1,3.558-3,4.541,4.541,0,0,1,3.566.514,4.542,4.542,0,0,1,2.229,2.831,4.25,4.25,0,0,1-.185,2.632,6.843,6.843,0,0,1-1.958,2.662l-7.853,6.914A3.606,3.606,0,0,1-907.137,507.063Z" fill="#ffd000"/>
        </g>
        <g id="Grupo_1912" data-name="Grupo 1912" style="mix-blend-mode: normal;isolation: isolate">
          <path id="Caminho_13674" data-name="Caminho 13674" d="M-1154.678,710.055a20.442,20.442,0,0,1-10.068-6.173,28.051,28.051,0,0,1-6.132-11.84,28.063,28.063,0,0,1-.614-13.318,20.256,20.256,0,0,1,5.639-10.349,24.732,24.732,0,0,1,11.214-6.1,24.729,24.729,0,0,1,12.763-.324,20.247,20.247,0,0,1,10.06,6.139,28.081,28.081,0,0,1,6.131,11.839,28.071,28.071,0,0,1,.614,13.32,20.454,20.454,0,0,1-5.63,10.381,24.5,24.5,0,0,1-11.2,6.137A24.511,24.511,0,0,1-1154.678,710.055Zm18.647-14.751q2.225-4.962.165-12.648t-6.429-10.845a11.507,11.507,0,0,0-10.213-1.593,11.415,11.415,0,0,0-8.015,6.48q-2.169,4.911-.108,12.6t6.437,10.878a11.392,11.392,0,0,0,10.157,1.642A11.487,11.487,0,0,0-1136.031,695.3Z" fill="#ffd000"/>
          <path id="Caminho_13675" data-name="Caminho 13675" d="M-1052.5,690.792a5.455,5.455,0,0,1,1.678,2.579,3.772,3.772,0,0,1-.686,3.352,5.542,5.542,0,0,1-3.132,2.106,5.564,5.564,0,0,1-2.77.04,5.085,5.085,0,0,1-2.449-1.386l-5.7-5.512a4.8,4.8,0,0,0-2.612-1.341,9.09,9.09,0,0,0-3.706.36,24.514,24.514,0,0,1-12.771.291,20.447,20.447,0,0,1-10.07-6.173,28.065,28.065,0,0,1-6.132-11.839,28.081,28.081,0,0,1-.613-13.319,20.246,20.246,0,0,1,5.64-10.349,24.723,24.723,0,0,1,11.213-6.1,24.725,24.725,0,0,1,12.762-.324,20.25,20.25,0,0,1,10.06,6.139,28.052,28.052,0,0,1,6.132,11.84,27.832,27.832,0,0,1,.508,13.841,19.637,19.637,0,0,1-6.314,10.459,9.469,9.469,0,0,1,6.316,2.812Zm-13.505-14.262q2.225-4.964.165-12.649t-6.429-10.844a11.507,11.507,0,0,0-10.213-1.592,11.41,11.41,0,0,0-8.015,6.479q-2.168,4.912-.107,12.6t6.437,10.879a11.387,11.387,0,0,0,10.156,1.641A11.492,11.492,0,0,0-1066.009,676.53Z" fill="#ffd000"/>
          <path id="Caminho_13676" data-name="Caminho 13676" d="M-1037.99,676.515q-6.439-3.659-9.027-13.315l-6.024-22.466a5.153,5.153,0,0,1,.393-4.049,5.152,5.152,0,0,1,3.309-2.366,5.035,5.035,0,0,1,4.015.4,5.217,5.217,0,0,1,2.333,3.317l6.147,22.925q1.479,5.519,4.783,7.73t8.1.927q4.794-1.285,6.574-4.9t.316-9.062l-6.146-22.925a5.212,5.212,0,0,1,.36-4.039,5.028,5.028,0,0,1,3.276-2.358,5.147,5.147,0,0,1,4.048.394,5.148,5.148,0,0,1,2.366,3.308l6.023,22.466q2.573,9.593-1.2,16.022t-13.489,9.039Q-1031.554,680.176-1037.99,676.515Z" fill="#ffd000"/>
          <path id="Caminho_13677" data-name="Caminho 13677" d="M-992.173,667.647a4.968,4.968,0,0,1-2.2-3.214l-9.845-36.72a4.966,4.966,0,0,1,.3-3.881,4.964,4.964,0,0,1,3.212-2.2l23.254-6.234q4.86-1.3,5.917,2.638,1.075,4-3.786,5.31l-18.065,4.843,2.906,10.839,16.751-4.491q4.86-1.3,5.935,2.7,1.058,3.941-3.8,5.244l-16.751,4.491,3.118,11.627,18.064-4.843q4.862-1.3,5.936,2.7,1.056,3.941-3.805,5.245l-23.253,6.235A4.972,4.972,0,0,1-992.173,667.647Z" fill="#ffd000"/>
          <path id="Caminho_13678" data-name="Caminho 13678" d="M-934.9,652.289a4.965,4.965,0,0,1-2.2-3.213l-9.846-36.72a4.97,4.97,0,0,1,.3-3.881,4.969,4.969,0,0,1,3.213-2.2l23.254-6.235q4.86-1.3,5.917,2.638,1.074,4.006-3.786,5.311l-18.064,4.842,2.9,10.839,16.751-4.491q4.86-1.3,5.935,2.7,1.056,3.941-3.8,5.244l-16.751,4.492,3.118,11.626,18.064-4.842q4.86-1.3,5.935,2.7,1.058,3.941-3.8,5.245l-23.253,6.234A4.965,4.965,0,0,1-934.9,652.289Zm2.781-52.92a2.4,2.4,0,0,1-1.777-.192,2,2,0,0,1-1.086-1.293,2.554,2.554,0,0,1,.4-1.937l4.153-7.1a4.672,4.672,0,0,1,2.813-2.373,3.59,3.59,0,0,1,2.82.4,3.6,3.6,0,0,1,1.762,2.24,3.348,3.348,0,0,1-.147,2.081,5.382,5.382,0,0,1-1.548,2.1l-6.208,5.468A2.879,2.879,0,0,1-932.114,599.369Z" fill="#ffd000"/>
          <path id="Caminho_13679" data-name="Caminho 13679" d="M-892.256,625.789a4.106,4.106,0,0,1-1.526-2.408,11.978,11.978,0,0,1-.282-5.908,28.94,28.94,0,0,1,2.26-5.887,27.577,27.577,0,0,0,1.687-4.079,5.959,5.959,0,0,0,0-3.274,3.682,3.682,0,0,0-2.131-2.562,5.855,5.855,0,0,0-3.936-.107,9.349,9.349,0,0,0-3.679,1.9q-1.58,1.34-4.124,3.922a7.2,7.2,0,0,1-2.872,1.9,2.969,2.969,0,0,1-2.657-.59,4.757,4.757,0,0,1-1.736-2.667,4.435,4.435,0,0,1-.11-2.119,5.023,5.023,0,0,1,.932-1.9,22.654,22.654,0,0,1,5.708-5.367,24.28,24.28,0,0,1,7.243-3.315,18.467,18.467,0,0,1,7.712-.519,12.5,12.5,0,0,1,6.123,2.617,9.894,9.894,0,0,1,3.33,5.2,10.574,10.574,0,0,1,.237,4.689,15.233,15.233,0,0,1-1.333,4.089q-.92,1.83-2.57,4.6a39.727,39.727,0,0,0-2.714,4.846,7.671,7.671,0,0,0-.652,3.872,3.446,3.446,0,0,1-.564,2.227,3.112,3.112,0,0,1-1.819,1.226A2.885,2.885,0,0,1-892.256,625.789Zm2.169,14.523a5.738,5.738,0,0,1-2.66-3.618,5.732,5.732,0,0,1,.493-4.462,5.564,5.564,0,0,1,3.575-2.685,5.485,5.485,0,0,1,4.373.553,5.738,5.738,0,0,1,2.66,3.618,5.732,5.732,0,0,1-.493,4.462,5.468,5.468,0,0,1-3.511,2.665A5.554,5.554,0,0,1-890.087,640.312Z" fill="#ffd000"/>
        </g>
      </g>
    </g>
  </g>
</svg>
