<svg xmlns="http://www.w3.org/2000/svg" width="333.981" height="242.814" viewBox="0 0 333.981 242.814">
  <g id="Grupo_1614" data-name="Grupo 1614" transform="translate(1223.811 -482.821)">
    <circle id="Elipse_30" data-name="Elipse 30" cx="121.407" cy="121.407" r="121.407" transform="translate(-1170.426 482.821)" fill="#36a39a"/>
    <g id="Grupo_355" data-name="Grupo 355">
      <g id="DE_QUEM_Sﾃグ_ESSES_OLHOS_" data-name="DE QUEM Sﾃグ ESSES OLHOS " style="mix-blend-mode: normal;isolation: isolate">
        <g id="Grupo_1882" data-name="Grupo 1882" style="mix-blend-mode: normal;isolation: isolate">
          <path id="Caminho_13520" data-name="Caminho 13520" d="M-1214.952,646.829a3.576,3.576,0,0,1-1.585-2.315l-7.094-26.46a3.574,3.574,0,0,1,.214-2.8,3.579,3.579,0,0,1,2.314-1.583l9.515-2.551a21.276,21.276,0,0,1,9.905-.526,14.377,14.377,0,0,1,7.547,4.116,18.766,18.766,0,0,1,4.481,8.388,19.067,19.067,0,0,1,.346,9.521,14.185,14.185,0,0,1-4.446,7.357,21.386,21.386,0,0,1-8.886,4.515l-9.514,2.55A3.579,3.579,0,0,1-1214.952,646.829Zm10.191-8.161q10.651-2.856,7.77-13.6-2.868-10.7-13.519-7.842l-5.064,1.358,5.749,21.443Z" fill="#f08800"/>
          <path id="Caminho_13521" data-name="Caminho 13521" d="M-1178.837,637.146a3.577,3.577,0,0,1-1.585-2.315l-7.094-26.46a3.575,3.575,0,0,1,.214-2.8,3.586,3.586,0,0,1,2.315-1.584l16.756-4.493q3.5-.939,4.264,1.9.776,2.887-2.728,3.827l-13.017,3.49,2.094,7.81,12.07-3.237q3.5-.937,4.277,1.949.762,2.838-2.741,3.779l-12.071,3.236,2.247,8.378,13.017-3.49q3.5-.939,4.276,1.948.762,2.84-2.74,3.78l-16.757,4.492A3.579,3.579,0,0,1-1178.837,637.146Z" fill="#f08800"/>
          <path id="Caminho_13522" data-name="Caminho 13522" d="M-1108.805,623.393a3.919,3.919,0,0,1,1.208,1.856,2.713,2.713,0,0,1-.494,2.416,3.992,3.992,0,0,1-2.256,1.518,4.019,4.019,0,0,1-2,.029,3.663,3.663,0,0,1-1.765-1l-4.109-3.971a3.449,3.449,0,0,0-1.883-.967,6.529,6.529,0,0,0-2.67.26,17.662,17.662,0,0,1-9.2.21,14.749,14.749,0,0,1-7.256-4.449,20.235,20.235,0,0,1-4.418-8.531,20.234,20.234,0,0,1-.442-9.6,14.593,14.593,0,0,1,4.064-7.457,17.8,17.8,0,0,1,8.08-4.4,17.8,17.8,0,0,1,9.2-.233,14.6,14.6,0,0,1,7.249,4.423,20.224,20.224,0,0,1,4.419,8.532,20.042,20.042,0,0,1,.366,9.972,14.148,14.148,0,0,1-4.55,7.537,6.837,6.837,0,0,1,4.552,2.028Zm-9.732-10.278q1.6-3.578.118-9.115t-4.632-7.814a8.293,8.293,0,0,0-7.36-1.147,8.22,8.22,0,0,0-5.775,4.668q-1.563,3.542-.078,9.079t4.638,7.837a8.208,8.208,0,0,0,7.319,1.185A8.288,8.288,0,0,0-1118.537,613.115Z" fill="#f08800"/>
          <path id="Caminho_13523" data-name="Caminho 13523" d="M-1098.348,613.1q-4.64-2.638-6.505-9.6l-4.34-16.188a3.7,3.7,0,0,1,.284-2.917,3.706,3.706,0,0,1,2.384-1.705,3.623,3.623,0,0,1,2.893.29,3.761,3.761,0,0,1,1.681,2.39l4.429,16.519q1.066,3.977,3.448,5.571a6.865,6.865,0,0,0,5.836.668,6.911,6.911,0,0,0,4.736-3.527,9.187,9.187,0,0,0,.227-6.531l-4.428-16.52a3.757,3.757,0,0,1,.26-2.911,3.62,3.62,0,0,1,2.36-1.7,3.7,3.7,0,0,1,2.917.284,3.706,3.706,0,0,1,1.7,2.384l4.34,16.187q1.854,6.912-.862,11.546t-9.72,6.513Q-1093.708,615.742-1098.348,613.1Z" fill="#f08800"/>
          <path id="Caminho_13524" data-name="Caminho 13524" d="M-1065.332,606.713a3.578,3.578,0,0,1-1.585-2.314l-7.094-26.46a3.582,3.582,0,0,1,.214-2.8,3.582,3.582,0,0,1,2.314-1.583l16.757-4.493q3.5-.939,4.265,1.9.774,2.887-2.73,3.827l-13.016,3.491,2.094,7.809,12.07-3.236q3.5-.939,4.277,1.948.762,2.84-2.741,3.779l-12.07,3.237,2.246,8.378,13.016-3.491q3.5-.939,4.278,1.949.762,2.838-2.741,3.779l-16.757,4.492A3.57,3.57,0,0,1-1065.332,606.713Z" fill="#f08800"/>
          <path id="Caminho_13525" data-name="Caminho 13525" d="M-1014.495,559.115a3.788,3.788,0,0,1,1.674,2.367l7.208,26.886a3.44,3.44,0,0,1-.24,2.7,3.313,3.313,0,0,1-2.125,1.533,3.248,3.248,0,0,1-2.56-.277,3.449,3.449,0,0,1-1.56-2.221l-4.48-16.709-3.332,14.441a5.427,5.427,0,0,1-.962,2.185,3.189,3.189,0,0,1-1.717,1.07,3.216,3.216,0,0,1-2-.074,5.256,5.256,0,0,1-1.95-1.4l-10.047-10.6,4.417,16.471a3.468,3.468,0,0,1-.246,2.679,3.265,3.265,0,0,1-2.119,1.558,3.253,3.253,0,0,1-2.561-.277,3.446,3.446,0,0,1-1.559-2.221l-7.208-26.886a3.774,3.774,0,0,1,.266-2.887,3.461,3.461,0,0,1,2.259-1.7,3.861,3.861,0,0,1,4.1,1.489l14.495,15.646,4.675-20.787q.632-2.757,2.761-3.327A3.461,3.461,0,0,1-1014.495,559.115Z" fill="#f08800"/>
          <path id="Caminho_13526" data-name="Caminho 13526" d="M-979.917,584.294a15.019,15.019,0,0,1-5.92-1.076,3.436,3.436,0,0,1-1.316-.84,3.322,3.322,0,0,1-.707-1.408,3.316,3.316,0,0,1,.174-2.279,2.216,2.216,0,0,1,1.44-1.351,3.3,3.3,0,0,1,1.062-.106,6.64,6.64,0,0,1,1.366.267,16.464,16.464,0,0,0,4.619.766,17.266,17.266,0,0,0,4.75-.639,9.357,9.357,0,0,0,4.5-2.323,3.441,3.441,0,0,0,.857-3.427,2.781,2.781,0,0,0-2.173-1.954,20.518,20.518,0,0,0-5.924-.238,31.392,31.392,0,0,1-7.613-.293,9.428,9.428,0,0,1-4.684-2.143,8.651,8.651,0,0,1-2.439-4.268,9.267,9.267,0,0,1,.288-5.835,11.885,11.885,0,0,1,3.777-5.023,17.5,17.5,0,0,1,6.526-3.2,18.224,18.224,0,0,1,11.977.392,3.894,3.894,0,0,1,1.329.886,3.207,3.207,0,0,1,.7,1.361,3.311,3.311,0,0,1-.175,2.28,2.216,2.216,0,0,1-1.439,1.35,3.4,3.4,0,0,1-1.009.119,7.086,7.086,0,0,1-1.419-.279,20.638,20.638,0,0,0-4.069-.889,12.336,12.336,0,0,0-4.306.495,8.371,8.371,0,0,0-4.247,2.331,3.615,3.615,0,0,0-.838,3.5,2.839,2.839,0,0,0,1.141,1.7,5.513,5.513,0,0,0,2.479.732,33.646,33.646,0,0,0,4.554.047q6.816-.306,10.23,1.164a7.616,7.616,0,0,1,4.454,5.349,9.207,9.207,0,0,1-.246,5.8,11.237,11.237,0,0,1-3.769,4.866,18.852,18.852,0,0,1-6.734,3.175A27.358,27.358,0,0,1-979.917,584.294Z" fill="#f08800"/>
          <path id="Caminho_13527" data-name="Caminho 13527" d="M-948.829,536.461q-1.3-.008-1.5-.005a11.825,11.825,0,0,0-3.551.191,1.765,1.765,0,0,0-.8.418,3.607,3.607,0,0,0-.557.759,4.5,4.5,0,0,1-.569.812,1.624,1.624,0,0,1-.778.411,1.406,1.406,0,0,1-1.186-.164,1.8,1.8,0,0,1-.725-1.1,4.249,4.249,0,0,1,.046-2.2,5.187,5.187,0,0,1,1.17-2.164,4.26,4.26,0,0,1,2.135-1.308,9.058,9.058,0,0,1,2.385-.285c.864.006,1.362.007,1.5,0a11.754,11.754,0,0,0,3.55-.191,1.637,1.637,0,0,0,.778-.411,5.638,5.638,0,0,0,.581-.764,3.642,3.642,0,0,1,.558-.76,1.768,1.768,0,0,1,.8-.417,1.429,1.429,0,0,1,1.2.134,1.782,1.782,0,0,1,.7,1.082,4.268,4.268,0,0,1-.047,2.2,5.2,5.2,0,0,1-1.17,2.165,4.262,4.262,0,0,1-2.134,1.308A9.03,9.03,0,0,1-948.829,536.461Zm24.986,30.085a2.967,2.967,0,0,1-.462,2.533,3.748,3.748,0,0,1-2.189,1.578,3.317,3.317,0,0,1-1.838-.041,3.251,3.251,0,0,1-1.631-1.162l-4.005-4.912-16.047,4.3-1.011,6.257a3.3,3.3,0,0,1-.807,1.815,3.264,3.264,0,0,1-1.595.96,3.831,3.831,0,0,1-2.709-.263,2.944,2.944,0,0,1-1.691-1.955,3.957,3.957,0,0,1-.028-1.618l5.584-30.264a3.847,3.847,0,0,1,1.1-2.147,4.594,4.594,0,0,1,2.066-1.188,4.545,4.545,0,0,1,2.438.007,4.323,4.323,0,0,1,2.065,1.272l19.977,23.411A3.945,3.945,0,0,1-923.843,566.546Zm-14.133-6.917-8.79-10.835L-949,562.586Z" fill="#f08800"/>
          <path id="Caminho_13528" data-name="Caminho 13528" d="M-913.671,565.214a14.738,14.738,0,0,1-7.256-4.448,20.232,20.232,0,0,1-4.419-8.531,20.234,20.234,0,0,1-.442-9.6,14.6,14.6,0,0,1,4.064-7.457,17.8,17.8,0,0,1,8.079-4.4,17.81,17.81,0,0,1,9.2-.234,14.608,14.608,0,0,1,7.249,4.424,20.251,20.251,0,0,1,4.419,8.531,20.248,20.248,0,0,1,.442,9.6,14.741,14.741,0,0,1-4.058,7.481A17.646,17.646,0,0,1-904.469,565,17.648,17.648,0,0,1-913.671,565.214Zm13.436-10.63q1.6-3.576.119-9.114t-4.633-7.814a8.293,8.293,0,0,0-7.359-1.147,8.223,8.223,0,0,0-5.776,4.669q-1.562,3.54-.077,9.077t4.638,7.838A8.211,8.211,0,0,0-906,559.278,8.287,8.287,0,0,0-900.235,554.584Z" fill="#f08800"/>
        </g>
        <g id="Grupo_1883" data-name="Grupo 1883" style="mix-blend-mode: normal;isolation: isolate">
          <path id="Caminho_13529" data-name="Caminho 13529" d="M-1176.423,676.062a2.774,2.774,0,0,1-1.229-1.795l-5.5-20.52a2.771,2.771,0,0,1,.166-2.169,2.778,2.778,0,0,1,1.8-1.229l12.994-3.484q2.717-.729,3.307,1.475.6,2.238-2.116,2.967l-10.094,2.707,1.623,6.056,9.361-2.51q2.716-.727,3.317,1.511.591,2.2-2.126,2.931l-9.36,2.51,1.741,6.5,10.1-2.707q2.715-.727,3.317,1.511.591,2.2-2.126,2.931l-12.995,3.484A2.771,2.771,0,0,1-1176.423,676.062Z" fill="#f08800"/>
          <path id="Caminho_13530" data-name="Caminho 13530" d="M-1151.7,669.807a11.675,11.675,0,0,1-4.591-.834,2.67,2.67,0,0,1-1.02-.651,2.572,2.572,0,0,1-.549-1.092,2.577,2.577,0,0,1,.135-1.769,1.72,1.72,0,0,1,1.117-1.047,2.593,2.593,0,0,1,.824-.083,5.127,5.127,0,0,1,1.058.208,12.744,12.744,0,0,0,3.583.593,13.389,13.389,0,0,0,3.684-.495,7.251,7.251,0,0,0,3.491-1.8,2.666,2.666,0,0,0,.664-2.657,2.152,2.152,0,0,0-1.684-1.515,15.9,15.9,0,0,0-4.595-.184,24.336,24.336,0,0,1-5.9-.229,7.289,7.289,0,0,1-3.633-1.662,6.713,6.713,0,0,1-1.891-3.308,7.185,7.185,0,0,1,.222-4.527,9.19,9.19,0,0,1,2.93-3.893,13.559,13.559,0,0,1,5.061-2.479,14.137,14.137,0,0,1,9.289.3,3.032,3.032,0,0,1,1.03.686,2.506,2.506,0,0,1,.538,1.057,2.564,2.564,0,0,1-.135,1.767,1.716,1.716,0,0,1-1.116,1.048,2.555,2.555,0,0,1-.783.091,5.331,5.331,0,0,1-1.1-.216,16.119,16.119,0,0,0-3.156-.69,9.55,9.55,0,0,0-3.339.385,6.479,6.479,0,0,0-3.293,1.808,2.8,2.8,0,0,0-.65,2.711,2.2,2.2,0,0,0,.884,1.317,4.261,4.261,0,0,0,1.923.568,26.045,26.045,0,0,0,3.531.036q5.286-.237,7.935.9a5.907,5.907,0,0,1,3.453,4.149,7.126,7.126,0,0,1-.191,4.5,8.714,8.714,0,0,1-2.923,3.775,14.625,14.625,0,0,1-5.221,2.46A21.227,21.227,0,0,1-1151.7,669.807Z" fill="#f08800"/>
          <path id="Caminho_13531" data-name="Caminho 13531" d="M-1127.8,663.4a11.676,11.676,0,0,1-4.592-.834,2.681,2.681,0,0,1-1.02-.652,2.571,2.571,0,0,1-.548-1.091,2.57,2.57,0,0,1,.136-1.769,1.718,1.718,0,0,1,1.115-1.047,2.63,2.63,0,0,1,.824-.083,5.13,5.13,0,0,1,1.059.208,12.773,12.773,0,0,0,3.583.593,13.368,13.368,0,0,0,3.683-.495,7.258,7.258,0,0,0,3.492-1.8,2.666,2.666,0,0,0,.664-2.657,2.152,2.152,0,0,0-1.685-1.515,15.854,15.854,0,0,0-4.594-.184,24.246,24.246,0,0,1-5.9-.229,7.305,7.305,0,0,1-3.633-1.661,6.718,6.718,0,0,1-1.89-3.31,7.189,7.189,0,0,1,.222-4.526,9.181,9.181,0,0,1,2.93-3.893,13.543,13.543,0,0,1,5.06-2.478,14.14,14.14,0,0,1,9.29.3,3.008,3.008,0,0,1,1.029.687,2.48,2.48,0,0,1,.539,1.056,2.564,2.564,0,0,1-.136,1.767,1.712,1.712,0,0,1-1.116,1.047,2.514,2.514,0,0,1-.781.092,5.27,5.27,0,0,1-1.1-.217,16.1,16.1,0,0,0-3.156-.688,9.547,9.547,0,0,0-3.339.384,6.481,6.481,0,0,0-3.293,1.807,2.8,2.8,0,0,0-.65,2.713,2.206,2.206,0,0,0,.884,1.317,4.271,4.271,0,0,0,1.922.567,25.909,25.909,0,0,0,3.532.036q5.288-.237,7.934.9a5.91,5.91,0,0,1,3.454,4.15,7.134,7.134,0,0,1-.191,4.5A8.7,8.7,0,0,1-1117,660.17a14.606,14.606,0,0,1-5.222,2.461A21.217,21.217,0,0,1-1127.8,663.4Z" fill="#f08800"/>
          <path id="Caminho_13532" data-name="Caminho 13532" d="M-1107.23,657.51a2.775,2.775,0,0,1-1.229-1.795l-5.5-20.519a2.773,2.773,0,0,1,.166-2.17A2.78,2.78,0,0,1-1112,631.8l12.995-3.484q2.715-.727,3.307,1.475.6,2.239-2.117,2.967l-10.094,2.707,1.624,6.056,9.36-2.51q2.718-.727,3.317,1.511.591,2.2-2.126,2.932l-9.36,2.509,1.742,6.5,10.094-2.707q2.716-.727,3.317,1.511.591,2.2-2.126,2.931l-12.995,3.484A2.766,2.766,0,0,1-1107.23,657.51Z" fill="#f08800"/>
          <path id="Caminho_13533" data-name="Caminho 13533" d="M-1082.506,651.255a11.655,11.655,0,0,1-4.591-.835,2.651,2.651,0,0,1-1.02-.65,2.571,2.571,0,0,1-.549-1.092,2.577,2.577,0,0,1,.136-1.769,1.718,1.718,0,0,1,1.116-1.046,2.565,2.565,0,0,1,.824-.083,5.013,5.013,0,0,1,1.059.208,12.728,12.728,0,0,0,3.583.592,13.388,13.388,0,0,0,3.683-.5,7.244,7.244,0,0,0,3.491-1.8,2.671,2.671,0,0,0,.665-2.658,2.155,2.155,0,0,0-1.685-1.514,15.87,15.87,0,0,0-4.594-.186,24.257,24.257,0,0,1-5.9-.227,7.305,7.305,0,0,1-3.633-1.662,6.724,6.724,0,0,1-1.891-3.31,7.179,7.179,0,0,1,.223-4.525,9.178,9.178,0,0,1,2.93-3.894,13.561,13.561,0,0,1,5.06-2.479,14.137,14.137,0,0,1,9.289.3,3.013,3.013,0,0,1,1.03.687,2.5,2.5,0,0,1,.539,1.056,2.563,2.563,0,0,1-.136,1.767,1.718,1.718,0,0,1-1.116,1.048,2.552,2.552,0,0,1-.782.091,5.277,5.277,0,0,1-1.1-.217,16.244,16.244,0,0,0-3.155-.689,9.578,9.578,0,0,0-3.34.385,6.49,6.49,0,0,0-3.293,1.808,2.8,2.8,0,0,0-.649,2.712,2.205,2.205,0,0,0,.883,1.317,4.267,4.267,0,0,0,1.923.567,26.189,26.189,0,0,0,3.531.037q5.288-.238,7.935.9a5.9,5.9,0,0,1,3.453,4.149,7.125,7.125,0,0,1-.19,4.5,8.721,8.721,0,0,1-2.923,3.775,14.657,14.657,0,0,1-5.222,2.461A21.26,21.26,0,0,1-1082.506,651.255Z" fill="#f08800"/>
          <path id="Caminho_13534" data-name="Caminho 13534" d="M-1047.358,640.807a11.418,11.418,0,0,1-5.626-3.447,15.687,15.687,0,0,1-3.426-6.617,15.7,15.7,0,0,1-.344-7.443,11.318,11.318,0,0,1,3.152-5.782,13.821,13.821,0,0,1,6.266-3.412,13.83,13.83,0,0,1,7.133-.181,11.323,11.323,0,0,1,5.621,3.431,15.7,15.7,0,0,1,3.427,6.615,15.686,15.686,0,0,1,.342,7.444,11.413,11.413,0,0,1-3.146,5.8,13.677,13.677,0,0,1-6.261,3.43A13.678,13.678,0,0,1-1047.358,640.807Zm10.421-8.242q1.243-2.773.092-7.069t-3.592-6.059a6.432,6.432,0,0,0-5.708-.89,6.376,6.376,0,0,0-4.479,3.621q-1.212,2.743-.06,7.039t3.6,6.08a6.369,6.369,0,0,0,5.676.917A6.428,6.428,0,0,0-1036.937,632.565Z" fill="#f08800"/>
          <path id="Caminho_13535" data-name="Caminho 13535" d="M-1022.8,634.874a2.774,2.774,0,0,1-1.229-1.8l-5.512-20.556a2.881,2.881,0,0,1,.221-2.263,2.928,2.928,0,0,1,1.885-1.332,2.933,2.933,0,0,1,2.3.21,2.874,2.874,0,0,1,1.322,1.85l4.98,18.574,9.4-2.52q2.68-.719,3.31,1.63.621,2.313-2.06,3.032l-12.444,3.335A2.766,2.766,0,0,1-1022.8,634.874Z" fill="#f08800"/>
          <path id="Caminho_13536" data-name="Caminho 13536" d="M-987.036,598.922a2.878,2.878,0,0,1,1.322,1.85l5.521,20.593a2.943,2.943,0,0,1-.214,2.28,2.84,2.84,0,0,1-1.845,1.34,2.808,2.808,0,0,1-2.244-.225,2.968,2.968,0,0,1-1.314-1.889l-2.2-8.223-11.93,3.2,2.2,8.223a2.945,2.945,0,0,1-.215,2.281,2.791,2.791,0,0,1-1.808,1.329,2.871,2.871,0,0,1-2.262-.219,2.931,2.931,0,0,1-1.333-1.885l-5.521-20.593a2.881,2.881,0,0,1,.221-2.263,2.882,2.882,0,0,1,1.848-1.322,2.82,2.82,0,0,1,2.244.224,2.919,2.919,0,0,1,1.3,1.855l2.1,7.818,11.93-3.2-2.1-7.818a2.922,2.922,0,0,1,.2-2.259,2.809,2.809,0,0,1,1.83-1.316A2.881,2.881,0,0,1-987.036,598.922Z" fill="#f08800"/>
          <path id="Caminho_13537" data-name="Caminho 13537" d="M-969.5,619.933a11.411,11.411,0,0,1-5.626-3.448,15.683,15.683,0,0,1-3.427-6.617,15.7,15.7,0,0,1-.343-7.443,11.306,11.306,0,0,1,3.152-5.782,13.8,13.8,0,0,1,6.265-3.411,13.82,13.82,0,0,1,7.133-.182,11.326,11.326,0,0,1,5.622,3.431A15.684,15.684,0,0,1-953.3,603.1a15.658,15.658,0,0,1,.343,7.443,11.414,11.414,0,0,1-3.147,5.8,13.683,13.683,0,0,1-6.26,3.431A13.7,13.7,0,0,1-969.5,619.933Zm10.42-8.242q1.243-2.773.093-7.069t-3.593-6.059a6.428,6.428,0,0,0-5.708-.89,6.374,6.374,0,0,0-4.478,3.621q-1.212,2.742-.06,7.038t3.6,6.081a6.37,6.37,0,0,0,5.676.916A6.422,6.422,0,0,0-959.081,611.691Z" fill="#f08800"/>
          <path id="Caminho_13538" data-name="Caminho 13538" d="M-941.622,613.482a11.675,11.675,0,0,1-4.592-.834,2.67,2.67,0,0,1-1.02-.652,2.549,2.549,0,0,1-.548-1.091,2.582,2.582,0,0,1,.134-1.769,1.727,1.727,0,0,1,1.117-1.047,2.633,2.633,0,0,1,.824-.083,5.069,5.069,0,0,1,1.058.209,12.814,12.814,0,0,0,3.583.593,13.424,13.424,0,0,0,3.684-.5,7.25,7.25,0,0,0,3.491-1.8,2.666,2.666,0,0,0,.665-2.657,2.155,2.155,0,0,0-1.685-1.515,15.852,15.852,0,0,0-4.594-.184,24.3,24.3,0,0,1-5.9-.228,7.305,7.305,0,0,1-3.633-1.662,6.719,6.719,0,0,1-1.891-3.31,7.182,7.182,0,0,1,.223-4.526,9.186,9.186,0,0,1,2.93-3.893,13.537,13.537,0,0,1,5.06-2.478,14.13,14.13,0,0,1,9.289.3,3.02,3.02,0,0,1,1.03.686,2.5,2.5,0,0,1,.539,1.057,2.564,2.564,0,0,1-.136,1.767,1.71,1.71,0,0,1-1.116,1.046,2.523,2.523,0,0,1-.783.092,5.275,5.275,0,0,1-1.1-.217,16.194,16.194,0,0,0-3.156-.688,9.554,9.554,0,0,0-3.34.385,6.481,6.481,0,0,0-3.292,1.806,2.805,2.805,0,0,0-.651,2.713,2.205,2.205,0,0,0,.885,1.317,4.267,4.267,0,0,0,1.922.567,25.9,25.9,0,0,0,3.532.036q5.288-.235,7.934.9a5.912,5.912,0,0,1,3.453,4.151,7.123,7.123,0,0,1-.191,4.5,8.689,8.689,0,0,1-2.922,3.774,14.632,14.632,0,0,1-5.222,2.462A21.223,21.223,0,0,1-941.622,613.482Z" fill="#f08800"/>
        </g>
        <g id="Grupo_1884" data-name="Grupo 1884" style="mix-blend-mode: normal;isolation: isolate">
          <path id="Caminho_13539" data-name="Caminho 13539" d="M-919.106,598.168a2.414,2.414,0,0,1-.9-1.415,7.053,7.053,0,0,1-.165-3.477,17.06,17.06,0,0,1,1.329-3.463,16.074,16.074,0,0,0,.992-2.4,3.5,3.5,0,0,0,0-1.925,2.168,2.168,0,0,0-1.254-1.508,3.448,3.448,0,0,0-2.315-.062,5.515,5.515,0,0,0-2.165,1.118q-.927.789-2.425,2.307a4.22,4.22,0,0,1-1.689,1.115,1.742,1.742,0,0,1-1.563-.345,2.794,2.794,0,0,1-1.021-1.57,2.615,2.615,0,0,1-.066-1.246,2.949,2.949,0,0,1,.549-1.121,13.352,13.352,0,0,1,3.357-3.157,14.291,14.291,0,0,1,4.262-1.95,10.883,10.883,0,0,1,4.535-.306,7.366,7.366,0,0,1,3.6,1.541,5.822,5.822,0,0,1,1.959,3.058,6.212,6.212,0,0,1,.138,2.758,8.931,8.931,0,0,1-.784,2.4q-.54,1.078-1.511,2.7a23.707,23.707,0,0,0-1.6,2.85,4.513,4.513,0,0,0-.383,2.278,2.038,2.038,0,0,1-.332,1.312,1.836,1.836,0,0,1-1.07.721A1.7,1.7,0,0,1-919.106,598.168Zm1.276,8.542a3.372,3.372,0,0,1-1.565-2.128,3.381,3.381,0,0,1,.29-2.625,3.284,3.284,0,0,1,2.1-1.578,3.225,3.225,0,0,1,2.572.325,3.373,3.373,0,0,1,1.565,2.128,3.368,3.368,0,0,1-.29,2.624,3.221,3.221,0,0,1-2.065,1.57A3.267,3.267,0,0,1-917.83,606.71Z" fill="#f08800"/>
        </g>
      </g>
      <g id="DE_QUEM_Sﾃグ_ESSES_OLHOS_2" data-name="DE QUEM Sﾃグ ESSES OLHOS 2" style="mix-blend-mode: normal;isolation: isolate">
        <g id="Grupo_1885" data-name="Grupo 1885" style="mix-blend-mode: normal;isolation: isolate">
          <path id="Caminho_13540" data-name="Caminho 13540" d="M-1212.832,649.829a3.576,3.576,0,0,1-1.584-2.315l-7.095-26.46a3.584,3.584,0,0,1,.214-2.8,3.583,3.583,0,0,1,2.315-1.585l9.515-2.551a21.273,21.273,0,0,1,9.9-.525,14.377,14.377,0,0,1,7.547,4.116,18.745,18.745,0,0,1,4.482,8.389,19.062,19.062,0,0,1,.346,9.52,14.185,14.185,0,0,1-4.445,7.357,21.4,21.4,0,0,1-8.888,4.514l-9.513,2.551A3.581,3.581,0,0,1-1212.832,649.829Zm10.192-8.162q10.65-2.855,7.769-13.6-2.867-10.7-13.518-7.842l-5.065,1.358,5.749,21.442Z" fill="#ffd000"/>
          <path id="Caminho_13541" data-name="Caminho 13541" d="M-1176.716,640.147a3.581,3.581,0,0,1-1.585-2.316l-7.095-26.46a3.584,3.584,0,0,1,.214-2.8,3.579,3.579,0,0,1,2.316-1.585l16.756-4.493q3.5-.939,4.264,1.9.774,2.887-2.728,3.826l-13.017,3.489,2.094,7.811,12.07-3.236q3.5-.939,4.277,1.948.761,2.84-2.742,3.779l-12.07,3.236,2.247,8.378,13.017-3.489q3.5-.941,4.276,1.947.762,2.841-2.741,3.78l-16.756,4.492A3.582,3.582,0,0,1-1176.716,640.147Z" fill="#ffd000"/>
          <path id="Caminho_13542" data-name="Caminho 13542" d="M-1106.685,626.393a3.907,3.907,0,0,1,1.208,1.857,2.716,2.716,0,0,1-.493,2.416,4,4,0,0,1-2.257,1.518,4.008,4.008,0,0,1-2,.028,3.658,3.658,0,0,1-1.764-1l-4.109-3.971a3.442,3.442,0,0,0-1.883-.967,6.543,6.543,0,0,0-2.67.259,17.652,17.652,0,0,1-9.2.21,14.735,14.735,0,0,1-7.255-4.448,20.221,20.221,0,0,1-4.419-8.531,20.235,20.235,0,0,1-.443-9.6,14.6,14.6,0,0,1,4.065-7.458,17.82,17.82,0,0,1,8.079-4.4,17.816,17.816,0,0,1,9.2-.233,14.6,14.6,0,0,1,7.249,4.424,20.229,20.229,0,0,1,4.419,8.532,20.028,20.028,0,0,1,.365,9.972,14.142,14.142,0,0,1-4.55,7.537,6.831,6.831,0,0,1,4.552,2.026Zm-9.732-10.279q1.6-3.574.119-9.113t-4.632-7.815a8.3,8.3,0,0,0-7.36-1.147,8.226,8.226,0,0,0-5.776,4.668q-1.562,3.542-.077,9.079t4.638,7.837a8.2,8.2,0,0,0,7.319,1.184A8.277,8.277,0,0,0-1116.417,616.114Z" fill="#ffd000"/>
          <path id="Caminho_13543" data-name="Caminho 13543" d="M-1096.227,616.1q-4.639-2.638-6.505-9.595l-4.34-16.189a3.7,3.7,0,0,1,.284-2.916,3.7,3.7,0,0,1,2.384-1.705,3.623,3.623,0,0,1,2.893.29,3.761,3.761,0,0,1,1.682,2.389l4.429,16.52q1.065,3.977,3.447,5.57a6.87,6.87,0,0,0,5.835.668,6.9,6.9,0,0,0,4.737-3.528,9.194,9.194,0,0,0,.228-6.53l-4.429-16.519a3.753,3.753,0,0,1,.26-2.911,3.617,3.617,0,0,1,2.36-1.7,3.7,3.7,0,0,1,2.917.283,3.706,3.706,0,0,1,1.705,2.384l4.34,16.188q1.852,6.91-.861,11.546t-9.721,6.513Q-1091.589,618.743-1096.227,616.1Z" fill="#ffd000"/>
          <path id="Caminho_13544" data-name="Caminho 13544" d="M-1063.212,609.714a3.579,3.579,0,0,1-1.584-2.315l-7.094-26.46a3.583,3.583,0,0,1,.213-2.8,3.588,3.588,0,0,1,2.316-1.585l16.756-4.492q3.5-.939,4.264,1.9.775,2.887-2.728,3.826l-13.017,3.491,2.094,7.81,12.07-3.236q3.5-.939,4.277,1.947.762,2.841-2.741,3.78l-12.07,3.237,2.246,8.377,13.017-3.49q3.5-.939,4.276,1.948.762,2.84-2.74,3.779l-16.757,4.492A3.586,3.586,0,0,1-1063.212,609.714Z" fill="#ffd000"/>
          <path id="Caminho_13545" data-name="Caminho 13545" d="M-1012.375,562.116a3.782,3.782,0,0,1,1.675,2.367l7.208,26.886a3.445,3.445,0,0,1-.239,2.7,3.316,3.316,0,0,1-2.126,1.532,3.247,3.247,0,0,1-2.56-.276,3.448,3.448,0,0,1-1.56-2.221l-4.479-16.709-3.333,14.44a5.431,5.431,0,0,1-.962,2.186,3.2,3.2,0,0,1-1.717,1.069,3.226,3.226,0,0,1-2-.073,5.3,5.3,0,0,1-1.949-1.4l-10.047-10.6,4.417,16.473a3.464,3.464,0,0,1-.246,2.679,3.272,3.272,0,0,1-2.119,1.557,3.253,3.253,0,0,1-2.561-.276,3.449,3.449,0,0,1-1.559-2.221l-7.208-26.886a3.774,3.774,0,0,1,.266-2.887,3.461,3.461,0,0,1,2.259-1.7,3.862,3.862,0,0,1,4.1,1.488l14.495,15.646,4.675-20.786q.631-2.757,2.761-3.327A3.458,3.458,0,0,1-1012.375,562.116Z" fill="#ffd000"/>
          <path id="Caminho_13546" data-name="Caminho 13546" d="M-977.8,587.294a15,15,0,0,1-5.92-1.075,3.442,3.442,0,0,1-1.317-.841,3.311,3.311,0,0,1-.706-1.407,3.307,3.307,0,0,1,.174-2.28,2.216,2.216,0,0,1,1.439-1.35,3.305,3.305,0,0,1,1.062-.106,6.609,6.609,0,0,1,1.366.266,16.473,16.473,0,0,0,4.62.767,17.386,17.386,0,0,0,4.75-.64,9.347,9.347,0,0,0,4.5-2.322,3.442,3.442,0,0,0,.858-3.427,2.782,2.782,0,0,0-2.173-1.955,20.529,20.529,0,0,0-5.924-.237,31.392,31.392,0,0,1-7.613-.293,9.417,9.417,0,0,1-4.684-2.145,8.651,8.651,0,0,1-2.439-4.267,9.26,9.26,0,0,1,.288-5.835,11.857,11.857,0,0,1,3.778-5.022,17.473,17.473,0,0,1,6.525-3.2,18.228,18.228,0,0,1,11.978.391,3.923,3.923,0,0,1,1.328.886,3.211,3.211,0,0,1,.7,1.362,3.307,3.307,0,0,1-.176,2.28,2.212,2.212,0,0,1-1.439,1.349,3.359,3.359,0,0,1-1.008.118,6.914,6.914,0,0,1-1.419-.278,20.654,20.654,0,0,0-4.069-.889,12.345,12.345,0,0,0-4.307.5,8.363,8.363,0,0,0-4.245,2.33,3.615,3.615,0,0,0-.839,3.5,2.834,2.834,0,0,0,1.141,1.7,5.472,5.472,0,0,0,2.478.731,33.469,33.469,0,0,0,4.555.048q6.816-.306,10.23,1.165a7.61,7.61,0,0,1,4.454,5.349,9.2,9.2,0,0,1-.247,5.8,11.234,11.234,0,0,1-3.768,4.866A18.853,18.853,0,0,1-970.6,586.3,27.356,27.356,0,0,1-977.8,587.294Z" fill="#ffd000"/>
          <path id="Caminho_13547" data-name="Caminho 13547" d="M-946.709,539.461q-1.295-.008-1.5-.005a11.807,11.807,0,0,0-3.55.192,1.751,1.751,0,0,0-.8.418,3.549,3.549,0,0,0-.557.758,4.46,4.46,0,0,1-.569.812,1.607,1.607,0,0,1-.778.41,1.4,1.4,0,0,1-1.185-.162,1.808,1.808,0,0,1-.726-1.1,4.242,4.242,0,0,1,.046-2.194,5.2,5.2,0,0,1,1.17-2.165,4.269,4.269,0,0,1,2.134-1.308,9.023,9.023,0,0,1,2.385-.285q1.3.009,1.5,0a11.8,11.8,0,0,0,3.551-.19,1.645,1.645,0,0,0,.778-.411,5.729,5.729,0,0,0,.581-.765,3.589,3.589,0,0,1,.558-.759,1.766,1.766,0,0,1,.8-.417,1.426,1.426,0,0,1,1.2.133,1.782,1.782,0,0,1,.7,1.082,4.256,4.256,0,0,1-.046,2.2,5.2,5.2,0,0,1-1.17,2.165,4.252,4.252,0,0,1-2.135,1.307A8.978,8.978,0,0,1-946.709,539.461Zm24.987,30.085a2.963,2.963,0,0,1-.462,2.533,3.738,3.738,0,0,1-2.19,1.578,3.307,3.307,0,0,1-1.838-.04,3.254,3.254,0,0,1-1.63-1.163l-4.006-4.912-16.047,4.3-1.01,6.258a3.318,3.318,0,0,1-.807,1.816,3.277,3.277,0,0,1-1.6.96,3.836,3.836,0,0,1-2.709-.263,2.945,2.945,0,0,1-1.691-1.956,3.918,3.918,0,0,1-.027-1.617l5.584-30.264a3.843,3.843,0,0,1,1.1-2.148,4.593,4.593,0,0,1,2.066-1.187,4.555,4.555,0,0,1,2.438.005,4.342,4.342,0,0,1,2.065,1.274l19.977,23.411A3.934,3.934,0,0,1-921.722,569.546Zm-14.133-6.917-8.79-10.834-2.238,13.791Z" fill="#ffd000"/>
          <path id="Caminho_13548" data-name="Caminho 13548" d="M-911.551,568.214a14.738,14.738,0,0,1-7.256-4.447,20.249,20.249,0,0,1-4.418-8.531,20.234,20.234,0,0,1-.442-9.6,14.6,14.6,0,0,1,4.063-7.458,17.809,17.809,0,0,1,8.08-4.4,17.82,17.82,0,0,1,9.2-.235,14.6,14.6,0,0,1,7.249,4.425,20.231,20.231,0,0,1,4.418,8.531,20.222,20.222,0,0,1,.442,9.6,14.736,14.736,0,0,1-4.057,7.48,17.648,17.648,0,0,1-8.074,4.423A17.651,17.651,0,0,1-911.551,568.214Zm13.437-10.63q1.6-3.574.118-9.113t-4.632-7.815a8.288,8.288,0,0,0-7.36-1.146,8.221,8.221,0,0,0-5.775,4.667q-1.563,3.542-.077,9.079t4.638,7.837a8.208,8.208,0,0,0,7.319,1.185A8.285,8.285,0,0,0-898.114,557.584Z" fill="#ffd000"/>
        </g>
        <g id="Grupo_1886" data-name="Grupo 1886" style="mix-blend-mode: normal;isolation: isolate">
          <path id="Caminho_13549" data-name="Caminho 13549" d="M-1174.3,679.062a2.776,2.776,0,0,1-1.229-1.8l-5.5-20.52a2.772,2.772,0,0,1,.167-2.168,2.773,2.773,0,0,1,1.795-1.229l12.995-3.484q2.715-.729,3.306,1.473.6,2.239-2.116,2.968l-10.095,2.706,1.624,6.057,9.361-2.509q2.716-.729,3.317,1.511.591,2.2-2.126,2.93l-9.36,2.509,1.742,6.5,10.094-2.707q2.717-.728,3.317,1.511.591,2.2-2.126,2.932l-12.994,3.484A2.782,2.782,0,0,1-1174.3,679.062Z" fill="#ffd000"/>
          <path id="Caminho_13550" data-name="Caminho 13550" d="M-1149.578,672.806a11.619,11.619,0,0,1-4.591-.835,2.682,2.682,0,0,1-1.021-.65,2.586,2.586,0,0,1-.548-1.093,2.574,2.574,0,0,1,.135-1.768,1.721,1.721,0,0,1,1.117-1.047,2.623,2.623,0,0,1,.824-.083,5.07,5.07,0,0,1,1.058.209,12.779,12.779,0,0,0,3.583.593,13.39,13.39,0,0,0,3.684-.5,7.232,7.232,0,0,0,3.49-1.8,2.664,2.664,0,0,0,.665-2.657,2.152,2.152,0,0,0-1.684-1.514,15.887,15.887,0,0,0-4.6-.185,24.357,24.357,0,0,1-5.9-.228,7.3,7.3,0,0,1-3.632-1.662,6.706,6.706,0,0,1-1.891-3.31,7.181,7.181,0,0,1,.223-4.526,9.178,9.178,0,0,1,2.93-3.892,13.531,13.531,0,0,1,5.06-2.479,14.137,14.137,0,0,1,9.289.3,3.049,3.049,0,0,1,1.03.687,2.51,2.51,0,0,1,.539,1.056,2.566,2.566,0,0,1-.136,1.768,1.72,1.72,0,0,1-1.116,1.048,2.589,2.589,0,0,1-.783.09,5.417,5.417,0,0,1-1.1-.216,16.038,16.038,0,0,0-3.156-.689,9.524,9.524,0,0,0-3.339.384,6.478,6.478,0,0,0-3.293,1.808,2.8,2.8,0,0,0-.65,2.711,2.2,2.2,0,0,0,.884,1.318,4.275,4.275,0,0,0,1.923.567,25.9,25.9,0,0,0,3.531.036q5.289-.236,7.934.9a5.906,5.906,0,0,1,3.454,4.15,7.126,7.126,0,0,1-.191,4.5,8.709,8.709,0,0,1-2.922,3.774,14.62,14.62,0,0,1-5.223,2.461A21.171,21.171,0,0,1-1149.578,672.806Z" fill="#ffd000"/>
          <path id="Caminho_13551" data-name="Caminho 13551" d="M-1125.682,666.4a11.637,11.637,0,0,1-4.591-.834,2.654,2.654,0,0,1-1.02-.652,2.561,2.561,0,0,1-.549-1.091,2.576,2.576,0,0,1,.136-1.769,1.717,1.717,0,0,1,1.116-1.046,2.6,2.6,0,0,1,.824-.084,5.145,5.145,0,0,1,1.059.209,12.809,12.809,0,0,0,3.583.593,13.382,13.382,0,0,0,3.683-.5,7.254,7.254,0,0,0,3.491-1.8,2.668,2.668,0,0,0,.665-2.658,2.154,2.154,0,0,0-1.686-1.514,15.843,15.843,0,0,0-4.594-.185,24.355,24.355,0,0,1-5.9-.228,7.306,7.306,0,0,1-3.632-1.661,6.721,6.721,0,0,1-1.891-3.311,7.185,7.185,0,0,1,.223-4.525,9.182,9.182,0,0,1,2.93-3.893,13.519,13.519,0,0,1,5.061-2.479,14.135,14.135,0,0,1,9.288.3,3.028,3.028,0,0,1,1.03.687,2.5,2.5,0,0,1,.539,1.056,2.566,2.566,0,0,1-.136,1.768,1.717,1.717,0,0,1-1.116,1.047,2.521,2.521,0,0,1-.782.091,5.428,5.428,0,0,1-1.1-.217,16.072,16.072,0,0,0-3.155-.687,9.5,9.5,0,0,0-3.34.383,6.49,6.49,0,0,0-3.293,1.808,2.8,2.8,0,0,0-.649,2.711,2.2,2.2,0,0,0,.884,1.319,4.255,4.255,0,0,0,1.922.566,25.742,25.742,0,0,0,3.532.036q5.286-.235,7.934.9a5.907,5.907,0,0,1,3.453,4.15,7.127,7.127,0,0,1-.191,4.5,8.714,8.714,0,0,1-2.922,3.774,14.628,14.628,0,0,1-5.223,2.461A21.166,21.166,0,0,1-1125.682,666.4Z" fill="#ffd000"/>
          <path id="Caminho_13552" data-name="Caminho 13552" d="M-1105.108,660.51a2.774,2.774,0,0,1-1.23-1.8l-5.5-20.519a2.771,2.771,0,0,1,.166-2.169,2.773,2.773,0,0,1,1.795-1.229l12.995-3.484q2.717-.727,3.307,1.474.6,2.24-2.116,2.967l-10.095,2.706,1.624,6.057,9.36-2.509q2.718-.729,3.317,1.511.591,2.2-2.125,2.931l-9.361,2.508,1.742,6.5,10.095-2.706q2.715-.728,3.317,1.511.589,2.2-2.126,2.932l-12.995,3.484A2.775,2.775,0,0,1-1105.108,660.51Z" fill="#ffd000"/>
          <path id="Caminho_13553" data-name="Caminho 13553" d="M-1080.385,654.254a11.655,11.655,0,0,1-4.591-.835,2.667,2.667,0,0,1-1.02-.65,2.586,2.586,0,0,1-.549-1.093,2.572,2.572,0,0,1,.136-1.767,1.719,1.719,0,0,1,1.116-1.047,2.54,2.54,0,0,1,.824-.083,5.024,5.024,0,0,1,1.059.209,12.807,12.807,0,0,0,3.583.592,13.42,13.42,0,0,0,3.683-.5,7.246,7.246,0,0,0,3.491-1.8,2.669,2.669,0,0,0,.665-2.658,2.157,2.157,0,0,0-1.685-1.514,15.884,15.884,0,0,0-4.595-.185,24.3,24.3,0,0,1-5.9-.227,7.313,7.313,0,0,1-3.633-1.662,6.718,6.718,0,0,1-1.89-3.311,7.178,7.178,0,0,1,.222-4.525,9.191,9.191,0,0,1,2.93-3.894,13.551,13.551,0,0,1,5.06-2.478,14.14,14.14,0,0,1,9.29.3,3.033,3.033,0,0,1,1.029.688,2.481,2.481,0,0,1,.539,1.055,2.566,2.566,0,0,1-.136,1.768,1.716,1.716,0,0,1-1.116,1.047,2.617,2.617,0,0,1-.782.092,5.408,5.408,0,0,1-1.1-.217,16.109,16.109,0,0,0-3.156-.689,9.575,9.575,0,0,0-3.34.384,6.491,6.491,0,0,0-3.293,1.808,2.8,2.8,0,0,0-.649,2.712,2.2,2.2,0,0,0,.883,1.317,4.266,4.266,0,0,0,1.923.567,26.04,26.04,0,0,0,3.532.037q5.288-.237,7.934.9a5.909,5.909,0,0,1,3.453,4.15,7.123,7.123,0,0,1-.191,4.5,8.705,8.705,0,0,1-2.922,3.775,14.632,14.632,0,0,1-5.222,2.462A21.262,21.262,0,0,1-1080.385,654.254Z" fill="#ffd000"/>
          <path id="Caminho_13554" data-name="Caminho 13554" d="M-1045.236,643.807a11.412,11.412,0,0,1-5.626-3.449,15.66,15.66,0,0,1-3.427-6.616,15.669,15.669,0,0,1-.343-7.443,11.314,11.314,0,0,1,3.151-5.783,13.822,13.822,0,0,1,6.266-3.41,13.806,13.806,0,0,1,7.132-.182,11.321,11.321,0,0,1,5.622,3.431,15.7,15.7,0,0,1,3.427,6.615,15.7,15.7,0,0,1,.343,7.443,11.424,11.424,0,0,1-3.147,5.8,13.7,13.7,0,0,1-6.261,3.43A13.674,13.674,0,0,1-1045.236,643.807Zm10.42-8.242q1.243-2.773.092-7.069t-3.592-6.06a6.432,6.432,0,0,0-5.708-.89,6.376,6.376,0,0,0-4.479,3.621q-1.212,2.743-.06,7.039t3.6,6.081a6.372,6.372,0,0,0,5.676.917A6.427,6.427,0,0,0-1034.816,635.565Z" fill="#ffd000"/>
          <path id="Caminho_13555" data-name="Caminho 13555" d="M-1020.682,637.873a2.769,2.769,0,0,1-1.229-1.794l-5.511-20.557a2.873,2.873,0,0,1,.22-2.263,2.925,2.925,0,0,1,1.885-1.332,2.928,2.928,0,0,1,2.3.21,2.877,2.877,0,0,1,1.322,1.85l4.98,18.574,9.4-2.52q2.679-.719,3.309,1.63.619,2.314-2.059,3.033l-12.444,3.335A2.768,2.768,0,0,1-1020.682,637.873Z" fill="#ffd000"/>
          <path id="Caminho_13556" data-name="Caminho 13556" d="M-984.915,601.921a2.88,2.88,0,0,1,1.322,1.85l5.521,20.593a2.942,2.942,0,0,1-.214,2.28,2.848,2.848,0,0,1-1.845,1.341,2.817,2.817,0,0,1-2.244-.225,2.972,2.972,0,0,1-1.314-1.89l-2.2-8.223-11.93,3.2,2.205,8.222a2.945,2.945,0,0,1-.215,2.281,2.792,2.792,0,0,1-1.808,1.33,2.872,2.872,0,0,1-2.261-.22,2.923,2.923,0,0,1-1.332-1.885l-5.522-20.593a2.877,2.877,0,0,1,.22-2.263,2.876,2.876,0,0,1,1.848-1.322,2.815,2.815,0,0,1,2.245.225,2.919,2.919,0,0,1,1.3,1.854l2.1,7.818,11.931-3.2-2.1-7.818a2.909,2.909,0,0,1,.2-2.257,2.809,2.809,0,0,1,1.83-1.317A2.873,2.873,0,0,1-984.915,601.921Z" fill="#ffd000"/>
          <path id="Caminho_13557" data-name="Caminho 13557" d="M-967.379,622.933a11.427,11.427,0,0,1-5.627-3.449,15.682,15.682,0,0,1-3.427-6.617,15.679,15.679,0,0,1-.342-7.442,11.3,11.3,0,0,1,3.151-5.783,13.809,13.809,0,0,1,6.266-3.411,13.827,13.827,0,0,1,7.132-.182,11.317,11.317,0,0,1,5.621,3.432,15.692,15.692,0,0,1,3.427,6.615,15.685,15.685,0,0,1,.343,7.443,11.41,11.41,0,0,1-3.147,5.8,13.672,13.672,0,0,1-6.261,3.43A13.681,13.681,0,0,1-967.379,622.933Zm10.419-8.242q1.244-2.775.093-7.07t-3.593-6.06a6.437,6.437,0,0,0-5.708-.89,6.38,6.38,0,0,0-4.478,3.621q-1.212,2.745-.06,7.039t3.6,6.081a6.367,6.367,0,0,0,5.675.917A6.425,6.425,0,0,0-956.96,614.691Z" fill="#ffd000"/>
          <path id="Caminho_13558" data-name="Caminho 13558" d="M-939.5,616.481a11.637,11.637,0,0,1-4.591-.834,2.679,2.679,0,0,1-1.02-.651,2.559,2.559,0,0,1-.548-1.092,2.568,2.568,0,0,1,.136-1.768,1.709,1.709,0,0,1,1.115-1.047,2.628,2.628,0,0,1,.824-.084,5.212,5.212,0,0,1,1.059.209,12.8,12.8,0,0,0,3.583.593,13.377,13.377,0,0,0,3.683-.495,7.267,7.267,0,0,0,3.491-1.8,2.668,2.668,0,0,0,.665-2.658,2.152,2.152,0,0,0-1.685-1.514,15.817,15.817,0,0,0-4.594-.184,24.406,24.406,0,0,1-5.905-.229,7.313,7.313,0,0,1-3.632-1.661,6.712,6.712,0,0,1-1.891-3.31,7.189,7.189,0,0,1,.223-4.526,9.188,9.188,0,0,1,2.93-3.893,13.522,13.522,0,0,1,5.06-2.478,14.137,14.137,0,0,1,9.289.3,3.028,3.028,0,0,1,1.03.688,2.482,2.482,0,0,1,.539,1.055,2.567,2.567,0,0,1-.136,1.768,1.714,1.714,0,0,1-1.116,1.047,2.55,2.55,0,0,1-.782.092,5.422,5.422,0,0,1-1.1-.217,16.018,16.018,0,0,0-3.155-.688,9.5,9.5,0,0,0-3.34.383,6.483,6.483,0,0,0-3.292,1.808,2.8,2.8,0,0,0-.651,2.712,2.212,2.212,0,0,0,.885,1.318,4.255,4.255,0,0,0,1.922.566,25.574,25.574,0,0,0,3.532.036q5.287-.235,7.934.9a5.908,5.908,0,0,1,3.454,4.15,7.133,7.133,0,0,1-.191,4.5,8.717,8.717,0,0,1-2.923,3.774,14.623,14.623,0,0,1-5.222,2.461A21.184,21.184,0,0,1-939.5,616.481Z" fill="#ffd000"/>
        </g>
        <g id="Grupo_1887" data-name="Grupo 1887" style="mix-blend-mode: normal;isolation: isolate">
          <path id="Caminho_13559" data-name="Caminho 13559" d="M-916.985,601.167a2.409,2.409,0,0,1-.9-1.415,7.05,7.05,0,0,1-.166-3.476,17.091,17.091,0,0,1,1.329-3.463,15.992,15.992,0,0,0,.993-2.4,3.5,3.5,0,0,0,0-1.925,2.164,2.164,0,0,0-1.253-1.508,3.435,3.435,0,0,0-2.315-.063,5.51,5.51,0,0,0-2.165,1.119q-.929.789-2.426,2.307a4.229,4.229,0,0,1-1.688,1.115,1.748,1.748,0,0,1-1.564-.346,2.8,2.8,0,0,1-1.021-1.57,2.629,2.629,0,0,1-.065-1.247,2.962,2.962,0,0,1,.548-1.12,13.358,13.358,0,0,1,3.358-3.157,14.319,14.319,0,0,1,4.261-1.949,10.854,10.854,0,0,1,4.536-.306,7.352,7.352,0,0,1,3.6,1.54,5.8,5.8,0,0,1,1.959,3.057,6.22,6.22,0,0,1,.14,2.759,8.959,8.959,0,0,1-.785,2.405q-.54,1.078-1.511,2.7a23.518,23.518,0,0,0-1.6,2.851,4.52,4.52,0,0,0-.384,2.277,2.024,2.024,0,0,1-.331,1.311,1.833,1.833,0,0,1-1.07.722A1.7,1.7,0,0,1-916.985,601.167Zm1.276,8.543a3.374,3.374,0,0,1-1.565-2.128,3.376,3.376,0,0,1,.291-2.625,3.27,3.27,0,0,1,2.1-1.578,3.222,3.222,0,0,1,2.572.325,3.374,3.374,0,0,1,1.565,2.128,3.369,3.369,0,0,1-.291,2.624,3.22,3.22,0,0,1-2.064,1.569A3.271,3.271,0,0,1-915.709,609.71Z" fill="#ffd000"/>
        </g>
      </g>
    </g>
  </g>
</svg>
