<svg xmlns="http://www.w3.org/2000/svg" width="22" height="22" viewBox="0 0 22 22">
  <g id="Grupo_1757" data-name="Grupo 1757" transform="translate(-277 -490)">
    <g id="Grupo_1218" data-name="Grupo 1218" transform="translate(81 160)">
      <g id="Grupo_1208" data-name="Grupo 1208" transform="translate(-19 -9)">
        <circle id="Elipse_43" data-name="Elipse 43" cx="11" cy="11" r="11" transform="translate(215 339)" fill="#4c90af"/>
      </g>
      <path id="União_18" data-name="União 18" d="M5.841,8.622.765,5.4A1.729,1.729,0,0,1,.013,3.76,1.728,1.728,0,0,1,.765,2.119L3.84.22a1.452,1.452,0,0,1,2,.464,1.387,1.387,0,0,1,.081.148,1.766,1.766,0,0,1-.556,2.286l-1.094.64L7.367,5.72a1.766,1.766,0,0,1,.558,2.286A1.5,1.5,0,0,1,6.6,8.843,1.413,1.413,0,0,1,5.841,8.622Z" transform="translate(202.579 345.066) rotate(-90)" fill="#fff"/>
    </g>
  </g>
</svg>
