<svg xmlns="http://www.w3.org/2000/svg" width="22" height="22" viewBox="0 0 22 22"><defs><style>.a{fill:#3dbc2a;}.b{fill:#fff;}</style></defs><g transform="translate(-196 -330)"><g transform="translate(-19 -9)"><circle class="a" cx="11" cy="11" r="11" transform="translate(215 339)"/></g><path class="b" d="M5.841,8.622.765,5.4A1.729,1.729,0,0,1,.013,3.76,1.728,1.728,0,0,1,.765,2.119L3.84.22a1.452,1.452,0,0,1,2,.464,1.387,1.387,0,0,1,.081.148,1.766,1.766,0,0,1-.556,2.286l-1.094.64L7.367,5.72a1.766,1.766,0,0,1,.558,2.286A1.5,1.5,0,0,1,6.6,8.843,1.413,1.413,0,0,1,5.841,8.622Z" transform="translate(202.579 345.066) rotate(-90)"/></g></svg>