<svg xmlns="http://www.w3.org/2000/svg" xmlns:xlink="http://www.w3.org/1999/xlink" width="70.933" height="66.7" viewBox="0 0 70.933 66.7"><defs><style>.a,.j,.k,.l,.m,.n,.v{fill:none;}.b{fill:#ffd000;}.c{opacity:0.69;}.d{fill:#bde4e5;}.e{fill:#333;stroke:#333;stroke-miterlimit:10;opacity:0.42;}.e,.j,.k,.l,.m,.n{stroke-linecap:round;}.e,.j{stroke-width:0.464px;}.f{fill:#f2f2f2;}.g{fill:#eae0d8;}.h{fill:#b2dbdf;}.i{fill:red;}.j{stroke:#373737;opacity:0.24;}.j,.k,.l,.m,.n{stroke-linejoin:round;}.k,.m,.n{stroke:#7fb9ba;}.k{stroke-width:0.928px;}.l{stroke:#b2dbdf;}.l,.m{stroke-width:1.393px;}.n{stroke-width:1.333px;}.o,.x{isolation:isolate;}.p{clip-path:url(#a);}.q{fill:#e6f5fa;}.r{fill:#e7f5fa;}.s{fill:#5cb5bc;}.t{fill:#b3dbdf;}.u{fill:#fff;}.v{stroke:#f08800;stroke-width:3.33px;}.w{fill:#3dbc2a;}.x{fill:#2a2929;font-size:31.088px;font-family:Nunito-ExtraBold, Nunito;font-weight:800;}</style><clipPath id="a"><path class="a" d="M3861.336,5926.622l-.04-8.265,14.211.052.04,8.265Z"/></clipPath></defs><g transform="translate(-3829.767 -5886.403)"><path class="b" d="M3862.878,5888.07a31.683,31.683,0,1,1-31.683,31.683A31.683,31.683,0,0,1,3862.878,5888.07Z"/><g class="c"><path class="d" d="M3895.053,5925.758l-1.759-.2q-12.04-1.367-24.059-2.907l-24.64,13.122,27.312,3.845Z"/><line class="e" x2="24.448" y2="3.954" transform="translate(3849.481 5929.199)"/><path class="f" d="M3871.416,5938.783l22.028-12.354a22.519,22.519,0,0,1-.032-8.4l-22.1,12.117a21.805,21.805,0,0,0,.1,8.633Z"/><path class="g" d="M3871.425,5938.783a21.61,21.61,0,0,1,0-8.619q-6.63-1.047-13.574-1.974-6.656-.885-13.065-1.584a12.479,12.479,0,0,0,.658,8.587Z"/><path class="b" d="M3871.911,5930.05"/><path class="h" d="M3895.257,5916.689l-26.019-3.829-24.7,13.272,27.715,3.83Z"/><path class="i" d="M3861.89,5924.243"/><path class="f" d="M3871.284,5939.209"/><path class="g" d="M3878.017,5938.031"/><line class="j" x1="15.591" y1="2.09" transform="translate(3855.339 5930.605)"/><line class="j" x1="20.568" y1="2.757" transform="translate(3850.035 5932.574)"/><line class="k" x1="15.591" y1="2.09" transform="translate(3871.631 5915.272)"/><path class="l" d="M3871.581,5939.587l23.015-13.16"/><path class="l" d="M3895.068,5917.362q-5.375,3.147-10.766,6.269-6.054,3.509-12.125,6.983"/><path class="m" d="M3872.177,5930.614l-27.234-3.965a13.225,13.225,0,0,0-.021,9.232l26.659,3.706"/><path class="n" d="M3869.857,5930.324l-24.944-3.679a14.438,14.438,0,0,0-.819,4.572,14.042,14.042,0,0,0,.705,4.649l24.419,3.425"/><path class="b" d="M3873.32,5920.436"/><path class="f" d="M3872.693,5929.6"/><path class="g" d="M3879.427,5928.417"/><g class="c"><g class="o"><g class="p"><path class="q" d="M3872.8,5919.869h.016l.135.006-.151-.006m-1.226-.041.111,0h.017l-.128,0"/><path class="r" d="M3872.764,5918.4c-2.619-.009-6.334.189-8.717,1.217l-.255.113,1.737,1.1,0,0,0,0,.215-.116.063-.031.063-.032.2-.089.018-.011.036-.016.224-.089.153-.052.027-.011.107-.037.126-.031.036-.016.063-.015.027-.011c.207-.052.423-.1.656-.151l.072-.016h.018a3.083,3.083,0,0,1,.324-.057l.09-.016.239-.034.13-.017.063,0,.108-.016.026,0,.091,0,.161-.02.225-.021.225-.02.126,0,.1-.01.2-.016c.261-.015.522-.024.765-.029l.315-.009h.387l.189,0h.18c.468,0,.855.019,1.116.03l.261.017,2.558-1.4-.648-.028c-.534-.025-1.258-.049-2.095-.053"/><path class="s" d="M3872.625,5921.83c-.047.131-.094.259-.141.385l.006-.015c.045-.118.09-.24.135-.37"/><path class="s" d="M3872.638,5922.488l.008-.037.018-.006.009,0,.315-.031H3873l.018-.005.251-.132h.055l.018.016.046.191.008.016.226.144-.008.031-.028.006-.323.035-.018.006-.252.131h-.063l-.009-.016-.055-.186h.009v-.006l-.018-.011-.208-.138-.008-.005m2.869-4.009-2.558,1.4v.159c-.008.064-.008.143-.016.239l-.009.09c0,.074-.017.143-.017.217l-.026.175-.018.079h.01l-.027.138.054.011h.063l.171-.026.3-.046.3-.047.117.048v.032l-.25.444v.032l.183.446,0,0,0,0-.072.074-.063,0-.442-.087-.27-.048-.027-.006h-.063l-.207.031h0c-.053.143-.106.286-.168.434l.024-.064-.006.015-.018.044a2.115,2.115,0,0,1-.1.2,1.751,1.751,0,0,1-.08.158,2.415,2.415,0,0,1-.187.3l-.1.143a3.6,3.6,0,0,1-.689.739l-.135.1-.053.042-.072.047-.045.032-.054.032v.005l-.161.089-.018.011a3.841,3.841,0,0,1-.458.216,3.841,3.841,0,0,0,.458-.216,3.841,3.841,0,0,1-.458.216,3.841,3.841,0,0,0,.458-.216,3.4,3.4,0,0,1-.467.216l-.18.068-.171.057a6.039,6.039,0,0,1-.962.214,5.933,5.933,0,0,1-.773.061l-.234,0q-.175,0-.351-.018h-.027l-.181-.016c-.134-.016-.279-.038-.423-.06l-.2-.038-.235-.057q-.129-.033-.252-.072a3.482,3.482,0,0,1-.362-.126l-.079-.029-.208-.1-.08-.043-.1-.048-.081-.048-.118-.069-.009,0-.067-.055-.032-.02-.021-.019-.033-.023c-.037-.03-.073-.06-.107-.09a1.546,1.546,0,0,1-.155-.155l-.109-.133-.072-.1-.037-.058-.021-.041a1.4,1.4,0,0,1-.179-.511l-.019-.213.008-.122a1.614,1.614,0,0,1,.141-.6l-.189.031-.036-.011v-.01l.062-.122.01-.011-.037-.085-.018-.037.018-.016.018,0h.009l.2.043h.009l.081-.015.072-.1a2.059,2.059,0,0,1,.241-.312,2.28,2.28,0,0,1,.367-.327l.01,0,.071-.053.059-.055,0,0-1.737-1.1,0,0-.216.111a4.475,4.475,0,0,0-.43.253,3.738,3.738,0,0,0-1.823,2.94l0,.234h.009l.009.122a2.733,2.733,0,0,0,1.216,1.929l.189.149v-.006l.217.123a8.369,8.369,0,0,0,3.118.982l.226.027v.005l.378.023c.241.017.484.026.725.027a9.435,9.435,0,0,0,4.472-1.031,5.71,5.71,0,0,0,.673-.422l.152-.111.206-.174a8.523,8.523,0,0,0,2.581-6.029l.016-.4"/><path class="h" d="M3872.191,5921.314a2.052,2.052,0,0,1-.053.207.922.922,0,0,0,.053-.207"/><path class="t" d="M3867.636,5924.759q.175.017.351.018l.234,0-.234,0q-.175,0-.351-.018m3.138-.6a3.841,3.841,0,0,1-.458.216,3.841,3.841,0,0,0,.458-.216m.179-.1-.161.094.161-.089v-.005m-6.085-.351a1.546,1.546,0,0,0,.155.155,1.459,1.459,0,0,0,.116.09,2.791,2.791,0,0,1-.271-.245m7.766-1.87h-.009c-.045.13-.09.252-.135.37l-.024.064c.062-.148.115-.291.168-.434m-.443-.516a.922.922,0,0,1-.053.207l.071-.122v-.037l-.018-.048m-6.806-.369a3.361,3.361,0,0,0-.256.219c.032-.03.066-.06.1-.09l.042-.036.023-.02.091-.073m7.488-.111h-.01l-.017.138.027-.138m-4.828-.8-.09.016c-.108.016-.216.036-.324.057.135-.026.27-.046.414-.073m.432-.056-.063,0-.13.017.193-.022m4.311-.113h.01l.151.006-.126-.006h-.035m-2.854-.013-.2.008-.2.016c.127-.01.261-.015.4-.024m1.082-.029h-.2l-.315.009c-.135,0-.275.009-.418.015.311-.012.622-.021.933-.023m.556,0h-.18l.291,0-.111,0"/><path class="h" d="M3871.2,5919.825h-.187c-.311,0-.622.011-.933.023l-.122,0h-.027c-.135.009-.269.014-.4.024l-.1.01-.126,0-.225.02-.144.015-.081.006-.161.02-.091,0-.026,0-.108.016-.193.022-.239.034c-.144.027-.279.047-.414.073h-.018l-.072.016c-.233.047-.449.1-.656.151l-.027.011-.063.015-.036.016-.126.031-.107.037-.027.011-.153.052-.144.058-.08.031-.036.016-.018.011-.2.089-.063.032-.063.031-.071.042-.135.08-.072.047-.071.058h-.01l-.091.073-.023.02-.042.036c-.034.03-.068.06-.1.09s-.076.072-.111.108a1.842,1.842,0,0,0-.241.318l-.059.094.122-.015.027.011v.011l-.071.121v0l.054.123-.027.021h-.009l-.2-.038h-.027a1.645,1.645,0,0,0,.04,1.449l.021.041.037.058.072.1.109.133a2.791,2.791,0,0,0,.271.245l.024.023.021.019.032.02.085.055.109.064.081.048.1.048.089.043.208.1.07.029a3.482,3.482,0,0,0,.362.126c.081.025.166.049.252.072l.235.057.2.038c.144.022.289.044.423.06l.181.016h.027l.189.007c.135,0,.27.006.4.006a5.933,5.933,0,0,0,.773-.061,6.039,6.039,0,0,0,.962-.214l.171-.057.18-.068a3.4,3.4,0,0,0,.467-.216l.018-.011v0l.161-.089.054-.032.045-.032.072-.047.053-.042.135-.1a3.6,3.6,0,0,0,.689-.739l.1-.143a2.415,2.415,0,0,0,.187-.3,1.751,1.751,0,0,0,.08-.158,2.115,2.115,0,0,0,.1-.2q.079-.207.159-.429l-.3.047-.251.036H3872l-.054-.043v-.037l.188-.317a1.939,1.939,0,0,0,.052-.2l-.163-.4.071-.074h.055l.134.027.28.054.279.054.017-.138.018-.079.026-.175c0-.074.018-.143.017-.217l.009-.1c.008-.09.008-.169.016-.233v-.159l-.135-.006h-.026c-.359-.021-.723-.033-1.088-.038h-.017l-.291,0-.189,0"/><path class="s" d="M3867.636,5924.759q.175.017.351.018l.234,0c-.126,0-.261,0-.4-.006l-.189-.007m3.138-.6a3.841,3.841,0,0,1-.458.216,3.841,3.841,0,0,0,.458-.216m.179-.1-.161.094.161-.094"/><path class="u" d="M3872.153,5920.842h-.054l-.072.068.163.4v0l.018.047v.037l-.072.122-.187.317v.032l.054.042h.072l.243-.036h.009l.3-.047h.009l.207-.031h.063l.027.005.27.049.441.086.063.005.072-.074v0l-.181-.447v-.032l.25-.444v-.032l-.117-.042-.3.046-.3.042-.171.025h-.063l-.054-.011-.279-.054-.28-.054-.135-.022"/><path class="u" d="M3873.321,5922.272h-.054l-.251.132-.018,0h-.009l-.315.031-.009.005-.018.005-.009.037.009,0,.208.139.018.011v.005h-.009l.054.186.01.016h.063l.251-.131.018-.005.323-.036.027-.005.009-.032-.226-.144-.009-.016-.046-.191-.018-.016"/><path class="u" d="M3864.417,5921.663h-.027l-.018.016.018.037.036.085-.009.011-.062.122v.011l.036.011.189-.031h.036l.2.038h.009l.027-.021-.054-.122v-.01l.071-.117v-.011l-.027-.011-.123.015h0l-.009.005-.081.01h-.009l-.2-.038"/></g></g></g></g><path class="v" d="M3894.8,5919.748c0,.57-.02,1.14-.04,1.7-.03.43-.06.86-.1,1.29v.06a.171.171,0,0,0-.01.07c-.04.37-.08.74-.13,1.11-.02.12-.03.24-.05.36a31.456,31.456,0,0,1-6.41,14.94v.01a31.679,31.679,0,1,1,4.41-31.48,31.211,31.211,0,0,1,1.82,6.25c0,.02.01.04.01.06s.01.04.01.06A31.952,31.952,0,0,1,3894.8,5919.748Z"/><circle class="w" cx="11" cy="11" r="11" transform="translate(3878.7 5929.212)"/><path class="u" d="M3893.9,5938.437l-3.222,5.076a2.165,2.165,0,0,1-3.281,0l-1.9-3.075a1.453,1.453,0,0,1,.612-2.081,1.766,1.766,0,0,1,2.286.556l.64,1.094,1.962-3.1a1.766,1.766,0,0,1,2.286-.558,1.5,1.5,0,0,1,.837,1.325A1.417,1.417,0,0,1,3893.9,5938.437Z"/><g class="o"><text class="x" transform="translate(3853.526 5931.321)"><tspan x="0" y="0">6</tspan></text></g></g></svg>