<svg xmlns="http://www.w3.org/2000/svg" xmlns:xlink="http://www.w3.org/1999/xlink" width="66.7" height="66.7" viewBox="0 0 66.7 66.7"><defs><style>.a,.k,.l,.m,.n,.o,.v{fill:none;}.b{fill:#ddd;stroke-width:2.332px;}.b,.v{stroke:#9e9e9e;}.b,.e,.v{stroke-miterlimit:10;}.c{opacity:0.66;}.d{fill:#d8d8d8;}.e{fill:#333;stroke:#333;opacity:0.42;}.e,.k,.l,.m,.n,.o{stroke-linecap:round;}.e,.k{stroke-width:0.464px;}.f{fill:#f2f2f2;}.g{fill:#e2e2e2;}.h{fill:#c7c7c7;}.i{fill:#cfcfcf;}.j{fill:#4d4d4d;}.k{stroke:#373737;opacity:0.24;}.k,.l,.m,.n,.o{stroke-linejoin:round;}.l,.n,.o{stroke:#a8a8a8;}.l{stroke-width:0.928px;}.m{stroke:#cfcfcf;}.m,.n{stroke-width:1.393px;}.o{stroke-width:1.333px;}.p{opacity:0.69;}.q{isolation:isolate;}.r{clip-path:url(#a);}.s{fill:#f1f1f1;}.t{fill:#9b9b9b;}.u{fill:#fff;}.v{stroke-width:3.33px;}</style><clipPath id="a"><path class="a" d="M4028.187,5969.173l-.04-8.266,14.21.052.04,8.266Z"/></clipPath></defs><g transform="translate(-3996.616 -5928.949)"><path class="b" d="M4029.727,5930.616a31.683,31.683,0,1,1-31.683,31.683A31.683,31.683,0,0,1,4029.727,5930.616Z"/><g class="c"><path class="d" d="M4061.9,5968.305l-1.76-.2q-12.041-1.365-24.059-2.906l-24.639,13.121,27.312,3.845Q4050.328,5975.234,4061.9,5968.305Z"/><line class="e" x2="24.448" y2="3.954" transform="translate(4016.33 5971.746)"/><path class="f" d="M4038.265,5981.329l22.028-12.353a22.538,22.538,0,0,1-.032-8.4l-22.1,12.117a21.828,21.828,0,0,0,.106,8.633Z"/><path class="g" d="M4038.274,5981.329a21.617,21.617,0,0,1,0-8.618q-6.63-1.047-13.574-1.975-6.656-.885-13.065-1.583a12.474,12.474,0,0,0,.658,8.586Z"/><path class="h" d="M4038.76,5972.6"/><path class="i" d="M4062.106,5959.236l-26.019-3.83-24.7,13.272,27.715,3.83Z"/><path class="j" d="M4028.739,5966.789"/><path class="f" d="M4038.133,5981.755"/><path class="g" d="M4044.866,5980.577"/><line class="k" x1="15.591" y1="2.09" transform="translate(4022.188 5973.151)"/><line class="k" x1="20.568" y1="2.757" transform="translate(4016.884 5975.12)"/><line class="l" x1="15.591" y1="2.09" transform="translate(4038.48 5957.818)"/><path class="m" d="M4038.43,5982.133l23.015-13.16"/><path class="m" d="M4061.917,5959.908q-5.376,3.146-10.766,6.27-6.054,3.507-12.125,6.983"/><path class="n" d="M4039.026,5973.161l-27.234-3.965a13.226,13.226,0,0,0-.021,9.232l26.659,3.7"/><path class="o" d="M4036.706,5972.87l-24.944-3.678a14.441,14.441,0,0,0-.819,4.572,14.033,14.033,0,0,0,.7,4.648l24.418,3.425"/><path class="h" d="M4040.169,5962.983"/><path class="f" d="M4039.542,5972.142"/><path class="g" d="M4046.276,5970.963"/><g class="p"><g class="q"><g class="r"><path class="s" d="M4039.539,5962.41l.261.017v0l-.261-.012m-1.116-.036h0"/><path class="s" d="M4039.592,5960.949c-2.618-.009-6.319.188-8.694,1.218l-.255.108,1.737,1.1.206-.11.072-.037.063-.031.2-.09.018-.01.026-.016.09-.032.144-.057.153-.053.027-.011.107-.031.117-.037.045-.01.063-.021.027,0c.207-.058.422-.11.656-.157l.072-.01.018,0c.1-.021.216-.042.315-.058l.09-.01c.126-.021.251-.041.378-.057l.054-.005.117-.01.026,0,.027-.005.063,0,.162-.021.225-.021.225-.015.126-.01.1,0,.189-.015.171-.009.084,0,.061,0,.458-.018.315,0c.126,0,.261,0,.386,0h.181l.131,0h.058c.468.007.855.024,1.116.036l.261.012,2.558-1.391-.648-.028c-.539-.026-1.271-.051-2.118-.054"/><path class="t" d="M4039.488,5965h.009l.018,0h.009l.315-.031.027,0,.243-.132h.063l.009.01.055.191.008.016.217.144v.037l-.027,0-.323.031-.028.01-.242.127h-.063l-.009-.015-.054-.181.008-.005-.009-.006-.009-.01-.208-.139-.008,0V5965m2.87-3.966-2.558,1.391v0l-.009.074v.08c0,.063,0,.148-.008.238l-.009.1a1.955,1.955,0,0,0-.017.212l-.026.175-.017.08-.017.138.053.01h.054l.18-.025.3-.042.3-.046.118.043v.037l-.25.439-.009.032.192.451-.072.074h-.063l-.442-.086-.279-.054-.027,0h-.054l-.216.03v.006l-.017.047a2.936,2.936,0,0,1-.152.382,1.618,1.618,0,0,1-.089.19c-.027.058-.053.111-.08.164a2.844,2.844,0,0,1-.187.3l-.1.143a3.6,3.6,0,0,1-.689.734l-.135.1-.063.042-.062.053-.045.026-.054.032-.161.095.161-.09-.161.09.161-.09-.161.095v0l-.018.016a3.4,3.4,0,0,1-.467.215c.067-.028.133-.058.2-.088l-.014.006c-.06.029-.121.056-.183.082l-.18.069-.17.052a5.586,5.586,0,0,1-.963.219c-.22.027-.447.046-.675.053l-.1,0-.158,0h-.076c-.117,0-.234-.006-.351-.017h-.027l-.009,0-.171-.022c-.145-.016-.279-.032-.424-.06l-.2-.038a4.081,4.081,0,0,1-.486-.123c-.153-.048-.3-.1-.442-.155l-.208-.1-.1-.053-.09-.043-.072-.048-.117-.064h-.01l-.1-.074-.054-.043a1.489,1.489,0,0,1-.263-.245l-.108-.127-.072-.1h-.01l-.036-.058a1.4,1.4,0,0,1-.191-.547l-.029-.212.009-.122a1.658,1.658,0,0,1,.15-.609l-.2.031-.036-.01.009-.011.062-.122.01,0-.037-.09-.018-.032.018-.021h.027l.189.038h.018l.072-.011.049-.065.022-.035c.019-.027.038-.054.059-.081a2.631,2.631,0,0,1,.192-.236,2.592,2.592,0,0,1,.367-.328h.009l.063-.058.072-.053-1.737-1.1-.006,0-.215.116c-.152.079-.3.164-.431.248a3.715,3.715,0,0,0-1.822,2.941l0,.233.018.128a2.749,2.749,0,0,0,1.207,1.923l.2.149v0l.217.123a8.3,8.3,0,0,0,3.109.981l.235.027v.006l.378.028c.242.017.484.026.724.026a9.407,9.407,0,0,0,4.473-1.036,6.5,6.5,0,0,0,.664-.416l.161-.116.206-.175a8.523,8.523,0,0,0,2.581-6.028l.016-.393"/><path class="i" d="M4035.072,5967.319l-.158,0,.158,0m-.585-.013c.117.011.234.017.351.017h0c-.117,0-.234-.006-.351-.017l.18.011h.009l-.189-.011m3.138-.6a4.093,4.093,0,0,1-.467.215,3.4,3.4,0,0,0,.467-.215m.179-.106-.161.09v0l.161-.095m-6.086-.356a1.489,1.489,0,0,0,.263.245,2.235,2.235,0,0,1-.263-.245m7.741-1.817c-.047.131-.1.259-.152.382a2.936,2.936,0,0,0,.152-.382m.017-.047h0l-.015.047.017-.047m-.434-.521-.053.206.071-.121v-.038l-.018-.047m-6.806-.364a2.251,2.251,0,0,0-.367.327,2.7,2.7,0,0,1,.367-.327m7.479-.116-.018.137v0l.017-.138m-4.828-.792-.09.01c-.1.016-.216.037-.315.058.126-.027.27-.047.405-.068m.432-.062-.054.005c-.127.016-.252.036-.378.057l.432-.062m.233-.025-.063,0-.027.005.09-.01m2.133-.126h-.018l-.315,0-.458.018-.061,0-.084,0-.171.009-.189.015c.135-.01.279-.02.414-.025l.283-.012h.031c.19-.008.38-.012.568-.016m.368,0c-.049,0-.1,0-.152,0h.152m.37,0h-.057c.441.008.874.02,1.3.046l.135.006-.261-.017c-.261-.012-.648-.029-1.116-.036"/><path class="i" d="M4038.234,5962.373h-.333l-.216,0c-.188,0-.378.008-.568.016h-.031l-.283.012c-.135.005-.279.015-.414.025l-.1,0-.126.01-.225.015-.144.016-.081,0-.162.021-.09.01-.026,0-.117.01-.432.062c-.135.021-.27.041-.405.068l-.018,0-.072.01c-.234.047-.449.1-.656.157l-.027,0-.063.021-.045.01-.117.037-.107.031-.027.011-.153.053-.144.057-.09.032-.026.016-.018.01-.2.09-.063.031-.063.037-.071.037-.135.079-.081.047-.063.058-.009.006a2.7,2.7,0,0,0-.367.327c-.067.075-.133.152-.192.231-.021.027-.04.054-.059.081l-.022.035-.04.065.126-.021.036.011v.011l-.072.122v.01l.055.122-.027.022h-.009l-.207-.044h-.018a1.619,1.619,0,0,0,.061,1.49l.027.058h.01l.072.1.108.127a2.235,2.235,0,0,0,.263.245l.054.043.117.074.109.064.081.048.081.043.1.053.208.1c.144.053.289.107.442.155a4.081,4.081,0,0,0,.486.123l.2.038c.145.028.279.044.424.06l.18.017h.027l.189.011c.067,0,.132,0,.2,0h.04l.158,0-.158,0,.158,0,.1,0c.228-.007.455-.026.675-.053a5.586,5.586,0,0,0,.963-.219l.17-.052.18-.069c.062-.026.123-.053.183-.082.095-.044.187-.09.274-.139l.005,0,0,0v.006l.018-.016.161-.095.054-.032.045-.026.062-.053.063-.042.135-.1a3.6,3.6,0,0,0,.689-.734l.1-.143a2.844,2.844,0,0,0,.187-.3c.027-.053.053-.106.08-.164a1.618,1.618,0,0,0,.089-.19c.062-.142.115-.283.167-.429l-.294.041-.009.006-.243.036-.072-.006-.054-.037v-.037l.188-.318c.018-.074.035-.137.053-.206l-.173-.4,0,0,0,0,.08-.074.055.006.126.022.288.054.279.053.018-.137.017-.08.026-.175a1.835,1.835,0,0,1,.017-.212l.009-.1c.008-.095.008-.175.008-.238v-.08l.009-.074-.135-.006c-.425-.026-.858-.038-1.3-.046h0l-.131,0"/><path class="t" d="M4035.072,5967.319l-.158,0,.158,0m-.585-.013c.117.011.234.017.351.017h.036c-.066,0-.131,0-.2,0h-.009l-.18-.011m3.138-.6,0,0c-.088.045-.176.088-.265.13-.064.03-.13.06-.2.088a4.093,4.093,0,0,0,.467-.215v-.006m.179-.1-.161.09.161-.09"/><path class="u" d="M4039,5963.389h-.054l-.079.072h0l.173.4.018.047v.037l-.071.122-.187.317v.037l.054.037.072.006.243-.036.009-.005.295-.041h0v-.005l.216-.031h.054l.027.005.279.054.441.087h.063l.072-.074-.192-.451.009-.032.25-.439v-.037l-.117-.042-.3.046-.3.046-.171.026h-.063l-.054-.011v-.005l-.279-.049-.289-.054-.126-.027"/><path class="u" d="M4040.172,5964.825h-.063l-.242.131-.027.005-.315.031h-.009l-.018.005h-.009v.037l.009,0,.208.139.009.011.009.005-.009.005.054.18.01.016h.063l.242-.126.027-.011.323-.031.027,0v-.037l-.217-.144-.009-.016-.055-.191-.009-.01"/><path class="u" d="M4031.268,5964.209h-.027l-.018.021.018.032.036.09-.009.011-.062.116-.009.011.036.011.2-.031h.027l.207.038.009.006.027-.021-.055-.122v-.011l.072-.122v-.011l-.036-.011-.126.021h-.009l-.072.01h-.018l-.189-.038"/></g></g></g></g><path class="v" d="M4061.651,5962.294c0,.57-.02,1.14-.04,1.7-.03.43-.06.86-.1,1.29v.06a.168.168,0,0,0-.01.07c-.04.37-.08.74-.13,1.11-.02.12-.03.24-.05.36a31.463,31.463,0,0,1-6.41,14.94v.01a31.678,31.678,0,1,1,4.41-31.48,31.236,31.236,0,0,1,1.82,6.25c0,.02.01.04.01.06s.01.04.01.06A31.956,31.956,0,0,1,4061.651,5962.294Z"/></g></svg>