<svg xmlns="http://www.w3.org/2000/svg" width="66.7" height="66.7" viewBox="0 0 66.7 66.7"><defs><style>.a{fill:#ffd000;}.b{opacity:0.43;}.c,.l{fill:#373737;}.d{fill:#333;stroke:#333;stroke-miterlimit:10;opacity:0.42;}.d,.h,.i,.j,.l,.m{stroke-linecap:round;}.d,.h{stroke-width:0.42px;}.e{fill:#f2f2f2;}.f{fill:#eae0d8;}.g{fill:red;}.h,.i,.j,.m,.n{fill:none;}.h,.i,.j,.l,.m{stroke:#373737;stroke-linejoin:round;}.i,.l{stroke-width:1.261px;}.j{stroke-width:1.207px;}.k{fill:#f4ebe6;}.m{stroke-width:1.195px;}.n{stroke:#f08800;stroke-width:3.33px;}</style></defs><g transform="translate(-57.972 -521.255)"><path class="a" d="M3822.768,5979a31.683,31.683,0,1,1-31.683,31.683A31.683,31.683,0,0,1,3822.768,5979Z" transform="translate(-3731.685 -5456.079)"/><g class="b" transform="translate(-3731.685 -5456.079)"><path class="c" d="M3852.55,6024.215l-1.593-.18q-10.905-1.236-21.789-2.632l-22.316,11.884,24.737,3.482Z"/><line class="d" x2="22.142" y2="3.581" transform="translate(3811.278 6027.332)"/><path class="e" d="M3831.143,6036.011l19.951-11.188a20.364,20.364,0,0,1-.029-7.6l-20.017,10.973a19.735,19.735,0,0,0,.095,7.819Z"/><path class="f" d="M3831.152,6036.011a19.57,19.57,0,0,1,0-7.805q-6-.949-12.294-1.789-6.027-.8-11.833-1.434a11.307,11.307,0,0,0,.6,7.777Z"/><path class="a" d="M3831.592,6028.1"/><path class="c" d="M3852.736,6016l-23.565-3.469-22.373,12.02,25.1,3.469Z"/><path class="g" d="M3822.516,6022.843"/><path class="e" d="M3831.024,6036.4"/><path class="f" d="M3837.122,6035.33"/><line class="h" x1="14.12" y1="1.893" transform="translate(3816.583 6028.604)"/><line class="h" x1="18.628" y1="2.497" transform="translate(3811.779 6030.388)"/><path class="i" d="M3831.293,6036.739l20.844-11.919"/><path class="i" d="M3852.564,6016.611q-4.867,2.851-9.75,5.678-5.483,3.175-10.981,6.324"/><path class="i" d="M3831.833,6028.613l-24.665-3.591a11.987,11.987,0,0,0-.019,8.361l24.144,3.356"/><path class="j" d="M3829.732,6028.35l-22.591-3.331a13.039,13.039,0,0,0-.742,4.14,12.737,12.737,0,0,0,.638,4.21l22.115,3.1"/><path class="a" d="M3832.868,6019.4"/><path class="e" d="M3832.3,6027.69"/><path class="f" d="M3838.4,6026.623"/><path class="a" d="M3853.291,6014.661q-.844-.114-1.7-.214a92.084,92.084,0,0,0-21.558.06c-7.439,3.962-14.877,5.19-22.316,9.151l24.736,3.482q5.127-2.817,10.481-6.014Q3848.338,6017.891,3853.291,6014.661Z"/><line class="d" x2="22.142" y2="3.581" transform="translate(3812.14 6020.436)"/><path class="e" d="M3831.783,6027.383c6.724-3.152,13.448-8.3,20.173-11.453-.2-1.025-.36-.282-.372-1.714a20.426,20.426,0,0,1,.343-3.893L3831.91,6021.3a16.034,16.034,0,0,0-.127,6.086Z"/><path class="k" d="M3807.714,6017.869c.215,1.056.393.063.394,1.585a19.549,19.549,0,0,1-.394,3.908q6.006.948,12.294,1.788,6.027.8,11.833,1.434a11.334,11.334,0,0,0,.394-3.933,1.814,1.814,0,0,0-.306-1.04,1.546,1.546,0,0,0-.685-.491Z"/><path class="c" d="M3853.819,6009.1l-23.786-3.262-22.813,11.736,25.234,3.629Z"/><path class="g" d="M3823.378,6015.947"/><line class="h" x1="14.12" y1="1.893" transform="translate(3807.985 6021.709)"/><path class="l" d="M3833.292,6021.295q5.106-2.983,10.243-5.911,5.042-2.872,10.115-5.693a7.936,7.936,0,0,1-.359,4.97l-21.277,12.495c.228-.81.446-1.662.647-2.556C3832.921,6023.448,3833.128,6022.343,3833.292,6021.295Z"/><path class="j" d="M3807.441,6018.123l24.8,3.358a11.121,11.121,0,0,1-.409,5.675l-24.426-3.424"/><path class="c" d="M3849.658,6008.241q-1.17-.11-2.363-.251a90.423,90.423,0,0,1-15.288-3.191c-3.489,1.245-7.235,2.75-11.158,4.576-3.4,1.58-6.518,3.212-9.362,4.828l22.941,3.229c3.355-1.723,6.87-3.712,10.481-6.014Q3847.39,6009.835,3849.658,6008.241Z"/><line class="d" x2="22.142" y2="3.581" transform="translate(3814.117 6010.728)"/><path class="e" d="M3833.76,6017.675q4.964-2.687,10.087-5.727,2.171-1.292,4.27-2.59a5.49,5.49,0,0,1-.417-4.833l-13.813,7.064a16.1,16.1,0,0,0-.127,6.086Z"/><path class="f" d="M3833.991,6017.1c-.192-1.056-.352-.063-.352-1.585a21.7,21.7,0,0,1,.352-3.908q-5.382-.948-11.019-1.788-5.4-.8-10.607-1.435a12.566,12.566,0,0,0-.353,3.934,1.962,1.962,0,0,0,.275,1.04,1.378,1.378,0,0,0,.613.49Z"/><path class="c" d="M3848.869,6003.316,3829.535,6001l-17.565,7.243,22.461,3.25Z"/><line class="h" x1="14.12" y1="1.893" transform="translate(3819.423 6012.001)"/><path class="i" d="M3848.759,6003.918q-1.541.886-3.1,1.767-5.6,3.152-11.1,6"/><path class="i" d="M3834.132,6017.457l15.332-8.609"/><path class="m" d="M3834.4,6011.722l-21.838-2.984a12.4,12.4,0,0,0-.439,5.673l21.849,3.148"/></g><path class="n" d="M3854.692,6010.679c0,.57-.02,1.14-.04,1.7-.03.43-.06.86-.1,1.29v.06a.169.169,0,0,0-.01.07c-.04.37-.08.74-.13,1.11-.02.12-.03.24-.05.36a31.461,31.461,0,0,1-6.41,14.94v.01a31.678,31.678,0,1,1,4.41-31.48,31.22,31.22,0,0,1,1.82,6.25c0,.02.01.04.01.06s.01.04.01.06A31.957,31.957,0,0,1,3854.692,6010.679Z" transform="translate(-3731.685 -5456.079)"/></g></svg>