<svg xmlns="http://www.w3.org/2000/svg" width="66.7" height="66.7" viewBox="0 0 66.7 66.7"><defs><style>.a{fill:#ddd;}.b{opacity:0.24;}.c,.m{fill:#373737;}.d{fill:#333;stroke:#333;stroke-miterlimit:10;opacity:0.42;}.d,.i,.j,.k,.m,.n{stroke-linecap:round;}.d,.i{stroke-width:0.42px;}.e{fill:#f2f2f2;}.f{fill:#e2e2e2;}.g{fill:#c7c7c7;}.h{fill:#4d4d4d;}.i,.j,.k,.n,.o{fill:none;}.i,.j,.k,.m,.n{stroke:#373737;stroke-linejoin:round;}.j,.m{stroke-width:1.261px;}.k{stroke-width:1.207px;}.l{fill:#ededed;}.n{stroke-width:1.195px;}.o{stroke:#9e9e9e;stroke-width:3.33px;}</style></defs><g transform="translate(-57.972 -521.255)"><path class="a" d="M3952.385,6119.717A31.683,31.683,0,1,1,3920.7,6151.4,31.683,31.683,0,0,1,3952.385,6119.717Z" transform="translate(-3861.302 -5596.795)"/><g class="b" transform="translate(-3861.302 -5596.795)"><path class="c" d="M3982.168,6164.931l-1.594-.18q-10.9-1.236-21.789-2.632L3936.47,6174l24.736,3.483Z"/><line class="d" x2="22.142" y2="3.581" transform="translate(3940.895 6168.047)"/><path class="e" d="M3960.761,6176.727l19.95-11.188a20.432,20.432,0,0,1-.029-7.6l-20.017,10.973a19.755,19.755,0,0,0,.1,7.819Z"/><path class="f" d="M3960.769,6176.727a19.575,19.575,0,0,1,0-7.806q-6-.948-12.294-1.788-6.027-.8-11.832-1.434a11.3,11.3,0,0,0,.6,7.777Z"/><path class="g" d="M3961.209,6168.818"/><path class="c" d="M3982.353,6156.717l-23.565-3.468-22.373,12.02,25.1,3.469Z"/><path class="h" d="M3952.133,6163.558"/><path class="e" d="M3960.641,6177.113"/><path class="f" d="M3966.739,6176.046"/><line class="i" x1="14.12" y1="1.893" transform="translate(3946.201 6169.32)"/><line class="i" x1="18.628" y1="2.497" transform="translate(3941.396 6171.104)"/><path class="j" d="M3960.91,6177.455l20.844-11.919"/><path class="j" d="M3982.181,6157.326q-4.867,2.85-9.749,5.679-5.484,3.176-10.982,6.324"/><path class="j" d="M3961.45,6169.329l-24.665-3.591a11.986,11.986,0,0,0-.019,8.361l24.144,3.356"/><path class="k" d="M3959.349,6169.066l-22.591-3.332a13.053,13.053,0,0,0-.742,4.141,12.764,12.764,0,0,0,.638,4.21l22.116,3.1"/><path class="g" d="M3962.485,6160.111"/><path class="e" d="M3961.917,6168.406"/><path class="f" d="M3968.016,6167.339"/><path class="g" d="M3982.909,6155.377q-.846-.114-1.7-.214a92.007,92.007,0,0,0-21.558.06c-7.438,3.962-14.877,5.19-22.315,9.151l24.736,3.482q5.125-2.817,10.481-6.014Q3977.955,6158.607,3982.909,6155.377Z"/><line class="d" x2="22.142" y2="3.581" transform="translate(3941.757 6161.152)"/><path class="e" d="M3961.4,6168.1c6.724-3.152,13.448-8.3,20.173-11.453-.2-1.025-.36-.282-.371-1.714a20.356,20.356,0,0,1,.342-3.893l-20.017,10.974a16.034,16.034,0,0,0-.127,6.086Z"/><path class="l" d="M3937.332,6158.585c.214,1.055.393.063.393,1.585a19.618,19.618,0,0,1-.393,3.908q6,.948,12.293,1.788,6.027.8,11.833,1.434a11.279,11.279,0,0,0,.394-3.933,1.8,1.8,0,0,0-.306-1.04,1.537,1.537,0,0,0-.685-.491Z"/><path class="c" d="M3983.436,6149.816l-23.786-3.263-22.813,11.737,25.234,3.629Z"/><path class="h" d="M3953,6156.663"/><line class="i" x1="14.12" y1="1.893" transform="translate(3937.603 6162.425)"/><path class="m" d="M3962.909,6162.011q5.106-2.984,10.243-5.911,5.041-2.873,10.115-5.693a7.943,7.943,0,0,1-.358,4.97l-21.278,12.5c.228-.81.446-1.663.648-2.556C3962.539,6164.163,3962.745,6163.059,3962.909,6162.011Z"/><path class="k" d="M3937.059,6158.839l24.794,3.357a11.129,11.129,0,0,1-.409,5.676l-24.426-3.425"/><path class="c" d="M3979.275,6148.957q-1.17-.11-2.363-.251a90.422,90.422,0,0,1-15.288-3.191c-3.489,1.245-7.234,2.75-11.157,4.575-3.4,1.581-6.518,3.212-9.363,4.828l22.941,3.23c3.355-1.723,6.871-3.712,10.481-6.014Q3977.008,6150.552,3979.275,6148.957Z"/><line class="d" x2="22.142" y2="3.581" transform="translate(3943.734 6151.443)"/><path class="e" d="M3963.377,6158.391q4.964-2.687,10.087-5.727,2.17-1.291,4.271-2.59a5.48,5.48,0,0,1-.417-4.833q-6.908,3.531-13.813,7.064a16.08,16.08,0,0,0-.128,6.086Z"/><path class="f" d="M3963.608,6157.811c-.192-1.056-.352-.063-.352-1.585a21.685,21.685,0,0,1,.352-3.908q-5.382-.948-11.019-1.789-5.4-.8-10.606-1.434a12.556,12.556,0,0,0-.354,3.934,1.965,1.965,0,0,0,.275,1.039,1.384,1.384,0,0,0,.613.491Z"/><path class="c" d="M3978.486,6144.032l-19.334-2.314-17.565,7.243,22.461,3.25Z"/><line class="i" x1="14.12" y1="1.893" transform="translate(3949.04 6152.717)"/><path class="j" d="M3978.376,6144.634q-1.54.887-3.1,1.767-5.6,3.152-11.1,6"/><path class="j" d="M3963.75,6158.173l15.332-8.609"/><path class="n" d="M3964.019,6152.438l-21.837-2.984a12.376,12.376,0,0,0-.44,5.672l21.849,3.149"/></g><path class="o" d="M3984.309,6151.4c0,.57-.02,1.14-.04,1.7-.03.43-.06.86-.1,1.29v.06a.171.171,0,0,0-.01.07c-.04.37-.08.74-.13,1.11-.02.12-.03.24-.05.36a31.461,31.461,0,0,1-6.41,14.94v.01a31.679,31.679,0,1,1,4.41-31.48,31.227,31.227,0,0,1,1.82,6.25c0,.02.01.04.01.06s.01.04.01.06A31.975,31.975,0,0,1,3984.309,6151.4Z" transform="translate(-3861.302 -5596.795)"/></g></svg>