<svg xmlns="http://www.w3.org/2000/svg" width="76.311" height="59.08" viewBox="0 0 76.311 59.08">
  <g id="Grupo_1518" data-name="Grupo 1518" transform="translate(-171.097 -515.958)">
    <g id="Grupo_1352" data-name="Grupo 1352">
      <g id="Grupo_1351" data-name="Grupo 1351">
        <path id="Caminho_2133" data-name="Caminho 2133" d="M208.272,555.155a13.667,13.667,0,0,0,3.419-.9c.662-.287.838-.467,3.983-3.252a29.526,29.526,0,0,0,3.946-3.864c.445-.552.784-1.03,1-1.354l5.422,1.679a25.467,25.467,0,0,1-14.988,7.591A26.115,26.115,0,0,1,208.272,555.155Z" fill="#da8e2a"/>
        <path id="Caminho_2134" data-name="Caminho 2134" d="M227.868,533l-7.242,12.781s-6.389,9.371-12.354,9.371a34.918,34.918,0,0,1-10.961-1.868,29,29,0,0,1-7.254-10.592,29.3,29.3,0,0,1-1.384-16.509l20.874-10.225" fill="#fdcd4a"/>
        <path id="Caminho_2135" data-name="Caminho 2135" d="M232.512,534.4l-4.643-1.4-10.792-17.04,9.23,3.692Z" fill="#b87824"/>
        <path id="Caminho_2136" data-name="Caminho 2136" d="M226.048,547.463l-5.421-1.68L227.868,533l4.644,1.4a43.445,43.445,0,0,1-6.464,13.06Z" fill="#c07415"/>
        <path id="Caminho_2137" data-name="Caminho 2137" d="M220.626,545.783a23.1,23.1,0,0,1-7.355,2.523,31.334,31.334,0,0,1-5.851.032s-.809-.055-8.732-1.278a43.981,43.981,0,0,1-8.823-14.864,28.569,28.569,0,0,1-1.188-6l20.873-10.224h7.527c3.407,5.679,7.379,11.36,10.791,17.039l-7.242,12.781Z" fill="#feee60"/>
      </g>
      <path id="Caminho_1801-3" data-name="Caminho 1801-3" d="M224.4,536.937a.151.151,0,0,1,.051-.016h.716a.086.086,0,0,0,.051-.016l.165-.107v-.007l.233-.152h0l.2-.125a.086.086,0,0,1,.06-.016.09.09,0,0,1,.068.041.087.087,0,0,1,.016.052l.006.515v.2a.092.092,0,0,0,.015.051l.042.064.352.533a.1.1,0,0,1-.025.125.08.08,0,0,1-.052.016h-.713a.085.085,0,0,0-.051.016l-.136.088-.233.153-.229.154a.1.1,0,0,1-.125-.03.093.093,0,0,1-.017-.048l-.009-.715a.074.074,0,0,0-.015-.05l-.394-.6A.1.1,0,0,1,224.4,536.937Z" fill="#fff"/>
      <path id="Caminho_1801-4" data-name="Caminho 1801-4" d="M198.171,546.883a.061.061,0,0,1,.027,0l.231.01.141.006h.013a.044.044,0,0,0,.028-.006l.092-.053h0l.126-.075h0l.108-.061a.038.038,0,0,1,.033,0,.042.042,0,0,1,.035.024.032.032,0,0,1,.007.027l-.012.278v.107a.048.048,0,0,0,0,.029l.02.035.174.3a.052.052,0,0,1-.018.068.045.045,0,0,1-.028,0h-.385a.066.066,0,0,0-.028,0l-.076.044-.125.075-.126.075a.048.048,0,0,1-.066-.017h0a.053.053,0,0,1-.008-.027l.016-.385a.032.032,0,0,0-.007-.027l-.193-.335a.054.054,0,0,1,0-.076A.048.048,0,0,1,198.171,546.883Z" fill="#fff"/>
      <path id="Caminho_1801-5" data-name="Caminho 1801-5" d="M190.743,527.122a.062.062,0,0,1,.027-.006l.232.01h.154a.044.044,0,0,0,.028,0l.092-.053h0L191.4,527h0l.107-.061a.047.047,0,0,1,.033,0,.044.044,0,0,1,.036.024.043.043,0,0,1,.006.027l-.011.278v.107a.034.034,0,0,0,0,.028l.021.036.173.3a.051.051,0,0,1-.018.068.052.052,0,0,1-.027.007h-.214l-.141-.007h-.03a.044.044,0,0,0-.029.007l-.076.043-.125.075-.126.075a.049.049,0,0,1-.067-.018.061.061,0,0,1-.008-.026l.016-.386a.033.033,0,0,0-.006-.027l-.194-.334a.054.054,0,0,1,0-.075A.061.061,0,0,1,190.743,527.122Z" fill="#fff"/>
      <path id="Caminho_1801-6" data-name="Caminho 1801-6" d="M225.469,531.823a.387.387,0,0,1,.125-.039l1.056-.008h.707a.21.21,0,0,0,.125-.038l.409-.261.008-.019.573-.375v-.009l.479-.307a.213.213,0,0,1,.149-.036.219.219,0,0,1,.168.1.2.2,0,0,1,.037.125l.013,1.27v.5a.2.2,0,0,0,.039.125l.1.159.864,1.316a.232.232,0,0,1-.064.316.2.2,0,0,1-.125.037h-.3l-.673.014-.646.006h-.135a.211.211,0,0,0-.125.039l-.337.217-.573.375-.563.375a.231.231,0,0,1-.313-.071.262.262,0,0,1-.042-.118l-.017-1.762a.206.206,0,0,0-.039-.125l-.966-1.474A.252.252,0,0,1,225.469,531.823Z" fill="#fff"/>
    </g>
    <g id="Grupo_1355" data-name="Grupo 1355">
      <g id="Caminho_260-4" data-name="Caminho 260-4">
        <path id="Caminho_2138" data-name="Caminho 2138" d="M227.9,560.1V568.5q2.944-.162,5.809-.363,3.3-.227,6.49-.5c1.314-.106,2.611-.224,3.9-.345a3.576,3.576,0,0,0,3.2-2.992c.207-1.258-1.887-2.515-1.833-4.021.067-2.106,2.17-4.16,1.928-5.84a3.556,3.556,0,0,0-3.869-3.02q-2.569.24-5.207.462c-1.279.106-2.573,0-3.851.155a6.526,6.526,0,0,0-3.527,1.661,8.81,8.81,0,0,0-2.15,2.662,7.769,7.769,0,0,0-.461,1.084A8.163,8.163,0,0,0,227.9,560.1Z" fill="#efede8"/>
      </g>
      <g id="Caminho_260-5" data-name="Caminho 260-5">
        <path id="Caminho_2139" data-name="Caminho 2139" d="M190.609,561.342v8.39q-2.946-.159-5.811-.362-3.293-.227-6.491-.5-1.971-.162-3.9-.345a3.576,3.576,0,0,1-3.2-2.992c-.206-1.257,1.887-2.515,1.834-4.021-.067-2.105-2.169-4.159-1.929-5.84a3.556,3.556,0,0,1,3.868-3.019q2.571.24,5.207.46c1.279.107,2.573,0,3.849.158a6.5,6.5,0,0,1,3.527,1.659,8.843,8.843,0,0,1,2.152,2.662,7.886,7.886,0,0,1,.46,1.084A8.158,8.158,0,0,1,190.609,561.342Z" fill="#efede8"/>
      </g>
      <g id="Caminho_260-6" data-name="Caminho 260-6">
        <path id="Caminho_261-2" data-name="Caminho 261-2" d="M237.843,570.148c-.165,1.626-1.043,2.876-2.126,3.024a188.226,188.226,0,0,1-52.909,0c-1.078-.153-1.949-1.376-2.126-2.991-.135-1.258-.235-2.65-.267-4.157a48.99,48.99,0,0,1,.207-5.707c.18-1.876,1.317-3.2,2.568-3.02a184.3,184.3,0,0,0,52.146,0c1.274-.183,2.4,1.194,2.574,3.106a51.833,51.833,0,0,1,.187,5.6C238.063,567.5,237.971,568.888,237.843,570.148Z" fill="#f2f2f2"/>
      </g>
      <g id="Grupo_1354" data-name="Grupo 1354">
        <g id="Grupo_1353" data-name="Grupo 1353">
          <path id="Caminho_2140" data-name="Caminho 2140" d="M198.59,570.993a3.684,3.684,0,0,1-1.866-.509,3.226,3.226,0,0,1-1.227-1.333,4.561,4.561,0,0,1,.087-3.94,3.219,3.219,0,0,1,1.279-1.274,4.085,4.085,0,0,1,3.768.079,3.221,3.221,0,0,1,1.227,1.328,4.549,4.549,0,0,1-.088,3.936,3.243,3.243,0,0,1-1.283,1.282A3.7,3.7,0,0,1,198.59,570.993Zm.03-1.357a1.722,1.722,0,0,0,1.427-.6,3.294,3.294,0,0,0,.082-3.508,1.726,1.726,0,0,0-1.407-.653,1.708,1.708,0,0,0-1.417.593,3.269,3.269,0,0,0-.076,3.506,1.7,1.7,0,0,0,1.392.663Z" fill="#373737"/>
          <path id="Caminho_2141" data-name="Caminho 2141" d="M206.495,571.1a3.219,3.219,0,0,1-2.347-.8,3.159,3.159,0,0,1-.8-2.36l.016-3.5a.831.831,0,0,1,.208-.6.8.8,0,0,1,.6-.209.71.71,0,0,1,.789.817l-.016,3.51a1.948,1.948,0,0,0,.394,1.333,1.477,1.477,0,0,0,1.161.452q1.553.009,1.561-1.772l.016-3.5a.709.709,0,0,1,.6-.808.69.69,0,0,1,.2,0,.764.764,0,0,1,.582.215.838.838,0,0,1,.2.6l-.015,3.5a3.207,3.207,0,0,1-.8,2.353A3.171,3.171,0,0,1,206.495,571.1Z" fill="#373737"/>
          <path id="Caminho_2142" data-name="Caminho 2142" d="M211.784,571.079a.781.781,0,0,1-.6-.211.839.839,0,0,1-.211-.6l-.059-5.708a.717.717,0,0,1,.6-.818.742.742,0,0,1,.205,0l2.5-.026a2.719,2.719,0,0,1,1.876.565,2.082,2.082,0,0,1,.676,1.626,2.161,2.161,0,0,1-.4,1.358,2.1,2.1,0,0,1-1.181.751,1.555,1.555,0,0,1,.9.784l.65,1.176a.817.817,0,0,1,.089.725c-.085.222-.3.337-.644.34a.967.967,0,0,1-.557-.139,1.151,1.151,0,0,1-.375-.438l-1-1.811a.847.847,0,0,0-.383-.388,1.327,1.327,0,0,0-.536-.1l-.781.008.021,2.077a.859.859,0,0,1-.194.609A.777.777,0,0,1,211.784,571.079Zm.751-4.062,1.43-.014c.857-.011,1.282-.356,1.276-1.042s-.44-1.013-1.3-1l-1.43.015Z" fill="#373737"/>
          <path id="Caminho_2143" data-name="Caminho 2143" d="M221.461,570.943a3.682,3.682,0,0,1-1.89-.417,3.235,3.235,0,0,1-1.288-1.274,4.548,4.548,0,0,1-.105-3.938,3.219,3.219,0,0,1,1.216-1.333,3.7,3.7,0,0,1,1.869-.51,3.74,3.74,0,0,1,1.9.411,3.222,3.222,0,0,1,1.289,1.268,4.1,4.1,0,0,1,.5,1.949,4.172,4.172,0,0,1-.4,1.986,3.235,3.235,0,0,1-1.22,1.343A3.682,3.682,0,0,1,221.461,570.943Zm-.037-1.357a1.709,1.709,0,0,0,1.4-.669,3.286,3.286,0,0,0-.085-3.505,1.914,1.914,0,0,0-2.824.072,3.274,3.274,0,0,0,.093,3.507,1.7,1.7,0,0,0,1.419.595Z" fill="#373737"/>
        </g>
      </g>
    </g>
  </g>
</svg>
