<svg xmlns="http://www.w3.org/2000/svg" width="66.696" height="66.696" viewBox="0 0 66.696 66.696">
  <g id="Grupo_2035" data-name="Grupo 2035" transform="translate(-146.575 -366.335)">
    <path id="Elipse_30-4-23" data-name="Elipse 30-4-23" d="M-7418.18-5261.87a31.683,31.683,0,0,1,31.683,31.683,31.683,31.683,0,0,1-31.683,31.683,31.682,31.682,0,0,1-31.683-31.683A31.683,31.683,0,0,1-7418.18-5261.87Z" transform="translate(7597.863 5629.87)" fill="#f4de9b" stroke="#ed7100" stroke-width="2.332"/>
    <g id="Grupo_1352" data-name="Grupo 1352" transform="translate(-22.146 -125.59)">
      <g id="Grupo_1351" data-name="Grupo 1351">
        <path id="Caminho_2133" data-name="Caminho 2133" d="M208.272,555.155a13.667,13.667,0,0,0,3.419-.9c.662-.287.838-.467,3.983-3.252a29.526,29.526,0,0,0,3.946-3.864c.445-.552.784-1.03,1-1.354l5.422,1.679a25.467,25.467,0,0,1-14.988,7.591A26.115,26.115,0,0,1,208.272,555.155Z" fill="#da8e2a"/>
        <path id="Caminho_2134" data-name="Caminho 2134" d="M227.868,533l-7.242,12.781s-6.389,9.371-12.354,9.371a34.918,34.918,0,0,1-10.961-1.868,29,29,0,0,1-7.254-10.592,29.3,29.3,0,0,1-1.384-16.509l20.874-10.225" fill="#fdcd4a"/>
        <path id="Caminho_2135" data-name="Caminho 2135" d="M232.512,534.4l-4.643-1.4-10.792-17.04,9.23,3.692Z" fill="#b87824"/>
        <path id="Caminho_2136" data-name="Caminho 2136" d="M226.048,547.463l-5.421-1.68L227.868,533l4.644,1.4a43.445,43.445,0,0,1-6.464,13.06Z" fill="#c07415"/>
        <path id="Caminho_2137" data-name="Caminho 2137" d="M220.626,545.783a23.1,23.1,0,0,1-7.355,2.523,31.334,31.334,0,0,1-5.851.032s-.809-.055-8.732-1.278a43.981,43.981,0,0,1-8.823-14.864,28.569,28.569,0,0,1-1.188-6l20.873-10.224h7.527c3.407,5.679,7.379,11.36,10.791,17.039l-7.242,12.781Z" fill="#feee60"/>
      </g>
      <path id="Caminho_1801-3" data-name="Caminho 1801-3" d="M224.4,536.937a.151.151,0,0,1,.051-.016h.716a.086.086,0,0,0,.051-.016l.165-.107v-.007l.233-.152h0l.2-.125a.086.086,0,0,1,.06-.016.09.09,0,0,1,.068.041.087.087,0,0,1,.016.052l.006.515v.2a.092.092,0,0,0,.015.051l.042.064.352.533a.1.1,0,0,1-.025.125.08.08,0,0,1-.052.016h-.713a.085.085,0,0,0-.051.016l-.136.088-.233.153-.229.154a.1.1,0,0,1-.125-.03.093.093,0,0,1-.017-.048l-.009-.715a.074.074,0,0,0-.015-.05l-.394-.6A.1.1,0,0,1,224.4,536.937Z" fill="#fff"/>
      <path id="Caminho_1801-4" data-name="Caminho 1801-4" d="M198.171,546.883a.061.061,0,0,1,.027,0l.231.01.141.006h.013a.044.044,0,0,0,.028-.006l.092-.053h0l.126-.075h0l.108-.061a.038.038,0,0,1,.033,0,.042.042,0,0,1,.035.024.032.032,0,0,1,.007.027l-.012.278v.107a.048.048,0,0,0,0,.029l.02.035.174.3a.052.052,0,0,1-.018.068.045.045,0,0,1-.028,0h-.385a.066.066,0,0,0-.028,0l-.076.044-.125.075-.126.075a.048.048,0,0,1-.066-.017h0a.053.053,0,0,1-.008-.027l.016-.385a.032.032,0,0,0-.007-.027l-.193-.335a.054.054,0,0,1,0-.076A.048.048,0,0,1,198.171,546.883Z" fill="#fff"/>
      <path id="Caminho_1801-5" data-name="Caminho 1801-5" d="M190.743,527.122a.062.062,0,0,1,.027-.006l.232.01h.154a.044.044,0,0,0,.028,0l.092-.053h0L191.4,527h0l.107-.061a.047.047,0,0,1,.033,0,.044.044,0,0,1,.036.024.043.043,0,0,1,.006.027l-.011.278v.107a.034.034,0,0,0,0,.028l.021.036.173.3a.051.051,0,0,1-.018.068.052.052,0,0,1-.027.007h-.214l-.141-.007h-.03a.044.044,0,0,0-.029.007l-.076.043-.125.075-.126.075a.049.049,0,0,1-.067-.018.061.061,0,0,1-.008-.026l.016-.386a.033.033,0,0,0-.006-.027l-.194-.334a.054.054,0,0,1,0-.075A.061.061,0,0,1,190.743,527.122Z" fill="#fff"/>
      <path id="Caminho_1801-6" data-name="Caminho 1801-6" d="M225.469,531.823a.387.387,0,0,1,.125-.039l1.056-.008h.707a.21.21,0,0,0,.125-.038l.409-.261.008-.019.573-.375v-.009l.479-.307a.213.213,0,0,1,.149-.036.219.219,0,0,1,.168.1.2.2,0,0,1,.037.125l.013,1.27v.5a.2.2,0,0,0,.039.125l.1.159.864,1.316a.232.232,0,0,1-.064.316.2.2,0,0,1-.125.037h-.3l-.673.014-.646.006h-.135a.211.211,0,0,0-.125.039l-.337.217-.573.375-.563.375a.231.231,0,0,1-.313-.071.262.262,0,0,1-.042-.118l-.017-1.762a.206.206,0,0,0-.039-.125l-.966-1.474A.252.252,0,0,1,225.469,531.823Z" fill="#fff"/>
    </g>
    <path id="Elipse_30-4-2-2" data-name="Elipse 30-4-2-2" d="M-7417.94-5261.87a31.683,31.683,0,0,1,31.683,31.683,31.683,31.683,0,0,1-31.683,31.683,31.683,31.683,0,0,1-31.683-31.683A31.683,31.683,0,0,1-7417.94-5261.87Z" transform="translate(7597.863 5629.87)" fill="none" stroke="#ffc400" stroke-width="3.33"/>
  </g>
</svg>
