<svg xmlns="http://www.w3.org/2000/svg" width="57.098" height="50.36" viewBox="0 0 57.098 50.36">
  <g id="Grupo_1518" data-name="Grupo 1518" transform="translate(-21.819)">
    <g id="Grupo_1352" data-name="Grupo 1352" transform="translate(21.819 0)">
      <g id="Grupo_1351" data-name="Grupo 1351" transform="translate(0 0)">
        <path id="Caminho_2133" data-name="Caminho 2133" d="M-3623.56-3122.537a17.491,17.491,0,0,0,4.394-1.154c.85-.368,1.077-.6,5.116-4.183a37.932,37.932,0,0,0,5.071-4.965c.572-.71,1.007-1.324,1.293-1.74q3.484,1.077,6.967,2.158c-3.552,3.505-10.157,8.82-19.26,9.753A33.391,33.391,0,0,1-3623.56-3122.537Z" transform="translate(3649.51 3172.896)" fill="#da8e2a"/>
        <path id="Caminho_2134" data-name="Caminho 2134" d="M-3588.578-3136.527l-9.305,16.423s-8.21,12.042-15.875,12.042a44.858,44.858,0,0,1-14.084-2.4,37.253,37.253,0,0,1-9.316-13.611,37.643,37.643,0,0,1-1.779-21.21l26.822-13.138" transform="translate(3639.708 3158.422)" fill="#fdcd4a"/>
        <path id="Caminho_2135" data-name="Caminho 2135" d="M-3596.688-3134.726l-5.966-1.8-13.868-21.9,11.86,4.744Z" transform="translate(3653.785 3158.422)" fill="#b87824"/>
        <path id="Caminho_2136" data-name="Caminho 2136" d="M-3606.716-3126.217l-6.967-2.158,9.305-16.423,5.967,1.8a55.866,55.866,0,0,1-4.325,10.448A55.832,55.832,0,0,1-3606.716-3126.217Z" transform="translate(3655.509 3166.693)" fill="#c07415"/>
        <path id="Caminho_2137" data-name="Caminho 2137" d="M-3598.175-3120.1a29.7,29.7,0,0,1-9.451,3.241,40.32,40.32,0,0,1-7.518.042s-1.04-.071-11.221-1.643c0,0-8.032-8.53-11.338-19.1a36.7,36.7,0,0,1-1.527-7.72l26.822-13.138h9.672c4.377,7.3,9.486,14.6,13.866,21.9-5.665,10-9.305,16.421-9.305,16.423Z" transform="translate(3640 3158.422)" fill="#feee60"/>
      </g>
      <path id="Caminho_1801" data-name="Caminho 1801" d="M-3610.65-3141.433a.189.189,0,0,1,.066-.021l.551-.006.337,0,.031,0a.107.107,0,0,0,.066-.021l.212-.136,0-.01.3-.194,0,0,.251-.159a.107.107,0,0,1,.077-.021.113.113,0,0,1,.087.052.109.109,0,0,1,.021.066l.008.663,0,.257a.124.124,0,0,0,.019.065l.055.082.452.685a.122.122,0,0,1-.032.165.11.11,0,0,1-.066.021h-.159l-.35.008-.337,0,0,0-.067,0a.1.1,0,0,0-.066.021l-.176.112-.3.2-.294.2a.121.121,0,0,1-.163-.039.112.112,0,0,1-.022-.061l-.012-.919a.1.1,0,0,0-.019-.064l-.506-.769A.129.129,0,0,1-3610.65-3141.433Z" transform="translate(3657.319 3168.384)" fill="#fff"/>
      <path id="Caminho_1801-2" data-name="Caminho 1801" d="M-3631.626-3133.6a.093.093,0,0,1,.035-.008l.3.012.179.008h.018a.05.05,0,0,0,.036-.008l.119-.067,0,0,.166-.1h0l.14-.079a.056.056,0,0,1,.042-.008.053.053,0,0,1,.044.031.047.047,0,0,1,.01.035l-.016.357,0,.138a.057.057,0,0,0,.008.037l.026.045.223.383a.067.067,0,0,1-.023.089.063.063,0,0,1-.037.008l-.085,0-.188-.007-.182-.008h0l-.037,0a.059.059,0,0,0-.035.008l-.1.056-.166.1-.164.1a.063.063,0,0,1-.087-.023.069.069,0,0,1-.01-.034l.021-.5a.043.043,0,0,0-.01-.035l-.247-.429A.069.069,0,0,1-3631.626-3133.6Z" transform="translate(3644.596 3173.336)" fill="#fff"/>
      <path id="Caminho_1801-3" data-name="Caminho 1801" d="M-3637.565-3149.408a.082.082,0,0,1,.035-.008l.3.012.182.008h.016a.058.058,0,0,0,.037-.008l.118-.067,0,0,.167-.1v0l.138-.079a.054.054,0,0,1,.042-.008.058.058,0,0,1,.046.03.055.055,0,0,1,.008.035l-.014.357-.006.138a.052.052,0,0,0,.008.036l.027.046.222.383a.066.066,0,0,1-.023.088.059.059,0,0,1-.036.008l-.085-.005-.189-.006-.182-.008h-.039a.058.058,0,0,0-.037.008l-.1.056-.165.1-.164.1a.065.065,0,0,1-.087-.024.068.068,0,0,1-.01-.034l.021-.495a.049.049,0,0,0-.008-.035l-.249-.429A.068.068,0,0,1-3637.565-3149.408Z" transform="translate(3640.991 3163.74)" fill="#fff"/>
      <path id="Caminho_1801-4" data-name="Caminho 1801" d="M-3609.764-3145.208a.479.479,0,0,1,.162-.05l1.356-.012.831-.008.077,0a.26.26,0,0,0,.161-.049l.525-.335.012-.025.736-.477.006-.012.615-.394a.271.271,0,0,1,.191-.046.281.281,0,0,1,.215.129.26.26,0,0,1,.048.161l.016,1.631.006.635a.259.259,0,0,0,.05.161l.13.2,1.111,1.69a.3.3,0,0,1-.082.406.267.267,0,0,1-.163.048h-.39l-.865.018-.831.008-.01-.006-.167,0a.261.261,0,0,0-.161.05l-.434.278-.736.479-.723.484a.3.3,0,0,1-.4-.092.316.316,0,0,1-.054-.152l-.023-2.264a.262.262,0,0,0-.05-.161l-1.24-1.9A.316.316,0,0,1-3609.764-3145.208Z" transform="translate(3657.812 3165.587)" fill="#fff"/>
    </g>
  </g>
</svg>
