<svg xmlns="http://www.w3.org/2000/svg" width="61.017" height="47.238" viewBox="0 0 61.017 47.238">
  <g id="Grupo_1518" data-name="Grupo 1518" transform="translate(63.945 -1275.772)">
    <g id="Grupo_1352" data-name="Grupo 1352">
      <g id="Grupo_1351" data-name="Grupo 1351">
        <path id="Caminho_2133" data-name="Caminho 2133" d="M-34.221,1307.112a10.868,10.868,0,0,0,2.734-.718c.529-.229.67-.373,3.184-2.6a23.607,23.607,0,0,0,3.155-3.089c.356-.442.627-.824.8-1.083l4.335,1.343A20.363,20.363,0,0,1-32,1307.034,20.678,20.678,0,0,1-34.221,1307.112Z" fill="#8c8c8c"/>
        <path id="Caminho_2134" data-name="Caminho 2134" d="M-18.553,1289.4l-5.79,10.219s-5.109,7.493-9.878,7.493a27.923,27.923,0,0,1-8.764-1.494,23.176,23.176,0,0,1-5.8-8.469,23.424,23.424,0,0,1-1.107-13.2l16.69-8.175" fill="#cacaca"/>
        <path id="Caminho_2135" data-name="Caminho 2135" d="M-14.84,1290.52l-3.712-1.12-8.629-13.625,7.38,2.952Z" fill="#636363"/>
        <path id="Caminho_2136" data-name="Caminho 2136" d="M-20.008,1300.962l-4.335-1.343,5.79-10.219,3.713,1.12a34.739,34.739,0,0,1-2.691,6.5A34.635,34.635,0,0,1-20.008,1300.962Z" fill="#656565"/>
        <path id="Caminho_2137" data-name="Caminho 2137" d="M-24.343,1299.619a18.483,18.483,0,0,1-5.881,2.017,25.121,25.121,0,0,1-4.678.026s-.647-.044-6.982-1.022a35.16,35.16,0,0,1-7.055-11.885,22.838,22.838,0,0,1-.95-4.8l16.69-8.175h6.018c2.724,4.541,5.9,9.083,8.628,13.624l-5.79,10.219Z" fill="#e8e8e8"/>
      </g>
      <path id="Caminho_1801-3" data-name="Caminho 1801-3" d="M-21.329,1292.546a.123.123,0,0,1,.041-.013h.572a.067.067,0,0,0,.041-.013l.132-.085v-.006l.186-.121h0l.156-.1a.065.065,0,0,1,.048-.013.07.07,0,0,1,.054.033.067.067,0,0,1,.013.041l.005.412v.16a.075.075,0,0,0,.012.041l.034.051.281.426a.076.076,0,0,1-.02.1.067.067,0,0,1-.041.013h-.57a.06.06,0,0,0-.041.013l-.109.07-.186.122-.183.123a.075.075,0,0,1-.1-.024.073.073,0,0,1-.014-.038l-.007-.572a.072.072,0,0,0-.012-.04l-.315-.478A.079.079,0,0,1-21.329,1292.546Z" fill="#fff"/>
      <path id="Caminho_1801-4" data-name="Caminho 1801-4" d="M-42.3,1300.5a.04.04,0,0,1,.022,0l.185.008.112.005h.011a.034.034,0,0,0,.022-.005l.074-.042h0l.1-.06h0l.087-.049a.029.029,0,0,1,.026,0,.034.034,0,0,1,.028.019.028.028,0,0,1,.006.022l-.01.222v.086a.045.045,0,0,0,0,.023l.016.028.139.238a.043.043,0,0,1-.014.055.043.043,0,0,1-.023,0h-.308a.042.042,0,0,0-.022,0l-.061.035-.1.06-.1.06a.039.039,0,0,1-.053-.014h0a.039.039,0,0,1-.006-.021l.013-.308a.028.028,0,0,0-.006-.022l-.154-.267a.044.044,0,0,1,0-.061A.041.041,0,0,1-42.3,1300.5Z" fill="#fff"/>
      <path id="Caminho_1801-5" data-name="Caminho 1801-5" d="M-48.237,1284.7a.054.054,0,0,1,.022-.005l.185.008h.123a.031.031,0,0,0,.023,0l.073-.042h0l.1-.06h0l.086-.049a.038.038,0,0,1,.026,0,.036.036,0,0,1,.029.019.034.034,0,0,1,.005.022l-.009.222v.086a.028.028,0,0,0,0,.022l.017.029.138.238a.041.041,0,0,1-.014.055.043.043,0,0,1-.022.005h-.171l-.113-.005h-.024a.036.036,0,0,0-.023.005l-.061.035-.1.06-.1.06a.04.04,0,0,1-.054-.015.042.042,0,0,1-.006-.021l.013-.308a.033.033,0,0,0,0-.022l-.155-.267a.043.043,0,0,1,0-.06A.037.037,0,0,1-48.237,1284.7Z" fill="#fff"/>
      <path id="Caminho_1801-6" data-name="Caminho 1801-6" d="M-20.471,1288.457a.292.292,0,0,1,.1-.031l.844-.007h.565a.161.161,0,0,0,.1-.03l.327-.209.007-.015.458-.3v-.007l.383-.245a.163.163,0,0,1,.119-.029.174.174,0,0,1,.134.08.156.156,0,0,1,.03.1l.01,1.015v.4a.163.163,0,0,0,.031.1l.081.127.691,1.052a.185.185,0,0,1-.051.253.169.169,0,0,1-.1.03h-.243l-.538.011-.517,0h-.107a.17.17,0,0,0-.1.032l-.27.173-.458.3-.45.3a.185.185,0,0,1-.25-.057.2.2,0,0,1-.034-.094l-.014-1.409a.163.163,0,0,0-.031-.1l-.772-1.179A.2.2,0,0,1-20.471,1288.457Z" fill="#fff"/>
    </g>
    <g id="Grupo_1355" data-name="Grupo 1355">
      <g id="Caminho_260-4" data-name="Caminho 260-4">
        <path id="Caminho_2138" data-name="Caminho 2138" d="M-18.53,1311.07v6.709q2.355-.129,4.645-.29,2.635-.181,5.189-.4c1.051-.085,2.088-.179,3.119-.276a2.86,2.86,0,0,0,2.557-2.392c.165-1.006-1.509-2.011-1.466-3.215.054-1.684,1.735-3.326,1.542-4.67a2.844,2.844,0,0,0-3.094-2.414q-2.055.192-4.163.369c-1.023.085-2.057,0-3.08.124a5.218,5.218,0,0,0-2.82,1.328,7.06,7.06,0,0,0-1.719,2.129,6.176,6.176,0,0,0-.368.867A6.54,6.54,0,0,0-18.53,1311.07Z" fill="#ededed"/>
      </g>
      <g id="Caminho_260-5" data-name="Caminho 260-5">
        <path id="Caminho_2139" data-name="Caminho 2139" d="M-48.344,1312.059v6.709q-2.355-.129-4.646-.29-2.634-.181-5.19-.4c-1.051-.086-2.088-.179-3.117-.276a2.859,2.859,0,0,1-2.557-2.392c-.165-1.005,1.509-2.011,1.466-3.215-.053-1.683-1.734-3.325-1.542-4.669a2.843,2.843,0,0,1,3.093-2.414q2.055.192,4.163.368c1.023.085,2.057,0,3.078.126a5.189,5.189,0,0,1,2.82,1.327,7.044,7.044,0,0,1,1.72,2.128,6.3,6.3,0,0,1,.368.867A6.512,6.512,0,0,1-48.344,1312.059Z" fill="#ededed"/>
      </g>
      <g id="Caminho_260-6" data-name="Caminho 260-6">
        <path id="Caminho_261-2" data-name="Caminho 261-2" d="M-10.577,1319.1c-.132,1.3-.834,2.3-1.7,2.418a150.686,150.686,0,0,1-20.869,1.492,150.866,150.866,0,0,1-21.435-1.495c-.862-.122-1.559-1.1-1.7-2.391-.108-1.006-.188-2.119-.214-3.324a39.044,39.044,0,0,1,.166-4.563c.144-1.5,1.053-2.557,2.053-2.415a147.632,147.632,0,0,0,21.016,1.484,147.816,147.816,0,0,0,20.678-1.48c1.019-.146,1.923.955,2.058,2.483a41.328,41.328,0,0,1,.15,4.479C-10.4,1316.985-10.475,1318.093-10.577,1319.1Z" fill="#f2f2f2"/>
      </g>
      <g id="Grupo_1354" data-name="Grupo 1354">
        <g id="Grupo_1353" data-name="Grupo 1353">
          <path id="Caminho_2140" data-name="Caminho 2140" d="M-41.963,1319.776a2.955,2.955,0,0,1-1.492-.407,2.586,2.586,0,0,1-.981-1.066,3.325,3.325,0,0,1-.323-1.582,3.3,3.3,0,0,1,.393-1.568,2.576,2.576,0,0,1,1.022-1.019,2.96,2.96,0,0,1,1.513-.337,2.97,2.97,0,0,1,1.5.4,2.569,2.569,0,0,1,.981,1.062,3.294,3.294,0,0,1,.323,1.575,3.316,3.316,0,0,1-.393,1.572,2.588,2.588,0,0,1-1.026,1.025A2.958,2.958,0,0,1-41.963,1319.776Zm.024-1.085a1.376,1.376,0,0,0,1.141-.481,2.178,2.178,0,0,0,.438-1.394,2.174,2.174,0,0,0-.372-1.411,1.383,1.383,0,0,0-1.125-.522,1.368,1.368,0,0,0-1.133.474,2.163,2.163,0,0,0-.438,1.393,2.172,2.172,0,0,0,.377,1.41,1.36,1.36,0,0,0,1.113.531Z" fill="#9a9a9a"/>
          <path id="Caminho_2141" data-name="Caminho 2141" d="M-35.642,1319.862a2.577,2.577,0,0,1-1.877-.642,2.525,2.525,0,0,1-.637-1.887l.013-2.8a.663.663,0,0,1,.166-.481.64.64,0,0,1,.479-.167.569.569,0,0,1,.634.5.59.59,0,0,1,0,.157l-.013,2.806a1.56,1.56,0,0,0,.315,1.066,1.181,1.181,0,0,0,.928.362q1.242.006,1.248-1.417l.013-2.8a.567.567,0,0,1,.477-.646.558.558,0,0,1,.158,0,.607.607,0,0,1,.465.172.667.667,0,0,1,.157.482l-.012,2.8a2.558,2.558,0,0,1-.642,1.881A2.534,2.534,0,0,1-35.642,1319.862Z" fill="#9a9a9a"/>
          <path id="Caminho_2142" data-name="Caminho 2142" d="M-31.413,1319.844a.62.62,0,0,1-.479-.168.673.673,0,0,1-.169-.483l-.047-4.564a.573.573,0,0,1,.478-.654.6.6,0,0,1,.164,0l2-.021a2.183,2.183,0,0,1,1.5.452,1.666,1.666,0,0,1,.54,1.3,1.727,1.727,0,0,1-.322,1.086,1.668,1.668,0,0,1-.944.6,1.247,1.247,0,0,1,.721.627l.52.941a.653.653,0,0,1,.071.579c-.068.178-.24.27-.515.272a.773.773,0,0,1-.445-.111.914.914,0,0,1-.3-.35l-.8-1.448a.687.687,0,0,0-.307-.31,1.067,1.067,0,0,0-.428-.077l-.625.006.017,1.661a.688.688,0,0,1-.155.487A.618.618,0,0,1-31.413,1319.844Zm.6-3.247,1.144-.012c.685-.008,1.025-.284,1.02-.833s-.352-.81-1.038-.8l-1.143.012Z" fill="#9a9a9a"/>
          <path id="Caminho_2143" data-name="Caminho 2143" d="M-23.676,1319.736a2.94,2.94,0,0,1-1.511-.334,2.6,2.6,0,0,1-1.03-1.018,3.3,3.3,0,0,1-.4-1.565,3.294,3.294,0,0,1,.316-1.584,2.573,2.573,0,0,1,.973-1.066,2.96,2.96,0,0,1,1.494-.408,2.991,2.991,0,0,1,1.519.329,2.586,2.586,0,0,1,1.031,1.014,3.289,3.289,0,0,1,.4,1.558,3.344,3.344,0,0,1-.317,1.588,2.592,2.592,0,0,1-.975,1.074A2.953,2.953,0,0,1-23.676,1319.736Zm-.029-1.085a1.37,1.37,0,0,0,1.117-.535,2.173,2.173,0,0,0,.371-1.413,2.174,2.174,0,0,0-.439-1.39,1.378,1.378,0,0,0-1.148-.468,1.376,1.376,0,0,0-1.11.526,2.166,2.166,0,0,0-.37,1.412,2.168,2.168,0,0,0,.444,1.392,1.36,1.36,0,0,0,1.135.476Z" fill="#9a9a9a"/>
        </g>
      </g>
    </g>
  </g>
</svg>
