<svg xmlns="http://www.w3.org/2000/svg" xmlns:xlink="http://www.w3.org/1999/xlink" width="46.625" height="62.431" viewBox="0 0 46.625 62.431">
  <defs>
    <linearGradient id="linear-gradient" x1="0.157" y1="0.251" x2="0.933" y2="0.83" gradientUnits="objectBoundingBox">
      <stop offset="0.307" stop-color="#e29abd"/>
      <stop offset="0.98" stop-color="#00a874"/>
    </linearGradient>
    <linearGradient id="linear-gradient-2" x1="-0.07" y1="0.055" x2="1.07" y2="0.945" gradientUnits="objectBoundingBox">
      <stop offset="0.307" stop-color="#d9abbe"/>
      <stop offset="0.98" stop-color="#00a874"/>
    </linearGradient>
    <linearGradient id="linear-gradient-3" x1="0.123" y1="0.282" x2="0.895" y2="0.859" gradientUnits="objectBoundingBox">
      <stop offset="0.307" stop-color="#d47da3"/>
      <stop offset="0.98" stop-color="#00a874"/>
    </linearGradient>
  </defs>
  <g id="Grupo_2002" data-name="Grupo 2002" transform="translate(0 0)">
    <path id="Caminho_1802" data-name="Caminho 1802" d="M-3297.955-3151.7v.016a.176.176,0,0,1-.032.083l-.665,1a.124.124,0,0,0-.018.084l-.016,1.181a.166.166,0,0,1-.166.165.16.16,0,0,1-.083-.034l-.966-.632v-.016l-.032-.018a.126.126,0,0,0-.083-.016l-1.132-.032h-.048c-.084,0-.167-.067-.151-.151v-.016a.108.108,0,0,1,.016-.068l.017-.032.632-.948.016-.016a.269.269,0,0,0,.034-.083l.016-1.2a.149.149,0,0,1,.149-.149.126.126,0,0,1,.084.016l1,.666c.034.016.05.032.083.032l1.2.017a.149.149,0,0,1,.149.148Z" transform="translate(3335.573 3174.037)" fill="#fff"/>
    <g id="Grupo_1377" data-name="Grupo 1377" transform="translate(9.344 12.515)">
      <path id="Caminho_2209" data-name="Caminho 2209" d="M-3288.921-3135.884c0-.083-.018-.149-.018-.233-.016-.134-.034-.265-.05-.383s-.032-.217-.05-.333c-.03-.251-.082-.514-.134-.765a21.409,21.409,0,0,0-1.613-4.873c-.116-.282-.265-.565-.4-.848-.283-.6-.582-1.164-.914-1.73-.164-.282-.331-.581-.514-.88-.215-.368-.432-.717-.648-1.048-.059-.093-.121-.185-.179-.278-.429-.636-.879-1.276-1.358-1.929v-.025l-.01-.013.382-.683a.339.339,0,0,1,.15-.149l.084-.05.914-.5,1.5-.815a.607.607,0,0,0,.148-.149.4.4,0,0,0-.148-.5l-2.5-1.364a.332.332,0,0,1-.15-.149l-1.365-2.494a.385.385,0,0,0-.149-.134.37.37,0,0,0-.5.134l-.514.964-.534.964-.315.566a.332.332,0,0,1-.149.149l-.18.1.007.006h-.016c-.124-.15-.251-.292-.38-.432-.064-.067-.13-.138-.2-.2a3.213,3.213,0,0,0-.316-.366l-.731-.781c-.317-.315-.617-.632-.916-.948l-.411-.412c-.4-.4-.765-.731-1.048-1.013l-.367-.333-.331-.317v-.016l-.717.63c-.7.633-1.729,1.582-2.91,2.795a6.345,6.345,0,0,0-.448.482,5.83,5.83,0,0,0-.466.466c-.315.333-.632.682-.948,1.029l-.749.848c-.582.681-1.18,1.413-1.763,2.158a6.489,6.489,0,0,0-.411.566,3.487,3.487,0,0,0-.216.3c-.1.118-.183.233-.267.351-.165.216-.315.433-.466.666a6.4,6.4,0,0,0-.465.681c-.117.165-.217.333-.316.5a.685.685,0,0,0-.132.183l-.052.1c-.032.016-.032.049-.048.083a3.8,3.8,0,0,0-.217.349,1.034,1.034,0,0,0-.118.167c-.231.4-.466.815-.681,1.215a2.628,2.628,0,0,0-.167.282c-.182.365-.381.72-.532,1.081-.016.016-.016.034-.032.067-.034.083-.083.166-.117.249-.365.8-.664,1.58-.926,2.345-.016.034-.016.066-.032.1a1.293,1.293,0,0,0-.068.249l-.05.151a4.045,4.045,0,0,0-.133.464,3.321,3.321,0,0,0-.116.432c0,.034-.017.068-.017.1-.051.217-.1.411-.135.617a9.852,9.852,0,0,0-.165.982c0,.05-.018.1-.018.149v.083a5.376,5.376,0,0,0-.064.881c0,.1-.018.2-.018.3,0,.118-.017.217-.017.316v1.029a17.807,17.807,0,0,0,.72,3.15c.188.515.526,1.257.8,1.946.084.211.179.416.283.617l-.134.249a.034.034,0,0,1-.032.034l-.665.349-.016.017c-.017.016-.035.034-.035.05l-.006.013a.089.089,0,0,0,.042.12l.2.1.482.265c.016.017.032.034.032.05l.383.665c0,.016.017.034.034.05a.1.1,0,0,0,.133-.05l.349-.632a16.385,16.385,0,0,0,2.378,2.895l.532.532,1.014.813a12.669,12.669,0,0,0,2.962,1.749l.349.151h.016a6.388,6.388,0,0,0,.617.215,7.1,7.1,0,0,0,.866.251,8.838,8.838,0,0,0,1.763.315,1.869,1.869,0,0,0,.315.032l.6.068v-.032l.582-.035a3.258,3.258,0,0,0,.411-.016,7.726,7.726,0,0,0,.882-.1,8.4,8.4,0,0,0,.947-.149,16.552,16.552,0,0,0,1.781-.5,13.266,13.266,0,0,0,1.779-.766c.233-.116.45-.231.666-.365a11.763,11.763,0,0,0,1.315-.867l.531-.365-.017-.034.068-.066a9.087,9.087,0,0,0,.948-.848,6.393,6.393,0,0,0,.564-.632,15.783,15.783,0,0,0,1.646-2.279,13.878,13.878,0,0,0,1.4-3.41c.062-.231.116-.448.165-.681.046-.251.1-.514.149-.765a12.333,12.333,0,0,0,.166-2.111v-.1c0-.267-.016-.532-.032-.8Zm-16.643,14.541a12.315,12.315,0,0,0,1.763.316A8.752,8.752,0,0,1-3305.563-3121.344Zm12.572-3.725a9.64,9.64,0,0,1-.948.849l.5-.45h0a14.341,14.341,0,0,0,1.012-1.031A6.844,6.844,0,0,1-3292.991-3125.069Zm3.926-7.767a14.749,14.749,0,0,0,.148-2.113h.018A12.76,12.76,0,0,1-3289.065-3132.836Zm.148-2.213-.016-.8c.016.265.034.532.034.8Z" transform="translate(3316.831 3158.146)" fill="url(#linear-gradient)"/>
    </g>
    <g id="Grupo_997" data-name="Grupo 997" transform="translate(0)">
      <path id="Caminho_1793" data-name="Caminho 1793" d="M-3299.315-3165.933l-.017,12.489-.72.633c-.7.632-1.729,1.58-2.91,2.793a6.391,6.391,0,0,0-.449.482c-.162.148-.318.3-.464.466-.317.334-.633.683-.948,1.028l-.749.849c-.582.682-1.181,1.413-1.763,2.16a6.25,6.25,0,0,0-.412.565,3.134,3.134,0,0,0-.215.3,3.961,3.961,0,0,0-.267.35c-.167.216-.316.43-.466.665a5.931,5.931,0,0,0-.466.681c-.116.166-.216.333-.315.5a.691.691,0,0,0-.133.183l-.05.1c-.034.016-.034.05-.05.083a3.607,3.607,0,0,0-.217.349,1.056,1.056,0,0,0-.116.167c-.233.4-.466.813-.683,1.213a2.69,2.69,0,0,0-.165.283c-.182.365-.382.72-.532,1.082-.016.016-.016.032-.034.066-.034.083-.082.165-.116.249a24.578,24.578,0,0,0-.926,2.344c-.018.034-.018.068-.034.1a1.275,1.275,0,0,0-.066.251l-.051.149a3.928,3.928,0,0,0-.132.464,3.078,3.078,0,0,0-.117.434c0,.032-.016.066-.016.1-.05.216-.1.412-.134.617a9.014,9.014,0,0,0-.165.982c0,.05-.018.1-.018.149v.083a5.225,5.225,0,0,0-.066.88c0,.1-.016.2-.016.3,0,.116-.018.217-.018.317v1.027h-9.314l.134-1.146c1.629-13.883,15.549-27.859,21.471-33.216Z" transform="translate(3322.645 3165.933)" fill="#f7dae8"/>
    </g>
    <path id="Caminho_1795" data-name="Caminho 1795" d="M-3305.549-3155.552c.2.2.383.412.564.632h.018C-3305.15-3155.137-3305.349-3155.353-3305.549-3155.552Zm3.907,4.739v.034c.55.747,1.064,1.478,1.547,2.211q-.749-1.172-1.547-2.245Z" transform="translate(3333.024 3172.235)" fill="url(#linear-gradient-2)"/>
    <path id="Caminho_1796" data-name="Caminho 1796" d="M-3276.261-3130.359l-.132-.88h.016l-.283-1.263c-3.028-13.456-15.6-26.693-20.876-31.749l-1.749-1.679-.016,12.49v.016l.331.316.366.332c.283.283.649.617,1.048,1.015l.411.411c.3.316.6.633.916.948l.731.781a3.283,3.283,0,0,1,.317.366c.2.2.4.411.581.632l.183-.1a.328.328,0,0,0,.149-.149l.315-.565.534-.964.514-.964a.37.37,0,0,1,.5-.134.381.381,0,0,1,.149.134l1.365,2.494a.328.328,0,0,0,.149.149l2.5,1.365a.4.4,0,0,1,.148.5.648.648,0,0,1-.148.151l-1.5.813-.914.5-.083.05a.339.339,0,0,0-.149.149l-.383.683q.8,1.072,1.548,2.245c.215.331.432.679.647,1.047.183.3.351.6.514.881.333.566.632,1.132.915,1.729.134.283.282.566.4.849a21.474,21.474,0,0,1,1.614,4.873c.05.251.1.515.134.765.016.117.034.217.05.334s.034.248.05.381c0,.084.017.149.017.233l.016.282c.016.267.032.532.032.8v.1a12.433,12.433,0,0,1-.166,2.112c-.05.251-.1.514-.15.765-.05.233-.1.45-.165.682a13.93,13.93,0,0,1-1.4,3.41,15.677,15.677,0,0,1-1.646,2.279,6.647,6.647,0,0,1-.564.632,9.211,9.211,0,0,1-.948.849l-.068.065.018.034-.532.365a11.607,11.607,0,0,1-1.314.866c-.215.133-.432.249-.666.365a13.069,13.069,0,0,1-1.779.767,16.626,16.626,0,0,1-1.78.5,8.586,8.586,0,0,1-.947.149,7.669,7.669,0,0,1-.883.1,3.563,3.563,0,0,1-.411.018l-.582.034v.032l-.6-.065a2.1,2.1,0,0,1-.315-.034,8.88,8.88,0,0,1-1.765-.315,7.407,7.407,0,0,1-.865-.251q-.313-.092-.617-.215h-.016l-.349-.151a12.628,12.628,0,0,1-2.962-1.748l-1.013-.813-.532-.532a16.354,16.354,0,0,1-2.378-2.894l-.349.631a.1.1,0,0,1-.133.05c-.018-.016-.034-.034-.034-.05l-.383-.665c0-.016-.016-.032-.032-.05l-.483-.265-.2-.1a.093.093,0,0,1-.042-.121l.008-.012c0-.016.017-.034.034-.05l.017-.018.666-.349a.035.035,0,0,0,.032-.034l.134-.249a6.646,6.646,0,0,1-.283-.617c-.273-.689-.612-1.432-.8-1.946a17.722,17.722,0,0,1-.72-3.15c-3.077,0-6.247-.01-9.324-.01l-.018,1.014a19.9,19.9,0,0,0,.068,2.179,27.775,27.775,0,0,0,8.781,16.964l1.048.964.016-.016.6.482a20.99,20.99,0,0,0,11.709,4.8l1.131.1v-.034l1.08-.05a23.037,23.037,0,0,0,12.125-4.113l.7-.484.016.017,1.048-.882a23.133,23.133,0,0,0,8.3-17.811A25.064,25.064,0,0,0-3276.261-3130.359Zm-8.765-13.221a.176.176,0,0,1-.032.083l-.665,1a.125.125,0,0,0-.018.084l-.016,1.181a.166.166,0,0,1-.166.165.16.16,0,0,1-.083-.034l-.966-.632v-.016l-.032-.018a.126.126,0,0,0-.083-.016l-1.132-.032h-.048c-.084,0-.167-.067-.151-.151v-.016a.108.108,0,0,1,.016-.068l.017-.032.632-.948.016-.016a.269.269,0,0,0,.034-.083l.016-1.2a.149.149,0,0,1,.149-.149.126.126,0,0,1,.084.016l1,.666c.034.016.05.032.083.032l1.2.017a.149.149,0,0,1,.149.148h0Z" transform="translate(3322.645 3165.934)" fill="url(#linear-gradient-3)"/>
    <path id="Caminho_1803" data-name="Caminho 1803" d="M-3313.824-3139.048l-.034.034-.681.365-.05.05-.017.034-.349.631a.1.1,0,0,1-.133.052c-.016-.018-.032-.035-.032-.052l-.383-.665c0-.016-.017-.032-.034-.048l-.482-.267-.2-.1a.091.091,0,0,1-.042-.121l.008-.012c0-.017.018-.034.034-.05l.016-.016.666-.351a.036.036,0,0,0,.034-.032l.132-.251.017-.032.233-.4a.086.086,0,0,1,.114-.043l.017.011a.034.034,0,0,1,.034.032l.366.683c.017.016.034.032.05.032l.681.366A.153.153,0,0,1-3313.824-3139.048Z" transform="translate(3326.515 3181.475)" fill="#fff"/>
    <path id="Caminho_1801" data-name="Caminho 1801" d="M-3297.738-3152.282a.654.654,0,0,1-.149.151l-1.5.813-.913.5-.083.05a.329.329,0,0,0-.151.151l-.383.682v.032l-.532.964v.018l-.448.8a.348.348,0,0,1-.183.166.355.355,0,0,1-.317-.016.327.327,0,0,1-.147-.15l-.982-1.8-.383-.7a.336.336,0,0,0-.15-.15l-.267-.149-2.229-1.213a.378.378,0,0,1-.15-.5.34.34,0,0,1,.15-.15l.432-.233.948-.532.916-.5h.016l.183-.1a.325.325,0,0,0,.15-.149l.315-.564.532-.966.514-.964a.373.373,0,0,1,.5-.133.386.386,0,0,1,.15.133l1.365,2.5a.32.32,0,0,0,.149.147l2.5,1.365A.4.4,0,0,1-3297.738-3152.282Z" transform="translate(3332.298 3171.373)" fill="#fff"/>
  </g>
</svg>
