<svg xmlns="http://www.w3.org/2000/svg" width="201.868" height="248.689" viewBox="0 0 201.868 248.689"><defs><style>.a{fill:#165425;opacity:0.09;}</style></defs><path class="a" d="M457.693,610.565a3.984,3.984,0,0,1-1.195,1.042,13.326,13.326,0,0,1-5.119,1.416c-.2.108-.406.208-.609.314.018.077.04.153.053.235-2.271.762-3.505,2.566-6.6,2.506a34.35,34.35,0,0,1-10.479,1.728c-.14.047-.274.127-.414.161l-.005.105c-12.866,4.808-30.463-.557-43-2.5-2.527-3.8-2.735-9.93-5-14.005-.045-8.588-3.036-16.487-4-25.492-1.7-15.886,2.218-31.173,11-36.991,12.4-5.235,21.446-13.831,29.551-23.369V494.184a5.173,5.173,0,0,1-4.054,2.917c-1.688-3.1.976-8.079,4.054-9.983V476.212c-1.965,5.689-3.674,11.624-7.05,15.891.269,1.933-.892,2.437-.5,4.494-7.348,10.368-13.082,24.782-22.5,32.993-2.616,2.284-6.027,5.2-10,5-1.488-2.1.332-4.455.5-6.494-.227-1.783-2.395-1.614-3.505-2.5-3.571-5.2-.971-11.871,0-19.5.849-6.673-1.437-15.126-2-21.989-.005-.05-.011-.092-.016-.142-.557-2.627-1.039-5.254-1.335-7.9-1.253-3.977-3.558-6.742-8.153-7.957-7.95-2.1-10.123,11.616-10,17.5.332,15.722,6.662,27.032,6.971,41.053.01.084.04.164.042.251a2.905,2.905,0,0,1,.063.707c.095.586.161,1.174.237,1.762l-.14-1.052c.119.891.319,1.772.375,2.672.011.177-.039.346-.045.522a13.383,13.383,0,0,1-.506,5.08l-.026-.008a4.459,4.459,0,0,1-.282,2.121c3.505,10.566,2.527,27.654,4.808,41.364,1.052,6.325,4.914,17.614.5,25-15.121-5.75-24.735-23.508-30-40.491-.723-2.318-2.442-4.376-2-7-.657-1.345-1.343-2.656-2-4-3.263-25.9-4.679-53.639-22.5-64.983-12.238,3.7-8.084,21.786-4.5,31.99,1.179,4.922,6.8,7.728,6,13-10.806-3.909-23.7-11.539-30.5-19.491a70.2,70.2,0,0,1-6.048-8.408c.021-.026.021-.066.045-.09-.077-.058-.148-.132-.224-.2v.008c-1.751-1.4-2.991-3.893-3.893-4.531.9.628,2.136,3.12,3.893,4.523-1.994-3.194-3.875-6.494-5.824-9.74.01-.024.037-.034.045-.063h-.082c-.744-1.234-1.5-2.464-2.279-3.669v7.359a9.4,9.4,0,0,1,.865,3.307,2.062,2.062,0,0,1-.865.4v23.1c5.681,6.224,12,11.167,18.067,13.211a3.476,3.476,0,0,1,2.266,1.372l.029-.087c6.966.206,12.272,2.065,18.5,3l0,.026a3.549,3.549,0,0,1,1.379.4,4.487,4.487,0,0,1,.615.082c.111.016.235.013.34.037a3.354,3.354,0,0,1,.628-.095,3.817,3.817,0,0,1,2.026.549l.008-.005c5.565,1.337,2.645,10.062,3.5,16,.338,2.342,1.54,4.252,2,5.995,6.053,23.287,17.611,41.9,36,53,2.7-.039,4.758.58,6,1.994.076.029.15.061.224.095a3.735,3.735,0,0,1,1.4.4l0,0c.462.111.913.261,1.372.377.7.177,1.406.335,2.1.517a5.359,5.359,0,0,0,4.906-.889c5.544,3.793,5.085,13.586,8.5,19.5,3.276,24.555,13.85,47.08,9.5,75.006h4c.047-1.783.235-3.439,1.5-4.009,2.089.087,1.875,2.461,2.5,4.009h15.5c-9.374-16.355-14.87-41.57-19-63.5-1.015-5.386-4.61-13.378-2.5-17.508-2.2-.786-2.287-7.343.5-7.491a257.942,257.942,0,0,0,30.5,1.991c7.949.016,16.242,1.617,23,0,3.774-.891,10.278-4.2,14.5-6.5,5.729-3.11,8.978-8.306,12.006-13.507C468.655,606.962,462.053,608.621,457.693,610.565ZM417.321,503.6c-.385,4.283-1.374,7.963-5.5,8.5a3.522,3.522,0,0,0-1.5-1C411.12,507.335,413.6,502.8,417.321,503.6Zm-9.5,16.994c-1.116,4.062-2.173,8.163-7.5,8C398.842,524.094,404.3,520.143,407.823,520.594Zm-13,12.5c-1.62,4.046-5,6.325-9,7.992-.488-.675-1.685-.644-2-1.5C385.586,535.81,390.576,532.74,394.82,533.1Zm-124.259-38.65c.258.63-.506,1.182.586,1.187C270.052,495.627,270.817,495.081,270.561,494.445Zm3.26,27.145c3.437.736,5.446,2.891,5.5,7.005C274.707,529.295,273.2,524.49,273.821,521.591Zm4.5-4c-3.79-.375-3.474-4.861-4.5-7.994C277.619,507.992,282.633,515.519,278.321,517.595Zm6,5.5c3.534.135,4.972,2.363,5.5,5.5C286.046,530.7,283.656,525.484,284.318,523.094Zm13.5,13.5a5.888,5.888,0,0,1-5.5-7.008c3.294.206,4.729,2.266,6.494,4C299.06,535.161,298.107,535.549,297.82,536.6Zm14.5,3.49c-3.814,2.951-9.16-1.968-7.5-6,3.437.235,5.235,2.1,7.5,3.5Zm25,30c-4.534,2.1-7.024-1.91-6-7C335.267,563.472,336.249,566.824,337.319,570.084Zm-6-14.5c-1.05.287-1.435,1.245-3,1-.016-.483-.612-.385-1-.5-.28-1.962-1.44-6.4.506-7.5C329.486,550.422,331.546,551.856,331.324,555.581Zm-4.5-24.484c-3.838.393-4.853-4.341-3.5-7.5C326.279,524.307,328.908,528.375,326.822,531.1Zm-5.5-22c3.355-.116,6.589,7.765.5,7C320.743,514.681,319.39,510.484,321.326,509.1Zm-12.507-5.5c2.392-1.134,6.151,4.091,3.5,6.5C308.956,510.453,307.323,506.443,308.818,503.6Zm2.432,12.642c.069-.026.135-.055.2-.074h-.005a3.571,3.571,0,0,1,3.7.936,3.638,3.638,0,0,0-3.7-.936,6.273,6.273,0,0,1,4.368,5.926C312.432,523.347,309.309,519.117,311.25,516.242Zm5.069-13.137c-2.883-.736-5.457-5.578-3-8.5,2.74,1.1,3.761,3.9,5.5,5.995C318.907,502.35,317.061,502.168,316.319,503.1Zm2.5,30.988c3.073-.849,8.3,8.741,1,8.5C318.688,540.882,317.728,536.371,318.817,534.093Zm2,28.994c.219-2.292-.5-5.507.506-7.005,2.951,1.219,4.713,3.621,5.5,7.005C325.224,564.727,322.283,564.931,320.819,563.087Zm7.5,17.993c-1.2.2-1.084-.918-2.5-.5-.583-2.258-2.358-6.335-.506-7.992C328.209,573.3,330.857,578.081,328.32,581.08Zm7,11.5c-4.212.783-5.476-3.711-5-5.995C333.785,586.7,337,588.871,335.32,592.577Zm0-14.5c3.112-.216,6.14,3.36,6.5,7.5-.741.256-1.263.736-2,1C336.948,585.115,335.2,582.539,335.32,578.081Zm9.5,28.493c-4.5,0-5.512-3.489-6.5-7,3.875-1.912,4.41,3.5,7.493,4.006C346.216,605.306,345.261,605.688,344.82,606.574Zm13.5,7c-4.215,1.348-8.316-.345-9-5C352.068,608.584,359.25,608.241,358.319,613.572Zm1.5-6.5c4.067.106,6.2,2.139,9.5,3C368.967,618.512,359.369,612.48,359.823,607.07Zm20.5-6.494c-5.81.6-5.359-5.365-4-9.495h1.5C379.3,593.35,382.447,597.865,380.322,600.577Zm-1-49.488c-.588-.084-.894.1-1,.5-3.859.525-5.486-8.018,0-7C379.377,545.882,380.509,549.145,379.325,551.089Zm-.5-13c-5.053,2.487-6.792-4.61-5.5-8.5h1C377.331,530.914,378.2,534.388,378.821,538.094Zm-4.5-30.994c-1.464.132-1.535-1.129-3-1-.578-1.622-.936-5.433,0-6.992h1C375.345,499.5,376.2,504.8,374.319,507.1Zm0-12.5c-4.2.77-4.035-5.159-3-8C375.11,486.678,376.115,491.861,374.319,494.6Zm-5.5-20.494c2.814.317,6.111,6.918,2,7.994C368.018,481.788,368.041,476.373,368.819,474.11Zm-4.5,1.994c.712,1.757,2.907,5.5,0,6.507C360.445,482.906,360.445,475.806,364.32,476.1Zm-2,14.5c3.028.3,3.545,3.115,4,5.992-.744.261-1.263.746-2,1C361.611,497.5,361.294,492.821,362.323,490.605Zm3,10.993c1.96,1.211,3.012,3.323,3.5,6.006a3.8,3.8,0,0,1-3.5,1C364.3,507.528,363.389,502.474,365.322,501.6Zm3,14c.411,2.585,3.191,2.806,3,5.99-.446.229-.889.448-1,1.007C366.564,523.419,364.57,516.2,368.318,515.6Zm2,18.492a16.013,16.013,0,0,0,2.5,6.5c-.833.836-1.306,2.018-3,2C367,541.517,365.889,534.335,370.32,534.093Zm-1,12.992c2.487,1.677,3.835,4.494,4.5,8-1.646.026-2.487.847-4.5.5C368.682,553.581,368.4,549.05,369.32,547.085Zm4.5,12c1.324,2.843,2.384,5.953,3.5,9-.483.013-.385.609-.5,1-.836.839-2.936.393-4.5.5C370.6,568.138,368.825,558.266,373.823,559.083Zm-.5,16.49c2.192,1.432,5.275,5.774,3,8.506C372.586,584.2,371.5,577.865,373.319,575.573Zm2.508,31.5c3.7.963,3.437,5.892,6,8.005.237,1.567-1.343,1.319-1.5,2.5C374.271,618.855,373.728,610.778,375.827,607.07Zm2,20c4,.673,5.623,3.714,6.5,7.509C379.522,636.618,377.644,631.655,377.824,627.068Zm17.5,79.513c-4.484-.348-4.051-4.1-3-8h2.5C396.12,700.367,396.991,704.724,395.321,706.581Zm5.5-1.509c3.943.4,3.392,5.28,5.5,7.5C403.1,719.943,396.706,709.612,400.823,705.073Zm-3.5-12.995c-4.856,3.3-8.129-7.082-2-6.507C395.743,688.293,398.383,689.234,397.323,692.078Zm-4.5-14.008c-5.874.4-5.323-5.38-4.5-9.5C392.37,668.857,394.87,674.894,392.821,678.069Zm-6-16.495c-.016-.488-.617-.4-1-.5-.625-1.872-.923-6.182,0-8,2.508,1.163,3.59,3.742,4,6.995C389.015,660.765,388.59,661.846,386.826,661.575Zm2.492-13.494c-.8,1.023-2.5,1.15-4.5.989-2.266-1.538-2.537-10.408,2-7.994C387.456,643.608,388.493,645.739,389.318,648.081Zm-4.5-22c-.644-1.018-2.424-.913-2-3,2.577-1.422,3.7-4.3,7.005-5C391.486,622.173,387.889,625.061,384.821,626.079Zm12,0a3.816,3.816,0,0,1-1-3.508c2.366-.506,3.985-3.144,6.5-2C402.358,624.28,400.077,625.67,396.819,626.079Zm8,2c-.266-1.77-1.466-2.242-.5-4,3.012.359,4.241-3.223,7.005-1.5C410.727,625.976,408.58,627.838,404.821,628.078Zm15.5,0c-1.838-.164-4.426.425-5.5-.506.332-3.339,3.384-3.948,7-4C422.314,626.063,420.8,626.556,420.32,628.078Zm7.005-3.5c3.635.029,5.861-5.172,9-2.5C436.261,625.815,427.942,631.955,427.325,624.575Zm14.5-1c-.179-2.777,4.948-4.315,8-5.5C451.748,622.178,445.426,626.662,441.823,623.573Zm13-3c-.129-1.706-1.266-2.4-1-4.492,2.6-.994,5.241-4.3,8.5-3.009C461.249,617.006,458.954,619.7,454.826,620.572Z" transform="translate(-269.456 -467.891)"/></svg>