<svg xmlns="http://www.w3.org/2000/svg" xmlns:xlink="http://www.w3.org/1999/xlink" width="170.995" height="194.422" viewBox="0 0 170.995 194.422"><defs><style>.a{fill:none;}.b{clip-path:url(#a);}.c{fill:#7da7b8;}.d{fill:#91c2d8;}.e{fill:#98a20f;}.f{fill:#a2d3e6;}.g{fill:#8e9209;}.h{fill:#e3c002;}.i{fill:#91931b;}.j{fill:#775623;}.k{fill:#f3b88d;}.l{fill:#181110;}.m{fill:#6a4b21;}.n{fill:#f2ca01;}.o{fill:#a2aa0e;}.p{fill:#6d331a;}.q{fill:#c9c9c8;}.r{fill:#dedede;}.s{fill:#ed9e69;}.t{fill:#f1ca00;}.u{fill:#f2c900;}.v{fill:#6191a4;}.w{fill:#d6af03;}.x{fill:#9ca510;}.y{fill:#f1ca02;}.z{fill:#e9a06a;}.aa{fill:#e6a270;}.ab{fill:#e6a569;}.ac{fill:#e5a06d;}.ad{fill:#e0a872;}.ae{fill:#e8a167;}.af{fill:#c0bcb7;}.ag{fill:#c8c968;}.ah{fill:#c8c669;}.ai{fill:#bdcb6c;}.aj{fill:#b2c982;}.ak{fill:#a2b210;}.al{fill:#b7e3ec;}.am{fill:#97a10f;}.an{fill:#aaba10;}.ao{fill:#a7d5db;}.ap{fill:#065263;}.aq{fill:#00607b;}.ar{fill:#bbb9ba;}.as{fill:#a9d4de;}.at{fill:#c2c373;}.au{fill:#c2be6a;}.av{fill:#b6c377;}.aw{fill:#bcc170;}.ax{fill:#c1c160;}.ay{fill:#fefefe;}.az{fill:#acbe12;}.ba{fill:#acbe11;}.bb{fill:#babab9;}.bc{fill:#bbbbb1;}.bd{fill:#afb267;}.be{fill:#2c1f15;}.bf{fill:#5f411c;}.bg{fill:#dfa67c;}.bh{fill:#cac6c3;}.bi{fill:#e0dfde;}.bj{fill:#e99f6a;}.bk{fill:#ea9f68;}.bl{fill:#f3b88e;}.bm{fill:#eda779;}.bn{fill:#e89f6a;}.bo{fill:#f5da5e;}.bp{fill:#c88359;}.bq{fill:#eca36d;}.br{fill:#eda570;}.bs{fill:#e79f6a;}.bt{fill:#d7ae03;}.bu{fill:#f0cc0f;}.bv{fill:#f7d95d;}.bw{fill:#d0c854;}.bx{fill:#cbc961;}.by{fill:#bdc67b;}.bz{fill:#d6ae02;}.ca{fill:#d9e8f0;}.cb{fill:#d7e8f0;}.cc{fill:#bab9b8;}.cd{fill:#bdbaad;}.ce{fill:#dfdfdf;}.cf{fill:#f3b88f;}.cg{fill:#dedfe1;}.ch{fill:#705e57;}.ci{fill:#f2e5de;}.cj{fill:#cab8a9;}.ck{fill:#ca8353;}.cl{fill:#ac312c;}.cm{fill:#e1d7ce;}.cn{fill:#1e1b25;}.co{fill:#e3a277;}.cp{fill:#a8ab5b;}.cq{fill:#f3f4f1;}.cr{fill:#69471a;}.cs{fill:#838318;}.ct{fill:#7a7914;}.cu{fill:#e0d6cf;}.cv{fill:#c88358;}.cw{fill:#201a24;}.cx{fill:#53463f;}.cy{fill:#ed9f69;}.cz{fill:#7ca8b8;}.da{fill:#ec9b75;}.db{fill:#f9c6a3;}.dc{fill:#5b8c94;}.dd{fill:#528b91;}.de{fill:#eca069;}.df{fill:#ffcca9;}</style><clipPath id="a"><rect class="a" width="170.995" height="194.422"/></clipPath></defs><g class="b" transform="translate(0 0)"><path class="c" d="M211.14,521.556a25.805,25.805,0,0,1,5.4,2.338c.379.229,1.371.848,1.742.535.225-.189.133-.644.09-.843-.9-4.2-2.56-9.823-2.56-9.823-.4-1.428-.735-2.893-1.053-4.353-.422-1.94-.995-3.846-1.482-5.772-.31-1.227-.617-2.457-.862-3.7-.28-1.421-.852-2.76-1.008-4.211l-.267.026Z" transform="translate(-107.278 -371.599)"/><path class="d" d="M238.075,475.545l2.65-5.282s.009.219.026.682c-.043.71-.088,1.73-.089,2.958,0,1.321.051,2.325.084,2.951.143,2.729.354,5.455.579,8.179q.2,2.358.347,4.718c.145,2.285.428,4.555.635,6.831.26,2.852.473,5.712.827,8.558a8.615,8.615,0,0,0,1.185,3.716,1.882,1.882,0,0,0,.723.706h65.852a.93.93,0,0,0,.157-.837,5.193,5.193,0,0,1-.206-1.56c.149-2.217-.474-4.386-.36-6.6a13.041,13.041,0,0,1-.317-3.765,8.93,8.93,0,0,1-.32-2.5,1.844,1.844,0,0,0-.088-.626,2.742,2.742,0,0,1-.339-.972.444.444,0,0,0-.152-.165,1.166,1.166,0,0,1-.935-.631,13.231,13.231,0,0,0-2.288-.85c-1.435-.518-2.82-1.157-4.212-1.778a2.449,2.449,0,0,0-.962-.331c-.467.074-.743-.246-1.046-.509-1.073-.565-2-1.357-3.049-1.96a1.264,1.264,0,0,1-.967-.49.733.733,0,0,0-.171-.115,1.693,1.693,0,0,1-.889-.652,40.574,40.574,0,0,0-3.844-2.978c-.791-.6-1.5-1.3-2.293-1.906-1.636-1.259-3.259-2.547-4.8-3.91a24.466,24.466,0,0,1-4.193-4.367,1.6,1.6,0,0,0-.2-.246,20.668,20.668,0,0,1-4.043-5.547,5.312,5.312,0,0,0-1.8-.114c-1.182-.018-2.364,0-3.546-.006a2.118,2.118,0,0,1-1.072-.2c-.781-.437-1.533-.964-1.494-1.952a2.217,2.217,0,0,1,1.553-1.9c.306-.194.519-.5.811-.705.257-.25.588-.181.894-.195a.888.888,0,0,0,.964-.737c-.008-.025-.02-.064-.034-.112-.08-.268-.106-.392-.118-.426-.046-.124-.343-.225-1.478-.1a18.666,18.666,0,0,1-3.205-.827,1.326,1.326,0,0,1-.279-.145c-.587-.417-1.171-.84-1.032-1.7a2.139,2.139,0,0,1,1.569-1.582c.256-.06.523-.05.778-.119a9.962,9.962,0,0,1,3.128-.689c.935-.087,1.183-.363,1.037-1.364a1.081,1.081,0,0,0-.158-.786c-.363-.482-1.171-.34-2.079-.337a16.806,16.806,0,0,1-3.524-.769A2.152,2.152,0,0,1,265,448.546a.963.963,0,0,1,.6-.482,7.5,7.5,0,0,1,1.9-.482,9.223,9.223,0,0,1,3.129-.273,14.05,14.05,0,0,0,2.755-.1.521.521,0,0,0,.066-.918,13.5,13.5,0,0,0-1.173-.977,2.372,2.372,0,0,1-1-2.976,1.168,1.168,0,0,1,1.11-.745c.474-.012.947,0,1.421,0a20.02,20.02,0,0,0,3.381-.073.607.607,0,0,0,.192-.113,2.268,2.268,0,0,1,.691-.943c.967-1.151,1.989-2.257,2.908-3.449a.834.834,0,0,1,.6-.854,6.312,6.312,0,0,0,.938-1.034.728.728,0,0,1,.549-.646c2.264-2.191,4.435-4.474,6.685-6.679a1.275,1.275,0,0,1,.924-.918c1.611-1.5,3.336-2.858,5.085-4.2a19.4,19.4,0,0,0,2.48-2.054,12.876,12.876,0,0,1,1.991-1.525,2.038,2.038,0,0,0,.718-.705,1.735,1.735,0,0,1,1.225-.609,13.888,13.888,0,0,0,2.357-1.678c1.36-.995,2.876-1.722,4.243-2.69a2.391,2.391,0,0,0,.384-.273c.128-.135.26-.278.192-.483a.442.442,0,0,0-.442-.271,9.565,9.565,0,0,0-2.824.03c-.907.218-1.822.164-2.716.345-.165.043-.337.093-.515.151s-.343.117-.5.177c-2.362,1.282-4.623,2.736-6.952,4.072-3.955,2.27-7.738,4.822-11.707,7.067a23.643,23.643,0,0,0-1.988,1.287,48.273,48.273,0,0,1-11.628,5.641,8.758,8.758,0,0,1-3.669.844,8.214,8.214,0,0,1-1.769-.345,3.138,3.138,0,0,1-2.274-3.085,8.179,8.179,0,0,1,1.012-4.712,1.429,1.429,0,0,0,.217-.668.941.941,0,0,0-.027-.244,5.715,5.715,0,0,0-2.338-1.436c-.772-.516-1.544-.021-2.264.107a8.817,8.817,0,0,0-2.8.971,1.783,1.783,0,0,0-.708.495,1.749,1.749,0,0,0-.3.483,9.6,9.6,0,0,0-1.988,2.577l-.671.578a42.329,42.329,0,0,0-2.429,4.158c-.158.312-.278.562-.338.689a.861.861,0,0,0-.369.9,7.384,7.384,0,0,0-1.023,1.916,4.063,4.063,0,0,1-.878,1.936,9.7,9.7,0,0,0-1.1,2.048,25.311,25.311,0,0,0-1.382,3.273,8.056,8.056,0,0,1-.324,1.4c-.387,1.033-.931,1.522-.8,1.677.19.216,1.517-.446,1.989-.682a1.768,1.768,0,0,1,.8-.233,1.315,1.315,0,0,1,.888.281,1.52,1.52,0,0,1,.438.96,2.6,2.6,0,0,1-1.488,2.77,7.653,7.653,0,0,0-1.086.627c-.17.149-.524.234-.314.6a2.451,2.451,0,0,0,1.7.057c.432-.118.869-.2,1.3-.3a1.692,1.692,0,0,1,.97-.259,3.246,3.246,0,0,0,1.236-.192,2.058,2.058,0,0,1,2.635,1.254,1.807,1.807,0,0,1-.807,2.048,5.376,5.376,0,0,1-1.322.692,2.912,2.912,0,0,0-1.017.591c-.224.313-.611.236-.909.375a.387.387,0,0,0-.153.186.581.581,0,0,0,.115.6.922.922,0,0,0,.492.145c.644.091,1.325-.183,1.937.2.472.4,1.21.455,1.354,1.278a2.064,2.064,0,0,1-.753,2.08,5.008,5.008,0,0,1-1.75.876c-.3.043-.664.189-.683.558-.019.386.357.483.646.593,1.016.387,1.415.87,1.385,1.708a2.383,2.383,0,0,1-1.611,2.047c-1.857.561-3.7,1.168-5.568,1.695a1.957,1.957,0,0,0-.964.523,7.442,7.442,0,0,1-3.474,1.938,1.642,1.642,0,0,0-.928.559,45.445,45.445,0,0,0-.978,5.624c-.017.151-.436.653-.27,1.141a1,1,0,0,0,.4.487" transform="translate(-208.3 -314.512)"/><path class="e" d="M141.671,700.027a34.179,34.179,0,0,0,1.437-9.02c.082-.51-.237-.347-.453-.243a14.11,14.11,0,0,1-3.777,1.1c-2.277.4-4.562.76-6.843,1.145-2.8.473-5.6.93-8.4,1.418a24.3,24.3,0,0,1-4.615.549,21.662,21.662,0,0,1-4.475-.3,2.02,2.02,0,0,0-.382-.066,5.865,5.865,0,0,1-2.208-.563c-.84-.36-1.719-.624-2.541-1.027a.333.333,0,0,0-.465.167c-1.157,2.395-3.363,3.852-5.107,5.722-.29.311-.726.573-.483,1.119Z" transform="translate(2.079 -504.977)"/><path class="f" d="M452.53,635.173a10.125,10.125,0,0,1-1.774-5.269c-.267-2.389-.359-4.792-.7-7.178-.195-1.36-.246-2.759-.361-4.141-.252-3.051-.5-6.1-.694-9.16-.224-3.588-.392-5.4-.453-6.42q-.179-2.992-.292-5.987c-.014-.381-.022-.763-.041-1.143-.16,1.009-.171,2.067-.252,3.085-.181,2.275-.4,5.081-.561,7.228-.212,2.854-.378,5.712-.521,8.567-.159,3.156-.051,6.326-.046,9.49a50.637,50.637,0,0,0,1.264,10.93Z" transform="translate(-415.79 -440.123)"/><path class="g" d="M212.579,686.571a5.123,5.123,0,0,1,1.9-2.235,26.848,26.848,0,0,0,3.426-3.644c.262-.346.241-.847.657-1.087a1.55,1.55,0,0,0,.572-1.3c-.014-.573.015-1.147-.019-1.719a1.358,1.358,0,0,0-.043-.254c-.118-.489-.322-.95-.455-1.435a6.43,6.43,0,0,0-4.007-3.112,14.739,14.739,0,0,0-5.447-.774.935.935,0,0,0-.664.2,6.242,6.242,0,0,0,.3,2.578,3.379,3.379,0,0,0,1.442.325,6.085,6.085,0,0,1,4.091,2.1,2.347,2.347,0,0,1,.592,2.464c-.586.513-.691,1.315-1.187,1.9-1.155,1.37-2.4,2.653-3.638,3.943a1.106,1.106,0,0,0-.37,1.258q0,.4.01.794Z" transform="translate(-107.137 -491.521)"/><path class="h" d="M110.607,488.626a4.053,4.053,0,0,0,1.518.3,35.741,35.741,0,0,0,9.976-.87c2.359-.468,4.75-.769,7.124-1.163q3.25-.538,6.494-1.116a8.687,8.687,0,0,0,3.317-1.1c.194-.126.206.026.245.146a3.392,3.392,0,0,1,1.287-.861,11.115,11.115,0,0,0,5.094-6.279,12.971,12.971,0,0,0,.4-4.7c-.263-6.655-.236-13.318-.464-19.973-.143-4.162-.027-8.326-.223-12.481-.278-5.894-.113-11.8-.4-17.686-.2-4.106-.073-8.211-.209-12.314-.056-1.691-.128-3.381-.185-5.072-.05-1.482.112-3.277-.085-5.9-.025-.333-.049-.605-.066-.782-.137-.018-.38-.048-.682-.082-3.3-.372-4.779.094-7.477-.63a3.271,3.271,0,0,0-.771-.154c-1.975-.3-3.936-.682-5.9-1.039-2.3-.419-4.606-.81-6.912-1.2-2.517-.426-5.019-.931-7.525-1.415-1.545-.3-3.122-.449-4.664-.787-2.031-.445-4.094-.713-6.132-1.135-1.541-.319-3.109-.552-4.671-.782A23.426,23.426,0,0,1,96.99,391c-2.389-.327-4.746-.839-7.125-1.216a14.732,14.732,0,0,0-4.134-.417,1.171,1.171,0,0,0-.365.076,1.115,1.115,0,0,1-1.32.062.509.509,0,0,0-.319-.01.811.811,0,0,1-1.052-.039.766.766,0,0,0-.363-.019c-.445.167-.7.443-.523.948.184.538.013,1.341.969,1.309,2.179.359,4.315.918,6.475,1.368,3.5.731,6.988,1.543,10.5,2.241,2.452.488,4.881,1.09,7.334,1.577,1.393.277,2.786.549,4.175.847,1.034.222,1.033.383,1,1.407-.08,2.5-.576,4.962-.595,7.467a17.7,17.7,0,0,0-.154,3.123c-.113.374.217.66.2,1.015a1.05,1.05,0,0,0,.092.316c.22.3.545.528.615.928a1.031,1.031,0,0,0,.1.184,2.968,2.968,0,0,1,.5,1.255c.261.407.163.984.614,1.3.448.351.384.957.684,1.382a.937.937,0,0,0,.125.188c.538.42.377,1.049.478,1.6a43.192,43.192,0,0,1,.885,4.27c.03.37.05.758.566.78.274-.019.368-.241.514-.426a14.615,14.615,0,0,1,2.645-2.638.949.949,0,0,0,.494-.737,3.253,3.253,0,0,0,.006-.7,1.233,1.233,0,0,1,.818-1.478,1.658,1.658,0,0,1,1.265-.267,19.886,19.886,0,0,1,3.731-.317c.207.02.418,0,.626.018,1.011.1,1.255.4,1.416,1.745.109.359.618.248.724.614a1.343,1.343,0,0,0,.336.258c.448.179.97.223,1.258.694.132.133.259.27.392.4a10.48,10.48,0,0,1,3.492,4.911,8.906,8.906,0,0,1-.622,6.715c-.151.306-.306.611-.468.913a.853.853,0,0,0,.229,1.032c.471.133.442.657.725.936a2.069,2.069,0,0,1,.581,1.261.886.886,0,0,0,.151.337,1.615,1.615,0,0,1,.429,1.216c0,.832.007,1.664-.006,2.5a6.5,6.5,0,0,0,.1,1.921c.187.308.482.259.77.229a8.032,8.032,0,0,0,1.677-.409c1.246-.41,1.259-.4,1.657.836.416,1.983,1.029,3.917,1.452,5.9.307,1.44.672,2.867.974,4.309.448,2.137.9,4.271,1.255,6.426.274,1.685.479,3.382.749,5.065a28.544,28.544,0,0,1,.2,5.364,3.826,3.826,0,0,1-1.511,3.016,16.108,16.108,0,0,1-5.365,2.586,40.4,40.4,0,0,1-4.454,1.07c-1.577.278-3.173.472-4.773.6a53.268,53.268,0,0,1-10.891-.19,5,5,0,0,1-2.331-.864.622.622,0,0,0-.512-.32,22.816,22.816,0,0,1-4.288-.681c-.427-.037-.894.169-1.265-.212a1.573,1.573,0,0,0-.8-.366.833.833,0,0,0-.626.126,5.079,5.079,0,0,0-.407,2.07,32.116,32.116,0,0,0-.122,5.5,9.92,9.92,0,0,0,2.994,5.767c.328.338.716.612,1.037.957" transform="translate(5.907 -298.79)"/><path class="i" d="M47.352,333.7a22.834,22.834,0,0,0,6.7.948,18.043,18.043,0,0,0,2.406-.279,18.713,18.713,0,0,0,9.214-4,19.7,19.7,0,0,0-.094-30.971,19.566,19.566,0,0,0-13.166-4.19c-.684.032-1.369.034-2.054.05a2.61,2.61,0,0,0-1.591.363,1.28,1.28,0,0,1-.513.2c-2.608.358-4.722,1.765-6.829,3.2a16.875,16.875,0,0,0-4.4,4.146c-4.35,6.128-4.4,15.037-.862,21.534a20.652,20.652,0,0,0,7.822,7.746,14.753,14.753,0,0,0,3.366,1.256" transform="translate(94.026 -234.38)"/><path class="j" d="M290.755,164.18a39.542,39.542,0,0,0-9.347-9.976,18.146,18.146,0,0,0-6.2-2.646,2.013,2.013,0,0,1-.825-.416,28.177,28.177,0,0,0-13.053-6.355,10.493,10.493,0,0,0-7.351,1.122c-.8.445-1.561.1-2.3.023a17.423,17.423,0,0,0-10.813,2.535,22.312,22.312,0,0,0-7.618,6.646,15.278,15.278,0,0,0-2.532,7.138,4.289,4.289,0,0,1-.285,1.761c.231.213.462.058.693,0,.413-.16.914-.055,1.262-.415a12.437,12.437,0,0,1,1.663-2.758,11.6,11.6,0,0,1,5.7-3.223,26.654,26.654,0,0,1,10.051-.3,48.409,48.409,0,0,1,8.694,1.954,63.3,63.3,0,0,1,12.575,5.325,57.675,57.675,0,0,1,7.263,5.176,63.634,63.634,0,0,1,4.895,4.362,21.355,21.355,0,0,1,3.471,4.188,2.163,2.163,0,0,0,.935,1.04,2.29,2.29,0,0,0,2.043-1.606,13.072,13.072,0,0,0,1.454-5.753c-.007-1.917-.03-3.834.018-5.751a16.154,16.154,0,0,0-.392-2.079" transform="translate(-186.091 -131.31)"/><path class="f" d="M491.435,588.244c-.505-.083-.182-.409-.15-.6.247-1.506.551-3,.766-4.513a7.626,7.626,0,0,0,.335-2.167,1.156,1.156,0,0,0-.885-.227c-.784-.013-1.569-.025-2.353,0a5.429,5.429,0,0,1-2.673-.461c-.559-.278-1.189-.111-1.774-.237a2.039,2.039,0,0,0-.666-.222,6.786,6.786,0,0,1-3.805-2.443.812.812,0,0,0-.8-.355c-.827.211-1.048,1.008-1.451,1.589-1.5,2.162-2.975,4.345-4.365,6.58-1.156,1.858-2.17,3.793-3.143,5.754a46.8,46.8,0,0,0-3.113,7.593c-.484,1.651-1.223,3.251-1.152,5.036.054-.386.2-.763-.118-1.113a6.671,6.671,0,0,0-.241,2.25,30.515,30.515,0,0,0,.32,6.679,11.857,11.857,0,0,0,1.818,4.649,2.852,2.852,0,0,0,3.759,1.235,49.684,49.684,0,0,0,4.757-2.049,21.43,21.43,0,0,0,6.024-5.235,33.584,33.584,0,0,0,4.028-7.258,65.875,65.875,0,0,0,2.6-6.984,52.919,52.919,0,0,0,1.646-6.07c.1-.538.582-.883.636-1.427" transform="translate(-461.661 -427.211)"/><path class="k" d="M260.286,220.616c.136.537-.194.979-.317,1.46-.187.732-.443,1.446-.67,2.167-.109.357.058.447.361.339a13.364,13.364,0,0,1,8.487-.278,1.769,1.769,0,0,1,1.542,1.82c-.078.734-.52,1.14-1.177.861a28.247,28.247,0,0,0-4.747-1.088c-1.2-.284-2.61-.545-3.792.381a1.17,1.17,0,0,1-.69.124c-.312.016-.642-.031-.889.233a12.755,12.755,0,0,0-.186,3.291c.025.008.053.029.075.024,2.712-.673,5.419,0,8.129.033,1.419.016,2.838.113,4.257.178,1.078.049,2.154.121,3.229.2.937.069,1.265.377,1.318,1.327.038.673.312,1.023.985,1.074,1.521.116,3.04.239,4.566.262.611.009.881-.295.969-.9.146-.992.473-1.292,1.451-1.293a13.252,13.252,0,0,1,3.069.077c1.865.045,3.724.2,5.591.245s3.73.084,5.587.292a1.415,1.415,0,0,1,1.309.86,1.1,1.1,0,0,0,1.327.711c1.386-.138,2.775-.24,4.164-.349,1.677-.132,3.343-.373,5.026-.441a2.728,2.728,0,0,0,1.366-.326,1.178,1.178,0,0,0,.168-.9c-.127-2.713-.165-5.431-.533-8.127a.845.845,0,0,0-.344-.753c-.921-.73-1.831-1.475-2.8-2.147a.777.777,0,0,0-.521-.137,5.361,5.361,0,0,0-1.328.491,18.606,18.606,0,0,1-14.446-.027,78.853,78.853,0,0,1-11.509-5.723c-.864-.507-1.8-.873-2.652-1.4a17.832,17.832,0,0,0-7.881-2.351,7.175,7.175,0,0,0-6.432,3.652,17.54,17.54,0,0,0-2.107,5.678.533.533,0,0,0,.043.456" transform="translate(-214.508 -176.654)"/><path class="d" d="M414.874,503.771c.017.381.035.761.054,1.178a.613.613,0,0,0,.284-.587,15.688,15.688,0,0,1,1.062-4.283,32.846,32.846,0,0,1,1.754-4.677q1.262-2.787,2.654-5.507c1.054-2.066,2.358-3.984,3.582-5.947.966-1.55,2.09-3,3.12-4.51.246-.361.389-.794.844-.965a.7.7,0,0,0-.091-.869c-.955-1.386-.962-2.947-1.038-4.559s.647-2.873,1.15-4.256a2.966,2.966,0,0,0,.126-.371,15.318,15.318,0,0,1,.979-3.632,3.214,3.214,0,0,0,.258-.658c.189-2.544,1.34-4.839,1.882-7.291a13.557,13.557,0,0,1,.35-1.693,2.221,2.221,0,0,1,3.728-.9,2.37,2.37,0,0,1,.724,2.26c-.254,1.846-.728,3.65-.938,5.5a1.152,1.152,0,0,0,.255.8,1.306,1.306,0,0,0,.8.426c1.341.288,2.792-.538,3.958-1.2l.006,0a1.36,1.36,0,0,0,.8-1.383.981.981,0,0,0,.114-.213,2.564,2.564,0,0,1,.323-.99,37.458,37.458,0,0,1,2.117-6.74c.588-1.545,1.284-3.044,1.93-4.564.956-2.251,2.343-4.279,3.264-6.542a1.309,1.309,0,0,1,.566-1.021,25.8,25.8,0,0,1,2.93-4.036,1.874,1.874,0,0,0,.295-.637.907.907,0,0,1,.64-.612,18.592,18.592,0,0,1,2.731-1.615,2.523,2.523,0,0,1,1.1-.321c.041,0,.081,0,.083-.01.12-.906-7.065-.466-7.782-.351a18.829,18.829,0,0,0-12.442,7.5,67.95,67.95,0,0,0-6.5,12.4c-1.585,3.78-3.142,7.572-4.62,11.393-1.468,3.794-2.826,7.63-4.159,11.476q-1.3,3.758-2.419,7.571c-.815,2.776-1.595,5.565-2.294,8.377-.485,1.95-.882,3.92-1.279,5.882a23.352,23.352,0,0,0-.736,5.108,6.081,6.081,0,0,1-.167,1.078" transform="translate(-410.45 -328.528)"/><path class="l" d="M375.72,216.633c.472-1.308.688-2.692,1.219-3.985a9.034,9.034,0,0,1,3.5-4.533,6.546,6.546,0,0,1,4.125-1.047,20.218,20.218,0,0,1,7.411,2.3c.1.045.207.092.287,0,.158-.178-.009-.3-.122-.376a5.777,5.777,0,0,0-1.286-.762c-1.042-.367-2.037-.845-3.078-1.219a34.557,34.557,0,0,0-5.66-1.6,21.355,21.355,0,0,0-7.2-.175l-.635.14a13.71,13.71,0,0,0-6.83,3.682,5.361,5.361,0,0,0-1.1,6.846c1.755,2.866,6.444,3.7,8.708,1.509a9.708,9.708,0,0,0,.658-.78" transform="translate(-329.942 -172.672)"/><path class="m" d="M213.07,206.7a.728.728,0,0,0-.122.788c.543,1.087.248,2.228.245,3.332,0,2.094.282,4.216-.306,6.274-.442,1.546-.731,3.178-2.081,4.3a1.163,1.163,0,0,1-.916.345c-.128.291.07.505.184.732,1,2,1.928,4.043,2.745,6.132.118.3.263.576-.009.863,0,.351.276.553.437.817a6.441,6.441,0,0,1,.86,3.077,2.728,2.728,0,0,0,.133,1.162c.333.328.678.151,1.022.022A6.65,6.65,0,0,0,219.1,230.7a15.837,15.837,0,0,0,.562-8.334c-.234-1.512-.623-2.992-.94-4.486a1.746,1.746,0,0,1,.059-1.155c-.577-.579-.7-1.411-1.142-2.067-.428-.95-.832-1.913-1.29-2.848a20.652,20.652,0,0,0-3.284-5.106" transform="translate(-108.405 -173.832)"/><path class="n" d="M403.573,405.253c-.314-.218-.37-1.592-1.02-1.26.011,2.553.1,5.769.281,8.317.047.657-.115,1.033-.906,1.018-.628-.011-1.255.013-1.882.044a9.96,9.96,0,0,0-3.965.88,10.952,10.952,0,0,0-3.595,3.525,36.539,36.539,0,0,0-3.349,5.51c-1.049,2.008-2.133,4-3.032,6.083-1.531,3.542-2.359,5.287-2.743,7.106-.1.493-.44,2.2-1.122,4.457-.125.414-.232.751-.3.968a6.481,6.481,0,0,0,1.936-1,1.735,1.735,0,0,0,1.015-.6c.165-.458.407-1.121.715-1.913a84.657,84.657,0,0,1,5.3-11.1,66.787,66.787,0,0,1,3.751-5.935,16.052,16.052,0,0,1,3.416-3.947c3.272-2.46,5.905-1.756,6.007-1.715a1.254,1.254,0,0,1,.179.092,1.119,1.119,0,0,1,.214.178,8.906,8.906,0,0,1,2.265,1.36,1.72,1.72,0,0,0,2.043-1.393,1.873,1.873,0,0,0,.025-.394,12.605,12.605,0,0,0-.438-3.253,12.839,12.839,0,0,0-1.7-3.674,24.864,24.864,0,0,0-1.58-2.163,4.387,4.387,0,0,0-1.509-1.193" transform="translate(-351.586 -308.793)"/><path class="o" d="M427.446,303.04c.265.007.425-.025.356-.387-.176-.915-.24-1.856-.467-2.757a8.215,8.215,0,0,1-.217-1.765,2.384,2.384,0,0,0,.015-1.4,44.654,44.654,0,0,1-.534-8.883c.062-1.65.146-3.3.265-4.954-.689-1.49-.385-3.076-.446-4.626a7.254,7.254,0,0,0-.036-1.016c-.049-.272-.071-.609-.508-.517a9.269,9.269,0,0,0-2.528,2.731,15.873,15.873,0,0,0-2.807,9.3,16.1,16.1,0,0,0,.832,4.823c.55,1.642,1.5,3.075,2.13,4.681a9.819,9.819,0,0,0,3.943,4.764" transform="translate(-382.788 -221.743)"/><path class="p" d="M183.1,229.859a7.435,7.435,0,0,0,.521,1.643c.125.379.4.224.638.247.29.163.564,0,.841-.048a2.583,2.583,0,0,1,3.045,1.26,10.67,10.67,0,0,1,1.514,4.447c.557,3.677-.457,5.157.45,8.491.105.386.206.695.269.881.494.049,1.021.118,1.576.214s1.1.213,1.588.336a38.4,38.4,0,0,0,.23-7.621,17.165,17.165,0,0,0-1.491-6.643,6.454,6.454,0,0,0-5.18-4.1,6.336,6.336,0,0,0-4,.894" transform="translate(-73.859 -189.035)"/><path class="q" d="M387.68,255.386a21.406,21.406,0,0,1,2.323-.362,18.457,18.457,0,0,1,3.354-.048l.077.007a13.778,13.778,0,0,1,3.883.88,1.578,1.578,0,0,0,1.267.125,1.1,1.1,0,0,0,.474-.469,1.9,1.9,0,0,0-.517-2.067,2.265,2.265,0,0,0-1.073-.607c-.082.205.05.35.146.5.144.226.3.46.106.72s-.472.207-.728.161a14.958,14.958,0,0,1-3.349-.832c-.29-.125-.628-.379-.858.118-.082.178-.273.125-.423.106a11.384,11.384,0,0,0-2.2.02,4.234,4.234,0,0,0-2.344.944,1.2,1.2,0,0,0-.138.8" transform="translate(-343.792 -205.405)"/><path class="r" d="M391.175,253.247a10.479,10.479,0,0,1,5.273-.412s3.945.771,4.659.255a.931.931,0,0,0,.27-.313.879.879,0,0,0,.074-.372,1.194,1.194,0,0,0-.625-.9,14.66,14.66,0,0,0-3.366-.592,14.812,14.812,0,0,0-5.519.741,9.893,9.893,0,0,0-.766,1.589" transform="translate(-347.149 -204.069)"/><path class="s" d="M235.771,320.583c.26.066.441.369.6.568a23.049,23.049,0,0,1,2.6,3.535,15.756,15.756,0,0,1,1.752,5.26,2.38,2.38,0,0,1-.5,2.231,2.244,2.244,0,0,1-1.07.4c-.122.021-.279.079-.267.2a.246.246,0,0,0,.058.119c.383.519.218.748.218,1.346a9.174,9.174,0,0,0-.508,3.1c.127,1.678,2.372,3.271,3.926,2.654,1.233-.489,2.544-.668,3.777-1.129,1.644-.614,3.316-1.149,4.962-1.767,3.335-1.252,6.224-3.274,9.249-5.067,2.013-1.194,4.031-2.378,6.068-3.533a52.781,52.781,0,0,0,4.7-2.738,7.039,7.039,0,0,1,1.3-.548c1.34-.6,1.858-.919,2.883-1.394.542-.251,1.337-.6,2.344-.948a1.147,1.147,0,0,1,.57-.307,1.1,1.1,0,0,1,.328-.017c-.217-.32-.558-.227-.86-.248a1.823,1.823,0,0,1-.848-.122,8.766,8.766,0,0,1-3.126-2.552,10.622,10.622,0,0,1-1.82-4.744.255.255,0,0,0,.014-.328,1.4,1.4,0,0,1-.152-2.187,51.372,51.372,0,0,0,6.2-8.933c1.081-1.964,1.957-4.018,2.848-6.067a1.835,1.835,0,0,0,.148-.531,3.007,3.007,0,0,1,1.186-2.65,15.673,15.673,0,0,0,3.992-5.447,8.587,8.587,0,0,0,.753-5.064,3.659,3.659,0,0,0-5.448-2.513c-.04-.351-.07-.709-.436-.87a1.341,1.341,0,0,0-1.336.192,2.258,2.258,0,0,0-.372,1.5,49.951,49.951,0,0,0,.008,5.923,35.359,35.359,0,0,1-.114,4.38,35.775,35.775,0,0,1-1.041,5.706,27,27,0,0,1-1.537,4.58,22.547,22.547,0,0,1-2.947,5.112c-.769.935-1.241,2.1-1.991,3.073a21.239,21.239,0,0,1-5.427,4.769,27.128,27.128,0,0,1-6.07,2.688,14.26,14.26,0,0,1-3.265.834c-1.21.117-2.155.921-3.237,1.375a26.218,26.218,0,0,1-8.8,2.2,6.677,6.677,0,0,1-4.57-1.1.942.942,0,0,0-.608-.123,5.3,5.3,0,0,1-3.463-.742c-.171-.13-.475-.075-.674-.074" transform="translate(-183.849 -224.121)"/><path class="t" d="M192.128,433.638c.245.168,1.769,1.186,2.4,1.533a11.232,11.232,0,0,1,1.119.641,11.535,11.535,0,0,0,1.913.938c.349.183.4-.092.466-.315a19.023,19.023,0,0,1,2.15-5.221c.276-.437.412-.953.895-1.236.531-.345.617-1,1-1.446,4.878-7.617,9.056-12.939,10.792-14.678,1.6-1.6,3.392-3.212,3.392-3.212.555-.479,1.11-.958,1.652-1.456.909-.835,1.96-1.5,2.8-2.4a1.228,1.228,0,0,1,.976-.562c1.383-1,2.951-1.684,4.393-2.585.567-.571,1.155-1.079,2.048-.721a.973.973,0,0,0,.187.1,1.462,1.462,0,0,1,1.02.615,20.52,20.52,0,0,1,3.867,3.161,1.444,1.444,0,0,1,.649.654c.673,1.019,1.218,2.116,1.893,3.134a.9.9,0,0,1,.573.906,7,7,0,0,0,1.084,1.8c.2.258.35.56.675.693.128-.028.3-.057.248-.228a7.683,7.683,0,0,1,.016-2.367c-.045-2.5.621-4.947.525-7.445a1.181,1.181,0,0,1,.006-.236c.352-2.157.276-1.727-1.61-2.177-2.307-.55-4.656-.915-6.97-1.455-3.054-.712-6.143-1.273-9.213-1.919-1.15-.242-2.285-.556-3.434-.806-1.045-.227-2.123-.331-3.144-.634a30.616,30.616,0,0,0-3.017-.814,5.468,5.468,0,0,1-1.537-.219,3.868,3.868,0,0,1-.645-.3,9,9,0,0,0,1.346,2.885,6.809,6.809,0,0,0,4.123,3.017,5.238,5.238,0,0,0,.83.078,49.139,49.139,0,0,0,6.179-.233c-2.631,1.661-5.157,3.134-7.464,4.925-.313.39-.825.422-1.213.678-.389.669-1.134.924-1.692,1.392-1.854,1.555-3.225,2.631-3.489,2.846-5.1,4.143-9.261,8.337-9.261,8.337-2,2.012-3.291,3.483-5.552,6.052a36.94,36.94,0,0,0-2.844,3.5,4.268,4.268,0,0,1-.65.907l-.009.012c-1.125.722-1.3,1.228-1.263,1.549.087.8,1.488.726,3.8,2.315" transform="translate(-120.676 -302.932)"/><path class="u" d="M203.7,585.049c-.341,0-.681-.013-1.022-.007a11.676,11.676,0,0,1-5.749-1.146,6.593,6.593,0,0,0-3.343-.4c-.205.822.466,1.294.825,1.838a35.708,35.708,0,0,0,2.7,3.5,49.306,49.306,0,0,0,4.369,4.5c1.649,1.49,3.419,2.833,5.146,4.229,2.072,1.673,4.129,3.364,6.312,4.894.3.236.653.388.932.65a6.022,6.022,0,0,1,.946.636c.861.575,1.728,1.141,2.579,1.731a1.488,1.488,0,0,0,.588.169c.336.182.649.4.976.6a3.528,3.528,0,0,1,1.258.5c1.964.873,3.967,1.644,5.987,2.374a1.68,1.68,0,0,0,.309.051c.228.36.65.39.982.58.276.268.034.691.289.966l.052.6a10.163,10.163,0,0,1,7.213,1.267,9.623,9.623,0,0,1,3.084,3.151v-.009s.037.228.111.683a.431.431,0,0,0,.013.148,4.459,4.459,0,0,1-.01,1.9,5.925,5.925,0,0,1-.164.645c-.1.3-.26.666-.26.666s.658.342,1,.5a9.649,9.649,0,0,0,1.614.525q1.144.344,2.294.666a.643.643,0,0,0,.261.036.222.222,0,0,0,.193-.157c.032-.155-.444-.4-.554-.491a8.563,8.563,0,0,1-.67-.609,9.361,9.361,0,0,1-1.1-1.342,14.015,14.015,0,0,1-1.523-3.091,4.669,4.669,0,0,1-.264-2.393,10.679,10.679,0,0,0,.116-2.508c-.063-1.244.323-2.437.329-3.667a.892.892,0,0,0-.346-.458c-.584-.342-1.27-.408-1.875-.7-.738-.151-1.4-.564-2.153-.651a4.22,4.22,0,0,1-1.574-.545,24.191,24.191,0,0,0-4.083-2.013,3.015,3.015,0,0,1-.715-.475,1.152,1.152,0,0,0-1.081-.321c-.364.342-.252.791-.218,1.192.052.62-.168.589-.619.375A69.96,69.96,0,0,1,216.255,598a44.847,44.847,0,0,1-8.613-8.078,51.859,51.859,0,0,1-3.108-4.352c-.176-.27-.335-.715-.839-.517" transform="translate(-126.47 -431.632)"/><path class="v" d="M304,414.29c-.067.015-.171.037-.3.067-2.844.654-5.264,2.024-9.991,4.735-2.2,1.261-2.822,1.589-3.764,2.174-1.172.728-2.391,1.393-3.567,2.125-1.274.793-2.584,1.527-3.854,2.326A31.847,31.847,0,0,1,277.5,428.4a72.7,72.7,0,0,1-7.56,2.543,9.483,9.483,0,0,1-2.856.74,2.853,2.853,0,0,1-2.055-1.236,2.631,2.631,0,0,1-.538-.854c-.3-.783,0-1.244.118-2.438a6.532,6.532,0,0,0-.19-2.749c-.029,0-.052.1-.063.153-.315,1.4-1.1,2.47-1.2,4.491a7.776,7.776,0,0,0,.053,1.462c.209,2,2.013,2.818,3.759,3.049a9.525,9.525,0,0,0,4.352-.906,63.976,63.976,0,0,0,8.436-3.69c1.385-.71,2.6-1.685,3.933-2.469,1.986-1.165,3.937-2.389,5.88-3.625,5.121-3.258,7.813-4.784,10.23-6.187,1.761-1.023,3.223-1.846,4.2-2.393" transform="translate(-209.27 -315.874)"/><path class="w" d="M398.424,463.621c1.286-3.448,2.547-6.333,3.591-8.565a65.517,65.517,0,0,1,4.929-9.04c.873-1.291,1.661-2.33,2.235-3.058a7.769,7.769,0,0,1,.724-.582,9.108,9.108,0,0,1,5.495-1.541,1.829,1.829,0,0,0-.214-.178c-1.785-1.266-5.429,1.109-5.917,1.426-1.194.778-2.332,1.818-5.431,6.787a82.38,82.38,0,0,0-4.964,8.79,78.415,78.415,0,0,0-3.211,7.72l2.762-1.758" transform="translate(-362.513 -333.663)"/><path class="x" d="M221.838,699.776c-.113-.514.212-.828.526-1.146a52.734,52.734,0,0,0,3.721-4.059c.28-.35.673-.68.631-1.218-.028-.356.594-.124.506-.545-1.82-.378-3.618-.845-5.418-1.306-.2-.052-.411-.116-.59.065-.158,2.167.448,4.293.351,6.459a4.115,4.115,0,0,0,.273,1.75" transform="translate(-119.255 -505.519)"/><path class="y" d="M220.994,683.624c2.745.661,4.658,1.129,5.269,1.3.148.043.662.194.743.051a.136.136,0,0,0,0-.114c.578-1.6-.367-2.778-1.781-3.788a7.513,7.513,0,0,0-4.532-1.238,11.311,11.311,0,0,0,.3,3.785" transform="translate(-119.035 -497.576)"/><path class="z" d="M356.26,522.648a17.457,17.457,0,0,0,3.827.736,5.243,5.243,0,0,0,1.714.157c.778-.126.788-.643.635-1.244l-.016-.068c-1.382.025-2.763.058-4.145.07a3.773,3.773,0,0,0-2.015.349" transform="translate(-297.186 -389.732)"/><path class="aa" d="M437.962,527.66l-2.817,1.9a54.883,54.883,0,0,0,6.468-2.066c-.168-.2-.366-.087-.52-.148-1.058-.037-2.052.555-3.131.312" transform="translate(-401.195 -393.233)"/><path class="ab" d="M364.127,545.015a1.265,1.265,0,0,0,.872-.273.991.991,0,0,0,.268-.489,1.6,1.6,0,0,1-.04.855c-.169.837-.723.909-1.533.817a16.815,16.815,0,0,1-2.681-.354,22.343,22.343,0,0,1,3.114-.557" transform="translate(-301.482 -404.802)"/><path class="ac" d="M433.232,543.994c-.748.3-1.5.6-2.243.906-.118.048-.26.112-.233.274s.089.335.251.37a1.329,1.329,0,0,0,.621.015c1.379-.4,2.751-.813,4.126-1.223-.2-.285-.59-.068-.806-.308l-.46-.025a1.1,1.1,0,0,0-1.255-.01" transform="translate(-393.948 -404.492)"/><path class="ad" d="M347.12,505.926c-.051-.419.225-.663.477-.934.185-.2.488-.329.471-.673l-3.461.026a9.267,9.267,0,0,0,2.512,1.581" transform="translate(-279.064 -377.477)"/><path class="ae" d="M359.313,565.426a2.063,2.063,0,0,0,1.315-.461,1.913,1.913,0,0,0,.421-.5c.352.143,1.139-.393.945.6.433.141.343.49.264.779-.083.306-.389.2-.607.2-1.047.01-2.093,0-3.14.005a.783.783,0,0,1,.163-.34.864.864,0,0,1,.639-.286" transform="translate(-297.708 -418.616)"/><path class="ac" d="M434.63,543.152l1.255.01q0-.312,0-.623c-.176.1-.362.194-.556.29q-.363.179-.7.323" transform="translate(-395.308 -403.629)"/><path class="af" d="M426.757,544.486c.133.458.535.211.807.308l1.261-.008c-.03-.336-.28-.318-.515-.317-.518,0-1.035.011-1.553.017" transform="translate(-385.758 -404.949)"/><path class="ag" d="M287.3,644.264a.846.846,0,0,0-.932-.65.8.8,0,0,0,.932.65" transform="translate(-199.911 -472.785)"/><path class="ah" d="M284.322,646.31a.821.821,0,0,0-.946-.636.849.849,0,0,0,.946.636" transform="translate(-195.983 -474.195)"/><path class="ai" d="M271.232,654.279a.8.8,0,0,0-.976-.6.786.786,0,0,0,.976.6" transform="translate(-178.75 -479.667)"/><path class="aj" d="M244.209,665.445c-.15-.493-.652-.388-.98-.578-.028.794.563.539.98.578" transform="translate(-143.193 -487.332)"/><path class="aj" d="M242.419,667.669c-.034-.34.3-.792-.289-.966.077.328-.248.776.289.966" transform="translate(-141.111 -488.588)"/><path class="ak" d="M97.311,586.614c-.143,2.217-1.861,3.532-3.881,4.145-1.859.564-3.748.17-5.618.295.078.5.532.2.761.355,1.031.714,2.248.578,3.392.732a46.144,46.144,0,0,0,7.415.144,44.758,44.758,0,0,0,4.991-.517c1.793-.25,3.551-.61,5.3-1.035a16.768,16.768,0,0,0,6.387-2.941,3.937,3.937,0,0,0,1.483-3.021,39.293,39.293,0,0,0-.543-7.837c-.344-2.1-.613-4.228-1.062-6.305-.461-2.13-.82-4.283-1.433-6.39-.369-1.267-.557-2.613-.925-3.893a16.983,16.983,0,0,0-.77-2.832c-.235.4-.341.873-.817,1.114-.306.155-.294.476-.195.771.142.425.289.848.455,1.265a14.925,14.925,0,0,1,.954,5.173,9.8,9.8,0,0,1,.09,2.035,7.071,7.071,0,0,1-1.258-2,5.445,5.445,0,0,0-1.017-1.682c-.189-.2-.372-.539-.706-.348-.29.166-.213.509-.18.8.153,1.308.286,2.618.415,3.928a30.339,30.339,0,0,1,.095,7.72,100.564,100.564,0,0,1-2.257-11.129,27.893,27.893,0,0,1-.254-2.908,10.132,10.132,0,0,0-.152-1.333c-.167-.81-.421-.969-1.209-.787-.924.213-1.863.357-2.779.61-.751.208-.846.377-.626,1.134.756,2.6,1.654,5.169,2.189,7.829a19.753,19.753,0,0,1,.418,6.1,23.906,23.906,0,0,1-1.162-2.986c-.484-1.586-1.117-3.125-1.5-4.745-.09-.381-.167-.976-.675-.929-.441.04-.4.615-.479.988a6.737,6.737,0,0,0-.074,2.59,6.81,6.81,0,0,1-.034,2.064A10.386,10.386,0,0,1,100.7,569.6a11.006,11.006,0,0,0-.5-1.66c-.056-.175-.142-.366-.367-.358s-.294.207-.334.386a11.024,11.024,0,0,0-.371,1.615,4.61,4.61,0,0,1-.59,1.936,6.114,6.114,0,0,1-.319-1.571,72,72,0,0,1-.7-7.7c.013-.932-.242-1.184-1.192-1.157-.742.021-1.526-.249-2.224.227a45.983,45.983,0,0,0,.9,5.208,8.406,8.406,0,0,1,.428,2.353,7.663,7.663,0,0,0,.514,2.509c.186.633.145,1.294.328,1.933.5,1.751.767,3.556,1.126,5.339.222,1.1.089,2.2.3,3.265.261,1.3-.129,2.549-.086,3.824a.9.9,0,0,1-.293.857" transform="translate(32.521 -413.877)"/><path class="al" d="M123.958,485.879a7,7,0,0,0,.47,3.538.575.575,0,0,0,.2-.412,10,10,0,0,1,1.906-3.842,5.185,5.185,0,0,1,2.2-1.3c-.46.823-1.041,1.542-1.51,2.334a19.684,19.684,0,0,0-1.836,3.536,2.9,2.9,0,0,1-.781,1.256c.322,1.691.642,3.382.97,5.072.082.425.262.747.8.59a16.142,16.142,0,0,1,2.884-.251q1.256-.137,2.515-.251c2.451-.224,4.548-.4,7.087-.585l1.094-.08c.041-.1.1-.241.156-.42.427-1.339.005-2.281-.425-4.415-.346-1.718-.657-3.458-.871-5.206-.007-.058-.01-.194-.03-.385a7.783,7.783,0,0,0-.517-2.105l-.054-.033-2.616-1.577-.17.082a18.5,18.5,0,0,1-5.07.89,13.206,13.206,0,0,1-2.257-.189c-.254-.031-.5-.174-.761-.034-.077.153.019.378-.2.472-1.261.536-1.961,1.691-2.865,2.618a2.247,2.247,0,0,0-.31.7" transform="translate(-1.582 -361.756)"/><path class="am" d="M100.926,558.555c.817-.007,1.635,0,2.451-.027.53-.019.758.167.763.727a37.255,37.255,0,0,0,.576,6.55c.184.985.2,2.025.368,3.033.028.165.07.341.239.372.228.042.175-.193.249-.314.68-1.112.54-2.432.935-3.614a.888.888,0,0,1,.161-.348c.688,1.954,1.05,4.019,2.415,5.854.428-2.181-.52-4.3.477-6.495,1.025,3.239,1.984,6.347,3.215,9.524a4.837,4.837,0,0,0,.357-2.893,26.538,26.538,0,0,0-1.087-6.346,43.579,43.579,0,0,0-1.3-4.274c-.213-.492-.2-1.072-.438-1.577-.155-.327.007-.438.34-.52,1.089-.27,2.216-.368,3.284-.741.356-.124.609.04.651.458a28.48,28.48,0,0,1,.3,2.963,38.01,38.01,0,0,0,.732,5.04,33.842,33.842,0,0,0,.742,4.136,21.074,21.074,0,0,0,1.2,4.1,22.837,22.837,0,0,0,.219-6.538c-.127-2.157-.507-4.288-.629-6.556a4.19,4.19,0,0,1,1.511,2.052,11.34,11.34,0,0,0,1.312,2.214c.086.128.158.309.352.224.178-.078.14-.278.118-.421-.206-1.349-.132-2.716-.316-4.072a18.29,18.29,0,0,0-1.3-4.5c-.122-.3-.137-.475.228-.592a.882.882,0,0,0,.6-1.221c-.222-1.258-.335-1.558-1.626-1.032a8.3,8.3,0,0,1-2.482.567c-1-.04-1.959.326-2.959.281a8.4,8.4,0,0,1-1.532.268c-1.908.341-3.848.215-5.76.469a.854.854,0,0,0-.57.223,12.148,12.148,0,0,1-3.112.134c-1.341.033-1.439.022-1.134,1.283.127.528-.077,1.2.459,1.617" transform="translate(25.689 -411.105)"/><path class="an" d="M248.653,375.919a6.007,6.007,0,0,0-.4-2.131,23.4,23.4,0,0,1-.7-5.958,1.333,1.333,0,0,0-.154-.758c-.635-.179-1,.423-1.546.554a8.611,8.611,0,0,1-2.374.5c-.64-.026-.964.445-1.285.914a25.471,25.471,0,0,1-2.387,3.236,5.491,5.491,0,0,1-2.242,1.565c-.212.07-.507.13-.281.476a25.412,25.412,0,0,1,4.825.572c.98.139,1.953.335,2.931.475a35.137,35.137,0,0,0,3.616.554" transform="translate(-145.748 -283.542)"/><path class="ao" d="M120.451,498.657l.034.009a.351.351,0,0,0,.046.014c.286.054.663-.629.685-.67.06-.111.115-.252.242-.525.041-.088.081-.177.115-.269a9.34,9.34,0,0,0,.4-1.321,9.623,9.623,0,0,0,.2-2.708,10.13,10.13,0,0,0-1.8-5.1q-.256-.367-.544-.71l-.041-.049a8.164,8.164,0,0,0-1.623-1.278l1.894,12.656a.743.743,0,0,1,.4-.046" transform="translate(18.314 -364.975)"/><path class="ap" d="M138.818,477.292c1.694.73,3.447.438,5.18.255a6.993,6.993,0,0,0,2.985-.867.145.145,0,0,0,.094-.137c-.024-.235-.061-.47-.071-.705-.048-1.106-.355-1.406-1.465-1.479a20.65,20.65,0,0,0-4.555.292c-.388.22-.873.063-1.252.321-1.475.312-.878,1.441-.916,2.32" transform="translate(-13.066 -356.954)"/><path class="aq" d="M140.725,475.5c0-.027.017-.052.053-.094.135-.157.448-.122.613-.234.379-.258.864-.1,1.252-.321a20.648,20.648,0,0,1,4.555-.291c.1.007.9.088.907.244a.064.064,0,0,1-.016.04c-1.043,1.29-4.138,1.262-4.138,1.262-1.606-.014-3.227-.351-3.225-.6" transform="translate(-14.723 -357.093)"/><path class="ar" d="M240.2,365.976c.18-.542.764-.325,1.14-.6a12.139,12.139,0,0,0,2.967-3.13,11.165,11.165,0,0,0,1.1-1.6,1.213,1.213,0,0,1,1.274-.7,6.455,6.455,0,0,0,3.636-1.23,7.19,7.19,0,0,0,1.313-2.713c.072-.524-.07-.578-.474-.317-.493.225-.61-.075-.7-.472-.066-.3-.19-.583-.53-.188a5.229,5.229,0,0,1-.634,2.244,4.711,4.711,0,0,1-3.872,1.95,2.237,2.237,0,0,0-1.812,1.177,24.11,24.11,0,0,1-2.939,3.607,4.565,4.565,0,0,1-2.625,1.357c-.351.05-.75.009-1.036.307,0,.092,0,.183.006.275l.32.059a1.017,1.017,0,0,0,.947.027h.312a1.526,1.526,0,0,0,1.258-.042l.35-.024" transform="translate(-148.668 -275.2)"/><path class="as" d="M114.921,538.5c.092.1.712,0,.848-.009a6.669,6.669,0,0,0,.959-.132,4.541,4.541,0,0,0,.936-.281c1.066-.6.111-4.049-.2-5.165a6.891,6.891,0,0,0-.862-2.1c-.207-.313-.765-1.086-.765-1.086a2.094,2.094,0,0,0-.931.382c-.266.258-.194.65-.165,1.529.02.584.094,1.164.1,1.75.01,1.219-.088,2.435-.163,3.651-.028.457-.1,1.1.24,1.462" transform="translate(23.458 -394.86)"/><path class="at" d="M190.06,451.7a1.6,1.6,0,0,0,.855,1.776c.179-.406-.264-.621-.295-.963l-.561-.814" transform="translate(-73.145 -341.469)"/><path class="au" d="M180.058,474.314a1.833,1.833,0,0,0,.623,1.591c.009-.615.186-1.3-.623-1.591" transform="translate(-59.738 -356.946)"/><path class="av" d="M182.106,469.382c.022.6-.142,1.278.647,1.56a2.242,2.242,0,0,0-.647-1.56" transform="translate(-62.437 -353.571)"/><path class="aw" d="M186.134,461.3c-.04.547.013,1.047.63,1.268a1.541,1.541,0,0,0-.63-1.268" transform="translate(-67.717 -348.039)"/><path class="ax" d="M188.088,458.223a.812.812,0,0,0,.607.967.812.812,0,0,0-.607-.967" transform="translate(-70.274 -345.935)"/><path class="ay" d="M200.735,251.983c-.011-1.475.018-2.951-.042-4.423a24.1,24.1,0,0,0-1.382-8.271c-.03-.073-.063-.145-.1-.216-1.049-2.226-2.275-2.75-4.575-1.954a.79.79,0,0,0-.38,1.017c.694,3.154,1.558,6.291,1.264,9.577a10.658,10.658,0,0,1-.884,3.657c.029.044.051.11.093.125a7.748,7.748,0,0,0,3.817.482c.729-.135,1.457.267,2.186.006" transform="translate(-84.243 -194.405)"/><path class="az" d="M237.693,341.673a3.429,3.429,0,0,1-1.94-.8.257.257,0,0,0-.355.041c-.857,1.162-1.829,3.436-.582,5.019a4.293,4.293,0,0,0,3.239-.465l.1-.076c.043.086.131.177.12.256-.124.943.379.678.863.458-.129-.01-.3,0-.268-.19.149-1,.348-1.988.553-2.978.151-.73.715-.53,1.086-.757a.748.748,0,0,0-.781-.238,4.341,4.341,0,0,1-2.037-.265" transform="translate(-136.651 -265.601)"/><path class="ba" d="M218.739,320.68c1.243.791,2.422-.317,3.152-1.555a9.808,9.808,0,0,0,.607-1.352c.068-.17.133-.279.33-.242-.5-.991-.219-1.417.927-1.439a2.457,2.457,0,0,0,1.293-.113c-.272-.344-.663-.239-1.018-.269a9.839,9.839,0,0,1-2.951-.207c-.336-.131-.656.105-.959.258a.788.788,0,0,0-.207.164,19.607,19.607,0,0,0-1.482,2.284,2.139,2.139,0,0,0,.307,2.471" transform="translate(-116.125 -248.252)"/><path class="bb" d="M220.617,330.747c.844.7,1.865.413,2.817.5,2.167.211,3.692-1.289,4.129-3.5a7.756,7.756,0,0,0,.11-2.6c0-.215-.144-.4-.422-.243.045.42-.306.7-.4,1.074-.04.164-.278.407-.408.4-.273-.023-.1-.347-.2-.515a10.4,10.4,0,0,1-.763,3.061,4.352,4.352,0,0,1-4.013,1.878c-.286-.011-.572-.038-.857-.057" transform="translate(-119.574 -254.675)"/><path class="bc" d="M212.241,312.81c1.69-.243,3.376.139,5.065.033a2.164,2.164,0,0,0,1.706-.662.733.733,0,0,0,.162-.8c-.1-.272-.362-.339-.654-.2-.334.154-.541-.04-.711-.3l-.109.076a2.006,2.006,0,0,1-1.933,1.131,10.9,10.9,0,0,1-2.367-.077,1.427,1.427,0,0,0-1.215.151.512.512,0,0,0,.056.648" transform="translate(-108.382 -245.117)"/><path class="bd" d="M220.135,323.751c.415.029.306.349.309.586.01.752,0,1.505,0,2.258.325-.061.293-.317.3-.549.006-.755.023-1.511,0-2.265-.006-.225.136-.612-.252-.623-.317-.009-.334.333-.359.593" transform="translate(-112.459 -253.517)"/><path class="bc" d="M217.261,309.966l-.623-.02c-.176.44.167.471.432.507a2.148,2.148,0,0,0,1.274-.167l.058-.045c-.047-.294-.237-.311-.469-.238a.647.647,0,0,1-.672-.038" transform="translate(-108.974 -244.477)"/><path class="be" d="M270.749,203.5a40.844,40.844,0,0,1,5.815.173,35.515,35.515,0,0,1,4.2.892,43.493,43.493,0,0,1,4.509,1.625,23.706,23.706,0,0,1,2.538,1.17c.145.08.436.183,0,.268,4.853,2.56,9.515,5.477,14.726,7.353a18.923,18.923,0,0,0,15.375-.746c.485-.533-.067-.756-.351-.95-.717-.49-1.431-.988-2.189-1.421a59.884,59.884,0,0,0-9.184-4.043c-4.364-1.6-8.859-2.76-13.333-3.983a44.32,44.32,0,0,0-6.8-1.02,74.026,74.026,0,0,0-8.922-.341,15.713,15.713,0,0,0-2.912.233c-.726.206-1.554-.078-2.21.461-.393.212-.881.061-1.259.328" transform="translate(-225.775 -170.94)"/><path class="bf" d="M230.86,189.9a17.811,17.811,0,0,0,2.228-.3,6.9,6.9,0,0,1,2.448-2.181,15.535,15.535,0,0,1,6.747-2.05,27.365,27.365,0,0,1,7.689.426,51.6,51.6,0,0,1,12.445,3.741,52.141,52.141,0,0,1,16.37,10.705,50.442,50.442,0,0,1,4.742,5.4,55.348,55.348,0,0,1,3.992,5.952,7.576,7.576,0,0,1,.54.84,2.051,2.051,0,0,0,1.071.732c.38.144.518.039.34-.348-1.115-2.417-2.053-4.917-3.361-7.244A33.786,33.786,0,0,0,280,198.543c-2.137-1.942-4.384-3.74-6.686-5.458a37.408,37.408,0,0,0-6.329-3.746,69.022,69.022,0,0,0-7.08-2.938,37.381,37.381,0,0,0-5.746-1.744c-1.429-.251-2.8-.8-4.254-.979a36.268,36.268,0,0,0-7.833-.543,16.587,16.587,0,0,0-7.417,2.094,9.485,9.485,0,0,0-2.977,2.748,3.977,3.977,0,0,0-.822,1.918" transform="translate(-184.627 -157.659)"/><path class="bg" d="M496.536,551.768c.4-.175.159-.316-.045-.379a14.843,14.843,0,0,1-2.72-1.542c-1.375-.771-1.893-2.413-2.261-3.578a15.407,15.407,0,0,1-.568-3.732,7.037,7.037,0,0,1,.449-2.212c.073-.182.24-.431.482-.973a7.734,7.734,0,0,1,2.094-2.773,11,11,0,0,1,.976-.658c.125-.085.3-.178.171-.363-.089-.126-.249-.071-.36,0a6.023,6.023,0,0,0-1.438.956c-.635.708-1.264,1.421-1.9,2.132a10.842,10.842,0,0,0-1.21,7.241,6.641,6.641,0,0,0,1.045,2.2,1.731,1.731,0,0,1,.2.656c.2.018.44-.029.553.209.5,1.053,1.559,1.444,2.421,2.071a8.665,8.665,0,0,0,2.109.744" transform="translate(-473.678 -398.8)"/><path class="j" d="M291.478,215.836c-.843-1.5-1.816-2.916-2.776-4.346a53.1,53.1,0,0,0-5.45-6.589,40.83,40.83,0,0,0-5.036-4.4,53.63,53.63,0,0,0-6.2-4.139c-1.427-.81-2.95-1.451-4.427-2.174a41.314,41.314,0,0,0-5.1-2.074,43.7,43.7,0,0,0-7.029-1.932c-1.231-.193-2.443-.568-3.69-.661a25.124,25.124,0,0,0-6.428-.027,17.152,17.152,0,0,0-6.141,2,12.125,12.125,0,0,0-2.307,1.887c-.067.069-.534.3-.027.481a41.587,41.587,0,0,1,6.464-.16,60.989,60.989,0,0,1,15.908,2.37c4.042,1.227,8.115,2.341,12.046,3.9a37.256,37.256,0,0,1,8.271,4.173c.4.289,1.109.307.984,1.078a18.316,18.316,0,0,1,3.492,2.712c.32.785,1.165,1.063,1.637,1.7a23.029,23.029,0,0,1,2.643,3.427.492.492,0,0,0,.431.294c.387.114.4.377.27.7a8.139,8.139,0,0,0,.634,1.72,1.474,1.474,0,0,0,1.637.623.457.457,0,0,0,.192-.555" transform="translate(-188.409 -161.914)"/><path class="bh" d="M297.285,254.841a3.182,3.182,0,0,0-2.852,1.726.375.375,0,0,0,0,.493c0,.29,0,.58.014.87a2.828,2.828,0,0,0,.4,1.164c.277.509.768-.062.984-.2a5.236,5.236,0,0,1,2.4-.471c1.282-.137,2.63-.7,3.846-.349,1.25.363,2.559-.1,3.743.525.25.131.623.024.939.037.5.02,1.068-.148,1.362.5a6.058,6.058,0,0,0,2.318.072c.271-.257.11-.594.132-.9a3.407,3.407,0,0,0-1.121-.564c-.2-.076-.462-.081-.573-.246-.541-.808-1.362-.7-2.139-.661-1.037.053-1.993-.521-3.051-.295.037-.248.366-.365.208-.59a.477.477,0,0,0-.587-.088,18.632,18.632,0,0,1-5.445.757,2.157,2.157,0,0,1-.629.005.659.659,0,0,1-.36-1.177c.168-.183.475-.272.41-.612" transform="translate(-225.721 -206.767)"/><path class="bi" d="M295.385,254.084a1.4,1.4,0,0,0-.929.856,1.048,1.048,0,0,0,0,.5.976.976,0,0,0,.425.592.952.952,0,0,0,.578.1c1.312-.122,4.464-.233,5.775-.212.484.008.824.036,1.273.073a17.538,17.538,0,0,1,4.061.7,13.781,13.781,0,0,1,2.1.859c-.008-.769-.688-1.078-1.113-1.531a7.505,7.505,0,0,0-4.167-1.858,14.245,14.245,0,0,0-3.11-.382c-1.634.023-3.294-.27-4.9.3" transform="translate(-223.82 -206.01)"/><path class="bj" d="M326.4,243.838a127.271,127.271,0,0,0,19.271,1.419,1.106,1.106,0,0,0-1.056-.646c-1.967-.069-3.916-.376-5.864-.574-2.426-.248-4.865-.219-7.285-.53-1.427-.183-2.883-.139-4.327-.194a.647.647,0,0,0-.739.525" transform="translate(-270.913 -198.882)"/><path class="k" d="M253.051,257.463a8.541,8.541,0,0,0,1.737-.127,2.537,2.537,0,0,0,.217-1.76c-.081-1.442-.309-2.874-.34-4.321a11.871,11.871,0,0,0-.371-1.361,11.357,11.357,0,0,0-1.727-1.567c-.318.458-.052.917,0,1.372a46.011,46.011,0,0,1,.326,6.2,13.469,13.469,0,0,0,.153,1.561" transform="translate(-156.941 -202.314)"/><path class="bk" d="M355.9,259.115q0-.246,0-.493c-1.521-.256-3.062-.332-4.59-.5a43.4,43.4,0,0,1-4.635-.274.529.529,0,0,0-.158,0c-.382.031-.958-.023-.988.394-.032.443.533.366.887.4,2.057.216,4.093.618,6.172.638a5.745,5.745,0,0,1,1.557.186,1.572,1.572,0,0,0,1.752-.349" transform="translate(-287.194 -208.823)"/><path class="k" d="M311.031,281.335c-2.97.082-5.911.512-8.869.725-.786.057-1.567.175-2.354.21-.476.021-.656.2-.635.668.018.418-.023.84-.037,1.26q-.078,1.259-.155,2.519c-.034.342.25.284.429.317a5.214,5.214,0,0,1,2.784,1.708,3.206,3.206,0,0,1,.131,3.825c-.42.549-.52,1.274-1.013,1.777a4.85,4.85,0,0,1-4.084,1.6,7.2,7.2,0,0,0-1.1-.086,1.591,1.591,0,0,1-1.6-.623.668.668,0,0,0-.389-.261,2.735,2.735,0,0,1-1.994-1.952,1.358,1.358,0,0,0-.382-.594c-.692-.61-.519-1.389-.41-2.138.068-.468.464-.609.883-.641.6-.046,1.212,0,1.818-.024a.994.994,0,0,0,.9-.324c-.68-.262-1.345.013-1.959-.177-2.182-.112-4.366-.212-6.547-.342a7.862,7.862,0,0,1-3.119-.766,2.921,2.921,0,0,1-1.735-2.856c.013-.736.076-1.47.126-2.205.024-.348-.074-.525-.472-.543-1.735-.076-3.469-.177-5.2-.28-.414-.025-.467.2-.48.533-.024.63-.129,1.261-.117,1.889a3.043,3.043,0,0,1-1.934,2.98,8.879,8.879,0,0,0-1.786,2.914,1.5,1.5,0,0,0,.972,2.333,5.687,5.687,0,0,1,2.123,1.338c1.547,1.527,3.017,1.171,4.489.192a3.463,3.463,0,0,0,.663-.561,2.689,2.689,0,0,1,2.978-.649,3.132,3.132,0,0,0,1.009.147,1.438,1.438,0,0,0,1.319-.855,1.19,1.19,0,0,0-.382-1.456,2.226,2.226,0,0,1,.745,2.341,2.413,2.413,0,0,1-2.525,1.093,5.522,5.522,0,0,0-4.074.73,4.033,4.033,0,0,1-3.5.029,29.728,29.728,0,0,0-3.064-1.02,2.3,2.3,0,0,1-1.814-2.852,1.478,1.478,0,0,1,.353-.7c.737-.723,1.144-1.7,1.878-2.424.319-.315.181-.382-.181-.311a23.323,23.323,0,0,1-4.09.151,5.9,5.9,0,0,0-1.995.021c.376.458.82.334,1.216.357.539.031,1.059.045.8.839a.864.864,0,0,0,.129.606.538.538,0,0,1-.06.6c-.954,1.035-1.778,2.332-3.4,2.307-1.434-.022-2.589-.876-3.788-1.55a.7.7,0,0,1-.258-.479c-.212-1.063-.588-2.136.1-3.172a7.692,7.692,0,0,1-2.592-1.427,2.688,2.688,0,0,0-.254,1.6c-.09,2.2-.31,4.4-.19,6.6a50.643,50.643,0,0,0,.769,7.006c0,.051.006.125.014.213a4.93,4.93,0,0,0,.284,1.179,7.057,7.057,0,0,0,.5,1.08c.254.451.338.49.569.866.665,1.081.566,1.681,1.2,2.168a1.132,1.132,0,0,0,1.382.015,4.009,4.009,0,0,0,1.2-1.264c.313-.524.522-1.093.837-1.608.16-.261.4-.471.371-.836-.032-.452.322-.386.611-.377.224-.269,0-.492-.08-.726a2.844,2.844,0,0,1,.158-2.347c.847-1.671,2.19-2.986,3.142-4.535a12.372,12.372,0,0,1-.9,1.994c-.105.2-.309.485.071.669.9.049,1.631-.5,2.491-.646a11.856,11.856,0,0,1,5.3.158,11.447,11.447,0,0,0,3.033.42,37.5,37.5,0,0,1,4.329.184,12.051,12.051,0,0,1,3.944,1.3c1.278.136,1.824,1.19,2.5,2.049.273.344-.007.614-.368.654a2.62,2.62,0,0,1-1.312-.149.839.839,0,0,0-.751-.066c-.214.242-.457.458-.657.715a24.142,24.142,0,0,0,1.279,3.982c.277.531.416,1.182,1.073,1.44a.331.331,0,0,1,.149.164,4.025,4.025,0,0,0,3.754,2.336,10.506,10.506,0,0,0,6.652-2.23,17.747,17.747,0,0,0,3.387-2.969,16.232,16.232,0,0,0,1.467-2.077c.587-.942,1.165-1.894,1.674-2.874.346-.667.935-1.274.845-2.128-.008-.075,0-.206.042-.224.939-.426.659-1.485,1.123-2.18.561-.84.1-.83.752-2.347a18.368,18.368,0,0,0,1.312-2.8,7.127,7.127,0,0,0,.217-1.174,12.017,12.017,0,0,0-.287,3.739,7.824,7.824,0,0,0,.3-2.3c.031-2.517-.007-5.036.029-7.553a3.34,3.34,0,0,1,.3-1.876" transform="translate(-214.773 -224.9)"/><path class="bl" d="M374.349,344.768c.125,1.321-.48,2.576-.341,3.9a30.241,30.241,0,0,0,.363,3.662,4.036,4.036,0,0,0,2.056,2.716c.364.191.849.429,1.088-.233a.367.367,0,0,1,.2-.205,3.916,3.916,0,0,0,2.424-2.207,1.782,1.782,0,0,1,1.144-1c.052-.43-.35-.465-.574-.653s-.561-.354-.391-.68.465-.069.705-.006c.32.084.628.322.97.061.244-.6.985-1.019.677-1.824-.268-.456-.774-.517-1.2-.7a7.736,7.736,0,0,1-2.8-1.861c-.913-1.009-.963-1.469-.228-2.618a.606.606,0,0,0,.106-.372c-.046-.253-.232-.328-.455-.347a21,21,0,0,0-2.581-.064.815.815,0,0,0-.823.687,4.915,4.915,0,0,0,.054,2.043c-.148-.116-.176-.341-.4-.3" transform="translate(-323.02 -266.633)"/><path class="k" d="M336.362,355.413a3.135,3.135,0,0,0,2.14.29c.76-.051,1.072.214,1.043.967a4.221,4.221,0,0,0,1.035,2.784.207.207,0,0,0,.057.055c.371.207-.069.8.575.977,1.2.337,2.415.68,3.484-.094a3.83,3.83,0,0,0,1.136-1.8,40.871,40.871,0,0,0,1.236-4.249,11.727,11.727,0,0,0,.329-2.236c.053-1.548.557-3.054.38-4.613-.24-.246-.481-.426-.724,0,.265,1.76-.643,3.02-2.7,3.7a12.089,12.089,0,0,1-4.5.682,1.667,1.667,0,0,0-1.288.2c.609.57.295,1.406.6,2.065.618.433,1.327.053,2.037.2a1.227,1.227,0,0,1-1.287.824,11.619,11.619,0,0,1-3.05.082.477.477,0,0,0-.5.16" transform="translate(-276.203 -269.993)"/><path class="bm" d="M352.587,331.048c.213-.283.427.047.64,0h.625c.356-.061.673-.161.638-.623a.626.626,0,0,0-.564-.229c-1.56.141-3.066-.436-4.622-.341a3.674,3.674,0,0,1-1.727-.4,6.275,6.275,0,0,0-3.849-.426,13.852,13.852,0,0,1-5.084.015,14.807,14.807,0,0,0-3.569-.453,2.8,2.8,0,0,1-1.171-.055c-.427-.437-.046-.744.165-1.09.285-.466.941-.561,1.112-1.134.644-.938.914-2.062,1.521-3.031-.271-.2-.379.057-.487.194-.538.676-1.032,1.391-1.595,2.045a26,26,0,0,0-1.489,2.17,3.3,3.3,0,0,0-.182,3.686c.012.1.024.208.036.312l.426,1.064a1.55,1.55,0,0,0,.135-1.257,4.761,4.761,0,0,1-.112-.77c.007-1.137.122-1.26,1.23-1.256.7,0,1.4.028,2.1.026.253,0,.3.152.339.342a.71.71,0,0,0,.518.157,36.662,36.662,0,0,1,4.017.194c2.672.141,5.339.377,8,.681a8.761,8.761,0,0,0,2.952.183" transform="translate(-281.655 -253.547)"/><path class="bn" d="M359.266,367.921a13.779,13.779,0,0,0,3.6,0,2.078,2.078,0,0,0,1.384-.642c.162-.143.309-.317.193-.549a.46.46,0,0,0-.614-.209,5.168,5.168,0,0,1-1.724.1.461.461,0,0,0-.27-.148,12.845,12.845,0,0,1-3.541-.556.326.326,0,0,0-.287.093c-.367-.13-.732-.266-1.1-.389-.268-.089-.6-.238-.747.115a.711.711,0,0,0,.216.833c.3.3.791.3,1,.7a3.221,3.221,0,0,0,1.89.648" transform="translate(-299.107 -282.501)"/><path class="bo" d="M432.875,468.7a74.744,74.744,0,0,0,7.455-14,37.183,37.183,0,0,0-7.455,14" transform="translate(-399.194 -343.521)"/><path class="bp" d="M314.813,279.1c.006-1.231-.277-1.527-1.544-1.6q-2.863-.161-5.726-.314c-.786-.175-1.594.068-2.379-.129-.426-.036-.874.1-1.271-.163-.871,0-1.741-.012-2.611,0-.825.013-1.062.3-1.2,1.123a28.7,28.7,0,0,0-.148,4.1,2.124,2.124,0,0,0,1.552,2.214,7.412,7.412,0,0,0,1.913.446c2.494.149,4.994.2,7.487.355a5.7,5.7,0,0,0,2.846-.807,1.852,1.852,0,0,0,.932-1.7c-.021-.922,0-1.846.015-2.768,0-.256-.075-.533.13-.756" transform="translate(-231.703 -221.857)"/><path class="bq" d="M284.339,300.739a2.767,2.767,0,0,0-.588.864c-.876,2.064.93,5.32,3.277,6.138a6.5,6.5,0,0,0,1.947.289,7.688,7.688,0,0,0,2.5-.348c2.068-.706,4.52-3.417,3.853-6.02a4.726,4.726,0,0,0-3.1-3.109,4.221,4.221,0,0,0-.869-.172,3.9,3.9,0,0,1-.8,1.131,4.866,4.866,0,0,1-3.062,1.247c-.725.029-1.093-.128-2.473-.064-.286.013-.522.031-.681.045" transform="translate(-207.153 -236.563)"/><path class="br" d="M391.527,300.9a1.8,1.8,0,0,0-.619.613c-.594,1.006.025,2.476.667,3.249,1.391,1.672,4.279,1.742,6.044.685a3.52,3.52,0,0,0,1.675-2.019,2.132,2.132,0,0,0-.118-1.57,1.81,1.81,0,0,0-.394-.485l-7.256-.473" transform="translate(-344.93 -238.286)"/><path class="bs" d="M340.027,301.278c.292.053.184.1.026.243a11.3,11.3,0,0,0-2.161,2.8,2.337,2.337,0,0,0,1.526,3.341c1.44.457,2.856.989,4.307,1.41a3.215,3.215,0,0,0,2.64-.355,20.937,20.937,0,0,1,1.967-1.258,1.8,1.8,0,0,1,1.8-.061,1.859,1.859,0,0,0,2.823-.7c.024-.033.023-.163.1-.083.044.044.053.141.11.2a2.663,2.663,0,0,0-1.063-2.865c-.091-.061-.2-.129-.271-.028a.321.321,0,0,0-.022.284,1.325,1.325,0,0,0,.3.361.917.917,0,0,1,.325,1.183,1.256,1.256,0,0,1-1.113.754c-.8.078-1.5-.44-2.32-.341a2.418,2.418,0,0,0-1.68.716,5.1,5.1,0,0,1-2.155,1.4,2.4,2.4,0,0,1-2.5-.5,7.428,7.428,0,0,0-2.823-1.8,1.555,1.555,0,0,1-.564-2.255,17.848,17.848,0,0,0,1.535-2.741,1.8,1.8,0,0,0-.8.3" transform="translate(-282.084 -238.343)"/><path class="bt" d="M307.31,587.575a1.015,1.015,0,0,1-.066-.284,1.032,1.032,0,0,1,.079-.486c-.962.064-1.217-.711-1.8-1.028a1.611,1.611,0,0,0-.835-.338,7.577,7.577,0,0,0-2.561.961,2.859,2.859,0,0,1,1.256,1.434,20.876,20.876,0,0,0,2.582,3.494.6.6,0,0,0,.456-.5.591.591,0,0,0-.016-.277.793.793,0,0,0-.162-.251c-.185-.233-.288-.335-.258-.387.021-.036.085-.015.119-.066a.171.171,0,0,0,0-.142c-.043-.132-.016-.406.3-1.034a9.524,9.524,0,0,1,.6-.765q.153-.176.3-.333" transform="translate(-224.904 -432.983)"/><path class="bu" d="M350.766,519.868q-.216.517-.447,1.044t-.454,1.013h-.009c.282.212.672.082.951.3a7.475,7.475,0,0,0,1.26.008c.249-.038.518-.179.531-.37.01-.15-.157-.281-.219-.329a13.322,13.322,0,0,1-1.614-1.667" transform="translate(-285.25 -388.116)"/><path class="bv" d="M285.622,465.577c0,.171.047.29.207.314a.328.328,0,0,0,.376-.192,30.232,30.232,0,0,1,2.747-3.6c.738-.931,1.413-1.912,2.134-2.855,1.211-1.581,2.174-3.352,3.24-5.044.055-.087.142-.2.126-.277-.047-.24.447-.4.15-.6-.313-.2-.367.223-.549.357a18.944,18.944,0,0,0-2.708,2.95,20.116,20.116,0,0,0-2.071,2.782c-.658,1.066-1.383,2.126-2.084,3.182-.581.875-1.009,1.851-1.5,2.783a1.145,1.145,0,0,0-.067.194" transform="translate(-207.068 -342.55)"/><path class="bw" d="M222.2,418.979a.937.937,0,0,0,.716-.162,2.251,2.251,0,0,1,1.515-.438c-.3-.6-.823-.341-1.178-.191-.386.164-.908.262-1.053.791" transform="translate(-116.771 -318.415)"/><path class="bx" d="M218.691,419.172c.173.556.6.667,1.11.63-.154-.591-.584-.695-1.11-.63" transform="translate(-111.038 -319.203)"/><path class="h" d="M196.135,443.273a1,1,0,0,0,.634.985c.057-.5-.017-.917-.634-.985" transform="translate(-80.898 -335.706)"/><path class="by" d="M243.223,429.855a.8.8,0,0,0,.946-.632.82.82,0,0,0-.946.632" transform="translate(-143.151 -326.085)"/><path class="h" d="M204.154,431.268c.03.414.172.706.667.616a.748.748,0,0,0-.667-.616" transform="translate(-91.467 -327.491)"/><path class="bz" d="M262.556,615.1c-.282-.422-.819-.527-1.135-.907a6.662,6.662,0,0,1-1.249-.642c-.806-.081-1.244-.784-1.9-1.139-1.729-.942-3.42-1.96-5.079-3.022-1.28-.819-2.5-1.725-3.742-2.6-1.125-.8-2.341-1.458-3.429-2.307a14.068,14.068,0,0,0-1.741-1.245,7.277,7.277,0,0,1-.8-.48,1.434,1.434,0,0,0-.685-.358l-.344.535a3.585,3.585,0,0,0,.991,1.324c1.016.99,1.9,2.106,2.926,3.088a38.861,38.861,0,0,0,3.3,2.8q.293.223.589.441a49.446,49.446,0,0,0,9.072,5.117c.948.428,1.894.859,2.832,1.308.416.2.556.065.463-.343a10.543,10.543,0,0,1-.069-1.573" transform="translate(-161.393 -444.586)"/><path class="al" d="M136.643,539.325a22.431,22.431,0,0,0-.012-8.392c-1.885.076-3.76.252-5.638.42a39.2,39.2,0,0,1-5.175.378c-.3-.013-.637-.1-.908.14a1.449,1.449,0,0,1-.081.918,11.773,11.773,0,0,0-.9,4.1c-.025.249.049.54-.261.681.157.737.326,1.471.467,2.211.074.389.361.317.607.318,1.31.005,2.62,0,3.93,0a35.316,35.316,0,0,0,4.463-.244c1.169-.2,2.4-.009,3.513-.534" transform="translate(1.736 -395.687)"/><path class="ca" d="M160.1,495.7c.29.076.694-1.318,1.749-3.235,1.384-2.515,2.789-3.93,2.517-4.2-.094-.095-.384-.006-.912.276a5.228,5.228,0,0,0-1.793,1.525,11.085,11.085,0,0,0-.9,1.341,6.707,6.707,0,0,0-.849,2.389c-.119.8-.046,1.846.194,1.908" transform="translate(-37.062 -366.462)"/><path class="cb" d="M161.515,539.61l.321.518a15.346,15.346,0,0,1,.335-2.91,20.373,20.373,0,0,1,.616-2.049c.115-.342.406-1.195.406-1.195l-.432-.07c-.211,0-.421.005-.632.014a1.963,1.963,0,0,0-1.145.24c-.353.285-.308.89-.274,1.246a28.343,28.343,0,0,0,.8,4.2" transform="translate(-36.117 -397.721)"/><path class="cc" d="M251.059,343.076c.075-.394-.246-.67-.3-1.03a5.721,5.721,0,0,1,1.092-3.991c.019-.031.1-.026.149-.039-.247-.438-.749-.665-.937-1.155-.135-.353-.326-.207-.435,0a8.127,8.127,0,0,0-1.306,4.632,1.458,1.458,0,0,0,.91,1.2c.278.117.5.383.831.374" transform="translate(-152.893 -262.748)"/><path class="cd" d="M237.351,316.946c-.7-.105-.985.571-1.2.919a3.248,3.248,0,0,1-1.719,1.632c-.325.106-.227.363-.248.584.389.832.85,1.578,1.915,1.6.12-.452-.333-.724-.346-1.159a4.015,4.015,0,0,1,1.129-2.656c.227-.283.518-.511.468-.925" transform="translate(-133.484 -249.259)"/><path class="ce" d="M218.841,304.951a3.176,3.176,0,0,0-1.345,1.939c-.138.513-.685.714-.806,1.212,1.127.021,2.24.236,3.374.192a4.607,4.607,0,0,0,1.589-.4.844.844,0,0,0,.536-1.024c-.37-.183-.747.051-1.122-.018-.237-.043-.544.067-.585-.322-.011-.44-.665-.185-.675-.625a1.074,1.074,0,0,1-.91-.9.1.1,0,0,0-.056-.057" transform="translate(-112.82 -241.059)"/><path class="cf" d="M224.337,305.131c-.111.721.232.978.91.9l-.91-.9" transform="translate(-118.259 -241.182)"/><path class="m" d="M235.235,273.859a1.016,1.016,0,0,0,.632.292c-.184-.241-.109-.64-.471-.774l-.162.482" transform="translate(-132.327 -219.454)"/><path class="cg" d="M244.54,260.648c.344-.238.6-.588,1.105-.6a.689.689,0,0,0,.638-.578l-.638-1.734c.051-.292-.15-.448-.332-.614a24.843,24.843,0,0,0-3.015-3.832c-.032.041-.1.089-.09.123.326,1.562.265,3.164.489,4.734a23.6,23.6,0,0,1,.093,2.585l1.748-.084" transform="translate(-144.946 -205.71)"/><path class="m" d="M243.421,264.337a1.31,1.31,0,0,0,.332.614c.093,0,.308.159.243-.07a6.541,6.541,0,0,0-.525-1.047c-.026.261-.037.382-.049.5" transform="translate(-143.053 -212.925)"/><path class="ch" d="M322.961,277.354a7.647,7.647,0,0,0,2.378.129,7.764,7.764,0,0,0-2.378-.129" transform="translate(-249.499 -222.156)"/><path class="ci" d="M329.281,330.934c-.632.468-1.37.829-1.635,1.662-.064.2-.159.389.051.558a.693.693,0,0,0,.675.127,6.819,6.819,0,0,1,3.217.166,2.686,2.686,0,0,0,1.282-.332c.3-.1.608-.172.938-.262-.314.491-.14.7.381.8a5.143,5.143,0,0,0,4.032-.585,1.994,1.994,0,0,1,2.528.147,7.725,7.725,0,0,0,4.78,1.338c.158,0,.379.051.46-.05.488-.61.979-.192,1.44-.008a6.86,6.86,0,0,0,1.847.392c.8.086,1.052-.307.722-1.062a3.27,3.27,0,0,0-1.263-1.476,12.243,12.243,0,0,0-6.575-1.578,14.579,14.579,0,0,1-4.147-.245,14.367,14.367,0,0,0-4.574-.557,8.032,8.032,0,0,0-3.326.761,1.778,1.778,0,0,1-.833.2" transform="translate(-275.755 -258.174)"/><path class="cj" d="M344.494,337.53c.291.586.855.976,1.1,1.611s.189.8-.521.738a7.43,7.43,0,0,1-2.762-.818c-.192-.1-.4-.2-.569,0-.131.154.126.269.108.44a8.333,8.333,0,0,1-5.911-1.692,1.215,1.215,0,0,0-1.464-.061,5.265,5.265,0,0,1-4.316.887c-.211-.056-.553.123-.608-.184-.043-.241.241-.37.471-.456a.881.881,0,0,0,.185-.138,4.091,4.091,0,0,0-2.063.386,2.629,2.629,0,0,1-2.524-.275.328.328,0,0,0-.425-.02,3.321,3.321,0,0,1-1.738.384c.058.4.375.294.616.3.6.014,1.21,0,1.814.009a12.8,12.8,0,0,1,2.767.551,5.652,5.652,0,0,0,1.251.068c.815.009,1.63.014,2.445,0a8.662,8.662,0,0,0,1.426-.225,5.127,5.127,0,0,1,3.856.643.878.878,0,0,0,.565.214c2.066-.164,4.085.516,6.152.338.622,0,1.16.356,1.8.374a.968.968,0,0,0,.977-.463c.219-.363-.092-.6-.325-.786a2.32,2.32,0,0,1-.609-.861c-.317-.648-1.039-.791-1.694-.96" transform="translate(-271.512 -263.349)"/><path class="ck" d="M344.992,318.236v-.565c-.255.268-.45.46-.631.664-.689.78-1.29.943-2.13.4a2.142,2.142,0,0,0-2.484.11c-.6.362-1.158.786-1.733,1.185a.087.087,0,0,0,.02.067,1.088,1.088,0,0,0,.151.039,4.946,4.946,0,0,1,3.576-.726,3.6,3.6,0,0,0,1.7-.073,2.346,2.346,0,0,0,1.532-1.1" transform="translate(-273.904 -249.762)"/><path class="cl" d="M353.868,345.294a52.6,52.6,0,0,0-6.1-.74c-2.673-.261-5.36-.368-8.043-.525-.445-.026-.895.03-1.342.049-.994.834-1.051,1.58-.179,2.693a7.42,7.42,0,0,0,3.044,2.152c.408.176.824.331,1.236.5a3.615,3.615,0,0,0,2.851.486,14.881,14.881,0,0,0,5.613-.646,6.584,6.584,0,0,0,2.479-1.488,1.845,1.845,0,0,0,.442-2.476" transform="translate(-282.936 -267.793)"/><path class="cm" d="M366.985,361.6l-2.851-.486a1.256,1.256,0,0,1-.471,1.242c-.237.161-.154.421-.176.646a9,9,0,0,0,4.1.612,7.123,7.123,0,0,1,.028-1.082.739.739,0,0,0-.628-.932" transform="translate(-304.587 -279.486)"/><path class="cn" d="M314.082,286.238a5.6,5.6,0,0,1,1.482.116c.713.143,1.055-.168,1.047-.871a1.96,1.96,0,0,0-1.881-1.869,1.982,1.982,0,0,0-2.147,1.329c-.263.935.048,1.327,1.027,1.3.157,0,.314,0,.472,0" transform="translate(-237.465 -226.448)"/><path class="co" d="M411.757,278.536a11.794,11.794,0,0,0,.119,2.151,2.009,2.009,0,0,0,1.891,1.409c.224-.021.426-.067.49-.311s-.091-.4-.3-.485c-.853-.346-1-1.014-.944-1.849.059-.89.008-1.788.015-2.682,0-.448-.137-.818-.632-.824s-.644.364-.64.813c.006.552,0,1.1,0,1.779" transform="translate(-366.467 -221.211)"/><path class="cp" d="M246.357,637.718c.2.627.709.668,1.249.642a1.359,1.359,0,0,0-1.249-.642" transform="translate(-147.578 -468.755)"/><path class="cq" d="M350,347.157a18.08,18.08,0,0,0,4.317-.325,3.579,3.579,0,0,0,.516-.172c.162-.07.385-.124.334-.368-.041-.2-.225-.279-.411-.316-.232-.045-.465-.09-.7-.113-4.107-.407-8.223-.712-12.343-.959-.41-.025-1.034-.177-1.129.251-.116.522.546.6.941.733a30.754,30.754,0,0,0,8.476,1.27" transform="translate(-284.897 -268.364)"/><path class="cr" d="M349.2,150.514a6.7,6.7,0,0,0-.486.692,5.877,5.877,0,0,0-.708,3.147,1.758,1.758,0,0,0,2.165,1.727,6.26,6.26,0,0,0,3.81-2.092c1.442-1.571,3.078-2.952,4.457-4.582.148-.175.343-.033.505-.089.237-.082.628-.048.408-.5-.741.426-1.508.072-2.225-.021a19.071,19.071,0,0,0-6.361.554,3.085,3.085,0,0,0-1.568,1.168" transform="translate(-291.486 -134.143)"/><path class="cs" d="M65.9,314.758c.051,1.164-.12,2.314-.037,3.493a13.828,13.828,0,0,0,4.791,9.784,14.173,14.173,0,0,0,3.039,2.146,20.378,20.378,0,0,0,3.377,1.177,12.584,12.584,0,0,0,6.145-.006,14.912,14.912,0,0,0,4.371-1.778,12.121,12.121,0,0,0,3.911-3.465A16.435,16.435,0,0,0,93.17,323.4c.477-1.037.74-2.131,1.155-3.178a.887.887,0,0,0,.061-.306,23.568,23.568,0,0,0-.03-4.934,13.493,13.493,0,0,0-2.668-6.2,14.42,14.42,0,0,0-3.547-3.412,21.605,21.605,0,0,0-4.2-1.915c-1.915-.645-3.807-.391-5.694-.362a11.329,11.329,0,0,0-4.733,1.47,1.207,1.207,0,0,1-.651.225A16.532,16.532,0,0,0,69.06,308.2a13.744,13.744,0,0,0-2.532,4.64c-.184.647-.418,1.28-.63,1.919" transform="translate(62.514 -239.739)"/><path class="ct" d="M102.917,339.456a7.31,7.31,0,0,0,7.218-7.478,6.787,6.787,0,0,0-1.432-4.285,7.773,7.773,0,0,0-6.367-2.91,7.3,7.3,0,0,0-4.974,2.45,6.235,6.235,0,0,0-1.883,4.541,7.305,7.305,0,0,0,7.438,7.682" transform="translate(37.533 -254.628)"/><path class="ba" d="M209.253,283.074h0c-1.67-.105-2.112-.154-2.112-.154a16.973,16.973,0,0,1-1.95-.335,5.936,5.936,0,0,1-4.425,3.762,3.473,3.473,0,0,0-.17,3.034c.044.065.093.129.14.192a5.972,5.972,0,0,0,.928,1.037c.182.333.54.418.835.594a.544.544,0,0,0,.581-.1c.907-1.074,1.549-2.336,2.468-3.409a35.77,35.77,0,0,0,2.776-3.2c.419-.588.73-1.093.928-1.429" transform="translate(-94.689 -225.755)"/><path class="o" d="M146.084,326.14c-.053-.445-.45-.27-.687-.367a18.725,18.725,0,0,1-2.335-.932c-.527-.3-1.049-.645-1.573-.968a15.015,15.015,0,0,1-3.583-2.848,26.681,26.681,0,0,1-3.37-4.891,19.368,19.368,0,0,1-1.388-3.784,16.371,16.371,0,0,1-.533-5.716,28.824,28.824,0,0,1,1.2-6.677,15.048,15.048,0,0,1,3.261-5.643,21.591,21.591,0,0,1,2.929-2.431,29.935,29.935,0,0,1,4.022-2.524,5.434,5.434,0,0,1,2.275-.807c1.044-.046,1.819-.718,2.787-.851-1.059-.146-2.115-.311-3.177-.433q-5.449-.627-10.9-1.225c-2.353-.257-4.709-.484-7.063-.727-1.229-.127-1.968-.2-3.014-.324-2.374-.291-4.293-.619-5.561-.855-.192.175-.487.454-.824.822-.319.347-.534.624-.613.716-.693.811-1.4,1.607-2.087,2.424a28.5,28.5,0,0,0-2.137,2.835,7.95,7.95,0,0,0-.791,1.355c.063.3.3.31.532.3.2-.006.408-.056.555.143a.819.819,0,0,0,.751.341c.211-.016.445-.027.507.244.052.229-.093.391-.242.548a2.468,2.468,0,0,1-1.53.519,4.471,4.471,0,0,1-1.1.06c-1.3.021-1.673.546-1.22,1.742.037.585-.012,1.17.013,1.756.048.272-.01.64.344.711.369.075.539-.253.693-.524a2.31,2.31,0,0,0,.358-.941.567.567,0,0,1,.031-.149c.027-.064.136-.156.135-.078a6.811,6.811,0,0,1-.176,2.886c-.288.473-.326,1.04-.613,1.523a3.618,3.618,0,0,1-3.457,1.858,1.242,1.242,0,0,0-1.309,1.089,20.874,20.874,0,0,0-.43,2.38c-.021.295-.115.655.337.751.543.073.335.452.235.7a6.241,6.241,0,0,1-.83,1.575,1,1,0,0,0-.287.776,27.456,27.456,0,0,0,.392,4.845,14.532,14.532,0,0,0,1,3.847,5.623,5.623,0,0,0,2.337.574c2.37.4,4.734.82,7.1,1.247,2.313.417,4.611.949,6.933,1.275,2.358.331,4.668.867,7.006,1.272,2.085.361,4.2.578,6.259,1.043,1.394.315,2.818.4,4.208.769a44.735,44.735,0,0,0,4.631.767" transform="translate(-4.809 -226.816)"/><path class="cu" d="M260,323.477a.626.626,0,0,0,.037.086.949.949,0,0,0,.159.183,4.188,4.188,0,0,1,.761,2.064c.2.828.425,1.653.67,2.47a32.794,32.794,0,0,0,1.815,4.779c.611,1.273,1.479,2.4,2.2,3.6a6.577,6.577,0,0,0,2.2,2.579c1.115.578,2.481.435,3.683.737,1,.253,1.968.636,2.986.845,4.011.823,9.155-1.1,12.663-2.929a23.35,23.35,0,0,1,4.155-1.168,25.94,25.94,0,0,0,11.259-6.585,11.649,11.649,0,0,0,1.65-2.213c.948-1.61,2.143-3.057,3.04-4.7a29.341,29.341,0,0,0,2.409-5.815,30.839,30.839,0,0,0,1.389-7.03c.1-1.595.076-3.731.077-3.748l-.853,2.1c-2.9,7.147-4.347,10.72-6.663,13.386-2.487,2.864-7.219,5.81-10.57,5.247-2.872-.483-4.568-3.943-5.069-6.5-.105-.536-.4-1.737-1.219-1.213a.643.643,0,0,0-.175.429,38.7,38.7,0,0,1-.7,5.93,14.364,14.364,0,0,1-2,5.923,2.4,2.4,0,0,1-2.513.826c-1.862-.524-2.278-2.083-2.568-3.645-.236-1.271-.246-1.4-1.568-1.4a4.3,4.3,0,0,1-1.784-.229c-.687-.01-1.214-.5-1.87-.59-.6-.082-.945.42-1.3.84a8.445,8.445,0,0,1-2.568,2.537,1.377,1.377,0,0,1-.9.143,1.454,1.454,0,0,1-.525-.289,4.325,4.325,0,0,1-1.529-2.469,16.109,16.109,0,0,1-.329-3.878c.029-.656.136-1.3.213-1.956.062-.523.283-1.371-.069-1.828-.547-.712-1.02.745-1.126.992a10.537,10.537,0,0,1-1.236,2.149c-.384.516-.954,1.045-1.579.9-.394-.093-.648-.424-.965-.97h0a12.316,12.316,0,0,1-2.116-4.471l-.1.123a.682.682,0,0,0-.107.379,6.106,6.106,0,0,0,.252,1.629c.189.847.316,2.521.392,2.748" transform="translate(-215.237 -242.211)"/><path class="ce" d="M225.968,343.15a5.432,5.432,0,0,0,4.275-2.052c.562-.668,1.152-1.313,1.691-2,.462-.588.811-1.467,1.434-1.894.651-.446,1.49-.284,2.221-.463a5.044,5.044,0,0,0,1.81-.84,4.132,4.132,0,0,0,1.246-1.464,3.68,3.68,0,0,0,.314-.926c.016-.085.082-.987.06-.982a11.887,11.887,0,0,1-1.806.321,3.314,3.314,0,0,1-2.574-.752,2.217,2.217,0,0,1-.346-2.038,10.261,10.261,0,0,1,.959-2.669c.262-.549.475-.276.784.061a4.752,4.752,0,0,0,4.822,1.478,5.16,5.16,0,0,0,2.5-1.466,4.449,4.449,0,0,0,.979-2.9s.033-.37-.082-2.643a14.174,14.174,0,0,1-1.447,2.149,2.881,2.881,0,0,1-1.38.99,3.761,3.761,0,0,1-2.368-.719,5.145,5.145,0,0,1-.735-.847c.2-.021-.406.04-.609.064-.66.079-.739.594-1.778.859a1.259,1.259,0,0,0-1.1,1c-.6,1.587-1.311,3.127-2.043,4.66a46.565,46.565,0,0,1-4.431,7.345,22.162,22.162,0,0,1-2.685,3.322,1.907,1.907,0,0,0-.349,2.112c.1.38.4.259.635.3" transform="translate(-137.627 -252.668)"/><path class="cf" d="M229.486,274.94c-.586.613-1.061,1.393-2.066,1.381.233.714.384.8,1.042.6a3.806,3.806,0,0,1,3.69.768,3.658,3.658,0,0,1,.967,2.729c.152,2.409-.89,4.417-2.113,6.372a10.5,10.5,0,0,1-2.473,3.026,4.944,4.944,0,0,0-1.2,2.007l-.082.429,1.9-.672a11.955,11.955,0,0,0,6.365-6.729,10.881,10.881,0,0,0-.046-7.766,6.772,6.772,0,0,0-1.072-1.581l-.964-.807c-.217-.085-.355-.339-.632-.292-.548-.153-1.177-.111-1.569-.644a7.7,7.7,0,0,1-1.143.512.806.806,0,0,0-.6.665" transform="translate(-130.138 -219.718)"/><path class="ch" d="M295.418,271.757c.415.095.31.431.309.7,0,1.286-.014,2.572-.025,3.858a2.4,2.4,0,0,0,.634,1.632c.007.5.471.587.769.8a6.19,6.19,0,0,0,1.962.821,52.947,52.947,0,0,0,5.623.352,5.191,5.191,0,0,1,1.478.1,12.621,12.621,0,0,0,4-.13c.344-.123.687-.248,1.036-.357a3.148,3.148,0,0,0,2.011-2.952c.019-.579.165-1.148.157-1.731a.532.532,0,0,1,.64-.609c1.444.131,2.894.114,4.339.213.563.038.773.38.67.929a6.681,6.681,0,0,0-.1,1.18c-.018,2.237.97,3.445,3.154,4.011a22.705,22.705,0,0,0,4.241.415c1.389.093,2.786.155,4.182.192a10.017,10.017,0,0,0,3.822-.388,3.771,3.771,0,0,0,2.394-2.242,10.179,10.179,0,0,0,.111-2.406c-1.09-.118-1.086-.118-1.162-1.433-.016-.271.052-.59-.288-.744-.36.223-.294.593-.3.923-.02.763,0,1.528-.01,2.291a2.173,2.173,0,0,1-1.444,2.121,8.646,8.646,0,0,1-4.352.419c-1.5-.1-3-.132-4.491-.242a9.924,9.924,0,0,1-2.4-.432,1.977,1.977,0,0,1-1.553-2.109,24.784,24.784,0,0,1,.121-3.943,1.08,1.08,0,0,1,.329-.705,1.28,1.28,0,0,1,.836-.185,12.51,12.51,0,0,1,1.336.014,16.31,16.31,0,0,0,1.706.04,4.86,4.86,0,0,0-.546-.585,2.5,2.5,0,0,0-.333-.277,4.125,4.125,0,0,0-1.517-.483s.036,0,.036,0-.656-.005-1.556.021c-.388.011-.9.032-1.5.071a3.286,3.286,0,0,0-.323.87,3.25,3.25,0,0,0-.057.364c.068.643-.212.806-.812.761-1.548-.118-3.1-.212-4.65-.272-.488-.019-.621-.177-.612-.654.027-1.374-.383-1.728-1.766-1.8q-6.905-.341-13.809-.739a2.678,2.678,0,0,0-1.669.587c-.248.559,0,1.294-.615,1.723" transform="translate(-252.332 -216.763)"/><path class="cv" d="M374.6,277.523c-.086,1.057-.18,2.125.892,2.818a5.184,5.184,0,0,0,2.567.916c1.549.076,3.1.165,4.65.17a20.988,20.988,0,0,0,4.083.031,2.762,2.762,0,0,0,2.535-2.857c.051-1.181.14-2.359.15-3.542a.92.92,0,0,0-.821-1.051,4.549,4.549,0,0,0-.851-.152c-3.814-.022-7.61-.421-11.421-.5a2.223,2.223,0,0,0-1.216.254.718.718,0,0,0-.426.689c.026,1.079-.268,2.142-.143,3.227" transform="translate(-329.932 -219.437)"/><path class="cw" d="M392.288,280.385a1.883,1.883,0,0,0-2.017,1.845c.017.493.234.777.727.661a4.863,4.863,0,0,1,2.4.1c.709.186,1.035-.14.975-.876a2.012,2.012,0,0,0-2.087-1.734" transform="translate(-339.794 -224.249)"/><path class="cx" d="M273.775,276.189a2.353,2.353,0,0,1,1.272-.117,1.637,1.637,0,0,0,2-1.516,10.625,10.625,0,0,0-1.7.007,4.058,4.058,0,0,0-1.716.34q-4.554.416-9.108.831c-.654.059-1.31.106-1.965.16-.281.023-.482.027-.526-.374a1.365,1.365,0,0,0-1.481-1.228c-2.469-.129-4.939-.237-7.409-.344-1.287-.056-2.576-.091-3.864-.135h-1.338q.629.372,1.294.744.557.312,1.1.6h0l.677.013a10.4,10.4,0,0,1,2.352.094c1.745.177,3.5.215,5.249.306.1.005,1.4.015,1.582.532a4.655,4.655,0,0,1,.1.59c-.023,1.643-.035,2.529-.035,2.529l1.8.283a13.187,13.187,0,0,1,.093-1.328c.043-.343.074-.451.158-.551a.882.882,0,0,1,.59-.263c1.464-.19,2.937-.279,4.405-.422,1.913-.187,3.824-.4,5.745-.5a1.231,1.231,0,0,0,.735-.249" transform="translate(-177.518 -219.753)"/><path class="cy" d="M279.7,511.482a.462.462,0,0,0,.849.116c.237-.471,1.078-.653,1.544-.765a8.264,8.264,0,0,1,2.442.2,12.705,12.705,0,0,1,2.627.351,11.3,11.3,0,0,0,2.715.6.4.4,0,0,0,.276-.079c.29-.248,0-1-.067-1.172-.081-.044-.171-.089-.27-.133s-.205-.083-.3-.113a.506.506,0,0,0,.1-.43.48.48,0,0,0-.583-.331c-.063.017-.127.028-.19.043-.637-.655-1.3-1.283-1.911-1.967-.463-.52-1.492-1.546-1.2-2.344a1.566,1.566,0,0,1,.745-.88,1.152,1.152,0,0,1,.515-.1c.2,0,.4,0,.6.006a.428.428,0,0,0,.227.423,38.024,38.024,0,0,1,5.928,3.387c.968.636,1.894,1.338,2.91,1.9,1,.548,2.026,1.027,3.06,1.5.528.24.989-.5.541-.782a5.375,5.375,0,0,1,.607-1.751,15.428,15.428,0,0,0,.832-2.211c.173-.547.64-.87.777-1.381a1.441,1.441,0,0,1,.984-1.077c.193.5.454,1.182.761,1.993,0,0,1.763,4.664,1.592,6.154a3.981,3.981,0,0,0-.028.469,4.071,4.071,0,0,0,.056.673c2.647.3,3.554,1.128,3.893,1.833.4.826-.012,1.425.625,2.387.611.922,1.465,1.093,1.506,1.876a1.728,1.728,0,0,1-.341.966,4.235,4.235,0,0,1-1.535,1.534c.758-.919,1.206-.889,1.364-.852.71.163,1.1,1.723,1,3.938a1.485,1.485,0,0,1,.249.4,1.324,1.324,0,0,1-.248.888,17.047,17.047,0,0,1-4.346,5.323c-.415.329-.812.888-1.5.706q-.812-.59-1.638-1.214-.973-.735-1.895-1.464c-.049.036-.1.073-.145.109a23.588,23.588,0,0,0-2.67,1.008,10.9,10.9,0,0,1-3.52-.124,12.329,12.329,0,0,1-2.877-.76,6.3,6.3,0,0,0-1.222-.477.4.4,0,0,0-.338-.426,13.071,13.071,0,0,1-1.568-.6,4.878,4.878,0,0,0-1.743-.174c-.64.012-1.278.052-1.916.112a1.979,1.979,0,0,0,.13-.155.474.474,0,0,0-.818-.478h0c-.017.01-.029.029-.028.032l-.022.027c-.033.035-.068.069-.1.1l-.043.036h0c-.047.031-.093.064-.141.093a2.955,2.955,0,0,1-.3.155l-.041.017-.028.011c-.052.021-.1.04-.156.058-.417.147-.85.241-1.279.348a.453.453,0,0,0-.325.335A2.716,2.716,0,0,1,282.3,528.2a1.977,1.977,0,0,1,1.519-3.14,1.317,1.317,0,0,1,.964-.231c.653-.01,1.307.012,1.959-.011.346-.012.649-.087.512-.556a.593.593,0,0,0-.087-.322.85.85,0,0,0-.164-.182c.149,0,.3.006.448.006a.474.474,0,0,0,0-.947,18.4,18.4,0,0,1-4.191-.378c-1.106-.259-2.546-.768-2.643-2.027.394-.344.71-.755,1.091-1.117a1.654,1.654,0,0,1,1.515-.381c1.285.2,2.556.9,3.862.4.565-.216.318-1.131-.252-.913a2.4,2.4,0,0,1-1.052.135.774.774,0,0,0,.473-.122,1.363,1.363,0,0,0,.558-1.052,1.745,1.745,0,0,0-.147-.734c.323.038.645.084.964.149a.5.5,0,0,0,.5-.773.459.459,0,0,0-.25-.141,4.412,4.412,0,0,1-1.316-.578c-.39.219-.523.211-.571.163s0-.111-.044-.2a.525.525,0,0,0-.43-.275,13.67,13.67,0,0,1-4.232-1.186.6.6,0,0,0-.262-.055.473.473,0,0,0-.943.048,1.82,1.82,0,0,0,.122.709,1.9,1.9,0,0,1-.384-.359,2.2,2.2,0,0,1-.45-1.231,2.731,2.731,0,0,1,.328-1.42" transform="translate(-223.014 -377.587)"/><path class="d" d="M156.728,426.4l-1.883-3.174a1.86,1.86,0,0,1-.667-.616,15.042,15.042,0,0,0-3.923-3.178,8.8,8.8,0,0,1-1.107-.634,1.089,1.089,0,0,0-1.212.079,9.942,9.942,0,0,1-1.019.521,38.949,38.949,0,0,0-4.408,2.574c-.3.234-.637.412-.946.632a48.927,48.927,0,0,0-4.458,3.62c-1.506,1.367-2.268,2.042-2.663,2.419a115.131,115.131,0,0,0-12.462,17.247l-.006.011c.278.642.552,1.343.809,2.1.22.648.406,1.271.562,1.861a23.842,23.842,0,0,1,.853,3.827c.026.262.123,1.359.123,1.359a6.783,6.783,0,0,1,1.336,1.435,12.251,12.251,0,0,1,1.677,6.081,3.716,3.716,0,0,0,.427,2.072,3.293,3.293,0,0,0,1.618,1.256c.1-.1.209-.206.323-.311.136-.125.271-.242.4-.349,0,0,.443-.379,1.23-1.019.152-.011.378-.025.652-.027,2.041-.015,3.273.719,6.448,2.045,1.986.829,4.015,1.554,5.978,2.443.337.153.694.463,1.06.029a2.442,2.442,0,0,0,.116-1.014q0-11.588,0-23.177a2.358,2.358,0,0,0-.089-.923c.609,2.424,1.161,4.862,1.776,7.284.6,2.374,1.19,4.752,1.779,7.13.7,2.836,1.493,5.652,2.145,8.5a26.97,26.97,0,0,1,1.083,5.161c-.068.465.327.545.605.716.878.539,1.858.871,2.77,1.344,1.658.86,3.265,1.806,4.892,2.72a24.9,24.9,0,0,1,5.5,4.088,19.306,19.306,0,0,1,3.334,4.48c.885,1.645,1.858,3.649,1.738,5.561-.03.487.138,1.414.58.744a3.944,3.944,0,0,0,.212-1.634,23.934,23.934,0,0,0,.007-3.245,73.6,73.6,0,0,0-1.563-9.267c-.635-2.984-1.07-6-1.7-8.986-.228-1.077-.416-2.169-.671-3.24-.146-.613-.388-1.319.531-1.307.889.012,1.78.028,2.668-.013.293-.014.723.12.771-.406a4.48,4.48,0,0,0-2.154-.189c-.442-.01-.885,0-1.327-.01a2.084,2.084,0,0,1-.65-.106c-.763-.263-.728-1.579-1.229-4.036-.327-1.6-.656-2.587-.159-3.127a1.852,1.852,0,0,1,.722-.472c.3-.046.607-.027.909-.063.337-.039.676-.069,1.014-.088.781-.044,1.562-.092,2.342-.152q.8-.061,1.591-.142c2.242-.231,4.489-.448,6.744-.54.365-.015.912-.08,1.042-.48a.184.184,0,0,0,.01-.1c-.023-.1-.177-.151-.228-.24-.025-.043-.038-.066-.066-.458-.017-.236-.032-.48-.032-.48l-.055-.024c-7.856.416-8.022.451-8.022.451-.188.04-2.112.237-5.972.47-.542.033-.684-.28-.773-.692-.2-.925-.326-1.864-.527-2.789-.134-.615-.258-1.234-.387-1.851a8.086,8.086,0,0,0-.225-1.572,26.235,26.235,0,0,1-.641-3.579c-.146-.128-.457-.091-.434-.383a6.451,6.451,0,0,0-.363-2.284,10.334,10.334,0,0,0-.637-2.5,15.075,15.075,0,0,0-.627-1.589c-.5-.4-.368-1.067-.647-1.56-.429-.321-.294-.915-.622-1.284a4.14,4.14,0,0,1-.626-1.272,4.668,4.668,0,0,1-.607-.967l-.044-.285a4.81,4.81,0,0,1-.855-1.776,6.268,6.268,0,0,1-1.044-1.674,5.341,5.341,0,0,0-.634-.985" transform="translate(-41.498 -318.852)"/><path class="f" d="M196.042,590.032c.183-3.17-1.207-5.768-2.85-8.344a21.668,21.668,0,0,0-6.978-6.495c-2.409-1.533-4.971-2.8-7.494-4.134-1.2-.633-2.4-1.266-3.621-1.844-3.015-1.421-6.175-2.494-9.293-3.661-2.994-1.121-5.964-2.691-9.184-3.044-.125.508.231.9.327,1.353a4.222,4.222,0,0,1-.019,1.946c-.7,2.619-2.475,4.468-4.432,6.192-1.5,1.325-1.24,1.071-.232,2.3a18.638,18.638,0,0,0,3.96,3.251c4.085,2.85,8.185,5.676,12.249,8.557,2.429,1.722,4.893,3.4,7.333,5.1a16.068,16.068,0,0,0,4.91,1.963q1.755.5,3.547.843c.6.115,1.2.193,1.8.308a8.942,8.942,0,0,0,1.469.323,13.6,13.6,0,0,0,5-.349,5.2,5.2,0,0,0,3.554-3.3c.107-.327.233-.654-.043-.964" transform="translate(-66.211 -417.294)"/><path class="cz" d="M212.714,574.441c.057.085.322.1.51.326a.394.394,0,0,1,.061.283c.023.129.121.178.231.214l6.033,4.129c.987.668,1.919,1.407,2.92,2.061,1.028.672,2.077,1.313,3.11,1.977.762.489,1.552.937,2.316,1.428.431.277.911.468,1.343.744.4.255.643.656,1.13.747a3.87,3.87,0,0,1,.859.169c.5.218.766.793,1.255,1.039a5.51,5.51,0,0,0,.876.247,7.693,7.693,0,0,1,1.421.812c.582.329,1.17.641,1.774.928,1.175.559,2.385,1.04,3.6,1.493l.523.194q.59.217,1.183.424c.308.107.87.41.6-.093-.3-.558-1.293-.876-1.793-1.224q-4.685-3.249-9.334-6.547c-3.734-2.654-7.516-5.242-11.292-7.837a21.857,21.857,0,0,1-2.641-2.58c-.211-.2-.111-.364.1-.577.592-.6,1.259-1.109,1.863-1.7a11.734,11.734,0,0,0,3.274-4.814,7.131,7.131,0,0,0,.151-2.321,3.917,3.917,0,0,0-.347-1.238l-.151-.273a.57.57,0,0,0-.341.005c-.038.016-.038.026-.038.029,0,.021.092.028.165.031a13.278,13.278,0,0,1-1.323,3.543,22.673,22.673,0,0,1-5.574,6.207c-1.488,1.219-2.591,1.981-2.465,2.17" transform="translate(-131.878 -417.24)"/><path class="da" d="M355.794,522.635l8.352,2.333a6.487,6.487,0,0,1,.442-3.292,5.989,5.989,0,0,1,.4-.774c-3.781.312-6.547.608-7.374.711a2.655,2.655,0,0,0-1.347.517,2.243,2.243,0,0,0-.471.505" transform="translate(-299.512 -388.823)"/><path class="da" d="M344.319,504.611l5.508.691,1.04-1.876a31.51,31.51,0,0,0-4.8.157,2.57,2.57,0,0,0-1.3.521,2.232,2.232,0,0,0-.454.506" transform="translate(-281.771 -376.853)"/><path class="da" d="M354.614,547.493l8.014,2.3q.171-1.868.342-3.737c-.282,0-.695,0-1.194,0a43.862,43.862,0,0,0-5.413.405,2.546,2.546,0,0,0-1.3.521,2.231,2.231,0,0,0-.454.506" transform="translate(-297.124 -406.038)"/><path class="da" d="M350.606,565.99l8.339.064-.676-3.691c-.272.075-.67.185-1.15.32a43.93,43.93,0,0,0-5.1,1.846,2.548,2.548,0,0,0-1.108.851,2.243,2.243,0,0,0-.3.61" transform="translate(-291.833 -417.193)"/><path class="db" d="M294.091,512a2.291,2.291,0,0,1,2.555-1.993l6.959.861.861.165c.1-.068.2-.142.312-.224.135-.1.258-.208.369-.309l-3.719-2.338a2.291,2.291,0,1,1,2.439-3.879c1.947,1.224,3.077,1.787,6.241,3.805a26.96,26.96,0,0,0,3.063,1.685,10.559,10.559,0,0,1,9.668,7.636c1.313,5.075-1.99,9.779-5.8,11.822a11.681,11.681,0,0,1-11.3-.307l-6.641.2a2.291,2.291,0,0,1-.141-4.58l2.972-.092a12.468,12.468,0,0,1-.661-1.667l-4.088-.505a2.291,2.291,0,0,1,.562-4.548l3.081.381c.02-.166.043-.333.072-.5a11.235,11.235,0,0,1,.685-2.382l-5.5-.68A2.291,2.291,0,0,1,294.091,512" transform="translate(-238.17 -377.214)"/><path class="dc" d="M277.43,564.334q.289.18.6.36.441.257.864.477c.226-.51.406-.9.524-1.148a4.674,4.674,0,0,0,.344-1.243c.01-.078.022-.206-.045-.25a.134.134,0,0,0-.1-.009,6.485,6.485,0,0,0-1.577,1.07,4.142,4.142,0,0,0-.6.742" transform="translate(-189.551 -417.298)"/><path class="dd" d="M301.807,591.9q-.269-.18-.549-.38t-.536-.4c-.269.491-.487.869-.64,1.13,0,0-.123.205-.314.561a2.866,2.866,0,0,0-.322.678c-.051.189-.111.529-.111.529l2.473-2.12" transform="translate(-218.506 -436.874)"/><path class="de" d="M440.2,526.178c-.055.02-5.541.816-5.693.816s-3.6,2.273-3.6,2.273-.493,1.857.644,1.288,8.648-3.973,8.648-3.973Z" transform="translate(-398.413 -392.434)"/><path class="de" d="M435.347,544.144l-3.646-.383s-2.8.909-2.69.909a18.511,18.511,0,0,1,.531,2.425l5.805-2.16Z" transform="translate(-392.991 -404.465)"/><path class="de" d="M437.143,560.344l-3.646-.383s-2.8.909-2.69.909a18.521,18.521,0,0,1,.53,2.425l5.805-2.16Z" transform="translate(-395.354 -415.55)"/><path class="db" d="M420.228,515.217c.008-.023.018-.046.027-.07.014-.064.029-.128.049-.192q2.046-7.429,4.093-14.856a2.612,2.612,0,0,1,4.941,1.6l-.955,6.3a14.255,14.255,0,0,1,3.466-.649,28.749,28.749,0,0,0,2.781-1.488l5.376-3.1a2.291,2.291,0,1,1,2.291,3.968l-5.332,3.079c.072.062.146.122.217.185l8.021-2.881a2.291,2.291,0,0,1,1.549,4.313l-6.779,2.435a10.767,10.767,0,0,1,.395,1.067l4.456-1.6a2.291,2.291,0,0,1,1.549,4.313l-5.6,2.01c-.01.081-.026.163-.038.245l3.515-1.263a2.291,2.291,0,0,1,1.549,4.313L437.3,526c-5.093,3.792-14.215,1.485-16.841-3.89a9.317,9.317,0,0,1-.227-6.9" transform="translate(-402.963 -373.534)"/><path class="df" d="M445.807,547.034a35.775,35.775,0,0,0-2.52-11.552,10.931,10.931,0,0,1,2.52,11.552" transform="translate(-408.645 -398.8)"/><path class="df" d="M359.024,529.951a35.783,35.783,0,0,0-1.7,11.7,10.931,10.931,0,0,1,1.7-11.7" transform="translate(-293.725 -395.015)"/></g></svg>