<svg xmlns="http://www.w3.org/2000/svg" xmlns:xlink="http://www.w3.org/1999/xlink" width="421.607" height="323.118" viewBox="0 0 421.607 323.118"><defs><style>.a,.b{fill:#ffd000;}.a,.d,.e,.f{opacity:0.1;}.c{opacity:0.11;clip-path:url(#a);}.f{clip-path:url(#b);}</style><clipPath id="a"><path d="M457.878,605.59a3.846,3.846,0,0,1-1.153,1.006,12.859,12.859,0,0,1-4.941,1.367c-.193.1-.392.2-.588.3.018.074.038.148.051.227-2.192.736-3.383,2.477-6.374,2.418a33.153,33.153,0,0,1-10.113,1.667c-.135.046-.265.122-.4.155l-.005.1c-12.417,4.64-29.4-.537-41.5-2.408-2.439-3.671-2.64-9.584-4.826-13.517-.043-8.288-2.93-15.912-3.856-24.6-1.637-15.332,2.141-30.086,10.612-35.7,11.969-5.053,20.7-13.349,28.52-22.554V493.267a4.992,4.992,0,0,1-3.913,2.815c-1.629-3,.942-7.8,3.913-9.635V475.922c-1.9,5.491-3.546,11.218-6.8,15.337.26,1.866-.86,2.352-.481,4.338-7.092,10.006-12.626,23.918-21.713,31.842-2.525,2.2-5.817,5.022-9.653,4.824-1.436-2.029.321-4.3.486-6.267-.219-1.721-2.311-1.558-3.383-2.416-3.447-5.02-.937-11.457,0-18.817.82-6.44-1.387-14.6-1.927-21.222-.005-.048-.01-.089-.015-.137-.537-2.535-1-5.071-1.288-7.624-1.209-3.839-3.434-6.506-7.868-7.68-7.672-2.024-9.77,11.211-9.65,16.887.321,15.174,6.43,26.089,6.728,39.621.01.081.038.158.041.242a2.805,2.805,0,0,1,.061.682c.092.565.155,1.133.229,1.7l-.135-1.016c.115.86.308,1.711.361,2.579.01.171-.038.334-.043.5a12.917,12.917,0,0,1-.489,4.9l-.025-.008a4.3,4.3,0,0,1-.272,2.047c3.383,10.2,2.439,26.69,4.641,39.922,1.016,6.1,4.742,17,.484,24.127-14.594-5.549-23.872-22.688-28.953-39.079-.7-2.237-2.357-4.223-1.932-6.753-.634-1.3-1.3-2.563-1.93-3.859-3.149-24.995-4.516-51.769-21.714-62.717-11.811,3.574-7.8,21.026-4.345,30.875,1.138,4.75,7.377,32.866,8.2,38.6.326,2.261,1.487,4.1,1.927,5.786,5.842,22.475,17,40.438,34.747,51.148,2.609-.038,4.592.56,5.791,1.924.074.028.145.059.216.092a3.6,3.6,0,0,1,1.347.387l0,0c.445.107.881.252,1.324.364.675.171,1.357.323,2.029.5a5.172,5.172,0,0,0,4.735-.858c5.351,3.66,4.908,13.112,8.207,18.819,3.162,23.7,13.367,45.438,9.167,72.39h3.859c.046-1.721.227-3.32,1.448-3.869,2.016.084,1.81,2.375,2.411,3.869h14.96c-9.047-15.785-14.352-40.12-18.338-61.289-.98-5.2-4.45-12.911-2.413-16.9-2.12-.759-2.207-7.087.486-7.229a248.931,248.931,0,0,0,29.437,1.922c7.672.015,15.675,1.56,22.195,0,3.643-.86,9.92-4.05,13.993-6.27,5.529-3,8.665-8.016,11.587-13.036C468.458,602.112,462.086,603.714,457.878,605.59ZM418.914,502.355c-.372,4.134-1.326,7.685-5.31,8.2C413.252,510.1,415.327,501.581,418.914,502.355Zm-9.167,16.4C408.67,522.676,406.351,518.321,409.747,518.756ZM397.2,530.822c-1.563,3.9-4.826,6.1-8.685,7.713-.471-.652-1.627-.621-1.93-1.443C388.286,533.441,393.1,530.478,397.2,530.822Zm-55.5,35.7c-4.376,2.026-6.779-1.843-5.786-6.753C339.722,560.139,340.669,563.374,341.7,566.521Zm-5.786-14c-1.013.277-1.385,1.2-2.9.967-.015-.466-.591-.372-.967-.484-.27-1.894-1.39-6.181.489-7.234C334.142,547.544,336.13,548.928,335.916,552.523Zm-4.345-23.63c-3.7.379-4.684-4.19-3.38-7.237C331.047,522.34,333.585,526.265,331.571,528.892Zm-5.3-21.232c3.238-.112,6.359,7.494.479,6.756C325.7,513.049,324.4,509,326.266,507.66ZM314.2,502.355c2.309-1.094,5.936,3.948,3.38,6.272C314.327,508.968,312.752,505.1,314.2,502.355Zm2.347,12.2c.066-.025.13-.054.193-.071h-.005a3.447,3.447,0,0,1,3.571.9,3.512,3.512,0,0,0-3.566-.9,6.054,6.054,0,0,1,4.215,5.72C317.682,521.414,314.668,517.331,316.542,514.556Zm4.892-12.679c-2.782-.71-5.267-5.384-2.9-8.2,2.645,1.059,3.63,3.762,5.307,5.786C323.932,501.148,322.15,500.973,321.435,501.877Zm2.411,29.908c2.966-.82,8.006,8.436.965,8.2C323.72,538.336,322.794,533.983,323.845,531.784Zm1.932,27.983c.211-2.212-.484-5.315.489-6.761,2.848,1.176,4.549,3.495,5.3,6.761C330.028,561.351,327.19,561.547,325.777,559.767Zm7.24,17.366c-1.161.193-1.046-.886-2.411-.486-.563-2.179-2.276-6.114-.489-7.713C332.91,569.624,335.466,574.239,333.017,577.133Zm6.756,11.1c-4.065.756-5.285-3.582-4.826-5.786C338.291,582.56,341.394,584.653,339.773,588.229Zm0-13.99c3-.209,5.926,3.243,6.275,7.237-.715.247-1.219.71-1.932.967C341.343,581.028,339.656,578.541,339.773,574.239Zm9.169,27.5c-4.343,0-5.32-3.368-6.272-6.758,3.739-1.846,4.256,3.375,7.232,3.867C350.288,600.514,349.367,600.883,348.942,601.738Zm13.028,6.753c-4.068,1.3-8.026-.333-8.685-4.826C355.937,603.678,362.868,603.347,361.97,608.492Zm1.451-6.275c3.925.1,5.979,2.065,9.167,2.892C372.246,613.259,362.983,607.438,363.421,602.217ZM383.2,595.95c-5.608.581-5.172-5.178-3.862-9.164h1.451C382.217,588.975,385.256,593.333,383.2,595.95Zm-.962-47.762c-.568-.082-.863.1-.97.478-3.724.507-5.295-7.738,0-6.756C382.293,543.163,383.386,546.311,382.243,548.188Zm-.486-12.542c-4.877,2.4-6.555-4.45-5.31-8.207h.965C380.318,528.717,381.156,532.069,381.756,535.646Zm-4.345-29.913c-1.413.127-1.482-1.089-2.894-.97-.558-1.566-.9-5.244,0-6.748h.965C378.4,498.4,379.224,503.508,377.411,505.733Zm0-12.061c-4.053.743-3.895-4.979-2.894-7.723C378.175,486.023,379.145,491.025,377.411,493.672ZM372.1,473.893c2.716.305,5.9,6.677,1.932,7.716C371.33,481.3,371.353,476.077,372.1,473.893Zm-4.343,1.924c.687,1.7,2.805,5.3,0,6.28C364.022,482.383,364.022,475.53,367.761,475.818Zm-1.927,14c2.922.29,3.421,3.006,3.859,5.783-.718.252-1.219.72-1.932.965C365.147,496.47,364.841,491.951,365.834,489.813Zm2.894,10.61c1.891,1.169,2.907,3.207,3.375,5.8a3.671,3.671,0,0,1-3.375.965C367.746,506.145,366.862,501.268,368.728,500.423Zm2.892,13.514c.4,2.495,3.08,2.708,2.9,5.781-.43.221-.858.433-.965.972C369.927,521.482,368,514.515,371.62,513.937Zm1.932,17.847a15.455,15.455,0,0,0,2.416,6.272c-.8.807-1.26,1.947-2.9,1.927C370.35,538.95,369.276,532.018,373.552,531.784Zm-.965,12.539c2.4,1.619,3.7,4.337,4.345,7.721-1.588.025-2.4.817-4.345.479C371.971,550.593,371.7,546.22,372.587,544.323Zm4.345,11.58c1.278,2.744,2.3,5.745,3.375,8.683-.466.013-.372.588-.478.967-.807.81-2.833.379-4.348.484C373.827,564.642,372.109,555.114,376.933,555.9Zm-.486,15.915c2.115,1.382,5.091,5.572,2.9,8.209C375.739,580.142,374.692,574.03,376.446,571.818Zm2.421,30.4c3.574.929,3.317,5.687,5.786,7.726.229,1.512-1.3,1.273-1.448,2.416C377.365,613.59,376.841,605.8,378.867,602.217Zm1.927,19.3c3.859.649,5.427,3.584,6.275,7.247C382.434,630.735,380.621,625.944,380.794,621.517Zm16.887,76.74c-4.327-.336-3.91-3.958-2.9-7.726H397.2C398.453,692.26,399.293,696.466,397.681,698.258Zm5.31-1.456c3.806.382,3.274,5.1,5.3,7.237C405.188,711.154,399.018,701.183,402.991,696.8Zm-3.378-12.542c-4.686,3.187-7.845-6.835-1.932-6.28C398.089,680.607,400.637,681.516,399.613,684.26Zm-4.345-13.52c-5.669.387-5.137-5.193-4.345-9.166C394.833,661.849,397.246,667.676,395.268,670.74Zm-5.786-15.92c-.015-.471-.6-.384-.97-.481-.6-1.807-.891-5.967,0-7.72,2.421,1.122,3.465,3.612,3.864,6.751C391.595,654.039,391.185,655.083,389.482,654.821Zm2.406-13.023c-.774.988-2.416,1.11-4.34.955-2.187-1.484-2.449-10.045,1.935-7.715C390.09,637.48,391.091,639.537,391.888,641.8Zm-4.34-21.235c-.621-.982-2.339-.881-1.932-2.9,2.487-1.372,3.571-4.147,6.761-4.829C393.98,616.793,390.508,619.58,387.548,620.563Zm11.58,0a3.683,3.683,0,0,1-.967-3.386c2.283-.489,3.846-3.034,6.277-1.929C404.473,618.827,402.271,620.168,399.127,620.563Zm7.723,1.93c-.257-1.708-1.415-2.164-.486-3.864,2.907.346,4.093-3.111,6.761-1.451C412.55,620.463,410.478,622.26,406.85,622.492Zm14.958,0c-1.774-.158-4.271.41-5.307-.489.321-3.223,3.266-3.811,6.758-3.859C423.733,620.547,422.269,621.023,421.808,622.492Zm6.761-3.38c3.508.028,5.656-4.992,8.683-2.413C437.193,620.308,429.165,626.234,428.569,619.112Zm13.993-.967c-.173-2.68,4.775-4.164,7.718-5.31C452.141,616.8,446.039,621.125,442.562,618.144Zm12.55-2.9c-.125-1.647-1.222-2.314-.965-4.335,2.512-.96,5.058-4.154,8.2-2.9C461.31,611.806,459.1,614.41,455.111,615.247Z" transform="translate(-3352.83 -2663.636) rotate(-3)"/></clipPath><clipPath id="b"><path class="a" d="M0,0S53.7-41.653,180,15.136s180,9.245,180,9.245V214H0V0Z" transform="translate(-3211 -2257)"/></clipPath></defs><g transform="translate(2633 2868.093)"><path class="b" d="M0,0S53.7-41.653,180,15.136s180,9.245,180,9.245V214H0V0Z" transform="translate(-2633 -2852)"/><g class="c" transform="translate(634 -572.043)"><path d="M0,0S53.7-41.653,180,15.136s180,9.245,180,9.245V214H0V0Z" transform="translate(-3260 -2273)"/></g><path class="d" d="M307.13,85.226c-13.8-1.686-25.678-12.471-28.143-25.141-2.948-15.147,3.226-29.313,16.183-36.185,12.694-6.737,28.545-5.483,39.463,5.979-14.763-.338-26.276,4.828-32.85,17.978C295.161,61.11,297.439,73.49,307.13,85.226Z" transform="translate(-2895.262 -2865.793)"/><g class="e" transform="translate(-2567.192 -2835.109)"><path d="M316.278,25.758c3.108,0,5.658-.179,8.17.057,2.09.2,3.024-.678,3.732-2.457.91-2.287,2.045-4.485,3.319-7.235,1.078,3.053,2.094,5.541,2.817,8.111.531,1.883,1.809,2.257,3.426,2.363a44.407,44.407,0,0,1,7.565,1.022,39.07,39.07,0,0,1-6.208,4.867,3.2,3.2,0,0,0-1.508,4.031c.66,2.435,1,4.961,1.574,7.987-2.55-1.751-4.817-3.067-6.785-4.735-1.542-1.309-2.72-1.146-4.27-.171-2.151,1.352-4.427,2.507-7.179,4.041,1-3.231,1.779-5.931,2.687-8.588a2.359,2.359,0,0,0-.687-2.857C320.9,30.215,318.513,28.6,316.278,25.758Z" transform="translate(-292.481 -16.123)"/><path d="M298.621,26.126c1.825,0,3.324-.105,4.8.034a1.888,1.888,0,0,0,2.193-1.443c.534-1.344,1.2-2.635,1.95-4.249.633,1.793,1.229,3.255,1.655,4.764.311,1.106,1.062,1.326,2.012,1.388a26.038,26.038,0,0,1,4.443.6,23.05,23.05,0,0,1-3.647,2.859,1.877,1.877,0,0,0-.885,2.368c.388,1.431.585,2.914.924,4.692-1.5-1.028-2.83-1.8-3.985-2.782a1.818,1.818,0,0,0-2.508-.1c-1.263.794-2.6,1.472-4.217,2.373.589-1.9,1.046-3.484,1.58-5.045a1.389,1.389,0,0,0-.4-1.679A34.652,34.652,0,0,1,298.621,26.126Z" transform="translate(-298.621 -14.612)"/><path d="M324.262,51.789c2.383,0,4.34-.137,6.267.043a2.464,2.464,0,0,0,2.863-1.884c.7-1.755,1.567-3.441,2.546-5.55.826,2.342,1.606,4.251,2.16,6.221.407,1.446,1.388,1.732,2.628,1.813a34.127,34.127,0,0,1,5.8.784,30.035,30.035,0,0,1-4.76,3.733,2.451,2.451,0,0,0-1.158,3.09c.507,1.869.764,3.806,1.208,6.127-1.956-1.342-3.7-2.352-5.2-3.632a2.376,2.376,0,0,0-3.275-.131c-1.651,1.038-3.4,1.923-5.507,3.1.767-2.479,1.364-4.55,2.061-6.586a1.81,1.81,0,0,0-.527-2.193A45.348,45.348,0,0,1,324.262,51.789Z" transform="translate(-289.705 -6.29)"/><path d="M308.021,40.881c1.992,0,3.627-.115,5.236.035a2.059,2.059,0,0,0,2.394-1.574c.582-1.466,1.31-2.875,2.128-4.638.69,1.957,1.341,3.551,1.8,5.2.341,1.208,1.16,1.447,2.2,1.515a28.507,28.507,0,0,1,4.848.654,24.985,24.985,0,0,1-3.979,3.12,2.048,2.048,0,0,0-.966,2.584c.423,1.562.638,3.181,1.008,5.12-1.633-1.123-3.088-1.966-4.348-3.035a1.984,1.984,0,0,0-2.737-.109c-1.379.867-2.838,1.607-4.6,2.59.643-2.071,1.142-3.8,1.724-5.506A1.513,1.513,0,0,0,312.287,45,37.879,37.879,0,0,1,308.021,40.881Z" transform="translate(-295.352 -9.662)"/></g><g class="f" transform="translate(578 -596.364)"><g transform="translate(-3733.438 -2454.348) rotate(17)"><path d="M604.108,158.44c-.607,2.046-2.52,3.311-4.232,2.792-1.74-.512-2.654-2.6-2.043-4.649.618-2.073,2.5-3.323,4.238-2.807S604.718,156.367,604.108,158.44Z" transform="translate(0.732 15.393)"/><path d="M608.943,150.382c-.607,2.046-2.521,3.311-4.232,2.791-1.741-.51-2.656-2.6-2.043-4.649.616-2.072,2.5-3.32,4.238-2.807S609.553,148.307,608.943,150.382Z" transform="translate(3.655 10.52)"/><path d="M615.791,142.727c-.6,2.048-2.518,3.311-4.228,2.792-1.74-.512-2.657-2.6-2.046-4.649.621-2.073,2.507-3.323,4.24-2.807S616.4,140.654,615.791,142.727Z" transform="translate(7.797 5.891)"/><path d="M630.962,173.505c-.6,2.046-2.516,3.311-4.227,2.792-1.741-.51-2.657-2.6-2.046-4.649.619-2.075,2.507-3.322,4.241-2.807S631.577,171.432,630.962,173.505Z" transform="translate(16.972 24.503)"/><path d="M626.724,180.935c-.605,2.048-2.518,3.312-4.23,2.792-1.741-.513-2.656-2.6-2.043-4.649.618-2.075,2.5-3.325,4.238-2.807S627.337,178.861,626.724,180.935Z" transform="translate(14.408 28.996)"/><path d="M625.734,189.52c-.6,2.051-2.519,3.312-4.232,2.792-1.74-.51-2.656-2.6-2.041-4.649.616-2.07,2.5-3.322,4.238-2.805S626.345,187.449,625.734,189.52Z" transform="translate(13.809 34.188)"/><path d="M626.064,197.776c-.605,2.049-2.518,3.311-4.23,2.791-1.739-.51-2.656-2.6-2.044-4.649.619-2.07,2.505-3.32,4.238-2.807S626.674,195.7,626.064,197.776Z" transform="translate(14.009 39.18)"/><path d="M628.706,206.362c-.6,2.046-2.519,3.311-4.23,2.794a3.618,3.618,0,0,1-2.046-4.65c.621-2.073,2.507-3.323,4.241-2.807S629.316,204.289,628.706,206.362Z" transform="translate(15.606 44.372)"/><path d="M631.348,214.288c-.607,2.046-2.519,3.311-4.232,2.792a3.614,3.614,0,0,1-2.043-4.649c.619-2.075,2.5-3.325,4.24-2.807S631.958,212.214,631.348,214.288Z" transform="translate(17.204 49.165)"/><path d="M624.745,219.9c-.607,2.049-2.521,3.312-4.232,2.792-1.74-.512-2.656-2.6-2.044-4.649.62-2.07,2.505-3.322,4.24-2.807S625.353,217.831,624.745,219.9Z" transform="translate(13.21 52.56)"/><path d="M607.536,139.094c-.6,2.048-2.521,3.311-4.23,2.792-1.741-.512-2.654-2.6-2.046-4.649.62-2.072,2.505-3.323,4.241-2.807S608.146,137.021,607.536,139.094Z" transform="translate(2.805 3.694)"/><path d="M603.224,132.985c-.6,2.048-2.516,3.311-4.23,2.792-1.74-.512-2.656-2.6-2.043-4.65.619-2.072,2.5-3.322,4.24-2.805S603.837,130.912,603.224,132.985Z" transform="translate(0.197 0)"/><path d="M614.14,133.81c-.6,2.049-2.516,3.312-4.232,2.792-1.74-.512-2.654-2.6-2.041-4.649.618-2.072,2.5-3.322,4.238-2.805S614.751,131.738,614.14,133.81Z" transform="translate(6.798 0.5)"/><path d="M602.913,145.039c-.605,2.046-2.519,3.311-4.232,2.792-1.74-.514-2.656-2.6-2.043-4.649.618-2.075,2.5-3.323,4.24-2.807S603.523,142.964,602.913,145.039Z" transform="translate(0.009 7.289)"/><path d="M624.357,137.85c-.605,2.048-2.518,3.311-4.229,2.792-1.743-.514-2.656-2.6-2.044-4.649.618-2.073,2.5-3.323,4.238-2.807S624.969,135.777,624.357,137.85Z" transform="translate(12.977 2.942)"/><path d="M704.683,138.474a2.673,2.673,0,0,0-2.653.4A11.488,11.488,0,0,1,695.315,141a14.416,14.416,0,0,1-2.564-.26,11.589,11.589,0,0,1-8.375-7.016,2.672,2.672,0,0,0-2.189-1.687,73.494,73.494,0,0,0-7.752-.42c-35.4.019-67.631,26.929-75.972,65.557a86.892,86.892,0,0,0-2.028,18.706,84.369,84.369,0,0,0,8.391,36.872l-6.605,3.025a2.644,2.644,0,0,0-1.333,3.444l2.34,5.581a2.625,2.625,0,0,0,1.062,1.24,3.982,3.982,0,0,0,.506.276l13.411,5.214a2.574,2.574,0,0,0,2.15-.1l19.666-9.668a2.655,2.655,0,0,0,1.234-3.508c-4.172-8.927-7.781-24.069-7.751-37.117a52.054,52.054,0,0,1,1.064-11.243c6.107-28.248,28.285-47.681,51.282-47.633a40.487,40.487,0,0,1,8.718.947,40.984,40.984,0,0,1,9.444,3.272c13.046,9.46,21.229,26.521,21.221,45.632a69.715,69.715,0,0,1-1.568,14.624,66.523,66.523,0,0,1-14.352,29.294l-7.507-3.266a2.8,2.8,0,0,0-.932-.255h-.111a2.7,2.7,0,0,0-1.448.371,2.177,2.177,0,0,0-.668.55l-4.7,5.483a2.659,2.659,0,0,0-.2,3.2l11.793,17.711a2.718,2.718,0,0,0,2.182,1.841l13.107,1.89c.13,0,.255.021.385.021a2.7,2.7,0,0,0,1.571-.512c15.636-11.41,28.572-30.8,32.836-50.391a85.322,85.322,0,0,0,1.906-17.974C753.523,182.3,735.367,150.684,704.683,138.474ZM618.5,235.609c-.576,2.606-2.876,4.331-5.111,3.83-2.253-.5-3.6-3.025-3.01-5.645s2.874-4.347,5.124-3.829C617.745,230.448,619.086,232.988,618.5,235.609ZM616,216.189a4.386,4.386,0,1,1-.98-6.454A4.638,4.638,0,0,1,616,216.189Zm3.339-20.139a4.5,4.5,0,1,1,2.444-6.161A4.689,4.689,0,0,1,619.343,196.049Zm14.356-22.14a4.872,4.872,0,1,1-3.277-5.838A4.757,4.757,0,0,1,633.7,173.909Zm10.021-21.818a4.867,4.867,0,1,1-2.06,6.335A4.709,4.709,0,0,1,643.72,152.091Zm85.87,95.038c-.756,2.553-3.144,4.134-5.283,3.485-2.171-.642-3.315-3.248-2.553-5.806.775-2.588,3.129-4.151,5.3-3.506S730.356,244.536,729.59,247.129Zm-60.833-97.251c-.435,2.653-2.622,4.506-4.909,4.137s-3.776-2.821-3.359-5.472c.433-2.637,2.619-4.487,4.9-4.131S669.169,147.24,668.757,149.878Z" transform="translate(0 2.065)"/></g></g></g></svg>