<svg xmlns="http://www.w3.org/2000/svg" xmlns:xlink="http://www.w3.org/1999/xlink" width="360.01" height="228.726" viewBox="0 0 360.01 228.726"><defs><style>.a{fill:none;}.b{fill:#ffd000;}.c,.d{opacity:0.1;}.e{clip-path:url(#a);}.f{opacity:0.11;}</style><clipPath id="a"><path class="a" d="M0,14.73S53.7-26.92,180,29.87s180,9.24,180,9.24V228.73H0Z"/></clipPath></defs><g transform="translate(0 -0.004)"><path class="b" d="M360,39.11V228.73H0v-214S53.7-26.92,180,29.87,360,39.11,360,39.11Z"/><path class="c" d="M44.87,87.53c-13.8-1.69-25.68-12.47-28.14-25.14C13.78,47.24,20,33.07,32.91,26.2c12.69-6.74,28.54-5.48,39.46,6-14.76-.34-26.27,4.83-32.85,18S35.18,75.79,44.87,87.53Z"/><g class="d"><path d="M89.61,42.62c3.1,0,5.65-.18,8.17.06,2.09.2,3-.68,3.73-2.46.91-2.29,2-4.49,3.32-7.24,1.07,3.06,2.09,5.55,2.81,8.12.53,1.88,1.81,2.25,3.43,2.36a43.629,43.629,0,0,1,7.56,1,39.34,39.34,0,0,1-6.2,4.87,3.2,3.2,0,0,0-1.51,4c.66,2.43,1,5,1.57,8-2.55-1.76-4.81-3.07-6.78-4.74-1.54-1.31-2.72-1.15-4.27-.17-2.15,1.35-4.43,2.51-7.18,4,1-3.23,1.78-5.93,2.69-8.59a2.36,2.36,0,0,0-.69-2.85C94.23,47.08,91.84,45.46,89.61,42.62Z"/><path d="M65.81,44.5c1.82,0,3.32-.11,4.8,0a1.88,1.88,0,0,0,2.19-1.44c.54-1.34,1.2-2.64,2-4.25.63,1.79,1.23,3.26,1.66,4.76.31,1.11,1.06,1.33,2,1.39a25.62,25.62,0,0,1,4.44.6,22.89,22.89,0,0,1-3.65,2.86,1.88,1.88,0,0,0-.88,2.37c.39,1.43.58,2.91.92,4.69a45.955,45.955,0,0,1-4-2.78,1.82,1.82,0,0,0-2.51-.1c-1.26.79-2.6,1.47-4.22,2.37.59-1.9,1-3.48,1.58-5a1.38,1.38,0,0,0-.4-1.68,34.909,34.909,0,0,1-3.93-3.79Z"/><path d="M100.37,78.48c2.38,0,4.34-.13,6.26,0a2.48,2.48,0,0,0,2.87-1.89c.7-1.75,1.56-3.44,2.54-5.55.83,2.34,1.61,4.25,2.16,6.22.41,1.45,1.39,1.74,2.63,1.82a33.421,33.421,0,0,1,5.8.78,30.1,30.1,0,0,1-4.76,3.73,2.45,2.45,0,0,0-1.16,3.09c.51,1.87.77,3.81,1.21,6.13a62.5,62.5,0,0,1-5.2-3.63,2.38,2.38,0,0,0-3.28-.13c-1.65,1-3.4,1.92-5.5,3.1.76-2.48,1.36-4.55,2.06-6.59a1.8,1.8,0,0,0-.53-2.19,44.9,44.9,0,0,1-5.1-4.89Z"/><path d="M78.48,64.2c2,0,3.62-.11,5.23,0a2.06,2.06,0,0,0,2.4-1.58c.58-1.46,1.31-2.87,2.13-4.63.69,1.95,1.34,3.55,1.8,5.2.34,1.2,1.16,1.44,2.2,1.51a28.169,28.169,0,0,1,4.84.66,25.11,25.11,0,0,1-4,3.12,2,2,0,0,0-1,2.58c.42,1.56.64,3.18,1,5.12q-2.248-1.391-4.35-3a2,2,0,0,0-2.74-.1c-1.38.86-2.84,1.6-4.6,2.59.64-2.08,1.14-3.8,1.73-5.51a1.52,1.52,0,0,0-.45-1.84,37.661,37.661,0,0,1-4.19-4.12Z"/></g><g class="e"><g class="d"><path d="M5.15,160.46C4,162.24,1.77,162.89.29,161.89a3.6,3.6,0,0,1-.6-5c1.18-1.74,3.36-2.45,4.88-1.45S6.34,158.65,5.15,160.46Z"/><path d="M16.35,150.36c-1.18,1.78-3.38,2.43-4.86,1.43a3.6,3.6,0,0,1-.6-5c1.18-1.74,3.36-2.45,4.88-1.45S17.54,148.55,16.35,150.36Z"/><path d="M30.45,141.82c-1.17,1.79-3.38,2.43-4.86,1.44a3.6,3.6,0,0,1-.6-5c1.18-1.74,3.37-2.44,4.88-1.44S31.64,140,30.45,141.82Z"/><path d="M39.29,196.17c-1.17,1.79-3.37,2.44-4.86,1.44a3.635,3.635,0,0,1-.59-5.05c1.19-1.79,3.37-2.44,4.87-1.44A3.614,3.614,0,0,1,39.29,196.17Z"/><path d="M29.3,205.59c-1.18,1.78-3.37,2.43-4.86,1.43a3.61,3.61,0,0,1-.59-5c1.19-1.81,3.36-2.45,4.87-1.45S30.49,203.78,29.3,205.59Z"/><path d="M23.75,218.3c-1.17,1.78-3.37,2.43-4.86,1.43a3.61,3.61,0,0,1-.59-5c1.19-1.8,3.36-2.45,4.87-1.44S24.94,216.5,23.75,218.3Z"/><path d="M20.39,231.12c-1.18,1.79-3.38,2.43-4.86,1.43a3.6,3.6,0,0,1-.6-5c1.18-1.74,3.37-2.44,4.87-1.44S21.58,229.32,20.39,231.12Z"/><path d="M19.49,132.38c-1.18,1.78-3.38,2.43-4.86,1.43a3.6,3.6,0,0,1-.6-5c1.18-1.74,3.37-2.45,4.87-1.45S20.68,130.57,19.49,132.38Z"/><path d="M15.74,121c-1.18,1.78-3.38,2.43-4.87,1.43a3.61,3.61,0,0,1-.59-5c1.2-1.8,3.36-2.45,4.87-1.45S16.93,119.18,15.74,121Z"/><path d="M32.1,127.37c-1.17,1.78-3.37,2.43-4.86,1.43a3.591,3.591,0,0,1-.6-5c1.18-1.74,3.37-2.45,4.88-1.45S33.29,125.56,32.1,127.37Z"/><path d="M9.6,139.33c-1.17,1.78-3.37,2.43-4.86,1.43a3.62,3.62,0,0,1-.6-5c1.2-1.8,3.37-2.45,4.88-1.44S10.79,137.52,9.6,139.33Z"/><path d="M45.88,138.36c-1.17,1.78-3.37,2.43-4.86,1.43a3.61,3.61,0,0,1-.59-5c1.2-1.8,3.36-2.45,4.87-1.45a3.62,3.62,0,0,1,.58,5.02Z"/><path d="M110.36,157.81a2.65,2.65,0,0,0-2.65-.39,11.51,11.51,0,0,1-7,.07,15.551,15.551,0,0,1-2.38-1,11.63,11.63,0,0,1-6-9.16,2.65,2.65,0,0,0-1.6-2.25,72.181,72.181,0,0,0-7.29-2.67c-33.86-10.33-72.55,6-91.82,40.48a87.13,87.13,0,0,0-7.41,17.29,84.35,84.35,0,0,0-2.75,37.72l-7.2,1a2.64,2.64,0,0,0-2.28,2.9l.6,6a2.63,2.63,0,0,0,.66,1.5,2.59,2.59,0,0,0,.4.41l11.3,8.91a2.55,2.55,0,0,0,2.08.53l21.64-3.49a2.65,2.65,0,0,0,2.2-3c-1.38-9.75-.4-25.29,3.44-37.76a52.8,52.8,0,0,1,4.31-10.44c14.1-25.23,41-37.33,63-30.56a41,41,0,0,1,8.06,3.46,40.531,40.531,0,0,1,8.07,5.89c9.71,12.86,12.55,31.57,7,49.84a70.16,70.16,0,0,1-5.77,13.53A66.53,66.53,0,0,1,76.6,270.41l-6.23-5.31a2.67,2.67,0,0,0-.81-.52h-.11a2.61,2.61,0,0,0-1.49-.07,2.09,2.09,0,0,0-.8.33l-6.1,3.87a2.68,2.68,0,0,0-1.13,3L66,292.07a2.71,2.71,0,0,0,1.55,2.39l12,5.64.37.14a2.73,2.73,0,0,0,1.65,0c18.29-6.34,36.33-21.1,46.13-38.59A85.469,85.469,0,0,0,134.79,245C144.26,214,136.14,178.46,110.36,157.81ZM-.45,225.5c-1.32,2.33-4,3.3-6,2.17s-2.56-3.95-1.23-6.28,4-3.32,6-2.16S.87,223.17-.45,225.5Zm3.28-19.3A4.37,4.37,0,0,1-3.24,205a4.38,4.38,0,0,1,7-5.23,4.63,4.63,0,0,1-.93,6.43Zm9.09-18.28a4.5,4.5,0,1,1,4.13-5.18,4.69,4.69,0,0,1-4.13,5.18Zm20.2-17a4.87,4.87,0,1,1-1.66-6.69l.23.15a4.76,4.76,0,0,1,1.43,6.54Zm16-17.93a4.86,4.86,0,1,1-3.77,5.76.675.675,0,0,0-.05-.31A4.71,4.71,0,0,1,48.08,153Zm54.33,116c-1.47,2.22-4.21,3-6.07,1.79s-2.22-4.08-.74-6.3,4.2-3.06,6.09-1.81,2.22,4.06.73,6.32ZM72.67,158.21c-1.19,2.41-3.83,3.54-5.9,2.52s-2.79-3.8-1.62-6.21S69,151,71.05,152s2.79,3.81,1.62,6.21Z"/></g></g><path class="f" d="M360,82V62.32c-1.61,5.59-6.08,21.22-9.12,25.5.36,1.85-.74,2.4-.26,4.36-6.55,10.36-11.35,24.55-20,32.93-2.41,2.33-5.55,5.32-9.39,5.33-1.54-1.95.1-4.31.16-6.29-.31-1.7-2.39-1.43-3.51-2.23-3.7-4.84-1.53-11.4-1-18.79.48-6.48-2.15-14.51-3-21.1a.69.69,0,0,0,0-.13c-.67-2.51-1.26-5-1.68-7.55-1.41-3.77-3.77-6.32-8.26-7.26-7.77-1.62-9.17,11.71-8.76,17.37,1.12,15.14,7.79,25.72,8.8,39.22a.434.434,0,0,0,.05.24,3.1,3.1,0,0,1,.1.67c.12.56.21,1.13.31,1.69l-.18-1c.16.86.39,1.7.49,2.56a4.179,4.179,0,0,1,0,.5,12.74,12.74,0,0,1-.23,4.92h0a4.36,4.36,0,0,1-.17,2.06c3.92,10,3.84,26.53,6.73,39.63,1.33,6,5.62,16.72,1.74,24.06-14.86-4.77-25-21.4-31-37.51-.81-2.19-2.57-4.09-2.28-6.64-.7-1.26-1.43-2.49-2.13-3.75-4.45-24.8-7.22-51.46-25-61.5-11.61,4.19-6.69,21.41-2.73,31.06,1.39,4.69,9.09,32.44,10.21,38.12.45,2.24,1.7,4,2.23,5.68,7,22.14,19.09,39.49,37.38,49.26,2.6-.18,4.61.32,5.88,1.62l.22.08a3.55,3.55,0,0,1,1.36.31l1.35.3c.68.13,1.37.25,2.05.39a5.16,5.16,0,0,0,4.68-1.1c4.71,2.87,4.8,7.88,7.12,13.39h12.45c-.14-1.37-.46-1.92,0-3-2.15-.64-2.19-5.39.5-5.68,8,.58,16.91.87,24.9.67v-9.9c-8.87-.16-19.09-2-26.5-2.76-2.63-3.54-3.14-9.43-5.53-13.25-.48-8.27-3.76-15.73-5.14-24.36-2.43-15.23.57-30.16,8.73-36.21A79.94,79.94,0,0,0,360,110.44V89.08c-1.07,1.78-4,3-6,3.41C352.2,89.58,357.1,84,360,82ZM249.26,104.26c2.25-1.22,6.14,3.63,3.71,6.08C249.74,110.85,248,107.07,249.26,104.26Zm3,12.06h0l.19-.08h0A3.43,3.43,0,0,1,256,117a3.48,3.48,0,0,0-3.6-.71,6,6,0,0,1,4.5,5.49c-3.16,1.33-6.38-2.59-4.66-5.46Zm4.23-12.92c-2.82-.57-5.54-5.1-3.33-8,2.7.92,3.82,3.57,5.61,5.5.15,1.64-1.64,1.56-2.3,2.5ZM268,129.85h0c-3.68.57-4.9-3.94-3.76-7C267.13,123.33,269.87,127.12,268,129.85Zm-6.41-20.93h0c3.23-.28,6.75,7.15.84,6.72-1.12-1.31-2.63-5.28-.84-6.72Zm.24,32.36c-1.18-1.59-2.33-5.89-1.39-8.14h0C263.36,132.17,268.88,141.15,261.83,141.28Zm2,19.7h0c.09-2.22-.77-5.28.13-6.77,2.91,1,4.73,3.25,5.65,6.47-1.45,1.66-4.28,2.01-5.78.32ZM272,178c-1.15.25-1.09-.83-2.43-.36-.68-2.15-2.59-6-.89-7.68,2.82.54,5.61,5,3.32,8Zm1.6-24.73c-1,.33-1.32,1.27-2.84,1.12,0-.47-.61-.34-1-.44-.37-1.87-1.71-6.1.11-7.25C271.56,148.39,273.62,149.7,273.6,153.27Zm.38,7.24c3.83.17,4.94,3.35,6.13,6.44h0c-4.29,2.2-6.89-1.54-6.11-6.49Zm5.35,28.22c-4,1-5.46-3.3-5.12-5.53,3.34-.06,6.55,1.87,5.12,5.52Zm-.74-14h0c3-.37,6.09,2.93,6.64,6.9-.7.28-1.18.77-1.87,1.06-2.87-1.29-4.69-3.69-4.8-7.99Zm10.61,27c-4.34.23-5.49-3.08-6.62-6.42,3.64-2,4.42,3.15,7.42,3.48.47,1.64-.43,2.06-.81,2.94Zm13.36,6.06c-4,1.51-8,.09-8.93-4.36,2.65-.13,9.55-.83,8.92,4.36Zm1.11-6.34h0c3.92-.11,6.08,1.75,9.31,2.41.02,8.14-9.5,2.78-9.34-2.45ZM359,215.6v3.2a2.43,2.43,0,0,1-1.35-.41A3.53,3.53,0,0,1,359,215.6Zm-11.66,0c2.93.19,3.93-3.32,6.68-1.8-.4,3.31-2.37,5.21-6,5.63h0c-.29-1.74-1.47-2.13-.64-3.88Zm-8.26-1c2.25-.61,3.68-3.23,6.16-2.25.23,3.56-1.9,5-5,5.58h0a3.68,3.68,0,0,1-1.12-3.4ZM318.47,134h0c-4.75,2.65-6.78-4.1-5.74-7.92h1C316.67,127.12,317.68,130.43,318.47,134Zm1.14,12.5h0c-.57-.06-.86.14-.95.52-3.69.71-5.69-7.45-.35-6.74,1.09,1.17,2.35,4.25,1.3,6.19Zm-7-42.15h0c-1.4.2-1.54-1-2.94-.81-.64-1.54-1.17-5.19-.35-6.74h1c2.85.2,3.94,5.2,2.25,7.52Zm-.64-12h0c-4,1-4.15-4.77-3.29-7.56,3.62-.19,4.85,4.75,3.25,7.49ZM305.6,72.8c2.72.17,6.24,6.36,2.33,7.61C305.21,80.24,305,75,305.6,72.8ZM301.36,75c.77,1.67,3.08,5.15.33,6.27C298,81.7,297.61,74.87,301.36,75Zm-1.19,14c2.93.14,3.57,2.83,4.15,5.58-.7.29-1.18.78-1.88,1.06C299.84,95.71,299.29,91.22,300.17,89Zm3.8,17.2c-1-1-2.17-5.81-.35-6.76h0c1.95,1.07,3.07,3,3.68,5.61a3.66,3.66,0,0,1-3.3,1.18Zm3.24,6.59h0c.53,2.47,3.22,2.55,3.2,5.62-.42.25-.84.48-.92,1-3.57,1.03-5.86-5.83-2.28-6.59Zm2.87,17.72h0a15.421,15.421,0,0,0,2.74,6.14c-.75.85-1.15,2-2.79,2.08-2.78-.87-4.21-7.73.05-8.19Zm.11,20.76c-.71-1.89-1.21-6.24-.42-8.18,2.48,1.49,3.92,4.13,4.74,7.48-1.59.14-2.36.97-4.32.73Zm3.6,13.35c-1.72-1.31-3.93-10.74.92-10.2h0c1.42,2.68,2.6,5.62,3.82,8.5-.46,0-.34.6-.42,1-.77.87-2.81.54-4.32.73Zm1.27,5.72c2.18,1.27,5.37,5.3,3.32,8-3.59.38-4.95-5.66-3.32-7.97Zm11.55,45.3c2.42-1.5,3.35-4.33,6.5-5.17,1.81,3.86-1.51,6.83-4.41,8h0c-.7-.95-2.39-.76-2.09-2.8Zm2,11c-4.52,2.21-6.59-2.48-6.65-6.9,3.93.48,5.65,3.33,6.69,6.94ZM325.25,208c.31,1.49-1.23,1.33-1.32,2.48-5.76,1.53-6.7-6.21-4.86-9.9C322.68,201.34,322.68,206.11,325.25,208Zm-2.18-13.91c-5.57.88-5.44-4.9-4.34-9l1.45-.07c1.54,2.18,4.82,6.37,2.89,9.09Zm2.3-57.61c-.5-.63-1.66-.54-2-1.34,1.51-3.74,6.16-6.95,10.27-6.82-1.36,4-4.5,6.37-8.27,8.18Zm28.46-37.72c-.15,4.14-.92,7.74-4.87,8.46-.37-.41,1.25-9.03,4.87-8.44Z"/></g></svg>