<svg xmlns="http://www.w3.org/2000/svg" xmlns:xlink="http://www.w3.org/1999/xlink" width="360" height="229.093" viewBox="0 0 360 229.093"><defs><style>.a,.b{fill:#ffd000;}.a,.c,.d,.e{opacity:0.1;}.e{clip-path:url(#a);}</style><clipPath id="a"><path class="a" d="M0,0S53.7-41.653,180,15.136s180,9.245,180,9.245V214H0V0Z" transform="translate(-3211 -2257)"/></clipPath></defs><g transform="translate(0 -410.907)"><path class="b" d="M0,0S53.7-41.653,180,15.136s180,9.245,180,9.245V214H0V0Z" transform="translate(0 426)"/><path class="c" d="M307.13,85.226c-13.8-1.686-25.678-12.471-28.143-25.141-2.948-15.147,3.226-29.313,16.183-36.185,12.694-6.737,28.545-5.483,39.463,5.979-14.763-.338-26.276,4.828-32.85,17.978C295.161,61.11,297.439,73.49,307.13,85.226Z" transform="translate(-262.262 413.207)"/><g class="d" transform="translate(65.808 443.892)"><path d="M316.278,25.758c3.108,0,5.658-.179,8.17.057,2.09.2,3.024-.678,3.732-2.457.91-2.287,2.045-4.485,3.319-7.235,1.078,3.053,2.094,5.541,2.817,8.111.531,1.883,1.809,2.257,3.426,2.363a44.407,44.407,0,0,1,7.565,1.022,39.07,39.07,0,0,1-6.208,4.867,3.2,3.2,0,0,0-1.508,4.031c.66,2.435,1,4.961,1.574,7.987-2.55-1.751-4.817-3.067-6.785-4.735-1.542-1.309-2.72-1.146-4.27-.171-2.151,1.352-4.427,2.507-7.179,4.041,1-3.231,1.779-5.931,2.687-8.588a2.359,2.359,0,0,0-.687-2.857C320.9,30.215,318.513,28.6,316.278,25.758Z" transform="translate(-292.481 -16.123)"/><path d="M298.621,26.126c1.825,0,3.324-.105,4.8.034a1.888,1.888,0,0,0,2.193-1.443c.534-1.344,1.2-2.635,1.95-4.249.633,1.793,1.229,3.255,1.655,4.764.311,1.106,1.062,1.326,2.012,1.388a26.038,26.038,0,0,1,4.443.6,23.05,23.05,0,0,1-3.647,2.859,1.877,1.877,0,0,0-.885,2.368c.388,1.431.585,2.914.924,4.692-1.5-1.028-2.83-1.8-3.985-2.782a1.818,1.818,0,0,0-2.508-.1c-1.263.794-2.6,1.472-4.217,2.373.589-1.9,1.046-3.484,1.58-5.045a1.389,1.389,0,0,0-.4-1.679A34.652,34.652,0,0,1,298.621,26.126Z" transform="translate(-298.621 -14.612)"/><path d="M324.262,51.789c2.383,0,4.34-.137,6.267.043a2.464,2.464,0,0,0,2.863-1.884c.7-1.755,1.567-3.441,2.546-5.55.826,2.342,1.606,4.251,2.16,6.221.407,1.446,1.388,1.732,2.628,1.813a34.127,34.127,0,0,1,5.8.784,30.035,30.035,0,0,1-4.76,3.733,2.451,2.451,0,0,0-1.158,3.09c.507,1.869.764,3.806,1.208,6.127-1.956-1.342-3.7-2.352-5.2-3.632a2.376,2.376,0,0,0-3.275-.131c-1.651,1.038-3.4,1.923-5.507,3.1.767-2.479,1.364-4.55,2.061-6.586a1.81,1.81,0,0,0-.527-2.193A45.348,45.348,0,0,1,324.262,51.789Z" transform="translate(-289.705 -6.29)"/><path d="M308.021,40.881c1.992,0,3.627-.115,5.236.035a2.059,2.059,0,0,0,2.394-1.574c.582-1.466,1.31-2.875,2.128-4.638.69,1.957,1.341,3.551,1.8,5.2.341,1.208,1.16,1.447,2.2,1.515a28.507,28.507,0,0,1,4.848.654,24.985,24.985,0,0,1-3.979,3.12,2.048,2.048,0,0,0-.966,2.584c.423,1.562.638,3.181,1.008,5.12-1.633-1.123-3.088-1.966-4.348-3.035a1.984,1.984,0,0,0-2.737-.109c-1.379.867-2.838,1.607-4.6,2.59.643-2.071,1.142-3.8,1.724-5.506A1.513,1.513,0,0,0,312.287,45,37.879,37.879,0,0,1,308.021,40.881Z" transform="translate(-295.352 -9.662)"/></g></g></svg>