<svg xmlns="http://www.w3.org/2000/svg" width="387" height="131" viewBox="0 0 387 131"><defs><style>.a{fill:#fff;}</style></defs><path class="a" d="M-7784,3794.5c0-11.267,4.424-21.737,12-30.427V3718h360v45.781c9.366,6.816,15,15.579,15,25.137,0,21.725-29.1,39.338-65,39.338a97.081,97.081,0,0,1-36.022-6.589C-7509.339,3833.24-7530.172,3841-7554,3841c-21.249,0-40.117-6.172-51.978-15.714a58.259,58.259,0,0,1-18.523,2.971,56.4,56.4,0,0,1-27.584-6.978c-12.1,16.549-35.069,27.72-61.415,27.72C-7752.437,3849-7784,3824.6-7784,3794.5Z" transform="translate(7784 -3718)"/></svg>