<svg xmlns="http://www.w3.org/2000/svg" xmlns:xlink="http://www.w3.org/1999/xlink" width="69.867" height="47.513" viewBox="0 0 69.867 47.513">
  <defs>
    <linearGradient id="linear-gradient" x1="-41.075" y1="-77.192" x2="-41.106" y2="-77.383" gradientUnits="objectBoundingBox">
      <stop offset="0" stop-color="#fff"/>
      <stop offset="1" stop-color="#c6c6c6"/>
    </linearGradient>
    <linearGradient id="linear-gradient-16" x1="-41.075" y1="-77.192" x2="-41.106" y2="-77.383" gradientUnits="objectBoundingBox">
      <stop offset="0" stop-color="#eee"/>
      <stop offset="1" stop-color="#c6c6c6"/>
    </linearGradient>
    <linearGradient id="linear-gradient-17" x1="-47.922" y1="-32.534" x2="-47.95" y2="-32.569" xlink:href="#linear-gradient-16"/>
    <linearGradient id="linear-gradient-18" x1="-62.684" y1="-44.503" x2="-62.754" y2="-44.585" xlink:href="#linear-gradient-16"/>
    <linearGradient id="linear-gradient-19" x1="-17.756" y1="-13.989" x2="-17.771" y2="-14.016" xlink:href="#linear-gradient-16"/>
    <linearGradient id="linear-gradient-20" x1="-18.046" y1="-17.162" x2="-18.06" y2="-17.199" xlink:href="#linear-gradient-16"/>
  </defs>
  <g id="Grupo_1519" data-name="Grupo 1519" transform="translate(-7.63 -1240.709)">
    <g id="Grupo_1357" data-name="Grupo 1357">
      <path id="Caminho_2144" data-name="Caminho 2144" d="M41.783,1272.049a10.881,10.881,0,0,0,2.735-.718c.528-.229.669-.373,3.184-2.6a23.674,23.674,0,0,0,3.155-3.089c.355-.442.627-.824.8-1.083l4.335,1.343a20.362,20.362,0,0,1-11.984,6.069A20.642,20.642,0,0,1,41.783,1272.049Z" fill="url(#linear-gradient)"/>
      <path id="Caminho_2145" data-name="Caminho 2145" d="M61.158,1255.457l-3.712-1.12-8.629-13.625,7.38,2.952Z" fill="url(#linear-gradient)"/>
      <path id="Caminho_2146" data-name="Caminho 2146" d="M55.991,1265.9l-4.335-1.343,5.79-10.219,3.712,1.12a34.71,34.71,0,0,1-5.167,10.442Z" fill="url(#linear-gradient)"/>
      <path id="Caminho_1801-7" data-name="Caminho 1801-7" d="M33.7,1265.435a.04.04,0,0,1,.022,0l.185.008.112.005h.011a.034.034,0,0,0,.022-.005l.074-.042h0l.1-.06h0l.087-.049a.029.029,0,0,1,.026,0,.034.034,0,0,1,.028.019.028.028,0,0,1,.006.022l-.01.222v.086a.046.046,0,0,0,.006.023l.016.028.139.238a.043.043,0,0,1-.014.055.043.043,0,0,1-.023,0h-.307a.029.029,0,0,0-.022,0l-.061.035-.1.06-.1.06a.039.039,0,0,1-.053-.014h0a.052.052,0,0,1-.007-.021l.014-.308a.028.028,0,0,0-.006-.022l-.155-.267a.044.044,0,0,1,0-.063Z" fill="url(#linear-gradient)"/>
      <path id="Caminho_1801-8" data-name="Caminho 1801-8" d="M27.762,1249.635a.054.054,0,0,1,.022-.005l.185.008h.123a.03.03,0,0,0,.023,0l.073-.042h0l.1-.06h0l.086-.049a.038.038,0,0,1,.026,0,.036.036,0,0,1,.029.019.034.034,0,0,1,0,.022l-.01.222v.086a.03.03,0,0,0,.005.022l.016.029.139.238a.043.043,0,0,1-.014.055.045.045,0,0,1-.022.005h-.171l-.113-.005H28.24a.036.036,0,0,0-.023.005l-.061.035-.1.06-.1.06a.04.04,0,0,1-.054-.015.039.039,0,0,1-.006-.021l.013-.308a.041.041,0,0,0,0-.022l-.155-.267a.043.043,0,0,1-.006-.061A.051.051,0,0,1,27.762,1249.635Z" fill="url(#linear-gradient)"/>
      <path id="Caminho_2147" data-name="Caminho 2147" d="M55.991,1265.9l-4.335-1.343,5.79-10.219,3.712,1.12a34.71,34.71,0,0,1-5.167,10.442Z" opacity="0.25" fill="url(#linear-gradient)" style="mix-blend-mode: normal;isolation: isolate"/>
      <path id="Caminho_2148" data-name="Caminho 2148" d="M61.158,1255.457l-3.712-1.12-8.629-13.625,7.38,2.952Z" opacity="0.25" fill="url(#linear-gradient)" style="mix-blend-mode: normal;isolation: isolate"/>
      <path id="Caminho_2149" data-name="Caminho 2149" d="M41.783,1272.049a10.881,10.881,0,0,0,2.735-.718c.528-.229.669-.373,3.184-2.6a23.674,23.674,0,0,0,3.155-3.089c.355-.442.627-.824.8-1.083l4.335,1.343a20.362,20.362,0,0,1-11.984,6.069A20.642,20.642,0,0,1,41.783,1272.049Z" opacity="0.25" fill="url(#linear-gradient)" style="mix-blend-mode: normal;isolation: isolate"/>
      <path id="Caminho_2150" data-name="Caminho 2150" d="M57.446,1254.335l-5.79,10.219s-5.109,7.493-9.878,7.493a27.928,27.928,0,0,1-8.764-1.494,23.152,23.152,0,0,1-5.8-8.469,23.424,23.424,0,0,1-1.107-13.2l16.69-8.175" fill="url(#linear-gradient)"/>
      <path id="Caminho_2151" data-name="Caminho 2151" d="M57.446,1254.335l-5.79,10.219s-5.109,7.493-9.878,7.493a27.928,27.928,0,0,1-8.764-1.494,23.152,23.152,0,0,1-5.8-8.469,23.424,23.424,0,0,1-1.107-13.2l16.69-8.175" opacity="0.15" fill="url(#linear-gradient)" style="mix-blend-mode: normal;isolation: isolate"/>
      <path id="Caminho_2152" data-name="Caminho 2152" d="M51.656,1264.556a18.483,18.483,0,0,1-5.881,2.017,25.121,25.121,0,0,1-4.678.026s-.647-.044-6.983-1.022a35.173,35.173,0,0,1-7.054-11.885,22.826,22.826,0,0,1-.95-4.8l16.69-8.175h6.017c2.725,4.541,5.9,9.083,8.629,13.624l-5.79,10.219Z" fill="url(#linear-gradient)"/>
      <path id="Caminho_1801-9" data-name="Caminho 1801-9" d="M54.67,1257.483a.123.123,0,0,1,.041-.013h.572a.067.067,0,0,0,.041-.013l.132-.085v-.006l.186-.121h0l.156-.1a.065.065,0,0,1,.048-.013.068.068,0,0,1,.054.033.067.067,0,0,1,.013.041l.005.412v.16a.075.075,0,0,0,.012.041l.034.051.281.426a.075.075,0,0,1-.02.1.073.073,0,0,1-.041.013h-.571a.062.062,0,0,0-.04.013l-.11.07-.185.122-.183.123a.076.076,0,0,1-.1-.024.072.072,0,0,1-.013-.038l-.008-.572a.063.063,0,0,0-.012-.04l-.314-.478A.079.079,0,0,1,54.67,1257.483Z" fill="url(#linear-gradient)"/>
      <path id="Caminho_1801-10" data-name="Caminho 1801-10" d="M33.7,1265.435a.04.04,0,0,1,.022,0l.185.008.112.005h.011a.034.034,0,0,0,.022-.005l.074-.042h0l.1-.06h0l.087-.049a.029.029,0,0,1,.026,0,.034.034,0,0,1,.028.019.028.028,0,0,1,.006.022l-.01.222v.086a.046.046,0,0,0,.006.023l.016.028.139.238a.043.043,0,0,1-.014.055.043.043,0,0,1-.023,0h-.307a.029.029,0,0,0-.022,0l-.061.035-.1.06-.1.06a.039.039,0,0,1-.053-.014h0a.052.052,0,0,1-.007-.021l.014-.308a.028.028,0,0,0-.006-.022l-.155-.267a.044.044,0,0,1,0-.063Z" fill="url(#linear-gradient)"/>
      <path id="Caminho_1801-11" data-name="Caminho 1801-11" d="M27.762,1249.635a.054.054,0,0,1,.022-.005l.185.008h.123a.03.03,0,0,0,.023,0l.073-.042h0l.1-.06h0l.086-.049a.038.038,0,0,1,.026,0,.036.036,0,0,1,.029.019.034.034,0,0,1,0,.022l-.01.222v.086a.03.03,0,0,0,.005.022l.016.029.139.238a.043.043,0,0,1-.014.055.045.045,0,0,1-.022.005h-.171l-.113-.005H28.24a.036.036,0,0,0-.023.005l-.061.035-.1.06-.1.06a.04.04,0,0,1-.054-.015.039.039,0,0,1-.006-.021l.013-.308a.041.041,0,0,0,0-.022l-.155-.267a.043.043,0,0,1-.006-.061A.051.051,0,0,1,27.762,1249.635Z" fill="url(#linear-gradient)"/>
      <path id="Caminho_1801-12" data-name="Caminho 1801-12" d="M55.528,1253.394a.289.289,0,0,1,.1-.031l.844-.007h.565a.161.161,0,0,0,.1-.03l.327-.209.007-.015.458-.3v-.007l.383-.245a.162.162,0,0,1,.118-.029.174.174,0,0,1,.135.08.156.156,0,0,1,.03.1l.01,1.015v.4a.18.18,0,0,0,.03.1l.082.127.691,1.052a.186.186,0,0,1-.051.253.168.168,0,0,1-.1.03h-.243l-.538.011-.517.005h-.107a.163.163,0,0,0-.1.031l-.27.173-.459.3-.449.3a.185.185,0,0,1-.25-.057.2.2,0,0,1-.034-.094l-.014-1.409a.162.162,0,0,0-.031-.1l-.772-1.179A.2.2,0,0,1,55.528,1253.394Z" fill="url(#linear-gradient)"/>
    </g>
    <g id="Grupo_1357-2" data-name="Grupo 1357" opacity="0.34">
      <path id="Caminho_2144-2" data-name="Caminho 2144" d="M41.783,1272.049a10.881,10.881,0,0,0,2.735-.718c.528-.229.669-.373,3.184-2.6a23.674,23.674,0,0,0,3.155-3.089c.355-.442.627-.824.8-1.083l4.335,1.343a20.362,20.362,0,0,1-11.984,6.069A20.642,20.642,0,0,1,41.783,1272.049Z" fill="url(#linear-gradient-16)"/>
      <path id="Caminho_2145-2" data-name="Caminho 2145" d="M61.158,1255.457l-3.712-1.12-8.629-13.625,7.38,2.952Z" fill="url(#linear-gradient-17)"/>
      <path id="Caminho_2146-2" data-name="Caminho 2146" d="M55.991,1265.9l-4.335-1.343,5.79-10.219,3.712,1.12a34.71,34.71,0,0,1-5.167,10.442Z" fill="url(#linear-gradient-18)"/>
      <path id="Caminho_1801-7-2" data-name="Caminho 1801-7" d="M33.7,1265.435a.04.04,0,0,1,.022,0l.185.008.112.005h.011a.034.034,0,0,0,.022-.005l.074-.042h0l.1-.06h0l.087-.049a.029.029,0,0,1,.026,0,.034.034,0,0,1,.028.019.028.028,0,0,1,.006.022l-.01.222v.086a.046.046,0,0,0,.006.023l.016.028.139.238a.043.043,0,0,1-.014.055.043.043,0,0,1-.023,0h-.307a.029.029,0,0,0-.022,0l-.061.035-.1.06-.1.06a.039.039,0,0,1-.053-.014h0a.052.052,0,0,1-.007-.021l.014-.308a.028.028,0,0,0-.006-.022l-.155-.267a.044.044,0,0,1,0-.063Z" fill="#fff"/>
      <path id="Caminho_1801-8-2" data-name="Caminho 1801-8" d="M27.762,1249.635a.054.054,0,0,1,.022-.005l.185.008h.123a.03.03,0,0,0,.023,0l.073-.042h0l.1-.06h0l.086-.049a.038.038,0,0,1,.026,0,.036.036,0,0,1,.029.019.034.034,0,0,1,0,.022l-.01.222v.086a.03.03,0,0,0,.005.022l.016.029.139.238a.043.043,0,0,1-.014.055.045.045,0,0,1-.022.005h-.171l-.113-.005H28.24a.036.036,0,0,0-.023.005l-.061.035-.1.06-.1.06a.04.04,0,0,1-.054-.015.039.039,0,0,1-.006-.021l.013-.308a.041.041,0,0,0,0-.022l-.155-.267a.043.043,0,0,1-.006-.061A.051.051,0,0,1,27.762,1249.635Z" fill="#fff"/>
      <path id="Caminho_2147-2" data-name="Caminho 2147" d="M55.991,1265.9l-4.335-1.343,5.79-10.219,3.712,1.12a34.71,34.71,0,0,1-5.167,10.442Z" opacity="0.25" style="mix-blend-mode: normal;isolation: isolate"/>
      <path id="Caminho_2148-2" data-name="Caminho 2148" d="M61.158,1255.457l-3.712-1.12-8.629-13.625,7.38,2.952Z" opacity="0.25" style="mix-blend-mode: normal;isolation: isolate"/>
      <path id="Caminho_2149-2" data-name="Caminho 2149" d="M41.783,1272.049a10.881,10.881,0,0,0,2.735-.718c.528-.229.669-.373,3.184-2.6a23.674,23.674,0,0,0,3.155-3.089c.355-.442.627-.824.8-1.083l4.335,1.343a20.362,20.362,0,0,1-11.984,6.069A20.642,20.642,0,0,1,41.783,1272.049Z" opacity="0.25" style="mix-blend-mode: normal;isolation: isolate"/>
      <path id="Caminho_2150-2" data-name="Caminho 2150" d="M57.446,1254.335l-5.79,10.219s-5.109,7.493-9.878,7.493a27.928,27.928,0,0,1-8.764-1.494,23.152,23.152,0,0,1-5.8-8.469,23.424,23.424,0,0,1-1.107-13.2l16.69-8.175" fill="url(#linear-gradient-19)"/>
      <path id="Caminho_2151-2" data-name="Caminho 2151" d="M57.446,1254.335l-5.79,10.219s-5.109,7.493-9.878,7.493a27.928,27.928,0,0,1-8.764-1.494,23.152,23.152,0,0,1-5.8-8.469,23.424,23.424,0,0,1-1.107-13.2l16.69-8.175" opacity="0.15" style="mix-blend-mode: normal;isolation: isolate"/>
      <path id="Caminho_2152-2" data-name="Caminho 2152" d="M51.656,1264.556a18.483,18.483,0,0,1-5.881,2.017,25.121,25.121,0,0,1-4.678.026s-.647-.044-6.983-1.022a35.173,35.173,0,0,1-7.054-11.885,22.826,22.826,0,0,1-.95-4.8l16.69-8.175h6.017c2.725,4.541,5.9,9.083,8.629,13.624l-5.79,10.219Z" fill="url(#linear-gradient-20)"/>
      <path id="Caminho_1801-9-2" data-name="Caminho 1801-9" d="M54.67,1257.483a.123.123,0,0,1,.041-.013h.572a.067.067,0,0,0,.041-.013l.132-.085v-.006l.186-.121h0l.156-.1a.065.065,0,0,1,.048-.013.068.068,0,0,1,.054.033.067.067,0,0,1,.013.041l.005.412v.16a.075.075,0,0,0,.012.041l.034.051.281.426a.075.075,0,0,1-.02.1.073.073,0,0,1-.041.013h-.571a.062.062,0,0,0-.04.013l-.11.07-.185.122-.183.123a.076.076,0,0,1-.1-.024.072.072,0,0,1-.013-.038l-.008-.572a.063.063,0,0,0-.012-.04l-.314-.478A.079.079,0,0,1,54.67,1257.483Z" fill="#fff"/>
      <path id="Caminho_1801-10-2" data-name="Caminho 1801-10" d="M33.7,1265.435a.04.04,0,0,1,.022,0l.185.008.112.005h.011a.034.034,0,0,0,.022-.005l.074-.042h0l.1-.06h0l.087-.049a.029.029,0,0,1,.026,0,.034.034,0,0,1,.028.019.028.028,0,0,1,.006.022l-.01.222v.086a.046.046,0,0,0,.006.023l.016.028.139.238a.043.043,0,0,1-.014.055.043.043,0,0,1-.023,0h-.307a.029.029,0,0,0-.022,0l-.061.035-.1.06-.1.06a.039.039,0,0,1-.053-.014h0a.052.052,0,0,1-.007-.021l.014-.308a.028.028,0,0,0-.006-.022l-.155-.267a.044.044,0,0,1,0-.063Z" fill="#fff"/>
      <path id="Caminho_1801-11-2" data-name="Caminho 1801-11" d="M27.762,1249.635a.054.054,0,0,1,.022-.005l.185.008h.123a.03.03,0,0,0,.023,0l.073-.042h0l.1-.06h0l.086-.049a.038.038,0,0,1,.026,0,.036.036,0,0,1,.029.019.034.034,0,0,1,0,.022l-.01.222v.086a.03.03,0,0,0,.005.022l.016.029.139.238a.043.043,0,0,1-.014.055.045.045,0,0,1-.022.005h-.171l-.113-.005H28.24a.036.036,0,0,0-.023.005l-.061.035-.1.06-.1.06a.04.04,0,0,1-.054-.015.039.039,0,0,1-.006-.021l.013-.308a.041.041,0,0,0,0-.022l-.155-.267a.043.043,0,0,1-.006-.061A.051.051,0,0,1,27.762,1249.635Z" fill="#fff"/>
      <path id="Caminho_1801-12-2" data-name="Caminho 1801-12" d="M55.528,1253.394a.289.289,0,0,1,.1-.031l.844-.007h.565a.161.161,0,0,0,.1-.03l.327-.209.007-.015.458-.3v-.007l.383-.245a.162.162,0,0,1,.118-.029.174.174,0,0,1,.135.08.156.156,0,0,1,.03.1l.01,1.015v.4a.18.18,0,0,0,.03.1l.082.127.691,1.052a.186.186,0,0,1-.051.253.168.168,0,0,1-.1.03h-.243l-.538.011-.517.005h-.107a.163.163,0,0,0-.1.031l-.27.173-.459.3-.449.3a.185.185,0,0,1-.25-.057.2.2,0,0,1-.034-.094l-.014-1.409a.162.162,0,0,0-.031-.1l-.772-1.179A.2.2,0,0,1,55.528,1253.394Z" fill="#fff"/>
    </g>
    <g id="Grupo_1360" data-name="Grupo 1360">
      <g id="Caminho_260-7" data-name="Caminho 260-7">
        <path id="Caminho_2153" data-name="Caminho 2153" d="M61.9,1276.278v6.708q2.355-.129,4.645-.289,2.635-.183,5.189-.4c1.052-.087,2.088-.18,3.119-.276a2.861,2.861,0,0,0,2.557-2.392c.165-1.005-1.509-2.01-1.466-3.216.053-1.684,1.735-3.326,1.541-4.67a2.844,2.844,0,0,0-3.094-2.414q-2.054.194-4.162.368c-1.024.087-2.056,0-3.08.126a5.2,5.2,0,0,0-2.82,1.328,7.018,7.018,0,0,0-1.719,2.129,6.307,6.307,0,0,0-.37.867A6.565,6.565,0,0,0,61.9,1276.278Z" fill="#ebebeb"/>
      </g>
      <g id="Caminho_260-8" data-name="Caminho 260-8">
        <path id="Caminho_2154" data-name="Caminho 2154" d="M23.23,1277.27v6.708q-2.354-.129-4.645-.289-2.634-.183-5.189-.4c-1.052-.087-2.088-.18-3.118-.276a2.862,2.862,0,0,1-2.557-2.392c-.165-1.005,1.509-2.011,1.466-3.216-.053-1.685-1.735-3.325-1.542-4.671a2.846,2.846,0,0,1,3.094-2.414q2.055.194,4.163.368c1.023.087,2.057,0,3.077.125a5.193,5.193,0,0,1,2.821,1.328,7.018,7.018,0,0,1,1.719,2.129,6.181,6.181,0,0,1,.369.867A6.5,6.5,0,0,1,23.23,1277.27Z" fill="#ebebeb"/>
      </g>
      <path id="Caminho_261-3" data-name="Caminho 261-3" d="M69.81,1284.311a2.58,2.58,0,0,1-2.031,2.419,213.537,213.537,0,0,1-50.419,0,2.571,2.571,0,0,1-2.024-2.391,32.755,32.755,0,0,1-.056-7.886,2.427,2.427,0,0,1,2.441-2.415h.006a208.85,208.85,0,0,0,49.691,0c1.216-.145,2.292.956,2.452,2.485a35.067,35.067,0,0,1,.18,4.479C70.02,1282.194,69.931,1283.3,69.81,1284.311Z" fill="#f0f0f0"/>
      <g id="Grupo_1359" data-name="Grupo 1359">
        <g id="Grupo_1358" data-name="Grupo 1358">
          <path id="Caminho_2155" data-name="Caminho 2155" d="M30.7,1284.886a.621.621,0,0,1-.472-.185.68.68,0,0,1-.153-.49l.122-4.563a.574.574,0,0,1,.5-.637.593.593,0,0,1,.163.005l2,.052a2.115,2.115,0,0,1,1.483.53,2.03,2.03,0,0,1-.072,2.726,2.107,2.107,0,0,1-1.509.454l-1.373-.037-.041,1.506a.689.689,0,0,1-.173.48A.616.616,0,0,1,30.7,1284.886Zm.716-3.133,1.16.031c.674.017,1.019-.263,1.034-.845s-.314-.864-.989-.882l-1.159-.031Z" fill="#9a9a9a"/>
          <path id="Caminho_2156" data-name="Caminho 2156" d="M36.151,1285.016a.619.619,0,0,1-.474-.178.671.671,0,0,1-.16-.487l.055-4.564a.573.573,0,0,1,.492-.644.539.539,0,0,1,.165,0l2,.023a2.17,2.17,0,0,1,1.491.487,1.666,1.666,0,0,1,.511,1.313,1.72,1.72,0,0,1-.347,1.077,1.676,1.676,0,0,1-.957.577,1.243,1.243,0,0,1,.708.642l.5.953a.657.657,0,0,1,.059.58c-.073.177-.248.264-.521.261a.786.786,0,0,1-.443-.122.91.91,0,0,1-.292-.356l-.773-1.466a.669.669,0,0,0-.3-.315,1.015,1.015,0,0,0-.427-.088l-.625-.007-.021,1.66a.681.681,0,0,1-.166.483A.611.611,0,0,1,36.151,1285.016Zm.672-3.232,1.143.014q1.028.012,1.038-.81t-1.018-.826l-1.143-.015Z" fill="#9a9a9a"/>
          <path id="Caminho_2157" data-name="Caminho 2157" d="M41.255,1285.069a.546.546,0,0,1-.5-.229.566.566,0,0,1,.007-.567l2.089-4.621a1,1,0,0,1,.312-.409.748.748,0,0,1,.837,0,.946.946,0,0,1,.306.406l2.138,4.6a.585.585,0,0,1,.015.573.514.514,0,0,1-.465.228.637.637,0,0,1-.431-.131,1.067,1.067,0,0,1-.27-.411l-.348-.788-2.706.01-.334.79a1.208,1.208,0,0,1-.262.416A.565.565,0,0,1,41.255,1285.069Zm2.32-4.525-.9,2.192,1.859-.007-.937-2.185Z" fill="#9a9a9a"/>
          <path id="Caminho_2158" data-name="Caminho 2158" d="M48.637,1285.009a.628.628,0,0,1-.48-.164.681.681,0,0,1-.172-.483l-.069-4.161-1.455.025a.469.469,0,0,1-.541-.386.493.493,0,0,1,0-.133.469.469,0,0,1,.394-.534.487.487,0,0,1,.132,0l4.186-.07a.468.468,0,0,1,.539.385.456.456,0,0,1,0,.133.469.469,0,0,1-.4.533.476.476,0,0,1-.131,0l-1.455.024.069,4.162a.686.686,0,0,1-.153.488A.613.613,0,0,1,48.637,1285.009Z" fill="#9a9a9a"/>
          <path id="Caminho_2159" data-name="Caminho 2159" d="M51.315,1284.963a.544.544,0,0,1-.5-.216.568.568,0,0,1-.01-.568l1.967-4.674a.989.989,0,0,1,.3-.416.753.753,0,0,1,.838-.025.933.933,0,0,1,.316.4l2.26,4.549a.577.577,0,0,1,.03.571.512.512,0,0,1-.459.24.644.644,0,0,1-.435-.119,1.092,1.092,0,0,1-.279-.4l-.369-.778-2.7.081-.312.8a1.207,1.207,0,0,1-.251.422A.569.569,0,0,1,51.315,1284.963Zm2.2-4.584-.847,2.214,1.858-.057-.994-2.159Z" fill="#9a9a9a"/>
        </g>
      </g>
    </g>
  </g>
</svg>
