<svg xmlns="http://www.w3.org/2000/svg" xmlns:xlink="http://www.w3.org/1999/xlink" width="66.696" height="66.696" viewBox="0 0 66.696 66.696">
  <defs>
    <linearGradient id="linear-gradient" x1="0.719" y1="-0.129" x2="0.281" y2="1.308" gradientUnits="objectBoundingBox">
      <stop offset="0" stop-color="#ededed"/>
      <stop offset="1" stop-color="#c6c6c6"/>
    </linearGradient>
    <linearGradient id="linear-gradient-2" x1="0.68" y1="0.24" x2="0.33" y2="0.746" xlink:href="#linear-gradient"/>
    <linearGradient id="linear-gradient-3" x1="0.871" y1="0.035" x2="0.206" y2="0.982" xlink:href="#linear-gradient"/>
    <linearGradient id="linear-gradient-4" x1="0.665" y1="0.074" x2="0.182" y2="0.923" xlink:href="#linear-gradient"/>
    <linearGradient id="linear-gradient-5" x1="0.708" y1="-0.012" x2="0.247" y2="0.951" xlink:href="#linear-gradient"/>
  </defs>
  <g id="Grupo_2036" data-name="Grupo 2036" transform="translate(-146.575 -366.335)">
    <path id="Elipse_30-4-23" data-name="Elipse 30-4-23" d="M-7418.18-5261.87a31.683,31.683,0,0,1,31.683,31.683,31.683,31.683,0,0,1-31.683,31.683,31.682,31.682,0,0,1-31.683-31.683A31.683,31.683,0,0,1-7418.18-5261.87Z" transform="translate(7597.863 5629.87)" fill="#f4de9b" stroke="#ed7100" stroke-width="2.332"/>
    <g id="Grupo_1911" data-name="Grupo 1911" transform="translate(7597.863 5629.87)" opacity="0.86">
      <path id="Caminho_13875" data-name="Caminho 13875" d="M-7411.814-5200.662a13.3,13.3,0,0,0,3.358-.881c.649-.281.822-.459,3.91-3.2a29.052,29.052,0,0,0,3.874-3.793c.436-.543.77-1.012.988-1.331l5.323,1.65c-2.714,2.679-7.76,6.739-14.716,7.452A25.418,25.418,0,0,1-7411.814-5200.662Z" fill="url(#linear-gradient)"/>
      <path id="Caminho_13876" data-name="Caminho 13876" d="M-7388.018-5221.036l-4.559-1.375-10.6-16.73,9.063,3.625Z" fill="url(#linear-gradient-2)"/>
      <path id="Caminho_13877" data-name="Caminho 13877" d="M-7394.363-5208.214l-5.324-1.65,7.111-12.547,4.558,1.375a42.585,42.585,0,0,1-3.3,7.983A42.814,42.814,0,0,1-7394.363-5208.214Z" fill="url(#linear-gradient-3)"/>
      <path id="Caminho_1801" data-name="Caminho 1801" d="M-7421.735-5208.779a.055.055,0,0,1,.027-.007l.227.01.138.006h.013a.048.048,0,0,0,.028-.006l.09-.052,0,0,.127-.073v0l.107-.06a.044.044,0,0,1,.032-.006.047.047,0,0,1,.035.024.048.048,0,0,1,.007.027l-.012.272,0,.106a.047.047,0,0,0,.007.028l.02.035.17.292a.05.05,0,0,1-.017.067.055.055,0,0,1-.028.007l-.065,0-.145,0-.138-.006,0,0h-.028a.05.05,0,0,0-.027.007l-.075.043-.127.073-.125.075a.049.049,0,0,1-.066-.02.044.044,0,0,1-.008-.025l.016-.378a.039.039,0,0,0-.007-.028l-.19-.327A.052.052,0,0,1-7421.735-5208.779Z" fill="#fff"/>
      <path id="Caminho_1801-2" data-name="Caminho 1801" d="M-7429.028-5228.19a.068.068,0,0,1,.027-.007l.227.01.139.006h.012a.044.044,0,0,0,.028-.006l.09-.052,0,0,.127-.073v0l.106-.06a.044.044,0,0,1,.032-.006.046.046,0,0,1,.035.024.04.04,0,0,1,.007.027l-.012.272,0,.106a.048.048,0,0,0,.006.028l.02.035.17.292a.049.049,0,0,1-.017.067.043.043,0,0,1-.027.007l-.066,0-.144,0-.139-.006,0,0h-.028a.052.052,0,0,0-.027.007l-.075.043-.127.073-.125.075a.048.048,0,0,1-.066-.02.043.043,0,0,1-.008-.025l.017-.378a.054.054,0,0,0-.007-.028l-.19-.327A.052.052,0,0,1-7429.028-5228.19Z" fill="#fff"/>
      <path id="Caminho_13878" data-name="Caminho 13878" d="M-7394.363-5208.214l-5.324-1.65,7.111-12.547,4.558,1.375a42.585,42.585,0,0,1-3.3,7.983A42.814,42.814,0,0,1-7394.363-5208.214Z" fill="#353535" opacity="0.25"/>
      <path id="Caminho_13879" data-name="Caminho 13879" d="M-7388.018-5221.036l-4.559-1.375-10.6-16.73,9.063,3.625Z" fill="#353535" opacity="0.25"/>
      <path id="Caminho_13880" data-name="Caminho 13880" d="M-7411.814-5200.662a13.3,13.3,0,0,0,3.358-.881c.649-.281.822-.459,3.91-3.2a29.052,29.052,0,0,0,3.874-3.793c.436-.543.77-1.012.988-1.331l5.323,1.65c-2.714,2.679-7.76,6.739-14.716,7.452A25.418,25.418,0,0,1-7411.814-5200.662Z" fill="#353535" opacity="0.25"/>
      <path id="Caminho_13881" data-name="Caminho 13881" d="M-7392.576-5222.411l-7.111,12.547s-6.274,9.2-12.129,9.2a34.272,34.272,0,0,1-10.762-1.835,28.424,28.424,0,0,1-7.119-10.4,28.755,28.755,0,0,1-1.359-16.208l20.494-10.038" fill="url(#linear-gradient-4)"/>
      <path id="Caminho_13882" data-name="Caminho 13882" d="M-7392.576-5222.411l-7.111,12.547s-6.274,9.2-12.129,9.2a34.272,34.272,0,0,1-10.762-1.835,28.424,28.424,0,0,1-7.119-10.4,28.755,28.755,0,0,1-1.359-16.208l20.494-10.038" fill="#353535" opacity="0.15"/>
      <path id="Caminho_13883" data-name="Caminho 13883" d="M-7399.687-5209.864a22.62,22.62,0,0,1-7.221,2.477,30.786,30.786,0,0,1-5.745.033s-.794-.054-8.574-1.255c0,0-6.137-6.519-8.664-14.6a28.08,28.08,0,0,1-1.166-5.9l20.5-10.038h7.39c3.346,5.577,7.25,11.154,10.6,16.731-4.329,7.639-7.11,12.547-7.111,12.547Z" fill="url(#linear-gradient-5)"/>
      <path id="Caminho_1801-3" data-name="Caminho 1801" d="M-7395.985-5218.549a.157.157,0,0,1,.05-.016l.421,0,.257,0h.024a.086.086,0,0,0,.051-.016l.162-.1,0-.007.228-.149,0,0,.19-.122a.085.085,0,0,1,.059-.015.085.085,0,0,1,.067.04.082.082,0,0,1,.016.05l.006.506,0,.2a.087.087,0,0,0,.016.05l.04.063.346.523a.092.092,0,0,1-.025.126.08.08,0,0,1-.05.016h-.121l-.269.006-.257,0,0,0h-.052a.092.092,0,0,0-.05.015l-.134.087-.228.149-.224.151a.091.091,0,0,1-.124-.028.1.1,0,0,1-.018-.047l-.008-.7a.078.078,0,0,0-.016-.049l-.386-.587A.1.1,0,0,1-7395.985-5218.549Z" fill="#fff"/>
      <path id="Caminho_1801-4" data-name="Caminho 1801" d="M-7421.735-5208.779a.055.055,0,0,1,.027-.007l.227.01.138.006h.013a.048.048,0,0,0,.028-.006l.09-.052,0,0,.127-.073v0l.107-.06a.044.044,0,0,1,.032-.006.047.047,0,0,1,.035.024.048.048,0,0,1,.007.027l-.012.272,0,.106a.047.047,0,0,0,.007.028l.02.035.17.292a.05.05,0,0,1-.017.067.055.055,0,0,1-.028.007l-.065,0-.145,0-.138-.006,0,0h-.028a.05.05,0,0,0-.027.007l-.075.043-.127.073-.125.075a.049.049,0,0,1-.066-.02.044.044,0,0,1-.008-.025l.016-.378a.039.039,0,0,0-.007-.028l-.19-.327A.052.052,0,0,1-7421.735-5208.779Z" fill="#fff"/>
      <path id="Caminho_1801-5" data-name="Caminho 1801" d="M-7429.028-5228.19a.068.068,0,0,1,.027-.007l.227.01.139.006h.012a.044.044,0,0,0,.028-.006l.09-.052,0,0,.127-.073v0l.106-.06a.044.044,0,0,1,.032-.006.046.046,0,0,1,.035.024.04.04,0,0,1,.007.027l-.012.272,0,.106a.048.048,0,0,0,.006.028l.02.035.17.292a.049.049,0,0,1-.017.067.043.043,0,0,1-.027.007l-.066,0-.144,0-.139-.006,0,0h-.028a.052.052,0,0,0-.027.007l-.075.043-.127.073-.125.075a.048.048,0,0,1-.066-.02.043.043,0,0,1-.008-.025l.017-.378a.054.054,0,0,0-.007-.028l-.19-.327A.052.052,0,0,1-7429.028-5228.19Z" fill="#fff"/>
      <path id="Caminho_1801-6" data-name="Caminho 1801" d="M-7394.931-5223.57a.372.372,0,0,1,.123-.038l1.037-.008.634-.006.059,0a.2.2,0,0,0,.124-.037l.4-.257.01-.017.562-.366,0-.009.471-.3a.2.2,0,0,1,.146-.036.213.213,0,0,1,.164.1.2.2,0,0,1,.038.123l.012,1.246,0,.484a.212.212,0,0,0,.037.124l.1.156.849,1.291a.23.23,0,0,1-.063.311.2.2,0,0,1-.123.037h-.3l-.661.014-.635.006-.009,0-.128,0a.2.2,0,0,0-.122.037l-.332.213-.562.366-.553.37a.226.226,0,0,1-.306-.071.246.246,0,0,1-.042-.115l-.017-1.73a.2.2,0,0,0-.038-.123l-.949-1.448A.244.244,0,0,1-7394.931-5223.57Z" fill="#fff"/>
    </g>
    <path id="Elipse_30-4-2-2" data-name="Elipse 30-4-2-2" d="M-7417.94-5261.87a31.683,31.683,0,0,1,31.683,31.683,31.683,31.683,0,0,1-31.683,31.683,31.683,31.683,0,0,1-31.683-31.683A31.683,31.683,0,0,1-7417.94-5261.87Z" transform="translate(7597.863 5629.87)" fill="none" stroke="#ffc400" stroke-width="3.33"/>
  </g>
</svg>
