<svg xmlns="http://www.w3.org/2000/svg" xmlns:xlink="http://www.w3.org/1999/xlink" width="66.696" height="66.696" viewBox="0 0 66.696 66.696">
  <defs>
    <linearGradient id="linear-gradient" x1="-52.128" y1="226.358" x2="-52.153" y2="226.201" gradientUnits="objectBoundingBox">
      <stop offset="0" stop-color="#ededed"/>
      <stop offset="1" stop-color="#c6c6c6"/>
    </linearGradient>
    <linearGradient id="linear-gradient-2" x1="-60.459" y1="112.878" x2="-60.482" y2="112.85" xlink:href="#linear-gradient"/>
    <linearGradient id="linear-gradient-3" x1="-78.446" y1="144.193" x2="-78.503" y2="144.127" xlink:href="#linear-gradient"/>
    <linearGradient id="linear-gradient-4" x1="-22.964" y1="52.12" x2="-22.977" y2="52.098" xlink:href="#linear-gradient"/>
    <linearGradient id="linear-gradient-5" x1="-23.323" y1="63.073" x2="-23.335" y2="63.043" xlink:href="#linear-gradient"/>
  </defs>
  <g id="Grupo_2027" data-name="Grupo 2027" transform="translate(-238.468 -521.534)">
    <path id="Elipse_30-4-23-2" data-name="Elipse 30-4-23-2" d="M165.547-1085.465a31.683,31.683,0,0,1,31.683,31.683h0a31.683,31.683,0,0,1-31.683,31.683h0a31.682,31.682,0,0,1-31.683-31.68v0a31.683,31.683,0,0,1,31.683-31.683Z" transform="translate(106.136 1608.664)" fill="#ddd" stroke="#9e9e9e" stroke-width="2.332"/>
    <g id="Grupo_1911-2" data-name="Grupo 1911-2" transform="translate(106.136 1608.664)" opacity="0.86">
      <path id="Caminho_13875-2" data-name="Caminho 13875-2" d="M171.914-1024.257a13.282,13.282,0,0,0,3.357-.881c.649-.28.822-.459,3.911-3.2a29.174,29.174,0,0,0,3.874-3.793c.436-.543.77-1.012.987-1.331l5.324,1.65c-2.714,2.679-7.76,6.739-14.716,7.452A25.267,25.267,0,0,1,171.914-1024.257Z" fill="url(#linear-gradient)"/>
      <path id="Caminho_13876-2" data-name="Caminho 13876-2" d="M195.709-1044.631l-4.559-1.375-10.6-16.73,9.063,3.625Z" fill="url(#linear-gradient-2)"/>
      <path id="Caminho_13877-2" data-name="Caminho 13877-2" d="M189.365-1031.809l-5.324-1.649,7.11-12.547,4.558,1.375a42.613,42.613,0,0,1-3.3,7.983A43.021,43.021,0,0,1,189.365-1031.809Z" fill="url(#linear-gradient-3)"/>
      <path id="Caminho_1801-7" data-name="Caminho 1801-7" d="M161.993-1032.374a.059.059,0,0,1,.027-.006l.227.009.138.006h.013a.046.046,0,0,0,.028-.006l.09-.051h0l.127-.074h0l.107-.06a.045.045,0,0,1,.032-.006.048.048,0,0,1,.035.024.054.054,0,0,1,.007.027l-.012.272v.106a.045.045,0,0,0,.006.028l.02.035.17.292a.049.049,0,0,1-.017.067.053.053,0,0,1-.028.007h-.21l-.138-.006h-.028a.048.048,0,0,0-.026.007l-.076.043-.127.073-.125.075a.048.048,0,0,1-.066-.02.052.052,0,0,1-.007-.025l.016-.378a.038.038,0,0,0-.007-.027l-.19-.328a.052.052,0,0,1,0-.073Z" fill="#fff"/>
      <path id="Caminho_1801-8" data-name="Caminho 1801-8" d="M154.7-1051.785a.078.078,0,0,1,.027-.007l.227.01.139.006h.012a.045.045,0,0,0,.028-.006l.09-.051h0l.127-.074h0l.106-.06a.045.045,0,0,1,.032-.006.047.047,0,0,1,.035.024.044.044,0,0,1,.007.027l-.012.272v.106a.052.052,0,0,0,0,.028l.02.035.17.292a.049.049,0,0,1-.017.067.042.042,0,0,1-.027.007h-.21l-.139-.006h-.028a.048.048,0,0,0-.026.007l-.076.043-.127.073-.125.075a.048.048,0,0,1-.065-.018v0a.044.044,0,0,1-.008-.025l.017-.378a.058.058,0,0,0-.007-.028l-.19-.327a.052.052,0,0,1,0-.073Z" fill="#fff"/>
      <path id="Caminho_13878-2" data-name="Caminho 13878-2" d="M189.365-1031.809l-5.324-1.649,7.11-12.547,4.558,1.375a42.613,42.613,0,0,1-3.3,7.983A43.021,43.021,0,0,1,189.365-1031.809Z" fill="#353535" opacity="0.25" style="mix-blend-mode: normal;isolation: isolate"/>
      <path id="Caminho_13879-2" data-name="Caminho 13879-2" d="M195.709-1044.631l-4.559-1.375-10.6-16.73,9.063,3.625Z" fill="#353535" opacity="0.25" style="mix-blend-mode: normal;isolation: isolate"/>
      <path id="Caminho_13880-2" data-name="Caminho 13880-2" d="M171.914-1024.257a13.282,13.282,0,0,0,3.357-.881c.649-.28.822-.459,3.911-3.2a29.174,29.174,0,0,0,3.874-3.793c.436-.543.77-1.012.987-1.331l5.324,1.65c-2.714,2.679-7.76,6.739-14.716,7.452A25.267,25.267,0,0,1,171.914-1024.257Z" fill="#353535" opacity="0.25" style="mix-blend-mode: normal;isolation: isolate"/>
      <path id="Caminho_13881-2" data-name="Caminho 13881-2" d="M191.151-1046.006l-7.11,12.547s-6.274,9.2-12.129,9.2a34.28,34.28,0,0,1-10.763-1.835,28.425,28.425,0,0,1-7.119-10.4,28.76,28.76,0,0,1-1.359-16.208l20.495-10.038" fill="url(#linear-gradient-4)"/>
      <path id="Caminho_13882-2" data-name="Caminho 13882-2" d="M191.151-1046.006l-7.11,12.547s-6.274,9.2-12.129,9.2a34.28,34.28,0,0,1-10.763-1.835,28.425,28.425,0,0,1-7.119-10.4,28.76,28.76,0,0,1-1.359-16.208l20.495-10.038" fill="#353535" opacity="0.15" style="mix-blend-mode: normal;isolation: isolate"/>
      <path id="Caminho_13883-2" data-name="Caminho 13883-2" d="M184.041-1033.458a22.636,22.636,0,0,1-7.222,2.477,30.89,30.89,0,0,1-5.745.033s-.794-.054-8.574-1.255c0,0-6.137-6.519-8.664-14.6a28.05,28.05,0,0,1-1.166-5.9l20.5-10.038h7.39c3.346,5.577,7.25,11.154,10.6,16.731-4.329,7.639-7.11,12.547-7.111,12.547Z" fill="url(#linear-gradient-5)"/>
      <path id="Caminho_1801-9" data-name="Caminho 1801-9" d="M187.743-1042.144a.169.169,0,0,1,.049-.016h.7a.086.086,0,0,0,.051-.016l.162-.1v-.007l.228-.149h0l.19-.122a.087.087,0,0,1,.059-.015.088.088,0,0,1,.067.04.081.081,0,0,1,.016.05l.006.506v.2a.09.09,0,0,0,.016.05l.04.063.346.523a.091.091,0,0,1-.025.126.078.078,0,0,1-.049.016h-.121l-.27.006H188.9a.089.089,0,0,0-.05.015l-.134.087-.228.149-.224.151a.092.092,0,0,1-.124-.028.1.1,0,0,1-.018-.047l-.008-.7a.072.072,0,0,0-.016-.049l-.386-.587a.1.1,0,0,1,.02-.14Z" fill="#fff"/>
      <path id="Caminho_1801-10" data-name="Caminho 1801-10" d="M161.993-1032.374a.059.059,0,0,1,.027-.006l.227.009.138.006h.013a.046.046,0,0,0,.028-.006l.09-.051h0l.127-.074h0l.107-.06a.045.045,0,0,1,.032-.006.048.048,0,0,1,.035.024.054.054,0,0,1,.007.027l-.012.272v.106a.045.045,0,0,0,.006.028l.02.035.17.292a.049.049,0,0,1-.017.067.053.053,0,0,1-.028.007h-.21l-.138-.006h-.028a.048.048,0,0,0-.026.007l-.076.043-.127.073-.125.075a.048.048,0,0,1-.066-.02.052.052,0,0,1-.007-.025l.016-.378a.038.038,0,0,0-.007-.027l-.19-.328a.052.052,0,0,1,0-.073Z" fill="#fff"/>
      <path id="Caminho_1801-11" data-name="Caminho 1801-11" d="M154.7-1051.785a.078.078,0,0,1,.027-.007l.227.01.139.006h.012a.045.045,0,0,0,.028-.006l.09-.051h0l.127-.074h0l.106-.06a.045.045,0,0,1,.032-.006.047.047,0,0,1,.035.024.044.044,0,0,1,.007.027l-.012.272v.106a.052.052,0,0,0,0,.028l.02.035.17.292a.049.049,0,0,1-.017.067.042.042,0,0,1-.027.007h-.21l-.139-.006h-.028a.048.048,0,0,0-.026.007l-.076.043-.127.073-.125.075a.048.048,0,0,1-.065-.018v0a.044.044,0,0,1-.008-.025l.017-.378a.058.058,0,0,0-.007-.028l-.19-.327a.052.052,0,0,1,0-.073Z" fill="#fff"/>
      <path id="Caminho_1801-12" data-name="Caminho 1801-12" d="M188.8-1047.165a.41.41,0,0,1,.123-.038l1.038-.007.633-.006h.059a.2.2,0,0,0,.124-.037l.4-.257.01-.017.562-.367v-.008l.471-.3a.2.2,0,0,1,.146-.036.209.209,0,0,1,.164.1.193.193,0,0,1,.038.123l.013,1.246v.484a.212.212,0,0,0,.037.124l.1.156.849,1.291a.23.23,0,0,1-.063.311.208.208,0,0,1-.123.037h-.3l-.661.014-.635.006h-.136a.2.2,0,0,0-.123.037l-.332.213-.562.366-.553.37a.226.226,0,0,1-.306-.071.246.246,0,0,1-.042-.115l-.017-1.73a.2.2,0,0,0-.038-.123l-.949-1.448A.245.245,0,0,1,188.8-1047.165Z" fill="#fff"/>
    </g>
    <path id="Elipse_30-4-2-2-2" data-name="Elipse 30-4-2-2-2" d="M165.788-1085.465a31.683,31.683,0,0,1,31.683,31.683h0a31.683,31.683,0,0,1-31.683,31.683h0a31.683,31.683,0,0,1-31.683-31.683h0a31.683,31.683,0,0,1,31.683-31.683Z" transform="translate(106.028 1608.664)" fill="none" stroke="#9e9e9e" stroke-width="3.33"/>
  </g>
</svg>
