<svg xmlns="http://www.w3.org/2000/svg" xmlns:xlink="http://www.w3.org/1999/xlink" width="57.097" height="50.36" viewBox="0 0 57.097 50.36">
  <defs>
    <linearGradient id="linear-gradient" x1="0.719" y1="-0.129" x2="0.281" y2="1.308" gradientUnits="objectBoundingBox">
      <stop offset="0" stop-color="#ededed"/>
      <stop offset="1" stop-color="#c6c6c6"/>
    </linearGradient>
    <linearGradient id="linear-gradient-2" x1="0.68" y1="0.24" x2="0.33" y2="0.746" xlink:href="#linear-gradient"/>
    <linearGradient id="linear-gradient-3" x1="0.871" y1="0.036" x2="0.206" y2="0.982" xlink:href="#linear-gradient"/>
    <linearGradient id="linear-gradient-4" x1="0.665" y1="0.074" x2="0.182" y2="0.923" xlink:href="#linear-gradient"/>
    <linearGradient id="linear-gradient-5" x1="0.708" y1="-0.012" x2="0.247" y2="0.951" xlink:href="#linear-gradient"/>
  </defs>
  <g id="Grupo_1519" data-name="Grupo 1519" transform="translate(7.073 -44)">
    <g id="Grupo_1357" data-name="Grupo 1357" transform="translate(-7.073 44)">
      <path id="Caminho_2144" data-name="Caminho 2144" d="M-3540.6-3122.537a17.512,17.512,0,0,0,4.4-1.154c.848-.368,1.075-.6,5.117-4.183a38.069,38.069,0,0,0,5.07-4.965c.571-.71,1.008-1.324,1.292-1.74q3.483,1.077,6.967,2.158c-3.552,3.505-10.157,8.82-19.26,9.753A33.387,33.387,0,0,1-3540.6-3122.537Z" transform="translate(3566.556 3172.896)" fill="url(#linear-gradient)"/>
      <path id="Caminho_2145" data-name="Caminho 2145" d="M-3513.732-3134.726l-5.966-1.8-13.867-21.9,11.86,4.744Z" transform="translate(3570.829 3158.422)" fill="url(#linear-gradient-2)"/>
      <path id="Caminho_2146" data-name="Caminho 2146" d="M-3523.76-3126.217l-6.967-2.158,9.305-16.423,5.965,1.8a55.815,55.815,0,0,1-4.323,10.448A55.8,55.8,0,0,1-3523.76-3126.217Z" transform="translate(3572.553 3166.693)" fill="url(#linear-gradient-3)"/>
      <path id="Caminho_1801" data-name="Caminho 1801" d="M-3548.67-3133.6a.094.094,0,0,1,.035-.008l.3.012.18.008h.018a.048.048,0,0,0,.035-.008l.119-.067,0,0,.166-.1h0l.139-.079a.057.057,0,0,1,.042-.008.054.054,0,0,1,.045.031.047.047,0,0,1,.01.035l-.016.357-.007.138a.076.076,0,0,0,.01.037l.025.045.223.383a.068.068,0,0,1-.023.089.061.061,0,0,1-.037.008l-.085,0-.189-.007-.182-.008h0l-.037,0a.057.057,0,0,0-.035.008l-.1.056-.167.1-.162.1a.063.063,0,0,1-.087-.023.081.081,0,0,1-.012-.034l.023-.5a.046.046,0,0,0-.01-.035l-.249-.429A.072.072,0,0,1-3548.67-3133.6Z" transform="translate(3561.641 3173.336)" fill="#fff"/>
      <path id="Caminho_1801-2" data-name="Caminho 1801" d="M-3554.609-3149.408a.084.084,0,0,1,.035-.008l.3.012.182.008h.016a.058.058,0,0,0,.037-.008l.117-.067,0,0,.167-.1,0,0,.138-.079a.053.053,0,0,1,.042-.008.059.059,0,0,1,.047.03.055.055,0,0,1,.008.035l-.016.357,0,.138a.05.05,0,0,0,.008.036l.025.046.224.383a.065.065,0,0,1-.023.088.056.056,0,0,1-.035.008l-.085-.005-.189-.006-.182-.008h-.039a.059.059,0,0,0-.037.008l-.1.056-.166.1-.164.1a.065.065,0,0,1-.087-.024.064.064,0,0,1-.01-.034l.021-.495a.053.053,0,0,0-.008-.035l-.249-.429A.068.068,0,0,1-3554.609-3149.408Z" transform="translate(3558.035 3163.74)" fill="#fff"/>
      <path id="Caminho_2147" data-name="Caminho 2147" d="M-3523.76-3126.217l-6.967-2.158,9.305-16.423,5.965,1.8a55.815,55.815,0,0,1-4.323,10.448A55.8,55.8,0,0,1-3523.76-3126.217Z" transform="translate(3572.553 3166.693)" fill="#353535" opacity="0.25"/>
      <path id="Caminho_2148" data-name="Caminho 2148" d="M-3513.732-3134.726l-5.966-1.8-13.867-21.9,11.86,4.744Z" transform="translate(3570.829 3158.422)" fill="#353535" opacity="0.25"/>
      <path id="Caminho_2149" data-name="Caminho 2149" d="M-3540.6-3122.537a17.512,17.512,0,0,0,4.4-1.154c.848-.368,1.075-.6,5.117-4.183a38.069,38.069,0,0,0,5.07-4.965c.571-.71,1.008-1.324,1.292-1.74q3.483,1.077,6.967,2.158c-3.552,3.505-10.157,8.82-19.26,9.753A33.387,33.387,0,0,1-3540.6-3122.537Z" transform="translate(3566.556 3172.896)" fill="#353535" opacity="0.25"/>
      <path id="Caminho_2150" data-name="Caminho 2150" d="M-3505.622-3136.527l-9.305,16.423s-8.21,12.042-15.875,12.042a44.86,44.86,0,0,1-14.084-2.4,37.211,37.211,0,0,1-9.316-13.611,37.634,37.634,0,0,1-1.779-21.21l26.822-13.138" transform="translate(3556.753 3158.422)" fill="url(#linear-gradient-4)"/>
      <path id="Caminho_2151" data-name="Caminho 2151" d="M-3505.622-3136.527l-9.305,16.423s-8.21,12.042-15.875,12.042a44.86,44.86,0,0,1-14.084-2.4,37.211,37.211,0,0,1-9.316-13.611,37.634,37.634,0,0,1-1.779-21.21l26.822-13.138" transform="translate(3556.753 3158.422)" fill="#353535" opacity="0.15"/>
      <path id="Caminho_2152" data-name="Caminho 2152" d="M-3515.219-3120.1a29.7,29.7,0,0,1-9.451,3.241,40.32,40.32,0,0,1-7.518.042s-1.04-.071-11.222-1.643c0,0-8.031-8.53-11.336-19.1a36.617,36.617,0,0,1-1.527-7.72l26.822-13.138h9.67c4.379,7.3,9.488,14.6,13.867,21.9-5.665,10-9.305,16.421-9.305,16.423Z" transform="translate(3557.044 3158.422)" fill="url(#linear-gradient-5)"/>
      <path id="Caminho_1801-3" data-name="Caminho 1801" d="M-3527.694-3141.433a.191.191,0,0,1,.066-.021l.551-.006.338,0,.03,0a.105.105,0,0,0,.066-.021l.213-.136,0-.01.3-.194,0,0,.251-.159a.107.107,0,0,1,.077-.021.113.113,0,0,1,.087.052.107.107,0,0,1,.021.066l.008.663,0,.257a.107.107,0,0,0,.019.065l.054.082.452.685a.121.121,0,0,1-.032.165.11.11,0,0,1-.065.021h-.159l-.352.008-.336,0,0,0-.07,0a.1.1,0,0,0-.064.021l-.177.112-.3.2-.294.2a.12.12,0,0,1-.162-.039.112.112,0,0,1-.022-.061l-.011-.919a.1.1,0,0,0-.021-.064l-.5-.769A.128.128,0,0,1-3527.694-3141.433Z" transform="translate(3574.364 3168.384)" fill="#fff"/>
      <path id="Caminho_1801-4" data-name="Caminho 1801" d="M-3548.67-3133.6a.094.094,0,0,1,.035-.008l.3.012.18.008h.018a.048.048,0,0,0,.035-.008l.119-.067,0,0,.166-.1h0l.139-.079a.057.057,0,0,1,.042-.008.054.054,0,0,1,.045.031.047.047,0,0,1,.01.035l-.016.357-.007.138a.076.076,0,0,0,.01.037l.025.045.223.383a.068.068,0,0,1-.023.089.061.061,0,0,1-.037.008l-.085,0-.189-.007-.182-.008h0l-.037,0a.057.057,0,0,0-.035.008l-.1.056-.167.1-.162.1a.063.063,0,0,1-.087-.023.081.081,0,0,1-.012-.034l.023-.5a.046.046,0,0,0-.01-.035l-.249-.429A.072.072,0,0,1-3548.67-3133.6Z" transform="translate(3561.641 3173.336)" fill="#fff"/>
      <path id="Caminho_1801-5" data-name="Caminho 1801" d="M-3554.609-3149.408a.084.084,0,0,1,.035-.008l.3.012.182.008h.016a.058.058,0,0,0,.037-.008l.117-.067,0,0,.167-.1,0,0,.138-.079a.053.053,0,0,1,.042-.008.059.059,0,0,1,.047.03.055.055,0,0,1,.008.035l-.016.357,0,.138a.05.05,0,0,0,.008.036l.025.046.224.383a.065.065,0,0,1-.023.088.056.056,0,0,1-.035.008l-.085-.005-.189-.006-.182-.008h-.039a.059.059,0,0,0-.037.008l-.1.056-.166.1-.164.1a.065.065,0,0,1-.087-.024.064.064,0,0,1-.01-.034l.021-.495a.053.053,0,0,0-.008-.035l-.249-.429A.068.068,0,0,1-3554.609-3149.408Z" transform="translate(3558.035 3163.74)" fill="#fff"/>
      <path id="Caminho_1801-6" data-name="Caminho 1801" d="M-3526.808-3145.208a.476.476,0,0,1,.162-.05l1.356-.012.831-.008.077,0a.26.26,0,0,0,.161-.049l.526-.335.011-.025.736-.477.006-.012.615-.394a.268.268,0,0,1,.189-.046.286.286,0,0,1,.217.129.261.261,0,0,1,.048.161l.016,1.631.006.635a.266.266,0,0,0,.048.161l.132.2,1.11,1.69a.3.3,0,0,1-.082.406.263.263,0,0,1-.162.048h-.391l-.864.018-.831.008-.011-.006-.167,0a.261.261,0,0,0-.161.05l-.434.278-.737.479-.722.484a.3.3,0,0,1-.4-.092.327.327,0,0,1-.055-.152l-.022-2.264a.264.264,0,0,0-.05-.161l-1.24-1.9A.315.315,0,0,1-3526.808-3145.208Z" transform="translate(3574.856 3165.587)" fill="#fff"/>
    </g>
  </g>
</svg>
