<svg xmlns="http://www.w3.org/2000/svg" width="24" height="24" viewBox="0 0 24 24"><defs><style>.a{fill:#373737;}</style></defs><path class="a" d="M1175.861,17.529a1.688,1.688,0,0,1-1.584,1.119H1173v7.728a3.717,3.717,0,0,1-3.657,3.767h-2.235a.785.785,0,0,1-.772-.795v-4.41a2.327,2.327,0,0,0-2.29-2.358,2.244,2.244,0,0,0-1.62.691,2.381,2.381,0,0,0-.67,1.667v4.41a.785.785,0,0,1-.772.795h-2.235a3.717,3.717,0,0,1-3.657-3.767V18.648h-1.416a1.688,1.688,0,0,1-1.584-1.119,1.772,1.772,0,0,1,.443-1.925l9.145-8.544a3.331,3.331,0,0,1,4.592,0l9.145,8.544A1.771,1.771,0,0,1,1175.861,17.529Z" transform="translate(-1151.977 -6.143)"/></svg>