<svg xmlns="http://www.w3.org/2000/svg" width="25.771" height="19.396" viewBox="0 0 25.771 19.396"><defs><style>.a{fill:#fcff76;}.b{fill:#ffd000;}.c{fill:#f08800;stroke:#f08800;}.d{fill:#9c5900;}.e{fill:#fff;}</style></defs><g transform="translate(5611.5 3396.351)"><path class="a" d="M-377.881,274.69v.408a.535.535,0,0,1-.01-.064.965.965,0,0,1-.009-.131v-.213Z" transform="translate(-5223.864 -3659.379)"/><path class="a" d="M-377.9,274.69h.019v.408a.535.535,0,0,1-.01-.064.965.965,0,0,1-.009-.131Z" transform="translate(-5223.864 -3659.379)"/><path class="a" d="M-377.9,274.69v.213a.965.965,0,0,0,.009.131.535.535,0,0,0,.01.064v-.408Zm0,0v.213a.965.965,0,0,0,.009.131.535.535,0,0,0,.01.064v-.408Z" transform="translate(-5223.864 -3659.379)"/><path class="b" d="M-527.21,42.506v5.7h-8.521a.857.857,0,0,0-.906-.873l-4.486-.082a1.024,1.024,0,0,0-1.019.955h-8.644v-5.7a3.392,3.392,0,0,1,3.3-3.466h16.97A3.391,3.391,0,0,1-527.21,42.506Z" transform="translate(-5059.534 -3435.391)"/><path class="b" d="M-529.789,281.63v3.924a3.4,3.4,0,0,1-3.322,3.466h-17.067a3.4,3.4,0,0,1-3.322-3.466V281.63h8.7a.578.578,0,0,0,.01.064,1.027,1.027,0,0,0,1,.831h4.524c.022,0,.045,0,.067,0a1.025,1.025,0,0,0,.952-.894h8.463Z" transform="translate(-5056.955 -3665.975)"/><path class="c" d="M-555.276,227.166h-8.7a.539.539,0,0,1-.539-.539v-1.758a.539.539,0,0,1,.539-.539h8.7q0,.036,0,.073v2.632A.979.979,0,0,0-555.276,227.166Z" transform="translate(-5046.48 -3611.511)"/><path class="c" d="M-236.4,224.869v1.758a.539.539,0,0,1-.516.539h-8.463a.95.95,0,0,0,.009-.131V224.4c0-.025,0-.049,0-.073h8.457A.539.539,0,0,1-236.4,224.869Z" transform="translate(-5349.827 -3611.511)"/><path class="d" d="M-371.336,205.995a1.027,1.027,0,0,0-1.024-.955h-4.512a1.027,1.027,0,0,0-1.024.955q0,.036,0,.073v2.42h.019v.408a1.026,1.026,0,0,0,1,.831h4.524c.022,0,.045,0,.067,0a1.025,1.025,0,0,0,.952-.894.965.965,0,0,0,.009-.131v-2.632Q-371.333,206.03-371.336,205.995Zm-2.492,1.5a.861.861,0,0,1-.227.312l.108.667h-1.34l.108-.667a.86.86,0,0,1-.226-.312.846.846,0,0,1-.068-.334.857.857,0,0,1,.857-.857.857.857,0,0,1,.857.857A.845.845,0,0,1-373.828,207.49Z" transform="translate(-5223.864 -3593.176)"/><path class="e" d="M-327.441,231.982l.108.667h-1.34l.108-.667a.859.859,0,0,1-.226-.312.846.846,0,0,1-.068-.334.857.857,0,0,1,.857-.857.857.857,0,0,1,.857.857.846.846,0,0,1-.068.334A.86.86,0,0,1-327.441,231.982Z" transform="translate(-5270.478 -3617.357)"/></g></svg>