<svg xmlns="http://www.w3.org/2000/svg" width="24" height="24" viewBox="0 0 24 24"><defs><style>.a{fill:#ffd000;}</style></defs><path class="a" d="M1728.07,27.812a2.028,2.028,0,0,0-1.2-.547L1725.4,27.1a8.959,8.959,0,0,0-1.316-3.172l.938-1.166a1.763,1.763,0,0,0,.027-2.351,1.525,1.525,0,0,0-1.094-.435,2.022,2.022,0,0,0-1.257.462l-1.167.939a8.971,8.971,0,0,0-3.164-1.311l-.16-1.483a1.763,1.763,0,0,0-1.643-1.682,1.528,1.528,0,0,0-1.1.481,2.028,2.028,0,0,0-.547,1.2l-.16,1.483a8.966,8.966,0,0,0-3.156,1.3l-1.169-.94a1.763,1.763,0,0,0-2.351-.027,1.526,1.526,0,0,0-.435,1.094,2.023,2.023,0,0,0,.462,1.257l.937,1.164a8.971,8.971,0,0,0-1.321,3.179l-1.493.161a1.763,1.763,0,0,0-1.682,1.643,1.529,1.529,0,0,0,.481,1.1,2.028,2.028,0,0,0,1.2.547l1.493.161a8.972,8.972,0,0,0,1.311,3.164l-.934,1.16a1.763,1.763,0,0,0-.027,2.351,1.525,1.525,0,0,0,1.094.435,2.023,2.023,0,0,0,1.257-.462l1.159-.933a8.965,8.965,0,0,0,3.172,1.316l.16,1.483a1.763,1.763,0,0,0,1.643,1.682,1.528,1.528,0,0,0,1.1-.481,2.027,2.027,0,0,0,.547-1.2l.16-1.483a8.967,8.967,0,0,0,3.181-1.322l1.157.931a1.643,1.643,0,1,0,2.324-2.323l-.935-1.162a8.959,8.959,0,0,0,1.305-3.157l1.473-.159a1.763,1.763,0,0,0,1.682-1.643A1.528,1.528,0,0,0,1728.07,27.812Zm-11.509,6.312a5.216,5.216,0,1,1,5.216-5.216A5.216,5.216,0,0,1,1716.56,34.123Z" transform="translate(-1704.55 -16.907)"/></svg>