<svg xmlns="http://www.w3.org/2000/svg" width="21.337" height="24" viewBox="0 0 21.337 24"><defs><style>.a{fill:none;stroke:#383838;stroke-miterlimit:10;stroke-width:23.228px;}.b{fill:#383838;}.c{fill:#373737;}</style></defs><g transform="translate(5052.595 3409.591)"><g transform="translate(-5052.595 -3409.591)"><path class="a" d="M698.592,49.474" transform="translate(-694.262 -47.617)"/><path class="b" d="M702.057,47.194H688.9v-.97h13.157a2.889,2.889,0,1,0,0-5.779h-6.579v-.97h6.579a3.86,3.86,0,1,1,0,7.72Z" transform="translate(-685.04 -38.102)"/><path class="b" d="M626.37,186.289H613.213a3.86,3.86,0,0,1,0-7.72H626.37v.97H613.213a2.889,2.889,0,1,0,0,5.779H626.37Z" transform="translate(-609.353 -170.448)"/><path class="b" d="M711.541,325.383h-6.748v-.97h6.748a2.889,2.889,0,0,0,0-5.779H698.384v-.97h13.157a3.86,3.86,0,0,1,0,7.72Z" transform="translate(-694.064 -302.792)"/><circle class="c" cx="1.857" cy="1.857" r="1.857" transform="translate(8.872)"/><circle class="c" cx="1.857" cy="1.857" r="1.857" transform="translate(15.16 13.499)"/><circle class="c" cx="1.857" cy="1.857" r="1.857" transform="translate(8.872 20.286)"/><circle class="c" cx="1.857" cy="1.857" r="1.857" transform="translate(2.405 6.749)"/></g></g></svg>