<svg xmlns="http://www.w3.org/2000/svg" width="212.452" height="300.477" viewBox="0 0 212.452 300.477"><defs><style>.a{fill:#7d9e85;}</style></defs><path class="a" d="M487.241,632.96a4.61,4.61,0,0,1-1.382,1.205,15.415,15.415,0,0,1-5.923,1.639c-.232.125-.47.241-.7.363.021.089.046.177.061.272-2.627.882-4.056,2.969-7.641,2.9a39.742,39.742,0,0,1-12.124,2c-.162.055-.317.147-.479.186l-.006.122c-14.885,5.563-35.245-.644-49.749-2.887-2.923-4.4-3.164-11.489-5.786-16.2-.052-9.936-3.512-19.075-4.623-29.493-1.962-18.379,2.566-36.066,12.722-42.8,14.348-6.057,24.812-16,34.189-27.037V498.312a5.985,5.985,0,0,1-4.69,3.375c-1.953-3.592,1.129-9.347,4.69-11.55V477.518c-2.273,6.582-4.251,13.448-8.157,18.386.311,2.237-1.031,2.82-.577,5.2-8.5,12-15.136,28.672-26.029,38.172-3.027,2.643-6.973,6.021-11.572,5.783-1.721-2.432.385-5.154.583-7.513-.262-2.063-2.771-1.867-4.056-2.9-4.132-6.017-1.123-13.735,0-22.557.983-7.72-1.663-17.5-2.31-25.441-.006-.058-.012-.107-.018-.165-.644-3.039-1.2-6.078-1.544-9.139-1.45-4.6-4.117-7.8-9.432-9.206-9.2-2.426-11.712,13.439-11.568,20.244.384,18.19,7.708,31.275,8.065,47.5.012.1.046.189.049.29a3.365,3.365,0,0,1,.073.818c.11.677.186,1.358.275,2.038l-.162-1.218c.137,1.031.369,2.051.433,3.091.012.2-.046.4-.052.6.049,2.2.055,4.358-.586,5.877l-.031-.009a5.159,5.159,0,0,1-.327,2.453c4.056,12.224,2.923,32,5.563,47.857,1.218,7.318,5.685,20.378.58,28.922-17.494-6.652-28.617-27.2-34.708-46.847-.836-2.682-2.826-5.063-2.316-8.1-.76-1.556-1.553-3.073-2.313-4.626-3.775-29.963-5.413-62.059-26.03-75.184-14.159,4.284-9.353,25.206-5.209,37.012,1.364,5.694,8.843,39.4,9.835,46.27.391,2.71,1.782,4.919,2.31,6.936,7,26.942,20.375,48.477,41.653,61.314,3.128-.046,5.5.671,6.942,2.307.088.034.174.07.259.11a4.319,4.319,0,0,1,1.614.464l0,0c.534.128,1.056.3,1.587.436.809.2,1.627.388,2.432.6a6.2,6.2,0,0,0,5.676-1.028c6.414,4.388,5.883,15.718,9.838,22.56,3.79,28.41,16.024,54.47,10.989,86.779h4.626c.055-2.063.272-3.979,1.736-4.638,2.417.1,2.17,2.847,2.89,4.638h17.934c-10.845-18.923-17.2-48.1-21.983-73.472-1.175-6.232-5.334-15.477-2.893-20.256-2.542-.909-2.646-8.5.583-8.666a298.428,298.428,0,0,0,35.288,2.3c9.2.018,18.791,1.87,26.606,0,4.367-1.031,11.892-4.855,16.774-7.516,6.628-3.6,10.387-9.609,13.891-15.627C499.923,628.792,492.285,630.711,487.241,632.96Zm-46.71-123.755c-.446,4.956-1.59,9.213-6.366,9.832C433.744,518.494,436.231,508.278,440.531,509.205Zm-10.989,19.661C428.251,533.566,425.472,528.345,429.542,528.866ZM414.5,543.331c-1.874,4.681-5.786,7.317-10.412,9.246-.565-.781-1.95-.745-2.313-1.73C403.815,546.471,409.588,542.919,414.5,543.331Zm-66.526,42.795c-5.246,2.429-8.126-2.209-6.936-8.1C345.6,578.475,346.733,582.354,347.972,586.125Zm-6.936-16.78c-1.214.333-1.66,1.44-3.476,1.16-.018-.558-.708-.445-1.159-.58-.324-2.27-1.666-7.409.586-8.672C338.909,563.376,341.292,565.036,341.036,569.345Zm-5.209-28.327c-4.44.455-5.615-5.023-4.052-8.676C335.2,533.163,338.241,537.869,335.827,541.018Zm-6.359-25.453c3.882-.134,7.623,8.984.574,8.1C328.793,522.025,327.228,517.17,329.467,515.565ZM315,509.205c2.768-1.312,7.116,4.733,4.052,7.519C315.156,517.133,313.267,512.495,315,509.205Zm2.813,14.626c.079-.031.156-.064.232-.086h-.006a4.132,4.132,0,0,1,4.281,1.083,4.21,4.21,0,0,0-4.275-1.083A7.257,7.257,0,0,1,323.1,530.6C319.178,532.052,315.565,527.158,317.811,523.832Zm5.865-15.2c-3.335-.851-6.314-6.454-3.473-9.835,3.171,1.269,4.352,4.51,6.362,6.936C326.669,507.759,324.533,507.549,323.676,508.632Zm2.89,35.852c3.555-.982,9.6,10.113,1.157,9.829C326.416,552.339,325.305,547.121,326.565,544.484Zm2.316,33.546c.253-2.652-.58-6.372.586-8.1,3.415,1.41,5.453,4.19,6.359,8.1C333.978,579.928,330.575,580.163,328.882,578.03Zm8.679,20.818c-1.391.232-1.254-1.062-2.89-.583-.674-2.612-2.728-7.33-.586-9.246C337.432,589.845,340.5,595.378,337.56,598.847Zm8.1,13.3c-4.873.906-6.335-4.293-5.786-6.936C343.883,605.353,347.6,607.862,345.659,612.149Zm0-16.771c3.6-.25,7.1,3.888,7.522,8.676-.857.3-1.462.851-2.316,1.16C347.542,603.516,345.518,600.535,345.659,595.378Zm10.992,32.966c-5.206,0-6.378-4.037-7.519-8.1,4.483-2.213,5.1,4.046,8.669,4.635C358.265,626.876,357.16,627.318,356.65,628.343Zm15.618,8.1c-4.876,1.559-9.622-.4-10.412-5.786C365.036,630.669,373.345,630.272,372.268,636.439Zm1.739-7.522c4.706.122,7.168,2.475,10.989,3.467C384.587,642.155,373.483,635.176,374.007,628.917Zm23.716-7.513c-6.722.7-6.2-6.207-4.629-10.985h1.739C396.54,613.043,400.183,618.267,397.724,621.4Zm-1.153-57.256c-.68-.1-1.034.116-1.163.573-4.464.607-6.347-9.276,0-8.1C396.632,558.125,397.941,561.9,396.57,564.148Zm-.583-15.035c-5.847,2.878-7.858-5.334-6.365-9.838h1.157C394.264,540.807,395.268,544.826,395.988,549.113Zm-5.209-35.859c-1.694.153-1.776-1.306-3.47-1.163-.668-1.877-1.083-6.286,0-8.09h1.156C391.966,504.46,392.951,510.588,390.779,513.255Zm0-14.458c-4.858.891-4.669-5.969-3.47-9.258C391.694,489.627,392.857,495.623,390.779,498.8Zm-6.362-23.711c3.256.366,7.07,8,2.316,9.249C383.489,483.969,383.516,477.7,384.416,475.086Zm-5.206,2.307c.824,2.032,3.363,6.359,0,7.528C374.728,485.263,374.728,477.048,379.21,477.393Zm-2.31,16.777c3.5.348,4.1,3.6,4.626,6.933-.861.3-1.462.864-2.316,1.157C376.076,502.15,375.71,496.734,376.9,494.171Zm3.47,12.719c2.267,1.4,3.485,3.845,4.046,6.948a4.4,4.4,0,0,1-4.046,1.157C379.192,513.749,378.133,507.9,380.37,506.889Zm3.467,16.2c.476,2.99,3.692,3.247,3.473,6.93-.516.266-1.029.519-1.157,1.166C381.807,532.135,379.5,523.783,383.836,523.09Zm2.316,21.394a18.527,18.527,0,0,0,2.9,7.519c-.964.967-1.51,2.335-3.473,2.31C382.314,553.074,381.026,544.765,386.153,544.484ZM385,559.516c2.878,1.941,4.437,5.2,5.209,9.255-1.9.03-2.878.979-5.209.574C384.258,567.032,383.934,561.789,385,559.516Zm5.209,13.881c1.532,3.29,2.759,6.887,4.046,10.409-.558.015-.446.7-.574,1.159-.967.971-3.4.455-5.212.58C386.482,583.873,384.422,572.451,390.205,573.4Zm-.583,19.078c2.536,1.657,6.1,6.68,3.473,9.841C388.774,602.454,387.52,595.127,389.622,592.476Zm2.9,36.441c4.284,1.114,3.976,6.817,6.936,9.261.275,1.813-1.553,1.526-1.736,2.9C390.724,642.551,390.1,633.207,392.524,628.917Zm2.31,23.137c4.626.778,6.506,4.3,7.522,8.688C396.8,663.1,394.627,657.36,394.834,652.054Zm20.244,91.994c-5.188-.4-4.687-4.745-3.473-9.261H414.5C416,736.859,417.01,741.9,415.078,744.048Zm6.366-1.745c4.562.458,3.924,6.109,6.359,8.676C424.077,759.507,416.68,747.554,421.444,742.3Zm-4.049-15.035c-5.618,3.82-9.4-8.193-2.316-7.528C415.566,722.889,418.621,723.978,417.394,727.268Zm-5.209-16.207c-6.8.464-6.158-6.225-5.209-10.988C411.663,700.4,414.556,707.387,412.185,711.061Zm-6.936-19.084c-.018-.565-.714-.461-1.163-.577-.723-2.166-1.068-7.153,0-9.255,2.9,1.346,4.153,4.33,4.632,8.092C407.782,691.04,407.291,692.291,405.249,691.977Zm2.884-15.612c-.928,1.184-2.9,1.331-5.2,1.144-2.621-1.779-2.936-12.041,2.319-9.249C405.978,671.19,407.178,673.655,408.133,676.365Zm-5.2-25.456c-.745-1.178-2.8-1.056-2.316-3.476,2.981-1.645,4.281-4.971,8.1-5.789C410.641,646.39,406.479,649.732,402.93,650.909Zm13.881,0a4.415,4.415,0,0,1-1.16-4.059c2.737-.586,4.611-3.637,7.525-2.313C423.22,648.828,420.58,650.436,416.811,650.909Zm9.258,2.313c-.308-2.048-1.7-2.594-.583-4.632,3.485.415,4.907-3.729,8.1-1.739C432.9,650.79,430.418,652.945,426.07,653.222Zm17.931,0c-2.127-.189-5.12.491-6.362-.586.385-3.863,3.915-4.568,8.1-4.626C446.307,650.891,444.553,651.462,444,653.222Zm8.1-4.052c4.205.034,6.78-5.984,10.409-2.893C462.444,650.6,452.819,657.708,452.105,649.17Zm16.774-1.16c-.208-3.213,5.725-4.992,9.252-6.365C480.362,646.4,473.048,651.584,468.88,648.01Zm15.044-3.473c-.15-1.974-1.465-2.774-1.157-5.2,3.012-1.15,6.063-4.98,9.829-3.482C491.354,640.412,488.7,643.534,483.924,644.538Z" transform="matrix(0.998, -0.07, 0.07, 0.998, -342.043, -431.663)"/></svg>