<svg xmlns="http://www.w3.org/2000/svg" xmlns:xlink="http://www.w3.org/1999/xlink" width="328" height="33.608" viewBox="0 0 328 33.608"><defs><style>.a{fill:none;}.b{opacity:0.1;clip-path:url(#a);}.c,.d{fill:#165425;}.d{opacity:0.44;}</style><clipPath id="a"><rect class="a" width="328" height="33.608"/></clipPath></defs><g class="b"><g transform="translate(-67.4 -105.078)"><path class="c" d="M96.426,138.686,81.775,125.7,67.4,138.686V105.078H96.426Z"/><path class="d" d="M125.393,138.686,110.743,125.7,96.368,138.686V105.078h29.025Z"/><path class="c" d="M154.094,138.686,139.443,125.7l-14.375,12.988V105.078h29.026Z"/><path class="d" d="M182.587,138.686,167.935,125.7,153.56,138.686V105.078h29.027Z"/></g><g transform="translate(47.6 -105.078)"><path class="c" d="M96.426,138.686,81.775,125.7,67.4,138.686V105.078H96.426Z"/><path class="d" d="M125.393,138.686,110.743,125.7,96.368,138.686V105.078h29.025Z"/><path class="c" d="M154.094,138.686,139.443,125.7l-14.375,12.988V105.078h29.026Z"/><path class="d" d="M182.587,138.686,167.935,125.7,153.56,138.686V105.078h29.027Z"/></g><g transform="translate(162.6 -105.078)"><path class="c" d="M96.426,138.686,81.775,125.7,67.4,138.686V105.078H96.426Z"/><path class="d" d="M125.393,138.686,110.743,125.7,96.368,138.686V105.078h29.025Z"/><path class="c" d="M154.094,138.686,139.443,125.7l-14.375,12.988V105.078h29.026Z"/><path class="d" d="M182.587,138.686,167.935,125.7,153.56,138.686V105.078h29.027Z"/></g></g></svg>