<svg xmlns="http://www.w3.org/2000/svg" width="16.989" height="21.266" viewBox="0 0 16.989 21.266"><defs><style>.a{fill:#ffd000;}</style></defs><g transform="translate(-67.269 -47.008)"><path class="a" d="M12.209,20.8,1.594,14.068A3.615,3.615,0,0,1,.021,10.633,3.614,3.614,0,0,1,1.594,7.2L12.209.469A3.037,3.037,0,0,1,16.562,1.75,3.693,3.693,0,0,1,15.4,6.531l-6.471,4.1,6.471,4.1a3.692,3.692,0,0,1,1.167,4.78,3.144,3.144,0,0,1-2.763,1.75A2.957,2.957,0,0,1,12.209,20.8Z" transform="translate(67.269 47.008)"/></g></svg>