<svg xmlns="http://www.w3.org/2000/svg" width="174" height="115.478" viewBox="0 0 174 115.478"><defs><style>.a{fill:#7d9e85;}</style></defs><g transform="translate(-29 -35.072)"><path class="a" d="M325.369,126.566c-22.523-2.751-41.9-20.349-45.924-41.024C274.634,60.825,284.71,37.71,305.853,26.5c20.714-10.993,46.58-8.947,64.4,9.756-24.091-.552-42.878,7.877-53.6,29.336C305.838,87.213,309.555,107.414,325.369,126.566Z" transform="translate(-249.262 15.279)"/><g transform="translate(53 -89)"><path class="a" d="M316.278,31.845c5.071,0,9.232-.292,13.332.092,3.411.319,4.935-1.106,6.09-4.009,1.484-3.732,3.336-7.319,5.417-11.805,1.759,4.981,3.418,9.041,4.6,13.235.867,3.072,2.951,3.684,5.59,3.855a72.462,72.462,0,0,1,12.344,1.667,63.754,63.754,0,0,1-10.13,7.941c-2.58,1.762-3.281,3.563-2.461,6.578,1.078,3.974,1.625,8.1,2.569,13.033-4.161-2.857-7.86-5.005-11.071-7.726-2.516-2.135-4.438-1.869-6.967-.279-3.51,2.206-7.225,4.091-11.715,6.593,1.634-5.272,2.9-9.679,4.385-14.014a3.85,3.85,0,0,0-1.122-4.662C323.815,39.118,319.924,36.475,316.278,31.845Z" transform="translate(-220.17 125.722)"/><path class="a" d="M298.621,29.7c2.978,0,5.423-.172,7.829.055,2.006.187,2.9-.649,3.578-2.355.871-2.193,1.96-4.3,3.182-6.934,1.034,2.925,2.006,5.311,2.7,7.774.508,1.806,1.733,2.164,3.284,2.265a42.489,42.489,0,0,1,7.251.979,37.614,37.614,0,0,1-5.951,4.665,3.064,3.064,0,0,0-1.445,3.864c.633,2.336.954,4.755,1.509,7.656-2.443-1.678-4.618-2.94-6.5-4.539-1.478-1.254-2.608-1.1-4.093-.163-2.061,1.3-4.242,2.4-6.881,3.873.961-3.1,1.707-5.685,2.578-8.232a2.266,2.266,0,0,0-.66-2.74C303.048,33.975,300.761,32.422,298.621,29.7Z" transform="translate(-241.345 130.931)"/><path class="a" d="M324.262,56.459c3.888,0,7.082-.224,10.226.07,2.617.244,3.785-.847,4.671-3.075,1.137-2.863,2.558-5.615,4.154-9.056,1.348,3.822,2.621,6.936,3.525,10.152.664,2.36,2.265,2.826,4.288,2.958a55.686,55.686,0,0,1,9.468,1.28,49.009,49.009,0,0,1-7.768,6.092c-1.979,1.35-2.518,2.731-1.889,5.043.827,3.05,1.247,6.211,1.971,10-3.191-2.19-6.03-3.838-8.491-5.927-1.931-1.636-3.407-1.432-5.344-.213-2.694,1.693-5.542,3.138-8.986,5.058,1.251-4.044,2.226-7.425,3.363-10.748a2.954,2.954,0,0,0-.86-3.578C330.042,62.038,327.057,60.01,324.262,56.459Z" transform="translate(-210.595 159.63)"/><path class="a" d="M308.021,44.783c3.251,0,5.918-.187,8.544.057,2.188.207,3.165-.708,3.906-2.569.95-2.393,2.138-4.691,3.473-7.568,1.126,3.193,2.188,5.795,2.945,8.485.556,1.971,1.894,2.362,3.585,2.472a46.517,46.517,0,0,1,7.911,1.067,40.766,40.766,0,0,1-6.492,5.091,3.343,3.343,0,0,0-1.577,4.216c.691,2.549,1.04,5.19,1.645,8.355-2.665-1.832-5.039-3.209-7.095-4.953-1.614-1.368-2.846-1.2-4.467-.178-2.25,1.414-4.632,2.621-7.51,4.227,1.049-3.38,1.863-6.2,2.813-8.984a2.468,2.468,0,0,0-.719-2.989C312.85,49.445,310.357,47.75,308.021,44.783Z" transform="translate(-230.072 148.005)"/></g></g></svg>