<svg xmlns="http://www.w3.org/2000/svg" width="133.558" height="133.557" viewBox="0 0 133.558 133.557">
  <path id="Caminho_3187" data-name="Caminho 3187" d="M1834.453,77.135a11.2,11.2,0,0,0-6.636-3.024l-8.133-.88a49.492,49.492,0,0,0-7.266-17.521l5.181-6.439c3.346-4.157,3.412-9.723.151-12.984a8.424,8.424,0,0,0-6.04-2.4,11.169,11.169,0,0,0-6.943,2.553l-6.447,5.186a49.541,49.541,0,0,0-17.476-7.239l-.886-8.189c-.574-5.308-4.463-9.29-9.074-9.29a8.443,8.443,0,0,0-6.051,2.654,11.2,11.2,0,0,0-3.023,6.636l-.886,8.189a49.527,49.527,0,0,0-17.429,7.207l-6.454-5.194c-4.16-3.346-9.724-3.412-12.984-.152a8.431,8.431,0,0,0-2.4,6.042,11.173,11.173,0,0,0,2.554,6.944l5.173,6.428a49.542,49.542,0,0,0-7.3,17.558l-8.245.891c-5.308.574-9.29,4.463-9.29,9.074a8.44,8.44,0,0,0,2.655,6.05,11.2,11.2,0,0,0,6.635,3.024l8.245.891a49.539,49.539,0,0,0,7.241,17.476l-5.156,6.409c-3.346,4.157-3.412,9.723-.151,12.984a8.425,8.425,0,0,0,6.039,2.4,11.17,11.17,0,0,0,6.944-2.553l6.4-5.152a49.519,49.519,0,0,0,17.521,7.269l.886,8.189c.574,5.308,4.463,9.29,9.074,9.29a8.439,8.439,0,0,0,6.05-2.654,11.19,11.19,0,0,0,3.024-6.636l.886-8.189a49.528,49.528,0,0,0,17.569-7.3l6.391,5.144c4.159,3.346,9.726,3.412,12.986.152s3.194-8.824-.151-12.984l-5.165-6.42a49.474,49.474,0,0,0,7.21-17.436l8.133-.88c5.309-.574,9.29-4.463,9.29-9.074A8.443,8.443,0,0,0,1834.453,77.135ZM1770.885,112A28.811,28.811,0,1,1,1799.7,83.185,28.81,28.81,0,0,1,1770.885,112Z" transform="translate(-1704.05 -16.407)" fill="#ffd000" stroke="rgba(0,0,0,0)" stroke-width="1"/>
</svg>
