<svg xmlns="http://www.w3.org/2000/svg" width="235.595" height="198.731" viewBox="0 0 235.595 198.731"><defs><style>.a{opacity:0.1;}.b,.d{opacity:0.6;}.c,.d{fill:#165425;}</style></defs><g class="a" transform="translate(15.356 -17.793) rotate(7)"><g transform="translate(0 0)"><g class="b" transform="translate(60.427 12.227)"><path class="c" d="M12.1,0C5.768,0,0,5.564,0,11.678S3.975,23.985,11.565,23.985c5.181,0,12.42-4.351,12.42-11.455C23.985,5.629,18.657,0,12.1,0Zm-.534,21.222c-6.045,0-8.8-4.949-8.8-9.544,0-4.494,4.625-8.914,9.334-8.914,5.03,0,9.119,4.39,9.119,9.767C21.218,17.837,15.5,21.222,11.565,21.222Z" transform="translate(13.894 13.105)"/><path class="c" d="M4.932,0A5.051,5.051,0,0,0,0,4.781a4.786,4.786,0,0,0,4.749,5c2.057,0,5.035-1.679,5.035-4.716A4.964,4.964,0,0,0,4.932,0ZM4.749,7.017c-1.966,0-1.983-2.149-1.983-2.236A2.272,2.272,0,0,1,4.932,2.763a2.2,2.2,0,0,1,2.087,2.3C7.019,6.275,5.548,7.017,4.749,7.017Z" transform="translate(19.558 19.556)"/><path class="c" d="M22.113,0a4.063,4.063,0,0,0-1.791.594l-.9.445a10.758,10.758,0,0,0-2.765,1.62c-1.727,1.59-.7,3.616-.086,4.842.287.569.712,1.422.594,1.714a5.9,5.9,0,0,1-.791.586,5.923,5.923,0,0,0-1.3,1.069l-.572.68c-.529.626-1.068,1.264-1.556,1.9a23.6,23.6,0,0,0-1.425,1.989,6.48,6.48,0,0,0-.544,1.444c-.045.153-.1.337-.158.522-.729-.259-1.8-.747-2.236-.942L7.13,15.83a14.113,14.113,0,0,0-2.322-.856c-1.717-.41-2.582-.008-3.113,1.417a3.446,3.446,0,0,1-.253.594c-.081.151-.2.334-.322.527-.633.974-1.5,2.3-.942,3.655.378.927,1.549,1.511,3.29,2.278.248.107.458.2.594.267a29.215,29.215,0,0,0,3.131,1.4c.525.207,1.059.463,1.6.725a.584.584,0,0,0-.027.1c-.546.064-1.074.126-1.61.18a28.1,28.1,0,0,0-4.217.661A3.186,3.186,0,0,0,.811,28.325c-.724,1.356-.173,2.9.317,4.261.136.378.275.757.363,1.1a1.4,1.4,0,0,0,1.123,1.026,7.656,7.656,0,0,0,4.019-1.157A10.933,10.933,0,0,1,8.1,32.9c.21-.052.448-.139.692-.225a5.148,5.148,0,0,1,1.016-.28A12.465,12.465,0,0,0,5.915,36.12a1.88,1.88,0,0,0-.188,2.463,7.455,7.455,0,0,0,1.34,1.544l.269.27a17.542,17.542,0,0,0,2.627,2.238,1.382,1.382,0,0,0,1.835-.326L12.046,42c1.848-2.4,3.262-3.792,4.2-4.172a7.8,7.8,0,0,0,2.53,1.578c.938.413,1.521.692,1.674,1.177a29.549,29.549,0,0,1,.908,4.55c.086.571.166,1.143.26,1.675a1.352,1.352,0,0,0,1.073,1.121,17.514,17.514,0,0,0,4.382.282,1.4,1.4,0,0,0,1.281-1.145,10.886,10.886,0,0,0-.255-4.041,17.389,17.389,0,0,1-.28-1.868,5.634,5.634,0,0,1,2.03-.485c.143.173.4.561.677.938s.567.789.853,1.113a15.652,15.652,0,0,1,1.016,1.32c.233.326.455.636.687.928a1.384,1.384,0,0,0,1.905.259,12.4,12.4,0,0,0,2.74-2.775,1.884,1.884,0,0,0,.119-2.506l-.67-1.016q-.451-.733-.928-1.45c-.119-.181-.217-.334-.28-.442.1-.118.227-.28.339-.431.536-.67.848-1.133,1.162-1.6.1-.149.206-.312.314-.463a9.974,9.974,0,0,1,1.081.626,11.775,11.775,0,0,0,1.019.594c.626.314,1.291.593,1.947.866.468.193.943.386,1.387.593A1.39,1.39,0,0,0,45,36.659a19.109,19.109,0,0,0,2.323-5.411,1.386,1.386,0,0,0-.886-1.546,10.233,10.233,0,0,1-1.523-.8c-.433-.272-.875-.525-1.308-.742-.66-.326-1.318-.6-1.988-.883l-.012-.316c-.015-.389-.034-.767-.055-1.153,2.021-.218,4.571-.725,5.73-1.86,1.857-1.8.064-5.993-.153-6.47a1.385,1.385,0,0,0-1.036-.8,16.7,16.7,0,0,0-5.047-.183,6.755,6.755,0,0,0-.871.2c-.151.052-.393.119-.524.149l-.171-.462a17.32,17.32,0,0,0-4.917-6.138,10.736,10.736,0,0,0,1.82-4.8,1.584,1.584,0,0,0,.092-.67c-.129-1.111-1.328-1.781-3.279-2.763l-.8-.443A2.917,2.917,0,0,0,29.732.886c-.331.128-.876.356-1.919,2.594l-.436.962A13.01,13.01,0,0,1,26.215,6.7c-.114.165-.211.218-.94.262A18.443,18.443,0,0,0,24.254,1.7,2.668,2.668,0,0,0,22.819.119,2,2,0,0,0,22.113,0ZM11.4,20.332a1.728,1.728,0,0,0,.833-.195c.8-.421,1.074-1.372,1.4-2.471a7.826,7.826,0,0,1,.26-.8,17.713,17.713,0,0,1,1.226-1.684c.49-.651,1-1.254,1.506-1.85l.579-.7a5.658,5.658,0,0,1,.724-.541,4.392,4.392,0,0,0,1.783-1.795c.626-1.477-.091-2.891-.67-4.041a4.433,4.433,0,0,1-.572-1.489,8.547,8.547,0,0,1,2.1-1.209l1.051-.51a1.338,1.338,0,0,1,.139-.074,18.193,18.193,0,0,1,.787,4.538l.107,1.153a1.365,1.365,0,0,0,.6,1.009,1.39,1.39,0,0,0,1.162.181,4.432,4.432,0,0,1,.98-.128,3.631,3.631,0,0,0,3.082-1.44,16,16,0,0,0,1.434-2.728l.4-.908c.136-.282.294-.584.433-.844.049.032.092.052.129.074.161.119.317.217.442.3.121.062.359.185.64.321.356.175,1.16.588,1.642.886a8.415,8.415,0,0,1-2.14,4.353A1.389,1.389,0,0,0,32,11.95c1.578.593,4.189,3.7,4.917,5.478l.141.4A2.331,2.331,0,0,0,39.2,19.6a3.828,3.828,0,0,0,1.781-.248c.163-.044.326-.1.455-.119a13.115,13.115,0,0,1,3.447.065,5.716,5.716,0,0,1,.421,2.743c-.411.378-2.463.95-5.359,1.143a1.347,1.347,0,0,0-.989.51,1.4,1.4,0,0,0-.287,1.09,18.24,18.24,0,0,1,.173,2.29l.055,1.231a1.39,1.39,0,0,0,.848,1.2l.556.223c.7.292,1.4.586,2.085.928.368.173.742.4,1.115.616.27.171.549.332.831.487A19.636,19.636,0,0,1,43.2,34.209c-.107-.044-.215-.1-.317-.143-.6-.248-1.205-.5-1.774-.777-.237-.123-.5-.294-.777-.465a6.35,6.35,0,0,0-3.208-1.21,1.41,1.41,0,0,0-1.009.519c-.341.431-.648.873-.954,1.33-.269.408-.537.809-.858,1.219-1.409,1.773-1.583,2.5-.356,4.335.309.453.6.917.891,1.382l.455.712a7.345,7.345,0,0,1-.893.984c-.307-.421-.62-.831-.955-1.21A9.772,9.772,0,0,1,32.774,40,12.218,12.218,0,0,0,31.656,38.6c-1.341-1.318-3.458-.539-5.015.035l-.626.223a1.385,1.385,0,0,0-.95,1.2,12.667,12.667,0,0,0,.324,3.467,16.9,16.9,0,0,1,.29,1.941,12.282,12.282,0,0,1-1.484-.094l-.1-.66a31.361,31.361,0,0,0-1-4.979c-.536-1.686-2-2.344-3.181-2.864a4.791,4.791,0,0,1-1.751-1.068,1.385,1.385,0,0,0-1.172-.831c-2.421-.2-4.591,2.137-6.524,4.568-.369-.324-.757-.69-1.152-1.09L9,38.149c-.217-.207-.487-.465-.672-.672a11.9,11.9,0,0,1,4.219-3.541,1.35,1.35,0,0,0,.628-.791,1.382,1.382,0,0,0-.253-1.585,8.272,8.272,0,0,0-2-1.7,3.845,3.845,0,0,0-3.034.2c-.195.062-.373.129-.536.173a12.869,12.869,0,0,0-1.939.831,17.731,17.731,0,0,1-1.62.735c-.022-.054-.044-.1-.06-.149-.2-.574-.626-1.751-.48-2.043a.928.928,0,0,1,.388-.161,25.7,25.7,0,0,1,3.8-.6c.9-.1,1.8-.193,2.733-.349a1.368,1.368,0,0,0,1.145-1.252,6.221,6.221,0,0,1,.27-1.148c.076-.235.141-.462.2-.7a1.376,1.376,0,0,0-.772-1.586l-.982-.465c-.608-.292-1.222-.584-1.827-.821A28.75,28.75,0,0,1,5.327,21.26c-.163-.086-.426-.2-.737-.346a19.489,19.489,0,0,1-1.759-.853,9.989,9.989,0,0,1,.6-1.046,7.94,7.94,0,0,0,.455-.735,5.939,5.939,0,0,0,.28-.614,12.5,12.5,0,0,1,1.843.687c.306.141.609.282.922.4l.52.225A11.488,11.488,0,0,0,11.4,20.332Z" transform="translate(0 0)"/></g><g class="b" transform="translate(163.688 81.577)"><path class="c" d="M12.1,0C5.768,0,0,5.564,0,11.679S3.975,23.985,11.567,23.985c5.181,0,12.42-4.352,12.42-11.453C23.987,5.631,18.658,0,12.1,0Zm-.534,21.224c-6.049,0-8.8-4.949-8.8-9.544,0-4.5,4.622-8.914,9.334-8.914,5.03,0,9.121,4.388,9.121,9.767C21.222,17.837,15.5,21.224,11.567,21.224Z" transform="translate(13.897 13.103)"/><path class="c" d="M4.936,0A5.053,5.053,0,0,0,0,4.783a4.787,4.787,0,0,0,4.749,5c2.06,0,5.036-1.68,5.036-4.717A4.964,4.964,0,0,0,4.936,0ZM4.749,7.019c-1.966,0-1.981-2.151-1.981-2.236A2.268,2.268,0,0,1,4.936,2.765a2.2,2.2,0,0,1,2.085,2.3C7.021,6.275,5.55,7.019,4.749,7.019Z" transform="translate(19.561 19.555)"/><path class="c" d="M22.118,0a4.084,4.084,0,0,0-1.795.594l-.9.445a10.727,10.727,0,0,0-2.763,1.617c-1.727,1.593-.7,3.62-.089,4.842.287.572.713,1.425.594,1.716a5.9,5.9,0,0,1-.789.586,5.882,5.882,0,0,0-1.294,1.071l-.572.68c-.529.626-1.069,1.264-1.558,1.9a23.986,23.986,0,0,0-1.424,1.991,6.135,6.135,0,0,0-.546,1.444c-.045.151-.1.336-.158.522-.73-.26-1.8-.749-2.234-.942l-1.461-.636a13.971,13.971,0,0,0-2.323-.855c-1.719-.411-2.582-.01-3.112,1.415a3.524,3.524,0,0,1-.254.594c-.082.151-.2.334-.324.527-.633.975-1.5,2.3-.942,3.655.379.928,1.551,1.511,3.29,2.278.25.107.46.2.594.269A29.637,29.637,0,0,0,7.2,25.1c.524.206,1.058.463,1.6.725a.634.634,0,0,0-.025.1c-.546.064-1.073.128-1.61.18a28.188,28.188,0,0,0-4.221.663A3.188,3.188,0,0,0,.81,28.323c-.722,1.358-.171,2.9.319,4.263.136.378.275.755.363,1.1a1.4,1.4,0,0,0,1.123,1.027,7.685,7.685,0,0,0,4.021-1.157A10.822,10.822,0,0,1,8.1,32.9c.212-.054.45-.141.69-.227a5.278,5.278,0,0,1,1.017-.28,12.494,12.494,0,0,0-3.9,3.727,1.88,1.88,0,0,0-.188,2.463,7.412,7.412,0,0,0,1.34,1.544l.27.27a17.466,17.466,0,0,0,2.627,2.238,1.379,1.379,0,0,0,1.833-.326l.252-.314c1.847-2.4,3.262-3.792,4.2-4.17A7.867,7.867,0,0,0,18.777,39.4c.942.411,1.526.69,1.677,1.177a29.485,29.485,0,0,1,.908,4.55c.086.571.166,1.142.26,1.675A1.354,1.354,0,0,0,22.7,47.925a17.513,17.513,0,0,0,4.382.28,1.4,1.4,0,0,0,1.279-1.143,10.776,10.776,0,0,0-.255-4.041,17.432,17.432,0,0,1-.279-1.869,5.608,5.608,0,0,1,2.028-.487c.144.173.4.561.678.938s.567.789.853,1.113a16.443,16.443,0,0,1,1.017,1.32c.232.326.452.638.687.93a1.385,1.385,0,0,0,1.905.257,12.4,12.4,0,0,0,2.74-2.775,1.882,1.882,0,0,0,.119-2.506l-.672-1.016c-.3-.489-.608-.972-.927-1.449-.119-.183-.215-.334-.28-.442.1-.119.227-.282.337-.431.536-.67.849-1.135,1.165-1.6.1-.149.2-.314.312-.465a9.406,9.406,0,0,1,1.081.628,11.284,11.284,0,0,0,1.022.593c.623.314,1.288.594,1.944.866.47.195.943.388,1.388.594a1.393,1.393,0,0,0,1.783-.564,18.984,18.984,0,0,0,2.32-5.411,1.38,1.38,0,0,0-.883-1.546,10.014,10.014,0,0,1-1.524-.8c-.433-.27-.875-.525-1.309-.74-.658-.326-1.316-.6-1.986-.885l-.008-.314c-.018-.389-.037-.767-.057-1.155,2.023-.217,4.57-.725,5.73-1.86,1.855-1.8.062-5.993-.154-6.468a1.388,1.388,0,0,0-1.034-.8,16.818,16.818,0,0,0-5.048-.183,6.752,6.752,0,0,0-.871.2c-.149.054-.391.119-.524.149l-.171-.462a17.3,17.3,0,0,0-4.917-6.136,10.76,10.76,0,0,0,1.82-4.8,1.544,1.544,0,0,0,.091-.668C36.349,3.672,35.151,3,33.2,2.023l-.794-.443a2.913,2.913,0,0,0-2.669-.7c-.331.126-.878.356-1.919,2.594l-.437.964A13.214,13.214,0,0,1,26.219,6.7c-.113.163-.21.215-.94.259A18.466,18.466,0,0,0,24.258,1.7,2.658,2.658,0,0,0,22.821.119,1.994,1.994,0,0,0,22.118,0ZM11.405,20.332a1.705,1.705,0,0,0,.833-.2c.8-.42,1.074-1.372,1.4-2.471a7.828,7.828,0,0,1,.26-.8,18.458,18.458,0,0,1,1.226-1.684c.49-.651,1-1.254,1.506-1.85l.581-.7a5.38,5.38,0,0,1,.722-.541,4.417,4.417,0,0,0,1.785-1.795c.624-1.477-.094-2.893-.673-4.041a4.517,4.517,0,0,1-.571-1.491,8.635,8.635,0,0,1,2.1-1.209l1.049-.51c.042-.022.091-.052.139-.076a18.341,18.341,0,0,1,.789,4.54l.107,1.157a1.366,1.366,0,0,0,.6,1.007,1.4,1.4,0,0,0,1.162.181,4.344,4.344,0,0,1,.98-.129,3.63,3.63,0,0,0,3.084-1.439,15.948,15.948,0,0,0,1.432-2.731l.4-.9c.138-.282.292-.584.431-.844.052.032.092.052.131.074.161.119.319.217.442.3.121.062.361.185.64.321.356.173,1.16.586,1.642.885a8.409,8.409,0,0,1-2.141,4.355A1.389,1.389,0,0,0,32,11.95c1.58.591,4.189,3.693,4.917,5.478l.141.4A2.335,2.335,0,0,0,39.2,19.6a3.837,3.837,0,0,0,1.783-.248c.163-.044.326-.1.453-.118a13.113,13.113,0,0,1,3.447.065,5.717,5.717,0,0,1,.423,2.741c-.411.378-2.463.95-5.362,1.143a1.35,1.35,0,0,0-.987.51,1.393,1.393,0,0,0-.287,1.091,18.861,18.861,0,0,1,.175,2.288L38.9,28.3a1.384,1.384,0,0,0,.849,1.2l.554.225c.7.292,1.4.584,2.085.927.369.175.742.4,1.116.616.269.171.549.334.831.489a19.741,19.741,0,0,1-1.126,2.453c-.1-.044-.215-.1-.316-.143-.6-.248-1.205-.5-1.774-.776-.238-.123-.5-.3-.777-.467a6.348,6.348,0,0,0-3.21-1.209,1.414,1.414,0,0,0-1.011.519c-.341.431-.648.873-.952,1.328-.269.41-.539.809-.858,1.221-1.41,1.773-1.583,2.495-.356,4.335.307.452.6.917.893,1.38l.452.712a7.222,7.222,0,0,1-.891.985c-.309-.421-.62-.831-.955-1.212A9.8,9.8,0,0,1,32.778,40a11.923,11.923,0,0,0-1.118-1.4c-1.341-1.316-3.458-.539-5.013.035l-.63.225a1.386,1.386,0,0,0-.949,1.2,12.676,12.676,0,0,0,.324,3.468,18.043,18.043,0,0,1,.29,1.941,12.666,12.666,0,0,1-1.486-.094l-.1-.66a31.231,31.231,0,0,0-1.006-4.981c-.534-1.684-2-2.344-3.181-2.862A4.778,4.778,0,0,1,18.158,35.8a1.389,1.389,0,0,0-1.173-.831c-2.419-.195-4.592,2.137-6.522,4.57-.368-.326-.755-.69-1.152-1.091L9,38.148c-.217-.2-.487-.463-.672-.67a11.889,11.889,0,0,1,4.221-3.542,1.356,1.356,0,0,0,.626-.789,1.384,1.384,0,0,0-.252-1.585,8.386,8.386,0,0,0-2-1.7,3.855,3.855,0,0,0-3.035.2c-.193.064-.374.129-.536.173a13.05,13.05,0,0,0-1.941.833,17.745,17.745,0,0,1-1.62.734,1.394,1.394,0,0,1-.06-.149c-.2-.574-.626-1.751-.48-2.043a.967.967,0,0,1,.388-.159,25.735,25.735,0,0,1,3.8-.6c.9-.1,1.806-.193,2.735-.351a1.367,1.367,0,0,0,1.145-1.252,6.136,6.136,0,0,1,.272-1.148c.076-.235.139-.462.2-.7a1.373,1.373,0,0,0-.774-1.588l-.98-.463c-.608-.292-1.222-.586-1.828-.823a28.9,28.9,0,0,1-2.886-1.276c-.161-.086-.426-.2-.734-.344-.39-.173-1.3-.572-1.761-.853a10.032,10.032,0,0,1,.6-1.048,8.068,8.068,0,0,0,.455-.735,6.423,6.423,0,0,0,.282-.614,12.465,12.465,0,0,1,1.84.688c.307.139.613.28.925.4l.52.223A11.492,11.492,0,0,0,11.405,20.332Z"/></g><g class="b" transform="translate(75.711 61.664)"><path class="c" d="M12.1,0C5.768,0,0,5.564,0,11.681s3.975,12.3,11.565,12.3c5.181,0,12.42-4.351,12.42-11.448C23.985,5.629,18.658,0,12.1,0Zm-.536,21.22c-6.045,0-8.8-4.949-8.8-9.539,0-4.494,4.625-8.914,9.336-8.914,5.028,0,9.118,4.388,9.118,9.767C21.218,17.836,15.5,21.22,11.565,21.22Z" transform="translate(13.893 13.105)"/><path class="c" d="M4.932,0A5.05,5.05,0,0,0,0,4.785,4.783,4.783,0,0,0,4.748,9.777c2.058,0,5.035-1.677,5.035-4.712A4.965,4.965,0,0,0,4.932,0ZM4.748,7.019c-1.966,0-1.983-2.151-1.983-2.235a2.272,2.272,0,0,1,2.167-2.02,2.2,2.2,0,0,1,2.085,2.3C7.017,6.275,5.548,7.019,4.748,7.019Z" transform="translate(19.559 19.556)"/><path class="c" d="M22.114,0a4.064,4.064,0,0,0-1.793.594l-.9.448a10.7,10.7,0,0,0-2.765,1.618c-1.727,1.588-.7,3.614-.086,4.842.287.567.712,1.42.594,1.716a6.075,6.075,0,0,1-.791.584,5.864,5.864,0,0,0-1.294,1.069l-.573.68c-.529.626-1.069,1.262-1.556,1.9a22.954,22.954,0,0,0-1.425,1.988,6.43,6.43,0,0,0-.546,1.447c-.044.149-.1.334-.158.519-.729-.26-1.8-.747-2.234-.94l-1.461-.635a14.1,14.1,0,0,0-2.32-.858c-1.719-.408-2.584-.008-3.113,1.417a3.517,3.517,0,0,1-.253.594c-.082.154-.2.334-.324.527-.633.975-1.5,2.305-.94,3.655.378.928,1.55,1.513,3.289,2.276.248.111.458.208.594.269a29.4,29.4,0,0,0,3.133,1.4c.524.206,1.059.465,1.6.725a.912.912,0,0,0-.027.1c-.544.065-1.073.128-1.61.18a28.154,28.154,0,0,0-4.217.665A3.177,3.177,0,0,0,.81,28.325c-.724,1.355-.173,2.9.319,4.259.136.378.275.757.361,1.1a1.407,1.407,0,0,0,1.125,1.026,7.675,7.675,0,0,0,4.019-1.157A10.943,10.943,0,0,1,8.1,32.9c.21-.054.448-.141.69-.227a5.232,5.232,0,0,1,1.017-.279,12.467,12.467,0,0,0-3.895,3.727,1.881,1.881,0,0,0-.19,2.463,7.5,7.5,0,0,0,1.34,1.543l.27.272a17.537,17.537,0,0,0,2.626,2.238,1.386,1.386,0,0,0,1.837-.326l.248-.314c1.847-2.4,3.262-3.794,4.2-4.172a7.816,7.816,0,0,0,2.53,1.578c.94.411,1.523.69,1.674,1.177a29.37,29.37,0,0,1,.908,4.55c.086.571.168,1.143.26,1.675a1.352,1.352,0,0,0,1.073,1.121,17.437,17.437,0,0,0,4.382.28,1.4,1.4,0,0,0,1.281-1.143A10.883,10.883,0,0,0,28.1,43.02a18.289,18.289,0,0,1-.28-1.869,5.6,5.6,0,0,1,2.03-.485c.143.173.4.561.677.938s.567.789.853,1.111a16.34,16.34,0,0,1,1.017,1.321c.232.324.453.636.685.928a1.386,1.386,0,0,0,1.907.257,12.428,12.428,0,0,0,2.74-2.773,1.89,1.89,0,0,0,.119-2.508l-.67-1.014c-.3-.489-.611-.974-.93-1.45-.119-.183-.215-.334-.28-.442.1-.119.227-.28.339-.431.536-.67.848-1.133,1.163-1.6.1-.149.2-.312.312-.463a9.7,9.7,0,0,1,1.081.626,11.1,11.1,0,0,0,1.021.593c.626.316,1.291.594,1.946.866.468.195.945.388,1.387.594A1.392,1.392,0,0,0,45,36.657a19.14,19.14,0,0,0,2.322-5.413,1.383,1.383,0,0,0-.886-1.544,10.383,10.383,0,0,1-1.523-.8c-.432-.27-.875-.525-1.308-.742-.66-.324-1.318-.6-1.988-.883l-.01-.312c-.017-.391-.035-.769-.055-1.157,2.021-.215,4.57-.727,5.728-1.86,1.859-1.8.064-6-.153-6.468a1.392,1.392,0,0,0-1.036-.8,16.791,16.791,0,0,0-5.047-.18,6.446,6.446,0,0,0-.871.2c-.149.054-.391.119-.522.149l-.173-.462a17.309,17.309,0,0,0-4.916-6.134,10.765,10.765,0,0,0,1.818-4.8,1.526,1.526,0,0,0,.092-.668c-.129-1.113-1.328-1.781-3.277-2.767l-.8-.443A2.927,2.927,0,0,0,29.732.888c-.332.129-.876.358-1.919,2.6l-.438.959A12.968,12.968,0,0,1,26.215,6.7c-.116.163-.211.22-.94.264A18.47,18.47,0,0,0,24.253,1.7,2.667,2.667,0,0,0,22.817.119,2.039,2.039,0,0,0,22.114,0ZM11.4,20.335a1.717,1.717,0,0,0,.831-.2c.8-.418,1.074-1.373,1.4-2.473a8.357,8.357,0,0,1,.26-.8,18.305,18.305,0,0,1,1.226-1.684c.492-.651,1-1.254,1.508-1.848l.578-.7a6.481,6.481,0,0,1,.724-.541,4.373,4.373,0,0,0,1.783-1.795c.626-1.476-.091-2.889-.67-4.041a4.47,4.47,0,0,1-.572-1.486,8.425,8.425,0,0,1,2.1-1.21l1.051-.509a1.338,1.338,0,0,1,.139-.076,18.1,18.1,0,0,1,.787,4.538l.109,1.153a1.364,1.364,0,0,0,.6,1.011,1.4,1.4,0,0,0,1.162.181,4.442,4.442,0,0,1,.98-.129,3.627,3.627,0,0,0,3.084-1.442A16.09,16.09,0,0,0,29.91,5.559l.4-.91c.134-.282.292-.586.431-.844.049.03.092.052.129.076.161.118.319.215.442.294.121.062.359.185.64.321.356.176,1.162.589,1.642.89a8.416,8.416,0,0,1-2.141,4.353A1.392,1.392,0,0,0,32,11.953c1.576.589,4.187,3.693,4.916,5.475l.141.4A2.335,2.335,0,0,0,39.2,19.6a3.859,3.859,0,0,0,1.783-.25c.163-.045.324-.1.453-.119a13.137,13.137,0,0,1,3.448.067,5.682,5.682,0,0,1,.42,2.743c-.41.378-2.463.95-5.359,1.143a1.341,1.341,0,0,0-.987.51,1.383,1.383,0,0,0-.287,1.091,18.187,18.187,0,0,1,.171,2.285l.055,1.232a1.384,1.384,0,0,0,.848,1.194l.557.225c.7.292,1.393.584,2.083.927.368.175.742.4,1.115.618.27.171.549.332.831.487A19.488,19.488,0,0,1,43.2,34.206c-.107-.042-.217-.1-.319-.141-.6-.248-1.205-.5-1.773-.777-.238-.123-.5-.294-.777-.465a6.335,6.335,0,0,0-3.208-1.21,1.411,1.411,0,0,0-1.011.519c-.341.431-.648.873-.952,1.328-.27.41-.539.811-.858,1.221-1.41,1.773-1.585,2.5-.358,4.335.309.453.6.917.893,1.382l.453.712a7.432,7.432,0,0,1-.891.984c-.309-.421-.621-.831-.957-1.21a10.428,10.428,0,0,1-.675-.886A11.726,11.726,0,0,0,31.654,38.6c-1.34-1.318-3.457-.539-5.013.035l-.628.223a1.388,1.388,0,0,0-.95,1.2,12.739,12.739,0,0,0,.324,3.468,17.318,17.318,0,0,1,.292,1.941,12.282,12.282,0,0,1-1.486-.094l-.1-.66a31.186,31.186,0,0,0-1-4.979c-.534-1.686-2-2.345-3.181-2.864A4.813,4.813,0,0,1,18.153,35.8a1.383,1.383,0,0,0-1.172-.831c-2.421-.2-4.592,2.137-6.524,4.568-.368-.326-.757-.69-1.15-1.091L9,38.148c-.217-.207-.487-.465-.67-.672a11.867,11.867,0,0,1,4.217-3.542,1.352,1.352,0,0,0,.628-.789,1.38,1.38,0,0,0-.254-1.585,8.287,8.287,0,0,0-2-1.7,3.842,3.842,0,0,0-3.035.2c-.193.062-.373.129-.534.173a12.87,12.87,0,0,0-1.941.831,17.34,17.34,0,0,1-1.62.734c-.02-.052-.042-.1-.059-.149-.2-.572-.628-1.749-.48-2.041a.915.915,0,0,1,.388-.161,25.275,25.275,0,0,1,3.8-.593c.9-.1,1.8-.195,2.735-.351a1.37,1.37,0,0,0,1.145-1.252,6.121,6.121,0,0,1,.27-1.148c.074-.233.139-.462.2-.7a1.379,1.379,0,0,0-.774-1.586l-.982-.462c-.606-.3-1.222-.586-1.826-.823a28.726,28.726,0,0,1-2.884-1.274c-.163-.089-.426-.208-.735-.348a19.547,19.547,0,0,1-1.759-.855,9.431,9.431,0,0,1,.6-1.046,7.794,7.794,0,0,0,.453-.735,5.3,5.3,0,0,0,.282-.616,12.967,12.967,0,0,1,1.842.692c.306.141.609.282.922.4l.52.225C9.474,19.9,10.6,20.335,11.4,20.335Z"/></g><g class="b" transform="translate(0 52.468)"><path class="c" d="M18.445,0C8.79,0,0,8.485,0,17.8S6.059,36.578,17.629,36.578c7.9,0,18.932-6.638,18.932-17.471C36.561,8.582,28.444,0,18.445,0Zm-.816,32.359c-9.217,0-13.417-7.543-13.417-14.555,0-6.848,7.051-13.585,14.233-13.585,7.667,0,13.9,6.688,13.9,14.888C32.346,27.2,23.633,32.359,17.629,32.359Z" transform="translate(21.182 19.975)"/><path class="c" d="M7.519,0A7.7,7.7,0,0,0,0,7.3c0,3.69,2.535,7.618,7.239,7.618,3.138,0,7.674-2.562,7.674-7.19A7.568,7.568,0,0,0,7.519,0Zm-.28,10.7c-3,0-3.023-3.277-3.023-3.408a3.466,3.466,0,0,1,3.3-3.081A3.352,3.352,0,0,1,10.7,7.724C10.7,9.573,8.458,10.7,7.239,10.7Z" transform="translate(29.817 29.809)"/><path class="c" d="M33.712,0a6.122,6.122,0,0,0-2.735.9l-1.365.675a16.4,16.4,0,0,0-4.219,2.471c-2.634,2.421-1.069,5.517-.133,7.377.438.876,1.089,2.177.908,2.622a9.458,9.458,0,0,1-1.2.888,9.164,9.164,0,0,0-1.978,1.632l-.873,1.038c-.806.954-1.628,1.927-2.37,2.9a36.409,36.409,0,0,0-2.174,3.03,9.877,9.877,0,0,0-.831,2.208c-.067.233-.148.51-.238.794-1.113-.4-2.752-1.138-3.41-1.434l-2.223-.975a22.012,22.012,0,0,0-3.541-1.3c-2.617-.628-3.937-.017-4.744,2.157a5.369,5.369,0,0,1-.384.907c-.126.233-.307.51-.5.806C.742,28.179-.576,30.2.272,32.26c.578,1.419,2.364,2.308,5.013,3.479.381.163.7.312.908.411a45.6,45.6,0,0,0,4.776,2.125c.8.312,1.612.708,2.436,1.106a.877.877,0,0,0-.039.144c-.833.1-1.64.2-2.458.282a42.653,42.653,0,0,0-6.426,1,4.875,4.875,0,0,0-3.245,2.372c-1.1,2.07-.264,4.424.483,6.5.206.577.42,1.155.552,1.682a2.125,2.125,0,0,0,1.712,1.563c1.911.252,4.068-.739,6.129-1.759a16.54,16.54,0,0,1,2.234-1.009c.324-.081.685-.21,1.056-.342a7.584,7.584,0,0,1,1.548-.428A19.03,19.03,0,0,0,9.019,55.07a2.87,2.87,0,0,0-.29,3.754,11.531,11.531,0,0,0,2.041,2.355l.413.411a26.589,26.589,0,0,0,4,3.411,2.108,2.108,0,0,0,2.8-.5l.379-.48c2.817-3.656,4.971-5.78,6.4-6.356a11.927,11.927,0,0,0,3.853,2.4c1.434.626,2.322,1.054,2.555,1.8a44.78,44.78,0,0,1,1.383,6.935c.129.871.257,1.746.395,2.553A2.075,2.075,0,0,0,34.6,73.07a26.92,26.92,0,0,0,6.677.43,2.133,2.133,0,0,0,1.952-1.744,16.644,16.644,0,0,0-.384-6.165,26.1,26.1,0,0,1-.428-2.847A8.689,8.689,0,0,1,45.5,62c.217.264.613.855,1.034,1.434s.863,1.2,1.3,1.7c.557.628,1.061,1.335,1.548,2.01.354.5.692.972,1.046,1.419a2.111,2.111,0,0,0,2.906.393,18.943,18.943,0,0,0,4.177-4.231c.94-1.434,1.185-2.406.178-3.823l-1.019-1.548c-.46-.742-.93-1.484-1.417-2.208-.178-.28-.329-.51-.426-.675.148-.183.346-.428.517-.66.818-1.019,1.293-1.728,1.771-2.438.156-.23.314-.477.478-.71a15.42,15.42,0,0,1,1.647.955,16.963,16.963,0,0,0,1.555.907c.957.478,1.973.908,2.966,1.321.717.3,1.44.591,2.117.9a2.12,2.12,0,0,0,2.718-.856c1.283-2.241,3.055-5.518,3.539-8.253a2.1,2.1,0,0,0-1.348-2.355,15.427,15.427,0,0,1-2.323-1.219c-.658-.413-1.336-.8-1.991-1.126-1.007-.5-2.011-.923-3.034-1.351l-.013-.478c-.027-.6-.052-1.172-.086-1.763,3.081-.331,6.967-1.106,8.732-2.834,2.834-2.748.1-9.139-.232-9.866a2.1,2.1,0,0,0-1.581-1.217,25.5,25.5,0,0,0-7.692-.282,10.4,10.4,0,0,0-1.325.314c-.23.082-.6.183-.8.232l-.262-.708a26.423,26.423,0,0,0-7.5-9.358,16.352,16.352,0,0,0,2.775-7.31A2.421,2.421,0,0,0,55.6,7.294c-.2-1.7-2.025-2.72-5-4.217L49.391,2.4c-1.068-.707-2.525-1.677-4.064-1.054-.5.2-1.336.546-2.924,3.954l-.668,1.467a19.671,19.671,0,0,1-1.771,3.442c-.171.245-.321.329-1.432.4A28.094,28.094,0,0,0,36.974,2.58a4.044,4.044,0,0,0-2.191-2.4A3.09,3.09,0,0,0,33.712,0ZM17.383,31a2.661,2.661,0,0,0,1.269-.294c1.219-.643,1.639-2.1,2.132-3.774a11.185,11.185,0,0,1,.4-1.217,27.368,27.368,0,0,1,1.865-2.569c.75-.99,1.524-1.914,2.3-2.819l.881-1.069a8.276,8.276,0,0,1,1.1-.826,6.74,6.74,0,0,0,2.718-2.736c.955-2.256-.141-4.412-1.022-6.156a6.861,6.861,0,0,1-.875-2.273,12.973,12.973,0,0,1,3.207-1.847l1.6-.772c.065-.034.141-.086.213-.119a27.569,27.569,0,0,1,1.2,6.92l.163,1.761a2.112,2.112,0,0,0,2.686,1.813,7.012,7.012,0,0,1,1.491-.2,5.544,5.544,0,0,0,4.7-2.191,23.845,23.845,0,0,0,2.182-4.17l.619-1.382c.2-.43.443-.89.656-1.286.077.052.141.082.2.119.245.176.484.327.673.443.181.1.542.279.97.494.547.262,1.769.89,2.5,1.351a12.866,12.866,0,0,1-3.259,6.636,2.113,2.113,0,0,0,.823,3.374c2.4.908,6.383,5.634,7.494,8.35l.213.613a3.564,3.564,0,0,0,3.262,2.7A5.917,5.917,0,0,0,62.47,29.5c.248-.069.5-.148.693-.183a20.246,20.246,0,0,1,5.253.1c.618,1.795.883,3.672.641,4.18-.623.577-3.755,1.449-8.169,1.746a2.07,2.07,0,0,0-1.506.774,2.125,2.125,0,0,0-.435,1.662,28.959,28.959,0,0,1,.262,3.494l.082,1.88a2.109,2.109,0,0,0,1.294,1.818l.848.348c1.063.443,2.124.888,3.18,1.415.559.265,1.128.613,1.7.942.415.259.839.509,1.268.739a29.572,29.572,0,0,1-1.714,3.739c-.163-.067-.329-.148-.482-.215-.917-.379-1.838-.757-2.7-1.184-.361-.181-.766-.445-1.184-.708A9.706,9.706,0,0,0,56.6,48.2a2.134,2.134,0,0,0-1.541.787c-.52.66-.989,1.335-1.451,2.028-.413.625-.823,1.236-1.308,1.86-2.151,2.7-2.414,3.8-.546,6.6.47.692.915,1.4,1.362,2.109l.688,1.088a11.063,11.063,0,0,1-1.356,1.5c-.472-.641-.949-1.266-1.459-1.845a15.986,15.986,0,0,1-1.029-1.35,17.867,17.867,0,0,0-1.7-2.124c-2.043-2.011-5.273-.824-7.645.05l-.954.344a2.112,2.112,0,0,0-1.451,1.828,19.394,19.394,0,0,0,.5,5.288,27.2,27.2,0,0,1,.445,2.963,19.812,19.812,0,0,1-2.268-.146l-.156-1.007a47.585,47.585,0,0,0-1.533-7.592c-.813-2.569-3.054-3.576-4.85-4.365a7.335,7.335,0,0,1-2.668-1.628,2.111,2.111,0,0,0-1.788-1.269c-3.687-.3-7,3.259-9.945,6.967-.561-.5-1.152-1.056-1.753-1.665l-.468-.462c-.331-.312-.744-.707-1.024-1.021.759-1.219,2.486-3.1,6.432-5.4a2.083,2.083,0,0,0,.957-1.2A2.111,2.111,0,0,0,19.7,48.12a12.774,12.774,0,0,0-3.047-2.587c-1.544-.776-3.259-.185-4.627.309-.3.1-.569.2-.816.267a19.236,19.236,0,0,0-2.955,1.267A26.97,26.97,0,0,1,5.78,48.5c-.032-.084-.065-.149-.089-.23-.307-.873-.957-2.673-.734-3.114a1.376,1.376,0,0,1,.594-.247A39.266,39.266,0,0,1,11.345,44c1.368-.148,2.753-.294,4.169-.536a2.09,2.09,0,0,0,1.748-1.91,9.559,9.559,0,0,1,.408-1.744c.118-.366.217-.708.307-1.069A2.1,2.1,0,0,0,16.8,36.314l-1.5-.708c-.925-.447-1.86-.888-2.783-1.252a43.522,43.522,0,0,1-4.4-1.944c-.247-.131-.651-.312-1.12-.527a28.34,28.34,0,0,1-2.684-1.3,15.2,15.2,0,0,1,.922-1.6,12.49,12.49,0,0,0,.693-1.12,8.942,8.942,0,0,0,.426-.938,18.537,18.537,0,0,1,2.807,1.054c.472.212.933.428,1.409.609l.792.346C14.443,30.338,16.157,31,17.383,31Z" transform="translate(0 0)"/></g><g class="b" transform="translate(148.538 0)"><path class="c" d="M18.45,0C8.794,0,0,8.483,0,17.805S6.062,36.575,17.632,36.575c7.9,0,18.937-6.638,18.937-17.468C36.57,8.579,28.447,0,18.45,0Zm-.818,32.357c-9.217,0-13.417-7.541-13.417-14.552,0-6.851,7.053-13.588,14.235-13.588,7.667,0,13.9,6.688,13.9,14.889C32.354,27.2,23.638,32.357,17.632,32.357Z" transform="translate(21.178 19.978)"/><path class="c" d="M7.521,0A7.7,7.7,0,0,0,0,7.3c0,3.688,2.537,7.62,7.239,7.62,3.139,0,7.677-2.564,7.677-7.189A7.573,7.573,0,0,0,7.521,0ZM7.239,10.7C4.244,10.7,4.217,7.427,4.217,7.3a3.466,3.466,0,0,1,3.3-3.079A3.354,3.354,0,0,1,10.7,7.728C10.7,9.573,8.458,10.7,7.239,10.7Z" transform="translate(29.818 29.811)"/><path class="c" d="M33.714,0a6.1,6.1,0,0,0-2.736.9l-1.365.673a16.58,16.58,0,0,0-4.219,2.471c-2.636,2.423-1.069,5.52-.134,7.38.442.875,1.093,2.174.912,2.621a9.934,9.934,0,0,1-1.2.888,9.162,9.162,0,0,0-1.976,1.632l-.875,1.038c-.806.955-1.628,1.926-2.37,2.9a35.5,35.5,0,0,0-2.174,3.03,9.685,9.685,0,0,0-.831,2.208c-.07.233-.149.51-.238.792-1.115-.4-2.753-1.138-3.411-1.434l-2.221-.972a21.787,21.787,0,0,0-3.542-1.3c-2.616-.628-3.937-.017-4.743,2.159a5.553,5.553,0,0,1-.386.907c-.126.232-.307.51-.494.8C.741,28.179-.576,30.207.272,32.265c.576,1.415,2.362,2.308,5.011,3.478.381.163.7.312.908.408a45.979,45.979,0,0,0,4.776,2.129c.8.311,1.612.7,2.436,1.1a1.09,1.09,0,0,0-.039.146c-.833.1-1.64.2-2.456.279a42.657,42.657,0,0,0-6.428,1.006,4.858,4.858,0,0,0-3.245,2.37c-1.1,2.072-.263,4.424.484,6.5.207.578.421,1.153.554,1.68a2.123,2.123,0,0,0,1.711,1.565c1.91.25,4.068-.74,6.129-1.759A16.346,16.346,0,0,1,12.35,50.16c.322-.081.683-.212,1.054-.344a7.61,7.61,0,0,1,1.548-.428A19.064,19.064,0,0,0,9.017,55.07a2.872,2.872,0,0,0-.29,3.755,11.489,11.489,0,0,0,2.043,2.355l.411.411a26.679,26.679,0,0,0,4,3.413,2.107,2.107,0,0,0,2.8-.5l.379-.48c2.815-3.655,4.973-5.778,6.4-6.354a12,12,0,0,0,3.856,2.4c1.432.626,2.32,1.053,2.552,1.795a44.662,44.662,0,0,1,1.385,6.935c.129.871.255,1.746.4,2.553a2.074,2.074,0,0,0,1.64,1.712,26.91,26.91,0,0,0,6.675.426,2.134,2.134,0,0,0,1.956-1.741,16.638,16.638,0,0,0-.388-6.165,26.48,26.48,0,0,1-.426-2.851,8.69,8.69,0,0,1,3.094-.739c.215.264.609.854,1.031,1.434s.868,1.2,1.3,1.7a25.252,25.252,0,0,1,1.546,2.008c.354.5.692.972,1.048,1.42a2.114,2.114,0,0,0,2.908.391,18.86,18.86,0,0,0,4.174-4.231c.942-1.434,1.187-2.406.181-3.821l-1.021-1.548c-.458-.744-.928-1.484-1.417-2.208-.18-.282-.329-.51-.425-.678.144-.18.346-.426.515-.66.818-1.017,1.294-1.726,1.773-2.436.156-.23.314-.475.477-.707a13.965,13.965,0,0,1,1.647.954,17.194,17.194,0,0,0,1.555.907c.96.478,1.973.9,2.97,1.318.717.3,1.437.594,2.117.907a2.116,2.116,0,0,0,2.716-.856c1.284-2.24,3.057-5.517,3.541-8.251a2.105,2.105,0,0,0-1.35-2.357,15.166,15.166,0,0,1-2.322-1.217,22.619,22.619,0,0,0-1.993-1.126c-1.007-.5-2.01-.927-3.035-1.351l-.013-.478c-.027-.6-.05-1.173-.082-1.763,3.079-.331,6.965-1.1,8.73-2.832,2.837-2.748.1-9.143-.23-9.868a2.1,2.1,0,0,0-1.581-1.219,25.451,25.451,0,0,0-7.694-.282,10.026,10.026,0,0,0-1.323.314c-.233.082-.6.181-.8.232l-.26-.708a26.413,26.413,0,0,0-7.5-9.358,16.381,16.381,0,0,0,2.777-7.311,2.47,2.47,0,0,0,.141-1.022c-.2-1.7-2.028-2.716-5-4.217L49.393,2.4C48.325,1.7,46.868.724,45.328,1.35c-.5.2-1.335.544-2.924,3.954l-.667,1.464a19.986,19.986,0,0,1-1.775,3.443c-.171.247-.321.329-1.43.4A28.279,28.279,0,0,0,36.978,2.58,4.046,4.046,0,0,0,34.784.18,3.077,3.077,0,0,0,33.714,0ZM17.381,31A2.676,2.676,0,0,0,18.65,30.7c1.22-.643,1.64-2.093,2.134-3.774a11.71,11.71,0,0,1,.394-1.219,27.939,27.939,0,0,1,1.869-2.569c.749-.991,1.523-1.91,2.3-2.817l.883-1.071a8.321,8.321,0,0,1,1.1-.824A6.736,6.736,0,0,0,30.049,15.7c.955-2.256-.141-4.415-1.024-6.158a6.812,6.812,0,0,1-.871-2.273,12.929,12.929,0,0,1,3.2-1.847l1.6-.774c.062-.03.139-.084.21-.119a27.432,27.432,0,0,1,1.205,6.922l.164,1.759a2.079,2.079,0,0,0,.913,1.534,2.118,2.118,0,0,0,1.773.282,6.887,6.887,0,0,1,1.491-.2,5.555,5.555,0,0,0,4.7-2.191A24.121,24.121,0,0,0,45.6,8.465l.62-1.385c.2-.428.443-.888.655-1.284.077.05.141.084.2.118.247.178.484.327.673.445.181.1.542.277.972.492.544.265,1.769.89,2.5,1.351a12.834,12.834,0,0,1-3.259,6.636,2.122,2.122,0,0,0-.47,1.912,2.1,2.1,0,0,0,1.293,1.466c2.4.9,6.386,5.632,7.5,8.35l.213.611a3.563,3.563,0,0,0,3.262,2.7,5.85,5.85,0,0,0,2.716-.381c.25-.065.5-.146.693-.18a20.163,20.163,0,0,1,5.255.1c.616,1.795.881,3.675.641,4.184-.623.576-3.757,1.449-8.169,1.746a2.079,2.079,0,0,0-1.509.776,2.133,2.133,0,0,0-.435,1.662,28.874,28.874,0,0,1,.264,3.492l.084,1.879a2.1,2.1,0,0,0,1.293,1.82l.848.348c1.063.443,2.125.888,3.181,1.415.557.262,1.126.613,1.692.94.418.262.843.507,1.271.74a29.547,29.547,0,0,1-1.714,3.737c-.163-.065-.329-.148-.484-.215-.915-.378-1.84-.755-2.706-1.182-.359-.181-.766-.445-1.184-.708a9.681,9.681,0,0,0-4.89-1.845,2.146,2.146,0,0,0-1.544.789c-.519.66-.987,1.333-1.451,2.026-.41.626-.823,1.236-1.306,1.862-2.152,2.7-2.416,3.8-.544,6.6.47.69.912,1.4,1.36,2.107l.688,1.09a11.246,11.246,0,0,1-1.355,1.5c-.473-.641-.95-1.266-1.462-1.843a15.52,15.52,0,0,1-1.027-1.348,18.087,18.087,0,0,0-1.7-2.127c-2.043-2.01-5.273-.824-7.647.05l-.954.342a2.117,2.117,0,0,0-1.452,1.83,19.446,19.446,0,0,0,.5,5.288,26.394,26.394,0,0,1,.445,2.963,19.066,19.066,0,0,1-2.266-.146l-.16-1.007a47.4,47.4,0,0,0-1.529-7.59c-.813-2.569-3.055-3.576-4.85-4.367A7.325,7.325,0,0,1,27.675,54.6a2.109,2.109,0,0,0-1.788-1.273c-3.687-.3-7,3.262-9.945,6.969-.562-.5-1.153-1.056-1.754-1.665l-.468-.462c-.329-.311-.744-.707-1.022-1.019.757-1.219,2.485-3.1,6.432-5.406a2.066,2.066,0,0,0,.955-1.2,2.111,2.111,0,0,0-.389-2.419,12.808,12.808,0,0,0-3.045-2.585c-1.546-.776-3.259-.183-4.628.311-.3.1-.569.2-.816.265a19.4,19.4,0,0,0-2.953,1.267c-.661.331-1.667.826-2.473,1.123-.032-.084-.065-.149-.089-.23-.306-.875-.955-2.673-.732-3.116a1.349,1.349,0,0,1,.593-.247A39.3,39.3,0,0,1,11.344,44c1.368-.149,2.753-.294,4.168-.536a2.093,2.093,0,0,0,1.749-1.91,9.413,9.413,0,0,1,.408-1.748c.118-.363.215-.705.307-1.066A2.107,2.107,0,0,0,16.8,36.316l-1.5-.707c-.923-.447-1.86-.886-2.784-1.252a44.437,44.437,0,0,1-4.4-1.942c-.247-.133-.65-.312-1.12-.529a29.026,29.026,0,0,1-2.684-1.3,15.18,15.18,0,0,1,.922-1.6,12.258,12.258,0,0,0,.693-1.121,9.317,9.317,0,0,0,.428-.937,18.786,18.786,0,0,1,2.807,1.053c.47.215.932.43,1.407.609l.792.348C14.441,30.338,16.157,31,17.381,31Z" transform="translate(0 0)"/></g><g class="b" transform="translate(128.684 67.616)"><path class="c" d="M11.241,0A11.107,11.107,0,0,0,0,10.949,11.111,11.111,0,0,0,11.241,21.9,11.115,11.115,0,0,0,22.486,10.949,11.111,11.111,0,0,0,11.241,0Zm0,19.308a8.516,8.516,0,0,1-8.648-8.359A8.516,8.516,0,0,1,11.241,2.59a8.517,8.517,0,0,1,8.649,8.359A8.517,8.517,0,0,1,11.241,19.308Z" transform="translate(7.462 6.584)"/><path class="c" d="M4.956,0A4.908,4.908,0,0,0,0,4.85,4.9,4.9,0,0,0,4.956,9.69,4.9,4.9,0,0,0,9.91,4.85,4.905,4.905,0,0,0,4.956,0Zm0,7.1A2.309,2.309,0,0,1,2.6,4.85,2.313,2.313,0,0,1,4.956,2.59a2.314,2.314,0,0,1,2.36,2.26A2.31,2.31,0,0,1,4.956,7.1Z" transform="translate(13.748 12.683)"/><path class="c" d="M1.3,0A1.3,1.3,0,0,0,.665,2.431a14.167,14.167,0,0,1,3.059,2.54L5.577,3.154A16.6,16.6,0,0,0,1.927.166,1.258,1.258,0,0,0,1.3,0Z" transform="translate(25.307 25.892)"/><path class="c" d="M1.293,0a1.3,1.3,0,0,0-.126,2.59,11.965,11.965,0,0,1,1.912.4,14.67,14.67,0,0,0,2.33.48A1.3,1.3,0,0,0,5.666.881,12.013,12.013,0,0,1,3.74.483,14.448,14.448,0,0,0,1.425.007.882.882,0,0,0,1.293,0Z" transform="translate(29.841 20.624)"/><path class="c" d="M4.078,0a1.293,1.293,0,0,0-.509.1,9.922,9.922,0,0,0-2.144,1.38c-.285.225-.564.445-.848.631A1.3,1.3,0,0,0,2.012,4.276c.334-.223.668-.485,1.011-.744A7.391,7.391,0,0,1,4.589,2.49,1.3,1.3,0,0,0,5.267.782,1.286,1.286,0,0,0,4.078,0Z" transform="translate(29.985 11.852)"/><path class="c" d="M2.9,0A1.292,1.292,0,0,0,1.713.781,29.876,29.876,0,0,1,.168,3.865,1.3,1.3,0,1,0,2.421,5.152,35.655,35.655,0,0,0,4.1,1.8,1.287,1.287,0,0,0,2.9,0Z" transform="translate(24.72 2.345)"/><path class="c" d="M1.405,0A1.3,1.3,0,0,0,.121,1.115a13.225,13.225,0,0,0,0,3.561,1.3,1.3,0,1,0,2.575-.319,10.529,10.529,0,0,1,0-2.871A1.3,1.3,0,0,0,1.59.017,1.148,1.148,0,0,0,1.405,0Z" transform="translate(16.566 0)"/><path class="c" d="M1.3,0A1.28,1.28,0,0,0,.547.24a1.288,1.288,0,0,0-.3,1.81c.158.223.309.463.465.71A6.524,6.524,0,0,0,3.2,5.376,1.28,1.28,0,0,0,4.941,4.8a1.3,1.3,0,0,0-.576-1.743A4.556,4.556,0,0,1,2.9,1.368C2.716,1.086,2.54.8,2.355.546A1.3,1.3,0,0,0,1.3,0Z" transform="translate(8.339 1.758)"/><path class="c" d="M1.3,0A1.3,1.3,0,0,0,.655,2.426a8.489,8.489,0,0,1,1.059.767,8.358,8.358,0,0,0,1.85,1.2A1.3,1.3,0,1,0,4.585,2.006,5.567,5.567,0,0,1,3.331,1.16,10.752,10.752,0,0,0,1.944.176,1.3,1.3,0,0,0,1.3,0Z" transform="translate(2.196 7.459)"/><path class="c" d="M1.3,0a1.3,1.3,0,1,0,0,2.592,25.1,25.1,0,0,1,3.346.146A1.335,1.335,0,0,0,6.1,1.607,1.29,1.29,0,0,0,4.973.161,28.5,28.5,0,0,0,1.3,0Z" transform="translate(0 17.112)"/><path class="c" d="M4.662,0A1.247,1.247,0,0,0,4.38.029,7.717,7.717,0,0,0,.3,2.359,1.306,1.306,0,0,0,.466,4.19a1.294,1.294,0,0,0,1.822-.168A5.13,5.13,0,0,1,4.939,2.562,1.3,1.3,0,0,0,4.662,0Z" transform="translate(2.928 24.727)"/><path class="c" d="M2.756,0a1.293,1.293,0,0,0-1.19.782c-.169.4-.363.8-.561,1.2-.316.66-.641,1.34-.923,2.072a1.3,1.3,0,1,0,2.428.912c.247-.651.546-1.259.831-1.853.212-.44.426-.875.611-1.309A1.3,1.3,0,0,0,3.27.1,1.269,1.269,0,0,0,2.756,0Z" transform="translate(9.363 29.112)"/><path class="c" d="M1.3,0A1.065,1.065,0,0,0,.928.057,1.288,1.288,0,0,0,.057,1.67,5.8,5.8,0,0,1,.109,3.964,14.127,14.127,0,0,0,0,5.542a1.3,1.3,0,0,0,2.6,0,12.317,12.317,0,0,1,.087-1.309A7.959,7.959,0,0,0,2.54.925,1.3,1.3,0,0,0,1.3,0Z" transform="translate(18.43 29.989)"/></g><g class="b" transform="translate(17.305 13.768)"><path class="c" d="M11.243,0A11.1,11.1,0,0,0,0,10.946,11.111,11.111,0,0,0,11.243,21.893,11.114,11.114,0,0,0,22.488,10.946,11.107,11.107,0,0,0,11.243,0Zm0,19.3A8.514,8.514,0,0,1,2.6,10.946,8.513,8.513,0,0,1,11.243,2.59a8.513,8.513,0,0,1,8.648,8.355A8.515,8.515,0,0,1,11.243,19.3Z" transform="translate(7.461 6.586)"/><path class="c" d="M4.956,0A4.907,4.907,0,0,0,0,4.847,4.907,4.907,0,0,0,4.956,9.688,4.9,4.9,0,0,0,9.908,4.847,4.9,4.9,0,0,0,4.956,0Zm0,7.1A2.309,2.309,0,0,1,2.6,4.847,2.308,2.308,0,0,1,4.956,2.59a2.31,2.31,0,0,1,2.36,2.256A2.311,2.311,0,0,1,4.956,7.1Z" transform="translate(13.748 12.685)"/><path class="c" d="M1.3,0A1.3,1.3,0,0,0,.667,2.431,14.207,14.207,0,0,1,3.724,4.973L5.577,3.156A16.644,16.644,0,0,0,1.926.168,1.227,1.227,0,0,0,1.3,0Z" transform="translate(25.306 25.889)"/><path class="c" d="M1.294,0a1.3,1.3,0,0,0-.129,2.59,12.111,12.111,0,0,1,1.912.4,14.837,14.837,0,0,0,2.332.478A1.3,1.3,0,0,0,5.664.881,11.993,11.993,0,0,1,3.74.485,14.484,14.484,0,0,0,1.425.007.856.856,0,0,0,1.294,0Z" transform="translate(29.841 20.623)"/><path class="c" d="M4.076,0a1.286,1.286,0,0,0-.51.1A9.8,9.8,0,0,0,1.425,1.484c-.285.223-.564.44-.846.63A1.3,1.3,0,0,0,2.011,4.276c.332-.225.67-.483,1.011-.745A7.447,7.447,0,0,1,4.586,2.488,1.3,1.3,0,0,0,4.076,0Z" transform="translate(29.985 11.852)"/><path class="c" d="M2.906,0A1.294,1.294,0,0,0,1.713.782,29.989,29.989,0,0,1,.17,3.865,1.3,1.3,0,0,0,2.421,5.152,34.493,34.493,0,0,0,4.1,1.8,1.3,1.3,0,0,0,3.42.1,1.265,1.265,0,0,0,2.906,0Z" transform="translate(24.72 2.344)"/><path class="c" d="M1.407,0A1.3,1.3,0,0,0,.123,1.115a13.14,13.14,0,0,0,0,3.559,1.3,1.3,0,1,0,2.575-.317,10.531,10.531,0,0,1,0-2.871A1.3,1.3,0,0,0,1.592.017,1.183,1.183,0,0,0,1.407,0Z" transform="translate(16.566 0)"/><path class="c" d="M1.3,0A1.261,1.261,0,0,0,.547.24a1.289,1.289,0,0,0-.3,1.808c.158.225.311.462.467.708A6.532,6.532,0,0,0,3.2,5.377,1.3,1.3,0,1,0,4.363,3.06,4.563,4.563,0,0,1,2.9,1.368C2.718,1.086,2.54.8,2.355.544A1.3,1.3,0,0,0,1.3,0Z" transform="translate(8.339 1.758)"/><path class="c" d="M1.3,0A1.3,1.3,0,0,0,.654,2.423a8.83,8.83,0,0,1,1.061.769,8.463,8.463,0,0,0,1.848,1.2A1.3,1.3,0,1,0,4.584,2a5.6,5.6,0,0,1-1.252-.846A11.081,11.081,0,0,0,1.944.171,1.329,1.329,0,0,0,1.3,0Z" transform="translate(2.196 7.461)"/><path class="c" d="M1.3,0a1.3,1.3,0,1,0,0,2.59,25.38,25.38,0,0,1,3.346.144A1.337,1.337,0,0,0,6.1,1.6,1.293,1.293,0,0,0,4.971.158,29.067,29.067,0,0,0,1.3,0Z" transform="translate(0 17.114)"/><path class="c" d="M4.664,0A1.241,1.241,0,0,0,4.38.027,7.7,7.7,0,0,0,.3,2.357,1.3,1.3,0,0,0,2.288,4.022,5.1,5.1,0,0,1,4.938,2.56,1.294,1.294,0,0,0,4.664,0Z" transform="translate(2.928 24.726)"/><path class="c" d="M2.755,0a1.289,1.289,0,0,0-1.19.781c-.17.4-.363.8-.561,1.2C.687,2.637.361,3.321.083,4.049a1.3,1.3,0,1,0,2.427.913c.245-.65.542-1.259.828-1.853.213-.44.426-.875.613-1.309A1.3,1.3,0,0,0,3.269.1,1.246,1.246,0,0,0,2.755,0Z" transform="translate(9.364 29.111)"/><path class="c" d="M1.3,0A1.1,1.1,0,0,0,.927.057a1.293,1.293,0,0,0-.87,1.615A5.791,5.791,0,0,1,.109,3.964,14.606,14.606,0,0,0,0,5.542a1.3,1.3,0,0,0,2.6,0,11.773,11.773,0,0,1,.091-1.308A7.918,7.918,0,0,0,2.538.925,1.291,1.291,0,0,0,1.3,0Z" transform="translate(18.43 29.985)"/></g><path class="d" d="M16.394,24.482a24.492,24.492,0,0,0,16.283,23.07,24.482,24.482,0,1,1,0-46.14A24.492,24.492,0,0,0,16.394,24.482Z" transform="translate(66.753 114.931)"/><path class="d" d="M25.356,12.827,27.865,0l-10.7,7.506L5.741,1.156,9.57,13.649,0,22.552l13.068.221,5.509,11.852,4.247-12.361L35.8,20.689Z" transform="translate(130.003 115.239)"/><path class="d" d="M23.286,11.779,25.59,0,15.764,6.889,5.272,1.057,8.788,12.533,0,20.708l12,.2L17.06,31.795l3.9-11.35L32.875,19Z" transform="translate(114.362 38.437)"/><path class="d" d="M33.888,17.143,37.242,0l-14.3,10.029L7.673,1.541l5.117,16.7L0,30.14l17.466.294,7.362,15.841L30.5,29.755l17.34-2.107Z" transform="translate(112.495 152.188)"/><path class="d" d="M20.634,10.438,22.676,0,13.967,6.106,4.672.938l3.116,10.17L0,18.351l10.635.179,4.482,9.646,3.457-10.059,10.557-1.283Z" transform="translate(79.327 169.793)"/><path class="d" d="M20.635,10.439,22.676,0,13.968,6.106,4.672.938l3.116,10.17L0,18.351l10.636.18,4.482,9.645,3.456-10.058,10.558-1.284Z" transform="translate(94.641 132.065)"/></g></g></svg>