<svg xmlns="http://www.w3.org/2000/svg" width="36" height="40" viewBox="0 0 36 40">
  <g id="Grupo_264" data-name="Grupo 264" transform="translate(-308 -36)">
    <g id="Grupo_119" data-name="Grupo 119" transform="translate(-570 -4481)">
      <g id="Grupo_102" data-name="Grupo 102" transform="translate(-2576 5974)">
        <rect id="Retângulo_72" data-name="Retângulo 72" width="36" height="35" rx="17.5" transform="translate(3454 -1452)" fill="#373737"/>
        <path id="Caminho_219" data-name="Caminho 219" d="M18.5,0a17.5,17.5,0,0,1,0,35h-1A17.5,17.5,0,0,1,0,17.5Z" transform="translate(3454 -1452)" fill="#141414"/>
        <path id="Caminho_87" data-name="Caminho 87" d="M18,0A18,18,0,1,1,0,18,18,18,0,0,1,18,0Z" transform="translate(3454 -1457)" fill="#373737"/>
      </g>
      <g id="tips_1_" data-name="tips (1)" transform="translate(885 4518)">
        <path id="Caminho_125" data-name="Caminho 125" d="M92.575,13.808A7.826,7.826,0,1,0,79.857,19.9v1.082a1.97,1.97,0,0,0,1.973,1.968h5.838a1.97,1.97,0,0,0,1.973-1.968V19.9a7.787,7.787,0,0,0,2.935-6.095Z" transform="translate(-73.589 0)" fill="#ffd000"/>
        <path id="Caminho_126" data-name="Caminho 126" d="M238.477,6a7.841,7.841,0,0,0-.969.048A7.8,7.8,0,0,1,241.524,19.9v1.082a1.971,1.971,0,0,1-1.973,1.968H241.3a1.971,1.971,0,0,0,1.973-1.968V19.9A7.8,7.8,0,0,0,238.477,6Z" transform="translate(-227.217 0)" fill="#ffd000"/>
        <path id="Caminho_127" data-name="Caminho 127" d="M177.35,188.533V179.74h3.025a.327.327,0,0,0,0-.654h-6.637a.327.327,0,1,0,0,.654H176.7v8.793Z" transform="translate(-165.897 -165.586)" fill="#373737"/>
        <g id="Grupo_118" data-name="Grupo 118" transform="translate(0 8.114)">
          <g id="Grupo_114" data-name="Grupo 114" transform="translate(7.225 14.833)">
            <g id="Grupo_113" data-name="Grupo 113">
              <path id="Caminho_128" data-name="Caminho 128" d="M210.91,431.625h-1.641a1.329,1.329,0,0,1-1.329-1.329v-2.04h4.3v2.04A1.329,1.329,0,0,1,210.91,431.625Z" transform="translate(-206.155 -426.906)" fill="#ffd000"/>
              <path id="Caminho_129" data-name="Caminho 129" d="M238.7,428.256v2.04a1.329,1.329,0,0,1-1.278,1.328h1.692a1.329,1.329,0,0,0,1.329-1.329v-2.04Z" transform="translate(-234.363 -426.906)" fill="#ffd000"/>
              <path id="Caminho_130" data-name="Caminho 130" d="M188.458,400.067h-4.336a1.059,1.059,0,0,1-1.059-1.059v-1.9h6.455v1.9A1.059,1.059,0,0,1,188.458,400.067Z" transform="translate(-182.356 -397.112)" fill="#ffd000"/>
              <path id="Caminho_131" data-name="Caminho 131" d="M268.4,397.111v1.9a1.06,1.06,0,0,1-1.059,1.06h1.744a1.059,1.059,0,0,0,1.059-1.06v-1.9Z" transform="translate(-262.978 -397.111)" fill="#ffd000"/>
              <path id="Caminho_132" data-name="Caminho 132" d="M174.373,421.577h-7.3a.327.327,0,0,0,0,.654h7.3a.327.327,0,0,0,0-.654Z" transform="translate(-166.75 -420.517)" fill="#ffd000"/>
            </g>
          </g>
          <g id="Grupo_117" data-name="Grupo 117" transform="translate(0 0)">
            <g id="Grupo_115" data-name="Grupo 115" transform="translate(0 0)">
              <path id="Caminho_133" data-name="Caminho 133" d="M2.223,180.419a.327.327,0,0,0-.327-.327H.327a.327.327,0,0,0,0,.654H1.9a.327.327,0,0,0,.327-.327Z" transform="translate(0 -174.663)" fill="#ffd000"/>
              <path id="Caminho_134" data-name="Caminho 134" d="M9.881,235.565a.327.327,0,0,0-.4-.231l-1.516.406a.327.327,0,1,0,.169.632l1.516-.406A.327.327,0,0,0,9.881,235.565Z" transform="translate(-7.388 -227.5)" fill="#ffd000"/>
              <path id="Caminho_135" data-name="Caminho 135" d="M33.427,287.042l-1.359.785a.327.327,0,1,0,.327.566l1.359-.785a.327.327,0,1,0-.327-.566Z" transform="translate(-30.522 -276.936)" fill="#ffd000"/>
              <path id="Caminho_136" data-name="Caminho 136" d="M7.964,115.84l1.516.406a.327.327,0,0,0,.169-.632l-1.516-.406a.327.327,0,0,0-.169.632Z" transform="translate(-7.387 -112.58)" fill="#ffd000"/>
              <path id="Caminho_137" data-name="Caminho 137" d="M33.753,55.62l-1.359-.785a.327.327,0,1,0-.327.566l1.359.785a.327.327,0,0,0,.327-.566Z" transform="translate(-30.521 -54.792)" fill="#ffd000"/>
            </g>
            <g id="Grupo_116" data-name="Grupo 116" transform="translate(18.79)">
              <path id="Caminho_138" data-name="Caminho 138" d="M462.589,180.091H461.02a.327.327,0,1,0,0,.654h1.569a.327.327,0,1,0,0-.654Z" transform="translate(-459.521 -174.662)" fill="#ffd000"/>
              <path id="Caminho_139" data-name="Caminho 139" d="M456.129,235.74l-1.516-.406a.327.327,0,1,0-.169.632l1.516.406a.327.327,0,1,0,.169-.632Z" transform="translate(-453.311 -227.5)" fill="#ffd000"/>
              <path id="Caminho_140" data-name="Caminho 140" d="M435.486,287.825l-1.359-.785a.327.327,0,1,0-.327.566l1.359.785a.327.327,0,1,0,.327-.566Z" transform="translate(-433.637 -276.935)" fill="#ffd000"/>
              <path id="Caminho_141" data-name="Caminho 141" d="M454.212,116.015a.327.327,0,0,0,.4.231l1.516-.406a.327.327,0,0,0-.169-.632l-1.516.406A.327.327,0,0,0,454.212,116.015Z" transform="translate(-453.31 -112.58)" fill="#ffd000"/>
              <path id="Caminho_142" data-name="Caminho 142" d="M433.964,56.23a.326.326,0,0,0,.163-.044l1.359-.785a.327.327,0,1,0-.327-.566l-1.359.785a.327.327,0,0,0,.164.61Z" transform="translate(-433.637 -54.791)" fill="#ffd000"/>
            </g>
          </g>
        </g>
      </g>
    </g>
  </g>
</svg>
