<svg xmlns="http://www.w3.org/2000/svg" width="36" height="40" viewBox="0 0 36 40"><defs><style>.a{fill:#ffd000;}.b{fill:#f08800;}.c{fill:#f6f6f6;}</style></defs><g transform="translate(-308 -36)"><g transform="translate(-570 -4481)"><g transform="translate(-2576 5974)"><rect class="a" width="36" height="35" rx="17.5" transform="translate(3454 -1452)"/><path class="b" d="M18.5,0a17.5,17.5,0,0,1,0,35h-1A17.5,17.5,0,0,1,0,17.5Z" transform="translate(3454 -1452)"/><path class="a" d="M18,0A18,18,0,1,1,0,18,18,18,0,0,1,18,0Z" transform="translate(3454 -1457)"/></g><g transform="translate(885 4518)"><path class="c" d="M92.575,13.808A7.826,7.826,0,1,0,79.857,19.9v1.082a1.97,1.97,0,0,0,1.973,1.968h5.838a1.97,1.97,0,0,0,1.973-1.968V19.9a7.787,7.787,0,0,0,2.935-6.095Z" transform="translate(-73.589 0)"/><path class="c" d="M238.477,6a7.841,7.841,0,0,0-.969.048A7.8,7.8,0,0,1,241.524,19.9v1.082a1.971,1.971,0,0,1-1.973,1.968H241.3a1.971,1.971,0,0,0,1.973-1.968V19.9A7.8,7.8,0,0,0,238.477,6Z" transform="translate(-227.217 0)"/><path class="a" d="M177.35,188.533V179.74h3.025a.327.327,0,0,0,0-.654h-6.637a.327.327,0,1,0,0,.654H176.7v8.793Z" transform="translate(-165.897 -165.586)"/><g transform="translate(0 8.114)"><g transform="translate(7.225 14.833)"><path class="c" d="M210.91,431.625h-1.641a1.329,1.329,0,0,1-1.329-1.329v-2.04h4.3v2.04A1.329,1.329,0,0,1,210.91,431.625Z" transform="translate(-206.155 -426.906)"/><path class="c" d="M238.7,428.256v2.04a1.329,1.329,0,0,1-1.278,1.328h1.692a1.329,1.329,0,0,0,1.329-1.329v-2.04Z" transform="translate(-234.363 -426.906)"/><path class="c" d="M188.458,400.067h-4.336a1.059,1.059,0,0,1-1.059-1.059v-1.9h6.455v1.9A1.059,1.059,0,0,1,188.458,400.067Z" transform="translate(-182.356 -397.112)"/><path class="c" d="M268.4,397.111v1.9a1.06,1.06,0,0,1-1.059,1.06h1.744a1.059,1.059,0,0,0,1.059-1.06v-1.9Z" transform="translate(-262.978 -397.111)"/><path class="c" d="M174.373,421.577h-7.3a.327.327,0,0,0,0,.654h7.3a.327.327,0,0,0,0-.654Z" transform="translate(-166.75 -420.517)"/></g><g transform="translate(0 0)"><g transform="translate(0 0)"><path class="c" d="M2.223,180.419a.327.327,0,0,0-.327-.327H.327a.327.327,0,0,0,0,.654H1.9a.327.327,0,0,0,.327-.327Z" transform="translate(0 -174.663)"/><path class="c" d="M9.881,235.565a.327.327,0,0,0-.4-.231l-1.516.406a.327.327,0,1,0,.169.632l1.516-.406A.327.327,0,0,0,9.881,235.565Z" transform="translate(-7.388 -227.5)"/><path class="c" d="M33.427,287.042l-1.359.785a.327.327,0,1,0,.327.566l1.359-.785a.327.327,0,1,0-.327-.566Z" transform="translate(-30.522 -276.936)"/><path class="c" d="M7.964,115.84l1.516.406a.327.327,0,0,0,.169-.632l-1.516-.406a.327.327,0,0,0-.169.632Z" transform="translate(-7.387 -112.58)"/><path class="c" d="M33.753,55.62l-1.359-.785a.327.327,0,1,0-.327.566l1.359.785a.327.327,0,0,0,.327-.566Z" transform="translate(-30.521 -54.792)"/></g><g transform="translate(18.79)"><path class="c" d="M462.589,180.091H461.02a.327.327,0,1,0,0,.654h1.569a.327.327,0,1,0,0-.654Z" transform="translate(-459.521 -174.662)"/><path class="c" d="M456.129,235.74l-1.516-.406a.327.327,0,1,0-.169.632l1.516.406a.327.327,0,1,0,.169-.632Z" transform="translate(-453.311 -227.5)"/><path class="c" d="M435.486,287.825l-1.359-.785a.327.327,0,1,0-.327.566l1.359.785a.327.327,0,1,0,.327-.566Z" transform="translate(-433.637 -276.935)"/><path class="c" d="M454.212,116.015a.327.327,0,0,0,.4.231l1.516-.406a.327.327,0,0,0-.169-.632l-1.516.406A.327.327,0,0,0,454.212,116.015Z" transform="translate(-453.31 -112.58)"/><path class="c" d="M433.964,56.23a.326.326,0,0,0,.163-.044l1.359-.785a.327.327,0,1,0-.327-.566l-1.359.785a.327.327,0,0,0,.164.61Z" transform="translate(-433.637 -54.791)"/></g></g></g></g></g></g></svg>