<svg xmlns="http://www.w3.org/2000/svg" width="105.574" height="72.274" viewBox="0 0 105.574 72.274">
  <g id="Grupo_1517" data-name="Grupo 1517" transform="translate(-18.333 -649.421)">
    <g id="Grupo_1331" data-name="Grupo 1331">
      <g id="Caminho_260-15" data-name="Caminho 260-15">
        <path id="Caminho_2074" data-name="Caminho 2074" d="M104.394,706.76v8.391q2.945-.162,5.811-.364,3.292-.228,6.489-.5c1.315-.109,2.612-.224,3.9-.345a3.58,3.58,0,0,0,3.2-2.992c.205-1.251-1.887-2.514-1.835-4.021.068-2.108,2.17-4.159,1.929-5.842a3.559,3.559,0,0,0-3.87-3.019q-2.569.243-5.207.461c-1.279.108-2.573,0-3.85.158a6.5,6.5,0,0,0-3.526,1.661,8.755,8.755,0,0,0-2.151,2.661,7.987,7.987,0,0,0-.89,3.751Z" fill="#eee9f2"/>
      </g>
      <g id="Caminho_260-16" data-name="Caminho 260-16">
        <path id="Caminho_2075" data-name="Caminho 2075" d="M37.844,708v8.391q-2.945-.162-5.812-.363-3.291-.228-6.487-.5c-1.315-.108-2.611-.223-3.9-.345a3.576,3.576,0,0,1-3.2-2.995c-.206-1.257,1.887-2.514,1.833-4.021-.067-2.108-2.168-4.159-1.928-5.842a3.559,3.559,0,0,1,3.87-3.019q2.571.242,5.208.46c1.279.108,2.571,0,3.849.157a6.5,6.5,0,0,1,3.526,1.661,8.766,8.766,0,0,1,2.151,2.661,7.625,7.625,0,0,1,.463,1.085A8.16,8.16,0,0,1,37.844,708Z" fill="#eee9f2"/>
      </g>
      <g id="Grupo_1330" data-name="Grupo 1330">
        <g id="Caminho_260-17" data-name="Caminho 260-17">
          <path id="Caminho_261-7" data-name="Caminho 261-7" d="M114.208,716.8a3.58,3.58,0,0,1-3.21,3.025c-12.035,1.126-25.2,1.85-39.335,1.866-14.552.019-28.074-.712-40.406-1.87a3.577,3.577,0,0,1-3.2-2.99,32.593,32.593,0,0,1-.09-9.862,3.56,3.56,0,0,1,3.87-3.02c12.089,1.144,25.345,1.867,39.611,1.856,14.021-.011,27.064-.727,38.976-1.854a3.58,3.58,0,0,1,3.878,3.109,34.636,34.636,0,0,1-.093,9.74Z" fill="#f5f2f7"/>
        </g>
        <g id="Grupo_1329" data-name="Grupo 1329">
          <g id="Grupo_1328" data-name="Grupo 1328">
            <path id="Caminho_2076" data-name="Caminho 2076" d="M46.934,717.135a.683.683,0,0,1-.6-.315.707.707,0,0,1,.042-.708l2.89-5.648a1.26,1.26,0,0,1,.413-.491.9.9,0,0,1,.531-.137.883.883,0,0,1,.518.184,1.188,1.188,0,0,1,.358.527l2.393,5.878a.724.724,0,0,1-.018.714.641.641,0,0,1-.594.258.8.8,0,0,1-.531-.189,1.353,1.353,0,0,1-.312-.529l-.388-1-3.377-.152-.465.969a1.5,1.5,0,0,1-.353.5A.706.706,0,0,1,46.934,717.135Zm3.173-5.51-1.263,2.681,2.322.1-1.037-2.786Z" fill="#373737"/>
            <path id="Caminho_2077" data-name="Caminho 2077" d="M55.173,717.484a.7.7,0,0,1-.529-.21.744.744,0,0,1-.17-.549l.161-5.953a.732.732,0,0,1,.21-.545.759.759,0,0,1,.562-.174.848.848,0,0,1,.484.136,1.147,1.147,0,0,1,.324.41L58.3,714.68l2.311-3.961a1.176,1.176,0,0,1,.346-.393.838.838,0,0,1,.48-.109.719.719,0,0,1,.535.2.739.739,0,0,1,.174.557l-.161,5.954a.736.736,0,0,1-1.454.143.652.652,0,0,1,.006-.182l.1-3.776-1.769,2.989a.994.994,0,0,1-.271.285.62.62,0,0,1-.366.089.643.643,0,0,1-.368-.109.873.873,0,0,1-.25-.3l-1.6-3.048-.1,3.745a.645.645,0,0,1-.562.719A.6.6,0,0,1,55.173,717.484Z" fill="#373737"/>
            <path id="Caminho_2078" data-name="Caminho 2078" d="M64.235,717.6a.738.738,0,0,1-.827-.637.763.763,0,0,1,0-.208l.063-5.585a.737.737,0,0,1,.635-.826.756.756,0,0,1,.207,0l3.59.039a.637.637,0,0,1,.157,1.251.53.53,0,0,1-.164,0l-2.9-.032-.018,1.7,2.663.029a.56.56,0,0,1,.627.482.594.594,0,0,1,0,.152.559.559,0,0,1-.646.625l-2.664-.029-.02,1.811,2.9.031a.55.55,0,0,1,.625.625.553.553,0,0,1-.635.625Z" fill="#373737"/>
            <path id="Caminho_2079" data-name="Caminho 2079" d="M72.159,717.742a.793.793,0,0,1-.6-.215.852.852,0,0,1-.207-.6l-.011-5.206H69.52a.669.669,0,0,1-.167-1.317.61.61,0,0,1,.165,0l5.236-.011a.587.587,0,0,1,.669.491.564.564,0,0,1,0,.164.588.588,0,0,1-.5.662.615.615,0,0,1-.166,0H72.936l.011,5.2a.874.874,0,0,1-.2.609A.77.77,0,0,1,72.159,717.742Z" fill="#373737"/>
            <path id="Caminho_2080" data-name="Caminho 2080" d="M76.932,717.707a.788.788,0,0,1-.6-.209.846.846,0,0,1-.214-.6l-.07-5.79a.718.718,0,0,1,.588-.828.728.728,0,0,1,.2-.005q.794-.009.8.812l.072,5.791C77.72,717.423,77.458,717.7,76.932,717.707Z" fill="#373737"/>
            <path id="Caminho_2081" data-name="Caminho 2081" d="M81.749,717.646a6.1,6.1,0,0,1-1.321-.117,3.98,3.98,0,0,1-1.15-.4.668.668,0,0,1-.369-.408.749.749,0,0,1,.02-.509.584.584,0,0,1,.867-.318,3.248,3.248,0,0,0,.923.328,4.49,4.49,0,0,0,1,.091,1.873,1.873,0,0,0,1.058-.25.689.689,0,0,0,.313-.589.566.566,0,0,0-.237-.469,2.1,2.1,0,0,0-.8-.279l-1.168-.221q-1.953-.375-1.989-1.973a2.036,2.036,0,0,1,.344-1.216,2.406,2.406,0,0,1,1.015-.831,3.829,3.829,0,0,1,1.532-.323,4.642,4.642,0,0,1,1.133.113,3.345,3.345,0,0,1,.988.385.663.663,0,0,1,.328.393.737.737,0,0,1-.027.475.581.581,0,0,1-.322.327.706.706,0,0,1-.573-.059,2.861,2.861,0,0,0-.725-.242,3.752,3.752,0,0,0-.785-.065,1.7,1.7,0,0,0-1,.274.764.764,0,0,0-.339.662.6.6,0,0,0,.226.478,1.739,1.739,0,0,0,.757.282l1.167.22q2,.387,2.039,1.909a2,2,0,0,1-.339,1.2,2.371,2.371,0,0,1-1.011.815A3.966,3.966,0,0,1,81.749,717.646Z" fill="#373737"/>
            <path id="Caminho_2082" data-name="Caminho 2082" d="M88.1,717.439a.776.776,0,0,1-.6-.2.838.838,0,0,1-.228-.6l-.186-5.2-1.82.066a.587.587,0,0,1-.686-.469.579.579,0,0,1-.007-.166.586.586,0,0,1,.479-.677.579.579,0,0,1,.166-.005l5.234-.188a.586.586,0,0,1,.684.47.607.607,0,0,1,.006.165.586.586,0,0,1-.477.677.614.614,0,0,1-.166.005l-1.821.065.188,5.2a.864.864,0,0,1-.179.614A.77.77,0,0,1,88.1,717.439Z" fill="#373737"/>
            <path id="Caminho_2083" data-name="Caminho 2083" d="M91.466,717.321a.678.678,0,0,1-.626-.258.7.7,0,0,1-.025-.708l2.345-5.894a1.258,1.258,0,0,1,.365-.527.878.878,0,0,1,.516-.186.9.9,0,0,1,.532.133,1.2,1.2,0,0,1,.407.491l2.934,5.634a.722.722,0,0,1,.051.713.639.639,0,0,1-.567.311.81.81,0,0,1-.547-.137,1.336,1.336,0,0,1-.359-.5l-.48-.964-3.377.166-.375,1a1.511,1.511,0,0,1-.3.535A.713.713,0,0,1,91.466,717.321Zm2.64-5.786-1.007,2.79,2.322-.115-1.3-2.676Z" fill="#373737"/>
          </g>
        </g>
      </g>
    </g>
    <g id="Grupo_1310" data-name="Grupo 1310">
      <path id="Caminho_2052" data-name="Caminho 2052" d="M90.4,649.421" fill="#ffe780"/>
      <g id="Grupo_1309" data-name="Grupo 1309">
        <g id="Grupo_1308" data-name="Grupo 1308">
          <path id="Caminho_2053" data-name="Caminho 2053" d="M52.1,668.55l5.184-5.743,4.763,6.2-3.745,4.2Z" fill="#f5f2f7"/>
          <path id="Caminho_2054" data-name="Caminho 2054" d="M90.207,694.8l.025.018-5.183,5.744H57.284l4.763-6.2H80.286l3.723-4.2.021-14.041v-2.9l-3.744-4.2H62.046l-4.763-6.2H85.048l5.183,5.742-.025.019Z" fill="#985eb7"/>
          <path id="Caminho_2055" data-name="Caminho 2055" d="M62.046,694.354l-4.763,6.2L52.1,694.814V668.55l6.2,4.662v16.945Z" fill="#efe9f4"/>
          <path id="Caminho_2056" data-name="Caminho 2056" d="M84.031,673.212q0,6.753-.011,13.507h-.007v3.439q-1.865,2.1-3.723,4.2H62.046l-3.744-4.2V673.213l3.744-4.2H80.287Z" fill="#cbb2db"/>
        </g>
        <path id="Caminho_1801-15" data-name="Caminho 1801-15" d="M79.484,669.322a.176.176,0,0,1,.045-.045l.452-.25.275-.15.025-.015a.1.1,0,0,0,.045-.045l.115-.205v-.01l.16-.291h0l.135-.241a.1.1,0,0,1,.055-.05.106.106,0,0,1,.1,0,.117.117,0,0,1,.046.045l.3.541.115.211a.084.084,0,0,0,.045.044l.081.045.672.367a.114.114,0,0,1,.045.15.108.108,0,0,1-.045.045l-.125.071-.287.16-.276.15h0l-.055.031a.105.105,0,0,0-.046.045l-.095.17-.16.292-.155.291a.113.113,0,0,1-.15.04.109.109,0,0,1-.045-.04l-.412-.751a.115.115,0,0,0-.045-.045l-.751-.41A.125.125,0,0,1,79.484,669.322Z" fill="#fff"/>
        <path id="Caminho_1801-2-2" data-name="Caminho 1801-2-2" d="M80.544,674.119A.509.509,0,0,1,80.66,674l1.165-.633.71-.389.065-.037a.267.267,0,0,0,.118-.117l.3-.53v-.026l.413-.751v-.013l.349-.625a.293.293,0,0,1,.392-.113.263.263,0,0,1,.116.117l.764,1.4.3.542a.248.248,0,0,0,.116.117l.206.115L87.4,674a.293.293,0,0,1,.116.388.251.251,0,0,1-.116.116l-.335.181-.738.415-.711.389H85.6l-.142.08a.24.24,0,0,0-.116.115l-.25.44-.414.75-.4.751a.3.3,0,0,1-.5,0l-1.06-1.94a.253.253,0,0,0-.116-.115l-1.938-1.06A.31.31,0,0,1,80.544,674.119Z" fill="#fff"/>
      </g>
    </g>
  </g>
</svg>
