<svg xmlns="http://www.w3.org/2000/svg" width="105.572" height="69.328" viewBox="0 0 105.572 69.328">
  <g id="Grupo_1522" data-name="Grupo 1522" transform="translate(-148.633 -191.818)">
    <g id="Grupo_1002" data-name="Grupo 1002">
      <g id="Grupo_996" data-name="Grupo 996">
        <path id="Caminho_1791" data-name="Caminho 1791" d="M191.044,220.453a9.058,9.058,0,0,0,.453,1.8A12.1,12.1,0,0,1,191.044,220.453Z" fill="#5cb5bc"/>
      </g>
      <g id="Grupo_997-2" data-name="Grupo 997-2">
        <path id="Caminho_1792" data-name="Caminho 1792" d="M201.267,202.034c-.543.493-1.346,1.23-2.265,2.175a4.949,4.949,0,0,0-.349.375c.932-.97,1.89-1.9,2.9-2.783l.273-.25v-.014Zm-2.976,2.913c-.25.259-.492.53-.738.8l-.582.659c-.454.532-.919,1.1-1.376,1.681a4.759,4.759,0,0,0-.32.441c.232-.311.48-.626.72-.932.842-1.05,1.721-2.058,2.654-3.016a4.488,4.488,0,0,0-.363.367Zm-4.465,5.669-.039.08c.052-.08.09-.155.142-.22A.569.569,0,0,0,193.826,210.616Zm-1,1.708c-.141.272-.284.561-.414.841.169-.349.35-.7.544-1.06a1.834,1.834,0,0,0-.125.22Zm.66-1.165c-.181.31-.362.634-.53.946.194-.351.4-.713.625-1.075a.955.955,0,0,0-.09.126Z" fill="#e6f5fa"/>
        <path id="Caminho_1793-2" data-name="Caminho 1793-2" d="M201.837,191.822l-.012,9.721-.56.491c-.545.493-1.347,1.231-2.265,2.175a4.751,4.751,0,0,0-.349.375,4.438,4.438,0,0,0-.363.363c-.25.259-.493.53-.738.8l-.583.661c-.453.53-.919,1.1-1.376,1.68a5.147,5.147,0,0,0-.32.44,2.6,2.6,0,0,0-.168.233,3.2,3.2,0,0,0-.207.272c-.126.168-.251.337-.363.518a5.018,5.018,0,0,0-.363.53c-.09.126-.168.259-.25.389a.564.564,0,0,0-.1.143l-.039.08c-.025.013-.025.038-.038.064-.061.087-.117.179-.169.271a.841.841,0,0,0-.09.125c-.182.311-.363.635-.531.946a2.071,2.071,0,0,0-.125.22c-.141.284-.3.561-.414.841-.012.012-.012.026-.025.052-.026.064-.065.126-.091.194a19.589,19.589,0,0,0-.721,1.825c-.012.026-.012.051-.026.08a1.087,1.087,0,0,0-.051.194l-.039.117a3.552,3.552,0,0,0-.1.362,2.45,2.45,0,0,0-.09.336c0,.027-.014.053-.014.08-.038.169-.08.321-.1.481a7.556,7.556,0,0,0-.126.764c0,.039-.013.08-.013.116v.065a4.255,4.255,0,0,0-.052.686c0,.08-.012.155-.012.233s-.014.168-.014.25v.8h-7.247l.1-.893c1.268-10.8,12.1-21.681,16.709-25.85Z" fill="#e7f5fa"/>
      </g>
      <g id="Grupo_998" data-name="Grupo 998">
        <path id="Caminho_1794" data-name="Caminho 1794" d="M199.729,230.383a6.914,6.914,0,0,0,1.376.25A9.566,9.566,0,0,1,199.729,230.383Z" fill="#5cb5bc"/>
      </g>
      <g id="Grupo_999" data-name="Grupo 999">
        <path id="Caminho_1795-2" data-name="Caminho 1795-2" d="M205.035,204.8c.155.155.3.321.441.492h.012C205.346,205.127,205.189,204.959,205.035,204.8Zm3.042,3.688v.027c.428.581.828,1.15,1.2,1.721q-.585-.912-1.2-1.751Z" fill="#5cb5bc"/>
        <path id="Caminho_1796-2" data-name="Caminho 1796-2" d="M219.751,219.5l-.1-.685h.013l-.219-.983c-2.357-10.472-12.142-20.774-16.247-24.709l-1.36-1.307-.014,9.721v.012l.259.25.285.259c.22.22.5.48.816.789l.32.321c.233.25.465.493.712.738l.569.608a2.342,2.342,0,0,1,.25.285c.155.155.31.32.453.491l.142-.08a.246.246,0,0,0,.116-.116l.25-.44.414-.751.4-.75a.289.289,0,0,1,.389-.1.306.306,0,0,1,.116.1l1.062,1.941a.253.253,0,0,0,.117.116l1.941,1.062a.31.31,0,0,1,.116.388.5.5,0,0,1-.116.117l-1.165.633-.711.389-.065.039a.255.255,0,0,0-.117.117l-.3.531q.625.834,1.2,1.751.251.386.5.816c.143.232.271.465.4.685.258.44.492.875.712,1.346.1.22.22.44.31.66a16.683,16.683,0,0,1,1.251,3.792c.039.2.08.4.1.6.012.091.026.168.039.26s.026.192.038.3c0,.065.013.117.013.182l.014.22c.012.207.025.414.025.625v.08a9.828,9.828,0,0,1-.126,1.643c-.038.2-.08.4-.116.6s-.08.35-.125.53a10.875,10.875,0,0,1-1.088,2.654,12.207,12.207,0,0,1-1.281,1.774,5.112,5.112,0,0,1-.439.491,7.225,7.225,0,0,1-.738.661l-.053.051.013.026-.413.284a8.984,8.984,0,0,1-1.023.674c-.169.1-.337.194-.518.284a10.134,10.134,0,0,1-1.384.6,13.068,13.068,0,0,1-1.386.388,6.762,6.762,0,0,1-.737.116,5.857,5.857,0,0,1-.686.08,2.874,2.874,0,0,1-.321.014l-.453.026v.025l-.466-.051a1.494,1.494,0,0,1-.25-.026,6.987,6.987,0,0,1-1.376-.25,5.823,5.823,0,0,1-.673-.2,5.042,5.042,0,0,1-.48-.167h-.013l-.273-.118a9.823,9.823,0,0,1-2.3-1.36l-.79-.633-.414-.414a12.741,12.741,0,0,1-1.851-2.252l-.271.492a.081.081,0,0,1-.1.039c-.013-.013-.025-.027-.025-.039l-.3-.518c0-.012-.012-.025-.026-.039l-.375-.206-.156-.08a.072.072,0,0,1-.032-.094v-.01c0-.012.014-.026.026-.039l.013-.013.518-.272a.028.028,0,0,0,.026-.026l.1-.194c-.08-.156-.154-.316-.219-.48a10.526,10.526,0,0,1-.626-1.515,9.2,9.2,0,0,1-.453-1.8.018.018,0,0,1,0-.025h0a3.262,3.262,0,0,1-.065-.324l-.065-.311h-7.235l-.012.79a14.769,14.769,0,0,0,.052,1.7,21.622,21.622,0,0,0,6.834,13.2l.816.75.012-.012.467.375a16.333,16.333,0,0,0,9.112,3.739l.876.08v-.025l.841-.04a17.914,17.914,0,0,0,9.435-3.2l.545-.375.012.013.816-.686a18.01,18.01,0,0,0,6.458-13.862A19.553,19.553,0,0,0,219.751,219.5Zm-6.821-10.289a.129.129,0,0,1-.027.065l-.518.777a.1.1,0,0,0-.012.065l-.013.919a.124.124,0,0,1-.124.125h0a.142.142,0,0,1-.065-.026l-.75-.492v-.012l-.025-.014a.094.094,0,0,0-.065-.012l-.876-.026h-.039a.108.108,0,0,1-.116-.1.049.049,0,0,1,0-.017v-.013a.074.074,0,0,1,.013-.052l.012-.025.493-.738.012-.013a.247.247,0,0,0,.027-.065l.012-.932a.116.116,0,0,1,.117-.116h0a.094.094,0,0,1,.065.013l.776.517c.027.013.039.025.065.025l.932.014a.117.117,0,0,1,.117.115h0Z" fill="#5cb5bc"/>
      </g>
      <g id="Grupo_1000" data-name="Grupo 1000">
        <path id="Caminho_1797" data-name="Caminho 1797" d="M206.043,208.505q-.309-.408-.625-.776l.206.115a.262.262,0,0,1,.117.118Z" fill="#b2dbdf"/>
        <path id="Caminho_1798" data-name="Caminho 1798" d="M191.044,220.453a9.058,9.058,0,0,0,.453,1.8A12.1,12.1,0,0,1,191.044,220.453Zm1.785-8.13c-.142.272-.284.561-.414.841.168-.349.35-.7.544-1.061a1.787,1.787,0,0,0-.125.221Zm.66-1.165c-.181.311-.363.634-.53.945.194-.35.4-.713.625-1.074a.942.942,0,0,0-.1.13Zm.337-.543-.039.08c.052-.08.09-.155.142-.22A.569.569,0,0,0,193.826,210.615Zm4.465-5.669c-.25.259-.492.53-.738.8l-.582.66c-.454.531-.919,1.1-1.376,1.68a4.884,4.884,0,0,0-.32.44c.232-.31.48-.625.72-.932.842-1.049,1.721-2.057,2.654-3.015a4.8,4.8,0,0,0-.359.368Zm1.44,25.432a6.915,6.915,0,0,0,1.376.25A9.732,9.732,0,0,1,199.731,230.378Zm1.54-28.345c-.544.492-1.347,1.23-2.265,2.175a4.949,4.949,0,0,0-.349.375c.932-.971,1.89-1.9,2.9-2.783l.272-.25v-.014Zm3.767,2.77c.155.155.3.32.44.492h.013c-.145-.169-.3-.337-.457-.492Zm.712,3.158a.262.262,0,0,0-.117-.118l-.207-.115q.311.368.625.776Zm2.329.53v.026c.427.582.829,1.151,1.205,1.721q-.586-.912-1.208-1.75Zm1.089,19.3-.389.35a7.229,7.229,0,0,0,.738-.66,5.269,5.269,0,0,0,.44-.493c-.25.273-.507.544-.793.8Zm3.521-8a11.587,11.587,0,0,1-.115,1.644,9.938,9.938,0,0,0,.125-1.644Zm-.013-.7.013.625h.013c0-.207-.018-.414-.031-.625Z" fill="#b3dbdf"/>
        <path id="Caminho_1799" data-name="Caminho 1799" d="M212.7,219.713v.08h-.014a11.45,11.45,0,0,1-.115,1.644c-.04.2-.08.4-.118.6s-.08.349-.125.531a10.838,10.838,0,0,1-1.086,2.653,12.461,12.461,0,0,1-1.281,1.773,10.825,10.825,0,0,1-.789.8l-.389.351-.052.051c-.125.1-.259.206-.4.31a9.347,9.347,0,0,1-1.023.673c-.168.1-.337.195-.518.285a10.128,10.128,0,0,1-1.384.6,12.764,12.764,0,0,1-1.386.387,6.318,6.318,0,0,1-.737.118,5.852,5.852,0,0,1-.687.08,2.626,2.626,0,0,1-.32.012c-.142.013-.3.013-.44.013-.168,0-.32,0-.48-.013a1.416,1.416,0,0,1-.251-.025,9.579,9.579,0,0,1-1.375-.25,5.816,5.816,0,0,1-.673-.194q-.244-.072-.481-.168h-.012l-.273-.117a12.772,12.772,0,0,1-5.345-4.685l.039-.039.53-.285.027-.025a.122.122,0,0,0-.027-.117l-.53-.284c-.013,0-.025-.014-.039-.027l-.284-.53a.028.028,0,0,0-.026-.026.068.068,0,0,0-.1.011l-.009.015-.182.31c-.08-.155-.155-.3-.232-.453a10.744,10.744,0,0,1-.626-1.514,12.236,12.236,0,0,1-.452-1.8.018.018,0,0,1,0-.025h0a2.731,2.731,0,0,1-.065-.324c-.013-.1-.013-.206-.027-.31-.012-.181-.025-.363-.026-.53v-.273c0-.08.014-.155.014-.25s.012-.156.012-.234c.014-.22.027-.453.052-.685v-.065c0-.039.013-.08.013-.117.014-.091.039-.181.052-.271.026-.155.052-.32.08-.493s.065-.31.1-.48c0-.025.014-.052.014-.08a2.464,2.464,0,0,1,.09-.337,3.461,3.461,0,0,1,.1-.361l.039-.118a1.089,1.089,0,0,1,.052-.194c.013-.026.013-.051.025-.08.208-.6.441-1.2.721-1.824.026-.065.065-.126.091-.194.013-.027.013-.04.025-.053.169-.349.35-.7.544-1.06s.4-.713.626-1.076c.052-.093.108-.184.168-.271.014-.027.014-.052.039-.064a2.3,2.3,0,0,1,.143-.22c.08-.126.155-.261.25-.389a.98.98,0,0,1,.125-.182,2.824,2.824,0,0,1,.233-.349c.117-.181.234-.35.362-.518a2.9,2.9,0,0,1,.208-.272,2.6,2.6,0,0,1,.168-.233c.234-.31.48-.625.72-.932.842-1.049,1.722-2.057,2.654-3.015s1.89-1.9,2.9-2.783l.272-.25.259.25.285.258c.22.22.5.48.815.79l.321.32c.232.251.465.492.713.739l.568.607a2.522,2.522,0,0,1,.25.286c.155.155.3.32.44.491l-.713.389-.738.414-.337.18a.265.265,0,0,0-.116.118.293.293,0,0,0,.116.388l1.735.945q.312.375.625.777l.766,1.4a.247.247,0,0,0,.115.115.27.27,0,0,0,.25.014.274.274,0,0,0,.143-.125l.349-.625v-.013l.414-.75c.428.583.828,1.151,1.2,1.721q.25.389.5.815c.143.234.273.467.4.687.259.44.492.875.712,1.345.1.221.22.441.31.661a16.6,16.6,0,0,1,1.251,3.792c.04.194.08.4.105.6.013.09.025.168.038.259s.027.194.04.3c0,.064.012.116.012.181l.013.221.012.625Z" fill="#b2dbdf"/>
      </g>
      <g id="Grupo_1001" data-name="Grupo 1001">
        <path id="Caminho_1800" data-name="Caminho 1800" d="M212.665,219.093l.012.626h.014A5.364,5.364,0,0,0,212.665,219.093Zm.012.7a11.611,11.611,0,0,1-.115,1.645,9.745,9.745,0,0,0,.125-1.645Zm-3.521,8-.387.351a7.584,7.584,0,0,0,.738-.661,5.275,5.275,0,0,0,.439-.493,10.846,10.846,0,0,1-.788.8Z" fill="#5cb5bc"/>
      </g>
      <path id="Caminho_1801-14" data-name="Caminho 1801-14" d="M210.548,206.666a.482.482,0,0,1-.116.118l-1.166.634-.711.389-.065.038a.255.255,0,0,0-.117.117l-.3.531v.026l-.414.751v.012l-.351.625a.264.264,0,0,1-.141.126.276.276,0,0,1-.25-.013.246.246,0,0,1-.116-.116l-.765-1.4-.3-.543a.253.253,0,0,0-.117-.118l-.206-.115-1.735-.946a.294.294,0,0,1-.116-.389.246.246,0,0,1,.116-.116l.337-.181.738-.413.711-.389h.013l.142-.08a.255.255,0,0,0,.117-.117l.25-.44.414-.75.4-.751a.29.29,0,0,1,.388-.1.319.319,0,0,1,.118.1l1.06,1.942a.257.257,0,0,0,.118.117l1.941,1.06A.311.311,0,0,1,210.548,206.666Z" fill="#fff"/>
      <path id="Caminho_1802-2" data-name="Caminho 1802-2" d="M212.93,209.2v.013a.129.129,0,0,1-.027.065l-.518.777a.1.1,0,0,0-.012.065l-.013.919a.124.124,0,0,1-.124.125h0a.142.142,0,0,1-.065-.026l-.75-.492v-.012l-.025-.014a.1.1,0,0,0-.065-.013l-.876-.025h-.039a.108.108,0,0,1-.116-.1.049.049,0,0,1,0-.017v-.013a.074.074,0,0,1,.013-.052l.012-.025.493-.738.012-.013a.218.218,0,0,0,.027-.065l.012-.932a.116.116,0,0,1,.117-.116h0a.094.094,0,0,1,.065.013l.776.517c.027.013.039.025.065.025l.932.014a.117.117,0,0,1,.117.115Z" fill="#fff"/>
      <path id="Caminho_1803-2" data-name="Caminho 1803-2" d="M193.539,224.866l-.026.025-.532.286-.037.038-.014.027-.271.491a.08.08,0,0,1-.1.039c-.014-.013-.027-.026-.027-.039l-.3-.518c0-.012-.013-.026-.025-.038l-.376-.208-.156-.08a.071.071,0,0,1-.032-.093v-.01c0-.012.014-.026.026-.038l.014-.014.518-.272a.028.028,0,0,0,.025-.026l.1-.194.014-.026.18-.31a.068.068,0,0,1,.089-.034l.015.009a.026.026,0,0,1,.026.025l.286.53c.012.014.025.026.037.026l.532.286A.123.123,0,0,1,193.539,224.866Z" fill="#fff"/>
    </g>
    <g id="Grupo_1375" data-name="Grupo 1375">
      <g id="Caminho_260-13" data-name="Caminho 260-13">
        <path id="Caminho_2195" data-name="Caminho 2195" d="M234.7,246.208V254.6q2.946-.159,5.81-.361,3.293-.228,6.49-.5c1.314-.109,2.611-.225,3.9-.345a3.577,3.577,0,0,0,3.2-2.992c.206-1.257-1.888-2.514-1.835-4.022.067-2.107,2.17-4.16,1.928-5.841a3.557,3.557,0,0,0-3.868-3.019q-2.569.243-5.205.46c-1.282.109-2.574,0-3.851.158a6.5,6.5,0,0,0-3.527,1.66,8.775,8.775,0,0,0-2.151,2.663,8.072,8.072,0,0,0-.461,1.084A8.163,8.163,0,0,0,234.7,246.208Z" fill="#e8efef"/>
      </g>
      <g id="Caminho_260-14" data-name="Caminho 260-14">
        <path id="Caminho_2196" data-name="Caminho 2196" d="M168.144,247.449v8.389q-2.944-.16-5.809-.361-3.3-.229-6.49-.5c-1.316-.108-2.611-.225-3.9-.345a3.577,3.577,0,0,1-3.2-2.991c-.206-1.257,1.888-2.515,1.834-4.023-.066-2.107-2.17-4.158-1.928-5.841a3.558,3.558,0,0,1,3.87-3.02q2.566.242,5.206.461c1.281.108,2.572,0,3.85.156a6.5,6.5,0,0,1,3.529,1.661,8.855,8.855,0,0,1,2.151,2.662,8.011,8.011,0,0,1,.886,3.753Z" fill="#e8efef"/>
      </g>
      <path id="Caminho_261-6" data-name="Caminho 261-6" d="M244.509,256.255a3.584,3.584,0,0,1-3.212,3.025c-12.035,1.125-25.2,1.85-39.335,1.866-14.551.018-28.072-.711-40.4-1.869a3.574,3.574,0,0,1-3.2-2.99,32.55,32.55,0,0,1-.091-9.863,3.559,3.559,0,0,1,3.87-3.02c12.088,1.144,25.345,1.866,39.611,1.855,14.023-.01,27.065-.726,38.978-1.853a3.578,3.578,0,0,1,3.877,3.108,34.44,34.44,0,0,1-.093,9.741Z" fill="#f2f4f4"/>
      <g id="Grupo_1374" data-name="Grupo 1374">
        <g id="Grupo_1373" data-name="Grupo 1373">
          <path id="Caminho_2197" data-name="Caminho 2197" d="M165.37,255.818a.609.609,0,0,1-.532-.295.635.635,0,0,1,.055-.625l2.7-4.957a1.112,1.112,0,0,1,.376-.429.845.845,0,0,1,.932.067,1.08,1.08,0,0,1,.3.476l1.992,5.289a.644.644,0,0,1-.03.637.562.562,0,0,1-.534.215.718.718,0,0,1-.469-.18,1.205,1.205,0,0,1-.265-.478l-.32-.9-3-.212-.439.849a1.318,1.318,0,0,1-.323.442A.63.63,0,0,1,165.37,255.818Zm2.947-4.829-1.186,2.357,2.063.145-.859-2.5Zm.716-2.08a.418.418,0,0,1-.575.02.416.416,0,0,1-.144-.244.348.348,0,0,1,.084-.284l.726-.921a.445.445,0,0,1,.368-.2.6.6,0,0,1,.375.14.531.531,0,0,1,.2.326.4.4,0,0,1-.145.362Z" fill="#373737"/>
          <path id="Caminho_2198" data-name="Caminho 2198" d="M175.1,256.47a3.814,3.814,0,0,1-1.818-.514,2.782,2.782,0,0,1-1.082-1.216,4.093,4.093,0,0,1,.206-3.509,2.813,2.813,0,0,1,1.241-1.094,3.845,3.845,0,0,1,1.87-.308,4.66,4.66,0,0,1,.981.166,3.5,3.5,0,0,1,.929.419.555.555,0,0,1,.277.382.686.686,0,0,1-.075.44.625.625,0,0,1-.326.292.553.553,0,0,1-.485-.068,2.959,2.959,0,0,0-1.363-.4,1.879,1.879,0,0,0-1.5.459,2.272,2.272,0,0,0-.576,1.541,2.209,2.209,0,0,0,.409,1.591,1.93,1.93,0,0,0,1.445.612,3.919,3.919,0,0,0,1.106-.1l.07-1.261-.823-.047c-.375-.023-.557-.2-.536-.545s.218-.5.6-.48l1.434.081a.5.5,0,0,1,.534.464.468.468,0,0,1-.008.135l-.126,2.127a.771.771,0,0,1-.117.4.549.549,0,0,1-.32.221,5.612,5.612,0,0,1-.936.185A5.715,5.715,0,0,1,175.1,256.47Z" fill="#373737"/>
          <path id="Caminho_2199" data-name="Caminho 2199" d="M181.435,256.78a2.879,2.879,0,0,1-2.059-.793,2.816,2.816,0,0,1-.625-2.126l.132-3.109a.738.738,0,0,1,.2-.528.719.719,0,0,1,.539-.165.631.631,0,0,1,.684.575.643.643,0,0,1-.009.175l-.126,3.118a1.733,1.733,0,0,0,.3,1.2,1.326,1.326,0,0,0,1.017.441q1.376.057,1.447-1.525l.125-3.117a.632.632,0,0,1,.558-.7.625.625,0,0,1,.178,0,.673.673,0,0,1,.507.21.751.751,0,0,1,.157.543l-.125,3.109a2.489,2.489,0,0,1-2.909,2.684Z" fill="#373737"/>
          <path id="Caminho_2200" data-name="Caminho 2200" d="M185.588,256.926a.6.6,0,0,1-.543-.271.625.625,0,0,1,.027-.632l2.485-5.066a1.116,1.116,0,0,1,.361-.444.848.848,0,0,1,.932.029,1.079,1.079,0,0,1,.327.461l2.216,5.2a.646.646,0,0,1,0,.637.569.569,0,0,1-.525.236.706.706,0,0,1-.477-.159,1.188,1.188,0,0,1-.284-.465l-.36-.889-3.012-.084-.4.867a1.346,1.346,0,0,1-.305.454A.622.622,0,0,1,185.588,256.926Zm2.738-4.95-1.083,2.406,2.068.057-.966-2.463Z" fill="#373737"/>
          <path id="Caminho_2201" data-name="Caminho 2201" d="M192.564,255.108a.541.541,0,0,1-.387-.162.515.515,0,0,1-.154-.389.529.529,0,0,1,.167-.39.546.546,0,0,1,.391-.15l1.886.032a.541.541,0,0,1,.387.162.531.531,0,0,1,.155.4.515.515,0,0,1-.168.375.537.537,0,0,1-.391.15Z" fill="#373737"/>
          <path id="Caminho_2202" data-name="Caminho 2202" d="M196.785,257.17a.629.629,0,0,1-.477-.176.692.692,0,0,1-.164-.487l.023-5.3a.655.655,0,0,1,.175-.49.688.688,0,0,1,.5-.167.773.773,0,0,1,.432.112,1.023,1.023,0,0,1,.3.359l1.945,3.587,1.972-3.571a1.029,1.029,0,0,1,.3-.356.746.746,0,0,1,.428-.108.649.649,0,0,1,.479.173.66.66,0,0,1,.167.49l-.021,5.3a.656.656,0,0,1-1.294.157.585.585,0,0,1,0-.162l.014-3.359-1.513,2.693a.9.9,0,0,1-.233.26.658.658,0,0,1-.654,0,.763.763,0,0,1-.229-.26l-1.49-2.679-.015,3.332a.574.574,0,0,1-.479.655A.564.564,0,0,1,196.785,257.17Z" fill="#373737"/>
          <path id="Caminho_2203" data-name="Caminho 2203" d="M204.3,257.181a.6.6,0,0,1-.552-.25.624.624,0,0,1,0-.633l2.283-5.161a1.129,1.129,0,0,1,.343-.457.839.839,0,0,1,.934-.01,1.065,1.065,0,0,1,.343.448l2.421,5.108a.649.649,0,0,1,.022.636.567.567,0,0,1-.514.258.717.717,0,0,1-.482-.142,1.212,1.212,0,0,1-.3-.453l-.394-.876-3.011.035-.365.884a1.327,1.327,0,0,1-.287.465A.638.638,0,0,1,204.3,257.181Zm2.542-5.055-.988,2.448,2.068-.025-1.062-2.423Z" fill="#373737"/>
          <path id="Caminho_2204" data-name="Caminho 2204" d="M211.742,257.077a.705.705,0,0,1-.537-.179.751.751,0,0,1-.2-.536l-.125-5.076a.638.638,0,0,1,.52-.737.631.631,0,0,1,.184,0l2.222-.059a2.425,2.425,0,0,1,1.679.479,1.842,1.842,0,0,1,.625,1.441,1.9,1.9,0,0,1-.339,1.212,1.868,1.868,0,0,1-1.04.682,1.377,1.377,0,0,1,.814.682l.6,1.037a.732.732,0,0,1,.089.644c-.074.2-.264.3-.568.313a.881.881,0,0,1-.5-.116,1.036,1.036,0,0,1-.339-.387l-.921-1.6a.75.75,0,0,0-.348-.34,1.177,1.177,0,0,0-.477-.079l-.7.018.048,1.849a.771.771,0,0,1-.164.545A.683.683,0,0,1,211.742,257.077Zm.612-3.627,1.271-.031c.763-.021,1.137-.335,1.126-.945s-.405-.9-1.166-.875l-1.273.034Z" fill="#373737"/>
          <path id="Caminho_2205" data-name="Caminho 2205" d="M218.092,256.89a.7.7,0,0,1-.537-.173.756.756,0,0,1-.2-.535l-.181-5.148a.641.641,0,0,1,.509-.75.788.788,0,0,1,.908.7l.183,5.151a.638.638,0,0,1-.5.747A.656.656,0,0,1,218.092,256.89Z" fill="#373737"/>
          <path id="Caminho_2206" data-name="Caminho 2206" d="M220.745,256.8q-.657.033-.688-.655l-.236-5.211a.76.76,0,0,1,.144-.538.59.59,0,0,1,.444-.2.645.645,0,0,1,.375.079,1.569,1.569,0,0,1,.325.3l3.133,3.643-.159-3.512a.59.59,0,0,1,.465-.7.575.575,0,0,1,.16-.01.59.59,0,0,1,.683.48.55.55,0,0,1,0,.167l.239,5.275a.711.711,0,0,1-.134.488.524.524,0,0,1-.412.2.727.727,0,0,1-.412-.082,1.566,1.566,0,0,1-.339-.305l-3.133-3.644.159,3.512A.588.588,0,0,1,220.745,256.8Z" fill="#373737"/>
          <path id="Caminho_2207" data-name="Caminho 2207" d="M227.675,256.46a.7.7,0,0,1-.541-.159.748.748,0,0,1-.216-.529l-.31-5.146a.64.64,0,0,1,.492-.76.668.668,0,0,1,.178-.012.64.64,0,0,1,.751.689l.117,1.936,3-.18-.117-1.936a.635.635,0,0,1,.479-.759.646.646,0,0,1,.181-.014.639.639,0,0,1,.749.506.684.684,0,0,1,.009.181l.309,5.145a.759.759,0,0,1-.151.55.817.817,0,0,1-1.052.063.755.755,0,0,1-.215-.528l-.125-2.028-3,.18.125,2.028a.637.637,0,0,1-.481.759A.663.663,0,0,1,227.675,256.46Z" fill="#373737"/>
          <path id="Caminho_2208" data-name="Caminho 2208" d="M234.239,256.055a.61.61,0,0,1-.568-.216.634.634,0,0,1-.039-.625l1.955-5.295a1.094,1.094,0,0,1,.313-.478.783.783,0,0,1,.454-.177.794.794,0,0,1,.476.107,1.071,1.071,0,0,1,.375.426l2.738,4.945a.647.647,0,0,1,.062.633.572.572,0,0,1-.5.291.713.713,0,0,1-.49-.112,1.184,1.184,0,0,1-.331-.434l-.448-.848-3,.227-.308.9a1.344,1.344,0,0,1-.258.481A.635.635,0,0,1,234.239,256.055Zm2.216-5.207-.832,2.5,2.062-.155-1.213-2.351Z" fill="#373737"/>
        </g>
      </g>
    </g>
  </g>
</svg>
