<svg xmlns="http://www.w3.org/2000/svg" width="188.9" height="132.009" viewBox="0 0 188.9 132.009"><defs><style>.a{fill:#5cb5bc;}.b{fill:#e6f5fa;}.c{fill:#e7f5fa;}.d{fill:#b2dbdf;}.e{fill:#b3dbdf;}.f{fill:#fff;}.g{fill:#e8efef;stroke-width:0.11px;}.g,.h{stroke:#707070;}.h{fill:#d7ebeb;stroke-width:0.01px;}</style></defs><g transform="translate(3626.672 3029.313)"><g transform="translate(-0.408)"><g transform="translate(3.578)"><g transform="translate(-3569.8 -3029.313)"><g transform="translate(13.646 52.869)"><path class="a" d="M-3570.053-2991.3a16.9,16.9,0,0,0,.836,3.323A22.62,22.62,0,0,1-3570.053-2991.3Z" transform="translate(3570.053 2991.298)"/></g><g transform="translate(0.052)"><path class="b" d="M-3551.32-3023.286c-1,.909-2.486,2.272-4.182,4.015a9.1,9.1,0,0,0-.645.693c1.721-1.792,3.489-3.512,5.353-5.137l.5-.455v-.025Zm-5.5,5.378c-.453.479-.908.979-1.362,1.477l-1.076,1.22c-.837.98-1.7,2.031-2.533,3.1a8.849,8.849,0,0,0-.591.812c.43-.573.886-1.147,1.33-1.722,1.555-1.935,3.179-3.8,4.9-5.569a8.544,8.544,0,0,0-.669.677Zm-8.244,10.47-.072.147a4.815,4.815,0,0,1,.263-.406,1.021,1.021,0,0,0-.191.259Zm-1.842,3.155c-.261.5-.524,1.035-.764,1.554.311-.646.646-1.292,1-1.961a3.685,3.685,0,0,0-.24.406Zm1.22-2.152c-.334.573-.67,1.171-.979,1.745.359-.645.739-1.315,1.146-1.984a1.64,1.64,0,0,0-.167.239Z" transform="translate(3583.793 3042.144)"/><path class="c" d="M-3549.333-3041.1l-.023,17.949-1.034.909c-1,.909-2.487,2.272-4.182,4.016a8.68,8.68,0,0,0-.645.692,8.669,8.669,0,0,0-.67.67c-.454.479-.908.98-1.363,1.478l-1.075,1.22c-.836.98-1.7,2.031-2.533,3.1a8.927,8.927,0,0,0-.592.812,4.783,4.783,0,0,0-.31.431,5.679,5.679,0,0,0-.383.5c-.239.31-.453.621-.669.956a8.665,8.665,0,0,0-.67.98c-.167.238-.31.478-.453.717a1.028,1.028,0,0,0-.191.263l-.072.148c-.048.023-.048.071-.071.12-.113.162-.217.329-.312.5a1.721,1.721,0,0,0-.167.239c-.334.574-.67,1.171-.98,1.746a3.546,3.546,0,0,0-.24.406c-.261.524-.548,1.034-.763,1.553-.024.023-.024.047-.048.1-.049.119-.12.238-.168.358a36.185,36.185,0,0,0-1.33,3.37c-.024.049-.024.1-.047.147a1.85,1.85,0,0,0-.1.359l-.072.216a5.994,5.994,0,0,0-.191.669,4.654,4.654,0,0,0-.167.622c0,.047-.024.1-.024.148-.073.31-.148.591-.192.886a13.4,13.4,0,0,0-.238,1.412c0,.071-.025.147-.025.215v.12a7.553,7.553,0,0,0-.094,1.267c0,.147-.024.287-.024.43,0,.167-.024.31-.024.454v1.479h-13.385l.191-1.649c2.343-19.951,22.346-40.036,30.855-47.735Z" transform="translate(3582.859 3041.104)"/></g><g transform="translate(29.684 71.201)"><path class="a" d="M-3554.944-2974.029a12.665,12.665,0,0,0,2.535.455A17.519,17.519,0,0,1-3554.944-2974.029Z" transform="translate(3554.944 2974.029)"/></g><path class="a" d="M-3545.714-3018.521c.288.287.55.591.813.908h.023C-3545.14-3017.923-3545.426-3018.234-3545.714-3018.521Zm5.616,6.812v.048c.789,1.076,1.53,2.126,2.224,3.179q-1.077-1.686-2.224-3.227Z" transform="translate(3585.196 3042.493)"/><path class="a" d="M-3516.25-2989.982l-.19-1.266h.023l-.407-1.816c-4.351-19.336-22.421-38.36-30-45.627l-2.512-2.413-.024,17.949v.024l.478.455.527.477c.406.406.932.887,1.505,1.46l.591.591c.43.453.86.909,1.315,1.362l1.051,1.123a4.464,4.464,0,0,1,.455.527c.287.286.573.591.837.907l.263-.148a.472.472,0,0,0,.214-.214l.453-.813.765-1.386.739-1.386a.535.535,0,0,1,.718-.192.566.566,0,0,1,.216.192l1.959,3.586a.475.475,0,0,0,.215.214l3.586,1.959a.574.574,0,0,1,.215.717.9.9,0,0,1-.215.216l-2.152,1.171-1.314.719-.12.07a.477.477,0,0,0-.215.217l-.55.979q1.148,1.541,2.224,3.226.467.715.932,1.506c.262.43.5.86.739,1.267.477.813.908,1.625,1.313,2.486.192.406.406.812.574,1.219a30.841,30.841,0,0,1,2.319,7c.072.358.147.739.192,1.1.023.167.048.31.071.479s.049.358.072.548c0,.12.023.216.023.336l.024.406c.023.383.047.765.047,1.146v.149a18.109,18.109,0,0,1-.238,3.035c-.073.36-.148.739-.215,1.1-.071.334-.148.646-.238.98a20,20,0,0,1-2.008,4.9,22.751,22.751,0,0,1-2.365,3.275,9.676,9.676,0,0,1-.811.909,13.5,13.5,0,0,1-1.363,1.22l-.1.094.024.049-.764.524a16.971,16.971,0,0,1-1.888,1.243c-.311.192-.621.359-.957.526a18.758,18.758,0,0,1-2.557,1.1,23.7,23.7,0,0,1-2.558.718,12.528,12.528,0,0,1-1.361.215,11.217,11.217,0,0,1-1.269.148,4.968,4.968,0,0,1-.59.023l-.837.049v.048l-.861-.1a2.591,2.591,0,0,1-.453-.047,12.669,12.669,0,0,1-2.535-.454,10.675,10.675,0,0,1-1.243-.359,9.364,9.364,0,0,1-.887-.31h-.023l-.5-.217a18.221,18.221,0,0,1-4.255-2.511l-1.458-1.171-.765-.764a23.511,23.511,0,0,1-3.418-4.159l-.5.908a.147.147,0,0,1-.192.072c-.023-.023-.048-.049-.048-.072l-.55-.957c0-.023-.023-.047-.047-.07l-.693-.384-.287-.147a.129.129,0,0,1-.061-.172l.012-.019c0-.023.024-.049.049-.072l.023-.023.956-.5a.049.049,0,0,0,.047-.047l.191-.36a9.427,9.427,0,0,1-.406-.886,19.5,19.5,0,0,1-1.148-2.8,16.875,16.875,0,0,1-.836-3.323.031.031,0,0,1,0-.045h0a5.291,5.291,0,0,1-.12-.6l-.12-.573h-13.36l-.023,1.458a27.643,27.643,0,0,0,.1,3.131,39.919,39.919,0,0,0,12.62,24.377l1.505,1.386.024-.023.861.693a30.163,30.163,0,0,0,16.826,6.906l1.626.148v-.048l1.553-.072a33.11,33.11,0,0,0,17.425-5.912l1-.693.023.025,1.506-1.269a33.243,33.243,0,0,0,11.925-25.6A35.7,35.7,0,0,0-3516.25-2989.982Zm-12.6-19c0,.049-.023.073-.048.12l-.956,1.433a.193.193,0,0,0-.024.12l-.023,1.7a.239.239,0,0,1-.239.238.255.255,0,0,1-.12-.047l-1.386-.91v-.023l-.048-.023a.178.178,0,0,0-.119-.023l-1.626-.048h-.071c-.119,0-.239-.1-.216-.215v-.024a.155.155,0,0,1,.023-.1l.024-.048.909-1.362.023-.023a.421.421,0,0,0,.048-.12l.024-1.72a.215.215,0,0,1,.215-.216.185.185,0,0,1,.12.023l1.433.957c.049.023.073.047.12.047l1.722.025a.213.213,0,0,1,.214.212v.026Z" transform="translate(3582.908 3041.104)"/><g transform="translate(13.433 17.948)"><path class="d" d="M-3543.891-3012q-.571-.754-1.147-1.434l.382.214a.471.471,0,0,1,.215.215Z" transform="translate(3571.804 3024.858)"/><path class="e" d="M-3570.053-2989.274a16.908,16.908,0,0,0,.836,3.323A22.612,22.612,0,0,1-3570.053-2989.274Zm3.3-15.01c-.261.5-.524,1.035-.764,1.554.311-.646.646-1.292,1-1.959a3.594,3.594,0,0,0-.24.405Zm1.22-2.152c-.334.573-.67,1.171-.98,1.746.359-.646.739-1.316,1.146-1.985A1.719,1.719,0,0,0-3565.536-3006.436Zm.622-1-.072.147c.1-.147.167-.287.263-.406a1.02,1.02,0,0,0-.191.259Zm8.244-10.47c-.453.479-.908.979-1.362,1.477l-1.076,1.22c-.836.98-1.7,2.031-2.533,3.1a8.984,8.984,0,0,0-.591.812c.43-.573.886-1.147,1.33-1.721,1.555-1.936,3.179-3.8,4.9-5.569A8.369,8.369,0,0,0-3556.669-3017.908Zm2.66,46.965a12.706,12.706,0,0,0,2.535.454,17.614,17.614,0,0,1-2.54-.454Zm2.843-52.343c-1,.909-2.486,2.272-4.182,4.015a8.864,8.864,0,0,0-.645.693c1.72-1.792,3.49-3.512,5.353-5.137l.5-.455v-.025Zm6.956,5.115c.286.287.55.591.813.907h.023c-.269-.31-.555-.621-.843-.907Zm1.314,5.832a.473.473,0,0,0-.215-.215l-.383-.214q.574.681,1.147,1.433Zm4.3.98v.047c.789,1.076,1.53,2.126,2.224,3.178q-1.083-1.685-2.23-3.226Zm2.01,35.637-.717.645a13.319,13.319,0,0,0,1.362-1.219,9.342,9.342,0,0,0,.812-.909c-.464.5-.937,1-1.464,1.479Zm6.5-14.772a21.311,21.311,0,0,1-.214,3.036,18.1,18.1,0,0,0,.238-3.036Zm-.023-1.29.023,1.146h.024c-.009-.384-.032-.764-.056-1.146Z" transform="translate(3570.265 3024.196)"/><path class="d" d="M-3530.055-2990.64v.148h-.023a21.477,21.477,0,0,1-.215,3.036c-.072.359-.147.739-.216,1.1-.071.333-.148.646-.238.98a19.965,19.965,0,0,1-2.009,4.9,22.62,22.62,0,0,1-2.364,3.275,20.2,20.2,0,0,1-1.458,1.479l-.716.646-.1.095c-.239.191-.477.382-.739.573a16.864,16.864,0,0,1-1.889,1.243c-.311.192-.621.36-.956.526a18.827,18.827,0,0,1-2.558,1.1,23.733,23.733,0,0,1-2.558.716,11.971,11.971,0,0,1-1.361.215,11.055,11.055,0,0,1-1.268.148,5.078,5.078,0,0,1-.591.024c-.263.023-.55.023-.813.023-.31,0-.591,0-.886-.023a2.722,2.722,0,0,1-.454-.048,17.73,17.73,0,0,1-2.535-.453,10.6,10.6,0,0,1-1.242-.36,9.173,9.173,0,0,1-.887-.31h-.023l-.5-.215a23.585,23.585,0,0,1-9.871-8.651l.071-.071.98-.526.049-.047a.234.234,0,0,0-.049-.217l-.98-.525c-.024,0-.048-.024-.071-.048l-.527-.98a.054.054,0,0,0-.049-.047.124.124,0,0,0-.174.021.11.11,0,0,0-.016.026l-.334.573c-.148-.286-.286-.549-.43-.836a19.515,19.515,0,0,1-1.148-2.8,22.461,22.461,0,0,1-.837-3.322.033.033,0,0,1,0-.046h0a5.49,5.49,0,0,1-.12-.6c-.023-.191-.023-.381-.047-.573-.024-.334-.048-.669-.049-.979v-.5c0-.147.024-.287.024-.454,0-.147.024-.286.024-.429.023-.407.047-.836.095-1.268v-.119c0-.071.024-.148.024-.214.024-.169.071-.335.1-.5.048-.287.1-.591.148-.909.049-.287.12-.573.192-.886,0-.047.024-.1.024-.147a4.727,4.727,0,0,1,.167-.623c.048-.213.12-.453.191-.667l.072-.216a1.832,1.832,0,0,1,.1-.358c.023-.048.023-.1.047-.149.383-1.1.813-2.216,1.33-3.369.049-.12.12-.24.168-.358.024-.049.024-.072.048-.1.31-.647.645-1.292,1-1.961.359-.646.739-1.315,1.146-1.984a5.732,5.732,0,0,1,.313-.5c.023-.049.023-.1.071-.12.1-.147.167-.286.263-.407.148-.24.287-.479.454-.716a1.7,1.7,0,0,1,.24-.335,5.085,5.085,0,0,1,.43-.645c.215-.335.43-.646.67-.956.119-.169.239-.335.382-.5a4.746,4.746,0,0,1,.31-.431c.431-.573.887-1.146,1.33-1.721,1.555-1.936,3.179-3.8,4.9-5.569,1.721-1.793,3.489-3.513,5.353-5.139l.5-.454.478.454.527.477c.406.407.932.888,1.505,1.459l.591.59c.43.454.861.91,1.315,1.363l1.051,1.123a4.464,4.464,0,0,1,.455.527c.287.287.55.591.813.908l-1.315.718-1.363.764-.621.334a.481.481,0,0,0-.215.215.542.542,0,0,0,.215.716l3.2,1.746q.575.681,1.148,1.433l1.411,2.582a.466.466,0,0,0,.215.215.506.506,0,0,0,.454.024.5.5,0,0,0,.262-.239l.646-1.147v-.025l.764-1.386c.789,1.076,1.53,2.127,2.224,3.18q.465.715.931,1.506c.263.43.5.86.739,1.267.478.813.908,1.625,1.314,2.486.192.406.406.813.573,1.218a30.889,30.889,0,0,1,2.32,7c.072.358.147.739.192,1.1.024.167.047.31.07.479s.049.358.073.548c0,.12.023.217.023.335l.024.406.023,1.147Z" transform="translate(3570.253 3024.197)"/></g><g transform="translate(46.389 50.359)"><path class="a" d="M-3532.012-2993.663l.024,1.146h.023C-3531.964-2992.9-3531.987-2993.281-3532.012-2993.663Zm.024,1.29a21.521,21.521,0,0,1-.214,3.036,18.069,18.069,0,0,0,.238-3.036Zm-6.5,14.772-.717.645a13.3,13.3,0,0,0,1.362-1.219,9.415,9.415,0,0,0,.813-.909c-.456.5-.929,1-1.456,1.48Z" transform="translate(3539.207 2993.663)"/></g><path class="f" d="M-3535.372-3014.889a.933.933,0,0,1-.215.217l-2.152,1.169-1.314.719-.12.071a.475.475,0,0,0-.215.215l-.55.98v.047l-.764,1.386v.023l-.645,1.149a.5.5,0,0,1-.263.238.5.5,0,0,1-.453-.023.461.461,0,0,1-.215-.214l-1.412-2.583-.55-1a.466.466,0,0,0-.214-.215l-.382-.214-3.2-1.745a.543.543,0,0,1-.217-.718.484.484,0,0,1,.217-.216l.621-.334,1.362-.763,1.315-.719h.024l.262-.147a.466.466,0,0,0,.214-.215l.454-.813.765-1.386.739-1.386a.535.535,0,0,1,.717-.192.558.558,0,0,1,.216.192l1.96,3.586a.47.47,0,0,0,.216.215l3.585,1.959A.573.573,0,0,1-3535.372-3014.889Z" transform="translate(3585.035 3042.302)"/><path class="f" d="M-3531.7-3010.792v.023c0,.049-.023.072-.047.12l-.956,1.433a.192.192,0,0,0-.024.12l-.023,1.7a.239.239,0,0,1-.239.237.252.252,0,0,1-.12-.046l-1.386-.91v-.023l-.048-.023a.178.178,0,0,0-.119-.023l-1.626-.048h-.071c-.119,0-.239-.1-.216-.215v-.024a.154.154,0,0,1,.023-.1l.024-.048.909-1.362.024-.023a.419.419,0,0,0,.047-.12l.024-1.721a.215.215,0,0,1,.215-.216.187.187,0,0,1,.12.023l1.433.957c.049.023.073.047.12.047l1.722.025a.213.213,0,0,1,.214.211Z" transform="translate(3585.758 3042.89)"/><path class="f" d="M-3565.508-2983.513l-.049.048-.979.526-.071.07-.024.049-.5.908a.147.147,0,0,1-.192.072c-.023-.023-.047-.049-.047-.072l-.55-.956c0-.023-.023-.047-.047-.07l-.693-.383-.287-.148a.128.128,0,0,1-.06-.172l.011-.019c0-.023.024-.049.049-.072l.024-.023.956-.5a.048.048,0,0,0,.047-.047l.191-.36.025-.047.333-.573a.124.124,0,0,1,.163-.064.145.145,0,0,1,.028.016.053.053,0,0,1,.049.048l.525.98c.024.023.048.047.071.047l.979.527A.227.227,0,0,1-3565.508-2983.513Z" transform="translate(3583.762 3044.533)"/></g></g><g transform="translate(-3626.222 -2939.597)"><g transform="translate(153.921)"><path class="g" d="M-3503.891-2944.591v15.006q5.267-.287,10.391-.647,5.892-.408,11.606-.9c2.351-.192,4.671-.4,6.975-.615a6.4,6.4,0,0,0,5.72-5.351c.367-2.249-3.376-4.5-3.279-7.191.119-3.769,3.879-7.44,3.447-10.448a6.361,6.361,0,0,0-6.92-5.4q-4.6.431-9.31.824c-2.291.192-4.6,0-6.886.28a11.638,11.638,0,0,0-6.308,2.971,15.739,15.739,0,0,0-3.848,4.76,14.367,14.367,0,0,0-.825,1.941A14.592,14.592,0,0,0-3503.891-2944.591Z" transform="translate(3503.891 2960.161)"/></g><g transform="translate(0 2.218)"><path class="g" d="M-3591.734-2942.822v15.006q-5.268-.288-10.392-.647-5.889-.408-11.606-.9c-2.352-.192-4.671-.4-6.975-.616a6.4,6.4,0,0,1-5.72-5.351c-.368-2.249,3.376-4.5,3.28-7.192-.12-3.767-3.88-7.439-3.448-10.446a6.361,6.361,0,0,1,6.92-5.4q4.6.431,9.312.824c2.29.192,4.6,0,6.885.28a11.646,11.646,0,0,1,6.309,2.971,15.761,15.761,0,0,1,3.846,4.76,14.3,14.3,0,0,1,.825,1.941A14.593,14.593,0,0,1-3591.734-2942.822Z" transform="translate(3626.629 2958.392)"/></g><path class="h" d="M-3458.525-2928.755a6.408,6.408,0,0,1-5.744,5.411c-21.523,2.02-45.062,3.306-70.352,3.337-26.024.031-50.208-1.272-72.263-3.343a6.4,6.4,0,0,1-5.724-5.348,58.25,58.25,0,0,1-.725-7.435,58.213,58.213,0,0,1,.562-10.205,6.368,6.368,0,0,1,6.922-5.4c21.619,2.047,45.328,3.338,70.843,3.32,25.079-.018,48.4-1.3,69.709-3.313a6.4,6.4,0,0,1,6.936,5.558,61.659,61.659,0,0,1,.509,10.018A61.822,61.822,0,0,1-3458.525-2928.755Z" transform="translate(3630 2962.293)"/><g transform="translate(28.942 17.479)"><path class="a" d="M-3602.494-2930.939a1.076,1.076,0,0,1-.947-.527,1.125,1.125,0,0,1,.1-1.125l4.828-8.866a2.018,2.018,0,0,1,.678-.765,1.416,1.416,0,0,1,.851-.193,1.408,1.408,0,0,1,.815.311,1.907,1.907,0,0,1,.547.852l3.565,9.459a1.152,1.152,0,0,1-.055,1.136,1.014,1.014,0,0,1-.955.384,1.272,1.272,0,0,1-.839-.323,2.128,2.128,0,0,1-.473-.854l-.576-1.615-5.372-.38-.78,1.52a2.419,2.419,0,0,1-.581.789A1.127,1.127,0,0,1-3602.494-2930.939Zm5.272-8.637-2.12,4.215,3.691.261-1.539-4.475Zm1.281-3.718a.769.769,0,0,1-.541.217.779.779,0,0,1-.488-.19.737.737,0,0,1-.256-.437.612.612,0,0,1,.151-.507l1.3-1.648a.8.8,0,0,1,.657-.363,1.058,1.058,0,0,1,.663.252.947.947,0,0,1,.354.583.716.716,0,0,1-.259.646Z" transform="translate(3603.551 2946.223)"/><path class="a" d="M-3587.7-2930.7a6.82,6.82,0,0,1-3.253-.922,4.956,4.956,0,0,1-1.934-2.176,6.536,6.536,0,0,1-.528-3.145,6.555,6.555,0,0,1,.907-3.129,5.05,5.05,0,0,1,2.217-1.958,6.916,6.916,0,0,1,3.343-.549,8.125,8.125,0,0,1,1.754.3,6.257,6.257,0,0,1,1.663.75.991.991,0,0,1,.494.684,1.212,1.212,0,0,1-.134.789,1.119,1.119,0,0,1-.58.524,1,1,0,0,1-.87-.123,5.251,5.251,0,0,0-2.436-.711,3.35,3.35,0,0,0-2.679.824,4.061,4.061,0,0,0-1.034,2.754,3.948,3.948,0,0,0,.734,2.844,3.453,3.453,0,0,0,2.586,1.1,7.1,7.1,0,0,0,1.978-.183l.128-2.255-1.471-.084q-1.014-.057-.962-.972t1.066-.859l2.566.146a.89.89,0,0,1,.939,1.07l-.214,3.792a1.414,1.414,0,0,1-.212.71.976.976,0,0,1-.572.394,10.358,10.358,0,0,1-1.674.331A10.249,10.249,0,0,1-3587.7-2930.7Z" transform="translate(3606.122 2947.146)"/><path class="a" d="M-3578.85-2930.231a5.127,5.127,0,0,1-3.685-1.417,5.033,5.033,0,0,1-1.126-3.8l.236-5.562a1.313,1.313,0,0,1,.366-.943,1.274,1.274,0,0,1,.963-.295,1.129,1.129,0,0,1,1.205,1.346l-.236,5.577a3.09,3.09,0,0,0,.549,2.146,2.355,2.355,0,0,0,1.818.789q2.468.105,2.588-2.725l.236-5.577a1.129,1.129,0,0,1,1.314-1.239,1.216,1.216,0,0,1,.91.374,1.341,1.341,0,0,1,.279.97l-.234,5.561a5.087,5.087,0,0,1-1.418,3.693A5.041,5.041,0,0,1-3578.85-2930.231Z" transform="translate(3608.603 2947.233)"/><path class="a" d="M-3573.678-2930.087a1.079,1.079,0,0,1-.97-.485,1.126,1.126,0,0,1,.048-1.129l4.445-9.064a2,2,0,0,1,.645-.793,1.417,1.417,0,0,1,.841-.231,1.421,1.421,0,0,1,.828.277,1.909,1.909,0,0,1,.583.828l3.965,9.3a1.158,1.158,0,0,1-.006,1.137,1.013,1.013,0,0,1-.938.425,1.275,1.275,0,0,1-.852-.286,2.152,2.152,0,0,1-.509-.834l-.644-1.589-5.384-.151-.715,1.553a2.392,2.392,0,0,1-.547.811A1.123,1.123,0,0,1-3573.678-2930.087Zm4.9-8.855-1.938,4.3,3.7.1-1.727-4.4Z" transform="translate(3610.861 2947.35)"/><path class="a" d="M-3563.725-2934.658a.964.964,0,0,1-.691-.291.925.925,0,0,1-.274-.692.94.94,0,0,1,.3-.7.967.967,0,0,1,.7-.267l3.372.057a.964.964,0,0,1,.691.29.939.939,0,0,1,.275.708.924.924,0,0,1-.3.684.968.968,0,0,1-.7.267Z" transform="translate(3613.424 2948.667)"/><path class="a" d="M-3557.693-2929.714a1.121,1.121,0,0,1-.85-.314,1.208,1.208,0,0,1-.291-.869l.038-9.478a1.171,1.171,0,0,1,.315-.875,1.212,1.212,0,0,1,.885-.3,1.35,1.35,0,0,1,.776.2,1.85,1.85,0,0,1,.53.64l3.478,6.416,3.529-6.387a1.829,1.829,0,0,1,.535-.636,1.324,1.324,0,0,1,.762-.193,1.161,1.161,0,0,1,.858.306,1.187,1.187,0,0,1,.3.877l-.039,9.479a1.027,1.027,0,0,1-1.15,1.174,1.035,1.035,0,0,1-1.158-1.184l.024-6.008-2.7,4.818a1.6,1.6,0,0,1-.42.465.981.981,0,0,1-.582.153,1.011,1.011,0,0,1-.588-.158,1.381,1.381,0,0,1-.408-.468l-2.666-4.791-.024,5.958A1.027,1.027,0,0,1-3557.693-2929.714Z" transform="translate(3614.912 2947.41)"/><path class="a" d="M-3546.975-2929.685a1.079,1.079,0,0,1-.988-.448,1.126,1.126,0,0,1,0-1.129l4.083-9.232a2,2,0,0,1,.613-.818,1.41,1.41,0,0,1,.832-.263,1.418,1.418,0,0,1,.838.243,1.9,1.9,0,0,1,.616.8l4.33,9.135a1.159,1.159,0,0,1,.038,1.137,1.016,1.016,0,0,1-.92.46,1.264,1.264,0,0,1-.862-.252,2.133,2.133,0,0,1-.542-.811l-.706-1.564-5.386.063-.652,1.579a2.409,2.409,0,0,1-.514.833A1.128,1.128,0,0,1-3546.975-2929.685Zm4.543-9.042-1.766,4.375,3.7-.042-1.9-4.333Z" transform="translate(3617.636 2947.404)"/><path class="a" d="M-3536.313-2929.858a1.243,1.243,0,0,1-.958-.32,1.341,1.341,0,0,1-.352-.957l-.233-9.083a1.143,1.143,0,0,1,1.26-1.325l3.977-.1a4.321,4.321,0,0,1,3,.857,3.3,3.3,0,0,1,1.115,2.574,3.425,3.425,0,0,1-.608,2.17,3.329,3.329,0,0,1-1.86,1.219,2.471,2.471,0,0,1,1.456,1.223l1.063,1.856a1.3,1.3,0,0,1,.16,1.151c-.133.357-.471.544-1.017.558a1.571,1.571,0,0,1-.889-.207,1.834,1.834,0,0,1-.608-.689l-1.646-2.857a1.337,1.337,0,0,0-.621-.606,2.042,2.042,0,0,0-.855-.142l-1.244.032.085,3.306a1.368,1.368,0,0,1-.295.974A1.223,1.223,0,0,1-3536.313-2929.858Zm1.1-6.48,2.274-.059q2.045-.053,2-1.689-.043-1.619-2.088-1.567l-2.275.059Z" transform="translate(3620.241 2947.385)"/><path class="a" d="M-3527.236-2930.113a1.247,1.247,0,0,1-.96-.31,1.338,1.338,0,0,1-.361-.954l-.325-9.211a1.144,1.144,0,0,1,1.23-1.354q1.26-.043,1.306,1.265l.325,9.211A1.137,1.137,0,0,1-3527.236-2930.113Z" transform="translate(3622.521 2947.31)"/><path class="a" d="M-3523.448-2930.181q-1.178.053-1.233-1.174l-.423-9.322a1.349,1.349,0,0,1,.26-.962,1.049,1.049,0,0,1,.8-.364,1.151,1.151,0,0,1,.678.14,2.929,2.929,0,0,1,.582.539l5.6,6.514-.285-6.279a1.057,1.057,0,0,1,1.123-1.264,1.057,1.057,0,0,1,1.233,1.156l.427,9.437a1.261,1.261,0,0,1-.239.872.945.945,0,0,1-.737.352,1.3,1.3,0,0,1-.736-.146,2.712,2.712,0,0,1-.607-.546l-5.6-6.515.285,6.28A1.065,1.065,0,0,1-3523.448-2930.181Z" transform="translate(3623.481 2947.206)"/><path class="a" d="M-3513.545-2930.631a1.246,1.246,0,0,1-.968-.286,1.345,1.345,0,0,1-.385-.944l-.553-9.2a1.143,1.143,0,0,1,1.2-1.383,1.135,1.135,0,0,1,1.335,1.231l.209,3.464,5.36-.321-.208-3.465a1.136,1.136,0,0,1,1.179-1.383,1.144,1.144,0,0,1,1.353,1.231l.554,9.2a1.344,1.344,0,0,1-.27.983,1.249,1.249,0,0,1-.926.4,1.233,1.233,0,0,1-.953-.287,1.35,1.35,0,0,1-.384-.946l-.218-3.627-5.36.321.219,3.628A1.137,1.137,0,0,1-3513.545-2930.631Z" transform="translate(3625.933 2947.062)"/><path class="a" d="M-3504.3-2931.241a1.079,1.079,0,0,1-1.013-.384,1.124,1.124,0,0,1-.068-1.127l3.493-9.472a2.005,2.005,0,0,1,.561-.854,1.409,1.409,0,0,1,.813-.316,1.409,1.409,0,0,1,.852.191,1.894,1.894,0,0,1,.665.762l4.9,8.844a1.156,1.156,0,0,1,.109,1.132,1.013,1.013,0,0,1-.888.518,1.281,1.281,0,0,1-.876-.2,2.128,2.128,0,0,1-.592-.776l-.8-1.516-5.37.4-.553,1.618a2.4,2.4,0,0,1-.46.863A1.123,1.123,0,0,1-3504.3-2931.241Zm3.965-9.31-1.487,4.478,3.689-.276-2.169-4.2Z" transform="translate(3628.463 2946.941)"/></g></g></g></g></svg>