<svg xmlns="http://www.w3.org/2000/svg" xmlns:xlink="http://www.w3.org/1999/xlink" width="107.654" height="62.406" viewBox="0 0 107.654 62.406">
  <defs>
    <linearGradient id="linear-gradient" x1="-16.579" y1="12.726" x2="-16.579" y2="12.697" gradientUnits="objectBoundingBox">
      <stop offset="0" stop-color="#96ddfc"/>
      <stop offset="1" stop-color="#96ddfc"/>
    </linearGradient>
    <linearGradient id="linear-gradient-2" x1="-16.579" y1="17.838" x2="-16.579" y2="17.795" xlink:href="#linear-gradient"/>
  </defs>
  <g id="Grupo_1905" data-name="Grupo 1905" transform="translate(-24.3 -378.76)">
    <g id="Grupo_1371" data-name="Grupo 1371">
      <g id="Caminho_260-27" data-name="Caminho 260-27">
        <path id="Caminho_2185" data-name="Caminho 2185" d="M112.063,425.933v8.555q3-.164,5.925-.369,3.36-.232,6.619-.51c1.342-.11,2.663-.229,3.978-.351a3.648,3.648,0,0,0,3.26-3.051c.209-1.282-1.926-2.564-1.876-4.1.069-2.148,2.213-4.243,1.965-5.957a3.628,3.628,0,0,0-3.946-3.079q-2.626.25-5.308.469c-1.306.112-2.626,0-3.927.162a6.624,6.624,0,0,0-3.6,1.693,8.983,8.983,0,0,0-2.194,2.715,8.086,8.086,0,0,0-.47,1.106A8.343,8.343,0,0,0,112.063,425.933Z" fill="#eee9f2"/>
      </g>
      <g id="Caminho_260-28" data-name="Caminho 260-28">
        <path id="Caminho_2186" data-name="Caminho 2186" d="M44.192,427.2v8.556q-3-.165-5.925-.369-3.357-.234-6.619-.51c-1.34-.11-2.663-.23-3.975-.352a3.65,3.65,0,0,1-3.263-3.052c-.209-1.281,1.926-2.563,1.876-4.1-.07-2.148-2.213-4.241-1.966-5.956a3.628,3.628,0,0,1,3.946-3.08q2.625.25,5.309.471c1.307.11,2.626,0,3.926.16a6.63,6.63,0,0,1,3.6,1.693,9.007,9.007,0,0,1,2.193,2.715,8.08,8.08,0,0,1,.469,1.106A8.32,8.32,0,0,1,44.192,427.2Z" fill="#eee9f2"/>
      </g>
      <g id="Grupo_1370" data-name="Grupo 1370">
        <g id="Caminho_260-29" data-name="Caminho 260-29">
          <path id="Caminho_261-11" data-name="Caminho 261-11" d="M122.073,436.178a3.653,3.653,0,0,1-3.276,3.085c-12.271,1.151-25.695,1.886-40.115,1.9-14.839.018-28.628-.726-41.2-1.906a3.65,3.65,0,0,1-3.264-3.049,33.2,33.2,0,0,1-.093-10.058,3.629,3.629,0,0,1,3.948-3.081c12.326,1.167,25.847,1.9,40.4,1.894,14.3-.01,27.6-.741,39.749-1.89a3.649,3.649,0,0,1,3.956,3.169,35,35,0,0,1-.1,9.933Z" fill="#f5f2f7"/>
        </g>
        <g id="Grupo_1369" data-name="Grupo 1369">
          <g id="Grupo_1368" data-name="Grupo 1368">
            <path id="Caminho_2187" data-name="Caminho 2187" d="M52.277,436.356a.75.75,0,0,1-.819-.674.775.775,0,0,1,.01-.215l.278-5.689a.75.75,0,0,1,.888-.808l2.043.1a4.156,4.156,0,0,1,2.877,1.1,4.118,4.118,0,0,1-.265,5.464,4.132,4.132,0,0,1-2.97.823Zm.84-1.293,1.174.057a2.383,2.383,0,1,0,.229-4.723l-1.174-.058Z" fill="#373737"/>
            <path id="Caminho_2188" data-name="Caminho 2188" d="M60.332,436.807a.792.792,0,0,1-.6-.243.851.851,0,0,1-.187-.625l.218-5.9a.732.732,0,0,1,.848-.808q.807.027.777.868L61.17,436Q61.143,436.836,60.332,436.807Z" fill="#373737"/>
            <path id="Caminho_2189" data-name="Caminho 2189" d="M62.841,436.9a.7.7,0,0,1-.626-.31.717.717,0,0,1,.03-.723l2.833-5.815a1.271,1.271,0,0,1,.413-.508.958.958,0,0,1,1.069.026,1.222,1.222,0,0,1,.375.53l2.557,5.951a.74.74,0,0,1,0,.729.647.647,0,0,1-.6.274.814.814,0,0,1-.547-.181,1.413,1.413,0,0,1-.328-.534l-.414-1.017-3.45-.089-.457,1a1.534,1.534,0,0,1-.348.52A.724.724,0,0,1,62.841,436.9Zm3.126-5.682-1.235,2.761,2.376.058-1.115-2.818Z" fill="#373737"/>
            <path id="Caminho_2190" data-name="Caminho 2190" d="M71.259,437.1a.724.724,0,0,1-.544-.2.776.776,0,0,1-.184-.558l.046-6.073a.755.755,0,0,1,.2-.559.771.771,0,0,1,.568-.19.866.866,0,0,1,.5.125,1.2,1.2,0,0,1,.337.413L74.4,434.17l2.277-4.085a1.178,1.178,0,0,1,.344-.4.834.834,0,0,1,.489-.125.678.678,0,0,1,.738.762l-.046,6.072a.66.66,0,0,1-.555.749.682.682,0,0,1-.186,0,.663.663,0,0,1-.742-.573.651.651,0,0,1,0-.187l.03-3.85-1.745,3.081a1.022,1.022,0,0,1-.27.3.628.628,0,0,1-.375.1.657.657,0,0,1-.376-.1.9.9,0,0,1-.261-.3l-1.695-3.078L72,436.342a.66.66,0,0,1-.551.754A.638.638,0,0,1,71.259,437.1Z" fill="#373737"/>
            <path id="Caminho_2191" data-name="Caminho 2191" d="M79.87,437.142a.693.693,0,0,1-.634-.288.726.726,0,0,1,0-.724l2.627-5.912a1.3,1.3,0,0,1,.393-.523.959.959,0,0,1,1.071-.011,1.215,1.215,0,0,1,.394.516l2.764,5.859a.748.748,0,0,1,.022.729.649.649,0,0,1-.59.294.814.814,0,0,1-.551-.164,1.329,1.329,0,0,1-.345-.522l-.452-1-3.451.034-.42,1.01a1.5,1.5,0,0,1-.331.533A.71.71,0,0,1,79.87,437.142Zm2.922-5.788-1.136,2.8,2.369-.025-1.212-2.779Z" fill="#373737"/>
            <path id="Caminho_2192" data-name="Caminho 2192" d="M88.287,437.034q-.75.02-.776-.766l-.155-5.977a.855.855,0,0,1,.177-.613.677.677,0,0,1,.515-.224.727.727,0,0,1,.43.1,1.834,1.834,0,0,1,.368.352l3.512,4.242-.105-4.026a.676.676,0,0,1,.54-.788.663.663,0,0,1,.194-.007.675.675,0,0,1,.773.558.686.686,0,0,1,0,.192l.158,6.052a.8.8,0,0,1-.164.554.6.6,0,0,1-.477.218.815.815,0,0,1-.469-.1,1.755,1.755,0,0,1-.382-.358l-3.51-4.242.105,4.027C89.035,436.756,88.791,437.021,88.287,437.034Z" fill="#373737"/>
            <path id="Caminho_2193" data-name="Caminho 2193" d="M97.985,436.727a.79.79,0,0,1-.615-.2.86.86,0,0,1-.237-.609l-.219-5.3-1.854.077a.6.6,0,0,1-.7-.476.586.586,0,0,1-.008-.167.6.6,0,0,1,.489-.694.615.615,0,0,1,.166-.005l5.334-.219a.6.6,0,0,1,.7.473.638.638,0,0,1,.008.169.6.6,0,0,1-.485.693.57.57,0,0,1-.17.005l-1.855.077.218,5.3a.873.873,0,0,1-.179.625A.778.778,0,0,1,97.985,436.727Z" fill="#373737"/>
            <path id="Caminho_2194" data-name="Caminho 2194" d="M102.857,436.407a.752.752,0,0,1-.883-.589.725.725,0,0,1-.011-.213l-.31-5.69a.749.749,0,0,1,.589-.882.768.768,0,0,1,.214-.012l3.656-.2a.563.563,0,0,1,.664.438.586.586,0,0,1,.01.156.567.567,0,0,1-.448.665.552.552,0,0,1-.157.008l-2.956.16.1,1.73,2.713-.15a.651.651,0,0,1,.229,1.272.565.565,0,0,1-.159.007l-2.713.148.1,1.843,2.953-.161a.646.646,0,0,1,.231,1.26.612.612,0,0,1-.16.009Z" fill="#373737"/>
          </g>
        </g>
      </g>
    </g>
    <g id="Grupo_1367" data-name="Grupo 1367">
      <path id="Caminho_2180" data-name="Caminho 2180" d="M65.992,378.76H90.269L102.408,391.4,78.355,420.809h0L53.853,391.4Z" fill="url(#linear-gradient)"/>
      <path id="Caminho_2181" data-name="Caminho 2181" d="M65.254,391.4l8.267-12.643h9.13L91.015,391.4Z" fill="#fff" opacity="0.5" style="mix-blend-mode: normal;isolation: isolate"/>
      <path id="Caminho_2182" data-name="Caminho 2182" d="M91.218,378.76,78.13,391.4h0L65.457,378.76Z" fill="#fff" opacity="0.5" style="mix-blend-mode: normal;isolation: isolate"/>
      <path id="Caminho_2183" data-name="Caminho 2183" d="M53.848,391.33l24.5,29.406L102.4,391.33Z" fill="url(#linear-gradient-2)"/>
      <path id="Caminho_2184" data-name="Caminho 2184" d="M91.018,391.4l-12.655,29.4h0L65.257,391.4Z" fill="#fff" opacity="0.5" style="mix-blend-mode: normal;isolation: isolate"/>
      <path id="Caminho_1801-22" data-name="Caminho 1801-22" d="M67.268,398.659a.16.16,0,0,1,.045-.045l.451-.25.277-.151.025-.015a.1.1,0,0,0,.045-.045l.115-.206v-.01l.161-.291h0l.135-.242a.1.1,0,0,1,.055-.05.106.106,0,0,1,.095,0,.09.09,0,0,1,.045.045l.3.542.116.211a.108.108,0,0,0,.045.045l.08.045.673.366a.113.113,0,0,1,.045.15.107.107,0,0,1-.045.047l-.125.07-.285.16-.276.151h0l-.055.03a.1.1,0,0,0-.045.045l-.1.171-.16.292-.156.29a.111.111,0,0,1-.15.041.139.139,0,0,1-.046-.041l-.412-.751a.1.1,0,0,0-.045-.045l-.75-.411a.126.126,0,0,1-.058-.149Z" fill="#fff"/>
      <path id="Caminho_1801-23" data-name="Caminho 1801-23" d="M62.753,393.756a.473.473,0,0,1,.116-.116l1.165-.635.711-.389.065-.038a.257.257,0,0,0,.118-.117l.3-.53V391.9l.412-.751v-.012l.351-.626a.264.264,0,0,1,.142-.125.261.261,0,0,1,.25.013.242.242,0,0,1,.117.117l.764,1.4.3.544a.263.263,0,0,0,.116.117l.208.116,1.734.946a.292.292,0,0,1,.117.387.257.257,0,0,1-.117.118l-.336.18-.738.414-.713.389h-.013l-.142.08a.267.267,0,0,0-.117.116l-.25.441-.415.75-.4.751a.289.289,0,0,1-.388.105.308.308,0,0,1-.116-.105l-1.062-1.941a.265.265,0,0,0-.117-.117l-1.942-1.06A.313.313,0,0,1,62.753,393.756Z" fill="#fff"/>
    </g>
  </g>
</svg>
