<svg xmlns="http://www.w3.org/2000/svg" width="105.574" height="62.113" viewBox="0 0 105.574 62.113">
  <g id="Grupo_1523" data-name="Grupo 1523" transform="translate(-207.39 -371.497)">
    <g id="Grupo_1346" data-name="Grupo 1346">
      <path id="Caminho_2118" data-name="Caminho 2118" d="M258.343,371.5V385.83l-11.131,19.727-12.747,7.391h0S244.918,394.811,258.343,371.5Z" fill="#69f93c"/>
      <path id="Caminho_2119" data-name="Caminho 2119" d="M258.343,371.5V385.83l11.13,19.727,12.747,7.391h0Z" fill="#3dba0f"/>
      <path id="Caminho_2120" data-name="Caminho 2120" d="M282.217,412.949c-4.155-2.359-8.685-5.018-12.84-7.379-7.549-.02-14.613,0-22.162-.015-7.744,4.527-12.746,7.391-12.746,7.391" fill="#0dbc24"/>
      <path id="Caminho_2121" data-name="Caminho 2121" d="M247.215,405.552l11.131-19.727,11.131,19.727" fill="#5adb2a"/>
      <path id="Caminho_1801-18" data-name="Caminho 1801-18" d="M251.3,400.16a.183.183,0,0,1-.045.047l-.451.25-.277.151-.025.015a.09.09,0,0,0-.045.045l-.116.2v.01l-.16.292h0l-.135.241a.119.119,0,0,1-.151.05.108.108,0,0,1-.045-.045l-.3-.543-.115-.21a.1.1,0,0,0-.045-.045l-.08-.044-.673-.368a.113.113,0,0,1-.045-.15.09.09,0,0,1,.045-.045l.125-.07.286-.16.277-.152h0l.055-.031a.092.092,0,0,0,.044-.045l.1-.17.162-.291.155-.291a.111.111,0,0,1,.15-.04.1.1,0,0,1,.045.04l.411.75a.1.1,0,0,0,.047.045l.75.412A.123.123,0,0,1,251.3,400.16Z" fill="#fff"/>
      <path id="Caminho_1801-19" data-name="Caminho 1801-19" d="M250.706,405.687a.492.492,0,0,1-.116.116l-1.166.634-.712.389-.065.039a.263.263,0,0,0-.116.117l-.3.531v.025l-.414.751v.013l-.35.626a.266.266,0,0,1-.141.125.276.276,0,0,1-.25-.013.258.258,0,0,1-.117-.116l-.764-1.4-.3-.544a.242.242,0,0,0-.116-.116l-.206-.117-1.735-.945a.292.292,0,0,1-.116-.388.248.248,0,0,1,.116-.117l.336-.181.738-.414.712-.389h.013l.142-.08a.253.253,0,0,0,.117-.116l.25-.441.414-.75.4-.751a.287.287,0,0,1,.388-.1.306.306,0,0,1,.117.1l1.061,1.941a.255.255,0,0,0,.117.117l1.941,1.062A.31.31,0,0,1,250.706,405.687Z" fill="#fff"/>
    </g>
    <g id="Grupo_1349" data-name="Grupo 1349">
      <g id="Caminho_260-21" data-name="Caminho 260-21">
        <path id="Caminho_2122" data-name="Caminho 2122" d="M293.453,418.67v8.391q2.944-.16,5.81-.361,3.294-.23,6.489-.5c1.316-.108,2.611-.223,3.9-.345a3.575,3.575,0,0,0,3.2-2.993c.207-1.25-1.887-2.512-1.833-4.019.066-2.108,2.17-4.16,1.928-5.842a3.558,3.558,0,0,0-3.869-3.019q-2.571.242-5.208.46c-1.28.107-2.571,0-3.848.156a6.505,6.505,0,0,0-3.527,1.661,8.811,8.811,0,0,0-2.152,2.66,8.211,8.211,0,0,0-.46,1.085A8.117,8.117,0,0,0,293.453,418.67Z" fill="#eaefe8"/>
      </g>
      <g id="Caminho_260-22" data-name="Caminho 260-22">
        <path id="Caminho_2123" data-name="Caminho 2123" d="M226.9,419.911V428.3q-2.946-.16-5.81-.362-3.3-.228-6.49-.5c-1.314-.109-2.611-.224-3.9-.345a3.577,3.577,0,0,1-3.2-2.993c-.206-1.251,1.887-2.514,1.833-4.02-.066-2.107-2.168-4.159-1.927-5.841a3.556,3.556,0,0,1,3.869-3.02q2.568.243,5.206.46c1.281.108,2.572,0,3.851.158a6.5,6.5,0,0,1,3.527,1.661,8.787,8.787,0,0,1,2.149,2.661,7.924,7.924,0,0,1,.463,1.086A8.228,8.228,0,0,1,226.9,419.911Z" fill="#eaefe8"/>
      </g>
      <g id="Caminho_260-23" data-name="Caminho 260-23">
        <path id="Caminho_261-9" data-name="Caminho 261-9" d="M303.266,428.718a3.584,3.584,0,0,1-3.211,3.026c-12.036,1.125-25.2,1.85-39.336,1.866-14.552.017-28.074-.712-40.406-1.869a3.575,3.575,0,0,1-3.2-2.99,32.556,32.556,0,0,1-.091-9.864,3.559,3.559,0,0,1,3.869-3.019c12.088,1.144,25.345,1.865,39.611,1.855,14.022-.011,27.066-.728,38.977-1.853a3.578,3.578,0,0,1,3.877,3.108,34.648,34.648,0,0,1-.091,9.74Z" fill="#f3f4f2"/>
      </g>
      <g id="Grupo_1348" data-name="Grupo 1348">
        <g id="Grupo_1347" data-name="Grupo 1347">
          <path id="Caminho_2124" data-name="Caminho 2124" d="M230.795,428.658a.736.736,0,0,1-.783-.875l.329-5.576a.737.737,0,0,1,.674-.794.712.712,0,0,1,.2.011l3.584.21a.552.552,0,0,1,.6.5.575.575,0,0,1-.008.155.554.554,0,0,1-.505.6.519.519,0,0,1-.157-.009l-2.9-.171-.1,1.7,2.658.156a.557.557,0,0,1,.607.5.531.531,0,0,1-.007.159.561.561,0,0,1-.516.6.55.55,0,0,1-.157-.01l-2.661-.157-.105,1.807,2.9.169a.627.627,0,1,1-.074,1.243Z" fill="#373737"/>
          <path id="Caminho_2125" data-name="Caminho 2125" d="M238.611,429.187a6.111,6.111,0,0,1-1.31-.2,3.938,3.938,0,0,1-1.125-.473.665.665,0,0,1-.34-.433.763.763,0,0,1,.052-.5.586.586,0,0,1,.888-.258,3.267,3.267,0,0,0,.9.391,4.551,4.551,0,0,0,.991.158,1.868,1.868,0,0,0,1.073-.182.688.688,0,0,0,.35-.565.566.566,0,0,0-.205-.483,2.092,2.092,0,0,0-.777-.334l-1.15-.3q-1.926-.5-1.851-2.1a2.024,2.024,0,0,1,.426-1.19,2.4,2.4,0,0,1,1.068-.758,3.825,3.825,0,0,1,1.551-.219,4.675,4.675,0,0,1,1.125.19,3.369,3.369,0,0,1,.959.451.655.655,0,0,1,.3.415.736.736,0,0,1-.059.471.575.575,0,0,1-.344.3.7.7,0,0,1-.566-.1,2.876,2.876,0,0,0-.708-.29,3.705,3.705,0,0,0-.777-.118,1.711,1.711,0,0,0-1.013.207.764.764,0,0,0-.384.636.606.606,0,0,0,.194.493,1.718,1.718,0,0,0,.736.333l1.15.3q1.974.523,1.9,2.043a1.977,1.977,0,0,1-.418,1.172,2.379,2.379,0,0,1-1.063.751A3.981,3.981,0,0,1,238.611,429.187Z" fill="#373737"/>
          <path id="Caminho_2126" data-name="Caminho 2126" d="M243.342,429.369a.713.713,0,0,1-.531-.211.767.767,0,0,1-.168-.551l.173-5.953a.733.733,0,0,1,.212-.545.763.763,0,0,1,.56-.174.851.851,0,0,1,.485.138,1.158,1.158,0,0,1,.324.41l2.083,4.086,2.317-3.956a1.159,1.159,0,0,1,.347-.393.851.851,0,0,1,.481-.11.667.667,0,0,1,.708.763l-.174,5.954a.645.645,0,0,1-.558.721.667.667,0,0,1-.184,0,.649.649,0,0,1-.714-.576.616.616,0,0,1,.007-.187l.108-3.773-1.774,2.983a.992.992,0,0,1-.27.285.611.611,0,0,1-.368.088.643.643,0,0,1-.368-.109.885.885,0,0,1-.25-.3l-1.6-3.05-.108,3.742a.646.646,0,0,1-.56.722A.638.638,0,0,1,243.342,429.369Z" fill="#373737"/>
          <path id="Caminho_2127" data-name="Caminho 2127" d="M252.422,429.505a.737.737,0,0,1-.825-.637.725.725,0,0,1,0-.208l.073-5.586a.735.735,0,0,1,.635-.823.763.763,0,0,1,.208,0l3.59.045a.637.637,0,0,1,.155,1.252.536.536,0,0,1-.165,0l-2.9-.039-.021,1.7,2.663.035a.642.642,0,0,1,.151,1.262.545.545,0,0,1-.171,0l-2.664-.035-.023,1.811,2.9.038a.549.549,0,0,1,.619.469.543.543,0,0,1,0,.156.554.554,0,0,1-.47.627.57.57,0,0,1-.165,0Z" fill="#373737"/>
          <path id="Caminho_2128" data-name="Caminho 2128" d="M258.613,429.661a.79.79,0,0,1-.6-.215.845.845,0,0,1-.206-.608v-5.709a.718.718,0,0,1,.608-.813.766.766,0,0,1,.2,0h2.5A2.724,2.724,0,0,1,263,422.9a2.082,2.082,0,0,1,.66,1.636,2.152,2.152,0,0,1-.415,1.353,2.079,2.079,0,0,1-1.188.736,1.55,1.55,0,0,1,.895.792l.64,1.182a.825.825,0,0,1,.083.726c-.09.223-.305.335-.648.335a.987.987,0,0,1-.555-.144,1.149,1.149,0,0,1-.375-.443l-.991-1.82a.851.851,0,0,0-.375-.389,1.263,1.263,0,0,0-.535-.1h-.782v2.077a.862.862,0,0,1-.2.608A.765.765,0,0,1,258.613,429.661Zm.789-4.053h1.43q1.285,0,1.284-1.029t-1.285-1.017H259.4Z" fill="#373737"/>
          <path id="Caminho_2129" data-name="Caminho 2129" d="M265.01,429.642a.678.678,0,0,1-.626-.278.707.707,0,0,1,0-.709l2.539-5.813a1.279,1.279,0,0,1,.383-.516.886.886,0,0,1,.521-.167.9.9,0,0,1,.528.151,1.215,1.215,0,0,1,.389.5l2.752,5.726a.729.729,0,0,1,.026.715.637.637,0,0,1-.575.292.8.8,0,0,1-.543-.157,1.338,1.338,0,0,1-.343-.508l-.449-.98-3.376.055-.407,1a1.49,1.49,0,0,1-.32.524A.708.708,0,0,1,265.01,429.642Zm2.828-5.7-1.1,2.752,2.323-.038-1.207-2.718Z" fill="#373737"/>
          <path id="Caminho_2130" data-name="Caminho 2130" d="M273.316,429.387a.814.814,0,0,1-.613-.192.827.827,0,0,1-.224-.6l-.173-5.644a.819.819,0,0,1,.187-.608.8.8,0,0,1,.59-.23.711.711,0,0,1,.816.789l.157,5.109,2.752-.083a.6.6,0,0,1,.7.475.627.627,0,0,1,.008.173.607.607,0,0,1-.5.7.637.637,0,0,1-.169,0Z" fill="#373737"/>
          <path id="Caminho_2131" data-name="Caminho 2131" d="M279.22,429.188a.734.734,0,0,1-.869-.794l-.25-5.58a.734.734,0,0,1,.577-.865.751.751,0,0,1,.217-.011l2-.091a4.069,4.069,0,0,1,2.91.812,4.038,4.038,0,0,1,.243,5.355,4.059,4.059,0,0,1-2.824,1.074Zm.7-1.339,1.15-.053a2.337,2.337,0,1,0-.209-4.634l-1.151.052Z" fill="#373737"/>
          <path id="Caminho_2132" data-name="Caminho 2132" d="M286.361,428.943a.677.677,0,0,1-.633-.25.711.711,0,0,1-.034-.709l2.276-5.922a1.259,1.259,0,0,1,.359-.533.95.95,0,0,1,1.048-.066,1.185,1.185,0,0,1,.41.485l3,5.6a.725.725,0,0,1,.058.713.635.635,0,0,1-.562.318.8.8,0,0,1-.549-.125,1.335,1.335,0,0,1-.365-.493l-.492-.96-3.377.209-.359,1.012a1.5,1.5,0,0,1-.3.538A.7.7,0,0,1,286.361,428.943Zm2.569-5.815-.972,2.8,2.32-.144-1.327-2.659Z" fill="#373737"/>
        </g>
      </g>
    </g>
  </g>
</svg>
