<svg xmlns="http://www.w3.org/2000/svg" xmlns:xlink="http://www.w3.org/1999/xlink" width="87.381" height="59.423" viewBox="0 0 87.381 59.423">
  <defs>
    <linearGradient id="linear-gradient" x1="-44.688" y1="34.667" x2="-44.719" y2="34.475" gradientUnits="objectBoundingBox">
      <stop offset="0" stop-color="#ededed"/>
      <stop offset="1" stop-color="#c6c6c6"/>
    </linearGradient>
    <linearGradient id="linear-gradient-2" x1="-51.932" y1="19.906" x2="-51.96" y2="19.872" xlink:href="#linear-gradient"/>
    <linearGradient id="linear-gradient-3" x1="-67.449" y1="23.97" x2="-67.519" y2="23.888" xlink:href="#linear-gradient"/>
    <linearGradient id="linear-gradient-4" x1="-19.581" y1="9.54" x2="-19.596" y2="9.513" xlink:href="#linear-gradient"/>
    <linearGradient id="linear-gradient-5" x1="-19.896" y1="11.474" x2="-19.911" y2="11.437" xlink:href="#linear-gradient"/>
  </defs>
  <g id="Grupo_1519" data-name="Grupo 1519" transform="translate(-9.902 -529.19)">
    <g id="Grupo_1357" data-name="Grupo 1357">
      <path id="Caminho_2144" data-name="Caminho 2144" d="M52.616,568.386a13.582,13.582,0,0,0,3.421-.9c.661-.286.837-.466,3.982-3.252a29.582,29.582,0,0,0,3.946-3.863c.444-.553.784-1.031,1-1.355l5.422,1.68a25.463,25.463,0,0,1-14.988,7.59A25.881,25.881,0,0,1,52.616,568.386Z" fill="url(#linear-gradient)"/>
      <path id="Caminho_2145" data-name="Caminho 2145" d="M76.848,547.635l-4.642-1.4L61.414,529.193l9.23,3.692Z" fill="url(#linear-gradient-2)"/>
      <path id="Caminho_2146" data-name="Caminho 2146" d="M70.386,560.694l-5.422-1.679,7.242-12.781,4.642,1.4a43.4,43.4,0,0,1-6.462,13.059Z" fill="url(#linear-gradient-3)"/>
      <path id="Caminho_1801-7" data-name="Caminho 1801-7" d="M42.509,560.114a.061.061,0,0,1,.027,0l.232.01.14.006h.014a.043.043,0,0,0,.027-.006l.093-.052h0l.125-.075h0l.108-.062a.047.047,0,0,1,.033,0,.044.044,0,0,1,.035.024.039.039,0,0,1,.008.027l-.013.278v.107a.058.058,0,0,0,.008.029l.02.035.174.3a.055.055,0,0,1-.018.069.048.048,0,0,1-.029,0h-.385a.042.042,0,0,0-.027,0l-.076.043-.126.075-.125.076a.05.05,0,0,1-.067-.018h0a.062.062,0,0,1-.009-.026l.017-.386a.038.038,0,0,0-.007-.027l-.194-.334a.055.055,0,0,1,0-.078A.052.052,0,0,1,42.509,560.114Z" fill="#fff"/>
      <path id="Caminho_1801-8" data-name="Caminho 1801-8" d="M35.081,540.353a.082.082,0,0,1,.027-.006l.232.01h.153a.048.048,0,0,0,.029,0l.091-.052h0l.126-.075h0l.107-.062a.047.047,0,0,1,.033,0,.044.044,0,0,1,.036.024.045.045,0,0,1,.006.028l-.013.277v.108a.038.038,0,0,0,.007.027l.02.036.173.3a.051.051,0,0,1-.017.069.043.043,0,0,1-.027.006H35.85l-.142-.006h-.029a.046.046,0,0,0-.029.006l-.077.044-.125.075-.125.075a.049.049,0,0,1-.067-.019.05.05,0,0,1-.008-.026l.016-.385a.045.045,0,0,0,0-.028l-.194-.334a.054.054,0,0,1-.007-.076A.085.085,0,0,1,35.081,540.353Z" fill="#fff"/>
      <path id="Caminho_2147" data-name="Caminho 2147" d="M70.386,560.694l-5.422-1.679,7.242-12.781,4.642,1.4a43.4,43.4,0,0,1-6.462,13.059Z" fill="#353535" opacity="0.25" style="mix-blend-mode: normal;isolation: isolate"/>
      <path id="Caminho_2148" data-name="Caminho 2148" d="M76.848,547.635l-4.642-1.4L61.414,529.193l9.23,3.692Z" fill="#353535" opacity="0.25" style="mix-blend-mode: normal;isolation: isolate"/>
      <path id="Caminho_2149" data-name="Caminho 2149" d="M52.616,568.386a13.582,13.582,0,0,0,3.421-.9c.661-.286.837-.466,3.982-3.252a29.582,29.582,0,0,0,3.946-3.863c.444-.553.784-1.031,1-1.355l5.422,1.68a25.463,25.463,0,0,1-14.988,7.59A25.881,25.881,0,0,1,52.616,568.386Z" fill="#353535" opacity="0.25" style="mix-blend-mode: normal;isolation: isolate"/>
      <path id="Caminho_2150" data-name="Caminho 2150" d="M72.206,546.231l-7.242,12.781s-6.389,9.371-12.354,9.371a34.919,34.919,0,0,1-10.961-1.868A28.973,28.973,0,0,1,34.4,555.923a29.3,29.3,0,0,1-1.384-16.509L53.885,529.19" fill="url(#linear-gradient-4)"/>
      <path id="Caminho_2151" data-name="Caminho 2151" d="M72.206,546.231l-7.242,12.781s-6.389,9.371-12.354,9.371a34.919,34.919,0,0,1-10.961-1.868A28.973,28.973,0,0,1,34.4,555.923a29.3,29.3,0,0,1-1.384-16.509L53.885,529.19" fill="#353535" opacity="0.15" style="mix-blend-mode: normal;isolation: isolate"/>
      <path id="Caminho_2152" data-name="Caminho 2152" d="M64.964,559.015a23.1,23.1,0,0,1-7.355,2.522,31.418,31.418,0,0,1-5.851.033s-.809-.055-8.733-1.279A43.979,43.979,0,0,1,34.2,545.427a28.422,28.422,0,0,1-1.188-6L53.888,529.2h7.526c3.408,5.68,7.379,11.36,10.792,17.04l-7.242,12.78Z" fill="url(#linear-gradient-5)"/>
      <path id="Caminho_1801-9" data-name="Caminho 1801-9" d="M68.734,550.169a.154.154,0,0,1,.051-.017H69.5a.079.079,0,0,0,.051-.016l.165-.106v-.008l.233-.151h0l.195-.125a.088.088,0,0,1,.06-.017.091.091,0,0,1,.068.042.086.086,0,0,1,.016.051l.006.515v.2a.086.086,0,0,0,.015.052l.042.063.352.533a.093.093,0,0,1-.025.125.087.087,0,0,1-.051.017h-.715a.076.076,0,0,0-.05.016l-.137.087-.232.153-.229.154a.093.093,0,0,1-.125-.03.09.09,0,0,1-.017-.048l-.009-.715a.088.088,0,0,0-.016-.05l-.393-.6A.1.1,0,0,1,68.734,550.169Z" fill="#fff"/>
      <path id="Caminho_1801-10" data-name="Caminho 1801-10" d="M42.509,560.114a.061.061,0,0,1,.027,0l.232.01.14.006h.014a.043.043,0,0,0,.027-.006l.093-.052h0l.125-.075h0l.108-.062a.047.047,0,0,1,.033,0,.044.044,0,0,1,.035.024.039.039,0,0,1,.008.027l-.013.278v.107a.058.058,0,0,0,.008.029l.02.035.174.3a.055.055,0,0,1-.018.069.048.048,0,0,1-.029,0h-.385a.042.042,0,0,0-.027,0l-.076.043-.126.075-.125.076a.05.05,0,0,1-.067-.018h0a.062.062,0,0,1-.009-.026l.017-.386a.038.038,0,0,0-.007-.027l-.194-.334a.055.055,0,0,1,0-.078A.052.052,0,0,1,42.509,560.114Z" fill="#fff"/>
      <path id="Caminho_1801-11" data-name="Caminho 1801-11" d="M35.081,540.353a.082.082,0,0,1,.027-.006l.232.01h.153a.048.048,0,0,0,.029,0l.091-.052h0l.126-.075h0l.107-.062a.047.047,0,0,1,.033,0,.044.044,0,0,1,.036.024.045.045,0,0,1,.006.028l-.013.277v.108a.038.038,0,0,0,.007.027l.02.036.173.3a.051.051,0,0,1-.017.069.043.043,0,0,1-.027.006H35.85l-.142-.006h-.029a.046.046,0,0,0-.029.006l-.077.044-.125.075-.125.075a.049.049,0,0,1-.067-.019.05.05,0,0,1-.008-.026l.016-.385a.045.045,0,0,0,0-.028l-.194-.334a.054.054,0,0,1-.007-.076A.085.085,0,0,1,35.081,540.353Z" fill="#fff"/>
      <path id="Caminho_1801-12" data-name="Caminho 1801-12" d="M69.807,545.055a.35.35,0,0,1,.125-.039l1.056-.009h.707a.2.2,0,0,0,.125-.038l.409-.261.009-.019.572-.375V544.3l.48-.306a.2.2,0,0,1,.147-.037.225.225,0,0,1,.169.1.2.2,0,0,1,.037.125l.013,1.269v.5a.211.211,0,0,0,.037.125l.1.159.864,1.316a.232.232,0,0,1-.064.316.205.205,0,0,1-.125.038h-.3l-.673.014-.646.006h-.134a.2.2,0,0,0-.126.038l-.337.217-.574.375-.562.375a.228.228,0,0,1-.312-.071.248.248,0,0,1-.043-.117l-.017-1.762a.211.211,0,0,0-.039-.126l-.966-1.474A.251.251,0,0,1,69.807,545.055Z" fill="#fff"/>
    </g>
    <g id="Grupo_1360" data-name="Grupo 1360">
      <g id="Caminho_260-7" data-name="Caminho 260-7">
        <path id="Caminho_2153" data-name="Caminho 2153" d="M77.771,573.675v8.39q2.946-.16,5.81-.362,3.3-.228,6.49-.5c1.315-.109,2.611-.225,3.9-.345a3.575,3.575,0,0,0,3.2-2.992c.207-1.257-1.887-2.514-1.833-4.022.066-2.106,2.17-4.16,1.927-5.841a3.558,3.558,0,0,0-3.87-3.019q-2.566.243-5.2.46c-1.281.109-2.571,0-3.851.158a6.5,6.5,0,0,0-3.527,1.661,8.771,8.771,0,0,0-2.15,2.662,7.9,7.9,0,0,0-.463,1.084A8.216,8.216,0,0,0,77.771,573.675Z" fill="#eee9f2"/>
      </g>
      <g id="Caminho_260-8" data-name="Caminho 260-8">
        <path id="Caminho_2154" data-name="Caminho 2154" d="M29.413,574.916V583.3q-2.944-.16-5.81-.361-3.294-.229-6.489-.5c-1.316-.109-2.612-.225-3.9-.345a3.58,3.58,0,0,1-3.2-2.992c-.206-1.257,1.888-2.515,1.834-4.022-.066-2.108-2.17-4.159-1.929-5.842a3.559,3.559,0,0,1,3.87-3.019q2.569.242,5.207.46c1.279.108,2.572,0,3.848.156a6.5,6.5,0,0,1,3.528,1.661,8.81,8.81,0,0,1,2.15,2.662,7.781,7.781,0,0,1,.461,1.085A8.12,8.12,0,0,1,29.413,574.916Z" fill="#eee9f2"/>
      </g>
      <path id="Caminho_261-3" data-name="Caminho 261-3" d="M87.669,583.722a3.227,3.227,0,0,1-2.54,3.025,267.115,267.115,0,0,1-63.058,0,3.216,3.216,0,0,1-2.531-2.991,40.907,40.907,0,0,1-.071-9.863,3.037,3.037,0,0,1,3.053-3.02h.008a261.178,261.178,0,0,0,62.148,0c1.52-.181,2.866,1.2,3.066,3.108a43.671,43.671,0,0,1,.225,5.6C87.932,581.074,87.821,582.461,87.669,583.722Z" fill="#efefef"/>
      <g id="Grupo_1359" data-name="Grupo 1359">
        <g id="Grupo_1358" data-name="Grupo 1358">
          <path id="Caminho_2155" data-name="Caminho 2155" d="M38.752,584.441a.781.781,0,0,1-.591-.231.847.847,0,0,1-.191-.613l.153-5.707a.718.718,0,0,1,.63-.8.735.735,0,0,1,.2.005l2.5.065a2.654,2.654,0,0,1,1.855.663,2.539,2.539,0,0,1-.09,3.41,2.642,2.642,0,0,1-1.888.568l-1.717-.047-.051,1.884a.85.85,0,0,1-.217.6A.768.768,0,0,1,38.752,584.441Zm.9-3.918,1.451.038q1.265.033,1.293-1.056c.019-.728-.393-1.081-1.237-1.1l-1.449-.038Z" fill="#373737"/>
          <path id="Caminho_2156" data-name="Caminho 2156" d="M45.573,584.6a.765.765,0,0,1-.593-.222.837.837,0,0,1-.2-.609l.068-5.708a.715.715,0,0,1,.822-.8l2.5.028a2.719,2.719,0,0,1,1.865.609,2.081,2.081,0,0,1,.639,1.643,2.139,2.139,0,0,1-.434,1.346,2.088,2.088,0,0,1-1.2.722,1.556,1.556,0,0,1,.886.8l.625,1.192a.822.822,0,0,1,.074.725c-.091.222-.31.332-.652.327a.988.988,0,0,1-.554-.152,1.148,1.148,0,0,1-.365-.446l-.967-1.833a.836.836,0,0,0-.375-.395,1.306,1.306,0,0,0-.534-.11l-.782-.008-.026,2.077a.85.85,0,0,1-.207.6A.764.764,0,0,1,45.573,584.6Zm.84-4.042,1.43.018q1.286.015,1.3-1.013t-1.273-1.033l-1.43-.019Z" fill="#373737"/>
          <path id="Caminho_2157" data-name="Caminho 2157" d="M51.956,584.67a.682.682,0,0,1-.625-.286.707.707,0,0,1,.009-.709l2.612-5.78a1.253,1.253,0,0,1,.391-.511.932.932,0,0,1,1.046,0,1.168,1.168,0,0,1,.383.508l2.674,5.759a.73.73,0,0,1,.018.717.641.641,0,0,1-.581.285.792.792,0,0,1-.539-.164,1.34,1.34,0,0,1-.338-.514l-.435-.985L53.187,583l-.418.988a1.5,1.5,0,0,1-.328.521A.713.713,0,0,1,51.956,584.67Zm2.9-5.659-1.126,2.741,2.325-.009-1.172-2.732Z" fill="#373737"/>
          <path id="Caminho_2158" data-name="Caminho 2158" d="M61.189,584.595a.791.791,0,0,1-.6-.2.859.859,0,0,1-.215-.6l-.086-5.2-1.82.031a.588.588,0,0,1-.676-.483.544.544,0,0,1,0-.166.587.587,0,0,1,.492-.668.571.571,0,0,1,.165,0l5.236-.088a.588.588,0,0,1,.675.482.616.616,0,0,1,0,.166.588.588,0,0,1-.494.667.6.6,0,0,1-.164,0l-1.82.03.087,5.205a.861.861,0,0,1-.192.611A.77.77,0,0,1,61.189,584.595Z" fill="#373737"/>
          <path id="Caminho_2159" data-name="Caminho 2159" d="M64.538,584.537a.677.677,0,0,1-.625-.27.711.711,0,0,1-.013-.711l2.46-5.845a1.251,1.251,0,0,1,.376-.521.941.941,0,0,1,1.048-.031,1.174,1.174,0,0,1,.4.5L71,583.349a.723.723,0,0,1,.038.714.636.636,0,0,1-.574.3.8.8,0,0,1-.544-.149,1.355,1.355,0,0,1-.349-.5l-.462-.973-3.383.1-.39,1a1.5,1.5,0,0,1-.314.528A.708.708,0,0,1,64.538,584.537Zm2.751-5.733-1.059,2.769,2.324-.071-1.243-2.7Z" fill="#373737"/>
        </g>
      </g>
    </g>
  </g>
</svg>
