<svg xmlns="http://www.w3.org/2000/svg" width="105.573" height="69.391" viewBox="0 0 105.573 69.391">
  <g id="Grupo_1524" data-name="Grupo 1524" transform="translate(-295.292 -255.405)">
    <g id="Grupo_1362" data-name="Grupo 1362">
      <path id="Caminho_2160" data-name="Caminho 2160" d="M329.06,261.159l5.19-5.754,4.769,6.21-3.752,4.208Z" fill="#7f7f7f"/>
      <path id="Caminho_2161" data-name="Caminho 2161" d="M367.241,261.159,362.05,255.4l-4.768,6.21,3.752,4.208Z" fill="#191919"/>
      <path id="Caminho_2162" data-name="Caminho 2162" d="M334.25,255.408h27.8l-4.768,6.21h-18.26Z" fill="#191919"/>
      <path id="Caminho_2163" data-name="Caminho 2163" d="M335.27,265.826l-6.21-4.667V298.61l6.21-4.667V265.826Z" fill="#686868"/>
      <path id="Caminho_2164" data-name="Caminho 2164" d="M361.031,265.826v14.058l-.022,14.059,6.2,4.667V261.158Z" fill="#191919"/>
      <path id="Caminho_2165" data-name="Caminho 2165" d="M329.06,298.61l5.19,5.754,4.769-6.21-3.752-4.207Z" fill="#686868"/>
      <path id="Caminho_2166" data-name="Caminho 2166" d="M367.241,298.61l-5.191,5.754-4.768-6.21,3.727-4.207Z" fill="#191919"/>
      <path id="Caminho_2167" data-name="Caminho 2167" d="M334.25,304.36h27.8l-4.768-6.21h-18.26Z" fill="#191919"/>
      <path id="Caminho_2168" data-name="Caminho 2168" d="M357.282,298.15h-18.26l-3.752-4.207V265.826l3.752-4.207h18.26l3.752,4.207-.022,28.117Q359.146,296.043,357.282,298.15Z" fill="#3a3a3a"/>
      <path id="Caminho_1801-16" data-name="Caminho 1801-16" d="M334.2,265.312a.213.213,0,0,1,.045-.045l.452-.25.276-.151.025-.015a.094.094,0,0,0,.045-.045l.116-.206v-.01l.16-.291h0l.135-.241a.118.118,0,0,1,.151-.05.1.1,0,0,1,.045.045l.3.541.115.212a.1.1,0,0,0,.045.045l.08.044.673.367a.115.115,0,0,1,.045.151.1.1,0,0,1-.045.045l-.125.07-.287.16-.276.152h0l-.055.031a.09.09,0,0,0-.045.045l-.1.17-.161.291-.155.291a.116.116,0,0,1-.2,0l-.412-.75a.1.1,0,0,0-.046-.045l-.751-.412A.125.125,0,0,1,334.2,265.312Z" fill="#fff"/>
      <path id="Caminho_1801-17" data-name="Caminho 1801-17" d="M331.561,272a.468.468,0,0,1,.117-.118l1.164-.634.712-.389.065-.038a.253.253,0,0,0,.116-.117l.3-.531v-.025l.413-.75v-.013l.35-.625a.267.267,0,0,1,.142-.125.275.275,0,0,1,.251.012.258.258,0,0,1,.116.117l.764,1.4.3.543a.258.258,0,0,0,.116.117l.208.116,1.733.945a.294.294,0,0,1,.118.389.265.265,0,0,1-.118.116l-.335.181-.738.414-.713.389h-.013l-.142.08a.244.244,0,0,0-.116.115l-.251.441-.415.75-.4.751a.29.29,0,0,1-.388.1.306.306,0,0,1-.116-.1l-1.062-1.942a.253.253,0,0,0-.117-.116l-1.942-1.062A.311.311,0,0,1,331.561,272Z" fill="#fff"/>
    </g>
    <g id="Grupo_1365" data-name="Grupo 1365">
      <g id="Caminho_260-18" data-name="Caminho 260-18">
        <path id="Caminho_2169" data-name="Caminho 2169" d="M381.354,309.857v8.39q2.944-.16,5.81-.361,3.3-.228,6.49-.5c1.315-.108,2.611-.225,3.9-.345a3.576,3.576,0,0,0,3.2-2.991c.207-1.257-1.887-2.514-1.833-4.023.066-2.106,2.168-4.159,1.927-5.84a3.557,3.557,0,0,0-3.868-3.019q-2.569.242-5.207.46c-1.281.108-2.571,0-3.85.157a6.511,6.511,0,0,0-3.527,1.661,8.787,8.787,0,0,0-2.15,2.663,7.966,7.966,0,0,0-.461,1.084A8.209,8.209,0,0,0,381.354,309.857Z" fill="#eee9f2"/>
      </g>
      <g id="Caminho_260-19" data-name="Caminho 260-19">
        <path id="Caminho_2170" data-name="Caminho 2170" d="M314.8,311.1v8.39q-2.945-.162-5.809-.362-3.294-.228-6.49-.5c-1.316-.109-2.611-.225-3.9-.345a3.578,3.578,0,0,1-3.2-2.992c-.207-1.257,1.887-2.515,1.833-4.022-.067-2.107-2.168-4.158-1.928-5.842a3.558,3.558,0,0,1,3.869-3.019q2.571.241,5.207.46c1.279.109,2.571,0,3.849.156a6.5,6.5,0,0,1,3.527,1.661,8.8,8.8,0,0,1,2.152,2.663,8.024,8.024,0,0,1,.887,3.752Z" fill="#eee9f2"/>
      </g>
      <g id="Caminho_260-20" data-name="Caminho 260-20">
        <path id="Caminho_261-8" data-name="Caminho 261-8" d="M391.168,319.9a3.581,3.581,0,0,1-3.21,3.026c-12.034,1.125-25.2,1.849-39.336,1.866-14.552.018-28.073-.711-40.4-1.869a3.579,3.579,0,0,1-3.2-2.99,32.551,32.551,0,0,1-.091-9.863,3.562,3.562,0,0,1,3.869-3.021c12.09,1.145,25.345,1.866,39.613,1.856,14.022-.01,27.064-.726,38.975-1.853a3.58,3.58,0,0,1,3.878,3.108,34.738,34.738,0,0,1,.283,5.6A34.337,34.337,0,0,1,391.168,319.9Z" fill="#f5f2f7"/>
      </g>
      <g id="Grupo_1364" data-name="Grupo 1364">
        <g id="Grupo_1363" data-name="Grupo 1363">
          <path id="Caminho_2171" data-name="Caminho 2171" d="M321.207,320.081a.781.781,0,0,1-.584-.25.839.839,0,0,1-.172-.618l.3-5.2-1.817-.1a.663.663,0,1,1,.078-1.314l5.228.3a.673.673,0,0,1,.092,1.33.577.577,0,0,1-.171-.01l-1.818-.1-.3,5.2a.851.851,0,0,1-.234.594A.766.766,0,0,1,321.207,320.081Z" fill="#191919"/>
          <path id="Caminho_2172" data-name="Caminho 2172" d="M328.243,320.448a3.209,3.209,0,0,1-2.316-.889,3.166,3.166,0,0,1-.708-2.387l.148-3.494a.822.822,0,0,1,.231-.593.8.8,0,0,1,.6-.187.711.711,0,0,1,.769.647.737.737,0,0,1-.011.2l-.148,3.5a1.949,1.949,0,0,0,.347,1.348,1.476,1.476,0,0,0,1.142.5q1.551.063,1.626-1.714l.147-3.5a.711.711,0,0,1,.625-.785.755.755,0,0,1,.2.006.767.767,0,0,1,.571.235.83.83,0,0,1,.174.611l-.145,3.494a3.2,3.2,0,0,1-.89,2.32A3.163,3.163,0,0,1,328.243,320.448Z" fill="#191919"/>
          <path id="Caminho_2173" data-name="Caminho 2173" d="M333.548,320.626a.8.8,0,0,1-.593-.233.837.837,0,0,1-.188-.611l.15-5.707a.72.72,0,0,1,.834-.792l2.5.065a2.725,2.725,0,0,1,1.855.634,2.091,2.091,0,0,1,.617,1.655,2.163,2.163,0,0,1-.453,1.341,2.1,2.1,0,0,1-1.207.7,1.552,1.552,0,0,1,.875.816l.607,1.2a.827.827,0,0,1,.064.728c-.1.221-.315.327-.658.318a.993.993,0,0,1-.55-.159,1.121,1.121,0,0,1-.359-.453l-.94-1.846a.828.828,0,0,0-.375-.4,1.25,1.25,0,0,0-.531-.118l-.782-.021-.054,2.077a.865.865,0,0,1-.216.6A.772.772,0,0,1,333.548,320.626Zm.9-4.032,1.43.037q1.287.034,1.312-.994t-1.257-1.052l-1.43-.039Z" fill="#191919"/>
          <path id="Caminho_2174" data-name="Caminho 2174" d="M340.625,320.8a.7.7,0,0,1-.534-.2.75.75,0,0,1-.18-.546l.056-5.955a.733.733,0,0,1,.2-.549.764.764,0,0,1,.557-.184.844.844,0,0,1,.487.125,1.145,1.145,0,0,1,.331.4l2.165,4.043,2.239-4a1.164,1.164,0,0,1,.339-.4.816.816,0,0,1,.479-.119.731.731,0,0,1,.539.2.748.748,0,0,1,.185.552l-.055,5.955a.737.737,0,0,1-1.454.172.658.658,0,0,1,0-.188l.035-3.775-1.715,3.019a1.008,1.008,0,0,1-.265.291.621.621,0,0,1-.366.1.635.635,0,0,1-.369-.1.893.893,0,0,1-.25-.3l-1.658-3.019-.035,3.744a.647.647,0,0,1-.539.739A.671.671,0,0,1,340.625,320.8Z" fill="#191919"/>
          <path id="Caminho_2175" data-name="Caminho 2175" d="M349.068,320.851a.677.677,0,0,1-.625-.284.707.707,0,0,1,0-.709l2.586-5.793a1.285,1.285,0,0,1,.386-.513.9.9,0,0,1,.524-.162.884.884,0,0,1,.525.155,1.191,1.191,0,0,1,.385.5l2.7,5.753a.728.728,0,0,1,.021.716.642.642,0,0,1-.579.289.817.817,0,0,1-.542-.16,1.378,1.378,0,0,1-.339-.512l-.44-.984-3.384.027-.413.991a1.5,1.5,0,0,1-.325.523A.706.706,0,0,1,349.068,320.851Zm2.877-5.672-1.126,2.752,2.325-.019-1.185-2.727Z" fill="#191919"/>
          <path id="Caminho_2176" data-name="Caminho 2176" d="M357.406,320.659a.815.815,0,0,1-.611-.2.824.824,0,0,1-.219-.6l-.125-5.647a.816.816,0,0,1,.192-.6.788.788,0,0,1,.591-.224.708.708,0,0,1,.811.793l.114,5.111,2.752-.062a.6.6,0,0,1,.7.482.571.571,0,0,1,.006.17.6.6,0,0,1-.5.692.62.62,0,0,1-.172,0Z" fill="#191919"/>
          <path id="Caminho_2177" data-name="Caminho 2177" d="M363.279,320.6a.787.787,0,0,1-.6-.2.84.84,0,0,1-.226-.6l-.185-5.79a.719.719,0,0,1,.575-.839.744.744,0,0,1,.2-.009c.528-.016.8.25.818.8l.186,5.788a.714.714,0,0,1-.767.849Z" fill="#191919"/>
          <path id="Caminho_2178" data-name="Caminho 2178" d="M366.249,320.5q-.742.031-.773-.74l-.25-5.858a.829.829,0,0,1,.165-.6.652.652,0,0,1,.5-.226.717.717,0,0,1,.425.089,1.784,1.784,0,0,1,.366.339l3.514,4.1-.171-3.945a.662.662,0,0,1,.517-.782.631.631,0,0,1,.189-.011.664.664,0,0,1,.772.728l.258,5.929a.79.79,0,0,1-.152.548.6.6,0,0,1-.464.221.826.826,0,0,1-.463-.092,1.78,1.78,0,0,1-.375-.345l-3.515-4.1.173,3.946a.67.67,0,0,1-.716.8Z" fill="#191919"/>
          <path id="Caminho_2179" data-name="Caminho 2179" d="M373.439,320.173a.68.68,0,0,1-.633-.25.706.706,0,0,1-.032-.709l2.283-5.919a1.244,1.244,0,0,1,.361-.531.949.949,0,0,1,1.047-.066,1.184,1.184,0,0,1,.41.485l2.995,5.6a.732.732,0,0,1,.058.714.636.636,0,0,1-.563.316.8.8,0,0,1-.549-.131,1.338,1.338,0,0,1-.365-.493l-.492-.96-3.377.2-.361,1.011a1.535,1.535,0,0,1-.3.539A.718.718,0,0,1,373.439,320.173Zm2.579-5.813-.977,2.8,2.323-.139-1.325-2.662Z" fill="#191919"/>
        </g>
      </g>
    </g>
  </g>
</svg>
