<svg xmlns="http://www.w3.org/2000/svg" xmlns:xlink="http://www.w3.org/1999/xlink" width="197.073" height="258.252" viewBox="0 0 197.073 258.252"><defs><style>.a{stroke:#3d3d3d;stroke-miterlimit:10;stroke-width:0.5px;opacity:0.94;fill:url(#a);}.b{fill:#35472d;}.c{fill:#91b77d;}.d{fill:#336d15;}.e,.p{fill:none;}.f{fill:#6bbfc7;}.g{fill:#edf7fb;}.h{fill:#bee1e5;}.i{fill:#2188a8;}.j{fill:#fff;}.k{fill:#b2dbdf;}.l,.o{fill:#46a1a6;}.m,.n,.o,.p{isolation:isolate;}.n{fill:#daeff6;}.n,.o,.p{font-size:8.137px;font-family:AgencyFB-Bold, Agency FB;font-weight:700;}.p{stroke:#b2dbdf;stroke-width:0.095px;}</style><linearGradient id="a" y1="0.5" x2="1" y2="0.5" gradientUnits="objectBoundingBox"><stop offset="0.219" stop-color="#4e765c"/><stop offset="1" stop-color="#366043"/></linearGradient></defs><g transform="translate(-1909.455 1431.751)"><path class="a" d="M2089.15-1358.15c-.79.52-1.55,1.01-2.26,1.49l-.1.07c-7.46,5.7-15.21,9.89-22.71,13.95-9.74,5.27-18.94,10.24-27.49,18.23a74.7,74.7,0,0,0-11.08,14.67c-.69,1.15-1.37,2.33-2.04,3.55l-4.81-4.32c-8.76-7.98-17.35-11.84-25.57-11.49-26.21,1.12-44.83,44.51-61.25,82.79a436.1,436.1,0,0,0-22.14,65.65c5.42-26.29,12.45-43.48,19.28-60.19,5.14-12.59,10.11-24.74,13.9-39.94a217.17,217.17,0,0,0,5.11-29.09c.39-3.55.68-6.87.96-10.08s.56-6.3.9-9.4a2.063,2.063,0,0,0,.12-1.04,136.111,136.111,0,0,1,4.95-24.13,174.042,174.042,0,0,1,26.69-53.39l16.57-30.34c2.47,6.35,2.42,11.99,2.37,17.44-.05,6.25-.11,12.16,3.8,17.85,6.28,9.16,20.98,12.05,44.91,8.85l.37-.08a96.088,96.088,0,0,0,10.98-4.65c4.55-2.15,8.85-4.18,13.75-5.28,13.7-1.93,26.36,4.15,30.82,14.87C2109.62-1372.55,2100.13-1365.32,2089.15-1358.15Z"/><path class="b" d="M2080.464-1370.827h0c-.461-.026-3.216-.158-4.069-1.008-1.211-1.206-.276-3.371.8-5.274h0a6.807,6.807,0,0,1,.836-6.823,3.842,3.842,0,0,1,2.434-1.008h0a4.012,4.012,0,0,1,2.434,1.008c1.3,1.223,2.03,4.71,1.094,6.737h0c.915,1.99,1.911,4.15.627,5.36C2083.757-1371.023,2080.967-1370.864,2080.464-1370.827Z"/><path d="M2082.917-1375.2a.172.172,0,0,0-.243-.017l-2.339,2.03v-5.561a.172.172,0,0,0-.172-.172.173.173,0,0,0-.173.172v2.863l-1.559-1.482a.172.172,0,0,0-.243.007.171.171,0,0,0,.006.243l1.8,1.706v8.539a.173.173,0,0,0,.173.172.172.172,0,0,0,.172-.172v-5.86l2.565-2.225A.172.172,0,0,0,2082.917-1375.2Z"/><path class="b" d="M1970.856-1346.822h0c-.952-.055-6.635-.327-8.395-2.08-2.5-2.489-.569-6.955,1.648-10.881h0c-2.343-4.162-.885-11.514,1.725-14.077a7.924,7.924,0,0,1,5.022-2.08h0a8.279,8.279,0,0,1,5.022,2.08c2.687,2.522,4.188,9.718,2.257,13.9h0c1.888,4.105,3.943,8.563,1.294,11.059C1977.65-1347.227,1971.894-1346.9,1970.856-1346.822Z"/><path d="M1975.918-1355.836a.355.355,0,0,0-.5-.036l-4.827,4.188v-11.473a.355.355,0,0,0-.355-.355.355.355,0,0,0-.356.355v5.906l-3.217-3.056a.355.355,0,0,0-.5.013.355.355,0,0,0,.013.5l3.706,3.521v17.616a.355.355,0,0,0,.356.355.355.355,0,0,0,.355-.355v-12.089l5.292-4.592A.354.354,0,0,0,1975.918-1355.836Z"/><path class="c" d="M1995.516-1398.311c0,2.917-1.3,5.244-4.219,5.244s-3.686-2.327-3.686-5.244.807-6.689,3.724-6.689S1995.516-1401.229,1995.516-1398.311Z"/><path d="M1993.693-1396.507a.152.152,0,0,0-.215-.016l-2.067,1.793v-4.911a.152.152,0,0,0-.152-.152.152.152,0,0,0-.152.152v2.528l-1.377-1.308a.152.152,0,0,0-.215.005.152.152,0,0,0,.006.215l1.586,1.507v7.542a.152.152,0,0,0,.152.152.152.152,0,0,0,.152-.152v-5.175l2.266-1.966A.151.151,0,0,0,1993.693-1396.507Z"/><path class="d" d="M2049.877-1379.408l-1.652,3.747-4.072-.443a3.275,3.275,0,0,0-3,5.19l2.419,3.3-2.419,3.305a3.274,3.274,0,0,0,3,5.19l4.072-.443,1.652,3.747a3.275,3.275,0,0,0,5.993,0l1.652-3.747,4.072.443a3.275,3.275,0,0,0,3-5.19l-2.419-3.305,2.419-3.3a3.275,3.275,0,0,0-3-5.19l-4.072.443-1.652-3.747A3.275,3.275,0,0,0,2049.877-1379.408Z"/><path d="M2059.221-1364.594a.41.41,0,0,0-.578-.041l-5.565,4.828v-13.226a.409.409,0,0,0-.409-.409.41.41,0,0,0-.41.409v6.808l-3.709-3.523a.411.411,0,0,0-.579.015.41.41,0,0,0,.015.579l4.273,4.058v20.308a.411.411,0,0,0,.41.41.41.41,0,0,0,.409-.41v-13.935l6.1-5.294A.41.41,0,0,0,2059.221-1364.594Z"/><path class="e" d="M2000.481-1361.561h-3.6c.818-6.987,8.15-14.186,10.7-16.5h0c-2.552,2.313-9.886,9.514-10.707,16.506h3.6Z"/><path class="e" d="M2007.584-1348.187a10.168,10.168,0,0,1-1.281-.2,10.168,10.168,0,0,0,1.281.2Z"/><path class="e" d="M2003.151-1355.643l-2.032,4.431a13.5,13.5,0,0,1-4.281-8.272,9.789,9.789,0,0,1-.032-1.029h0a10.088,10.088,0,0,0,.032,1.029,13.508,13.508,0,0,0,4.283,8.275l2.033-4.433Z"/><path class="e" d="M2003.973-1354.928l-2.03,4.428h0l2.029-4.426Z"/><path class="e" d="M2006.055-1348.437c-.067-.016-.133-.039-.2-.056C2005.922-1348.475,2005.988-1348.453,2006.055-1348.437Z"/><path class="e" d="M2001.544-1361.081a7.981,7.981,0,0,0,4.145,6,7.974,7.974,0,0,1-4.141-5.995c-.394-4.617,5.085-9.825,6.545-11.125l0,0C2006.632-1370.906,2001.151-1365.7,2001.544-1361.081Z"/><path class="e" d="M2015.616-1362.192l3.44,0v-.005h-3.436a15.893,15.893,0,0,0-3.513-7.151,32.456,32.456,0,0,0-3.478-3.793l.006-4.874,0,0-.005,4.88a32.707,32.707,0,0,1,3.478,3.793A15.949,15.949,0,0,1,2015.616-1362.192Z"/><path class="e" d="M2019.382-1359.44Z"/><path class="e" d="M2019.256-1361.145h0a11.911,11.911,0,0,1,.128,1.688A11.907,11.907,0,0,0,2019.256-1361.145Z"/><path class="e" d="M2008.634-1348.182h0a11.2,11.2,0,0,0,5.867-1.981h0A11.2,11.2,0,0,1,2008.634-1348.182Z"/><path class="e" d="M2015.7-1361.038c0-.034,0-.07,0-.107h0v.108a7.583,7.583,0,0,1-2.466,5.6l2.12,4.622,0,0-2.119-4.62A7.585,7.585,0,0,0,2015.7-1361.038Z"/><rect class="e" width="0.001" height="5.269" transform="translate(2008.63 -1353.451)"/><path class="f" d="M1996.838-1359.484a13.5,13.5,0,0,0,4.281,8.272l2.032-4.431a9.054,9.054,0,0,1-2.59-4.87h-3.755A9.789,9.789,0,0,0,1996.838-1359.484Z"/><path class="g" d="M1996.883-1361.561h3.6c0-2.307,1.145-4.909,3.419-7.749a31.119,31.119,0,0,1,3.68-3.838l.006-4.914C2005.033-1375.747,1997.7-1368.548,1996.883-1361.561Z"/><path class="f" d="M2007.579-1353.459a6.966,6.966,0,0,1-3.6-1.467l-2.03,4.425a10.184,10.184,0,0,0,3.91,2.008c.067.017.133.04.2.056s.165.033.248.051a10.168,10.168,0,0,0,1.281.2Z"/><path class="f" d="M2012.4-1354.764a7.558,7.558,0,0,1-3.768,1.313l.006,5.269a11.2,11.2,0,0,0,5.869-1.981Z"/><path class="f" d="M2012.106-1369.346a15.893,15.893,0,0,1,3.513,7.151h3.436c-1.524-6.777-8.032-13.525-10.421-15.818l-.006,4.874A32.456,32.456,0,0,1,2012.106-1369.346Z"/><path class="h" d="M2001.548-1361.08a7.974,7.974,0,0,0,4.141,5.995,5.333,5.333,0,0,0,2.412.6h0a6.561,6.561,0,0,0,6.551-6.555c0-4.67-5.161-9.848-6.562-11.167C2006.633-1370.905,2001.154-1365.7,2001.548-1361.08Z"/><path class="f" d="M2019.381-1359.457a11.911,11.911,0,0,0-.128-1.688H2015.7c0,.037,0,.073,0,.107a7.585,7.585,0,0,1-2.465,5.6l2.119,4.62a11.249,11.249,0,0,0,4.02-8.621h0Z"/><path class="i" d="M2008.534-1379.544l-.441-.405-.468.454a51.089,51.089,0,0,0-6.244,6.484,31.574,31.574,0,0,0-4.078,6.406,14.425,14.425,0,0,0-1.508,7.208,14.455,14.455,0,0,0,3.889,8.259,11.659,11.659,0,0,0,8.429,4.014,12.332,12.332,0,0,0,12.317-12.317C2020.428-1368.586,2009.638-1378.549,2008.534-1379.544Zm.1,1.527,0,0c2.389,2.293,8.9,9.041,10.421,15.818v.005l-3.44,0a15.949,15.949,0,0,0-3.513-7.152,32.707,32.707,0,0,0-3.478-3.793Zm-.539,5.81,0,0c1.4,1.319,6.562,6.5,6.562,11.167a6.561,6.561,0,0,1-6.551,6.555h0a5.333,5.333,0,0,1-2.412-.6,7.981,7.981,0,0,1-4.145-6C2001.151-1365.7,2006.632-1370.906,2008.091-1372.207Zm-.5-5.855h0l-.006,4.914a31.119,31.119,0,0,0-3.68,3.838c-2.274,2.84-3.419,5.442-3.419,7.749v.005h-3.6C1997.7-1368.548,2005.034-1375.749,2007.586-1378.062Zm-10.75,18.577a10.088,10.088,0,0,1-.032-1.029h3.757a9.054,9.054,0,0,0,2.59,4.87h0l-2.033,4.433A13.508,13.508,0,0,1,1996.836-1359.485Zm9.219,11.048c-.067-.016-.133-.038-.2-.056a10.184,10.184,0,0,1-3.91-2.008h0l2.031-4.428,0,0a6.966,6.966,0,0,0,3.6,1.467l.005,5.272h0a10.168,10.168,0,0,1-1.281-.2C2006.22-1348.4,2006.137-1348.417,2006.055-1348.437Zm2.581.255h-.005l0-5.269h0a7.558,7.558,0,0,0,3.768-1.313l2.107,4.6h0A11.2,11.2,0,0,1,2008.636-1348.182Zm10.746-11.258h0a11.249,11.249,0,0,1-4.02,8.621l0,0-2.12-4.622a7.583,7.583,0,0,0,2.466-5.6v-.108h3.553a11.907,11.907,0,0,1,.125,1.688v.016Z"/><path class="j" d="M2011.731-1372.376l.692,1.264a.189.189,0,0,0,.074.074l1.265.692a.187.187,0,0,1,.074.253.189.189,0,0,1-.074.074l-1.265.692a.187.187,0,0,0-.074.074l-.692,1.264a.186.186,0,0,1-.253.075.185.185,0,0,1-.074-.075l-.691-1.264a.187.187,0,0,0-.074-.074l-1.264-.692a.186.186,0,0,1-.075-.253.184.184,0,0,1,.075-.074l1.264-.692a.189.189,0,0,0,.074-.074l.691-1.264a.186.186,0,0,1,.253-.075A.185.185,0,0,1,2011.731-1372.376Z"/><path class="j" d="M2014.161-1368.879l.506.337a.077.077,0,0,0,.042.012l.6.01a.077.077,0,0,1,.077.079.069.069,0,0,1-.013.042l-.337.506a.077.077,0,0,0-.012.042l-.01.6a.077.077,0,0,1-.079.077.077.077,0,0,1-.042-.013l-.506-.337a.076.076,0,0,0-.042-.012l-.6-.01a.077.077,0,0,1-.077-.08.076.076,0,0,1,.013-.041l.337-.506a.076.076,0,0,0,.012-.042l.01-.6a.077.077,0,0,1,.077-.078A.077.077,0,0,1,2014.161-1368.879Z"/><path class="j" d="M2001.572-1358.66l.188.343a.039.039,0,0,0,.02.02l.343.188a.052.052,0,0,1,.02.069.064.064,0,0,1-.02.02l-.343.188a.039.039,0,0,0-.02.02l-.188.343a.052.052,0,0,1-.069.02.055.055,0,0,1-.02-.02l-.188-.343a.049.049,0,0,0-.02-.02l-.343-.188a.051.051,0,0,1-.02-.069.063.063,0,0,1,.02-.02l.343-.188a.049.049,0,0,0,.02-.02l.188-.343a.052.052,0,0,1,.069-.02A.064.064,0,0,1,2001.572-1358.66Z"/><path class="k" d="M2034.029-1330.706h-51.852v-10.6h51.852Z"/><path class="l" d="M1982.414-1341.067v10.124h51.378v-10.124h-51.378m-.473-.473h52.324v11.071h-52.324Z"/><g class="m"><text class="n" transform="translate(1987.363 -1332.741)"><tspan x="0" y="0">AGUA MARINHA</tspan></text></g><g class="m"><text class="o" transform="translate(1987.079 -1333.071)"><tspan x="0" y="0">AGUA MARINHA</tspan></text></g><g class="m"><text class="p" transform="translate(1987.079 -1333.071)"><tspan x="0" y="0">AGUA MARINHA</tspan></text></g></g></svg>