<svg xmlns="http://www.w3.org/2000/svg" xmlns:xlink="http://www.w3.org/1999/xlink" width="179.139" height="102.789" viewBox="0 0 179.139 102.789"><defs><style>.a{stroke:#3d3d3d;stroke-miterlimit:10;stroke-width:0.5px;opacity:0.94;fill:url(#a);}.b{fill:#35472d;}.c{fill:#91b77d;}.d{fill:#336d15;}.e,.p{fill:none;}.f{fill:#6bbfc7;}.g{fill:#edf7fb;}.h{fill:#bee1e5;}.i{fill:#2188a8;}.j{fill:#fff;}.k{fill:#b2dbdf;}.l,.o{fill:#46a1a6;}.m,.n,.o,.p{isolation:isolate;}.n{fill:#daeff6;}.n,.o,.p{font-size:8.137px;font-family:AgencyFB-Bold, Agency FB;font-weight:700;}.p{stroke:#b2dbdf;stroke-width:0.095px;}</style><linearGradient id="a" y1="0.5" x2="1" y2="0.5" gradientUnits="objectBoundingBox"><stop offset="0.219" stop-color="#4e765c"/><stop offset="1" stop-color="#366043"/></linearGradient></defs><g transform="translate(-1903.076 1173.312)"><path class="a" d="M2082.07-1106.69a1.71,1.71,0,0,0-.23-.13,57.874,57.874,0,0,0-12.53-4.14,53.4,53.4,0,0,0-8.22-1.04c-19.24-.88-32.32,9.04-46.17,19.55-10.24,7.77-20.83,15.8-34.45,19.52-18.12,4.95-39.16,1.3-62.55-10.84a2.056,2.056,0,0,0-.41-.16,85.677,85.677,0,0,1-12.56-28.52,68.13,68.13,0,0,1-1.38-21.33c.06-.71.11-1.43.18-2.17.61-6.46,1.77-13.72,3.22-22.73.58-3.6,1.19-7.03,1.82-10.34.27-1.36.53-2.7.8-4.02a355.7,355.7,0,0,1,50.67,3.06c32.18,4.28,59.11,12.55,75.82,23.3a100.342,100.342,0,0,1,23.79,20.69C2065.28-1119.89,2070.38-1114.13,2082.07-1106.69Z"/><path class="b" d="M1947.122-1088.156h0c-.762-.043-5.315-.262-6.724-1.666-2-1.993-.456-5.57,1.32-8.715h0c-1.877-3.333-.708-9.222,1.382-11.275a6.344,6.344,0,0,1,4.022-1.666h0a6.624,6.624,0,0,1,4.023,1.666c2.152,2.02,3.354,7.784,1.808,11.133h0c1.512,3.288,3.158,6.858,1.036,8.857C1952.564-1088.48,1947.953-1088.218,1947.122-1088.156Z"/><path d="M1951.177-1095.376a.285.285,0,0,0-.4-.028l-3.867,3.354v-9.189a.284.284,0,0,0-.285-.284.284.284,0,0,0-.284.284v4.73l-2.577-2.448a.284.284,0,0,0-.4.011.285.285,0,0,0,.01.4l2.969,2.82v14.11a.285.285,0,0,0,.284.285.285.285,0,0,0,.285-.285v-9.683l4.239-3.677A.285.285,0,0,0,1951.177-1095.376Z"/><path class="b" d="M1947.122-1138.617h0c-.762-.044-5.315-.262-6.724-1.666-2-1.994-.456-5.571,1.32-8.716h0c-1.877-3.333-.708-9.222,1.382-11.275a6.344,6.344,0,0,1,4.022-1.666h0a6.635,6.635,0,0,1,4.023,1.666c2.152,2.02,3.354,7.784,1.808,11.133h0c1.512,3.288,3.158,6.859,1.036,8.858C1952.564-1138.941,1947.953-1138.679,1947.122-1138.617Z"/><path d="M1951.177-1145.837a.284.284,0,0,0-.4-.029l-3.867,3.355v-9.19a.284.284,0,0,0-.285-.284.284.284,0,0,0-.284.284v4.731l-2.577-2.448a.284.284,0,0,0-.4.01.284.284,0,0,0,.01.4l2.969,2.82v14.11a.285.285,0,0,0,.284.285.285.285,0,0,0,.285-.285v-9.682l4.239-3.678A.284.284,0,0,0,1951.177-1145.837Z"/><path class="b" d="M1921.491-1121h0c-.762-.043-5.315-.262-6.724-1.666-2-1.993-.456-5.57,1.32-8.715h0c-1.877-3.333-.709-9.222,1.382-11.275a6.338,6.338,0,0,1,4.022-1.666h0a6.62,6.62,0,0,1,4.022,1.666c2.153,2.02,3.355,7.784,1.809,11.133h0c1.512,3.287,3.158,6.858,1.035,8.857C1926.933-1121.32,1922.322-1121.058,1921.491-1121Z"/><path d="M1925.545-1128.216a.285.285,0,0,0-.4-.028l-3.866,3.354v-9.189a.285.285,0,0,0-.285-.285.285.285,0,0,0-.284.285v4.73l-2.578-2.448a.284.284,0,0,0-.4.011.284.284,0,0,0,.011.4l2.969,2.82v14.11a.284.284,0,0,0,.284.284.285.285,0,0,0,.285-.284v-9.683l4.239-3.678A.284.284,0,0,0,1925.545-1128.216Z"/><path class="b" d="M1931.157-1097.771h0c-.369-.021-2.576-.127-3.259-.807-.97-.967-.221-2.7.64-4.225h0a5.451,5.451,0,0,1,.67-5.465,3.072,3.072,0,0,1,1.949-.807h0a3.211,3.211,0,0,1,1.95.807,5.659,5.659,0,0,1,.876,5.4h0c.733,1.594,1.531,3.325.5,4.294C1933.8-1097.928,1931.56-1097.8,1931.157-1097.771Z"/><path d="M1933.122-1101.27a.137.137,0,0,0-.194-.014l-1.874,1.626v-4.454a.138.138,0,0,0-.138-.138.138.138,0,0,0-.138.138v2.292l-1.249-1.186a.139.139,0,0,0-.2.005.139.139,0,0,0,.005.195l1.439,1.367v6.839a.138.138,0,0,0,.138.138.138.138,0,0,0,.138-.138v-4.693l2.055-1.783A.138.138,0,0,0,1933.122-1101.27Z"/><path class="b" d="M1939.167-1113.79h0c-.369-.022-2.576-.128-3.259-.808-.97-.966-.221-2.7.64-4.224h0a5.452,5.452,0,0,1,.669-5.465,3.073,3.073,0,0,1,1.95-.808h0a3.218,3.218,0,0,1,1.95.808,5.661,5.661,0,0,1,.876,5.4h0c.733,1.593,1.531,3.324.5,4.293C1941.805-1113.948,1939.57-1113.821,1939.167-1113.79Z"/><path d="M1941.132-1117.29a.137.137,0,0,0-.194-.014l-1.874,1.626v-4.454a.138.138,0,0,0-.138-.138.138.138,0,0,0-.138.138v2.293l-1.249-1.187a.138.138,0,0,0-.195.005.138.138,0,0,0,.005.195l1.439,1.367v6.839a.138.138,0,0,0,.138.138.138.138,0,0,0,.138-.138v-4.693l2.054-1.783A.137.137,0,0,0,1941.132-1117.29Z"/><path class="c" d="M2027-1113.846c0,4.429-1.975,7.961-6.4,7.961s-5.6-3.532-5.6-7.961,1.225-10.154,5.654-10.154S2027-1118.275,2027-1113.846Z"/><path d="M2024.232-1111.108a.231.231,0,0,0-.326-.023l-3.137,2.721v-7.455a.23.23,0,0,0-.231-.231.23.23,0,0,0-.23.231v3.838l-2.091-1.986a.232.232,0,0,0-.327.008.231.231,0,0,0,.009.326l2.409,2.288v11.449a.23.23,0,0,0,.23.23.23.23,0,0,0,.231-.23v-7.857l3.44-2.984A.23.23,0,0,0,2024.232-1111.108Z"/><path class="d" d="M2030.563-1139.436l.783,1.776,1.93-.209a1.552,1.552,0,0,1,1.42,2.46l-1.146,1.566,1.146,1.567a1.552,1.552,0,0,1-1.42,2.46l-1.93-.21-.783,1.776a1.552,1.552,0,0,1-2.841,0l-.783-1.776-1.93.21a1.552,1.552,0,0,1-1.42-2.46l1.147-1.567-1.147-1.566a1.552,1.552,0,0,1,1.42-2.46l1.93.209.783-1.776A1.553,1.553,0,0,1,2030.563-1139.436Z"/><path d="M2026.134-1132.414a.194.194,0,0,1,.274-.019l2.638,2.288v-6.269a.194.194,0,0,1,.194-.194.194.194,0,0,1,.194.194v3.227l1.758-1.67a.194.194,0,0,1,.274.007.194.194,0,0,1-.007.275l-2.025,1.923v9.626a.193.193,0,0,1-.194.194.193.193,0,0,1-.194-.194v-6.6l-2.893-2.509A.2.2,0,0,1,2026.134-1132.414Z"/><path class="d" d="M2013.563-1151.436l.783,1.776,1.93-.209a1.552,1.552,0,0,1,1.42,2.46l-1.146,1.566,1.146,1.567a1.552,1.552,0,0,1-1.42,2.46l-1.93-.21-.783,1.776a1.552,1.552,0,0,1-2.841,0l-.783-1.776-1.93.21a1.552,1.552,0,0,1-1.42-2.46l1.147-1.567-1.147-1.566a1.552,1.552,0,0,1,1.42-2.46l1.93.209.783-1.776A1.553,1.553,0,0,1,2013.563-1151.436Z"/><path d="M2009.134-1144.414a.194.194,0,0,1,.274-.019l2.638,2.288v-6.269a.194.194,0,0,1,.194-.194.194.194,0,0,1,.194.194v3.227l1.758-1.67a.194.194,0,0,1,.274.007.194.194,0,0,1-.007.275l-2.025,1.923v9.626a.193.193,0,0,1-.194.194.193.193,0,0,1-.194-.194v-6.6l-2.893-2.509A.2.2,0,0,1,2009.134-1144.414Z"/><path class="e" d="M1977.592-1133.5h-3.6c.818-6.988,8.15-14.186,10.7-16.5h0c-2.552,2.314-9.886,9.514-10.707,16.507h3.6Z"/><path class="e" d="M1984.695-1120.13a10.394,10.394,0,0,1-1.282-.2,10.037,10.037,0,0,0,1.282.2Z"/><path class="e" d="M1980.262-1127.587l-2.032,4.432a13.507,13.507,0,0,1-4.281-8.273,9.58,9.58,0,0,1-.032-1.029h0a9.8,9.8,0,0,0,.032,1.03,13.513,13.513,0,0,0,4.283,8.275l2.033-4.433Z"/><path class="e" d="M1981.083-1126.871l-2.03,4.427h0l2.03-4.426Z"/><path class="e" d="M1983.166-1120.38c-.068-.016-.133-.039-.2-.057C1983.033-1120.419,1983.1-1120.4,1983.166-1120.38Z"/><path class="e" d="M1978.655-1133.025a7.978,7.978,0,0,0,4.145,6,7.98,7.98,0,0,1-4.142-5.995c-.393-4.617,5.086-9.825,6.546-11.125l0,0C1983.743-1142.85,1978.262-1137.641,1978.655-1133.025Z"/><path class="e" d="M1992.727-1134.136l3.44,0v0h-3.436a15.9,15.9,0,0,0-3.513-7.152,32.629,32.629,0,0,0-3.479-3.793l.006-4.874,0,0-.006,4.88a32.529,32.529,0,0,1,3.479,3.793A15.961,15.961,0,0,1,1992.727-1134.136Z"/><path class="e" d="M1996.492-1131.384Z"/><path class="e" d="M1996.367-1133.088h0a11.911,11.911,0,0,1,.128,1.688A11.907,11.907,0,0,0,1996.367-1133.088Z"/><path class="e" d="M1985.744-1120.126h0a11.2,11.2,0,0,0,5.867-1.981h0A11.2,11.2,0,0,1,1985.744-1120.126Z"/><path class="e" d="M1992.816-1132.981c0-.035,0-.071,0-.107h0v.108a7.583,7.583,0,0,1-2.465,5.6l2.12,4.621h0l-2.12-4.621A7.584,7.584,0,0,0,1992.816-1132.981Z"/><rect class="e" width="0.001" height="5.269" transform="translate(1985.74 -1125.395)"/><path class="f" d="M1973.949-1131.428a13.507,13.507,0,0,0,4.281,8.273l2.032-4.432a9.05,9.05,0,0,1-2.59-4.87h-3.755A9.58,9.58,0,0,0,1973.949-1131.428Z"/><path class="g" d="M1973.994-1133.5h3.6c0-2.308,1.145-4.91,3.419-7.75a31.121,31.121,0,0,1,3.68-3.838l.006-4.914C1982.144-1147.69,1974.812-1140.492,1973.994-1133.5Z"/><path class="f" d="M1984.689-1125.4a6.967,6.967,0,0,1-3.6-1.468l-2.029,4.426a10.2,10.2,0,0,0,3.91,2.007c.067.018.132.041.2.057s.165.032.247.05a10.394,10.394,0,0,0,1.282.2Z"/><path class="f" d="M1989.507-1126.708a7.55,7.55,0,0,1-3.769,1.313l.006,5.269a11.2,11.2,0,0,0,5.87-1.981Z"/><path class="f" d="M1989.217-1141.29a15.9,15.9,0,0,1,3.513,7.152h3.436c-1.525-6.777-8.032-13.525-10.422-15.819l-.006,4.874A32.629,32.629,0,0,1,1989.217-1141.29Z"/><path class="h" d="M1978.658-1133.023a7.98,7.98,0,0,0,4.142,5.995,5.345,5.345,0,0,0,2.412.6h0a6.563,6.563,0,0,0,6.552-6.556c0-4.669-5.161-9.847-6.562-11.166C1983.744-1142.848,1978.265-1137.64,1978.658-1133.023Z"/><path class="f" d="M1996.492-1131.4a11.911,11.911,0,0,0-.128-1.688h-3.55c0,.036,0,.072,0,.107a7.584,7.584,0,0,1-2.466,5.6l2.12,4.621a11.251,11.251,0,0,0,4.02-8.622h0Z"/><path class="i" d="M1985.645-1151.487l-.442-.406-.467.454a51.1,51.1,0,0,0-6.244,6.485,31.594,31.594,0,0,0-4.078,6.405,14.428,14.428,0,0,0-1.509,7.208,14.467,14.467,0,0,0,3.89,8.26,11.663,11.663,0,0,0,8.428,4.014,12.332,12.332,0,0,0,12.318-12.318C1997.539-1140.53,1986.749-1150.492,1985.645-1151.487Zm.1,1.527,0,0c2.39,2.294,8.9,9.042,10.422,15.819v0l-3.44,0a15.961,15.961,0,0,0-3.513-7.151,32.529,32.529,0,0,0-3.479-3.793Zm-.539,5.81,0,0c1.4,1.319,6.562,6.5,6.562,11.166a6.563,6.563,0,0,1-6.552,6.556h0a5.345,5.345,0,0,1-2.412-.6,7.978,7.978,0,0,1-4.145-6C1978.262-1137.641,1983.743-1142.85,1985.2-1144.15Zm-.505-5.856h0l-.006,4.914a31.121,31.121,0,0,0-3.68,3.838c-2.274,2.84-3.419,5.442-3.419,7.75v.005h-3.6C1974.811-1140.492,1982.145-1147.692,1984.7-1150.006Zm-10.75,18.578a9.8,9.8,0,0,1-.032-1.03h3.757a9.05,9.05,0,0,0,2.59,4.87h0l-2.033,4.433A13.513,13.513,0,0,1,1973.947-1131.428Zm9.219,11.048c-.068-.016-.133-.039-.2-.057a10.2,10.2,0,0,1-3.91-2.007h0l2.03-4.427h0a6.967,6.967,0,0,0,3.6,1.468l.006,5.272h0a10.037,10.037,0,0,1-1.282-.2C1983.331-1120.348,1983.247-1120.36,1983.166-1120.38Zm2.581.254h-.005l0-5.269h0a7.55,7.55,0,0,0,3.769-1.313l2.107,4.6h0A11.2,11.2,0,0,1,1985.747-1120.126Zm10.745-11.258h0a11.251,11.251,0,0,1-4.02,8.622h0l-2.12-4.621a7.583,7.583,0,0,0,2.465-5.6v-.108h3.554a11.907,11.907,0,0,1,.125,1.688v.016Z"/><path class="j" d="M1988.842-1144.32l.692,1.264a.191.191,0,0,0,.074.075l1.264.692a.185.185,0,0,1,.075.252.193.193,0,0,1-.075.075l-1.264.692a.181.181,0,0,0-.074.074l-.692,1.264a.186.186,0,0,1-.253.074.187.187,0,0,1-.074-.074l-.691-1.264a.181.181,0,0,0-.074-.074l-1.265-.692a.187.187,0,0,1-.074-.253.187.187,0,0,1,.074-.074l1.265-.692a.191.191,0,0,0,.074-.075l.691-1.264a.187.187,0,0,1,.253-.074A.19.19,0,0,1,1988.842-1144.32Z"/><path class="j" d="M1991.272-1140.823l.505.337a.084.084,0,0,0,.043.013l.6.009a.079.079,0,0,1,.077.08.08.08,0,0,1-.013.042l-.337.505a.079.079,0,0,0-.013.042l-.009.6a.079.079,0,0,1-.08.077.083.083,0,0,1-.041-.013l-.506-.337a.079.079,0,0,0-.042-.013l-.6-.009a.078.078,0,0,1-.076-.08.073.073,0,0,1,.012-.041l.337-.506a.072.072,0,0,0,.013-.042l.009-.6a.077.077,0,0,1,.078-.077A.075.075,0,0,1,1991.272-1140.823Z"/><path class="j" d="M1978.682-1130.6l.188.343a.063.063,0,0,0,.02.02l.343.188a.05.05,0,0,1,.02.069.042.042,0,0,1-.02.019l-.343.188a.057.057,0,0,0-.02.021l-.188.343a.05.05,0,0,1-.069.019.044.044,0,0,1-.019-.019l-.188-.343a.057.057,0,0,0-.02-.021l-.344-.188a.049.049,0,0,1-.019-.068.042.042,0,0,1,.019-.02l.344-.188a.063.063,0,0,0,.02-.02l.188-.343a.049.049,0,0,1,.068-.02A.043.043,0,0,1,1978.682-1130.6Z"/><path class="k" d="M2011.139-1102.65h-51.851v-10.6h51.851Z"/><path class="l" d="M1959.525-1113.01v10.124H2010.9v-10.124h-51.378m-.473-.473h52.324v11.07h-52.325Z"/><g class="m"><text class="n" transform="translate(1964.475 -1104.684)"><tspan x="0" y="0">AGUA MARINHA</tspan></text></g><g class="m"><text class="o" transform="translate(1964.19 -1105.015)"><tspan x="0" y="0">AGUA MARINHA</tspan></text></g><g class="m"><text class="p" transform="translate(1964.19 -1105.015)"><tspan x="0" y="0">AGUA MARINHA</tspan></text></g></g></svg>