<svg xmlns="http://www.w3.org/2000/svg" xmlns:xlink="http://www.w3.org/1999/xlink" width="192.548" height="198.315" viewBox="0 0 192.548 198.315"><defs><style>.a{stroke:#3d3d3d;stroke-miterlimit:10;stroke-width:0.5px;opacity:0.94;fill:url(#a);}.b{fill:#35472d;}.c{fill:#91b77d;}.d,.o{fill:none;}.e{fill:#6bbfc7;}.f{fill:#edf7fb;}.g{fill:#bee1e5;}.h{fill:#2188a8;}.i{fill:#fff;}.j{fill:#b2dbdf;}.k,.n{fill:#46a1a6;}.l,.m,.n,.o{isolation:isolate;}.m{fill:#daeff6;}.m,.n,.o{font-size:8.137px;font-family:AgencyFB-Bold, Agency FB;font-weight:700;}.o{stroke:#b2dbdf;stroke-width:0.095px;}</style><linearGradient id="a" y1="0.5" x2="1" y2="0.5" gradientUnits="objectBoundingBox"><stop offset="0.219" stop-color="#4e765c"/><stop offset="1" stop-color="#366043"/></linearGradient></defs><g transform="translate(-1959.948 1460.031)"><path class="a" d="M2019.082-1262.271a1.129,1.129,0,0,1,.578-.129h.78c.043,0,.082.013.124.016A1.991,1.991,0,0,1,2022-1263h129a2.015,2.015,0,0,1,1.24.44c-.25-60.02-1.09-120-2.24-179.44-38.66,9.73-82.85,18.53-118.71,1.12-13.92-6.76-24.97-8.25-39.29-14.12a61.368,61.368,0,0,0-21.52-4.77,41.478,41.478,0,0,0-9.55.85c17.48,5.48,29.27,13.31,35.11,23.34a31.172,31.172,0,0,1,2.1,4.31c.01.04.03.08.04.11,2.47,6.35,2.42,11.99,2.37,17.44-.05,6.25-.11,12.16,3.8,17.85,6.28,9.16,20.98,12.05,44.91,8.85l.37-.08a96.088,96.088,0,0,0,10.98-4.65c4.55-2.15,8.85-4.18,13.75-5.28,13.7-1.93,26.36,4.15,30.82,14.87,4.44,9.61-5.05,16.84-16.03,24.01-.79.52-1.55,1.01-2.26,1.49l-.1.07c-7.46,5.7-15.21,9.89-22.71,13.95-9.74,5.27-18.94,10.24-27.49,18.23a74.7,74.7,0,0,0-11.08,14.67c-.69,1.15-1.37,2.33-2.04,3.55-.76,1.39-1.52,2.81-2.26,4.3-3.96,7.91-4.6,16.67-4.44,22.63.06,1.99.71,7.03,1.19,10.65l.1.74c.12.957.372,3.016.755,5.728A1.1,1.1,0,0,1,2019.082-1262.271Z"/><path class="b" d="M2118.4-1396.822h0c-.952-.055-6.636-.327-8.4-2.08-2.5-2.489-.569-6.955,1.648-10.881h0c-2.343-4.162-.885-11.514,1.725-14.077a7.924,7.924,0,0,1,5.022-2.08h0a8.274,8.274,0,0,1,5.021,2.08c2.688,2.522,4.188,9.718,2.258,13.9h0c1.888,4.105,3.943,8.563,1.293,11.059C2125.19-1397.227,2119.433-1396.9,2118.4-1396.822Z"/><path d="M2123.458-1405.836a.355.355,0,0,0-.5-.036l-4.828,4.188v-11.473a.355.355,0,0,0-.355-.355.355.355,0,0,0-.355.355v5.906l-3.217-3.056a.355.355,0,0,0-.5.013.354.354,0,0,0,.012.5l3.707,3.521v17.616a.355.355,0,0,0,.355.355.355.355,0,0,0,.355-.355v-12.089l5.293-4.592A.355.355,0,0,0,2123.458-1405.836Z"/><path class="b" d="M2134.4-1339.822h0c-.952-.055-6.636-.327-8.4-2.08-2.5-2.489-.569-6.955,1.648-10.881h0c-2.343-4.162-.885-11.514,1.725-14.077a7.924,7.924,0,0,1,5.022-2.08h0a8.274,8.274,0,0,1,5.021,2.08c2.688,2.522,4.188,9.718,2.258,13.9h0c1.888,4.105,3.943,8.563,1.293,11.059C2141.19-1340.227,2135.433-1339.9,2134.4-1339.822Z"/><path d="M2139.458-1348.836a.355.355,0,0,0-.5-.036l-4.828,4.188v-11.473a.355.355,0,0,0-.355-.355.355.355,0,0,0-.355.355v5.906l-3.217-3.056a.355.355,0,0,0-.5.013.354.354,0,0,0,.012.5l3.707,3.521v17.616a.355.355,0,0,0,.355.355.355.355,0,0,0,.355-.355v-12.089l5.293-4.592A.355.355,0,0,0,2139.458-1348.836Z"/><path class="b" d="M2051.4-1296.822h0c-.952-.055-6.636-.327-8.4-2.08-2.5-2.489-.569-6.955,1.648-10.881h0c-2.343-4.162-.885-11.514,1.725-14.077a7.924,7.924,0,0,1,5.022-2.08h0a8.274,8.274,0,0,1,5.021,2.08c2.688,2.522,4.188,9.718,2.258,13.9h0c1.888,4.105,3.943,8.563,1.293,11.059C2058.19-1297.227,2052.433-1296.9,2051.4-1296.822Z"/><path d="M2056.458-1305.836a.355.355,0,0,0-.5-.036l-4.828,4.188v-11.473a.355.355,0,0,0-.355-.355.355.355,0,0,0-.355.355v5.906l-3.217-3.056a.355.355,0,0,0-.5.013.354.354,0,0,0,.012.5l3.707,3.521v17.616a.355.355,0,0,0,.355.355.355.355,0,0,0,.355-.355v-12.089l5.293-4.592A.355.355,0,0,0,2056.458-1305.836Z"/><path class="b" d="M2064.464-1271.827h0c-.461-.026-3.216-.158-4.069-1.008-1.211-1.206-.276-3.371.8-5.274h0a6.807,6.807,0,0,1,.836-6.823,3.842,3.842,0,0,1,2.434-1.008h0a4.012,4.012,0,0,1,2.434,1.008c1.3,1.223,2.03,4.71,1.094,6.737h0c.915,1.99,1.911,4.15.627,5.36C2067.757-1272.023,2064.967-1271.864,2064.464-1271.827Z"/><path d="M2066.917-1276.2a.172.172,0,0,0-.243-.017l-2.339,2.03v-5.561a.172.172,0,0,0-.172-.172.173.173,0,0,0-.173.172v2.863l-1.559-1.482a.172.172,0,0,0-.243.007.171.171,0,0,0,.006.243l1.8,1.706v8.539a.173.173,0,0,0,.173.172.172.172,0,0,0,.172-.172v-5.86l2.565-2.225A.172.172,0,0,0,2066.917-1276.2Z"/><path class="b" d="M2078.464-1324.827h0c-.461-.026-3.216-.158-4.069-1.008-1.211-1.206-.276-3.371.8-5.274h0a6.807,6.807,0,0,1,.836-6.823,3.842,3.842,0,0,1,2.434-1.008h0a4.012,4.012,0,0,1,2.434,1.008c1.3,1.223,2.03,4.71,1.094,6.737h0c.915,1.99,1.911,4.15.627,5.36C2081.757-1325.023,2078.967-1324.864,2078.464-1324.827Z"/><path d="M2080.917-1329.2a.172.172,0,0,0-.243-.017l-2.339,2.03v-5.561a.172.172,0,0,0-.172-.172.173.173,0,0,0-.173.172v2.863l-1.559-1.482a.172.172,0,0,0-.243.007.171.171,0,0,0,.006.243l1.8,1.706v8.539a.173.173,0,0,0,.173.172.172.172,0,0,0,.172-.172v-5.86l2.565-2.225A.172.172,0,0,0,2080.917-1329.2Z"/><path class="b" d="M2067.076-1408.363h0c-.476-.027-3.321-.164-4.2-1.042-1.251-1.245-.285-3.481.825-5.447h0a7.033,7.033,0,0,1,.863-7.047,3.97,3.97,0,0,1,2.514-1.041h0a4.145,4.145,0,0,1,2.514,1.041c1.346,1.263,2.1,4.865,1.131,6.958h0c.945,2.055,1.973,4.287.647,5.536C2070.478-1408.566,2067.6-1408.4,2067.076-1408.363Z"/><path d="M2069.61-1412.876a.177.177,0,0,0-.25-.018l-2.417,2.1v-5.743a.178.178,0,0,0-.178-.178.177.177,0,0,0-.177.178v2.956l-1.611-1.53a.178.178,0,0,0-.252.007.178.178,0,0,0,.007.251l1.856,1.762v8.819a.178.178,0,0,0,.177.178.178.178,0,0,0,.178-.178v-6.051l2.65-2.3A.178.178,0,0,0,2069.61-1412.876Z"/><path class="c" d="M2033.385-1417.114c0,6.929-3.09,12.456-10.019,12.456s-8.755-5.527-8.755-12.456,1.916-15.886,8.846-15.886S2033.385-1424.043,2033.385-1417.114Z"/><path d="M2029.055-1412.83a.361.361,0,0,0-.51-.036l-4.908,4.258v-11.665a.361.361,0,0,0-.361-.361.361.361,0,0,0-.361.361v6l-3.272-3.107a.361.361,0,0,0-.51.013.362.362,0,0,0,.013.511l3.769,3.579v17.912a.361.361,0,0,0,.361.361.361.361,0,0,0,.361-.361v-12.291l5.382-4.669A.362.362,0,0,0,2029.055-1412.83Z"/><path class="d" d="M2099.481-1310.561h-3.6c.818-6.987,8.15-14.186,10.7-16.5h0c-2.552,2.313-9.886,9.514-10.707,16.506h3.6Z"/><path class="d" d="M2106.584-1297.187a10.168,10.168,0,0,1-1.281-.2,10.168,10.168,0,0,0,1.281.2Z"/><path class="d" d="M2102.151-1304.643l-2.032,4.431a13.507,13.507,0,0,1-4.281-8.272,9.923,9.923,0,0,1-.032-1.029h0a10.194,10.194,0,0,0,.032,1.029,13.508,13.508,0,0,0,4.283,8.275l2.033-4.433Z"/><path class="d" d="M2102.973-1303.928l-2.031,4.428h0l2.03-4.426Z"/><path class="d" d="M2105.055-1297.437c-.067-.016-.133-.039-.2-.056C2104.922-1297.475,2104.988-1297.453,2105.055-1297.437Z"/><path class="d" d="M2100.544-1310.081a7.981,7.981,0,0,0,4.145,6,7.974,7.974,0,0,1-4.141-5.995c-.394-4.617,5.085-9.825,6.545-11.125l0,0C2105.632-1319.906,2100.151-1314.7,2100.544-1310.081Z"/><path class="d" d="M2114.616-1311.192l3.44,0v-.005h-3.436a15.893,15.893,0,0,0-3.513-7.151,32.436,32.436,0,0,0-3.478-3.793l.006-4.874,0,0,0,4.88a32.707,32.707,0,0,1,3.478,3.793A15.947,15.947,0,0,1,2114.616-1311.192Z"/><path class="d" d="M2118.382-1308.44Z"/><path class="d" d="M2118.256-1310.145h0a11.947,11.947,0,0,1,.128,1.688A11.98,11.98,0,0,0,2118.256-1310.145Z"/><path class="d" d="M2107.634-1297.182h0a11.2,11.2,0,0,0,5.867-1.981h0A11.2,11.2,0,0,1,2107.634-1297.182Z"/><path class="d" d="M2114.705-1310.038c0-.034,0-.07,0-.107h0v.108a7.582,7.582,0,0,1-2.466,5.6l2.12,4.622,0,0-2.119-4.62A7.585,7.585,0,0,0,2114.705-1310.038Z"/><rect class="d" width="0.001" height="5.269" transform="translate(2107.63 -1302.451)"/><path class="e" d="M2095.838-1308.484a13.507,13.507,0,0,0,4.281,8.272l2.032-4.431a9.054,9.054,0,0,1-2.59-4.87h-3.755A9.923,9.923,0,0,0,2095.838-1308.484Z"/><path class="f" d="M2095.883-1310.561h3.6c0-2.307,1.145-4.909,3.419-7.749a31.121,31.121,0,0,1,3.68-3.838l.006-4.914C2104.033-1324.747,2096.7-1317.548,2095.883-1310.561Z"/><path class="e" d="M2106.579-1302.459a6.966,6.966,0,0,1-3.6-1.467l-2.03,4.425a10.183,10.183,0,0,0,3.91,2.008c.067.017.133.04.2.056.082.02.165.033.248.051a10.168,10.168,0,0,0,1.281.2Z"/><path class="e" d="M2111.4-1303.764a7.558,7.558,0,0,1-3.768,1.313l.006,5.269a11.2,11.2,0,0,0,5.869-1.981Z"/><path class="e" d="M2111.106-1318.346a15.893,15.893,0,0,1,3.513,7.151h3.436c-1.524-6.777-8.032-13.525-10.421-15.818l-.006,4.874A32.436,32.436,0,0,1,2111.106-1318.346Z"/><path class="g" d="M2100.548-1310.08a7.974,7.974,0,0,0,4.141,5.995,5.333,5.333,0,0,0,2.412.6h0a6.561,6.561,0,0,0,6.551-6.555c0-4.67-5.161-9.848-6.562-11.167C2105.633-1319.905,2100.154-1314.7,2100.548-1310.08Z"/><path class="e" d="M2118.381-1308.457a11.947,11.947,0,0,0-.128-1.688H2114.7c0,.037,0,.073,0,.107a7.585,7.585,0,0,1-2.465,5.6l2.119,4.62a11.249,11.249,0,0,0,4.02-8.621h0Z"/><path class="h" d="M2107.534-1328.544l-.441-.405-.468.454a51.079,51.079,0,0,0-6.244,6.484,31.564,31.564,0,0,0-4.078,6.406,14.427,14.427,0,0,0-1.508,7.208,14.455,14.455,0,0,0,3.889,8.259,11.659,11.659,0,0,0,8.429,4.014,12.331,12.331,0,0,0,12.317-12.317C2119.428-1317.586,2108.638-1327.549,2107.534-1328.544Zm.1,1.527,0,0c2.389,2.293,8.9,9.041,10.421,15.818v.005l-3.44,0a15.947,15.947,0,0,0-3.513-7.152,32.707,32.707,0,0,0-3.478-3.793Zm-.539,5.81,0,0c1.4,1.319,6.562,6.5,6.562,11.167a6.561,6.561,0,0,1-6.551,6.555h0a5.333,5.333,0,0,1-2.412-.6,7.981,7.981,0,0,1-4.145-6C2100.151-1314.7,2105.632-1319.906,2107.091-1321.207Zm-.505-5.855h0l-.006,4.914a31.121,31.121,0,0,0-3.68,3.838c-2.274,2.84-3.419,5.442-3.419,7.749v.005h-3.6C2096.7-1317.548,2104.034-1324.749,2106.586-1327.062Zm-10.75,18.577a10.194,10.194,0,0,1-.032-1.029h3.757a9.054,9.054,0,0,0,2.59,4.87h0l-2.033,4.433A13.508,13.508,0,0,1,2095.836-1308.485Zm9.219,11.048c-.067-.016-.133-.038-.2-.056a10.183,10.183,0,0,1-3.91-2.008h0l2.031-4.428,0,0a6.966,6.966,0,0,0,3.6,1.467l0,5.272h0a10.168,10.168,0,0,1-1.281-.2C2105.22-1297.4,2105.137-1297.417,2105.055-1297.437Zm2.581.255h0l0-5.269h0a7.558,7.558,0,0,0,3.768-1.313l2.107,4.6h0A11.2,11.2,0,0,1,2107.636-1297.182Zm10.746-11.258h0a11.249,11.249,0,0,1-4.02,8.621l0,0-2.12-4.622a7.582,7.582,0,0,0,2.466-5.6v-.108h3.553a11.98,11.98,0,0,1,.125,1.688v.016Z"/><path class="i" d="M2110.731-1321.376l.692,1.264a.188.188,0,0,0,.074.074l1.265.692a.187.187,0,0,1,.074.253.187.187,0,0,1-.074.074l-1.265.692a.187.187,0,0,0-.074.074l-.692,1.264a.186.186,0,0,1-.253.075.184.184,0,0,1-.074-.075l-.691-1.264a.187.187,0,0,0-.074-.074l-1.264-.692a.186.186,0,0,1-.075-.253.183.183,0,0,1,.075-.074l1.264-.692a.188.188,0,0,0,.074-.074l.691-1.264a.186.186,0,0,1,.253-.075A.184.184,0,0,1,2110.731-1321.376Z"/><path class="i" d="M2113.161-1317.879l.506.337a.077.077,0,0,0,.042.012l.6.01a.077.077,0,0,1,.077.079.069.069,0,0,1-.013.042l-.337.506a.076.076,0,0,0-.012.042l-.01.6a.077.077,0,0,1-.079.077.078.078,0,0,1-.042-.013l-.506-.337a.075.075,0,0,0-.042-.012l-.6-.01a.077.077,0,0,1-.077-.08.078.078,0,0,1,.013-.041l.337-.506a.078.078,0,0,0,.012-.042l.01-.6a.077.077,0,0,1,.077-.078A.077.077,0,0,1,2113.161-1317.879Z"/><path class="i" d="M2100.572-1307.66l.188.343a.039.039,0,0,0,.02.02l.343.188a.052.052,0,0,1,.02.069.064.064,0,0,1-.02.02l-.343.188a.039.039,0,0,0-.02.02l-.188.343a.052.052,0,0,1-.069.02.056.056,0,0,1-.02-.02l-.188-.343a.047.047,0,0,0-.02-.02l-.343-.188a.051.051,0,0,1-.02-.069.063.063,0,0,1,.02-.02l.343-.188a.047.047,0,0,0,.02-.02l.188-.343a.052.052,0,0,1,.069-.02A.065.065,0,0,1,2100.572-1307.66Z"/><path class="j" d="M2133.029-1279.706h-51.852v-10.6h51.852Z"/><path class="k" d="M2081.414-1290.067v10.124h51.378v-10.124h-51.378m-.473-.473h52.324v11.071h-52.324Z"/><g class="l"><text class="m" transform="translate(2086.363 -1281.741)"><tspan x="0" y="0">AGUA MARINHA</tspan></text></g><g class="l"><text class="n" transform="translate(2086.079 -1282.071)"><tspan x="0" y="0">AGUA MARINHA</tspan></text></g><g class="l"><text class="o" transform="translate(2086.079 -1282.071)"><tspan x="0" y="0">AGUA MARINHA</tspan></text></g></g></svg>