<svg xmlns="http://www.w3.org/2000/svg" xmlns:xlink="http://www.w3.org/1999/xlink" width="234.221" height="64.552" viewBox="0 0 234.221 64.552"><defs><style>.a{stroke:#3d3d3d;stroke-miterlimit:10;stroke-width:0.5px;opacity:0.94;fill:url(#a);}.b{fill:#35472d;}.c{fill:#91b77d;}.d{fill:#336d15;}.e,.p{fill:none;}.f{fill:#6bbfc7;}.g{fill:#edf7fb;}.h{fill:#bee1e5;}.i{fill:#2188a8;}.j{fill:#fff;}.k{fill:#b2dbdf;}.l,.o{fill:#46a1a6;}.m,.n,.o,.p{isolation:isolate;}.n{fill:#daeff6;}.n,.o,.p{font-size:8.137px;font-family:AgencyFB-Bold, Agency FB;font-weight:700;}.p{stroke:#b2dbdf;stroke-width:0.095px;}</style><linearGradient id="a" y1="0.5" x2="1" y2="0.5" gradientUnits="objectBoundingBox"><stop offset="0.219" stop-color="#4e765c"/><stop offset="1" stop-color="#366043"/></linearGradient></defs><g transform="translate(-1916.923 1112.302)"><path class="a" d="M2150.89-1085.46c-.03,1.35-.05,2.7-.08,4.05q-.36,16.725-.81,33.41H1955.42c-13.43-8.71-24.46-18.48-32.88-29.05q-2.685-3.39-5.03-6.88a2.056,2.056,0,0,1,.41.16c23.39,12.14,44.43,15.79,62.55,10.84,13.62-3.72,24.21-11.75,34.45-19.52,13.85-10.51,26.93-20.43,46.17-19.55a53.4,53.4,0,0,1,8.22,1.04,57.874,57.874,0,0,1,12.53,4.14,1.355,1.355,0,0,1,.26.15c18.31,11.64,44.81,17.12,55.63,18.97l.11.16-.09-.15c2.28.39,3.88.63,4.55.72l.92.16h.02Z"/><path class="b" d="M2128.5-1056.171h0c.646-.037,4.505-.222,5.7-1.413,1.7-1.689.386-4.721-1.119-7.387h0c1.591-2.825.6-7.817-1.171-9.557a5.381,5.381,0,0,0-3.41-1.412h0a5.624,5.624,0,0,0-3.409,1.412c-1.825,1.712-2.843,6.6-1.533,9.437h0c-1.282,2.786-2.677,5.813-.878,7.507C2123.89-1056.446,2127.8-1056.224,2128.5-1056.171Z"/><path d="M2125.066-1062.291a.241.241,0,0,1,.34-.024l3.277,2.843v-7.789a.241.241,0,0,1,.241-.241.241.241,0,0,1,.241.241v4.009l2.185-2.074a.24.24,0,0,1,.34.008.241.241,0,0,1-.008.341l-2.517,2.39v11.96a.241.241,0,0,1-.241.242.241.241,0,0,1-.241-.242v-8.207l-3.593-3.117A.24.24,0,0,1,2125.066-1062.291Z"/><path class="c" d="M2086-1076.7c0,7.112,3.171,12.784,10.283,12.784s8.985-5.672,8.985-12.784-1.966-16.3-9.078-16.3S2086-1083.807,2086-1076.7Z"/><path d="M2090.445-1072.3a.37.37,0,0,1,.522-.037l5.038,4.371v-11.972a.371.371,0,0,1,.37-.371.371.371,0,0,1,.371.371v6.162l3.357-3.189a.371.371,0,0,1,.524.014.371.371,0,0,1-.013.524l-3.868,3.674v18.382a.371.371,0,0,1-.371.371.371.371,0,0,1-.37-.371v-12.614l-5.523-4.792A.371.371,0,0,1,2090.445-1072.3Z"/><path class="d" d="M2010.427-1077.2l.983,2.232,2.424-.264a1.95,1.95,0,0,1,1.785,3.09l-1.441,1.968,1.441,1.967a1.95,1.95,0,0,1-1.785,3.09l-2.424-.263-.983,2.231a1.95,1.95,0,0,1-3.568,0l-.984-2.231-2.424.263a1.95,1.95,0,0,1-1.784-3.09l1.44-1.967-1.44-1.968a1.95,1.95,0,0,1,1.784-3.09l2.424.264.984-2.232A1.95,1.95,0,0,1,2010.427-1077.2Z"/><path d="M2004.864-1068.379a.244.244,0,0,1,.343-.024l3.314,2.874v-7.874a.244.244,0,0,1,.243-.244.244.244,0,0,1,.244.244v4.054l2.209-2.1a.242.242,0,0,1,.344.009.242.242,0,0,1-.009.344l-2.544,2.417v12.091a.244.244,0,0,1-.244.244.244.244,0,0,1-.243-.244v-8.3l-3.633-3.152A.243.243,0,0,1,2004.864-1068.379Z"/><path class="b" d="M1986.475-1055.173h0c.45-.026,3.137-.155,3.969-.984,1.181-1.176.269-3.288-.779-5.144h0a6.639,6.639,0,0,0-.816-6.655,3.742,3.742,0,0,0-2.374-.984h0a3.912,3.912,0,0,0-2.374.984c-1.271,1.192-1.98,4.594-1.068,6.571h0c-.892,1.941-1.864,4.048-.611,5.228C1983.263-1055.364,1985.984-1055.21,1986.475-1055.173Z"/><path d="M1984.082-1059.435a.168.168,0,0,1,.236-.017l2.283,1.98v-5.424a.168.168,0,0,1,.168-.168.168.168,0,0,1,.168.168v2.792l1.521-1.445a.167.167,0,0,1,.237.006.169.169,0,0,1-.006.238l-1.752,1.664v8.329a.168.168,0,0,1-.168.168.168.168,0,0,1-.168-.168v-5.715l-2.5-2.171A.168.168,0,0,1,1984.082-1059.435Z"/><path class="e" d="M2048.075-1088.091h-3.6c.818-6.988,8.15-14.186,10.7-16.5h0c-2.552,2.314-9.886,9.514-10.707,16.507h3.6Z"/><path class="e" d="M2055.178-1074.717a10.357,10.357,0,0,1-1.281-.2,10.357,10.357,0,0,0,1.281.2Z"/><path class="e" d="M2050.745-1082.174l-2.032,4.432a13.508,13.508,0,0,1-4.281-8.273,9.771,9.771,0,0,1-.032-1.029h0a10.079,10.079,0,0,0,.032,1.029,13.513,13.513,0,0,0,4.283,8.276l2.033-4.433Z"/><path class="e" d="M2051.567-1081.458l-2.031,4.427h0l2.03-4.426Z"/><path class="e" d="M2053.649-1074.967c-.067-.017-.133-.039-.2-.057C2053.516-1075.006,2053.582-1074.984,2053.649-1074.967Z"/><path class="e" d="M2049.138-1087.612a7.982,7.982,0,0,0,4.145,6,7.976,7.976,0,0,1-4.141-5.995c-.394-4.618,5.085-9.825,6.545-11.125l0,0C2054.226-1097.437,2048.745-1092.228,2049.138-1087.612Z"/><path class="e" d="M2063.21-1088.723l3.44,0v-.005h-3.436a15.9,15.9,0,0,0-3.513-7.152,32.514,32.514,0,0,0-3.478-3.793l.006-4.874,0,0-.006,4.88a32.55,32.55,0,0,1,3.479,3.793A15.949,15.949,0,0,1,2063.21-1088.723Z"/><path class="e" d="M2066.976-1085.971Z"/><path class="e" d="M2066.85-1087.675h0a11.948,11.948,0,0,1,.128,1.688A11.981,11.981,0,0,0,2066.85-1087.675Z"/><path class="e" d="M2056.228-1074.713h0a11.2,11.2,0,0,0,5.867-1.981h0A11.193,11.193,0,0,1,2056.228-1074.713Z"/><path class="e" d="M2063.3-1087.568c0-.035,0-.071,0-.107h0v.108a7.584,7.584,0,0,1-2.466,5.6l2.12,4.621,0,0-2.119-4.62A7.583,7.583,0,0,0,2063.3-1087.568Z"/><rect class="e" width="0.001" height="5.269" transform="translate(2056.224 -1079.982)"/><path class="f" d="M2044.432-1086.015a13.508,13.508,0,0,0,4.281,8.273l2.032-4.432a9.053,9.053,0,0,1-2.59-4.87H2044.4A9.771,9.771,0,0,0,2044.432-1086.015Z"/><path class="g" d="M2044.477-1088.091h3.6c0-2.308,1.145-4.91,3.419-7.75a31.113,31.113,0,0,1,3.68-3.838l.006-4.914C2052.627-1102.277,2045.3-1095.079,2044.477-1088.091Z"/><path class="f" d="M2055.173-1079.989a6.959,6.959,0,0,1-3.6-1.468l-2.03,4.426a10.2,10.2,0,0,0,3.91,2.007c.067.018.133.04.2.057.082.02.165.032.248.05a10.357,10.357,0,0,0,1.281.2Z"/><path class="f" d="M2059.99-1081.3a7.548,7.548,0,0,1-3.768,1.313l.006,5.269a11.193,11.193,0,0,0,5.869-1.981Z"/><path class="f" d="M2059.7-1095.877a15.9,15.9,0,0,1,3.513,7.152h3.436c-1.524-6.777-8.032-13.525-10.421-15.819l-.006,4.874A32.514,32.514,0,0,1,2059.7-1095.877Z"/><path class="h" d="M2049.142-1087.61a7.976,7.976,0,0,0,4.141,5.995,5.346,5.346,0,0,0,2.412.6h0a6.562,6.562,0,0,0,6.551-6.556c0-4.669-5.161-9.847-6.562-11.166C2054.227-1097.435,2048.748-1092.228,2049.142-1087.61Z"/><path class="f" d="M2066.975-1085.987a11.948,11.948,0,0,0-.128-1.688h-3.55c0,.036,0,.072,0,.107a7.583,7.583,0,0,1-2.465,5.6l2.119,4.62a11.246,11.246,0,0,0,4.02-8.621h0Z"/><path class="i" d="M2056.128-1106.074l-.441-.406-.468.454a51.218,51.218,0,0,0-6.244,6.484,31.623,31.623,0,0,0-4.078,6.406,14.428,14.428,0,0,0-1.508,7.208,14.46,14.46,0,0,0,3.889,8.26,11.663,11.663,0,0,0,8.429,4.014,12.332,12.332,0,0,0,12.317-12.318C2068.022-1095.117,2057.232-1105.079,2056.128-1106.074Zm.1,1.527,0,0c2.389,2.294,8.9,9.042,10.421,15.819v.005l-3.44,0a15.949,15.949,0,0,0-3.513-7.151,32.55,32.55,0,0,0-3.479-3.793Zm-.539,5.81,0,0c1.4,1.319,6.562,6.5,6.562,11.166a6.562,6.562,0,0,1-6.551,6.556h0a5.346,5.346,0,0,1-2.412-.6,7.982,7.982,0,0,1-4.145-6C2048.745-1092.228,2054.226-1097.437,2055.685-1098.737Zm-.505-5.856h0l-.006,4.914a31.113,31.113,0,0,0-3.68,3.838c-2.274,2.84-3.419,5.442-3.419,7.75v0h-3.6C2045.294-1095.079,2052.628-1102.279,2055.18-1104.593Zm-10.75,18.577a10.079,10.079,0,0,1-.032-1.029h3.757a9.053,9.053,0,0,0,2.59,4.87h0l-2.033,4.433A13.513,13.513,0,0,1,2044.43-1086.016Zm9.219,11.049c-.067-.017-.133-.039-.2-.057a10.2,10.2,0,0,1-3.91-2.007h0l2.031-4.427h0a6.959,6.959,0,0,0,3.6,1.468l0,5.272h0a10.357,10.357,0,0,1-1.281-.2C2053.814-1074.935,2053.731-1074.947,2053.649-1074.967Zm2.581.254h0l0-5.269h0a7.548,7.548,0,0,0,3.768-1.313l2.107,4.6h0A11.2,11.2,0,0,1,2056.23-1074.713Zm10.746-11.258h0a11.246,11.246,0,0,1-4.02,8.621l0,0-2.12-4.621a7.584,7.584,0,0,0,2.466-5.6v-.108h3.553a11.981,11.981,0,0,1,.125,1.688v.016Z"/><path class="j" d="M2059.325-1098.907l.692,1.264a.19.19,0,0,0,.074.075l1.265.692a.186.186,0,0,1,.074.252.19.19,0,0,1-.074.075l-1.265.692a.182.182,0,0,0-.074.074l-.692,1.264a.186.186,0,0,1-.253.074.188.188,0,0,1-.074-.074l-.691-1.264a.182.182,0,0,0-.074-.074l-1.264-.692a.187.187,0,0,1-.075-.253.177.177,0,0,1,.075-.074l1.264-.692a.19.19,0,0,0,.074-.075l.691-1.264a.187.187,0,0,1,.253-.074A.187.187,0,0,1,2059.325-1098.907Z"/><path class="j" d="M2061.755-1095.41l.506.337a.077.077,0,0,0,.042.013l.6.009a.078.078,0,0,1,.077.08.066.066,0,0,1-.013.041l-.337.506a.078.078,0,0,0-.012.042l-.01.6a.077.077,0,0,1-.079.077.087.087,0,0,1-.042-.013l-.506-.337a.077.077,0,0,0-.042-.013l-.6-.009a.078.078,0,0,1-.077-.08.081.081,0,0,1,.013-.042l.337-.505a.079.079,0,0,0,.012-.042l.01-.6a.076.076,0,0,1,.077-.077A.069.069,0,0,1,2061.755-1095.41Z"/><path class="j" d="M2049.166-1085.19l.187.343a.056.056,0,0,0,.021.02l.343.188a.052.052,0,0,1,.02.069.053.053,0,0,1-.02.019l-.343.188a.057.057,0,0,0-.021.02l-.187.344a.051.051,0,0,1-.069.019.046.046,0,0,1-.02-.019l-.188-.344a.063.063,0,0,0-.02-.02l-.343-.188a.05.05,0,0,1-.02-.068.043.043,0,0,1,.02-.02l.343-.188a.062.062,0,0,0,.02-.02l.188-.343a.05.05,0,0,1,.069-.02A.048.048,0,0,1,2049.166-1085.19Z"/><path class="k" d="M2081.623-1057.237h-51.852v-10.6h51.852Z"/><path class="l" d="M2030.008-1067.6v10.124h51.378V-1067.6h-51.378m-.473-.473h52.324V-1057h-52.324Z"/><g class="m"><text class="n" transform="translate(2034.957 -1059.271)"><tspan x="0" y="0">AGUA MARINHA</tspan></text></g><g class="m"><text class="o" transform="translate(2034.674 -1059.602)"><tspan x="0" y="0">AGUA MARINHA</tspan></text></g><g class="m"><text class="p" transform="translate(2034.674 -1059.602)"><tspan x="0" y="0">AGUA MARINHA</tspan></text></g></g></svg>