<svg xmlns="http://www.w3.org/2000/svg" xmlns:xlink="http://www.w3.org/1999/xlink" width="105.572" height="69.731" viewBox="0 0 105.572 69.731">
  <defs>
    <linearGradient id="linear-gradient" x1="0.157" y1="0.251" x2="0.933" y2="0.83" gradientUnits="objectBoundingBox">
      <stop offset="0.307" stop-color="#e29abd"/>
      <stop offset="0.98" stop-color="#00a874"/>
    </linearGradient>
    <linearGradient id="linear-gradient-2" x1="-0.07" y1="0.055" x2="1.07" y2="0.945" gradientUnits="objectBoundingBox">
      <stop offset="0.307" stop-color="#d9abbe"/>
      <stop offset="0.98" stop-color="#00a874"/>
    </linearGradient>
    <linearGradient id="linear-gradient-3" x1="0.123" y1="0.282" x2="0.895" y2="0.859" gradientUnits="objectBoundingBox">
      <stop offset="0.307" stop-color="#d47da3"/>
      <stop offset="0.98" stop-color="#00a874"/>
    </linearGradient>
  </defs>
  <g id="Grupo_1928" data-name="Grupo 1928" transform="translate(-195.3 -593.308)">
    <g id="Grupo_1520" data-name="Grupo 1520" transform="translate(-0.05 -58.595)">
      <g id="Grupo_1381" data-name="Grupo 1381">
        <g id="Caminho_260" data-name="Caminho 260">
          <path id="Caminho_2210" data-name="Caminho 2210" d="M214.86,707.936v8.39q-2.946-.162-5.81-.362-3.293-.228-6.49-.5c-1.314-.109-2.611-.225-3.9-.345a3.578,3.578,0,0,1-3.2-2.992c-.2-1.257,1.888-2.515,1.836-4.022-.069-2.107-2.17-4.158-1.929-5.842a3.558,3.558,0,0,1,3.87-3.019q2.568.242,5.205.46c1.282.109,2.574,0,3.851.156a6.5,6.5,0,0,1,3.527,1.661,8.817,8.817,0,0,1,2.151,2.663,7.885,7.885,0,0,1,.46,1.084A8.149,8.149,0,0,1,214.86,707.936Z" fill="#e8efef"/>
        </g>
        <g id="Caminho_260-2" data-name="Caminho 260-2">
          <path id="Caminho_2211" data-name="Caminho 2211" d="M281.412,706.7v8.39q2.945-.16,5.809-.361,3.3-.228,6.49-.5c1.314-.108,2.611-.225,3.9-.345a3.574,3.574,0,0,0,3.2-2.991c.2-1.257-1.888-2.514-1.833-4.023.066-2.106,2.17-4.159,1.927-5.84a3.557,3.557,0,0,0-3.868-3.019q-2.569.242-5.206.46c-1.282.108-2.574,0-3.851.157a6.508,6.508,0,0,0-3.527,1.661,8.8,8.8,0,0,0-2.151,2.663,8.023,8.023,0,0,0-.887,3.749Z" fill="#e8efef"/>
        </g>
        <g id="Caminho_260-3" data-name="Caminho 260-3">
          <path id="Caminho_261" data-name="Caminho 261" d="M291.226,716.742a3.582,3.582,0,0,1-3.212,3.026c-12.034,1.125-25.2,1.849-39.335,1.866-14.551.018-28.073-.711-40.4-1.869a3.577,3.577,0,0,1-3.2-2.99,32.5,32.5,0,0,1-.092-9.863,3.563,3.563,0,0,1,3.877-3.021c12.087,1.145,25.344,1.866,39.611,1.856,14.023-.01,27.064-.726,38.977-1.853A3.578,3.578,0,0,1,291.326,707a34.032,34.032,0,0,1-.1,9.74Z" fill="#f5f2f7"/>
        </g>
        <g id="Caminho_260-4" data-name="Caminho 260-4">
          <path id="Caminho_261-2" data-name="Caminho 261-2" d="M291.226,716.742a3.582,3.582,0,0,1-3.212,3.026c-12.034,1.125-25.2,1.849-39.335,1.866-14.551.018-28.073-.711-40.4-1.869a3.577,3.577,0,0,1-3.2-2.99,32.5,32.5,0,0,1-.092-9.863,3.563,3.563,0,0,1,3.877-3.021c12.087,1.145,25.344,1.866,39.611,1.856,14.023-.01,27.064-.726,38.977-1.853A3.578,3.578,0,0,1,291.326,707a34.032,34.032,0,0,1-.1,9.74Z" fill="#f2f4f4"/>
        </g>
        <g id="Grupo_1380" data-name="Grupo 1380">
          <g id="Grupo_1379" data-name="Grupo 1379">
            <path id="Caminho_2212" data-name="Caminho 2212" d="M213.277,716.408a.678.678,0,0,1-.6-.329.7.7,0,0,1,.059-.706l3.015-5.579a1.266,1.266,0,0,1,.424-.483.89.89,0,0,1,.535-.125.873.873,0,0,1,.512.194,1.169,1.169,0,0,1,.346.534l2.26,5.935a.724.724,0,0,1-.034.716.634.634,0,0,1-.6.243.8.8,0,0,1-.528-.2,1.362,1.362,0,0,1-.3-.535l-.365-1.015-3.376-.228-.49.957a1.492,1.492,0,0,1-.362.5A.719.719,0,0,1,213.277,716.408Zm3.3-5.438-1.323,2.653,2.318.158-.977-2.809Z" fill="#373737"/>
            <path id="Caminho_2213" data-name="Caminho 2213" d="M221.6,716.847a.728.728,0,0,1-.769-.854l.3-5.641a.824.824,0,0,1,.237-.59.8.8,0,0,1,.6-.179.709.709,0,0,1,.764.651.721.721,0,0,1-.013.2l-.272,5.107,2.752.143a.685.685,0,0,1,.1,1.357.588.588,0,0,1-.167-.01Z" fill="#373737"/>
            <path id="Caminho_2214" data-name="Caminho 2214" d="M227.5,717.141a.735.735,0,0,1-.807-.656.726.726,0,0,1,.008-.208l.225-5.582a.735.735,0,0,1,.657-.806.767.767,0,0,1,.208.008l3.588.144a.633.633,0,0,1,.108,1.25.564.564,0,0,1-.159-.007l-2.9-.116-.068,1.695,2.661.108a.559.559,0,0,1,.617.492.572.572,0,0,1-.005.16.561.561,0,0,1-.662.6l-2.663-.107-.072,1.809,2.9.116a.55.55,0,0,1,.607.487.575.575,0,0,1,0,.155.557.557,0,0,1-.5.608.538.538,0,0,1-.155-.007Z" fill="#373737"/>
            <path id="Caminho_2215" data-name="Caminho 2215" d="M233.272,717.453a.781.781,0,0,1-.5-.178.626.626,0,0,1-.222-.428.735.735,0,0,1,.181-.52l2.074-2.6-1.846-2.6a.751.751,0,0,1-.16-.534.652.652,0,0,1,.237-.417.74.74,0,0,1,.509-.155,1.034,1.034,0,0,1,.818.535l1.388,2.034,1.482-1.958a1.546,1.546,0,0,1,.4-.376.827.827,0,0,1,.456-.111.766.766,0,0,1,.5.178.626.626,0,0,1,.222.427.762.762,0,0,1-.189.532l-1.991,2.5,1.925,2.706a.74.74,0,0,1,.165.531.6.6,0,0,1-.236.415.869.869,0,0,1-.958.017,1.628,1.628,0,0,1-.384-.41l-1.457-2.109-1.556,2.029a1.455,1.455,0,0,1-.4.389A.808.808,0,0,1,233.272,717.453Z" fill="#373737"/>
            <path id="Caminho_2216" data-name="Caminho 2216" d="M239.9,717.613a.679.679,0,0,1-.615-.3.715.715,0,0,1,.018-.709l2.7-5.741a1.253,1.253,0,0,1,.4-.5.9.9,0,0,1,.526-.154.906.906,0,0,1,.523.165,1.213,1.213,0,0,1,.375.514l2.589,5.8a.73.73,0,0,1,.008.717.642.642,0,0,1-.586.275.811.811,0,0,1-.538-.172,1.342,1.342,0,0,1-.328-.519l-.421-.991-3.384-.038-.432.983a1.491,1.491,0,0,1-.336.515A.71.71,0,0,1,239.9,717.613ZM242.886,712l-1.172,2.724,2.325.026L242.907,712Z" fill="#373737"/>
            <path id="Caminho_2217" data-name="Caminho 2217" d="M248.167,717.686c-.492,0-.741-.251-.75-.766l-.03-5.864a.846.846,0,0,1,.187-.6.672.672,0,0,1,.508-.209.732.732,0,0,1,.423.107,1.8,1.8,0,0,1,.351.352l3.354,4.232-.02-3.949a.753.753,0,0,1,1.483-.2.653.653,0,0,1,0,.182l.03,5.935a.787.787,0,0,1-.172.542.6.6,0,0,1-.472.2.839.839,0,0,1-.459-.111,1.745,1.745,0,0,1-.365-.358l-3.354-4.231.02,3.95Q248.908,717.684,248.167,717.686Z" fill="#373737"/>
            <path id="Caminho_2218" data-name="Caminho 2218" d="M255.967,717.529a.736.736,0,0,1-.847-.607.717.717,0,0,1,0-.207l-.125-5.583a.738.738,0,0,1,.816-.852l2-.044a4.081,4.081,0,0,1,2.89.876,4.038,4.038,0,0,1,.115,5.364,4.06,4.06,0,0,1-2.849,1.008Zm.733-1.322,1.153-.024a2.363,2.363,0,0,0,.477-4.653,2.08,2.08,0,0,0-.579.013l-1.151.025Z" fill="#373737"/>
            <path id="Caminho_2219" data-name="Caminho 2219" d="M263.878,717.425a.778.778,0,0,1-.6-.194.842.842,0,0,1-.23-.6l-.215-5.7a.721.721,0,0,1,.582-.837.711.711,0,0,1,.2-.008l2.5-.092a2.721,2.721,0,0,1,1.894.515,2.082,2.082,0,0,1,.718,1.61,2.152,2.152,0,0,1-.365,1.367,2.1,2.1,0,0,1-1.161.781,1.554,1.554,0,0,1,.924.757l.682,1.159a.819.819,0,0,1,.11.721q-.126.34-.637.359a.978.978,0,0,1-.56-.125,1.141,1.141,0,0,1-.387-.429l-1.055-1.784a.845.845,0,0,0-.4-.375,1.3,1.3,0,0,0-.539-.082l-.781.028.078,2.076a.851.851,0,0,1-.179.613A.768.768,0,0,1,263.878,717.425Zm.638-4.081,1.43-.054q1.287-.047,1.251-1.075t-1.322-.971l-1.43.053Z" fill="#373737"/>
            <path id="Caminho_2220" data-name="Caminho 2220" d="M271.044,717.127a.793.793,0,0,1-.607-.187.85.85,0,0,1-.234-.6l-.28-5.784a.718.718,0,0,1,.556-.849.736.736,0,0,1,.2-.013.715.715,0,0,1,.826.582.76.76,0,0,1,.006.2l.281,5.785a.713.713,0,0,1-.752.861Z" fill="#373737"/>
            <path id="Caminho_2221" data-name="Caminho 2221" d="M275.774,716.875a.794.794,0,0,1-.608-.18.85.85,0,0,1-.242-.6l-.3-5.2-1.817.106a.587.587,0,0,1-.7-.452.616.616,0,0,1-.011-.166.587.587,0,0,1,.464-.688.578.578,0,0,1,.161-.008l5.229-.3a.586.586,0,0,1,.694.452.571.571,0,0,1,.01.165.586.586,0,0,1-.463.688.626.626,0,0,1-.162.009l-1.818.105.3,5.2a.864.864,0,0,1-.167.617A.766.766,0,0,1,275.774,716.875Z" fill="#373737"/>
            <path id="Caminho_2222" data-name="Caminho 2222" d="M279.141,716.676a.678.678,0,0,1-.637-.243.7.7,0,0,1-.039-.709l2.212-5.943a1.247,1.247,0,0,1,.353-.535.874.874,0,0,1,.512-.2.9.9,0,0,1,.534.125,1.188,1.188,0,0,1,.416.481l3.061,5.568a.724.724,0,0,1,.065.711.635.635,0,0,1-.559.323.8.8,0,0,1-.55-.125,1.345,1.345,0,0,1-.376-.489l-.5-.953-3.377.24-.351,1.017a1.493,1.493,0,0,1-.29.541A.7.7,0,0,1,279.141,716.676Zm2.51-5.842-.943,2.812,2.319-.167-1.355-2.646Z" fill="#373737"/>
          </g>
        </g>
      </g>
    </g>
    <g id="Grupo_1927" data-name="Grupo 1927" transform="translate(3552.642 3759.241)">
      <path id="Caminho_1802" data-name="Caminho 1802" d="M-3298.715-3151.9v.012a.133.133,0,0,1-.025.065l-.516.774a.1.1,0,0,0-.014.065l-.012.917a.129.129,0,0,1-.129.129.126.126,0,0,1-.065-.026l-.75-.49v-.012l-.025-.014a.1.1,0,0,0-.065-.012l-.878-.025h-.037c-.065,0-.13-.052-.117-.117v-.013a.085.085,0,0,1,.012-.052l.014-.025.49-.736.012-.012a.215.215,0,0,0,.026-.065l.012-.929a.116.116,0,0,1,.116-.116.1.1,0,0,1,.065.012l.774.517c.026.012.039.025.065.025l.929.014a.116.116,0,0,1,.116.115Z" transform="translate(5.26 3.298)" fill="#fff"/>
      <g id="Grupo_1377" data-name="Grupo 1377" transform="translate(-3315.395 -3156.222)">
        <path id="Caminho_2209" data-name="Caminho 2209" d="M-3295.174-3140.872c0-.065-.014-.116-.014-.181-.012-.1-.026-.206-.039-.3s-.025-.169-.039-.259c-.024-.194-.063-.4-.1-.594a16.631,16.631,0,0,0-1.252-3.781c-.09-.219-.206-.438-.309-.658-.22-.464-.451-.9-.709-1.342-.127-.22-.257-.451-.4-.683-.167-.285-.336-.556-.5-.813-.046-.072-.094-.143-.14-.216-.333-.494-.682-.99-1.054-1.5v-.02l-.007-.01.3-.53a.262.262,0,0,1,.116-.116l.065-.039.709-.387,1.162-.633a.468.468,0,0,0,.115-.116.309.309,0,0,0-.115-.387l-1.937-1.058a.256.256,0,0,1-.116-.116l-1.059-1.935a.3.3,0,0,0-.116-.1.287.287,0,0,0-.387.1l-.4.748-.414.748-.244.439a.255.255,0,0,1-.116.116l-.14.078.005.005h-.012c-.1-.116-.195-.227-.294-.335-.05-.053-.1-.107-.152-.158a2.5,2.5,0,0,0-.245-.284l-.567-.606c-.246-.244-.479-.49-.711-.736l-.319-.32c-.309-.309-.594-.567-.813-.787l-.284-.258-.257-.246v-.012l-.556.489c-.542.491-1.342,1.227-2.258,2.168a4.851,4.851,0,0,0-.348.374,4.514,4.514,0,0,0-.362.362c-.245.258-.49.529-.736.8l-.581.658c-.451.529-.916,1.1-1.368,1.675a4.985,4.985,0,0,0-.319.439,2.771,2.771,0,0,0-.167.232,3.283,3.283,0,0,0-.207.272c-.129.167-.245.335-.362.516a4.9,4.9,0,0,0-.36.529c-.091.128-.168.258-.246.388a.526.526,0,0,0-.1.142l-.04.08c-.025.013-.025.038-.037.064a3.005,3.005,0,0,0-.168.271.8.8,0,0,0-.091.13c-.18.309-.362.632-.529.943a2.007,2.007,0,0,0-.13.219c-.141.283-.3.559-.413.838-.013.013-.013.027-.025.053-.026.063-.065.128-.091.193-.283.618-.515,1.226-.718,1.82-.013.026-.013.051-.025.08a1.034,1.034,0,0,0-.052.193l-.039.117a3.154,3.154,0,0,0-.1.361,2.614,2.614,0,0,0-.09.335c0,.026-.013.052-.013.08-.04.168-.08.319-.1.479a7.61,7.61,0,0,0-.128.762c0,.039-.014.08-.014.116v.065a4.185,4.185,0,0,0-.05.683c0,.08-.014.155-.014.232s-.014.168-.014.245v.8a13.868,13.868,0,0,0,.559,2.444c.146.4.408.975.62,1.51a5.076,5.076,0,0,0,.219.479l-.1.193a.027.027,0,0,1-.025.026l-.516.271-.012.014c-.014.012-.027.026-.027.039l0,.01a.069.069,0,0,0,.032.094l.155.08.374.206c.012.014.025.026.025.039l.3.516c0,.012.014.026.027.039a.08.08,0,0,0,.1-.039l.271-.49a12.675,12.675,0,0,0,1.845,2.246l.413.413.787.631a9.828,9.828,0,0,0,2.3,1.357l.271.117h.012a5.029,5.029,0,0,0,.479.167,5.586,5.586,0,0,0,.672.195,6.872,6.872,0,0,0,1.368.244,1.463,1.463,0,0,0,.244.025l.465.052v-.025l.452-.028a2.489,2.489,0,0,0,.319-.012,6.091,6.091,0,0,0,.685-.08,6.712,6.712,0,0,0,.735-.116,12.935,12.935,0,0,0,1.382-.387,10.29,10.29,0,0,0,1.38-.595c.181-.09.349-.18.516-.283a9.1,9.1,0,0,0,1.02-.672l.413-.283-.014-.026.052-.051a7.027,7.027,0,0,0,.736-.658,4.977,4.977,0,0,0,.438-.49,12.237,12.237,0,0,0,1.277-1.769,10.758,10.758,0,0,0,1.085-2.646c.048-.179.09-.348.129-.529s.077-.4.116-.593a9.592,9.592,0,0,0,.128-1.639v-.08c0-.207-.012-.413-.025-.62Zm-12.914,11.283a9.574,9.574,0,0,0,1.368.246A6.806,6.806,0,0,1-3308.088-3129.589Zm9.756-2.89a7.5,7.5,0,0,1-.736.658l.386-.349h0a11.139,11.139,0,0,0,.785-.8A5.293,5.293,0,0,1-3298.333-3132.479Zm3.046-6.027a11.49,11.49,0,0,0,.115-1.64h.014A9.918,9.918,0,0,1-3295.286-3138.506Zm.115-1.717-.012-.619c.012.206.026.413.026.619Z" transform="translate(3316.831 3158.146)" fill="url(#linear-gradient)"/>
      </g>
      <g id="Grupo_997" data-name="Grupo 997" transform="translate(-3322.645 -3165.933)">
        <path id="Caminho_1793" data-name="Caminho 1793" d="M-3304.542-3165.933l-.014,9.691-.559.491c-.541.49-1.342,1.226-2.258,2.167a4.986,4.986,0,0,0-.348.374c-.126.115-.247.236-.361.362-.246.259-.491.53-.735.8l-.581.658c-.451.529-.917,1.1-1.368,1.676a4.833,4.833,0,0,0-.319.439,2.451,2.451,0,0,0-.167.232,3.1,3.1,0,0,0-.207.271c-.13.167-.246.334-.362.516a4.646,4.646,0,0,0-.361.529c-.09.128-.167.258-.245.386a.534.534,0,0,0-.1.142l-.039.08c-.026.012-.026.039-.039.065a2.913,2.913,0,0,0-.168.271.846.846,0,0,0-.09.13c-.181.309-.362.631-.53.941a2.175,2.175,0,0,0-.129.219c-.141.283-.3.559-.413.84-.013.012-.013.024-.026.051-.026.065-.063.128-.09.193a19.061,19.061,0,0,0-.719,1.819c-.014.026-.014.052-.026.08a.949.949,0,0,0-.051.195l-.04.116a3.067,3.067,0,0,0-.1.36,2.38,2.38,0,0,0-.091.337c0,.025-.012.051-.012.08-.039.167-.08.32-.1.479a7.113,7.113,0,0,0-.128.762c0,.039-.014.08-.014.116v.065a4.1,4.1,0,0,0-.051.683c0,.08-.012.155-.012.232s-.014.168-.014.246v.8h-7.228l.1-.889c1.264-10.773,12.065-21.617,16.66-25.775Z" transform="translate(3322.645 3165.933)" fill="#f7dae8"/>
      </g>
      <path id="Caminho_1795" data-name="Caminho 1795" d="M-3305.549-3155.552c.155.155.3.32.438.49h.014C-3305.24-3155.23-3305.394-3155.4-3305.549-3155.552Zm3.032,3.677v.026c.426.58.825,1.147,1.2,1.716q-.582-.909-1.2-1.742Z" transform="translate(4.223 2.564)" fill="url(#linear-gradient-2)"/>
      <path id="Caminho_1796" data-name="Caminho 1796" d="M-3286.653-3138.329l-.1-.683h.012l-.219-.981c-2.349-10.441-12.106-20.713-16.2-24.636l-1.357-1.3-.012,9.692v.013l.257.246.284.258c.219.22.5.479.813.787l.319.319c.232.245.465.491.711.736l.567.606a2.459,2.459,0,0,1,.246.284c.155.155.309.319.451.49l.142-.079a.254.254,0,0,0,.116-.116l.244-.439.414-.748.4-.748a.287.287,0,0,1,.387-.1.3.3,0,0,1,.116.1l1.059,1.935a.255.255,0,0,0,.116.116l1.937,1.059a.31.31,0,0,1,.115.387.506.506,0,0,1-.115.118l-1.162.631-.709.388-.065.039a.264.264,0,0,0-.116.116l-.3.531q.619.831,1.2,1.742c.167.257.335.527.5.813.142.232.271.464.4.684.258.439.49.878.71,1.342.1.219.219.439.309.658a16.656,16.656,0,0,1,1.252,3.781c.039.194.08.4.1.594.012.091.026.168.039.259s.026.192.039.3c0,.065.013.115.013.181l.013.219c.012.207.025.413.025.62v.08a9.608,9.608,0,0,1-.128,1.638c-.039.195-.08.4-.116.594s-.08.349-.129.529a10.8,10.8,0,0,1-1.085,2.646,12.141,12.141,0,0,1-1.277,1.768,5.076,5.076,0,0,1-.437.49,7.04,7.04,0,0,1-.736.658l-.052.051.014.026-.413.283a9.01,9.01,0,0,1-1.02.672c-.167.1-.335.193-.516.283a10.121,10.121,0,0,1-1.381.595,12.861,12.861,0,0,1-1.382.386,6.427,6.427,0,0,1-.734.116,5.984,5.984,0,0,1-.685.08,2.635,2.635,0,0,1-.319.014l-.451.026v.025l-.465-.051a1.546,1.546,0,0,1-.244-.026,6.9,6.9,0,0,1-1.369-.245,5.8,5.8,0,0,1-.671-.194q-.243-.071-.479-.167h-.012l-.271-.117a9.792,9.792,0,0,1-2.3-1.357l-.787-.631-.413-.413a12.687,12.687,0,0,1-1.845-2.245l-.271.49a.079.079,0,0,1-.1.039c-.014-.013-.027-.026-.027-.039l-.3-.516c0-.013-.013-.025-.025-.039l-.374-.206-.156-.08a.072.072,0,0,1-.032-.094l.006-.01c0-.012.014-.026.026-.039l.014-.014.516-.271a.028.028,0,0,0,.025-.026l.1-.193a5.138,5.138,0,0,1-.219-.479c-.212-.535-.475-1.111-.62-1.51a13.745,13.745,0,0,1-.559-2.444c-2.388,0-4.847-.007-7.235-.007l-.014.787a15.317,15.317,0,0,0,.052,1.691,21.556,21.556,0,0,0,6.814,13.164l.813.748.012-.012.465.374a16.288,16.288,0,0,0,9.086,3.729l.878.08v-.026l.838-.039a17.88,17.88,0,0,0,9.409-3.192l.541-.375.012.014.813-.685a17.95,17.95,0,0,0,6.44-13.82A19.374,19.374,0,0,0-3286.653-3138.329Zm-6.8-10.259a.134.134,0,0,1-.025.065l-.516.774a.1.1,0,0,0-.014.065l-.012.917a.129.129,0,0,1-.129.129.128.128,0,0,1-.065-.026l-.75-.49v-.012l-.025-.014a.1.1,0,0,0-.065-.012l-.878-.025h-.037c-.065,0-.13-.052-.117-.117v-.013a.084.084,0,0,1,.012-.052l.014-.025.49-.736.012-.012a.214.214,0,0,0,.026-.065l.012-.929a.116.116,0,0,1,.116-.116.1.1,0,0,1,.065.012l.774.516c.026.012.039.025.065.025l.929.013a.116.116,0,0,1,.116.115h0Z" transform="translate(0 0.001)" fill="url(#linear-gradient-3)"/>
      <path id="Caminho_1803" data-name="Caminho 1803" d="M-3314.372-3139.335l-.026.026-.529.283-.039.039-.013.026-.271.49a.08.08,0,0,1-.1.04c-.013-.014-.025-.027-.025-.04l-.3-.516c0-.013-.014-.025-.026-.037l-.374-.207-.155-.08a.07.07,0,0,1-.032-.094l.006-.01c0-.012.014-.026.026-.039l.013-.013.516-.272a.028.028,0,0,0,.026-.025l.1-.195.013-.025.181-.311a.067.067,0,0,1,.089-.033l.013.009a.027.027,0,0,1,.026.025l.284.53c.013.012.027.025.039.025l.529.285A.119.119,0,0,1-3314.372-3139.335Z" transform="translate(1.575 6.324)" fill="#fff"/>
      <path id="Caminho_1801" data-name="Caminho 1801" d="M-3299.756-3153.333a.489.489,0,0,1-.116.117l-1.162.631-.708.388-.065.039a.251.251,0,0,0-.117.117l-.3.528v.025l-.413.748v.014l-.348.619a.267.267,0,0,1-.142.128.276.276,0,0,1-.246-.012.252.252,0,0,1-.115-.116l-.762-1.394-.3-.542a.259.259,0,0,0-.116-.116l-.207-.116-1.729-.941a.293.293,0,0,1-.116-.388.261.261,0,0,1,.116-.116l.335-.181.735-.413.711-.387h.012l.142-.081a.25.25,0,0,0,.116-.116l.244-.437.413-.75.4-.749a.289.289,0,0,1,.388-.1.3.3,0,0,1,.116.1l1.059,1.937a.245.245,0,0,0,.116.114l1.936,1.059A.31.31,0,0,1-3299.756-3153.333Z" transform="translate(3.928 2.214)" fill="#fff"/>
    </g>
  </g>
</svg>
