<svg xmlns="http://www.w3.org/2000/svg" xmlns:xlink="http://www.w3.org/1999/xlink" width="84.412" height="55.753" viewBox="0 0 84.412 55.753">
  <defs>
    <linearGradient id="linear-gradient" x1="0.157" y1="0.251" x2="0.933" y2="0.83" gradientUnits="objectBoundingBox">
      <stop offset="0.307" stop-color="#e29abd"/>
      <stop offset="0.98" stop-color="#00a874"/>
    </linearGradient>
    <linearGradient id="linear-gradient-2" x1="-0.07" y1="0.055" x2="1.07" y2="0.945" gradientUnits="objectBoundingBox">
      <stop offset="0.307" stop-color="#d9abbe"/>
      <stop offset="0.98" stop-color="#00a874"/>
    </linearGradient>
    <linearGradient id="linear-gradient-3" x1="0.123" y1="0.282" x2="0.895" y2="0.859" gradientUnits="objectBoundingBox">
      <stop offset="0.307" stop-color="#d47da3"/>
      <stop offset="0.98" stop-color="#00a874"/>
    </linearGradient>
    <linearGradient id="linear-gradient-4" x1="112.664" y1="-296.535" x2="112.664" y2="-296.535" gradientUnits="objectBoundingBox">
      <stop offset="0.307" stop-color="#ababab"/>
      <stop offset="0.98" stop-color="#aeaeae"/>
    </linearGradient>
    <linearGradient id="linear-gradient-5" x1="353.13" y1="-1035.616" x2="353.159" y2="-1035.627" gradientUnits="objectBoundingBox">
      <stop offset="0.307" stop-color="#b4b4b4"/>
      <stop offset="0.98" stop-color="#aeaeae"/>
    </linearGradient>
    <linearGradient id="linear-gradient-6" x1="135.792" y1="-170.414" x2="135.792" y2="-170.414" gradientUnits="objectBoundingBox">
      <stop offset="0.307" stop-color="#929292"/>
      <stop offset="0.98" stop-color="#aeaeae"/>
    </linearGradient>
    <linearGradient id="linear-gradient-7" x1="877.563" y1="-1552.355" x2="877.564" y2="-1552.355" xlink:href="#linear-gradient-6"/>
  </defs>
  <g id="Grupo_1826" data-name="Grupo 1826" transform="translate(-55 -191)">
    <g id="Grupo_1544" data-name="Grupo 1544" transform="translate(-7211 3689.096)">
      <g id="Grupo_1540" data-name="Grupo 1540" transform="translate(7211 -3688)">
        <g id="Grupo_1381" data-name="Grupo 1381" transform="translate(55 226.751)">
          <g id="Caminho_260" data-name="Caminho 260" transform="translate(0 0.992)">
            <path id="Caminho_2210" data-name="Caminho 2210" d="M-3327.14-3120.954v6.708q-2.355-.129-4.645-.289-2.633-.183-5.189-.4c-1.051-.087-2.088-.18-3.118-.276a2.862,2.862,0,0,1-2.558-2.392c-.163-1.005,1.51-2.011,1.468-3.216-.055-1.685-1.735-3.325-1.542-4.671a2.845,2.845,0,0,1,3.094-2.414q2.054.193,4.162.368c1.025.087,2.058,0,3.079.125a5.2,5.2,0,0,1,2.82,1.328,7.057,7.057,0,0,1,1.72,2.129,6.37,6.37,0,0,1,.368.867A6.522,6.522,0,0,1-3327.14-3120.954Z" transform="translate(3342.74 3127.916)" fill="#e8efef"/>
          </g>
          <g id="Caminho_260-2" data-name="Caminho 260" transform="translate(68.813 0)">
            <path id="Caminho_2211" data-name="Caminho 2211" d="M-3286.327-3121.767v6.708q2.354-.128,4.645-.289,2.635-.182,5.189-.4c1.051-.087,2.088-.18,3.119-.276a2.859,2.859,0,0,0,2.556-2.392c.164-1.005-1.51-2.01-1.466-3.216.053-1.684,1.735-3.326,1.541-4.67a2.845,2.845,0,0,0-3.093-2.414q-2.054.194-4.162.368c-1.025.087-2.058,0-3.079.126a5.2,5.2,0,0,0-2.82,1.328,7.048,7.048,0,0,0-1.72,2.129,6.447,6.447,0,0,0-.368.867A6.516,6.516,0,0,0-3286.327-3121.767Z" transform="translate(3286.327 3128.729)" fill="#e8efef"/>
          </g>
          <g id="Caminho_260-3" data-name="Caminho 260" transform="translate(7.438 4.706)">
            <path id="Caminho_261" data-name="Caminho 261" d="M-3267.42-3114.583a2.864,2.864,0,0,1-2.568,2.419c-9.622.9-20.146,1.479-31.451,1.492-11.635.015-22.446-.568-32.305-1.494a2.861,2.861,0,0,1-2.559-2.391,26.2,26.2,0,0,1-.324-3.324,26.126,26.126,0,0,1,.251-4.562,2.848,2.848,0,0,1,3.1-2.415c9.664.915,20.264,1.492,31.671,1.484,11.213-.008,21.64-.581,31.165-1.482a2.861,2.861,0,0,1,3.1,2.485,27.588,27.588,0,0,1,.228,4.479A27.46,27.46,0,0,1-3267.42-3114.583Z" transform="translate(3336.642 3124.872)" fill="#f5f2f7"/>
          </g>
          <g id="Caminho_260-4" data-name="Caminho 260" transform="translate(7.438 4.706)">
            <path id="Caminho_261-2" data-name="Caminho 261" d="M-3267.42-3114.583a2.864,2.864,0,0,1-2.568,2.419c-9.622.9-20.146,1.479-31.451,1.492-11.635.015-22.446-.568-32.305-1.494a2.861,2.861,0,0,1-2.559-2.391,26.2,26.2,0,0,1-.324-3.324,26.126,26.126,0,0,1,.251-4.562,2.848,2.848,0,0,1,3.1-2.415c9.664.915,20.264,1.492,31.671,1.484,11.213-.008,21.64-.581,31.165-1.482a2.861,2.861,0,0,1,3.1,2.485,27.588,27.588,0,0,1,.228,4.479A27.46,27.46,0,0,1-3267.42-3114.583Z" transform="translate(3336.642 3124.872)" fill="#f2f4f4"/>
          </g>
          <g id="Grupo_1380" data-name="Grupo 1380" transform="translate(13.802 8.84)">
            <g id="Grupo_1379" data-name="Grupo 1379">
              <path id="Caminho_2212" data-name="Caminho 2212" d="M-3330.892-3115.615a.543.543,0,0,1-.477-.263.565.565,0,0,1,.047-.565l2.411-4.461a1.013,1.013,0,0,1,.339-.386.708.708,0,0,1,.428-.1.7.7,0,0,1,.409.155.939.939,0,0,1,.277.427l1.807,4.746a.579.579,0,0,1-.027.572.507.507,0,0,1-.478.194.635.635,0,0,1-.422-.161,1.086,1.086,0,0,1-.239-.428l-.292-.812-2.7-.182-.391.765a1.193,1.193,0,0,1-.29.4A.573.573,0,0,1-3330.892-3115.615Zm2.635-4.348-1.058,2.121,1.854.126-.781-2.246Z" transform="translate(3331.425 3121.503)" fill="#373737"/>
              <path id="Caminho_2213" data-name="Caminho 2213" d="M-3325.423-3115.321a.653.653,0,0,1-.476-.194.66.66,0,0,1-.139-.489l.239-4.51a.66.66,0,0,1,.19-.472.635.635,0,0,1,.484-.143.567.567,0,0,1,.6.682l-.217,4.083,2.2.115a.482.482,0,0,1,.523.563.485.485,0,0,1-.579.514Z" transform="translate(3332.609 3121.56)" fill="#373737"/>
              <path id="Caminho_2214" data-name="Caminho 2214" d="M-3321.55-3115.131a.588.588,0,0,1-.639-.691l.18-4.463a.588.588,0,0,1,.692-.638l2.869.115a.439.439,0,0,1,.48.514.442.442,0,0,1-.521.48l-2.317-.093-.055,1.355,2.128.087a.446.446,0,0,1,.489.521.447.447,0,0,1-.529.482l-2.129-.085-.058,1.446,2.318.093a.44.44,0,0,1,.482.513.444.444,0,0,1-.522.481Z" transform="translate(3333.454 3121.605)" fill="#373737"/>
              <path id="Caminho_2215" data-name="Caminho 2215" d="M-3317.776-3114.9a.624.624,0,0,1-.4-.142.5.5,0,0,1-.177-.342.588.588,0,0,1,.144-.416l1.659-2.08-1.476-2.078a.6.6,0,0,1-.128-.427.52.52,0,0,1,.189-.333.593.593,0,0,1,.407-.124.827.827,0,0,1,.654.428l1.11,1.626,1.185-1.566a1.24,1.24,0,0,1,.321-.3.662.662,0,0,1,.365-.089.616.616,0,0,1,.4.142.5.5,0,0,1,.177.342.607.607,0,0,1-.151.425l-1.592,2,1.539,2.163a.592.592,0,0,1,.132.425.482.482,0,0,1-.189.332.636.636,0,0,1-.419.121.632.632,0,0,1-.347-.108,1.313,1.313,0,0,1-.307-.328l-1.165-1.686-1.244,1.622a1.158,1.158,0,0,1-.321.311A.642.642,0,0,1-3317.776-3114.9Z" transform="translate(3334.296 3121.623)" fill="#373737"/>
              <path id="Caminho_2216" data-name="Caminho 2216" d="M-3313.434-3114.8a.542.542,0,0,1-.492-.237.57.57,0,0,1,.015-.567l2.156-4.59a1,1,0,0,1,.318-.4.71.71,0,0,1,.421-.123.719.719,0,0,1,.418.132.965.965,0,0,1,.3.411l2.07,4.638a.582.582,0,0,1,.006.573.511.511,0,0,1-.468.22.647.647,0,0,1-.431-.137,1.08,1.08,0,0,1-.262-.415l-.337-.793-2.705-.03-.346.786a1.2,1.2,0,0,1-.268.412A.569.569,0,0,1-3313.434-3114.8Zm2.385-4.49-.937,2.178,1.859.021-.905-2.2Z" transform="translate(3335.256 3121.651)" fill="#373737"/>
              <path id="Caminho_2217" data-name="Caminho 2217" d="M-3308.006-3114.743c-.394,0-.593-.2-.6-.612l-.024-4.689a.676.676,0,0,1,.15-.478.534.534,0,0,1,.406-.167.583.583,0,0,1,.338.086,1.445,1.445,0,0,1,.281.281l2.682,3.384-.016-3.158a.531.531,0,0,1,.59-.612.53.53,0,0,1,.595.6l.024,4.746a.632.632,0,0,1-.138.433.475.475,0,0,1-.377.163.668.668,0,0,1-.367-.089,1.381,1.381,0,0,1-.292-.286l-2.682-3.383.016,3.158Q-3307.414-3114.744-3308.006-3114.743Z" transform="translate(3336.436 3121.652)" fill="#373737"/>
              <path id="Caminho_2218" data-name="Caminho 2218" d="M-3302.865-3114.87a.589.589,0,0,1-.681-.651l-.1-4.464a.589.589,0,0,1,.652-.681l1.6-.035a3.26,3.26,0,0,1,2.311.7,2.777,2.777,0,0,1,.861,2.125,2.786,2.786,0,0,1-.769,2.164,3.244,3.244,0,0,1-2.278.806Zm.586-1.057.922-.019a1.64,1.64,0,0,0,1.81-1.9,1.636,1.636,0,0,0-1.891-1.81l-.921.02Z" transform="translate(3337.531 3121.654)" fill="#373737"/>
              <path id="Caminho_2219" data-name="Caminho 2219" d="M-3297.668-3114.918a.626.626,0,0,1-.483-.155.673.673,0,0,1-.183-.479l-.172-4.561a.576.576,0,0,1,.626-.675l2-.074a2.176,2.176,0,0,1,1.514.412,1.66,1.66,0,0,1,.574,1.287,1.717,1.717,0,0,1-.292,1.093,1.673,1.673,0,0,1-.928.624,1.244,1.244,0,0,1,.739.606l.545.926a.655.655,0,0,1,.088.577q-.1.272-.509.287a.784.784,0,0,1-.448-.1.916.916,0,0,1-.309-.343l-.844-1.426a.669.669,0,0,0-.316-.3,1.035,1.035,0,0,0-.431-.066l-.624.023.062,1.66a.678.678,0,0,1-.143.49A.614.614,0,0,1-3297.668-3114.918Zm.51-3.263,1.143-.043q1.029-.038,1-.86t-1.057-.776l-1.143.042Z" transform="translate(3338.66 3121.619)" fill="#373737"/>
              <path id="Caminho_2220" data-name="Caminho 2220" d="M-3292.961-3115.113a.632.632,0,0,1-.485-.15.677.677,0,0,1-.187-.477l-.224-4.625a.574.574,0,0,1,.608-.689.571.571,0,0,1,.665.627l.225,4.625A.572.572,0,0,1-3292.961-3115.113Z" transform="translate(3339.682 3121.576)" fill="#373737"/>
              <path id="Caminho_2221" data-name="Caminho 2221" d="M-3289.492-3115.271a.633.633,0,0,1-.486-.144.676.676,0,0,1-.193-.476l-.243-4.155-1.453.085a.469.469,0,0,1-.565-.494.469.469,0,0,1,.5-.557l4.181-.244a.468.468,0,0,1,.563.494.469.469,0,0,1-.5.557l-1.454.084.244,4.155a.69.69,0,0,1-.133.494A.612.612,0,0,1-3289.492-3115.271Z" transform="translate(3339.995 3121.532)" fill="#373737"/>
              <path id="Caminho_2222" data-name="Caminho 2222" d="M-3287.707-3115.381a.541.541,0,0,1-.509-.194.562.562,0,0,1-.031-.567l1.768-4.752a1,1,0,0,1,.283-.428.7.7,0,0,1,.409-.157.715.715,0,0,1,.427.1.953.953,0,0,1,.333.384l2.447,4.452a.578.578,0,0,1,.052.569.509.509,0,0,1-.447.258.641.641,0,0,1-.44-.1,1.074,1.074,0,0,1-.3-.391l-.4-.762-2.7.192-.281.813a1.182,1.182,0,0,1-.232.433A.556.556,0,0,1-3287.707-3115.381Zm2.007-4.671-.754,2.248,1.854-.133-1.083-2.116Z" transform="translate(3340.902 3121.483)" fill="#373737"/>
            </g>
          </g>
        </g>
      </g>
    </g>
    <g id="Grupo_1825" data-name="Grupo 1825" transform="translate(357.012 -743)">
      <g id="Grupo_1824" data-name="Grupo 1824" transform="translate(3048.633 4099.933)">
        <path id="Caminho_1802" data-name="Caminho 1802" d="M-3299.237-3152.034v.01a.108.108,0,0,1-.02.052l-.414.621a.078.078,0,0,0-.011.052l-.01.735a.1.1,0,0,1-.1.1.1.1,0,0,1-.052-.021l-.6-.393v-.01l-.02-.011a.079.079,0,0,0-.052-.01l-.7-.02h-.03c-.052,0-.1-.042-.094-.094v-.01a.067.067,0,0,1,.01-.042l.011-.02.393-.59.01-.01a.168.168,0,0,0,.021-.052l.01-.745a.093.093,0,0,1,.093-.093.078.078,0,0,1,.052.01l.621.414c.021.01.031.02.052.02l.745.011a.093.093,0,0,1,.093.092Z" fill="#fff"/>
        <g id="Grupo_1377" data-name="Grupo 1377">
          <path id="Caminho_2209" data-name="Caminho 2209" d="M-3299.464-3144.294c0-.052-.011-.093-.011-.145-.01-.083-.021-.165-.031-.238s-.02-.135-.031-.207c-.019-.156-.051-.32-.083-.476a13.334,13.334,0,0,0-1-3.032c-.072-.176-.165-.352-.248-.528-.176-.372-.362-.724-.569-1.076-.1-.176-.206-.362-.32-.548-.134-.229-.269-.446-.4-.652l-.112-.173c-.267-.4-.547-.794-.845-1.2v-.016l-.006-.008.238-.425a.209.209,0,0,1,.093-.093l.052-.031.569-.311.932-.507a.379.379,0,0,0,.092-.093.247.247,0,0,0-.092-.31l-1.553-.849a.2.2,0,0,1-.093-.093l-.849-1.552a.239.239,0,0,0-.093-.083.23.23,0,0,0-.31.083l-.32.6-.332.6-.2.352a.2.2,0,0,1-.093.093l-.112.063,0,0h-.01c-.077-.093-.156-.182-.236-.269-.04-.042-.081-.086-.122-.127a2.038,2.038,0,0,0-.2-.228l-.455-.486c-.2-.2-.384-.393-.57-.59l-.256-.256c-.248-.248-.476-.455-.652-.631l-.228-.207-.206-.2v-.01l-.446.392c-.435.394-1.076.984-1.811,1.739a3.906,3.906,0,0,0-.279.3,3.612,3.612,0,0,0-.29.29c-.2.207-.393.424-.59.64l-.466.528c-.362.424-.734.879-1.1,1.343a4.009,4.009,0,0,0-.256.352,2.184,2.184,0,0,0-.134.186,2.631,2.631,0,0,0-.166.218c-.1.134-.2.269-.29.414a3.943,3.943,0,0,0-.289.424c-.073.1-.135.207-.2.311a.425.425,0,0,0-.082.114l-.032.064c-.02.01-.02.03-.03.051a2.447,2.447,0,0,0-.135.217.659.659,0,0,0-.073.1c-.144.248-.29.507-.424.756a1.622,1.622,0,0,0-.1.176c-.113.227-.237.448-.331.672-.01.01-.01.021-.02.042-.021.051-.052.1-.073.155-.227.5-.413.983-.576,1.459-.01.021-.01.041-.02.064a.827.827,0,0,0-.042.155l-.031.094a2.564,2.564,0,0,0-.083.289,2.091,2.091,0,0,0-.072.269c0,.021-.01.042-.01.064-.032.135-.064.256-.084.384a6.1,6.1,0,0,0-.1.611c0,.031-.011.064-.011.093v.052a3.349,3.349,0,0,0-.04.548c0,.064-.011.124-.011.186s-.011.135-.011.2v.64a11.1,11.1,0,0,0,.448,1.96c.117.32.327.782.5,1.211a4.161,4.161,0,0,0,.176.384l-.083.155a.022.022,0,0,1-.02.021l-.414.217-.01.011c-.011.01-.022.021-.022.031l0,.008a.056.056,0,0,0,.026.075l.124.064.3.165c.01.011.02.021.02.031l.238.414c0,.01.011.021.021.031a.064.064,0,0,0,.083-.031l.217-.393a10.18,10.18,0,0,0,1.48,1.8l.331.331.631.506a7.866,7.866,0,0,0,1.843,1.088l.217.094h.01a3.993,3.993,0,0,0,.384.134,4.459,4.459,0,0,0,.539.156,5.5,5.5,0,0,0,1.1.2,1.173,1.173,0,0,0,.2.02l.373.042v-.02l.362-.022a1.991,1.991,0,0,0,.256-.01,4.831,4.831,0,0,0,.549-.064,5.318,5.318,0,0,0,.589-.093,10.335,10.335,0,0,0,1.108-.31,8.256,8.256,0,0,0,1.107-.477c.145-.072.28-.144.414-.227a7.289,7.289,0,0,0,.818-.539l.331-.227-.011-.021.042-.041a5.659,5.659,0,0,0,.59-.528,3.993,3.993,0,0,0,.351-.393,9.815,9.815,0,0,0,1.024-1.418,8.633,8.633,0,0,0,.87-2.122c.039-.144.072-.279.1-.424s.062-.32.093-.476a7.691,7.691,0,0,0,.1-1.314v-.064c0-.166-.01-.331-.02-.5Zm-10.356,9.048a7.659,7.659,0,0,0,1.1.2A5.443,5.443,0,0,1-3309.82-3135.246Zm7.823-2.318a6.019,6.019,0,0,1-.59.528l.31-.28h0a8.883,8.883,0,0,0,.63-.641A4.236,4.236,0,0,1-3302-3137.564Zm2.443-4.833a9.19,9.19,0,0,0,.092-1.315h.011A7.932,7.932,0,0,1-3299.554-3142.4Zm.092-1.377-.01-.5c.01.165.021.331.021.5Z" fill="url(#linear-gradient)"/>
        </g>
        <g id="Grupo_997" data-name="Grupo 997">
          <path id="Caminho_1793" data-name="Caminho 1793" d="M-3308.128-3165.933l-.011,7.771-.448.394c-.434.393-1.076.983-1.811,1.738-.1.095-.191.2-.279.3s-.2.189-.289.29c-.2.208-.394.425-.59.64l-.466.528c-.362.424-.735.879-1.1,1.344a3.867,3.867,0,0,0-.256.352,1.974,1.974,0,0,0-.134.186,2.439,2.439,0,0,0-.166.218c-.1.134-.2.268-.29.414a3.735,3.735,0,0,0-.29.424c-.072.1-.134.207-.2.31a.433.433,0,0,0-.083.114l-.031.064c-.021.01-.021.031-.031.052a2.252,2.252,0,0,0-.135.217.674.674,0,0,0-.072.1c-.145.248-.29.506-.425.755a1.717,1.717,0,0,0-.1.176c-.113.227-.238.448-.331.673-.01.01-.01.02-.021.041-.021.052-.051.1-.072.155a15.332,15.332,0,0,0-.576,1.459c-.011.021-.011.042-.021.064a.773.773,0,0,0-.041.156l-.032.093a2.456,2.456,0,0,0-.082.289,1.933,1.933,0,0,0-.073.27c0,.02-.01.041-.01.064-.031.134-.064.256-.083.384a5.688,5.688,0,0,0-.1.611c0,.031-.011.064-.011.093v.052a3.237,3.237,0,0,0-.041.548c0,.064-.01.124-.01.186s-.011.135-.011.2v.639h-5.8l.083-.713c1.014-8.639,9.675-17.335,13.36-20.669Z" fill="#f7dae8"/>
        </g>
        <path id="Caminho_1795" data-name="Caminho 1795" d="M-3305.549-3155.552c.124.124.238.256.351.393h.011C-3305.3-3155.294-3305.425-3155.428-3305.549-3155.552Zm2.431,2.949v.021c.342.465.662.92.963,1.376q-.467-.729-.963-1.4Z" fill="url(#linear-gradient-2)"/>
        <path id="Caminho_1796" data-name="Caminho 1796" d="M-3293.783-3143.8l-.082-.548h.01l-.176-.786c-1.884-8.373-9.708-16.61-12.99-19.756l-1.088-1.045-.01,7.772v.01l.206.2.228.207c.176.176.4.384.652.631l.256.256c.186.2.373.394.57.59l.455.486a2.04,2.04,0,0,1,.2.228c.124.124.248.256.362.393l.114-.064a.2.2,0,0,0,.093-.093l.2-.352.332-.6.32-.6a.23.23,0,0,1,.31-.083.242.242,0,0,1,.093.083l.849,1.552a.2.2,0,0,0,.093.093l1.553.849a.248.248,0,0,1,.092.31.4.4,0,0,1-.092.094l-.932.506-.569.311-.052.031a.209.209,0,0,0-.093.093l-.238.425q.5.667.963,1.4c.134.206.269.423.4.652.114.186.218.372.32.548.207.352.393.7.569,1.076.083.176.176.352.248.528a13.346,13.346,0,0,1,1,3.032c.031.156.064.32.083.476.01.073.021.135.031.208s.021.154.031.237c0,.052.011.093.011.145l.01.176c.01.166.02.331.02.5v.064a7.714,7.714,0,0,1-.1,1.314c-.031.156-.064.32-.093.476s-.064.28-.1.424a8.665,8.665,0,0,1-.87,2.122,9.751,9.751,0,0,1-1.024,1.418,4.086,4.086,0,0,1-.351.393,5.648,5.648,0,0,1-.59.528l-.042.041.011.021-.331.227a7.231,7.231,0,0,1-.818.539c-.134.083-.269.155-.414.227a8.15,8.15,0,0,1-1.107.477,10.319,10.319,0,0,1-1.108.31,5.314,5.314,0,0,1-.589.093,4.836,4.836,0,0,1-.549.064,2.192,2.192,0,0,1-.256.011l-.362.021v.02l-.373-.041a1.287,1.287,0,0,1-.2-.021,5.537,5.537,0,0,1-1.1-.2,4.6,4.6,0,0,1-.538-.156,4.062,4.062,0,0,1-.384-.134h-.01l-.217-.094a7.861,7.861,0,0,1-1.843-1.088l-.631-.506-.331-.331a10.187,10.187,0,0,1-1.48-1.8l-.217.393a.064.064,0,0,1-.083.031c-.011-.01-.021-.021-.021-.031l-.238-.414c0-.01-.01-.02-.02-.031l-.3-.165-.125-.064a.058.058,0,0,1-.026-.075l0-.008c0-.01.011-.021.021-.031l.011-.011.414-.217a.022.022,0,0,0,.02-.021l.083-.155a4.161,4.161,0,0,1-.176-.384c-.17-.429-.381-.891-.5-1.211a11,11,0,0,1-.448-1.96c-1.915,0-3.887-.006-5.8-.006l-.011.631a12.31,12.31,0,0,0,.042,1.356,17.284,17.284,0,0,0,5.464,10.556l.652.6.01-.01.373.3a13.063,13.063,0,0,0,7.286,2.99l.7.064v-.021l.672-.031a14.335,14.335,0,0,0,7.545-2.559l.434-.3.01.011.652-.549a14.394,14.394,0,0,0,5.164-11.083A15.555,15.555,0,0,0-3293.783-3143.8Zm-5.454-8.227a.108.108,0,0,1-.02.052l-.414.621a.078.078,0,0,0-.011.052l-.01.735a.1.1,0,0,1-.1.1.1.1,0,0,1-.052-.021l-.6-.393v-.01l-.02-.011a.079.079,0,0,0-.052-.01l-.7-.02h-.03c-.052,0-.1-.042-.094-.094v-.01a.067.067,0,0,1,.01-.042l.011-.02.393-.59.01-.01a.168.168,0,0,0,.021-.052l.01-.745a.093.093,0,0,1,.093-.093.078.078,0,0,1,.052.01l.621.414c.021.01.031.02.052.02l.745.011a.093.093,0,0,1,.093.092h0Z" fill="url(#linear-gradient-3)"/>
        <path id="Caminho_1803" data-name="Caminho 1803" d="M-3314.748-3139.533l-.021.021-.424.227-.031.031-.011.021-.217.393a.064.064,0,0,1-.083.032c-.01-.011-.02-.022-.02-.032l-.238-.414c0-.01-.011-.02-.021-.03l-.3-.166-.124-.064a.057.057,0,0,1-.026-.075l0-.008c0-.01.011-.021.021-.031l.01-.01.414-.218a.022.022,0,0,0,.021-.02l.082-.156.011-.02.145-.249a.053.053,0,0,1,.071-.027l.011.007a.022.022,0,0,1,.021.02l.228.425c.01.01.021.02.031.02l.424.228A.1.1,0,0,1-3314.748-3139.533Z" fill="#fff"/>
        <path id="Caminho_1801" data-name="Caminho 1801" d="M-3301.14-3154.054a.4.4,0,0,1-.093.094l-.932.506-.568.311-.052.031a.2.2,0,0,0-.094.094l-.238.424v.02l-.331.6v.011l-.279.5a.216.216,0,0,1-.114.1.221.221,0,0,1-.2-.01.2.2,0,0,1-.092-.093l-.611-1.118-.238-.435a.209.209,0,0,0-.093-.093l-.166-.093-1.387-.755a.235.235,0,0,1-.093-.311.209.209,0,0,1,.093-.093l.269-.145.59-.331.57-.311h.01l.114-.064a.2.2,0,0,0,.093-.093l.2-.351.331-.6.32-.6a.232.232,0,0,1,.311-.083.24.24,0,0,1,.093.083l.849,1.553a.2.2,0,0,0,.093.092l1.553.849A.249.249,0,0,1-3301.14-3154.054Z" fill="#fff"/>
      </g>
      <g id="Grupo_1808" data-name="Grupo 1808" transform="translate(4256.982 -1903.326)">
        <g id="Grupo_1378" data-name="Grupo 1378">
          <path id="Caminho_1802-2" data-name="Caminho 1802" d="M-4507.57,2851.227v.01a.11.11,0,0,1-.02.052l-.414.621a.074.074,0,0,0-.011.052l-.01.736a.1.1,0,0,1-.1.1h0a.108.108,0,0,1-.052-.021l-.6-.393v-.01l-.02-.011a.075.075,0,0,0-.052-.01l-.7-.02h-.03a.091.091,0,0,1-.094-.086v-.018a.063.063,0,0,1,.01-.042l.011-.02.393-.591.01-.01a.219.219,0,0,0,.021-.052l.009-.745a.094.094,0,0,1,.093-.093h0a.084.084,0,0,1,.052.01l.621.414c.021.01.031.02.052.02l.745.011a.094.094,0,0,1,.093.092Z" fill="#fff"/>
          <g id="Grupo_1377-2" data-name="Grupo 1377">
            <path id="Caminho_13717" data-name="Caminho 13717" d="M-4508.36,2856.356a11.993,11.993,0,0,0-.59-1.5c-.07-.169-.16-.35-.25-.53a11.066,11.066,0,0,0-.57-1.07c-.1-.18-.21-.35-.32-.539v-.01c-.13-.23-.26-.451-.4-.651a2.754,2.754,0,0,0-.19-.289c-.11-.161-.22-.32-.33-.48-.07-.09-.14-.191-.22-.29a2.65,2.65,0,0,0-.22-.3v-.041l.24-.409v-.011a.144.144,0,0,1,.09-.08v-.01l.05-.03.57-.31.93-.51.01-.009a.635.635,0,0,0,.08-.08.255.255,0,0,0-.09-.311l-.54-.3-1.01-.55c-.02-.009-.03-.02-.05-.029l-.01-.011a.1.1,0,0,1-.04-.049l-.54-1.01-.3-.541v-.01l-.02-.02-.02-.02a.211.211,0,0,0-.05-.03.01.01,0,0,0-.01-.01.216.216,0,0,0-.22,0,.177.177,0,0,0-.08.07l-.32.6-.33.6-.2.361-.01.01a.126.126,0,0,1-.06.06c-.01.02-.02.02-.03.029l-.11.06h-.01a3.16,3.16,0,0,0-.24-.27c.01-.01,0-.01-.02-.02l-.1-.1a2.112,2.112,0,0,0-.2-.231l-.46-.489c-.2-.2-.38-.391-.57-.591l-.25-.25c-.25-.25-.48-.459-.66-.63l-.22-.21-.21-.2v-.01l-.45.391h-.01c-.11.1-.23.21-.36.329s-.27.26-.42.4c-.01-.01-.01,0-.01,0-.15.149-.31.31-.48.47s-.35.349-.53.539a3.864,3.864,0,0,0-.27.3,2.63,2.63,0,0,0-.29.289c-.21.211-.4.421-.59.641l-.47.53c-.36.419-.73.879-1.1,1.339-.09.111-.18.23-.26.351a2.178,2.178,0,0,0-.13.189,2,2,0,0,0-.17.22c-.1.131-.2.27-.29.41s-.2.281-.29.431c-.07.1-.13.2-.2.31a.411.411,0,0,0-.08.109l-.03.06c-.02.01-.02.031-.03.061-.05.069-.09.139-.14.21-.02.03-.05.069-.07.1-.14.25-.29.509-.42.759a1,1,0,0,0-.1.181,5.88,5.88,0,0,0-.33.669c-.01.01-.01.02-.02.041-.02.049-.06.1-.08.149-.22.5-.41.99-.57,1.46a.545.545,0,0,0-.02.07.914.914,0,0,0-.05.151l-.03.1c-.01.04-.03.091-.04.14h16.47A.878.878,0,0,0-4508.36,2856.356Z" fill="url(#linear-gradient-4)"/>
          </g>
          <g id="Grupo_997-2" data-name="Grupo 997">
            <path id="Caminho_13718" data-name="Caminho 13718" d="M-4517.54,2838.316c-3.327,3.005-10.694,10.387-12.842,18.141.094.016.188.031.28.049h5.292a.935.935,0,0,1,.05-.15l.03-.089a.745.745,0,0,1,.04-.161c.01-.02.01-.04.02-.06a14.237,14.237,0,0,1,.58-1.46c.02-.06.05-.1.07-.16.01-.02.01-.03.02-.04.09-.22.22-.439.33-.669.03-.061.07-.121.1-.18.14-.25.28-.5.43-.75a.355.355,0,0,1,.07-.1,1.511,1.511,0,0,1,.13-.22c.01-.02.01-.041.03-.051l.03-.06a1.216,1.216,0,0,1,.09-.12c.06-.1.13-.21.2-.31a3.063,3.063,0,0,1,.29-.42c.09-.15.19-.279.29-.42.05-.069.11-.149.16-.21s.09-.129.14-.189c.08-.121.16-.24.25-.351.37-.47.74-.92,1.1-1.35l.47-.519c.2-.22.39-.441.59-.641.09-.109.2-.19.29-.289a2.566,2.566,0,0,1,.28-.3c.19-.19.37-.38.54-.539s.33-.331.48-.47c0,0,0-.01.01,0,.15-.151.29-.28.42-.4s.25-.23.36-.329h.01l.44-.4.01-7.77Z" fill="#dfdfdf"/>
          </g>
          <path id="Caminho_1795-2" data-name="Caminho 1795" d="M-4510.96,2851.336c-.02-.02-.03-.04-.05-.049.11.16.22.319.33.48C-4510.77,2851.616-4510.86,2851.477-4510.96,2851.336Zm-.49-.67v.021c.08.109.16.209.22.31.08.1.15.2.22.29-.14-.211-.28-.421-.43-.621Zm-2.32-2.83a3.16,3.16,0,0,1,.24.27h.01v-.01A3.143,3.143,0,0,0-4513.77,2847.836Z" fill="url(#linear-gradient-5)"/>
          <path id="Caminho_13719" data-name="Caminho 13719" d="M-4502.8,2856.506c-2.44-7.789-9.48-15.19-12.55-18.14l-1.09-1.04-.01,7.77v.01l.2.2.23.211c.18.17.4.379.65.629v.01l.25.25h.01c.19.2.37.39.57.591l.46.48a1.971,1.971,0,0,1,.2.23v.01c.13.119.24.25.36.379l.11-.059c.01,0,.02-.011.03-.02a.126.126,0,0,0,.06-.06h.01v-.01l.2-.361.33-.6.32-.6a.177.177,0,0,1,.08-.07.218.218,0,0,1,.23-.01.231.231,0,0,1,.05.05l.02.02c.01,0,.02,0,.02.01v.01l.3.551.55,1.01a.244.244,0,0,0,.09.08l1.56.849v.01a.253.253,0,0,1,.09.3l-.01.01a.635.635,0,0,1-.08.08l-.01.009-.93.5-.57.31-.05.03v.01a.143.143,0,0,0-.09.081v.009l-.24.42v.01h.01c.16.22.33.44.48.67.1.141.19.28.28.431a2.754,2.754,0,0,1,.19.289c.14.2.27.421.4.651v.01c.12.189.22.359.32.539a11.066,11.066,0,0,1,.57,1.07c.09.18.18.361.25.53a11.993,11.993,0,0,1,.59,1.5c.024.068.042.135.062.2l.012,0a.472.472,0,0,0-.014-.05Z" fill="url(#linear-gradient-6)"/>
          <path id="Caminho_13720" data-name="Caminho 13720" d="M-4508.85,2852.346l-.7-.02h-.05a.076.076,0,0,1-.07-.079v-.02c-.01-.02,0-.03.01-.04l.01-.021.39-.59.01-.01a.188.188,0,0,0,.02-.049l.01-.75a.091.091,0,0,1,.09-.091h.02a.034.034,0,0,1,.03.011l.63.409c.02.01.03.02.05.02l.74.01a.071.071,0,0,1,.06.03.073.073,0,0,1,.03.061v.019a.112.112,0,0,1-.02.051l-.41.619a.112.112,0,0,0-.02.051l-.01.74a.1.1,0,0,1-.1.1.14.14,0,0,1-.05-.02l-.6-.4v-.01l-.02-.01a.019.019,0,0,0-.03,0A.034.034,0,0,0-4508.85,2852.346Z" fill="url(#linear-gradient-7)"/>
          <path id="Caminho_1801-13" data-name="Caminho 1801-13" d="M-4509.473,2849.211a.354.354,0,0,1-.093.094l-.932.507-.568.311-.051.031a.2.2,0,0,0-.095.094l-.237.424v.02l-.332.6v.011l-.278.5a.214.214,0,0,1-.114.1.222.222,0,0,1-.2-.01.193.193,0,0,1-.092-.093l-.611-1.118-.238-.435a.2.2,0,0,0-.093-.093l-.166-.093-1.387-.755a.235.235,0,0,1-.093-.311.215.215,0,0,1,.093-.093l.269-.145.59-.331.57-.311h.01l.113-.064a.188.188,0,0,0,.093-.093l.2-.351.332-.6.319-.6a.229.229,0,0,1,.311-.083.228.228,0,0,1,.093.083l.849,1.553a.211.211,0,0,0,.093.092l1.553.849A.248.248,0,0,1-4509.473,2849.211Z" fill="#fff"/>
        </g>
        <g id="Grupo_1378-3" data-name="Grupo 1378-3">
          <g id="Grupo_997-3" data-name="Grupo 997-3">
            <path id="Caminho_13721" data-name="Caminho 13721" d="M-4524.8,2856.506c-.01.02-.01.031-.02.05a.448.448,0,0,0,.01-.05Z" fill="#f7dae8"/>
          </g>
        </g>
      </g>
    </g>
  </g>
</svg>
