<svg xmlns="http://www.w3.org/2000/svg" xmlns:xlink="http://www.w3.org/1999/xlink" width="84.412" height="55.754" viewBox="0 0 84.412 55.754">
  <defs>
    <linearGradient id="linear-gradient" x1="-32.288" y1="-15.706" x2="-32.244" y2="-15.73" gradientUnits="objectBoundingBox">
      <stop offset="0.307" stop-color="#ababab"/>
      <stop offset="0.98" stop-color="#aeaeae"/>
    </linearGradient>
    <linearGradient id="linear-gradient-2" x1="-173.527" y1="-134.213" x2="-173.191" y2="-134.417" gradientUnits="objectBoundingBox">
      <stop offset="0.307" stop-color="#b4b4b4"/>
      <stop offset="0.98" stop-color="#aeaeae"/>
    </linearGradient>
    <linearGradient id="linear-gradient-3" x1="-19.124" y1="-8.72" x2="-19.097" y2="-8.735" gradientUnits="objectBoundingBox">
      <stop offset="0.307" stop-color="#929292"/>
      <stop offset="0.98" stop-color="#aeaeae"/>
    </linearGradient>
  </defs>
  <g id="Grupo_1520" data-name="Grupo 1520" transform="translate(13.368 -1148.015)">
    <g id="Grupo_1378" data-name="Grupo 1378">
      <path id="Caminho_1802" data-name="Caminho 1802" d="M38.039,1161.916v.01a.107.107,0,0,1-.02.052l-.414.621a.074.074,0,0,0-.011.052l-.01.735a.1.1,0,0,1-.1.1h0a.1.1,0,0,1-.052-.021l-.6-.393v-.01l-.02-.011a.079.079,0,0,0-.052-.01l-.7-.02h-.03a.09.09,0,0,1-.094-.094v-.01a.063.063,0,0,1,.01-.042l.011-.02.393-.59.01-.01a.2.2,0,0,0,.021-.052l.01-.745a.093.093,0,0,1,.093-.093h0a.079.079,0,0,1,.052.01l.621.414c.021.01.031.02.052.02l.745.011a.093.093,0,0,1,.093.092Z" fill="#fff"/>
      <g id="Grupo_1377" data-name="Grupo 1377">
        <path id="Caminho_2209" data-name="Caminho 2209" d="M37.812,1169.656c0-.052-.011-.093-.011-.145-.01-.083-.021-.165-.031-.238s-.02-.135-.031-.207c-.019-.156-.051-.32-.083-.476a13.379,13.379,0,0,0-1-3.032c-.072-.176-.165-.352-.248-.528-.176-.372-.362-.724-.569-1.076-.1-.176-.206-.362-.32-.548-.134-.229-.269-.446-.4-.652l-.112-.174c-.267-.4-.547-.793-.845-1.2v-.017l-.006-.008.238-.425a.209.209,0,0,1,.093-.093l.052-.031.569-.311.932-.507a.37.37,0,0,0,.092-.093.248.248,0,0,0-.092-.31l-1.553-.849a.2.2,0,0,1-.093-.093l-.849-1.552a.254.254,0,0,0-.093-.083.231.231,0,0,0-.311.083l-.32.6-.332.6-.2.352a.191.191,0,0,1-.093.093l-.112.063h-.01c-.077-.093-.156-.182-.236-.269-.04-.042-.081-.086-.122-.127a2.054,2.054,0,0,0-.2-.228l-.455-.486c-.2-.2-.384-.393-.57-.59l-.256-.256c-.248-.248-.476-.455-.652-.631l-.228-.207-.206-.2v-.01l-.446.392c-.435.394-1.076.984-1.811,1.739a3.745,3.745,0,0,0-.279.3,3.608,3.608,0,0,0-.29.29c-.2.207-.393.424-.59.64l-.467.528c-.362.424-.733.879-1.1,1.343a4.229,4.229,0,0,0-.256.352c-.048.06-.092.122-.134.186-.059.07-.114.143-.166.218-.1.134-.2.269-.29.414a4.065,4.065,0,0,0-.289.424c-.073.1-.135.207-.2.311a.441.441,0,0,0-.082.114l-.032.064c-.02.01-.02.03-.03.051a2.461,2.461,0,0,0-.135.217.709.709,0,0,0-.073.1c-.144.248-.29.507-.424.756a1.707,1.707,0,0,0-.1.177c-.113.227-.237.448-.331.672-.01.01-.01.021-.02.042-.021.051-.052.1-.073.155-.227.5-.413.983-.576,1.459-.01.021-.01.041-.02.064a.828.828,0,0,0-.042.155l-.031.094a2.583,2.583,0,0,0-.083.289,2.094,2.094,0,0,0-.072.269c0,.021-.01.042-.01.064-.032.135-.064.256-.084.384a6.027,6.027,0,0,0-.1.611c0,.031-.011.064-.011.093v.052a3.238,3.238,0,0,0-.04.548c0,.064-.011.124-.011.186s-.011.135-.011.2v.64a11.177,11.177,0,0,0,.448,1.96c.117.32.327.782.5,1.211a4.158,4.158,0,0,0,.176.384l-.083.155a.022.022,0,0,1-.02.021l-.414.217-.01.011c-.011.01-.022.021-.022.031v.008a.056.056,0,0,0,.025.075h0l.124.064.3.165c.01.011.02.021.02.031l.238.414c0,.01.011.021.021.031a.064.064,0,0,0,.083-.031l.217-.393a10.185,10.185,0,0,0,1.48,1.8l.331.331.631.506a7.867,7.867,0,0,0,1.843,1.088l.217.094h.01q.189.077.384.134a4.557,4.557,0,0,0,.539.156,5.492,5.492,0,0,0,1.1.2,1.223,1.223,0,0,0,.2.02l.373.042v-.02l.362-.022a1.988,1.988,0,0,0,.256-.01,4.807,4.807,0,0,0,.549-.064,5.368,5.368,0,0,0,.59-.093,10.382,10.382,0,0,0,1.107-.31,8.213,8.213,0,0,0,1.107-.477c.145-.072.28-.144.414-.227a7.429,7.429,0,0,0,.819-.539l.331-.227-.011-.021.042-.041a5.793,5.793,0,0,0,.59-.528,4.086,4.086,0,0,0,.351-.393,9.9,9.9,0,0,0,1.024-1.418,8.675,8.675,0,0,0,.87-2.123c.039-.144.072-.279.1-.424s.062-.32.093-.476a7.709,7.709,0,0,0,.1-1.314v-.064c0-.166-.01-.331-.02-.5ZM27.456,1178.7a7.739,7.739,0,0,0,1.1.2,5.479,5.479,0,0,1-1.1-.2Zm7.823-2.318a6.025,6.025,0,0,1-.59.528l.31-.28h0a8.861,8.861,0,0,0,.63-.641,4.391,4.391,0,0,1-.353.393Zm2.443-4.833a9.188,9.188,0,0,0,.092-1.315h.011a7.905,7.905,0,0,1-.1,1.312Zm.092-1.377-.01-.5c.01.165.021.331.021.5Z" fill="url(#linear-gradient)"/>
      </g>
      <g id="Grupo_997" data-name="Grupo 997">
        <path id="Caminho_1793" data-name="Caminho 1793" d="M29.148,1148.017l-.011,7.771-.448.394c-.434.393-1.076.983-1.811,1.738-.1.095-.191.2-.279.3s-.2.189-.289.29c-.2.208-.394.425-.59.64l-.466.528c-.362.424-.735.879-1.1,1.344a3.673,3.673,0,0,0-.256.352,1.849,1.849,0,0,0-.134.186,2.322,2.322,0,0,0-.166.218c-.1.134-.2.268-.291.414a3.83,3.83,0,0,0-.29.424c-.072.1-.134.207-.2.31a.469.469,0,0,0-.083.114l-.031.064c-.021.01-.021.031-.031.052a2.293,2.293,0,0,0-.135.217.7.7,0,0,0-.072.1c-.145.248-.29.506-.425.755-.036.057-.07.116-.1.176-.113.227-.238.448-.331.673-.01.01-.01.02-.021.041-.021.052-.051.1-.072.155a15.24,15.24,0,0,0-.576,1.459c-.011.021-.011.042-.021.064a.855.855,0,0,0-.041.156l-.032.093a2.636,2.636,0,0,0-.082.289,2,2,0,0,0-.073.27c0,.02-.01.041-.01.064-.031.134-.064.256-.083.384a5.764,5.764,0,0,0-.1.611c0,.031-.011.064-.011.093v.052a3.259,3.259,0,0,0-.041.549c0,.064-.01.124-.01.186s-.011.135-.011.2v.638h-5.8l.083-.712c1.014-8.639,9.675-17.335,13.36-20.669Z" fill="#dfdfdf"/>
      </g>
      <path id="Caminho_1795" data-name="Caminho 1795" d="M31.727,1158.4c.124.124.238.256.351.393h.011C31.976,1158.656,31.851,1158.522,31.727,1158.4Zm2.431,2.949v.021c.342.465.662.92.963,1.376q-.468-.729-.963-1.4Z" fill="url(#linear-gradient-2)"/>
      <path id="Caminho_1796" data-name="Caminho 1796" d="M43.493,1170.15l-.082-.548h.01l-.176-.786c-1.884-8.373-9.708-16.61-12.99-19.756l-1.088-1.045-.01,7.772v.01l.206.2.228.207c.176.176.4.384.652.631l.256.256c.186.2.373.394.57.59l.456.486a1.957,1.957,0,0,1,.2.228c.124.124.249.256.363.393l.114-.064a.2.2,0,0,0,.093-.093l.2-.352.332-.6.32-.6a.23.23,0,0,1,.31-.083.248.248,0,0,1,.093.083l.849,1.552a.2.2,0,0,0,.093.093l1.553.849a.249.249,0,0,1,.092.31.435.435,0,0,1-.092.094l-.932.506-.569.311-.052.031a.215.215,0,0,0-.093.093l-.238.425q.5.667.963,1.4c.134.206.269.423.4.652.114.186.218.372.32.549.207.352.393.7.569,1.075.083.176.176.352.248.529a13.371,13.371,0,0,1,1,3.031c.031.156.064.321.083.477.01.073.021.135.031.208s.021.154.031.237c0,.052.011.093.011.145l.01.176c.01.166.02.331.02.5v.064a7.714,7.714,0,0,1-.1,1.314c-.031.156-.064.32-.093.476s-.064.28-.1.424a8.687,8.687,0,0,1-.871,2.122,9.765,9.765,0,0,1-1.023,1.418,4.1,4.1,0,0,1-.352.393,5.566,5.566,0,0,1-.59.528l-.042.041.011.021-.331.227a7.174,7.174,0,0,1-.818.539c-.134.083-.269.155-.414.227a8.129,8.129,0,0,1-1.107.477,10.334,10.334,0,0,1-1.108.31,5.313,5.313,0,0,1-.589.093,4.835,4.835,0,0,1-.549.064,2.217,2.217,0,0,1-.256.011l-.362.021v.02l-.373-.041a1.358,1.358,0,0,1-.2-.021,5.479,5.479,0,0,1-1.1-.2,4.541,4.541,0,0,1-.538-.156,3.979,3.979,0,0,1-.384-.134h-.01l-.217-.094a7.847,7.847,0,0,1-1.843-1.088l-.631-.506-.331-.331a10.1,10.1,0,0,1-1.48-1.8l-.218.393a.063.063,0,0,1-.083.031c-.011-.01-.021-.021-.021-.031l-.238-.414c0-.01-.01-.02-.02-.031l-.3-.165-.125-.064a.057.057,0,0,1-.025-.075v-.008c0-.01.01-.021.02-.031l.011-.011.415-.217a.023.023,0,0,0,.02-.021l.083-.155a3.911,3.911,0,0,1-.176-.384c-.17-.429-.382-.891-.5-1.211a10.96,10.96,0,0,1-.448-1.96c-1.915,0-3.887-.006-5.8-.006l-.011.631a12.272,12.272,0,0,0,.042,1.356,17.283,17.283,0,0,0,5.464,10.556l.652.6.01-.01.373.3a13.053,13.053,0,0,0,7.286,2.99l.7.064v-.021l.672-.031a14.336,14.336,0,0,0,7.545-2.559l.434-.3.01.011.652-.549a14.4,14.4,0,0,0,5.164-11.083A15.512,15.512,0,0,0,43.493,1170.15Zm-5.454-8.227a.111.111,0,0,1-.02.052l-.414.621a.073.073,0,0,0-.011.052l-.01.735a.1.1,0,0,1-.1.1h0a.1.1,0,0,1-.052-.021l-.6-.393v-.01l-.02-.011a.079.079,0,0,0-.052-.01l-.7-.02h-.03a.09.09,0,0,1-.094-.094v-.01a.062.062,0,0,1,.01-.042l.011-.02.393-.59.01-.01a.2.2,0,0,0,.021-.052l.01-.745a.092.092,0,0,1,.093-.093h0a.074.074,0,0,1,.052.01l.621.414c.021.01.031.02.052.02l.745.011a.093.093,0,0,1,.093.092h0Z" fill="url(#linear-gradient-3)"/>
      <path id="Caminho_1803" data-name="Caminho 1803" d="M22.528,1174.417l-.021.021-.424.227-.031.031-.011.021-.217.393a.065.065,0,0,1-.083.032c-.01-.011-.02-.022-.02-.032l-.238-.414c0-.01-.011-.02-.021-.03l-.3-.166-.124-.064a.057.057,0,0,1-.026-.075v-.008c0-.01.011-.021.021-.031l.01-.01.414-.218a.022.022,0,0,0,.021-.02l.082-.156.011-.02.145-.249a.053.053,0,0,1,.069-.028h0l.011.007a.022.022,0,0,1,.021.02l.228.425c.01.01.021.02.031.02l.424.228A.1.1,0,0,1,22.528,1174.417Z" fill="#fff"/>
      <path id="Caminho_1801-13" data-name="Caminho 1801-13" d="M36.136,1159.9a.415.415,0,0,1-.093.094l-.932.506-.568.311-.052.031a.2.2,0,0,0-.094.094l-.238.424v.02l-.331.6v.011l-.279.5a.215.215,0,0,1-.114.1.221.221,0,0,1-.2-.01.193.193,0,0,1-.092-.093l-.611-1.118-.238-.435a.214.214,0,0,0-.093-.093l-.166-.093-1.387-.755a.235.235,0,0,1-.093-.311.214.214,0,0,1,.093-.093l.269-.145.59-.331.57-.311h.01l.114-.064a.191.191,0,0,0,.093-.093l.2-.351.331-.6.32-.6a.231.231,0,0,1,.311-.083.24.24,0,0,1,.093.083l.849,1.553a.2.2,0,0,0,.093.092l1.553.849A.25.25,0,0,1,36.136,1159.9Z" fill="#fff"/>
    </g>
    <g id="Grupo_1381" data-name="Grupo 1381">
      <g id="Caminho_260-9" data-name="Caminho 260-9">
        <path id="Caminho_2210" data-name="Caminho 2210" d="M2.231,1192.817v6.708q-2.355-.129-4.645-.289-2.633-.183-5.189-.4c-1.051-.087-2.088-.18-3.118-.276a2.862,2.862,0,0,1-2.558-2.392c-.163-1.005,1.51-2.011,1.468-3.216-.055-1.685-1.735-3.325-1.542-4.671a2.845,2.845,0,0,1,3.094-2.414q2.053.194,4.162.368c1.025.087,2.058,0,3.079.125a5.2,5.2,0,0,1,2.82,1.328,7.036,7.036,0,0,1,1.72,2.129,6.3,6.3,0,0,1,.368.867A6.5,6.5,0,0,1,2.231,1192.817Z" fill="#efefef"/>
      </g>
      <g id="Caminho_260-10" data-name="Caminho 260-10">
        <path id="Caminho_2211" data-name="Caminho 2211" d="M55.444,1191.825v6.708q2.354-.129,4.645-.289,2.635-.183,5.189-.4c1.051-.087,2.088-.18,3.119-.276a2.86,2.86,0,0,0,2.556-2.392c.164-1.005-1.51-2.01-1.466-3.216.053-1.684,1.735-3.326,1.541-4.67a2.845,2.845,0,0,0-3.093-2.414q-2.053.194-4.162.368c-1.025.087-2.059,0-3.08.126a5.2,5.2,0,0,0-2.82,1.328,7.036,7.036,0,0,0-1.72,2.129,6.417,6.417,0,0,0-.367.867A6.51,6.51,0,0,0,55.444,1191.825Z" fill="#efefef"/>
      </g>
      <g id="Caminho_260-11" data-name="Caminho 260-11">
        <path id="Caminho_261-4" data-name="Caminho 261-4" d="M63.291,1199.858a2.864,2.864,0,0,1-2.568,2.419c-9.622.9-20.146,1.479-31.451,1.492-11.635.015-22.446-.568-32.3-1.494a2.862,2.862,0,0,1-2.559-2.391A26.02,26.02,0,0,1-5.665,1192a2.848,2.848,0,0,1,3.1-2.415c9.664.915,20.264,1.492,31.671,1.484,11.213-.008,21.64-.581,31.165-1.482a2.86,2.86,0,0,1,3.1,2.485,27.2,27.2,0,0,1-.08,7.788Z" fill="#f3f3f3"/>
      </g>
      <g id="Caminho_260-12" data-name="Caminho 260-12">
        <path id="Caminho_261-5" data-name="Caminho 261-5" d="M63.291,1199.858a2.864,2.864,0,0,1-2.568,2.419c-9.622.9-20.146,1.479-31.451,1.492-11.635.015-22.446-.568-32.3-1.494a2.862,2.862,0,0,1-2.559-2.391A26.02,26.02,0,0,1-5.665,1192a2.848,2.848,0,0,1,3.1-2.415c9.664.915,20.264,1.492,31.671,1.484,11.213-.008,21.64-.581,31.165-1.482a2.86,2.86,0,0,1,3.1,2.485,27.2,27.2,0,0,1-.08,7.788Z" fill="#f4f4f4"/>
      </g>
      <g id="Grupo_1380" data-name="Grupo 1380">
        <g id="Grupo_1379" data-name="Grupo 1379">
          <path id="Caminho_2212" data-name="Caminho 2212" d="M.966,1199.591a.542.542,0,0,1-.477-.263.564.564,0,0,1,.047-.565l2.411-4.461a1.018,1.018,0,0,1,.339-.386.752.752,0,0,1,.837.055.936.936,0,0,1,.277.427l1.807,4.746a.581.581,0,0,1-.027.572.505.505,0,0,1-.478.194.631.631,0,0,1-.422-.161,1.074,1.074,0,0,1-.239-.428l-.292-.812-2.7-.182-.391.765a1.2,1.2,0,0,1-.29.4A.573.573,0,0,1,.966,1199.591Zm2.635-4.348-1.058,2.121,1.854.126-.781-2.246Z" fill="#9a9a9a"/>
          <path id="Caminho_2213" data-name="Caminho 2213" d="M7.619,1199.942a.583.583,0,0,1-.615-.683l.239-4.51a.66.66,0,0,1,.19-.472.633.633,0,0,1,.484-.143.567.567,0,0,1,.61.52.587.587,0,0,1-.01.162L8.3,1198.9l2.2.115a.481.481,0,0,1,.527.431.634.634,0,0,1-.45.654.547.547,0,0,1-.134-.008Z" fill="#9a9a9a"/>
          <path id="Caminho_2214" data-name="Caminho 2214" d="M12.337,1200.177a.588.588,0,0,1-.645-.525.578.578,0,0,1,.006-.166l.18-4.463a.588.588,0,0,1,.525-.645.622.622,0,0,1,.167.007l2.869.115a.506.506,0,0,1,.086,1,.418.418,0,0,1-.127-.005l-2.317-.093-.055,1.355,2.128.087a.446.446,0,0,1,.493.393.457.457,0,0,1,0,.128.447.447,0,0,1-.4.488.453.453,0,0,1-.127-.006l-2.129-.085-.058,1.446,2.318.093a.44.44,0,0,1,.486.389.469.469,0,0,1,0,.124.444.444,0,0,1-.4.486.465.465,0,0,1-.124-.005Z" fill="#9a9a9a"/>
          <path id="Caminho_2215" data-name="Caminho 2215" d="M16.953,1200.426a.622.622,0,0,1-.4-.142.5.5,0,0,1-.177-.342.592.592,0,0,1,.144-.416l1.659-2.08-1.476-2.078a.6.6,0,0,1-.128-.427.519.519,0,0,1,.189-.333.592.592,0,0,1,.407-.124.828.828,0,0,1,.654.428l1.11,1.626,1.185-1.566a1.254,1.254,0,0,1,.321-.3.669.669,0,0,1,.365-.089.614.614,0,0,1,.4.142.5.5,0,0,1,.177.342.607.607,0,0,1-.151.425l-1.592,2,1.539,2.163a.59.59,0,0,1,.132.425.48.48,0,0,1-.189.332.694.694,0,0,1-.765.013,1.275,1.275,0,0,1-.307-.327l-1.165-1.687-1.244,1.623a1.174,1.174,0,0,1-.321.311A.644.644,0,0,1,16.953,1200.426Z" fill="#9a9a9a"/>
          <path id="Caminho_2216" data-name="Caminho 2216" d="M22.255,1200.554a.542.542,0,0,1-.492-.237.571.571,0,0,1,.015-.567l2.156-4.59a1,1,0,0,1,.318-.4.7.7,0,0,1,.421-.123.711.711,0,0,1,.418.132.966.966,0,0,1,.3.411l2.07,4.638a.58.58,0,0,1,.006.573.513.513,0,0,1-.468.22.652.652,0,0,1-.431-.137,1.085,1.085,0,0,1-.262-.415l-.337-.793-2.7-.03-.346.786a1.206,1.206,0,0,1-.268.412A.569.569,0,0,1,22.255,1200.554Zm2.385-4.49-.937,2.178,1.859.021-.905-2.2Z" fill="#9a9a9a"/>
          <path id="Caminho_2217" data-name="Caminho 2217" d="M28.863,1200.612c-.394,0-.593-.2-.6-.612l-.024-4.689a.674.674,0,0,1,.15-.478.535.535,0,0,1,.406-.167.594.594,0,0,1,.338.086,1.47,1.47,0,0,1,.281.281l2.682,3.384-.017-3.158a.531.531,0,0,1,.439-.609.551.551,0,0,1,.152,0,.53.53,0,0,1,.6.455.5.5,0,0,1,0,.145l.024,4.746a.623.623,0,0,1-.138.433.471.471,0,0,1-.376.163.655.655,0,0,1-.367-.089,1.342,1.342,0,0,1-.292-.286l-2.682-3.383.016,3.158Q29.455,1200.612,28.863,1200.612Z" fill="#9a9a9a"/>
          <path id="Caminho_2218" data-name="Caminho 2218" d="M35.1,1200.487a.589.589,0,0,1-.677-.485.577.577,0,0,1,0-.166l-.1-4.464a.589.589,0,0,1,.485-.677.551.551,0,0,1,.167,0l1.6-.035a3.262,3.262,0,0,1,2.311.7,3.23,3.23,0,0,1,.092,4.289,3.242,3.242,0,0,1-2.278.806Zm.586-1.057.922-.019a1.64,1.64,0,0,0,1.821-1.436,1.6,1.6,0,0,0-.011-.464,1.636,1.636,0,0,0-1.891-1.81l-.921.02Z" fill="#9a9a9a"/>
          <path id="Caminho_2219" data-name="Caminho 2219" d="M41.425,1200.4a.627.627,0,0,1-.483-.155.671.671,0,0,1-.183-.479l-.172-4.561a.575.575,0,0,1,.465-.669.539.539,0,0,1,.161-.006l2-.074a2.175,2.175,0,0,1,1.514.412,1.66,1.66,0,0,1,.574,1.287,1.716,1.716,0,0,1-.292,1.093,1.676,1.676,0,0,1-.928.624,1.248,1.248,0,0,1,.739.606l.545.926a.654.654,0,0,1,.087.577q-.1.272-.509.287a.786.786,0,0,1-.448-.1.918.918,0,0,1-.309-.343l-.844-1.426a.662.662,0,0,0-.316-.3,1.034,1.034,0,0,0-.43-.066l-.624.023.062,1.66a.677.677,0,0,1-.144.49A.613.613,0,0,1,41.425,1200.4Zm.51-3.263,1.143-.043q1.029-.038,1-.86t-1.057-.776l-1.143.042Z" fill="#9a9a9a"/>
          <path id="Caminho_2220" data-name="Caminho 2220" d="M47.154,1200.166a.633.633,0,0,1-.485-.15.673.673,0,0,1-.187-.477l-.224-4.625a.574.574,0,0,1,.445-.679.591.591,0,0,1,.163-.01.571.571,0,0,1,.66.465.586.586,0,0,1,0,.162l.225,4.625a.573.573,0,0,1-.441.678A.58.58,0,0,1,47.154,1200.166Z" fill="#9a9a9a"/>
          <path id="Caminho_2221" data-name="Caminho 2221" d="M50.936,1199.964a.635.635,0,0,1-.486-.144.677.677,0,0,1-.193-.476l-.243-4.155-1.453.085a.47.47,0,0,1-.556-.362.487.487,0,0,1-.009-.132.469.469,0,0,1,.5-.557l4.181-.244a.469.469,0,0,1,.555.362.45.45,0,0,1,.008.132.469.469,0,0,1-.371.55.461.461,0,0,1-.129.007l-1.454.084.244,4.155a.694.694,0,0,1-.133.494A.614.614,0,0,1,50.936,1199.964Z" fill="#9a9a9a"/>
          <path id="Caminho_2222" data-name="Caminho 2222" d="M53.628,1199.805a.542.542,0,0,1-.509-.194.562.562,0,0,1-.031-.567l1.768-4.752a1,1,0,0,1,.283-.428.7.7,0,0,1,.409-.157.717.717,0,0,1,.427.1.945.945,0,0,1,.333.384l2.447,4.452a.58.58,0,0,1,.052.569.507.507,0,0,1-.447.258.639.639,0,0,1-.44-.1,1.066,1.066,0,0,1-.3-.391l-.4-.762-2.7.192-.281.813a1.182,1.182,0,0,1-.232.433A.556.556,0,0,1,53.628,1199.805Zm2.007-4.671-.754,2.248,1.854-.133-1.083-2.116Z" fill="#9a9a9a"/>
        </g>
      </g>
    </g>
  </g>
</svg>
