<svg xmlns="http://www.w3.org/2000/svg" xmlns:xlink="http://www.w3.org/1999/xlink" width="66.696" height="66.986" viewBox="0 0 66.696 66.986">
  <defs>
    <linearGradient id="linear-gradient" x1="0.157" y1="0.251" x2="0.933" y2="0.83" gradientUnits="objectBoundingBox">
      <stop offset="0.307" stop-color="#e29abd"/>
      <stop offset="0.98" stop-color="#00a874"/>
    </linearGradient>
    <linearGradient id="linear-gradient-2" x1="-0.07" y1="0.055" x2="1.07" y2="0.945" gradientUnits="objectBoundingBox">
      <stop offset="0.307" stop-color="#d9abbe"/>
      <stop offset="0.98" stop-color="#00a874"/>
    </linearGradient>
    <linearGradient id="linear-gradient-3" x1="0.123" y1="0.282" x2="0.895" y2="0.859" gradientUnits="objectBoundingBox">
      <stop offset="0.307" stop-color="#d47da3"/>
      <stop offset="0.98" stop-color="#00a874"/>
    </linearGradient>
  </defs>
  <g id="Grupo_2037" data-name="Grupo 2037" transform="translate(-146.569 -366.335)">
    <path id="Elipse_30-4" data-name="Elipse 30-4" d="M-422.417-1789.076a31.683,31.683,0,0,1,31.683,31.683,31.683,31.683,0,0,1-31.683,31.683,31.683,31.683,0,0,1-31.683-31.683,31.683,31.683,0,0,1,31.683-31.683Z" transform="translate(602.1 2157.076)" fill="#f4de9b" stroke="#ed7100" stroke-width="2.332"/>
    <g id="Grupo_1955" data-name="Grupo 1955" transform="matrix(0.974, -0.225, 0.225, 0.974, 4113.197, 2724.1)">
      <path id="Caminho_1802" data-name="Caminho 1802" d="M-3298.75-3151.907v.012a.134.134,0,0,1-.025.064l-.509.764a.094.094,0,0,0-.013.064l-.012.9a.127.127,0,0,1-.127.127.124.124,0,0,1-.064-.026l-.74-.484v-.012l-.025-.014a.1.1,0,0,0-.064-.012l-.867-.025h-.037c-.064,0-.128-.052-.115-.115v-.012a.082.082,0,0,1,.012-.052l.014-.024.483-.726.012-.012a.215.215,0,0,0,.026-.064l.012-.917a.114.114,0,0,1,.115-.114.1.1,0,0,1,.064.012l.764.51c.026.012.039.024.064.024l.917.014a.114.114,0,0,1,.115.113Z" transform="translate(4.911 3.078)" fill="#fff"/>
      <g id="Grupo_1377" data-name="Grupo 1377" transform="translate(-3315.49 -3156.35)">
        <path id="Caminho_2209" data-name="Caminho 2209" d="M-3295.459-3141.1c0-.064-.013-.115-.013-.178-.013-.1-.026-.2-.038-.293s-.024-.167-.038-.255c-.023-.192-.063-.394-.1-.586a16.426,16.426,0,0,0-1.235-3.731c-.089-.216-.2-.433-.305-.649-.217-.458-.445-.891-.7-1.324-.126-.217-.253-.445-.394-.674-.165-.281-.332-.549-.5-.8-.045-.071-.092-.141-.138-.213-.328-.487-.673-.978-1.04-1.477v-.02l-.007-.01.293-.523a.258.258,0,0,1,.115-.115l.064-.038.7-.382,1.147-.624a.459.459,0,0,0,.113-.115.3.3,0,0,0-.113-.382l-1.911-1.044a.254.254,0,0,1-.115-.115l-1.045-1.91a.294.294,0,0,0-.114-.1.283.283,0,0,0-.382.1l-.394.738-.408.738-.241.434a.255.255,0,0,1-.115.115l-.138.077,0,.005h-.012c-.095-.115-.192-.224-.291-.331-.05-.052-.1-.106-.15-.156a2.505,2.505,0,0,0-.242-.281l-.56-.6c-.243-.241-.473-.483-.7-.726l-.315-.315c-.3-.305-.586-.56-.8-.776l-.281-.255-.253-.243v-.012l-.549.483c-.535.485-1.324,1.21-2.228,2.14a4.82,4.82,0,0,0-.344.369,4.473,4.473,0,0,0-.357.357c-.241.255-.484.522-.726.788l-.573.65c-.446.522-.9,1.082-1.35,1.653a4.926,4.926,0,0,0-.315.433,2.813,2.813,0,0,0-.165.229,3.205,3.205,0,0,0-.2.268c-.127.165-.241.331-.357.51a4.829,4.829,0,0,0-.356.522c-.09.127-.166.255-.243.383a.517.517,0,0,0-.1.14l-.04.078c-.024.013-.024.037-.036.063a2.987,2.987,0,0,0-.167.267.784.784,0,0,0-.09.128c-.177.305-.357.624-.522.93a1.954,1.954,0,0,0-.128.216c-.139.28-.292.552-.407.827-.013.013-.013.026-.025.052-.026.063-.064.127-.09.191-.28.61-.508,1.209-.709,1.8-.012.026-.012.05-.024.078a1.008,1.008,0,0,0-.052.191l-.038.116a3.134,3.134,0,0,0-.1.356,2.638,2.638,0,0,0-.089.331c0,.026-.012.052-.012.079-.039.166-.078.315-.1.473a7.48,7.48,0,0,0-.126.752c0,.038-.014.078-.014.115v.064a4.129,4.129,0,0,0-.049.674c0,.079-.014.153-.014.229s-.014.167-.014.242v.788a13.7,13.7,0,0,0,.552,2.412c.144.394.4.962.612,1.49a4.978,4.978,0,0,0,.216.473l-.1.191a.027.027,0,0,1-.025.026l-.51.267-.012.014c-.013.012-.027.026-.027.038l0,.01a.069.069,0,0,0,.032.092l.153.079.369.2c.012.014.025.026.025.038l.292.51c0,.012.014.026.026.038a.079.079,0,0,0,.1-.038l.267-.484a12.489,12.489,0,0,0,1.821,2.216l.407.408.777.623a9.685,9.685,0,0,0,2.268,1.339l.267.115h.012q.233.094.472.165a5.529,5.529,0,0,0,.663.192,6.776,6.776,0,0,0,1.35.241,1.427,1.427,0,0,0,.241.024l.459.052v-.024l.446-.028a2.427,2.427,0,0,0,.315-.012,6.043,6.043,0,0,0,.676-.078,6.651,6.651,0,0,0,.725-.115,12.821,12.821,0,0,0,1.363-.382,10.191,10.191,0,0,0,1.362-.587c.178-.089.344-.177.51-.28a8.949,8.949,0,0,0,1.006-.663l.407-.279-.013-.026.052-.051a6.868,6.868,0,0,0,.726-.65,4.847,4.847,0,0,0,.432-.483,12.062,12.062,0,0,0,1.26-1.745,10.611,10.611,0,0,0,1.071-2.611c.048-.177.089-.344.127-.522s.076-.393.114-.585a9.439,9.439,0,0,0,.126-1.617v-.079c0-.2-.012-.407-.024-.611Zm-12.744,11.134a9.474,9.474,0,0,0,1.35.243A6.739,6.739,0,0,1-3308.2-3129.966Zm9.627-2.852a7.481,7.481,0,0,1-.726.65l.381-.345h0a10.9,10.9,0,0,0,.775-.789A5.228,5.228,0,0,1-3298.576-3132.818Zm3.006-5.947a11.334,11.334,0,0,0,.114-1.618h.013A9.793,9.793,0,0,1-3295.57-3138.765Zm.114-1.695-.012-.611c.012.2.026.407.026.611Z" transform="translate(3316.831 3158.146)" fill="url(#linear-gradient)"/>
      </g>
      <g id="Grupo_997" data-name="Grupo 997" transform="translate(-3322.645 -3165.933)">
        <path id="Caminho_1793" data-name="Caminho 1793" d="M-3304.781-3165.933l-.013,9.563-.552.485c-.534.484-1.324,1.209-2.229,2.139a4.9,4.9,0,0,0-.343.369c-.125.113-.244.233-.356.357-.242.256-.485.523-.726.787l-.573.65c-.446.522-.9,1.082-1.35,1.654a4.906,4.906,0,0,0-.315.434,2.432,2.432,0,0,0-.165.229,3.027,3.027,0,0,0-.2.268c-.128.165-.242.33-.357.51a4.612,4.612,0,0,0-.356.522c-.089.126-.165.255-.241.381a.524.524,0,0,0-.1.14l-.038.078c-.026.012-.026.038-.038.064a2.787,2.787,0,0,0-.166.267.813.813,0,0,0-.089.128c-.178.3-.357.622-.523.929a2.074,2.074,0,0,0-.127.217c-.139.28-.293.552-.407.828-.012.012-.012.024-.026.05-.026.064-.063.126-.089.191a18.856,18.856,0,0,0-.709,1.8c-.014.026-.014.052-.026.079a.925.925,0,0,0-.051.192l-.04.115a3.079,3.079,0,0,0-.1.355,2.36,2.36,0,0,0-.09.332c0,.025-.012.051-.012.078-.038.165-.079.316-.1.473a7.049,7.049,0,0,0-.126.752c0,.038-.014.079-.014.115v.064a4.066,4.066,0,0,0-.051.674c0,.079-.012.153-.012.229s-.014.166-.014.242v.786h-7.132l.1-.877c1.248-10.631,11.906-21.332,16.441-25.435Z" transform="translate(3322.645 3165.933)" fill="#f7dae8"/>
      </g>
      <path id="Caminho_1795" data-name="Caminho 1795" d="M-3305.549-3155.552c.153.153.293.315.432.484h.014C-3305.244-3155.234-3305.4-3155.4-3305.549-3155.552Zm2.992,3.629v.026c.421.573.814,1.132,1.185,1.694q-.574-.9-1.185-1.719Z" transform="translate(3.942 2.394)" fill="url(#linear-gradient-2)"/>
      <path id="Caminho_1796" data-name="Caminho 1796" d="M-3287.128-3138.693l-.1-.674h.012l-.217-.968c-2.318-10.3-11.946-20.44-15.985-24.311l-1.339-1.286-.012,9.564v.012l.253.242.281.254c.217.217.5.473.8.777l.315.315c.229.242.459.485.7.726l.56.6a2.438,2.438,0,0,1,.242.28c.152.153.305.315.445.483l.14-.078a.25.25,0,0,0,.115-.115l.241-.433.408-.738.394-.738a.283.283,0,0,1,.382-.1.292.292,0,0,1,.114.1l1.045,1.91a.254.254,0,0,0,.115.115l1.911,1.045a.306.306,0,0,1,.114.382.5.5,0,0,1-.114.116l-1.147.622-.7.383-.064.038a.261.261,0,0,0-.115.115l-.293.524q.611.82,1.185,1.719c.164.253.331.521.5.8.14.229.268.458.394.675.255.434.484.867.7,1.324.1.217.216.433.3.649a16.448,16.448,0,0,1,1.236,3.732c.038.192.078.394.1.586.012.09.026.166.038.256s.026.19.038.292c0,.064.013.114.013.179l.012.217c.012.2.025.407.025.612v.079a9.455,9.455,0,0,1-.127,1.616c-.038.192-.079.394-.114.586s-.079.344-.127.522a10.657,10.657,0,0,1-1.071,2.611,11.949,11.949,0,0,1-1.26,1.745,4.941,4.941,0,0,1-.432.483,6.935,6.935,0,0,1-.726.65l-.052.051.013.026-.407.279a8.908,8.908,0,0,1-1.007.663c-.165.1-.331.191-.509.279a10,10,0,0,1-1.362.587,12.779,12.779,0,0,1-1.363.381,6.368,6.368,0,0,1-.725.115,5.935,5.935,0,0,1-.676.079,2.616,2.616,0,0,1-.315.013l-.445.026v.025l-.459-.051a1.534,1.534,0,0,1-.241-.026,6.809,6.809,0,0,1-1.351-.241,5.758,5.758,0,0,1-.662-.192q-.24-.071-.472-.165h-.012l-.267-.115a9.652,9.652,0,0,1-2.268-1.339l-.776-.622-.408-.408a12.51,12.51,0,0,1-1.821-2.215l-.267.483a.078.078,0,0,1-.1.038c-.014-.012-.026-.026-.026-.038l-.292-.509c0-.012-.012-.025-.025-.038l-.369-.2-.154-.079a.071.071,0,0,1-.032-.092l.007-.01c0-.012.013-.026.026-.038l.013-.013.51-.267a.028.028,0,0,0,.025-.026l.1-.191a5.065,5.065,0,0,1-.217-.473c-.209-.528-.469-1.1-.612-1.49a13.6,13.6,0,0,1-.552-2.412c-2.356,0-4.783-.007-7.139-.007l-.014.776a15.1,15.1,0,0,0,.051,1.669,21.272,21.272,0,0,0,6.724,12.99l.8.739.012-.012.459.369a16.075,16.075,0,0,0,8.966,3.68l.866.079v-.026l.827-.038a17.644,17.644,0,0,0,9.285-3.15l.534-.37.012.013.8-.676a17.712,17.712,0,0,0,6.355-13.638A19.127,19.127,0,0,0-3287.128-3138.693Zm-6.712-10.124a.131.131,0,0,1-.025.064l-.509.764a.1.1,0,0,0-.013.064l-.012.9a.127.127,0,0,1-.127.127.125.125,0,0,1-.064-.026l-.74-.484v-.012l-.025-.014a.1.1,0,0,0-.064-.012l-.866-.025h-.037c-.064,0-.128-.052-.116-.115v-.012a.083.083,0,0,1,.012-.052l.014-.025.483-.726.012-.012a.212.212,0,0,0,.026-.064l.012-.917a.115.115,0,0,1,.115-.115.1.1,0,0,1,.064.012l.764.51c.026.013.038.025.064.025l.917.013a.114.114,0,0,1,.114.114h0Z" transform="translate(0 0.001)" fill="url(#linear-gradient-3)"/>
      <path id="Caminho_1803" data-name="Caminho 1803" d="M-3314.4-3139.348l-.026.026-.522.279-.038.038-.013.026-.267.483a.079.079,0,0,1-.1.04c-.013-.013-.025-.027-.025-.04l-.293-.509c0-.012-.014-.024-.026-.037l-.369-.2-.153-.078a.07.07,0,0,1-.032-.093l.006-.01c0-.012.014-.026.026-.038l.012-.013.509-.268a.027.027,0,0,0,.026-.024l.1-.192.013-.024.179-.307a.066.066,0,0,1,.088-.033l.013.009a.026.026,0,0,1,.026.024l.28.523c.012.012.026.024.038.024l.522.281A.118.118,0,0,1-3314.4-3139.348Z" transform="translate(1.47 5.903)" fill="#fff"/>
      <path id="Caminho_1801" data-name="Caminho 1801" d="M-3299.848-3153.381a.48.48,0,0,1-.114.115l-1.147.623-.7.383-.064.038a.245.245,0,0,0-.115.116l-.293.521v.025l-.408.738v.014l-.343.611a.265.265,0,0,1-.14.127.273.273,0,0,1-.242-.012.249.249,0,0,1-.113-.115l-.752-1.376-.293-.535a.254.254,0,0,0-.115-.114l-.2-.115-1.707-.929a.289.289,0,0,1-.115-.383.258.258,0,0,1,.115-.115l.331-.178.726-.408.7-.382h.012l.14-.08a.246.246,0,0,0,.115-.114l.241-.432.407-.74.394-.739a.285.285,0,0,1,.383-.1.3.3,0,0,1,.115.1l1.045,1.911a.24.24,0,0,0,.115.113l1.911,1.045A.306.306,0,0,1-3299.848-3153.381Z" transform="translate(3.667 2.066)" fill="#fff"/>
    </g>
    <path id="Elipse_30-4-2" data-name="Elipse 30-4-2" d="M-422.183-1789.076a31.683,31.683,0,0,1,31.683,31.683,31.683,31.683,0,0,1-31.683,31.683,31.683,31.683,0,0,1-31.683-31.683,31.683,31.683,0,0,1,31.683-31.683Z" transform="translate(602.1 2157.076)" fill="none" stroke="#ffc400" stroke-width="3.33"/>
  </g>
</svg>
