<svg id="Grupo_2039" data-name="Grupo 2039" xmlns="http://www.w3.org/2000/svg" width="65.834" height="55.546" viewBox="0 0 65.834 55.546">
  <path id="Caminho_2882" data-name="Caminho 2882" d="M177.937,347.057h2.648V340.41h-5.722V342.7l2.961.012a3.11,3.11,0,0,1-2.7,2,3.054,3.054,0,0,1-3.012-3.273,3.023,3.023,0,0,1,2.912-3.411,2.389,2.389,0,0,1,2.212,1.449l2.711-1.287a5.451,5.451,0,0,0-4.822-2.81,5.929,5.929,0,0,0-.75,11.831,4.14,4.14,0,0,0,3.561-1.424Zm4.621.011h7.859v-2.487H185.67v-2.236h4v-2.41h-3.985v-1.962h4.735V335.45h-7.859Zm42.5-11.619.013,7.271c0,2.811,1.713,4.41,4.872,4.348,3.062-.063,4.585-1.413,4.847-4.323v-7.3h-3.073V342.4a1.654,1.654,0,0,1-1.774,1.949A1.628,1.628,0,0,1,228.1,342.4V335.45Zm-28.519,5.457a1.5,1.5,0,0,0,0-3.005,4.941,4.941,0,0,0-.753,0h-.654v2.98l.969.025A2.568,2.568,0,0,0,196.536,340.907Zm0-5.444a5.056,5.056,0,0,1,2.981.767,3.478,3.478,0,0,1,1.37,2.892,3.132,3.132,0,0,1-2.665,3.32l3.357,4.628h-3.76l-1.284-2-1.407-2.214v4.213h-3.043V335.45h3.6C195.971,335.45,196.26,335.463,196.536,335.463Zm11.143.037a5.319,5.319,0,0,1,2.566.893,6.079,6.079,0,0,1,2.464,4.878,5.764,5.764,0,0,1-2.828,5.131,6.617,6.617,0,0,1-2.2.6,11.892,11.892,0,0,1-1.383.063h-3.458V335.45h4.048C207.151,335.463,207.415,335.475,207.68,335.5Zm0,8.752c1.094-.265,1.811-1.132,1.76-3.056-.05-1.811-.7-2.652-1.76-2.93a3.737,3.737,0,0,0-.767-.112h-.994v6.173h.956A4.161,4.161,0,0,0,207.68,344.252Zm10.884-8.79h1.761l4.263,11.607h-3.333l-.629-2.138h-4.149l-.578,2.138h-3.283l4.025-11.607Zm0,7.067h1.358l-1.358-4.1-.087-.276-1.271,4.376Z" transform="translate(-168.953 -302.695)" fill="#003062"/>
  <rect id="Retângulo_439" data-name="Retângulo 439" width="28.068" height="27.688" transform="translate(18.883 0)" fill="#003062"/>
  <path id="Caminho_2883" data-name="Caminho 2883" d="M345.809,196.593h-2.017v-.956a4.648,4.648,0,0,1-3.258,1.246,5.945,5.945,0,0,1-.058-11.888,5.953,5.953,0,0,1,5.311,3.446l-1.744,1.046a4.39,4.39,0,0,0-3.528-2.277,3.725,3.725,0,0,0,.039,7.45,3.528,3.528,0,0,0,2.966-1.6h-2.987v-2.128h5.276Z" transform="translate(-313.038 -171.964)" fill="#fff"/>
  <path id="Caminho_2884" data-name="Caminho 2884" d="M422.4,190.936h5.276v2.128h-2.986a3.526,3.526,0,0,0,2.965,1.6,3.725,3.725,0,0,0,.04-7.451,4.391,4.391,0,0,0-3.528,2.278l-1.744-1.046A5.954,5.954,0,0,1,427.73,185a5.945,5.945,0,0,1-.059,11.888,4.649,4.649,0,0,1-3.259-1.247v.957H422.4Z" transform="translate(-389.288 -171.965)" fill="#fff"/>
  <path id="Caminho_2885" data-name="Caminho 2885" d="M236.217,468.889a.988.988,0,0,0,.62-.2.6.6,0,0,0,.255-.5v-.3a.045.045,0,0,0-.051-.051h-.6a1.092,1.092,0,0,0-.6.144.46.46,0,0,0-.221.408.435.435,0,0,0,.166.361.682.682,0,0,0,.437.132m.17-3.609a2.416,2.416,0,0,1,.985.191,1.625,1.625,0,0,1,.675.522,1.222,1.222,0,0,1,.242.739v2.836a.128.128,0,0,1-.144.144h-.909a.128.128,0,0,1-.144-.144v-.2c0-.023-.006-.035-.017-.038s-.025,0-.042.021a1.487,1.487,0,0,1-1.163.433,1.624,1.624,0,0,1-1.053-.323,1.151,1.151,0,0,1-.4-.951,1.217,1.217,0,0,1,.459-1.015,2.072,2.072,0,0,1,1.308-.361h.858a.045.045,0,0,0,.051-.051V466.9a.559.559,0,0,0-.174-.437.73.73,0,0,0-.505-.157.917.917,0,0,0-.42.085.447.447,0,0,0-.225.238.161.161,0,0,1-.17.11l-.943-.119a.215.215,0,0,1-.106-.038.079.079,0,0,1-.03-.081,1.135,1.135,0,0,1,.293-.629,1.664,1.664,0,0,1,.662-.437A2.543,2.543,0,0,1,236.387,465.28Zm-4.025,3.091a2.2,2.2,0,0,0-.009-1.715.648.648,0,0,0-.569-.331.661.661,0,0,0-.595.323,1.719,1.719,0,0,0-.2.892,1.743,1.743,0,0,0,.178.832.666.666,0,0,0,.62.365A.634.634,0,0,0,232.362,468.371Zm.178-4.458a.128.128,0,0,1,.144-.144h.909a.128.128,0,0,1,.144.144v5.656a.128.128,0,0,1-.144.144h-.909a.128.128,0,0,1-.144-.144v-.229q0-.034-.021-.038c-.014,0-.027,0-.038.021a1.146,1.146,0,0,1-.968.459,1.629,1.629,0,0,1-1.023-.344,1.753,1.753,0,0,1-.616-.9,3.084,3.084,0,0,1-.144-1.019,2.982,2.982,0,0,1,.161-1.053,1.775,1.775,0,0,1,.616-.866,1.627,1.627,0,0,1,1.006-.323,1.178,1.178,0,0,1,.968.416c.011.017.024.023.038.017s.021-.02.021-.042Zm-4.586,5.8a.128.128,0,0,1-.144-.144v-5.656a.128.128,0,0,1,.144-.144h.909a.127.127,0,0,1,.144.144v5.656a.128.128,0,0,1-.144.144Zm-2.955-.96a.688.688,0,0,0,.467-.17.946.946,0,0,0,.28-.467,2.142,2.142,0,0,0,.068-.594,2.3,2.3,0,0,0-.068-.6.892.892,0,0,0-.28-.45.735.735,0,0,0-.484-.161.722.722,0,0,0-.476.161.89.89,0,0,0-.28.45,2.3,2.3,0,0,0-.068.6,2.257,2.257,0,0,0,.068.594.93.93,0,0,0,.285.467A.727.727,0,0,0,225,468.753Zm0,1.028a2.025,2.025,0,0,1-1.231-.374,1.866,1.866,0,0,1-.7-1.019,3.028,3.028,0,0,1-.119-.866,2.853,2.853,0,0,1,.127-.9,1.833,1.833,0,0,1,.7-.985,2.073,2.073,0,0,1,1.227-.357,1.991,1.991,0,0,1,1.193.357,1.847,1.847,0,0,1,.692.977,2.873,2.873,0,0,1,.127.892,3.325,3.325,0,0,1-.11.858,1.941,1.941,0,0,1-.7,1.04A1.964,1.964,0,0,1,225,469.78Zm-4.187-4.5a1.35,1.35,0,0,1,1.036.4,1.578,1.578,0,0,1,.374,1.121v2.768a.128.128,0,0,1-.144.144h-.909a.128.128,0,0,1-.144-.144v-2.505a.809.809,0,0,0-.178-.552.6.6,0,0,0-.475-.2.627.627,0,0,0-.484.2.773.773,0,0,0-.187.543v2.514a.128.128,0,0,1-.144.144h-.9a.128.128,0,0,1-.144-.144v-2.505a.789.789,0,0,0-.187-.548.621.621,0,0,0-.484-.208.66.66,0,0,0-.454.161.681.681,0,0,0-.217.45v2.65a.128.128,0,0,1-.144.144h-.909a.128.128,0,0,1-.144-.144v-4.076a.128.128,0,0,1,.144-.144h.909a.128.128,0,0,1,.144.144v.272c0,.023.007.037.021.043s.027,0,.038-.026a1.214,1.214,0,0,1,1.07-.5,1.5,1.5,0,0,1,.739.174,1.175,1.175,0,0,1,.484.505c.006.023.016.033.03.03a.061.061,0,0,0,.038-.03,1.3,1.3,0,0,1,.51-.51A1.477,1.477,0,0,1,220.813,465.28Zm-9.3,1.028a.758.758,0,0,0-.454.132.664.664,0,0,0-.25.369q-.042.161-.051.212t.042.051h1.444c.028,0,.043-.011.043-.034a.615.615,0,0,0-.034-.2.765.765,0,0,0-.263-.391A.754.754,0,0,0,211.514,466.307Zm.221,2.463a1.112,1.112,0,0,0,.858-.391.146.146,0,0,1,.11-.059.129.129,0,0,1,.093.042l.484.467a.147.147,0,0,1,.051.1.158.158,0,0,1-.034.1,1.935,1.935,0,0,1-.718.548,2.274,2.274,0,0,1-.955.2,2.048,2.048,0,0,1-1.295-.4,1.951,1.951,0,0,1-.692-1.1,2.99,2.99,0,0,1-.1-.79,3.179,3.179,0,0,1,.093-.832,1.814,1.814,0,0,1,.684-1.011,1.985,1.985,0,0,1,1.219-.382,1.776,1.776,0,0,1,1.32.492,2.468,2.468,0,0,1,.633,1.384q.034.28.051.62a.128.128,0,0,1-.144.144h-2.607a.045.045,0,0,0-.051.051,1.228,1.228,0,0,0,.059.263.693.693,0,0,0,.335.4A1.225,1.225,0,0,0,211.735,468.77Zm-4.637,1a2.792,2.792,0,0,1-.994-.161,1.482,1.482,0,0,1-.654-.45,1.023,1.023,0,0,1-.229-.654v-.042a.128.128,0,0,1,.144-.144h.858q.144,0,.144.051v.06a.378.378,0,0,0,.2.318.938.938,0,0,0,.518.131.877.877,0,0,0,.467-.11.33.33,0,0,0,.178-.289.245.245,0,0,0-.153-.229,2.591,2.591,0,0,0-.5-.161,5.241,5.241,0,0,1-.62-.2,2.69,2.69,0,0,1-.875-.459.964.964,0,0,1-.323-.781,1.182,1.182,0,0,1,.493-1,2.1,2.1,0,0,1,1.291-.369,2.436,2.436,0,0,1,.955.174,1.458,1.458,0,0,1,.637.488,1.2,1.2,0,0,1,.225.713.089.089,0,0,1-.038.072.17.17,0,0,1-.106.03h-.832q-.145,0-.144-.051v-.051a.373.373,0,0,0-.187-.314.876.876,0,0,0-.5-.127.942.942,0,0,0-.463.1.311.311,0,0,0-.183.28.272.272,0,0,0,.174.255,2.96,2.96,0,0,0,.573.178,4.186,4.186,0,0,1,.476.127,2.753,2.753,0,0,1,.959.459.985.985,0,0,1,.348.815,1.132,1.132,0,0,1-.5.981A2.29,2.29,0,0,1,207.1,469.772Zm-6.233-1.019a.688.688,0,0,0,.467-.17.945.945,0,0,0,.28-.467,2.142,2.142,0,0,0,.068-.594,2.3,2.3,0,0,0-.068-.6.891.891,0,0,0-.28-.45.734.734,0,0,0-.484-.161.722.722,0,0,0-.476.161.89.89,0,0,0-.28.45,2.3,2.3,0,0,0-.068.6,2.259,2.259,0,0,0,.068.594.93.93,0,0,0,.285.467A.727.727,0,0,0,200.865,468.753Zm0,1.028a2.025,2.025,0,0,1-1.231-.374,1.866,1.866,0,0,1-.7-1.019,3.027,3.027,0,0,1-.119-.866,2.852,2.852,0,0,1,.127-.9,1.833,1.833,0,0,1,.7-.985,2.073,2.073,0,0,1,1.227-.357,1.991,1.991,0,0,1,1.193.357,1.848,1.848,0,0,1,.692.977,2.873,2.873,0,0,1,.128.892,3.335,3.335,0,0,1-.11.858,1.942,1.942,0,0,1-.7,1.04A1.964,1.964,0,0,1,200.865,469.78Zm-2.9-4.492a.9.9,0,0,1,.45.1.146.146,0,0,1,.076.178l-.161.892c-.006.051-.021.082-.047.093a.217.217,0,0,1-.123,0,1.034,1.034,0,0,0-.246-.034,1.763,1.763,0,0,0-.2.017.834.834,0,0,0-.518.225.694.694,0,0,0-.212.531v2.276a.128.128,0,0,1-.144.144h-.909a.128.128,0,0,1-.144-.144v-4.076a.128.128,0,0,1,.144-.144h.909a.128.128,0,0,1,.144.144v.263c0,.023.006.037.017.043s.025,0,.042-.017A1.06,1.06,0,0,1,197.961,465.288Zm-4.254.2a.128.128,0,0,1,.144-.144h.909a.128.128,0,0,1,.144.144v4.076a.128.128,0,0,1-.144.144h-.909a.128.128,0,0,1-.144-.144v-.229c0-.023-.007-.035-.021-.038a.037.037,0,0,0-.038.021,1.21,1.21,0,0,1-1.045.45,1.489,1.489,0,0,1-1.061-.391,1.429,1.429,0,0,1-.416-1.1v-2.794a.128.128,0,0,1,.144-.144h.9a.128.128,0,0,1,.144.144v2.5a.817.817,0,0,0,.183.552.63.63,0,0,0,.505.212.67.67,0,0,0,.476-.174.755.755,0,0,0,.229-.454Zm-3.269.671a.128.128,0,0,1-.144.144h-.764a.045.045,0,0,0-.051.051v1.758a.617.617,0,0,0,.115.412.466.466,0,0,0,.369.132h.238a.128.128,0,0,1,.144.144v.73a.142.142,0,0,1-.144.153q-.323.017-.467.017a1.884,1.884,0,0,1-1.053-.238,1.014,1.014,0,0,1-.357-.883v-2.225a.045.045,0,0,0-.051-.051h-.433a.128.128,0,0,1-.144-.144v-.671a.128.128,0,0,1,.144-.144h.433a.045.045,0,0,0,.051-.051v-.959a.128.128,0,0,1,.144-.144h.866a.128.128,0,0,1,.144.144v.959a.045.045,0,0,0,.051.051h.764a.128.128,0,0,1,.144.144Zm-4.586-.671a.128.128,0,0,1,.144-.144h.909a.128.128,0,0,1,.144.144v4.076a.128.128,0,0,1-.144.144H186a.128.128,0,0,1-.144-.144v-.229q0-.034-.021-.038a.037.037,0,0,0-.038.021,1.21,1.21,0,0,1-1.045.45,1.489,1.489,0,0,1-1.061-.391,1.429,1.429,0,0,1-.416-1.1v-2.794a.128.128,0,0,1,.144-.144h.9a.128.128,0,0,1,.144.144v2.5a.817.817,0,0,0,.183.552.63.63,0,0,0,.505.212.67.67,0,0,0,.476-.174.754.754,0,0,0,.229-.454Zm-3.388-.153a.128.128,0,0,1,.144.144v.722a.128.128,0,0,1-.144.144h-.773a.045.045,0,0,0-.051.051v3.167a.128.128,0,0,1-.144.144h-.909a.127.127,0,0,1-.144-.144V466.4a.045.045,0,0,0-.051-.051h-.45a.128.128,0,0,1-.144-.144v-.722a.128.128,0,0,1,.144-.144h.45a.045.045,0,0,0,.051-.051v-.178a1.716,1.716,0,0,1,.161-.82.9.9,0,0,1,.522-.416,2.956,2.956,0,0,1,1-.106h.28a.128.128,0,0,1,.144.144v.6a.128.128,0,0,1-.144.144h-.238a.6.6,0,0,0-.412.123.592.592,0,0,0-.115.42v.085a.045.045,0,0,0,.051.051Zm-7.226,3.439a1.006,1.006,0,0,0,.756-.3,1.085,1.085,0,0,0,.289-.79v-1.868a1.109,1.109,0,0,0-.284-.794,1,1,0,0,0-.76-.3.985.985,0,0,0-.752.3,1.109,1.109,0,0,0-.285.794v1.868a1.1,1.1,0,0,0,.285.79A.992.992,0,0,0,175.237,468.778Zm0,1.028a2.429,2.429,0,0,1-1.168-.272,1.954,1.954,0,0,1-.786-.76,2.221,2.221,0,0,1-.28-1.125v-1.817a2.181,2.181,0,0,1,.28-1.113,1.933,1.933,0,0,1,.786-.751,2.7,2.7,0,0,1,2.344,0,1.933,1.933,0,0,1,.785.751,2.18,2.18,0,0,1,.28,1.113v1.817a2.243,2.243,0,0,1-.28,1.129,1.916,1.916,0,0,1-.785.76A2.477,2.477,0,0,1,175.237,469.806Z" transform="translate(-172.474 -414.26)" fill="#003062"/>
</svg>
