<svg id="Grupo_2040" data-name="Grupo 2040" xmlns="http://www.w3.org/2000/svg" width="101.545" height="33.708" viewBox="0 0 101.545 33.708">
  <g id="Grupo_1566" data-name="Grupo 1566" transform="translate(0 0)">
    <path id="Caminho_2849" data-name="Caminho 2849" d="M156.893,319.724l.729-.345.293.619-.729.345Zm1.687-.8,4.213-1.993.293.619-4.213,1.993Z" transform="translate(-156.893 -293.908)" fill="#b50014"/>
    <path id="Caminho_2850" data-name="Caminho 2850" d="M158.686,294.808l-.1-.686.7-.1a2.085,2.085,0,0,1-1.022-1.506,1.375,1.375,0,0,1,.218-1.076,1.4,1.4,0,0,1,.957-.513l3.311-.5.1.677-3.227.484a.86.86,0,0,0-.634.323.906.906,0,0,0-.1.641,1.565,1.565,0,0,0,.2.572,1.61,1.61,0,0,0,.363.429,1.377,1.377,0,0,0,.469.252,1.134,1.134,0,0,0,.509.042l2.773-.416.1.686Z" transform="translate(-157.983 -272.348)" fill="#b50014"/>
    <path id="Caminho_2851" data-name="Caminho 2851" d="M163.13,264.922a.868.868,0,0,0,.782-.135,1.292,1.292,0,0,0,.387-.687,2.531,2.531,0,0,0,.063-.39,1.279,1.279,0,0,0-.024-.392.808.808,0,0,0-.155-.328.573.573,0,0,0-.324-.2.521.521,0,0,0-.464.1,2.113,2.113,0,0,0-.406.431q-.2.27-.393.594a3.693,3.693,0,0,1-.434.583,1.788,1.788,0,0,1-.524.4.952.952,0,0,1-.668.047,1.039,1.039,0,0,1-.491-.262,1.12,1.12,0,0,1-.277-.44,1.746,1.746,0,0,1-.09-.554,2.43,2.43,0,0,1,.073-.61,2.846,2.846,0,0,1,.232-.628,1.656,1.656,0,0,1,.353-.468,1.107,1.107,0,0,1,.473-.255,1.361,1.361,0,0,1,.591-.009q-.02.082-.05.181t-.047.172l-.079.319a.612.612,0,0,0-.581.2,1.553,1.553,0,0,0-.3.631,1.187,1.187,0,0,0,0,.71.516.516,0,0,0,.37.338.489.489,0,0,0,.441-.1,2.216,2.216,0,0,0,.4-.432q.2-.27.4-.591a4.512,4.512,0,0,1,.438-.582,1.806,1.806,0,0,1,.511-.405.849.849,0,0,1,.614-.061,1.315,1.315,0,0,1,.6.3,1.255,1.255,0,0,1,.327.5,1.8,1.8,0,0,1,.1.633,3.079,3.079,0,0,1-.094.711,2.383,2.383,0,0,1-.253.633,1.645,1.645,0,0,1-.413.478,1.453,1.453,0,0,1-.563.266,1.53,1.53,0,0,1-.694-.007Z" transform="translate(-159.51 -248.979)" fill="#b50014"/>
    <path id="Caminho_2852" data-name="Caminho 2852" d="M164.868,238.027l1.175.74.385-.611.5.315-.385.611,2.555,1.609a.523.523,0,0,0,.439.1.568.568,0,0,0,.3-.251,1.557,1.557,0,0,0,.138-.29l.476.3a2.223,2.223,0,0,1-.251.54,1.335,1.335,0,0,1-.23.276.806.806,0,0,1-.291.171.726.726,0,0,1-.348.025,1.044,1.044,0,0,1-.393-.159l-2.761-1.739-.385.611-.5-.315.385-.611-1.174-.74Z" transform="translate(-163.079 -229.728)" fill="#b50014"/>
    <path id="Caminho_2853" data-name="Caminho 2853" d="M177.477,218.227l.568.573-.486.482-.568-.573Zm1.314,1.325,3.281,3.31-.486.482-3.281-3.31Z" transform="translate(-173.24 -213.623)" fill="#b50014"/>
    <path id="Caminho_2854" data-name="Caminho 2854" d="M195.439,207.454l.73,1.18.614-.38.311.5-.614.38,1.589,2.568a.522.522,0,0,0,.348.286.571.571,0,0,0,.377-.1,1.583,1.583,0,0,0,.251-.2l.3.478a2.21,2.21,0,0,1-.463.375,1.333,1.333,0,0,1-.328.148.811.811,0,0,1-.337.026.731.731,0,0,1-.323-.131,1.047,1.047,0,0,1-.283-.315L195.89,209.5l-.614.38-.311-.5.614-.38-.73-1.18Z" transform="translate(-187.765 -204.861)" fill="#b50014"/>
    <path id="Caminho_2855" data-name="Caminho 2855" d="M223.245,204.9l-.666.157-.161-.685a2.14,2.14,0,0,1-.619.767,2.174,2.174,0,0,1-.807.378,1.29,1.29,0,0,1-1.68-1.041l-.765-3.259.676-.159.746,3.177a.86.86,0,0,0,.373.606.909.909,0,0,0,.647.05,1.541,1.541,0,0,0,.545-.244,1.672,1.672,0,0,0,.4-.4,1.344,1.344,0,0,0,.217-.489,1.139,1.139,0,0,0,0-.511l-.641-2.73.667-.157Z" transform="translate(-207.04 -199.095)" fill="#b50014"/>
    <path id="Caminho_2856" data-name="Caminho 2856" d="M252.01,193.624l-.132,1.382.719.069-.056.588-.719-.069-.288,3.006a.523.523,0,0,0,.1.439.57.57,0,0,0,.357.152,1.549,1.549,0,0,0,.321-.007l-.054.56a2.214,2.214,0,0,1-.6.018,1.328,1.328,0,0,1-.35-.081.81.81,0,0,1-.284-.182.733.733,0,0,1-.178-.3,1.045,1.045,0,0,1-.035-.422l.311-3.249-.719-.069.056-.588.719.069.133-1.381Z" transform="translate(-232.959 -193.558)" fill="#b50014"/>
    <path id="Caminho_2857" data-name="Caminho 2857" d="M267.857,208.375a3.07,3.07,0,0,1,.5-.808,2.321,2.321,0,0,1,.676-.548,1.93,1.93,0,0,1,.812-.22,2.031,2.031,0,0,1,.9.175,2.061,2.061,0,0,1,.758.531,1.972,1.972,0,0,1,.414.741,2.272,2.272,0,0,1,.079.869,3.194,3.194,0,0,1-.733,1.726,2.276,2.276,0,0,1-.68.546,1.922,1.922,0,0,1-.819.213,2.1,2.1,0,0,1-.906-.181,2.072,2.072,0,0,1-.755-.525,1.882,1.882,0,0,1-.407-.733,2.318,2.318,0,0,1-.075-.867A3.072,3.072,0,0,1,267.857,208.375Zm.63.268a2.436,2.436,0,0,0-.184.686,1.809,1.809,0,0,0,.035.636,1.33,1.33,0,0,0,.264.53,1.33,1.33,0,0,0,1.1.466,1.375,1.375,0,0,0,.569-.176,1.754,1.754,0,0,0,.487-.415,2.564,2.564,0,0,0,.55-1.295,1.766,1.766,0,0,0-.04-.638A1.431,1.431,0,0,0,271,207.9a1.292,1.292,0,0,0-1.1-.466,1.384,1.384,0,0,0-.566.182,1.816,1.816,0,0,0-.483.417A2.442,2.442,0,0,0,268.487,208.643Z" transform="translate(-246.946 -204.326)" fill="#b50014"/>
  </g>
  <g id="Grupo_1567" data-name="Grupo 1567" transform="translate(9.376 5.781)">
    <path id="Caminho_2858" data-name="Caminho 2858" d="M417.568,251.15c-3.842-3.129-4.315-7.827-4.827-12.394-.471-4.191.512-8.892-.738-12.7a2.117,2.117,0,0,0-3.207-1.2c-4.542,2.356-6.2,9.1-7.093,14.79l-.583.431c.923,2.675-.543,6.125,1.015,8.919.252.454.984.04,1.171-.317a.533.533,0,0,0-.494-.82c-.555-1.322-.191-3.8-.235-5.523-.032-1.265,2.108-.415,3-.721a57.526,57.526,0,0,0,5.933-.432c.339,3.107.67,5.9,2.369,8.426.887,1.325,2.064,3.3,3.535,2.756A.684.684,0,0,0,417.568,251.15Zm-12.446-10.994c-.152-.954-1.818-.456-2.1-.508.646-4.692,2.093-9.379,5.628-12.853.83-.819,1.877-.639,1.967.491.4,4.611.461,8.641.738,13.317A29.517,29.517,0,0,0,405.122,240.156Z" transform="translate(-364.915 -224.534)" fill="#b50014"/>
    <path id="Caminho_2859" data-name="Caminho 2859" d="M512.105,268.5c.133,2.137,1.452,3.656,2.274,5.6-.009.636-1.065.2-1.443,0-.581-.3-1.229-1.176-1.478-.8-.5.768-.957,1.775-1.883,2.082a3.206,3.206,0,0,1-3.22-.758,3.629,3.629,0,0,1-1.26-3.631,2.862,2.862,0,0,1,1.6-1.783,2.66,2.66,0,0,1,2.222.006,1.456,1.456,0,0,1,.73,1.9c-.236.483-.967.956-1.533.552-.152-.108-.258-.262-.154-.423.2-.311.915-.3.766-.744-.116-.347-.986-.352-1.446-.093a1.772,1.772,0,0,0-.8,2.245,2.808,2.808,0,0,0,1.628,1.446c1.015.339,1.772-.51,2.184-1.23,1.3-2.283-1.136-7.5,1.013-10.025C513.25,264.222,511.96,266.157,512.105,268.5Z" transform="translate(-449.411 -255.697)" fill="#b50014"/>
    <path id="Caminho_2860" data-name="Caminho 2860" d="M338.021,269.524c-.458.458-1.874-.009-2.858.114-1.506.093-3.35.926-3.6,2.254-.726,3.859,4.5,6.822,4.612,9.414.135,3-3.771,2.338-6.057,3.566a.48.48,0,0,1-.547-.776c1.157-.967,2.814-1.093,4.268-1.562.717-.232,1.376-.6,1.228-1.384-.165-.884-2.888-3.785-4.088-5.937-.4,1.415-1.935,1.691-2.766,2.706-.37.431.078.906.563,1,1.114.209,1.4-.532,1.773.019a.748.748,0,0,1-.616,1.11c-1.076.168-2.843-.013-3.044-1.325-.325-2.115,3.279-2.96,3.044-3.721s-2.064.429-2.245.155c-.388-.594.663-.867,1.107-1.016a1.936,1.936,0,0,1,1.753.216,4.6,4.6,0,0,1,1.014-4,5.818,5.818,0,0,1,6.458-.831" transform="translate(-304.522 -260.622)" fill="#b50014"/>
    <path id="Caminho_2861" data-name="Caminho 2861" d="M210.088,252.357a3.957,3.957,0,0,0-1.2,2.721c-.079,2.059,2.913,2.6,1.866,4.858-.506.971-2.023,1.943-1.05,2.992,1.127,1.128,3.238,2,3.029,3.6a.8.8,0,0,1-1.514.177c-1.083-2-4.706-2.807-3.912-5.463.348-1.156,2.475-1.894,1.581-2.856a5.317,5.317,0,0,1-1.75-3.3,5.429,5.429,0,0,1,3.342-4.82c.342-.148,1.085-.23,1.139.389S210.579,251.862,210.088,252.357Z" transform="translate(-207.131 -245.371)" fill="#b50014"/>
    <path id="Caminho_2862" data-name="Caminho 2862" d="M244.729,266.941c-.92-.93-.455-2.867-.953-3.29-1.051-.891-1.1.823-1.628,1.323a2.5,2.5,0,0,1-2.644.431c-.485-.268-.985-.647-.922-1.23,1.938-2.4,3.871-5.105,3.074-8.4a2.086,2.086,0,0,0-3.691-.8c-2.1,2.584-2.881,7.032-1.261,10.024a4.312,4.312,0,0,0,3.344,2.038c1.3.161,1.808-.968,2.93.089C243.84,267.938,245.346,267.564,244.729,266.941Zm-6.087-9.9c.569-1.051,2.06-1.29,2.06.215.03,2.277-1.414,4.123-2.952,5.693A7.731,7.731,0,0,1,238.642,257.038Z" transform="translate(-230.48 -248.628)" fill="#b50014"/>
    <path id="Caminho_2863" data-name="Caminho 2863" d="M273.051,286.175c-.4-1.178-1.691-.153-2.058-.429a1.2,1.2,0,0,0-.862,1.169c.078.815,1.179.815,1.8.668C272.535,287.441,273.305,286.922,273.051,286.175Zm-1.292.474c-.283.218-.753-.224-.321-.487.066.067.237.042.33.087C271.936,286.329,271.936,286.514,271.759,286.649Z" transform="translate(-258.37 -274.198)" fill="#b50014"/>
    <path id="Caminho_2864" data-name="Caminho 2864" d="M555.593,293.064a2.2,2.2,0,0,1,2.38-.064c.486.3.795.62.484,1.032-.484.621-1.209-.073-1.725.208-.641.344-.794,1.9-1.862,1.138-.483-1.346-1.039-3.935-.346-4.416,1-.69.552,1.519,1.07,2.1" transform="translate(-489.425 -278.457)" fill="#b50014"/>
    <path id="Caminho_2865" data-name="Caminho 2865" d="M667.183,296.9a2.153,2.153,0,0,1,.256,2.572c-1.014,1.532-3.106,1.552-4.775.982a3.661,3.661,0,0,1-2.391-1.875,2.183,2.183,0,0,1,.492-2.274c.436-.506,1.705-1.109,1.631-.493s-1.077.831-1.229,1.507c-.278,1.107.784,1.781,1.536,2.063a4.434,4.434,0,0,0,3.506.091,1.372,1.372,0,0,0,.49-1.416c-.3-1.36-2.181-1.107-1.965-2.368A3.53,3.53,0,0,1,667.183,296.9Z" transform="translate(-575.583 -282.3)" fill="#b50014"/>
    <path id="Caminho_2866" data-name="Caminho 2866" d="M478.268,309.515c.306.255.095.861-.307.646-1.418-.762-1.84-2.48-2.491-3.814a.613.613,0,0,0-.92-.276c-1.007.514-1.093,2.345-1.937,2.123-.671-.178-.586-1.509-.217-2.123.4.074.3.738.616.8.461-.768.867-1.848,1.876-1.845,1.968.01,2.061,3.075,3.38,4.491" transform="translate(-422.659 -290.002)" fill="#b50014"/>
    <path id="Caminho_2867" data-name="Caminho 2867" d="M601.009,272.924a7.11,7.11,0,0,1-5.444-2.339,9.561,9.561,0,0,1-1.6-9.411c1.662-.215,4.37.077,5.2-.215-.686-.589-3.2-.492-4.7-.523-.276,0-.349-.34-.276-.585.093-.305.234-.882.8-.83.472.042.388-.462.308-.707-.955-2.182-2.062,1.383-2.645,2.122-1.754-.215-4.817-.041-6-.585-.612-.283-.656.558-.307.71,1.832.785,4.4.305,6.149.677l-.369,3.6a6.292,6.292,0,0,0-5.043-.369v-.216a1.566,1.566,0,0,0-1.229-1.26,3.423,3.423,0,0,0-2.8.738,4.805,4.805,0,0,0-1.384,3.353c-.551-.155-.059-.924-.736-.831-.43.094-.953.615-.738,1.047a1.635,1.635,0,0,0,1.535.8c3.784,5.354,4.067-3.722,8.212-2.736.48.115,1.416.2,1.228.986-.107.443-1.785,0-2.766.213a1.857,1.857,0,0,0-1.323,1.322,3.242,3.242,0,0,0,.738,2.768,4.129,4.129,0,0,0,2.552,1.047c.64.105,1.575.165,1.536-.615-.074-1.553-3.023-.03-3.5-1.755-.834-2.986,3.2-.12,4.029-2.243a10.361,10.361,0,0,0,6.211,6.949c.827.327,2.237.871,3.011.215C602.1,273.872,601.739,272.913,601.009,272.924Zm-17.1-4.707c-.382-.439.554-.707.893-.862C584.529,267.665,584.178,268.522,583.913,268.218Zm.4-1.874c-.333.24-.863.737-1.108.213.061-1.168,1.229-2.523,2.552-2.092C586.392,264.9,584.9,265.911,584.315,266.343Z" transform="translate(-510.528 -251.442)" fill="#b50014"/>
    <path id="Caminho_2868" data-name="Caminho 2868" d="M296.811,250.476c-1.107-.771-4.485-.636-3.136-2.462,2.122-2.865,4.029-4.8,2.684-9.306-.782-2.616-2.706-2.377-3.393-1.143-2.285,4.111-1.2,7.9-.46,12.264-.86.369-2.439.286-2.429,1.444.037,3.631,1.829,6.4,3.4,9.536.289.58.627.477.78.431.559-.165.5-1.588.8-2.492C296.127,255.521,291.83,250.722,296.811,250.476Zm-2.552-12.088c.54-.629.99.995,1.146,1.517a8.042,8.042,0,0,1-1.945,6.88C292.968,244.172,292.486,240.456,294.259,238.388Zm-.8,19.347c-.952-1.661-2.071-3.572-1.843-5.661.076-.713.86-.641,1.289-.734A22.035,22.035,0,0,1,293.459,257.735Z" transform="translate(-274.597 -234.407)" fill="#b50014"/>
  </g>
</svg>
