<svg id="Logo-Cores" xmlns="http://www.w3.org/2000/svg" width="48.332" height="33.774" viewBox="0 0 48.332 33.774">
  <g id="Grupo_1587" data-name="Grupo 1587" transform="translate(0 0)">
    <path id="Caminho_2869" data-name="Caminho 2869" d="M154.223,135.663a2.432,2.432,0,1,0-2.423-2.423A2.4,2.4,0,0,0,154.223,135.663Z" transform="translate(-133.759 -122.369)" fill="#2e3192"/>
    <path id="Caminho_2870" data-name="Caminho 2870" d="M196.238,215.9A2.435,2.435,0,0,0,194,217.4h4.46A2.475,2.475,0,0,0,196.238,215.9Z" transform="translate(-168.857 -193.148)" fill="#2e3192"/>
    <path id="Caminho_2871" data-name="Caminho 2871" d="M271.84,220.863a2.432,2.432,0,1,0-2.44-2.423A2.428,2.428,0,0,0,271.84,220.863Z" transform="translate(-231.569 -193.231)" fill="#2e3192"/>
    <path id="Caminho_2872" data-name="Caminho 2872" d="M297.279,137.7a1.279,1.279,0,1,0,1.279,1.279A1.278,1.278,0,0,0,297.279,137.7Z" transform="translate(-253.692 -128.108)" fill="#2e3192"/>
    <path id="Caminho_2873" data-name="Caminho 2873" d="M77.326,86.842a2.217,2.217,0,0,0-.135-.74,3.57,3.57,0,0,0,.4-1.7,3.693,3.693,0,0,0-7.253-.993H67.481a2.063,2.063,0,0,0-1.767.993c-.219-.017-.438-.034-.673-.034a7.092,7.092,0,0,0-4.072,1.279c-.1-.084-.2-.168-.32-.252L58.31,83.948a2.147,2.147,0,0,0-1.094-.3,2.094,2.094,0,0,0-1.767.976L53.11,88.407l-2.339-3.786A2.055,2.055,0,0,0,49,83.645a2.193,2.193,0,0,0-1.094.3L45.571,85.4a2.028,2.028,0,0,0-.926,1.3,2.123,2.123,0,0,0,.252,1.565l6.395,10.349-1.817.808a2.079,2.079,0,0,0-1.06,2.726l4.611,10.5a2.081,2.081,0,0,0,1.9,1.245h0a2.081,2.081,0,0,0,1.9-1.245l1.481-3.382,1.481,3.382a2.081,2.081,0,0,0,1.9,1.245h0a2.081,2.081,0,0,0,1.9-1.245l1.447-3.3a7.225,7.225,0,0,0,6.9,5.133h.4a2.068,2.068,0,0,0,2.07-2.07v-2.659h1.329a2.1,2.1,0,0,0,.589,1.262l1.885,1.9a2.062,2.062,0,0,0,1.464.606h0a2.062,2.062,0,0,0,1.464-.606l.522-.522a7.215,7.215,0,1,0,3.164-13.7,2.855,2.855,0,0,0-.37.017v-.959a2.57,2.57,0,0,0,.606-.118,2.1,2.1,0,0,0,1.346-1.6,4.585,4.585,0,0,0,1.666.32,2.109,2.109,0,0,0,1.346.5h1.43a2.068,2.068,0,0,0,2.07-2.07V88.374a2.068,2.068,0,0,0-2.07-2.07h-1.43a2.064,2.064,0,0,0-1.363.5,4.824,4.824,0,0,0-2.39.69,2.082,2.082,0,0,0-1.313-.471H82.93A2.121,2.121,0,0,0,81.9,87.3l-.892-1.161a2.066,2.066,0,0,0-3.669,1.313Zm2.087.606,3.568,4.308V89.064h1.128a4.747,4.747,0,0,0,.3,5.419V95.66l-3.568-4.291v2.693h-1.43ZM75.256,96.3H72.547V86.842h2.709ZM73.91,82.787A1.616,1.616,0,1,1,72.294,84.4,1.585,1.585,0,0,1,73.91,82.787ZM67.5,87.061v-1.6h2.709V97.646H67.5V96.064a4.879,4.879,0,0,1-2.44.639,5.121,5.121,0,0,1-5.133-5.133,5.224,5.224,0,0,1,.185-1.363l1.228-1.969a2.737,2.737,0,0,0,.185-.387,5.135,5.135,0,0,1,3.534-1.414A4.915,4.915,0,0,1,67.5,87.061ZM49.021,85.7l4.106,6.647L57.233,85.7l2.2,1.363a7.157,7.157,0,0,0-1.228,2.289l-5.082,8.212L46.682,87.145Zm12.689,26.1-3.382-7.707L54.944,111.8l-4.611-10.5,2.44-1.094,2.171,4.964,3.383-7.707,3.382,7.707L63.88,100.2l2.44,1.094-.118.252a7.009,7.009,0,0,0-1.329,3.046Zm7.859-4.14a2.466,2.466,0,0,0,2.39,2.036h.4v2.693h-.4a5.121,5.121,0,0,1-5.133-5.133v-1.363a4.592,4.592,0,0,1,.05-.69l1.144-2.592a5.138,5.138,0,0,1,9.087,3.282v1.447l-.32.32Zm15.3-6.9a5.141,5.141,0,1,1-3.433,8.97l-1.716,1.716-1.851-1.851a2.007,2.007,0,0,0,1.195-1.279l.639-.639v-9.9h2.709V101.4A4.991,4.991,0,0,1,84.865,100.759Zm6.025-5.991h-1.43v-.825a2.5,2.5,0,0,1-1.279.337,2.656,2.656,0,0,1-1.7-.606V89.468a2.754,2.754,0,0,1,1.7-.606,2.5,2.5,0,0,1,1.279.337v-.841h1.43Z" transform="translate(-44.594 -80.7)" fill="#2e3192"/>
  </g>
  <g id="Grupo_1591" data-name="Grupo 1591" transform="translate(2.088 2.104)">
    <g id="Grupo_1588" data-name="Grupo 1588" transform="translate(0)">
      <path id="Caminho_2874" data-name="Caminho 2874" d="M63.445,117.047l4.106-6.647,2.339,1.447-6.445,10.417L57,111.847l2.339-1.447Z" transform="translate(-57 -107.506)" fill="#fcaf17"/>
      <path id="Caminho_2875" data-name="Caminho 2875" d="M145.982,109.1v12.184h-2.709V119.7a4.879,4.879,0,0,1-2.44.639,5.141,5.141,0,0,1,0-10.282,4.926,4.926,0,0,1,2.44.639v-1.6Zm-7.573,6.109a2.432,2.432,0,0,0,4.863,0,2.442,2.442,0,0,0-2.44-2.44A2.417,2.417,0,0,0,138.409,115.209Z" transform="translate(-122.456 -106.424)" fill="#fcaf17"/>
      <path id="Caminho_2876" data-name="Caminho 2876" d="M210.816,96.431a1.616,1.616,0,1,1,1.616-1.616A1.627,1.627,0,0,1,210.816,96.431Zm1.346,10.265h-2.709V97.239h2.709Z" transform="translate(-183.587 -93.2)" fill="#fcaf17"/>
    </g>
    <g id="Grupo_1590" data-name="Grupo 1590" transform="translate(3.669 14.674)">
      <g id="Grupo_1589" data-name="Grupo 1589">
        <path id="Caminho_2877" data-name="Caminho 2877" d="M83.411,188.107l3.382-7.707,3.382,7.707,2.171-4.964,2.44,1.094-4.611,10.5-3.382-7.707-3.382,7.707-4.611-10.5,2.44-1.094Z" transform="translate(-78.8 -180.4)" fill="#fcaf17"/>
        <path id="Caminho_2878" data-name="Caminho 2878" d="M181.833,208.836h.4v2.693h-.4A5.121,5.121,0,0,1,176.7,206.4v-1.363a5.141,5.141,0,0,1,10.282,0V206.8h-7.539A2.437,2.437,0,0,0,181.833,208.836Zm.017-6.243a2.435,2.435,0,0,0-2.238,1.5h4.46A2.475,2.475,0,0,0,181.849,202.593Z" transform="translate(-160.225 -196.618)" fill="#fcaf17"/>
        <path id="Caminho_2879" data-name="Caminho 2879" d="M249.134,185.1a5.141,5.141,0,1,1-3.433,8.969l-1.716,1.716-1.885-1.9L243.985,192v-9.9h2.709v3.618A5.05,5.05,0,0,1,249.134,185.1Zm-2.44,5.149a2.44,2.44,0,1,0,2.44-2.44A2.428,2.428,0,0,0,246.694,190.245Z" transform="translate(-214.619 -181.814)" fill="#fcaf17"/>
      </g>
    </g>
  </g>
  <g id="Grupo_1592" data-name="Grupo 1592" transform="translate(34.819 6.765)">
    <path id="Caminho_2880" data-name="Caminho 2880" d="M256.5,129.112,252.93,124.8V127.5H251.5v-6.6l3.568,4.308v-2.693h1.43Z" transform="translate(-251.5 -120.9)" fill="#f26522"/>
    <path id="Caminho_2881" data-name="Caminho 2881" d="M292.919,126.2v6.412h-1.43v-.825a2.5,2.5,0,0,1-1.279.337,2.709,2.709,0,0,1,0-5.419,2.5,2.5,0,0,1,1.279.337V126.2Zm-3.988,3.214a1.279,1.279,0,1,0,1.279-1.279A1.278,1.278,0,0,0,288.93,129.414Z" transform="translate(-281.442 -125.308)" fill="#f26522"/>
  </g>
</svg>
