<svg xmlns="http://www.w3.org/2000/svg" width="201.805" height="106.156" viewBox="0 0 201.805 106.156"><defs><style>.a,.i{fill:#f4de9b;}.b{fill:#333;stroke:#333;stroke-miterlimit:10;opacity:0.42;}.b,.g,.h,.i,.j,.k{stroke-linecap:round;}.b,.g{stroke-width:1.781px;}.c{fill:#f2f2f2;}.d{fill:#eae0d8;}.e{fill:#ffd000;}.f{fill:red;}.g,.h,.j,.k{fill:none;}.g{stroke:#373737;opacity:0.24;}.g,.h,.i,.j,.k{stroke-linejoin:round;}.h{stroke:#ffd000;stroke-width:3.561px;}.i{stroke:#f4de9b;}.i,.j{stroke-width:5.342px;}.j,.k{stroke:#dfc575;}.k{stroke-width:5.113px;}</style></defs><g transform="translate(-1965.994 -6076.315)"><path class="a" d="M2164.089,6125.788q-3.374-.379-6.747-.761-46.182-5.238-92.278-11.149l-94.506,50.328,104.757,14.747Z"/><line class="b" x2="93.771" y2="15.167" transform="translate(1989.3 6138.986)"/><path class="c" d="M2073.431,6175.744l84.489-47.382a86.443,86.443,0,0,1-.123-32.2l-84.77,46.475a83.57,83.57,0,0,0,.4,33.111Z"/><path class="d" d="M2073.466,6175.744a82.818,82.818,0,0,1,0-33.056q-25.431-4.015-52.064-7.573-25.524-3.4-50.111-6.074a47.871,47.871,0,0,0,2.526,32.934Z"/><path class="e" d="M2075.33,6142.249"/><path class="a" d="M2164.874,6091l-99.8-14.689-94.751,50.906,106.3,14.69Z"/><path class="f" d="M2036.893,6119.976"/><path class="c" d="M2072.925,6177.378"/><path class="d" d="M2098.751,6172.859"/><line class="g" x1="59.798" y1="8.015" transform="translate(2011.769 6144.377)"/><line class="g" x1="78.89" y1="10.574" transform="translate(1991.424 6151.929)"/><line class="h" x1="59.798" y1="8.015" transform="translate(2074.257 6085.568)"/><path class="i" d="M2074.065,6178.826l88.274-50.474"/><path class="i" d="M2164.147,6093.583q-20.616,12.069-41.29,24.047c-12.353,7.157-24.72,14.288-37.338,21.528-2.9,1.663-6.032,3.459-9.168,5.255"/><path class="j" d="M2076.351,6144.413l-104.458-15.208a50.749,50.749,0,0,0-.078,35.41l102.25,14.211"/><path class="k" d="M2067.452,6143.3l-95.674-14.108a55.435,55.435,0,0,0-3.142,17.535,54.021,54.021,0,0,0,2.7,17.829L2065,6177.691"/><path class="e" d="M2080.735,6105.376"/><path class="c" d="M2078.33,6140.5"/><path class="d" d="M2104.155,6135.986"/></g></svg>