<svg xmlns="http://www.w3.org/2000/svg" xmlns:xlink="http://www.w3.org/1999/xlink" width="206.445" height="134.511" viewBox="0 0 206.445 134.511"><defs><style>.a,.aa,.i,.j,.k,.l,.m,.y{fill:none;}.b{fill:#bde4e5;}.b,.k{stroke:#f4de9b;}.c{fill:#333;stroke:#333;stroke-miterlimit:10;opacity:0.42;}.aa,.c,.i,.j,.k,.l,.m,.y,.z{stroke-linecap:round;}.c,.i,.y{stroke-width:1.781px;}.d{fill:#f2f2f2;}.e{fill:#eae0d8;}.f{fill:#ffd000;}.g{fill:#f4de9b;}.h{fill:red;}.i,.y{stroke:#373737;}.aa,.i,.j,.k,.l,.m,.y,.z{stroke-linejoin:round;}.i{opacity:0.24;}.j{stroke:#7fb9ba;stroke-width:3.561px;}.k,.l,.z{stroke-width:5.342px;}.l,.m{stroke:#dfc575;}.aa,.m{stroke-width:5.113px;}.n{opacity:0.69;}.o{isolation:isolate;}.p{clip-path:url(#a);}.q{fill:#e6f5fa;}.r{fill:#e7f5fa;}.s{fill:#5cb5bc;}.t{fill:#b2dbdf;}.u{fill:#b3dbdf;}.v{fill:#fff;}.w{fill:#f4ebe6;}.x{fill:#d6d6d6;}.y{opacity:0.21;}.z{fill:#c4c4c4;stroke:#c4c4c4;}.aa{stroke:#cecece;}.ab{fill:#f08800;}</style><clipPath id="a"><path class="a" d="M2034.762,6129.108l-.153-31.7,54.521.2.153,31.7Z"/></clipPath></defs><g transform="translate(-76.796 -260.743)"><g transform="translate(-1889.198 -5787.217)"><path class="b" d="M2164.089,6125.788q-3.374-.379-6.747-.761-46.182-5.238-92.278-11.149l-94.506,50.328,104.757,14.747Z"/><line class="c" x2="93.771" y2="15.167" transform="translate(1989.3 6138.986)"/><path class="d" d="M2073.431,6175.744l84.489-47.382a86.443,86.443,0,0,1-.123-32.2l-84.77,46.475a83.57,83.57,0,0,0,.4,33.111Z"/><path class="e" d="M2073.466,6175.744a82.818,82.818,0,0,1,0-33.056q-25.431-4.015-52.064-7.573-25.524-3.4-50.111-6.074a47.871,47.871,0,0,0,2.526,32.934Z"/><path class="f" d="M2075.33,6142.249"/><path class="g" d="M2164.874,6091l-99.8-14.689-94.751,50.906,106.3,14.69Z"/><path class="h" d="M2036.893,6119.976"/><path class="d" d="M2072.925,6177.378"/><path class="e" d="M2098.751,6172.859"/><line class="i" x1="59.798" y1="8.015" transform="translate(2011.769 6144.377)"/><line class="i" x1="78.89" y1="10.574" transform="translate(1991.424 6151.929)"/><line class="j" x1="59.798" y1="8.015" transform="translate(2074.257 6085.568)"/><path class="k" d="M2074.065,6178.826l88.274-50.474"/><path class="k" d="M2164.147,6093.583q-20.616,12.069-41.29,24.047-23.22,13.452-46.506,26.783"/><path class="l" d="M2076.351,6144.413l-104.458-15.208a50.749,50.749,0,0,0-.078,35.41l102.25,14.211"/><path class="m" d="M2067.452,6143.3l-95.674-14.108a55.435,55.435,0,0,0-3.142,17.535,54.021,54.021,0,0,0,2.7,17.829L2065,6177.691"/><path class="f" d="M2080.735,6105.376"/><path class="d" d="M2078.33,6140.5"/><path class="e" d="M2104.155,6135.986"/><g class="n"><g class="o"><g class="p"><path class="q" d="M2073.822,6103.041c-.1,0-.191,0-.287,0h.2l.158,0q.489.006.978.015l.162,0h.016c1.342.027,2.458.075,3.261.112-1-.052-2.484-.115-4.284-.132l-.206,0"/><path class="r" d="M2089.122,6097.882v.005l.009-.005h-.009m-10.574-.314c-10.045-.036-24.264.725-33.386,4.665l-.987.427,6.67,4.228-.007,0,.025.016.357-.2c.058-.035.115-.068.173-.1l.278-.148c.081-.047.171-.078.26-.131l.243-.121.106-.051c.164-.085.333-.165.51-.241l.12-.055.072-.037.126-.053c.287-.121.584-.236.889-.347.119-.046.238-.086.362-.126.072-.026.146-.051.222-.078l.09-.037c.135-.047.278-.094.422-.131s.306-.094.459-.136l.152-.042.252-.079.1-.026c.791-.209,1.618-.407,2.508-.584l.279-.058.058-.007.014,0c.4-.089.818-.145,1.231-.223.081-.011.157-.022.235-.03l.027,0,.08-.013.561-.08.878-.127.216-.02c.052-.008.1-.014.155-.02.091-.012.184-.022.277-.032l.084-.008.015,0,.116-.02.124-.011c.039,0,.079-.008.119-.01.168-.022.343-.043.524-.059l.1-.008.079-.011c.256-.035.524-.057.785-.07.3-.031.566-.056.854-.071.153-.016.306-.026.468-.03.135-.016.261-.026.4-.031.243-.025.486-.046.738-.056,1-.054,2.006-.093,2.96-.121l1.206-.022c.5,0,1-.013,1.484-.011h.189c.123,0,.247,0,.371.008h.274l.28,0c.1,0,.194,0,.291,0,1.8.017,3.285.08,4.284.127l1.008.056,9.794-5.346-2.467-.109c-2.06-.1-4.862-.192-8.1-.2"/><path class="s" d="M2049.224,6118.74l.024.018,0,0-.02-.015"/><path class="s" d="M2078.083,6110.721l-.022.014c-.174.528-.364,1.043-.576,1.543.033-.074.065-.149.1-.223.171-.429.333-.866.488-1.32l.011-.007,0-.007m.886-3.575c-.012.073-.027.145-.044.219q.021-.089.039-.177l0-.042"/><path class="s" d="M2078.127,6113.237l.017-.132.009-.006.063-.021.036,0,1.2-.123h.027l.09-.02.952-.506.224.006.046.043.2.743.028.053.848.549-.008.133-.009.01-.09.021-1.259.123-.081.026-.943.5-.243-.006-.036-.048-.2-.711.018-.011-.01-.021-.054-.042-.785-.533-.036-.022m11-15.36-.008,0-9.794,5.346-.009.011h0l-.016.281.01.307c-.019.187-.023.409-.035.656,0,.084-.008.171-.015.261l-.025.361c-.034.263-.059.531-.084.8l0,.027-.087.668a1.153,1.153,0,0,1-.061.3v.01a2.041,2.041,0,0,1-.022.205l0,.031,0,.042c.006-.034.012-.069.017-.1.007-.061.012-.121.015-.18H2079c-.006.061-.014.12-.024.18-.012.116-.03.235-.053.352l.206.036.225.006.665-.1,1.142-.171,1.125-.181a.607.607,0,0,1,.084-.006.5.5,0,0,1,.33.11.206.206,0,0,1,.054.072v.128l-.973,1.687-.008.132.542,1.3.177.42a.114.114,0,0,1,.006.044c0,.108-.108.208-.293.241h-.224l-1.712-.335-1.054-.2-.1-.016-.225-.006-.81.119,0,0,0,.007,0,0,0-.007h.009l-.011.007a16.6,16.6,0,0,1-.638,1.66c.046-.109.091-.22.135-.331-.032.074-.064.149-.1.223-.016.035-.031.069-.047.1l-.025.056c-.093.224-.208.452-.331.685-.1.212-.214.418-.321.614a10.78,10.78,0,0,1-.7,1.158l-.047.068c-.108.159-.211.324-.329.477a12.457,12.457,0,0,1-1.029,1.282,14.928,14.928,0,0,1-1.639,1.544c-.152.127-.323.264-.5.386-.081.058-.144.11-.224.169l-.26.184-.171.111-.215.126c-.088.054-.176.108-.265.161l.265-.15-.122.074,0,0,.119-.072h.009l-.128.072c-.157.1-.315.193-.473.286l-.012,0-.074.043.005,0a15.155,15.155,0,0,1-1.778.831c.084-.034.168-.07.251-.106l-.159.064c-.034.014-.067.029-.1.042-.225.084-.476.173-.7.257s-.431.147-.656.221a22.876,22.876,0,0,1-3.676.824c-.981.124-1.979.2-2.978.228h.009c-.223.011-.451.016-.676.015l-.224,0c-.45-.008-.9-.03-1.35-.069l.117.006-.117-.006-.1-.006h-.011l-.007.017-.341-.044c-.107-.009-.215-.02-.325-.033q-.824-.083-1.621-.228c-.261-.043-.5-.092-.765-.146-.649-.135-1.28-.3-1.884-.484-.576-.177-1.136-.38-1.668-.594-.279-.113-.541-.236-.8-.369-.244-.112-.487-.23-.713-.358-.056-.03-.109-.06-.161-.091s-.1-.061-.149-.092c-.08-.042-.16-.088-.238-.135l-.21-.12-.027.011-.38-.3a1.106,1.106,0,0,1-.2-.16c-.03-.022-.06-.045-.089-.068l-.024-.018a5.9,5.9,0,0,1-.713-.638c-.067-.071-.133-.141-.2-.213-.052-.053-.1-.106-.149-.159-.083-.093-.16-.187-.229-.282l-.047-.064,0,0a2.951,2.951,0,0,1-.27-.364l-.009,0,0,0-.007,0-.082-.143-.045-.074-.02-.038a5.111,5.111,0,0,1-.737-2.07l-.094-.811.034-.466a6.318,6.318,0,0,1,.565-2.326l-.747.114-.135-.037,0,0h0l.009-.037.249-.46.017-.035-.135-.331-.064-.133,0,0,0,0,.063-.069.018,0,.063-.005h.027l.747.151.054,0,.288-.046a4.429,4.429,0,0,1,.277-.4,8.03,8.03,0,0,1,.957-1.194,8.7,8.7,0,0,1,1.389-1.257l.027-.016c.09-.074.17-.148.269-.216l.244-.206.007,0-6.67-4.228-.01-.006-.808.426c-.583.306-1.14.627-1.66.965-4.512,3.175-6.994,7.168-6.993,11.277l0,.89h.027l.047.483c.22,2.694,1.835,5.276,4.653,7.391l.731.559.027-.01.812.469a31.891,31.891,0,0,0,11.943,3.76l.883.114v.011l1.44.1q1.393.1,2.786.1a36.177,36.177,0,0,0,17.157-3.959,23.517,23.517,0,0,0,2.566-1.613l.6-.437.009.01.788-.67c8.381-7.153,9.72-18.557,9.9-23.131l.056-1.506v-.01"/><path class="t" d="M2076.413,6108.746c-.062.254-.132.519-.212.789a7.116,7.116,0,0,0,.212-.789"/><path class="u" d="M2058.937,6121.957c.45.039.9.061,1.35.069l.224,0c.225,0,.453,0,.676-.015h-.143c-.18.007-.358.011-.538.01l-.228,0c-.41,0-.821-.021-1.224-.057l-.117-.006m12.034-2.307,0,0a13.944,13.944,0,0,1-1.518.725c-.083.036-.167.072-.251.106a15.155,15.155,0,0,0,1.778-.831l-.005,0m.559-.326,0,0c-.157.1-.315.191-.479.279l0,0,.012,0c.158-.093.316-.189.473-.286m.128-.072h-.009l-.119.072.128-.072m-23.334-1.358c.06.07.122.139.187.208a5.9,5.9,0,0,0,.713.638l.02.015q.05.039.1.076a7.831,7.831,0,0,1-1.022-.937m29.761-7.168,0,0-.011.007c-.155.454-.317.891-.488,1.32-.044.111-.089.222-.135.331a16.6,16.6,0,0,0,.638-1.66m.011-.007h-.009l0,.007.011-.007m-1.683-1.973a7.116,7.116,0,0,1-.212.789l.277-.471.008-.132-.073-.186m-26.244-1.307a8.653,8.653,0,0,0-1.26,1.154,10.9,10.9,0,0,1,.891-.847c.12-.1.243-.206.369-.307m28.812-.354c0,.034-.011.069-.017.1q-.018.089-.039.177l-.016.07.009,0,.009,0v0c.023-.117.041-.236.053-.352m.024-.18H2079c0,.059-.008.119-.015.18.01-.06.018-.119.024-.18m-18.6-3.039-.027,0c-.081.009-.16.021-.235.035-.4.062-.827.14-1.231.218.274-.05.548-.1.828-.146l.665-.111m1.663-.23-.144.01-.878.127c.334-.046.673-.092,1.022-.137m.8-.1-.084.006-.116.02.032,0c.058-.007.114-.016.168-.023m12.178-.474c1.256.026,2.508.072,3.756.146l.5.022v.006h0l.009-.011-1.008-.051c-.8-.037-1.919-.085-3.261-.112m-.178,0,.162,0-.162,0m-1.136-.017h-.006l.164,0-.158,0m-.925-.012h-.189l-1.484.011-1.206.022c-.954.028-1.953.067-2.96.121-.252.016-.486.031-.738.056.522-.035,1.062-.06,1.6-.089q2.5-.121,4.987-.116l.36,0c-.124,0-.248-.008-.371-.008"/><path class="t" d="M2072.823,6103.038q-2.488-.009-4.987.116c-.539.029-1.079.054-1.6.089-.135,0-.261.015-.4.031-.162,0-.315.014-.468.03-.288.015-.558.04-.854.071-.189.01-.378.03-.567.056a1.815,1.815,0,0,0-.218.014l-.079.011-.1.008c-.179.017-.348.042-.524.059-.04,0-.08.006-.119.01l-.04,0c-.054.007-.11.016-.168.023l-.023,0-.024,0-.084.008c-.093.01-.186.02-.277.032l-.146.02-.081.01c-.349.045-.688.091-1.022.137l-.561.08-.08.013-.665.111c-.278.048-.552.1-.819.146l-.023,0-.058.007-.279.058c-.89.177-1.708.375-2.508.584l-.1.026-.243.079-.153.042c-.152.042-.323.089-.467.136s-.287.084-.422.131l-.09.037c-.076.027-.15.052-.222.078l-.362.126c-.2.079-.386.158-.566.227-.108.041-.216.078-.323.12l-.126.053-.072.037-.12.055-.51.241-.106.051-.243.121c-.089.053-.179.084-.26.131l-.278.148c-.058.032-.115.065-.173.1-.113.066-.226.136-.339.205-.089.069-.2.127-.287.19a2.773,2.773,0,0,0-.269.217l-.027.01-.129.1c-.126.1-.249.2-.369.307a11.443,11.443,0,0,0-.891.847,8.356,8.356,0,0,0-.957,1.2c-.079.13-.15.25-.237.38l.482-.067.017.006h0l.1.031v.048l-.266.458.007.028.2.473h0l0,0-.1.079-.045,0-.775-.151h-.081a6.273,6.273,0,0,0,.2,5.673l.02.038.045.074.089.146,0,0,.009,0a2.951,2.951,0,0,0,.27.364l.011.014.038.053c.069.095.146.189.229.282.051.056.1.111.158.164a7.831,7.831,0,0,0,1.022.937,1.074,1.074,0,0,0,.2.16c.135.1.27.192.424.288l.183.114c.078.047.158.093.238.135l0,0c.048.031.1.06.146.09s.1.061.161.091c.226.128.469.246.713.358.261.133.523.256.8.369.532.214,1.092.417,1.668.594.6.188,1.235.349,1.884.484.261.054.5.1.765.146q.8.145,1.621.228c.11.013.218.024.325.033s.233.019.348.027h.011l.1.006.117.006-.117-.011.711.034q.48.026.949.026c.2,0,.394,0,.59,0l-.141.005h.132c1-.028,2-.1,2.978-.228a22.876,22.876,0,0,0,3.676-.824c.225-.074.432-.142.656-.221s.476-.173.7-.257c.034-.013.067-.028.1-.042l-.092.037a16.961,16.961,0,0,0,1.76-.836l.009.01,0,0,.074-.043,0,0-.009,0,0,0,0-.008.61-.348.215-.126.171-.111.26-.184c.08-.059.143-.111.224-.169.179-.122.35-.259.5-.386a15.5,15.5,0,0,0,1.639-1.544,12.457,12.457,0,0,0,1.029-1.282c.118-.153.221-.318.329-.477l.047-.068a10.78,10.78,0,0,0,.7-1.158c.107-.2.223-.4.321-.614.123-.233.238-.461.331-.685.009-.02.017-.041.025-.061.231-.526.433-1.073.619-1.641l-1.13.17-.018.006-.944.14-.261-.012a.319.319,0,0,1-.217-.155v0h0l.009-.132.7-1.217c.079-.273.149-.531.21-.788l-.653-1.536a.142.142,0,0,1-.01-.049c0-.107.114-.209.3-.241l.225.006.5.1,1.1.205,1.045.2c.025-.1.048-.2.064-.309a2.041,2.041,0,0,0,.022-.205v-.015a1.08,1.08,0,0,0,.061-.3l.087-.673,0-.022c.025-.268.05-.536.084-.8l.025-.366c.007-.088.012-.173.015-.256.012-.247.016-.469.035-.656l-.01-.307.016-.281v-.006l-.5-.022c-1.248-.074-2.5-.12-3.756-.146h-.016l-.162,0q-.489-.009-.978-.015l-.164,0h-.548l-.36,0"/><path class="s" d="M2058.937,6121.952l.117.011c.4.036.814.056,1.224.057l.228,0c.18,0,.358,0,.538-.01h0l.141-.005c-.2,0-.392.005-.59,0q-.469,0-.949-.026l-.711-.034m12.021-2.31a16.961,16.961,0,0,1-1.76.836l.092-.037.159-.064a13.944,13.944,0,0,0,1.518-.725l-.009-.01m.691-.39-.265.15-.341.2,0,0,.009,0c.164-.088.322-.183.479-.279l.122-.074"/><path class="v" d="M2076.044,6106.926c-.179.032-.3.127-.3.231a.142.142,0,0,0,.01.049l.653,1.536,0,0,.073.186-.008.132-.277.471-.7,1.217-.008.128v0a.319.319,0,0,0,.217.155l.261.012.944-.14.018-.006,1.13-.17h0l.022-.014,0,0,.81-.119.225.006.1.016,1.054.2,1.712.335h.224c.185-.033.3-.133.293-.241a.135.135,0,0,0-.006-.039l-.177-.425-.542-1.3.008-.132.973-1.687v-.128a.206.206,0,0,0-.054-.072.5.5,0,0,0-.328-.1.574.574,0,0,0-.086.005l-1.125.181-1.133.171-.674.1-.225-.006-.207-.036-.009,0-.009,0-1.045-.205-1.1-.206-.5-.092-.225-.006"/><path class="v" d="M2080.517,6112.424l-.952.505-.09.021h-.027l-1.2.123-.036.005-.063.021-.009,0-.017.133.036.021.786.533.054.042.009.021-.018.01.2.711.036.048.243.006.942-.5.081-.026,1.26-.123.09-.021.009-.01.008-.133-.849-.549-.027-.053-.2-.743-.045-.042-.225-.006"/><path class="v" d="M2046.586,6110.074h-.027l-.063,0h-.018l-.061.072h0l.064.133.135.332v0l-.018.037-.241.46-.016.032,0,0,.135.038.747-.114.036,0h.072l.784.157h.045l.1-.078h0l-.2-.473-.008-.028v0l.268-.46v-.042l-.1-.031h0l-.017-.005-.482.067h0l-.036.005-.288.047h-.054l-.748-.151"/></g></g></g></g><g transform="translate(-1889.198 -5787.217)"><path class="f" d="M2167.227,6085.328q-3.58-.486-7.214-.908a389.742,389.742,0,0,0-91.3.256c-31.5,16.776-63,21.978-94.506,38.754l104.758,14.747q21.706-11.93,44.387-25.47Q2146.249,6099,2167.227,6085.328Z"/><line class="c" x2="93.771" y2="15.167" transform="translate(1992.95 6109.784)"/><path class="d" d="M2076.138,6139.206c28.477-13.349,56.955-35.155,85.432-48.5-.84-4.342-1.523-1.194-1.572-7.26a86.377,86.377,0,0,1,1.449-16.486l-84.77,46.474a68.514,68.514,0,0,0-1.435,17.629A67.825,67.825,0,0,0,2076.138,6139.206Z"/><path class="w" d="M1974.208,6098.913c.91,4.47,1.664.267,1.666,6.713a82.826,82.826,0,0,1-1.666,16.55q25.431,4.016,52.065,7.573,25.524,3.4,50.111,6.074a47.925,47.925,0,0,0,1.67-16.658,7.661,7.661,0,0,0-1.3-4.4,6.515,6.515,0,0,0-2.9-2.079Z"/><path class="x" d="M2169.46,6061.777l-100.732-13.817-96.612,49.705,106.864,15.369Z"/><path class="h" d="M2040.543,6090.774"/><line class="y" x1="59.798" y1="8.015" transform="translate(1975.356 6115.175)"/><path class="z" d="M2082.53,6113.423q21.625-12.637,43.378-25.034,21.353-12.168,42.838-24.11a33.648,33.648,0,0,1-1.519,21.049l-90.111,52.917c.966-3.431,1.889-7.042,2.743-10.826C2080.96,6122.538,2081.836,6117.86,2082.53,6113.423Z"/><path class="aa" d="M1973.052,6099.989l105,14.218a47.156,47.156,0,0,1-1.731,24.038l-103.446-14.5"/><path class="ab" d="M2140.979,6076.728l-26.153,14.884a46.877,46.877,0,0,1,1.687,26.676l25.668-15.118a58.7,58.7,0,0,0-1.2-26.442Z"/><path class="ab" d="M2012.392,6076.943q51.218,7.335,102.434,14.669l26.153-14.884-101.04-13.941Z"/></g></g></svg>