<svg xmlns="http://www.w3.org/2000/svg" xmlns:xlink="http://www.w3.org/1999/xlink" width="149.277" height="176.081" viewBox="0 0 149.277 176.081">
  <defs>
    <linearGradient id="linear-gradient" y1="0.5" x2="1" y2="0.5" gradientUnits="objectBoundingBox">
      <stop offset="0" stop-color="#366043"/>
      <stop offset="1" stop-color="#366043"/>
    </linearGradient>
  </defs>
  <g id="Grupo_1943" data-name="Grupo 1943" transform="translate(0.046 -417.876)">
    <path id="Caminho_13905" data-name="Caminho 13905" d="M0,492.257c4.058.412,8.139.639,12.176.672.354,0,.7,0,1.057,0,17.061,0,30.826-3.4,45.382-6.989,15.822-3.906,33.755-8.331,59.6-9.29,8.109-.3,16.271-.228,24.382.2.173.027,4.4.7,5.875,3.186a9.014,9.014,0,0,1,.763,4.646l.046,0c-2.181,6.686-4.278,12.689-6.214,18.218-4.3,12.28-8.013,22.885-10.964,35.808a218.987,218.987,0,0,0-5.173,34.825q-.837,11.663-.616,23.056h-.061c.008.784-.039,11.318-7.525,15.533a12.642,12.642,0,0,1-5.218,1.735l0,.005a100.419,100.419,0,0,0-14.136,1.208c-22.518,3.557-36.87,13.667-49.533,22.587-10.359,7.3-19.306,13.6-30.628,14.715A40.009,40.009,0,0,1,0,649.306Z" transform="translate(-0.05 -58.595)" opacity="0.94" fill="url(#linear-gradient)" style="mix-blend-mode: normal;isolation: isolate"/>
    <g id="Grupo_855" data-name="Grupo 855" transform="translate(-0.05 -58.595)">
      <path id="Caminho_1517" data-name="Caminho 1517" d="M30.168,626.329c0,4.428-1.975,7.961-6.4,7.961s-5.6-3.532-5.6-7.961,1.225-10.155,5.654-10.155S30.168,621.9,30.168,626.329Z" fill="#91b77d"/>
      <path id="Caminho_1518" data-name="Caminho 1518" d="M27.4,629.066a.232.232,0,0,0-.326-.023h0l-3.137,2.721v-7.455a.229.229,0,0,0-.229-.23h0a.23.23,0,0,0-.23.23h0v3.838l-2.091-1.985a.231.231,0,1,0-.318.334l2.409,2.288v11.449a.231.231,0,0,0,.461,0h0v-7.857l3.44-2.984a.231.231,0,0,0,.024-.325Z"/>
    </g>
    <g id="Grupo_855-2" data-name="Grupo 855" transform="translate(-0.05 -58.595)">
      <path id="Caminho_1517-2" data-name="Caminho 1517" d="M114.884,593.572c0,4.429-1.975,7.961-6.4,7.961s-5.6-3.532-5.6-7.961,1.225-10.154,5.654-10.154S114.884,589.143,114.884,593.572Z" fill="#91b77d"/>
      <path id="Caminho_1518-2" data-name="Caminho 1518" d="M112.116,596.31a.23.23,0,0,0-.326-.023h0l-3.137,2.721v-7.455a.229.229,0,0,0-.229-.231h0a.23.23,0,0,0-.23.23h0v3.838l-2.091-1.986a.231.231,0,1,0-.318.334l2.409,2.288v11.449a.231.231,0,0,0,.461,0h0v-7.857l3.44-2.984a.231.231,0,0,0,.024-.325Z"/>
    </g>
    <g id="Grupo_848" data-name="Grupo 848" transform="translate(-0.05 -58.595)">
      <g id="Grupo_845" data-name="Grupo 845">
        <path id="Caminho_1499" data-name="Caminho 1499" d="M126.626,502.478h0c.762-.043,5.315-.262,6.724-1.666,2-1.993.456-5.57-1.32-8.715h0c1.877-3.333.709-9.222-1.382-11.275a6.335,6.335,0,0,0-4.022-1.666h0a6.621,6.621,0,0,0-4.022,1.666c-2.153,2.02-3.355,7.784-1.809,11.133h0c-1.512,3.287-3.158,6.858-1.035,8.857C121.187,502.158,125.8,502.42,126.626,502.478Z" fill="#35472d"/>
        <path id="Caminho_1500" data-name="Caminho 1500" d="M122.575,495.262a.284.284,0,0,1,.4-.028l3.866,3.354V489.4a.286.286,0,0,1,.285-.285h0a.285.285,0,0,1,.284.285v4.73l2.578-2.448a.283.283,0,1,1,.389.411l-2.969,2.82v14.11a.284.284,0,0,1-.284.284h0a.285.285,0,0,1-.285-.284v-9.683l-4.239-3.678A.285.285,0,0,1,122.575,495.262Z"/>
      </g>
      <g id="Grupo_847" data-name="Grupo 847">
        <path id="Caminho_1503" data-name="Caminho 1503" d="M108.953,509.688h0c.369-.022,2.576-.128,3.259-.808.97-.966.221-2.7-.64-4.224h0a5.451,5.451,0,0,0-.669-5.465,3.07,3.07,0,0,0-1.95-.808h0a3.216,3.216,0,0,0-1.95.808,5.661,5.661,0,0,0-.876,5.4h0c-.733,1.593-1.531,3.324-.5,4.293C106.315,509.53,108.55,509.657,108.953,509.688Z" fill="#35472d"/>
        <path id="Caminho_1504" data-name="Caminho 1504" d="M106.988,506.188a.137.137,0,0,1,.193-.015h0l1.874,1.626v-4.454a.138.138,0,0,1,.276,0v2.293l1.249-1.187a.137.137,0,0,1,.195.005.139.139,0,0,1,0,.2l-1.439,1.367v6.839a.138.138,0,0,1-.276,0v-4.693L107,506.382a.139.139,0,0,1-.015-.194Z"/>
      </g>
    </g>
  </g>
</svg>
