<svg xmlns="http://www.w3.org/2000/svg" xmlns:xlink="http://www.w3.org/1999/xlink" width="205.419" height="155.975" viewBox="0 0 205.419 155.975">
  <defs>
    <linearGradient id="linear-gradient" y1="0.5" x2="1" y2="0.5" gradientUnits="objectBoundingBox">
      <stop offset="0" stop-color="#366043"/>
      <stop offset="1" stop-color="#366043"/>
    </linearGradient>
  </defs>
  <g id="Grupo_1942" data-name="Grupo 1942" transform="translate(0.046 -143.468)">
    <path id="Caminho_13903" data-name="Caminho 13903" d="M0,233.055a63.573,63.573,0,0,1,11.362-14c15.861-14.612,33.75-15.5,53.475-15.5,2.734,0,5.5.017,8.307.017a187.972,187.972,0,0,0,26.977-1.507c1.569,24.771,8.325,43.984,20.1,57.095,9.62,10.709,20.474,15.382,31.967,20.329,12.9,5.554,26.245,11.3,39.469,26.581a103.53,103.53,0,0,1,12.573,18.272c-.005.01-.012.018-.017.028a9.84,9.84,0,0,1,1.194,5.038,10.727,10.727,0,0,1-1.085,4.125c-.152.319-.293.579-.4.761l.02.054c-1.455,2.738-2.925,5.58-4.4,8.482l-.04-.034a13.105,13.105,0,0,1-13.172,4.867,171.578,171.578,0,0,0-36.122-6.6c-26.72-1.912-45.611,3.307-63.879,8.36-10.975,3.035-22.324,6.174-35.261,7.674A158.315,158.315,0,0,1,0,354.3Z" transform="translate(-0.05 -58.595)" opacity="0.94" fill="url(#linear-gradient)" style="mix-blend-mode: normal;isolation: isolate"/>
    <g id="Grupo_831" data-name="Grupo 831" transform="translate(-0.05 -58.595)">
      <path id="Caminho_1473" data-name="Caminho 1473" d="M19.079,251.6h0c-.952-.055-6.636-.327-8.4-2.08-2.5-2.489-.569-6.955,1.648-10.881h0c-2.343-4.162-.885-11.514,1.725-14.077a7.926,7.926,0,0,1,5.022-2.08h0a8.273,8.273,0,0,1,5.021,2.08c2.688,2.522,4.188,9.718,2.258,13.9h0c1.888,4.1,3.943,8.563,1.293,11.059C25.869,251.2,20.112,251.522,19.079,251.6Z" fill="#35472d"/>
      <path id="Caminho_1474" data-name="Caminho 1474" d="M24.137,242.586a.355.355,0,0,0-.5-.036l-4.828,4.188V235.265a.355.355,0,0,0-.71,0v5.906l-3.217-3.056a.354.354,0,0,0-.488.513l3.707,3.521v17.616a.355.355,0,0,0,.71,0V247.676l5.293-4.592A.355.355,0,0,0,24.137,242.586Z"/>
    </g>
    <g id="Grupo_855" data-name="Grupo 855" transform="translate(-0.05 -58.595)">
      <path id="Caminho_1517" data-name="Caminho 1517" d="M34.909,251.888c0,4.429-1.975,7.962-6.4,7.962s-5.6-3.532-5.6-7.962,1.225-10.154,5.654-10.154S34.909,247.459,34.909,251.888Z" fill="#91b77d"/>
      <path id="Caminho_1518" data-name="Caminho 1518" d="M32.141,254.626a.232.232,0,0,0-.326-.023h0l-3.137,2.721v-7.455a.23.23,0,0,0-.229-.231h0a.231.231,0,0,0-.23.23h0v3.838l-2.091-1.986a.231.231,0,1,0-.318.335l2.409,2.288v11.449a.231.231,0,0,0,.461,0h0v-7.858l3.44-2.984a.23.23,0,0,0,.024-.324Z"/>
    </g>
    <g id="Grupo_855-2" data-name="Grupo 855" transform="translate(-0.05 -58.595)">
      <path id="Caminho_1517-2" data-name="Caminho 1517" d="M94.279,219.308c0,4.428-1.975,7.961-6.4,7.961s-5.6-3.532-5.6-7.961,1.225-10.155,5.654-10.155S94.279,214.878,94.279,219.308Z" fill="#91b77d"/>
      <path id="Caminho_1518-2" data-name="Caminho 1518" d="M91.511,222.045a.232.232,0,0,0-.326-.023h0l-3.137,2.721v-7.455a.229.229,0,0,0-.229-.23h0a.23.23,0,0,0-.23.23h0v3.838L85.5,219.141a.231.231,0,1,0-.318.334l2.409,2.288v11.449a.231.231,0,0,0,.461,0h0v-7.857l3.44-2.984a.231.231,0,0,0,.023-.325Z"/>
    </g>
  </g>
</svg>
