<svg xmlns="http://www.w3.org/2000/svg" xmlns:xlink="http://www.w3.org/1999/xlink" width="195.976" height="224.714" viewBox="0 0 195.976 224.714">
  <defs>
    <linearGradient id="linear-gradient" y1="0.5" x2="1" y2="0.5" gradientUnits="objectBoundingBox">
      <stop offset="0" stop-color="#366043"/>
      <stop offset="1" stop-color="#366043"/>
    </linearGradient>
  </defs>
  <g id="Grupo_1939" data-name="Grupo 1939" transform="translate(-217.978 -140.46)">
    <path id="Caminho_13909" data-name="Caminho 13909" d="M414,423.743c-.032,0-.063-.008-.1-.006-18.443.436-34.217-3.592-46.859-11.987-14.477-9.612-18.952-20.7-23.69-32.432-4.36-10.8-8.868-21.961-21.32-31.27-17.207-12.862-36.016-11.342-54.2-9.876-17,1.373-33.088,2.662-47.588-7.432a5.228,5.228,0,0,1-2.178-3.3,6.252,6.252,0,0,1,.476-3.025c17.6-30.823,31.631-47.788,31.868-48.071a326.863,326.863,0,0,1,80.69-68.994,165.886,165.886,0,0,0,20.783,1.287c17.908,0,38.5-2.71,62.119-9.585Z" transform="translate(-0.05 -58.595)" opacity="0.94" fill="url(#linear-gradient)" style="mix-blend-mode: normal;isolation: isolate"/>
    <g id="Grupo_872" data-name="Grupo 872" transform="translate(-0.05 -58.595)">
      <path id="Caminho_1551" data-name="Caminho 1551" d="M407.6,383.455c0,5.273-2.35,9.48-7.626,9.48s-6.664-4.207-6.664-9.48,1.459-12.091,6.732-12.091S407.6,378.18,407.6,383.455Z" fill="#91b77d"/>
      <path id="Caminho_1552" data-name="Caminho 1552" d="M404.306,386.716a.275.275,0,0,0-.387-.03l0,0-3.736,3.241v-8.878a.275.275,0,0,0-.55,0v4.57l-2.489-2.365a.276.276,0,0,0-.388.009h0a.275.275,0,0,0,.01.389h0l2.868,2.724v13.634a.275.275,0,1,0,.549,0v-9.355l4.1-3.554a.273.273,0,0,0,.031-.385Z"/>
    </g>
    <g id="Grupo_872-2" data-name="Grupo 872" transform="translate(-0.05 -58.595)">
      <path id="Caminho_1551-2" data-name="Caminho 1551" d="M400.456,404.1c0,2.917-1.3,5.245-4.219,5.245s-3.686-2.328-3.686-5.245.807-6.688,3.724-6.688S400.456,401.182,400.456,404.1Z" fill="#91b77d"/>
      <path id="Caminho_1552-2" data-name="Caminho 1552" d="M398.633,405.9a.151.151,0,0,0-.214-.017h0l-2.068,1.793V402.77a.152.152,0,1,0-.3,0V405.3l-1.377-1.307a.153.153,0,0,0-.215,0h0a.152.152,0,0,0,.005.214h0l1.586,1.507v7.542a.152.152,0,1,0,.3,0v-5.175l2.266-1.966a.15.15,0,0,0,.016-.212Z"/>
    </g>
    <g id="Grupo_872-3" data-name="Grupo 872" transform="translate(-0.05 -58.595)">
      <path id="Caminho_1551-3" data-name="Caminho 1551" d="M408.858,400.166c0,2.917-1.3,5.244-4.219,5.244s-3.686-2.327-3.686-5.244.807-6.689,3.724-6.689S408.858,397.248,408.858,400.166Z" fill="#91b77d"/>
      <path id="Caminho_1552-3" data-name="Caminho 1552" d="M407.035,401.971a.152.152,0,0,0-.215-.017h0l-2.067,1.792v-4.911a.152.152,0,0,0-.3,0v2.528l-1.377-1.308a.153.153,0,0,0-.215.005h0a.152.152,0,0,0,.006.215h0l1.586,1.507v7.542a.152.152,0,0,0,.3,0V404.15l2.266-1.966a.152.152,0,0,0,.017-.213Z"/>
    </g>
    <g id="Grupo_874" data-name="Grupo 874" transform="translate(-0.05 -58.595)">
      <path id="Caminho_1555" data-name="Caminho 1555" d="M256.063,289.484l-1.652,3.747-4.072-.443a3.275,3.275,0,0,0-3,5.19l2.419,3.3-2.419,3.3a3.274,3.274,0,0,0,3,5.19l4.072-.443,1.652,3.747a3.275,3.275,0,0,0,5.993,0l1.652-3.747,4.072.443a3.275,3.275,0,0,0,3-5.19l-2.419-3.3,2.419-3.3a3.275,3.275,0,0,0-3-5.19l-4.072.443-1.652-3.747a3.276,3.276,0,0,0-5.993,0Z" fill="#336d15"/>
      <path id="Caminho_1556" data-name="Caminho 1556" d="M265.407,304.3a.411.411,0,0,0-.578-.041l-5.565,4.828V295.859a.41.41,0,0,0-.819,0v6.808l-3.708-3.523a.41.41,0,1,0-.564.594l4.272,4.058V324.1a.41.41,0,1,0,.819,0V310.169l6.1-5.294A.41.41,0,0,0,265.407,304.3Z"/>
    </g>
    <g id="Grupo_874-2" data-name="Grupo 874" transform="translate(-0.05 -58.595)">
      <path id="Caminho_1555-2" data-name="Caminho 1555" d="M396,208.712l-1.653,3.747-4.072-.443a3.275,3.275,0,0,0-3,5.189l2.419,3.3-2.419,3.305a3.274,3.274,0,0,0,3,5.19l4.072-.443L396,232.3a3.274,3.274,0,0,0,5.992,0l1.653-3.746,4.072.443a3.276,3.276,0,0,0,3-5.19l-2.419-3.305,2.419-3.3a3.274,3.274,0,0,0-3-5.189l-4.072.443-1.653-3.747a3.274,3.274,0,0,0-5.992,0Z" fill="#336d15"/>
      <path id="Caminho_1556-2" data-name="Caminho 1556" d="M405.347,223.526a.409.409,0,0,0-.578-.041l-5.565,4.828V215.087a.41.41,0,0,0-.819,0V221.9l-3.709-3.523a.41.41,0,1,0-.564.594l4.273,4.058v20.308a.41.41,0,1,0,.819,0V229.4l6.1-5.294A.412.412,0,0,0,405.347,223.526Z"/>
    </g>
  </g>
</svg>
