<svg xmlns="http://www.w3.org/2000/svg" width="25.247" height="16.066" viewBox="0 0 25.247 16.066"><defs><style>.a{fill:#3d3d3d;}.b{fill:#fff;}.c{fill:none;}.d,.e{stroke:none;}.e{fill:#3d3d3d;}</style></defs><g transform="translate(-255 -253)"><g transform="translate(-3197 3958)"><ellipse class="a" cx="7.5" cy="8" rx="7.5" ry="8" transform="translate(3457 -3705)"/><circle class="b" cx="3.5" cy="3.5" r="3.5" transform="translate(3464 -3704)"/><g class="c" transform="translate(3482 -3705)"><path class="d" d="M-17.377,0C-12.94,0-4.753,3.6-4.753,8.033s-8.187,8.033-12.623,8.033S-30,12.47-30,8.033-21.813,0-17.377,0Z"/><path class="e" d="M -17.3765869140625 1.000000953674316 C -19.47287750244141 1.000000953674316 -22.48190689086914 1.894471168518066 -24.86416625976562 3.225770950317383 C -27.49254608154297 4.694610595703125 -28.99999618530273 6.446810722351074 -28.99999618530273 8.0330810546875 C -28.99999618530273 9.619350433349609 -27.49254608154297 11.37155151367188 -24.86416625976562 12.84039115905762 C -22.48190689086914 14.17169094085693 -19.47287750244141 15.06616115570068 -17.3765869140625 15.06616115570068 C -15.28029632568359 15.06616115570068 -12.27126693725586 14.17169094085693 -9.889007568359375 12.84039115905762 C -7.260627746582031 11.37155151367188 -5.753177642822266 9.619350433349609 -5.753177642822266 8.0330810546875 C -5.753177642822266 6.446810722351074 -7.260627746582031 4.694610595703125 -9.889007568359375 3.225770950317383 C -12.27126693725586 1.894471168518066 -15.28029632568359 1.000000953674316 -17.3765869140625 1.000000953674316 M -17.3765869140625 1.9073486328125e-06 C -12.94003677368164 1.9073486328125e-06 -4.753177642822266 3.596530914306641 -4.753177642822266 8.0330810546875 C -4.753177642822266 12.46963119506836 -12.94003677368164 16.06616020202637 -17.3765869140625 16.06616020202637 C -21.81313705444336 16.06616020202637 -29.99999618530273 12.46963119506836 -29.99999618530273 8.0330810546875 C -29.99999618530273 3.596530914306641 -21.81313705444336 1.9073486328125e-06 -17.3765869140625 1.9073486328125e-06 Z"/></g></g></g></svg>