<svg xmlns="http://www.w3.org/2000/svg" xmlns:xlink="http://www.w3.org/1999/xlink" width="13.682" height="14" viewBox="0 0 13.682 14"><defs><style>.a{clip-path:url(#a);}.b{fill:#fbbc05;}.c{fill:#ea4335;}.d{fill:#34a853;}.e{fill:#4285f4;}</style><clipPath id="a"><path d="M-355.277,291.027H-361.8v2.7h3.755a3.5,3.5,0,0,1-3.755,2.7,4.128,4.128,0,0,1-4.136-4.136,4.128,4.128,0,0,1,4.136-4.136,4.047,4.047,0,0,1,2.577.923l2.036-2.036a6.968,6.968,0,0,0-4.614-1.75,6.98,6.98,0,0,0-7,7,6.98,6.98,0,0,0,7,7,6.6,6.6,0,0,0,6.682-7A5.807,5.807,0,0,0-355.277,291.027Z" transform="translate(368.8 -285.3)"/></clipPath></defs><g transform="translate(368.8 -285.3)"><g class="a" transform="translate(-368.8 285.3)"><path class="b" d="M-370.8,302.573V294.3l5.409,4.136Z" transform="translate(370.164 -291.436)"/></g><g class="a" transform="translate(-368.8 285.3)"><path class="c" d="M-370.8,286.8l5.409,4.136,2.227-1.941,7.636-1.241V283.3H-370.8Z" transform="translate(370.164 -283.936)"/></g><g transform="translate(-368.8 285.3)"><g class="a"><path class="d" d="M-370.8,295.073l9.545-7.318,2.514.318,3.214-4.773v15.273H-370.8Z" transform="translate(370.164 -283.936)"/></g></g><g transform="translate(-368.8 285.3)"><g class="a"><path class="e" d="M-346.664,306.073l-9.864-7.636-1.273-.955,11.136-3.182Z" transform="translate(361.3 -291.436)"/></g></g></g></svg>