<svg xmlns="http://www.w3.org/2000/svg" width="158.3" height="174.84" viewBox="0 0 158.3 174.84">
  <g id="Grupo_1294" data-name="Grupo 1294" transform="translate(-4605.513 1972.807)" opacity="0.58">
    <g id="Grupo_1293" data-name="Grupo 1293">
      <path id="Caminho_2027" data-name="Caminho 2027" d="M4759.953-1884.027l-34.73-21.3a8.053,8.053,0,0,1-3.85-6.88v-19.08a8.1,8.1,0,0,0-3.28-6.49l-27.87-20.6a8.068,8.068,0,0,0-2.91-1.36.738.738,0,0,0,.01-.15v-5.08h2.05a2.006,2.006,0,0,0,2-2,2.006,2.006,0,0,0-2-2h-2.05v-1.84a2.006,2.006,0,0,0-2-2,2.006,2.006,0,0,0-2,2v1.84h-2.05a2.006,2.006,0,0,0-2,2,2.006,2.006,0,0,0,2,2h2.05v5.08a1.586,1.586,0,0,0,.01.22,7.882,7.882,0,0,0-2.55,1.18l-29.4,20.72a8.084,8.084,0,0,0-3.43,6.59v20.07a8.072,8.072,0,0,1-3.98,6.97l-34.46,20.13a8.089,8.089,0,0,0-4,6.97v71a8.074,8.074,0,0,0,8.08,8.07h51.71v-59.6a4,4,0,0,1,1.46-3.1l13.37-10.93,2.63-2.16a4.01,4.01,0,0,1,5.18.1l2.49,2.19,12.23,10.81,1.35,1.19v61.5h51.73a8.072,8.072,0,0,0,8.07-8.07v-71.11A8.05,8.05,0,0,0,4759.953-1884.027Zm-114,64.98h-17.09v-19.36a8.542,8.542,0,0,1,9.83-8.44,8.73,8.73,0,0,1,7.26,8.72Zm55.37-96.9a16.561,16.561,0,0,1-14.24,14.22,16.517,16.517,0,0,1-18.5-18.58,16.54,16.54,0,0,1,14.26-14.19A16.535,16.535,0,0,1,4701.323-1915.947Zm41.42,99.76h-17.08l-.01-19.09a8.724,8.724,0,0,1,7.29-8.72,8.545,8.545,0,0,1,9.8,8.45Z" fill="#999ea5" opacity="0.35"/>
    </g>
    <g id="Grupo_911" data-name="Grupo 911" opacity="0.35">
      <g id="União_17" data-name="União 17">
        <path id="Caminho_2028" data-name="Caminho 2028" d="M4666.762-1860.67a4,4,0,0,0-1.46,3.1v1.9a7.982,7.982,0,0,1,2.94-6.2l11.89-9.73Zm21.18-12.99a4.01,4.01,0,0,0-5.18-.1l-2.63,2.16a8.023,8.023,0,0,1,10.3.13Zm14.72,13a4,4,0,0,1,1.35,3v-1.81Z" fill="#76c9cf"/>
      </g>
      <g id="Caminho_170" data-name="Caminho 170">
        <path id="Caminho_2029" data-name="Caminho 2029" d="M4704.012-1859.47v61.5h-10.25l.01-37.31a8.711,8.711,0,0,0-7.26-8.71,8.539,8.539,0,0,0-9.82,8.44v37.58H4665.3v-59.6a4,4,0,0,1,1.46-3.1l13.37-10.93,2.63-2.16a4.01,4.01,0,0,1,5.18.1l2.49,2.19,12.23,10.81Z" fill="#76c9cf"/>
      </g>
      <g id="Caminho_170-2" data-name="Caminho 170">
        <path id="Caminho_2030" data-name="Caminho 2030" d="M4704.012-1859.47v61.5h-10.25l.01-37.31a8.711,8.711,0,0,0-7.26-8.71,8.539,8.539,0,0,0-9.82,8.44v37.58H4665.3v-59.6a4,4,0,0,1,1.46-3.1l13.37-10.93,2.63-2.16a4.01,4.01,0,0,1,5.18.1l2.49,2.19,12.23,10.81Z" fill="#33a484"/>
      </g>
      <path id="Caminho_2031" data-name="Caminho 2031" d="M4758.812-1811.61v-1.83C4758.842-1812.86,4758.842-1812.24,4758.812-1811.61Z" fill="#76c9cf"/>
    </g>
  </g>
</svg>
