<svg xmlns="http://www.w3.org/2000/svg" xmlns:xlink="http://www.w3.org/1999/xlink" width="86.077" height="49.902" viewBox="0 0 86.077 49.902">
  <defs>
    <linearGradient id="linear-gradient" x1="-18.459" y1="-18.787" x2="-18.459" y2="-18.817" gradientUnits="objectBoundingBox">
      <stop offset="0" stop-color="#dedede"/>
      <stop offset="1" stop-color="#dedede"/>
    </linearGradient>
    <linearGradient id="linear-gradient-2" x1="-18.459" y1="-27.916" x2="-18.459" y2="-27.959" xlink:href="#linear-gradient"/>
  </defs>
  <g id="Grupo_1372" data-name="Grupo 1372" transform="translate(-153.835 -1436.548)">
    <g id="Grupo_1367" data-name="Grupo 1367">
      <path id="Caminho_2180" data-name="Caminho 2180" d="M187.168,1436.548h19.411l9.706,10.109-19.232,23.512h0l-19.591-23.512Z" fill="url(#linear-gradient)"/>
      <path id="Caminho_2181" data-name="Caminho 2181" d="M186.575,1446.657l6.61-10.109h7.3l6.687,10.109Z" fill="#fff" opacity="0.5" style="mix-blend-mode: normal;isolation: isolate"/>
      <path id="Caminho_2182" data-name="Caminho 2182" d="M207.339,1436.548l-10.465,10.109h0l-10.133-10.109Z" fill="#fff" opacity="0.5" style="mix-blend-mode: normal;isolation: isolate"/>
      <path id="Caminho_2183" data-name="Caminho 2183" d="M177.458,1446.595l19.591,23.512,19.232-23.512Z" fill="url(#linear-gradient-2)"/>
      <path id="Caminho_2184" data-name="Caminho 2184" d="M207.173,1446.657l-10.119,23.512h0l-10.479-23.512Z" fill="#fff" opacity="0.5" style="mix-blend-mode: normal;isolation: isolate"/>
      <path id="Caminho_1801-18" data-name="Caminho 1801-18" d="M188.187,1452.451a.153.153,0,0,1,.036-.036l.361-.2.221-.12.02-.012a.084.084,0,0,0,.036-.036l.092-.165v-.008l.129-.233h0l.108-.193a.076.076,0,0,1,.044-.04.083.083,0,0,1,.075,0,.067.067,0,0,1,.036.036l.237.433.093.169a.084.084,0,0,0,.036.036l.064.036.538.293a.091.091,0,0,1,.036.12.08.08,0,0,1-.036.037l-.1.056-.228.128-.221.121h0l-.044.024a.079.079,0,0,0-.036.036l-.076.137-.128.233-.124.232a.091.091,0,0,1-.121.033.116.116,0,0,1-.037-.033l-.329-.6a.081.081,0,0,0-.036-.035l-.6-.329A.1.1,0,0,1,188.187,1452.451Z" fill="#fff"/>
      <path id="Caminho_1801-19" data-name="Caminho 1801-19" d="M184.582,1448.537a.41.41,0,0,1,.093-.093l.931-.507.569-.311.052-.031a.211.211,0,0,0,.094-.093l.238-.424v-.021l.33-.6v-.01l.28-.5a.235.235,0,0,1,.314-.09.191.191,0,0,1,.093.093l.611,1.117.238.435a.214.214,0,0,0,.093.093l.166.093,1.387.756a.234.234,0,0,1,.093.31.2.2,0,0,1-.093.094l-.269.144-.59.331-.57.311h-.01l-.114.064a.209.209,0,0,0-.093.093l-.2.352-.332.6-.32.6a.231.231,0,0,1-.31.084.235.235,0,0,1-.093-.084l-.849-1.552a.214.214,0,0,0-.093-.093l-1.553-.848A.249.249,0,0,1,184.582,1448.537Z" fill="#fff"/>
    </g>
    <g id="Grupo_1371" data-name="Grupo 1371">
      <g id="Caminho_260-21" data-name="Caminho 260-21">
        <path id="Caminho_2185" data-name="Caminho 2185" d="M224.008,1474.271v6.84q2.4-.13,4.737-.295,2.687-.186,5.292-.408c1.073-.088,2.13-.183,3.181-.281a2.918,2.918,0,0,0,2.607-2.439c.167-1.025-1.54-2.05-1.5-3.279.055-1.718,1.769-3.393,1.571-4.763a2.9,2.9,0,0,0-3.155-2.462q-2.1.2-4.244.375c-1.045.09-2.1,0-3.14.129a5.3,5.3,0,0,0-2.876,1.354,7.186,7.186,0,0,0-1.754,2.171,6.458,6.458,0,0,0-.719,3.058Z" fill="#ebebeb"/>
      </g>
      <g id="Caminho_260-22" data-name="Caminho 260-22">
        <path id="Caminho_2186" data-name="Caminho 2186" d="M169.74,1475.281v6.841q-2.4-.13-4.737-.295-2.685-.186-5.292-.408-1.608-.132-3.179-.281a2.918,2.918,0,0,1-2.609-2.44c-.167-1.025,1.54-2.05,1.5-3.279-.056-1.718-1.769-3.391-1.572-4.763a2.9,2.9,0,0,1,3.155-2.462q2.1.2,4.245.376c1.045.088,2.1,0,3.139.128a5.3,5.3,0,0,1,2.876,1.354,7.186,7.186,0,0,1,1.754,2.171,6.471,6.471,0,0,1,.375.884A6.665,6.665,0,0,1,169.74,1475.281Z" fill="#ebebeb"/>
      </g>
      <g id="Grupo_1370" data-name="Grupo 1370">
        <g id="Caminho_260-23" data-name="Caminho 260-23">
          <path id="Caminho_261-9" data-name="Caminho 261-9" d="M232.011,1482.462a2.921,2.921,0,0,1-2.619,2.467c-9.812.92-20.545,1.508-32.075,1.521-11.865.015-22.89-.58-32.945-1.524a2.917,2.917,0,0,1-2.61-2.438,26.553,26.553,0,0,1-.074-8.042,2.9,2.9,0,0,1,3.156-2.462c9.856.933,20.667,1.521,32.3,1.513,11.434-.008,22.069-.592,31.782-1.511a2.918,2.918,0,0,1,3.163,2.534,27.989,27.989,0,0,1-.078,7.942Z" fill="#f3f3f3"/>
        </g>
        <g id="Grupo_1369" data-name="Grupo 1369">
          <g id="Grupo_1368" data-name="Grupo 1368">
            <path id="Caminho_2187" data-name="Caminho 2187" d="M176.205,1482.6a.6.6,0,0,1-.655-.539.582.582,0,0,1,.008-.172l.222-4.549a.6.6,0,0,1,.71-.646l1.634.078a3.319,3.319,0,0,1,2.3.881,3.294,3.294,0,0,1-.212,4.369,3.307,3.307,0,0,1-2.375.658Zm.671-1.034.939.045a1.924,1.924,0,0,0,.654-3.753,1.652,1.652,0,0,0-.471-.023l-.939-.046Z" fill="#9a9a9a"/>
            <path id="Caminho_2188" data-name="Caminho 2188" d="M182.645,1482.965a.637.637,0,0,1-.48-.194.679.679,0,0,1-.149-.5l.174-4.72a.585.585,0,0,1,.512-.65.615.615,0,0,1,.166,0,.582.582,0,0,1,.621.694l-.174,4.718Q183.293,1482.988,182.645,1482.965Z" fill="#9a9a9a"/>
            <path id="Caminho_2189" data-name="Caminho 2189" d="M184.651,1483.042a.554.554,0,0,1-.5-.248.572.572,0,0,1,.024-.578l2.265-4.65a1.034,1.034,0,0,1,.33-.406.766.766,0,0,1,.855.021.987.987,0,0,1,.3.424l2.044,4.758a.594.594,0,0,1,0,.583.517.517,0,0,1-.479.219.647.647,0,0,1-.437-.145,1.1,1.1,0,0,1-.262-.427l-.331-.813-2.759-.071-.365.8a1.222,1.222,0,0,1-.278.416A.579.579,0,0,1,184.651,1483.042Zm2.5-4.543-.988,2.207,1.9.047-.891-2.254Z" fill="#9a9a9a"/>
            <path id="Caminho_2190" data-name="Caminho 2190" d="M191.382,1483.2a.578.578,0,0,1-.435-.163.616.616,0,0,1-.147-.446l.037-4.856a.6.6,0,0,1,.163-.447.613.613,0,0,1,.454-.152.693.693,0,0,1,.4.1.95.95,0,0,1,.27.33l1.769,3.293,1.821-3.266a.937.937,0,0,1,.275-.324.667.667,0,0,1,.391-.1.541.541,0,0,1,.59.609l-.037,4.855a.527.527,0,0,1-.443.6.564.564,0,0,1-.149,0,.53.53,0,0,1-.593-.458.5.5,0,0,1,0-.15l.024-3.078-1.4,2.463a.832.832,0,0,1-.216.238.513.513,0,0,1-.3.077.528.528,0,0,1-.3-.082.7.7,0,0,1-.209-.24L192,1479.54l-.024,3.054a.529.529,0,0,1-.441.6A.556.556,0,0,1,191.382,1483.2Z" fill="#9a9a9a"/>
            <path id="Caminho_2191" data-name="Caminho 2191" d="M198.267,1483.233a.555.555,0,0,1-.507-.23.581.581,0,0,1,0-.579l2.1-4.727a1.04,1.04,0,0,1,.315-.418.767.767,0,0,1,.856-.009.98.98,0,0,1,.315.413l2.21,4.684a.6.6,0,0,1,.018.583.521.521,0,0,1-.472.235.647.647,0,0,1-.441-.131,1.076,1.076,0,0,1-.276-.417l-.361-.8-2.759.027-.336.808a1.19,1.19,0,0,1-.265.426A.569.569,0,0,1,198.267,1483.233Zm2.336-4.628-.908,2.24,1.894-.02-.969-2.222Z" fill="#9a9a9a"/>
            <path id="Caminho_2192" data-name="Caminho 2192" d="M205,1483.147q-.6.015-.62-.613l-.124-4.779a.686.686,0,0,1,.141-.49.546.546,0,0,1,.412-.179.577.577,0,0,1,.344.08,1.475,1.475,0,0,1,.294.281l2.808,3.392-.084-3.219a.54.54,0,0,1,.432-.63.573.573,0,0,1,.155-.006.54.54,0,0,1,.618.447.523.523,0,0,1,0,.153l.127,4.839a.645.645,0,0,1-.131.444.489.489,0,0,1-.382.174.663.663,0,0,1-.375-.082,1.4,1.4,0,0,1-.3-.286l-2.807-3.392.084,3.22C205.6,1482.924,205.4,1483.136,205,1483.147Z" fill="#9a9a9a"/>
            <path id="Caminho_2193" data-name="Caminho 2193" d="M212.751,1482.9a.631.631,0,0,1-.492-.156.692.692,0,0,1-.189-.487l-.175-4.241-1.483.061a.479.479,0,0,1-.56-.381.458.458,0,0,1-.007-.133.48.48,0,0,1,.391-.555.491.491,0,0,1,.133,0l4.265-.175a.541.541,0,1,1,.043,1.072l-1.483.061.174,4.241a.7.7,0,0,1-.143.5A.62.62,0,0,1,212.751,1482.9Z" fill="#9a9a9a"/>
            <path id="Caminho_2194" data-name="Caminho 2194" d="M216.647,1482.645a.6.6,0,0,1-.715-.641l-.248-4.549a.6.6,0,0,1,.471-.706.613.613,0,0,1,.171-.009l2.923-.159a.45.45,0,0,1,.531.35.476.476,0,0,1,.008.125.452.452,0,0,1-.358.531.411.411,0,0,1-.126.007l-2.363.128.076,1.383,2.169-.12a.521.521,0,0,1,.183,1.017.451.451,0,0,1-.127.006l-2.169.118.081,1.474,2.361-.129a.448.448,0,0,1,.531.348.419.419,0,0,1,.008.127.451.451,0,0,1-.354.532.459.459,0,0,1-.128.007Z" fill="#9a9a9a"/>
          </g>
        </g>
      </g>
    </g>
  </g>
</svg>
