<svg xmlns="http://www.w3.org/2000/svg" width="182.101" height="182.5" viewBox="0 0 182.101 182.5"><defs><style>.a{opacity:0.1;}.b{fill:#165425;}</style></defs><g class="a" transform="translate(-596.434 -128.205)"><path class="b" d="M605.137,159.2c-.7,2.372-2.92,3.837-4.905,3.237-2.016-.593-3.077-3.015-2.368-5.389.716-2.4,2.9-3.852,4.912-3.253S605.844,156.8,605.137,159.2Z" transform="translate(1.04 21.894)"/><path class="b" d="M609.972,151.143c-.7,2.372-2.922,3.837-4.905,3.235-2.018-.592-3.078-3.012-2.368-5.389.714-2.4,2.9-3.849,4.913-3.253S610.679,148.738,609.972,151.143Z" transform="translate(5.199 14.963)"/><path class="b" d="M616.82,143.488c-.7,2.374-2.919,3.837-4.9,3.237-2.016-.593-3.08-3.013-2.372-5.389.72-2.4,2.905-3.852,4.914-3.253S617.526,141.085,616.82,143.488Z" transform="translate(11.089 8.379)"/><path class="b" d="M631.991,174.266c-.7,2.372-2.917,3.837-4.9,3.237-2.018-.591-3.08-3.013-2.372-5.389.718-2.405,2.906-3.85,4.916-3.253S632.7,171.862,631.991,174.266Z" transform="translate(24.14 34.852)"/><path class="b" d="M627.752,181.7c-.7,2.374-2.919,3.839-4.9,3.237-2.018-.6-3.078-3.017-2.368-5.389.716-2.405,2.9-3.854,4.912-3.253S628.463,179.291,627.752,181.7Z" transform="translate(20.493 41.242)"/><path class="b" d="M626.763,190.28c-.7,2.377-2.92,3.839-4.905,3.237-2.016-.591-3.079-3.013-2.366-5.389.714-2.4,2.9-3.85,4.913-3.251S627.471,187.88,626.763,190.28Z" transform="translate(19.641 48.627)"/><path class="b" d="M627.093,198.537c-.7,2.375-2.918,3.837-4.9,3.235-2.016-.592-3.078-3.012-2.37-5.389.718-2.4,2.9-3.849,4.912-3.253S627.8,196.136,627.093,198.537Z" transform="translate(19.925 55.727)"/><path class="b" d="M629.735,207.123c-.7,2.372-2.92,3.837-4.9,3.238-2.016-.6-3.08-3.019-2.372-5.391.72-2.4,2.906-3.852,4.916-3.253S630.442,204.72,629.735,207.123Z" transform="translate(22.197 63.112)"/><path class="b" d="M632.377,215.049c-.7,2.372-2.92,3.837-4.9,3.237-2.016-.6-3.077-3.017-2.368-5.389.718-2.405,2.9-3.854,4.914-3.253S633.084,212.644,632.377,215.049Z" transform="translate(24.47 69.929)"/><path class="b" d="M625.773,220.662c-.7,2.375-2.922,3.839-4.905,3.237-2.016-.593-3.079-3.013-2.37-5.389.718-2.4,2.9-3.85,4.914-3.253S626.479,218.262,625.773,220.662Z" transform="translate(18.789 74.758)"/><path class="b" d="M608.565,139.855c-.7,2.374-2.922,3.837-4.9,3.237-2.018-.593-3.077-3.013-2.372-5.389.718-2.4,2.9-3.852,4.916-3.253S609.272,137.452,608.565,139.855Z" transform="translate(3.989 5.254)"/><path class="b" d="M604.252,133.746c-.7,2.374-2.917,3.837-4.9,3.237-2.016-.593-3.078-3.015-2.368-5.391.718-2.4,2.9-3.85,4.914-3.251S604.963,131.343,604.252,133.746Z" transform="translate(0.281 0)"/><path class="b" d="M615.168,134.57c-.7,2.375-2.917,3.839-4.9,3.237-2.016-.593-3.077-3.013-2.366-5.389.716-2.4,2.9-3.85,4.913-3.251S615.877,132.169,615.168,134.57Z" transform="translate(9.669 0.71)"/><path class="b" d="M603.942,145.8c-.7,2.372-2.92,3.837-4.9,3.237-2.016-.6-3.079-3.015-2.368-5.389.716-2.405,2.9-3.852,4.914-3.253S604.649,143.395,603.942,145.8Z" transform="translate(0.012 10.368)"/><path class="b" d="M625.385,138.611c-.7,2.374-2.919,3.837-4.9,3.237-2.02-.6-3.079-3.015-2.37-5.389.716-2.4,2.9-3.852,4.912-3.253S626.1,136.208,625.385,138.611Z" transform="translate(18.458 4.184)"/><path class="b" d="M721.911,139.565a3.1,3.1,0,0,0-3.075.469,13.317,13.317,0,0,1-7.785,2.463,16.712,16.712,0,0,1-2.972-.3,13.433,13.433,0,0,1-9.708-8.132,3.1,3.1,0,0,0-2.537-1.955,85.192,85.192,0,0,0-8.986-.487c-41.038.022-78.394,31.214-88.063,75.991a100.717,100.717,0,0,0-2.351,21.683,97.8,97.8,0,0,0,9.727,42.74L598.5,275.54a3.065,3.065,0,0,0-1.546,3.992L599.671,286a3.042,3.042,0,0,0,1.231,1.438,4.619,4.619,0,0,0,.586.32l15.545,6.043a2.984,2.984,0,0,0,2.493-.115l22.8-11.207a3.078,3.078,0,0,0,1.43-4.066c-4.836-10.348-9.02-27.9-8.984-43.024A60.336,60.336,0,0,1,636,222.358c7.079-32.743,32.786-55.269,59.443-55.214a46.929,46.929,0,0,1,10.106,1.1,47.5,47.5,0,0,1,10.947,3.793c15.123,10.965,24.607,30.742,24.6,52.894a80.81,80.81,0,0,1-1.817,16.951,77.109,77.109,0,0,1-16.637,33.956l-8.7-3.785a3.246,3.246,0,0,0-1.081-.3h-.128a3.133,3.133,0,0,0-1.678.43,2.523,2.523,0,0,0-.774.638l-5.448,6.356a3.082,3.082,0,0,0-.227,3.711l13.67,20.53a3.151,3.151,0,0,0,2.53,2.134L736,307.744c.151,0,.3.024.446.024a3.127,3.127,0,0,0,1.821-.593c18.125-13.225,33.119-35.7,38.062-58.411a98.9,98.9,0,0,0,2.21-20.835C778.524,190.362,757.478,153.718,721.911,139.565Zm-99.9,112.594c-.668,3.021-3.333,5.02-5.924,4.44-2.612-.578-4.17-3.506-3.49-6.544s3.331-5.039,5.939-4.438C621.136,246.177,622.691,249.121,622.007,252.159Zm-2.889-22.511c-1.717,2.591-4.993,3.471-7.31,1.94-2.342-1.529-2.837-4.864-1.146-7.476a5.084,5.084,0,1,1,8.456,5.536Zm3.871-23.344a5.221,5.221,0,1,1,2.833-7.141A5.436,5.436,0,0,1,622.989,206.3Zm16.641-25.664a5.647,5.647,0,1,1-3.8-6.767A5.514,5.514,0,0,1,639.629,180.639Zm11.616-25.29a5.642,5.642,0,1,1-2.388,7.344A5.459,5.459,0,0,1,651.246,155.349Zm99.536,110.163c-.876,2.959-3.644,4.792-6.123,4.04-2.517-.744-3.843-3.765-2.959-6.73.9-3,3.627-4.812,6.138-4.064S751.669,262.507,750.782,265.512ZM680.267,152.784c-.5,3.075-3.039,5.223-5.69,4.8s-4.377-3.27-3.893-6.343c.5-3.056,3.036-5.2,5.677-4.788S680.745,149.726,680.267,152.784Z" transform="translate(0 2.937)"/></g></svg>