<svg xmlns="http://www.w3.org/2000/svg" xmlns:xlink="http://www.w3.org/1999/xlink" width="836.636" height="819.658" viewBox="0 0 836.636 819.658"><defs><style>.a,.d{fill:#165425;}.b{opacity:0.1;}.c{clip-path:url(#a);}.d{opacity:0;}.e{clip-path:url(#b);}</style><clipPath id="a"><path class="a" d="M24,0H336a24,24,0,0,1,24,24V610.5a0,0,0,0,1,0,0H0a0,0,0,0,1,0,0V24A24,24,0,0,1,24,0Z" transform="translate(0 29.5)"/></clipPath><clipPath id="b"><path class="a" d="M24,0H336a24,24,0,0,1,24,24V610.5a0,0,0,0,1,0,0H0a0,0,0,0,1,0,0V24A24,24,0,0,1,24,0Z"/></clipPath></defs><g class="b" transform="matrix(0.914, -0.407, 0.407, 0.914, 52.868, 213.497)"><g class="c" transform="translate(-68 -6.75)"><g transform="translate(-191.812 346.584)"><g transform="translate(191.812 90.416)"><path class="d" d="M551.589,201.338c-9.432-5.12-12.256-15.016-12.256-23.377,0-23.156-14.365-29.026-25.751-29.026s-25.744,5.87-25.744,29.026c0,11.864-5.634,26.858-27.86,26.858s-27.86-14.994-27.86-26.858c0-23.156-14.4-29.026-25.782-29.026s-25.779,5.87-25.779,29.026c0,11.864-5.634,26.858-27.863,26.858s-27.86-14.994-27.86-26.858c0-23.156-14.356-29.026-25.748-29.026s-25.741,5.87-25.741,29.026c0,11.864-5.637,26.858-27.866,26.858s-27.86-14.994-27.86-26.858c0-23.156-14.372-29.026-25.763-29.026v52.758c11.392,0,25.763,5.87,25.763,29.039,0,11.852,5.63,26.861,27.86,26.861s27.866-15.009,27.866-26.861c0-23.169,14.362-29.039,25.741-29.039s25.748,5.87,25.748,29.039c0,11.852,5.637,26.861,27.86,26.861s27.863-15.009,27.863-26.861c0-23.169,14.393-29.039,25.779-29.039s25.782,5.87,25.782,29.039c0,11.852,5.63,26.861,27.86,26.861s27.86-15.009,27.86-26.861c0-23.169,14.362-29.039,25.744-29.039s25.751,5.87,25.751,29.039c0,8.349,2.825,18.257,12.256,23.38Z" transform="translate(-191.719 33.1)"/><path class="a" d="M551.589,213.831c-9.432-5.123-12.256-15.031-12.256-23.38,0-23.163-14.365-29.023-25.751-29.023s-25.744,5.861-25.744,29.023c0,11.855-5.634,26.868-27.86,26.868s-27.86-15.012-27.86-26.868c0-23.163-14.4-29.023-25.782-29.023s-25.779,5.861-25.779,29.023c0,11.855-5.634,26.868-27.863,26.868s-27.86-15.012-27.86-26.868c0-23.163-14.356-29.023-25.748-29.023s-25.741,5.861-25.741,29.023c0,11.855-5.637,26.868-27.866,26.868s-27.86-15.012-27.86-26.868c0-23.163-14.372-29.023-25.763-29.023V186.6c11.392,0,25.763,5.861,25.763,29.029,0,11.846,5.63,26.855,27.86,26.855s27.866-15.009,27.866-26.855c0-23.169,14.362-29.029,25.741-29.029s25.748,5.861,25.748,29.029c0,11.846,5.637,26.855,27.86,26.855s27.863-15.009,27.863-26.855c0-23.169,14.393-29.029,25.779-29.029s25.782,5.861,25.782,29.029c0,11.846,5.63,26.855,27.86,26.855s27.86-15.009,27.86-26.855c0-23.169,14.362-29.029,25.744-29.029s25.751,5.861,25.751,29.029c0,8.349,2.825,18.254,12.256,23.377Z" transform="translate(-191.719 59.47)"/><path class="d" d="M551.589,185.139c-9.432-5.123-12.256-15.016-12.256-23.377,0-23.15-14.365-29.029-25.751-29.029s-25.744,5.879-25.744,29.029c0,11.861-5.634,26.852-27.86,26.852s-27.86-14.991-27.86-26.852c0-23.15-14.4-29.029-25.782-29.029s-25.779,5.879-25.779,29.029c0,11.861-5.634,26.852-27.863,26.852s-27.86-14.991-27.86-26.852c0-23.15-14.356-29.029-25.748-29.029s-25.741,5.879-25.741,29.029c0,11.861-5.637,26.852-27.866,26.852s-27.86-14.991-27.86-26.852c0-23.15-14.372-29.029-25.763-29.029V185.5c11.392,0,25.763,5.861,25.763,29.02,0,11.864,5.63,26.858,27.86,26.858s27.866-14.994,27.866-26.858c0-23.16,14.362-29.02,25.741-29.02s25.748,5.861,25.748,29.02c0,11.864,5.637,26.858,27.86,26.858s27.863-14.994,27.863-26.858c0-23.16,14.393-29.02,25.779-29.02s25.782,5.861,25.782,29.02c0,11.864,5.63,26.858,27.86,26.858s27.86-14.994,27.86-26.858c0-23.16,14.362-29.02,25.744-29.02s25.751,5.861,25.751,29.02c0,8.359,2.825,18.254,12.256,23.38Z" transform="translate(-191.719 -1.098)"/><path class="a" d="M551.589,197.647c-9.432-5.13-12.256-15.022-12.256-23.383,0-23.153-14.365-29.017-25.751-29.017s-25.744,5.864-25.744,29.017c0,11.864-5.634,26.861-27.86,26.861s-27.86-15-27.86-26.861c0-23.153-14.4-29.017-25.782-29.017s-25.779,5.864-25.779,29.017c0,11.864-5.634,26.861-27.863,26.861s-27.86-15-27.86-26.861c0-23.153-14.356-29.017-25.748-29.017s-25.741,5.864-25.741,29.017c0,11.864-5.637,26.861-27.866,26.861s-27.86-15-27.86-26.861c0-23.153-14.372-29.017-25.763-29.017v25.166c11.392,0,25.763,5.861,25.763,29.023,0,11.861,5.63,26.858,27.86,26.858s27.866-15,27.866-26.858c0-23.163,14.362-29.023,25.741-29.023s25.748,5.861,25.748,29.023c0,11.861,5.637,26.858,27.86,26.858s27.863-15,27.863-26.858c0-23.163,14.393-29.023,25.779-29.023s25.782,5.861,25.782,29.023c0,11.861,5.63,26.858,27.86,26.858s27.86-15,27.86-26.858c0-23.163,14.362-29.023,25.744-29.023s25.751,5.861,25.751,29.023c0,8.352,2.825,18.254,12.256,23.387Z" transform="translate(-191.719 25.318)"/><path class="a" d="M551.589,181.5c-9.432-5.117-12.256-15.009-12.256-23.368,0-23.156-14.365-29.02-25.751-29.02s-25.744,5.864-25.744,29.02c0,11.858-5.634,26.852-27.86,26.852s-27.86-14.994-27.86-26.852c0-23.156-14.4-29.02-25.782-29.02s-25.779,5.864-25.779,29.02c0,11.858-5.634,26.852-27.863,26.852s-27.86-14.994-27.86-26.852c0-23.156-14.356-29.02-25.748-29.02s-25.741,5.864-25.741,29.02c0,11.858-5.637,26.852-27.866,26.852s-27.86-14.994-27.86-26.852c0-23.156-14.372-29.02-25.763-29.02v25.166c11.392,0,25.763,5.87,25.763,29.014,0,11.852,5.63,26.855,27.86,26.855s27.866-15,27.866-26.855c0-23.144,14.362-29.014,25.741-29.014s25.748,5.87,25.748,29.014c0,11.852,5.637,26.855,27.86,26.855s27.863-15,27.863-26.855c0-23.144,14.393-29.014,25.779-29.014s25.782,5.87,25.782,29.014c0,11.852,5.63,26.855,27.86,26.855s27.86-15,27.86-26.855c0-23.144,14.362-29.014,25.744-29.014s25.751,5.87,25.751,29.014c0,8.346,2.825,18.238,12.256,23.374Z" transform="translate(-191.719 -8.741)"/><path class="d" d="M551.675,165.532c-9.444-5.1-12.294-14.984-12.315-23.331-.059-23.153-14.44-29-25.825-28.964s-25.729,5.942-25.67,29.1c.031,11.846-5.565,26.855-27.791,26.911s-27.9-14.922-27.928-26.768c-.059-23.156-14.471-29-25.857-28.964s-25.763,5.938-25.7,29.095c.028,11.846-5.562,26.858-27.795,26.914s-27.9-14.925-27.928-26.771c-.059-23.156-14.431-28.992-25.822-28.964s-25.726,5.941-25.667,29.1c.028,11.846-5.565,26.855-27.8,26.911s-27.9-14.922-27.928-26.768c-.059-23.156-14.446-29-25.835-28.967l.134,52.136v.622c11.392-.028,25.779,5.8,25.838,28.949.028,11.864,5.7,26.846,27.928,26.787s27.826-15.068,27.8-26.93c-.062-23.156,14.288-29.051,25.667-29.079s25.76,5.792,25.822,28.945c.031,11.864,5.705,26.846,27.925,26.79s27.826-15.068,27.794-26.933c-.059-23.153,14.322-29.048,25.707-29.079s25.794,5.8,25.853,28.949c.031,11.861,5.7,26.843,27.931,26.787s27.819-15.068,27.788-26.93c-.059-23.153,14.288-29.051,25.67-29.079s25.766,5.792,25.828,28.945c.019,8.362,2.871,18.248,12.315,23.343Z" transform="translate(-191.812 -42.247)"/><path class="a" d="M551.589,162.108c-9.432-5.114-12.256-15-12.256-23.359,0-23.153-14.365-29.017-25.751-29.017s-25.744,5.864-25.744,29.017c0,11.861-5.634,26.843-27.86,26.843s-27.86-14.981-27.86-26.843c0-23.153-14.4-29.017-25.782-29.017s-25.779,5.864-25.779,29.017c0,11.861-5.634,26.843-27.863,26.843s-27.86-14.981-27.86-26.843c0-23.153-14.356-29.017-25.748-29.017s-25.741,5.864-25.741,29.017c0,11.861-5.637,26.843-27.866,26.843s-27.86-14.981-27.86-26.843c0-23.153-14.372-29.017-25.763-29.017v25.163c11.392,0,25.763,5.873,25.763,29,0,11.855,5.63,26.861,27.86,26.861s27.866-15.006,27.866-26.861c0-23.131,14.362-29,25.741-29s25.748,5.873,25.748,29c0,11.855,5.637,26.861,27.86,26.861s27.863-15.006,27.863-26.861c0-23.131,14.393-29,25.779-29s25.782,5.873,25.782,29c0,11.855,5.63,26.861,27.86,26.861s27.86-15.006,27.86-26.861c0-23.131,14.362-29,25.744-29s25.751,5.873,25.751,29c0,8.352,2.825,18.245,12.256,23.377Z" transform="translate(-191.719 -49.645)"/><path class="d" d="M551.589,146.452c-9.432-5.123-12.256-15.019-12.256-23.38,0-23.156-14.365-29.033-25.751-29.033s-25.744,5.876-25.744,29.033c0,11.861-5.634,26.861-27.86,26.861s-27.86-15-27.86-26.861c0-23.156-14.4-29.033-25.782-29.033s-25.779,5.876-25.779,29.033c0,11.861-5.634,26.861-27.863,26.861s-27.86-15-27.86-26.861c0-23.156-14.356-29.033-25.748-29.033s-25.741,5.876-25.741,29.033c0,11.861-5.637,26.861-27.866,26.861s-27.86-15-27.86-26.861c0-23.156-14.372-29.033-25.763-29.033v52.777c11.392,0,25.763,5.864,25.763,29.02,0,11.852,5.63,26.843,27.86,26.843s27.866-14.991,27.866-26.843c0-23.156,14.362-29.02,25.741-29.02s25.748,5.864,25.748,29.02c0,11.852,5.637,26.843,27.86,26.843s27.863-14.991,27.863-26.843c0-23.156,14.393-29.02,25.779-29.02s25.782,5.864,25.782,29.02c0,11.852,5.63,26.843,27.86,26.843s27.86-14.991,27.86-26.843c0-23.156,14.362-29.02,25.744-29.02s25.751,5.864,25.751,29.02c0,8.355,2.825,18.235,12.256,23.362Z" transform="translate(-191.719 -82.769)"/><path class="a" d="M551.589,142.813c-9.432-5.117-12.256-15.016-12.256-23.374,0-23.159-14.365-29.023-25.751-29.023s-25.744,5.864-25.744,29.023c0,11.861-5.634,26.861-27.86,26.861s-27.86-15-27.86-26.861c0-23.159-14.4-29.023-25.782-29.023s-25.779,5.864-25.779,29.023c0,11.861-5.634,26.861-27.863,26.861s-27.86-15-27.86-26.861c0-23.159-14.356-29.023-25.748-29.023s-25.741,5.864-25.741,29.023c0,11.861-5.637,26.861-27.866,26.861s-27.86-15-27.86-26.861c0-23.159-14.372-29.023-25.763-29.023v25.166c11.392,0,25.763,5.873,25.763,29.023,0,11.858,5.63,26.861,27.86,26.861s27.866-15,27.866-26.861c0-23.15,14.362-29.023,25.741-29.023s25.748,5.873,25.748,29.023c0,11.858,5.637,26.861,27.86,26.861s27.863-15,27.863-26.861c0-23.15,14.393-29.023,25.779-29.023s25.782,5.873,25.782,29.023c0,11.858,5.63,26.861,27.86,26.861s27.86-15,27.86-26.861c0-23.15,14.362-29.023,25.744-29.023s25.751,5.873,25.751,29.023c0,8.349,2.825,18.248,12.256,23.383Z" transform="translate(-191.719 -90.416)"/><path class="a" d="M551.589,230.109c-9.432-5.123-12.256-15.019-12.256-23.383,0-23.163-14.365-29.036-25.751-29.036s-25.744,5.873-25.744,29.036c0,11.868-5.634,26.864-27.86,26.864s-27.86-15-27.86-26.864c0-23.163-14.4-29.036-25.782-29.036s-25.779,5.873-25.779,29.036c0,11.868-5.634,26.864-27.863,26.864s-27.86-15-27.86-26.864c0-23.163-14.356-29.036-25.748-29.036s-25.741,5.873-25.741,29.036c0,11.868-5.637,26.864-27.866,26.864s-27.86-15-27.86-26.864c0-23.163-14.372-29.036-25.763-29.036v52.771c11.392,0,25.763,5.876,25.763,29.039,0,11.849,5.63,26.864,27.86,26.864s27.866-15.015,27.866-26.864c0-23.163,14.362-29.039,25.741-29.039s25.748,5.876,25.748,29.039c0,11.849,5.637,26.864,27.86,26.864s27.863-15.015,27.863-26.864c0-23.163,14.393-29.039,25.779-29.039s25.782,5.876,25.782,29.039c0,11.849,5.63,26.864,27.86,26.864s27.86-15.015,27.86-26.864c0-23.163,14.362-29.039,25.744-29.039s25.751,5.876,25.751,29.039c0,8.359,2.825,18.26,12.256,23.38Z" transform="translate(-191.719 93.797)"/><path class="a" d="M551.589,245.673c-9.432-5.127-12.256-15.034-12.256-23.377,0-23.169-14.365-29.029-25.751-29.029s-25.744,5.861-25.744,29.029c0,11.846-5.634,26.861-27.86,26.861s-27.86-15.016-27.86-26.861c0-23.169-14.4-29.029-25.782-29.029s-25.779,5.861-25.779,29.029c0,11.846-5.634,26.861-27.863,26.861s-27.86-15.016-27.86-26.861c0-23.169-14.356-29.029-25.748-29.029s-25.741,5.861-25.741,29.029c0,11.846-5.637,26.861-27.866,26.861s-27.86-15.016-27.86-26.861c0-23.169-14.372-29.029-25.763-29.029v25.169c11.392,0,25.763,5.864,25.763,29.029,0,11.849,5.63,26.861,27.86,26.861s27.866-15.012,27.866-26.861c0-23.166,14.362-29.029,25.741-29.029s25.748,5.864,25.748,29.029c0,11.849,5.637,26.861,27.86,26.861s27.863-15.012,27.863-26.861c0-23.166,14.393-29.029,25.779-29.029s25.782,5.864,25.782,29.029c0,11.849,5.63,26.861,27.86,26.861s27.86-15.012,27.86-26.861c0-23.166,14.362-29.029,25.744-29.029s25.751,5.864,25.751,29.029c0,8.349,2.825,18.257,12.256,23.38Z" transform="translate(-191.719 126.674)"/><path class="a" d="M551.589,232.413c-9.432-5.127-12.256-15.025-12.256-23.387,0-23.159-14.365-29.033-25.751-29.033s-25.744,5.873-25.744,29.033c0,11.871-5.634,26.861-27.86,26.861s-27.86-14.991-27.86-26.861c0-23.159-14.4-29.033-25.782-29.033s-25.779,5.873-25.779,29.033c0,11.871-5.634,26.861-27.863,26.861s-27.86-14.991-27.86-26.861c0-23.159-14.356-29.033-25.748-29.033s-25.741,5.873-25.741,29.033c0,11.871-5.637,26.861-27.866,26.861s-27.86-14.991-27.86-26.861c0-23.159-14.372-29.033-25.763-29.033v52.764c11.392,0,25.763,5.876,25.763,29.045,0,11.855,5.63,26.858,27.86,26.858s27.866-15,27.866-26.858c0-23.169,14.362-29.045,25.741-29.045s25.748,5.876,25.748,29.045c0,11.855,5.637,26.858,27.86,26.858s27.863-15,27.863-26.858c0-23.169,14.393-29.045,25.779-29.045s25.782,5.876,25.782,29.045c0,11.855,5.63,26.858,27.86,26.858s27.86-15,27.86-26.858c0-23.169,14.362-29.045,25.744-29.045s25.751,5.876,25.751,29.045c0,8.346,2.825,18.251,12.256,23.38Z" transform="translate(-191.719 98.66)"/><path class="a" d="M551.589,244.9c-9.432-5.123-12.256-15.034-12.256-23.383,0-23.163-14.365-29.026-25.751-29.026s-25.744,5.864-25.744,29.026c0,11.858-5.634,26.864-27.86,26.864s-27.86-15.006-27.86-26.864c0-23.163-14.4-29.026-25.782-29.026s-25.779,5.864-25.779,29.026c0,11.858-5.634,26.864-27.863,26.864s-27.86-15.006-27.86-26.864c0-23.163-14.356-29.026-25.748-29.026s-25.741,5.864-25.741,29.026c0,11.858-5.637,26.864-27.866,26.864s-27.86-15.006-27.86-26.864c0-23.163-14.372-29.026-25.763-29.026v25.172c11.392,0,25.763,5.864,25.763,29.026,0,11.852,5.63,26.864,27.86,26.864s27.866-15.012,27.866-26.864c0-23.163,14.362-29.026,25.741-29.026s25.748,5.864,25.748,29.026c0,11.852,5.637,26.864,27.86,26.864s27.863-15.012,27.863-26.864c0-23.163,14.393-29.026,25.779-29.026s25.782,5.864,25.782,29.026c0,11.852,5.63,26.864,27.86,26.864s27.86-15.012,27.86-26.864c0-23.163,14.362-29.026,25.744-29.026s25.751,5.864,25.751,29.026c0,8.352,2.825,18.26,12.256,23.38Z" transform="translate(-191.719 125.034)"/><path class="a" d="M551.589,250.871c-9.432-5.123-12.256-15.019-12.256-23.383,0-23.156-14.365-29.033-25.751-29.033s-25.744,5.876-25.744,29.033c0,11.864-5.634,26.864-27.86,26.864s-27.86-15-27.86-26.864c0-23.156-14.4-29.033-25.782-29.033s-25.779,5.876-25.779,29.033c0,11.864-5.634,26.864-27.863,26.864s-27.86-15-27.86-26.864c0-23.156-14.356-29.033-25.748-29.033s-25.741,5.876-25.741,29.033c0,11.864-5.637,26.864-27.866,26.864s-27.86-15-27.86-26.864c0-23.156-14.372-29.033-25.763-29.033v52.774c11.392,0,25.763,5.873,25.763,29.033,0,11.855,5.63,26.867,27.86,26.867s27.866-15.012,27.866-26.867c0-23.16,14.362-29.033,25.741-29.033s25.748,5.873,25.748,29.033c0,11.855,5.637,26.867,27.86,26.867s27.863-15.012,27.863-26.867c0-23.16,14.393-29.033,25.779-29.033s25.782,5.873,25.782,29.033c0,11.855,5.63,26.867,27.86,26.867s27.86-15.012,27.86-26.867c0-23.16,14.362-29.033,25.744-29.033s25.751,5.873,25.751,29.033c0,8.355,2.825,18.26,12.256,23.38Z" transform="translate(-191.719 137.627)"/><path class="a" d="M551.589,266.439c-9.432-5.123-12.256-15.031-12.256-23.38,0-23.159-14.365-29.029-25.751-29.029s-25.744,5.87-25.744,29.029c0,11.855-5.634,26.868-27.86,26.868s-27.86-15.012-27.86-26.868c0-23.159-14.4-29.029-25.782-29.029s-25.779,5.87-25.779,29.029c0,11.855-5.634,26.868-27.863,26.868s-27.86-15.012-27.86-26.868c0-23.159-14.356-29.029-25.748-29.029s-25.741,5.87-25.741,29.029c0,11.855-5.637,26.868-27.866,26.868s-27.86-15.012-27.86-26.868c0-23.159-14.372-29.029-25.763-29.029v25.178c11.392,0,25.763,5.858,25.763,29.02,0,11.855,5.63,26.864,27.86,26.864s27.866-15.009,27.866-26.864c0-23.163,14.362-29.02,25.741-29.02s25.748,5.858,25.748,29.02c0,11.855,5.637,26.864,27.86,26.864s27.863-15.009,27.863-26.864c0-23.163,14.393-29.02,25.779-29.02s25.782,5.858,25.782,29.02c0,11.855,5.63,26.864,27.86,26.864s27.86-15.009,27.86-26.864c0-23.163,14.362-29.02,25.744-29.02s25.751,5.858,25.751,29.02c0,8.359,2.825,18.26,12.256,23.38Z" transform="translate(-191.719 170.499)"/><path class="a" d="M551.589,253.173c-9.432-5.12-12.256-15.019-12.256-23.377,0-23.166-14.365-29.039-25.751-29.039s-25.744,5.873-25.744,29.039c0,11.864-5.634,26.858-27.86,26.858s-27.86-14.994-27.86-26.858c0-23.166-14.4-29.039-25.782-29.039s-25.779,5.873-25.779,29.039c0,11.864-5.634,26.858-27.863,26.858s-27.86-14.994-27.86-26.858c0-23.166-14.356-29.039-25.748-29.039s-25.741,5.873-25.741,29.039c0,11.864-5.637,26.858-27.866,26.858s-27.86-14.994-27.86-26.858c0-23.166-14.372-29.039-25.763-29.039v52.768c11.392,0,25.763,5.873,25.763,29.045,0,11.852,5.63,26.855,27.86,26.855s27.866-15,27.866-26.855c0-23.172,14.362-29.045,25.741-29.045s25.748,5.873,25.748,29.045c0,11.852,5.637,26.855,27.86,26.855s27.863-15,27.863-26.855c0-23.172,14.393-29.045,25.779-29.045s25.782,5.873,25.782,29.045c0,11.852,5.63,26.855,27.86,26.855s27.86-15,27.86-26.855c0-23.172,14.362-29.045,25.744-29.045s25.751,5.873,25.751,29.045c0,8.346,2.825,18.254,12.256,23.377Z" transform="translate(-191.719 142.485)"/><path class="a" d="M551.589,265.663c-9.432-5.126-12.256-15.031-12.256-23.383,0-23.156-14.365-29.026-25.751-29.026s-25.744,5.87-25.744,29.026c0,11.855-5.634,26.871-27.86,26.871s-27.86-15.016-27.86-26.871c0-23.156-14.4-29.026-25.782-29.026s-25.779,5.87-25.779,29.026c0,11.855-5.634,26.871-27.863,26.871s-27.86-15.016-27.86-26.871c0-23.156-14.356-29.026-25.748-29.026s-25.741,5.87-25.741,29.026c0,11.855-5.637,26.871-27.866,26.871s-27.86-15.016-27.86-26.871c0-23.156-14.372-29.026-25.763-29.026v25.175c11.392,0,25.763,5.858,25.763,29.023,0,11.852,5.63,26.868,27.86,26.868s27.866-15.016,27.866-26.868c0-23.166,14.362-29.023,25.741-29.023s25.748,5.858,25.748,29.023c0,11.852,5.637,26.868,27.86,26.868s27.863-15.016,27.863-26.868c0-23.166,14.393-29.023,25.779-29.023s25.782,5.858,25.782,29.023c0,11.852,5.63,26.868,27.86,26.868s27.86-15.016,27.86-26.868c0-23.166,14.362-29.023,25.744-29.023s25.751,5.858,25.751,29.023c0,8.352,2.825,18.26,12.256,23.377Z" transform="translate(-191.719 168.861)"/><path class="a" d="M551.589,216.983c-9.432-5.123-12.256-15.019-12.256-23.38,0-23.163-14.365-29.039-25.751-29.039s-25.744,5.876-25.744,29.039c0,11.861-5.634,26.861-27.86,26.861s-27.86-15-27.86-26.861c0-23.163-14.4-29.039-25.782-29.039s-25.779,5.876-25.779,29.039c0,11.861-5.634,26.861-27.863,26.861s-27.86-15-27.86-26.861c0-23.163-14.356-29.039-25.748-29.039s-25.741,5.876-25.741,29.039c0,11.861-5.637,26.861-27.866,26.861s-27.86-15-27.86-26.861c0-23.163-14.372-29.039-25.763-29.039v52.783c11.392,0,25.763,5.864,25.763,29.023,0,11.864,5.63,26.867,27.86,26.867s27.866-15,27.866-26.867c0-23.16,14.362-29.023,25.741-29.023s25.748,5.864,25.748,29.023c0,11.864,5.637,26.867,27.86,26.867s27.863-15,27.863-26.867c0-23.16,14.393-29.023,25.779-29.023s25.782,5.864,25.782,29.023c0,11.864,5.63,26.867,27.86,26.867s27.86-15,27.86-26.867c0-23.16,14.362-29.023,25.744-29.023s25.751,5.864,25.751,29.023c0,8.362,2.825,18.254,12.256,23.387Z" transform="translate(-191.719 66.091)"/><path class="a" d="M551.589,229.495c-9.432-5.126-12.256-15.025-12.256-23.387,0-23.16-14.365-29.026-25.751-29.026s-25.744,5.867-25.744,29.026c0,11.864-5.634,26.871-27.86,26.871s-27.86-15.006-27.86-26.871c0-23.16-14.4-29.026-25.782-29.026s-25.779,5.867-25.779,29.026c0,11.864-5.634,26.871-27.863,26.871s-27.86-15.006-27.86-26.871c0-23.16-14.356-29.026-25.748-29.026s-25.741,5.867-25.741,29.026c0,11.864-5.637,26.871-27.866,26.871s-27.86-15.006-27.86-26.871c0-23.16-14.372-29.026-25.763-29.026v25.175c11.392,0,25.763,5.864,25.763,29.026,0,11.858,5.63,26.858,27.86,26.858s27.866-15,27.866-26.858c0-23.163,14.362-29.026,25.741-29.026s25.748,5.864,25.748,29.026c0,11.858,5.637,26.858,27.86,26.858s27.863-15,27.863-26.858c0-23.163,14.393-29.026,25.779-29.026s25.782,5.864,25.782,29.026c0,11.858,5.63,26.858,27.86,26.858s27.86-15,27.86-26.858c0-23.163,14.362-29.026,25.744-29.026s25.751,5.864,25.751,29.026c0,8.355,2.825,18.257,12.256,23.383Z" transform="translate(-191.719 92.514)"/><path class="a" d="M551.589,213.345c-9.432-5.12-12.256-15.019-12.256-23.38,0-23.159-14.365-29.023-25.751-29.023s-25.744,5.864-25.744,29.023c0,11.867-5.634,26.864-27.86,26.864s-27.86-15-27.86-26.864c0-23.159-14.4-29.023-25.782-29.023s-25.779,5.864-25.779,29.023c0,11.867-5.634,26.864-27.863,26.864s-27.86-15-27.86-26.864c0-23.159-14.356-29.023-25.748-29.023s-25.741,5.864-25.741,29.023c0,11.867-5.637,26.864-27.866,26.864s-27.86-15-27.86-26.864c0-23.159-14.372-29.023-25.763-29.023V186.11c11.392,0,25.763,5.876,25.763,29.026,0,11.855,5.63,26.861,27.86,26.861s27.866-15.006,27.866-26.861c0-23.15,14.362-29.026,25.741-29.026s25.748,5.876,25.748,29.026c0,11.855,5.637,26.861,27.86,26.861s27.863-15.006,27.863-26.861c0-23.15,14.393-29.026,25.779-29.026s25.782,5.876,25.782,29.026c0,11.855,5.63,26.861,27.86,26.861s27.86-15.006,27.86-26.861c0-23.15,14.362-29.026,25.744-29.026s25.751,5.876,25.751,29.026c0,8.352,2.825,18.248,12.256,23.38Z" transform="translate(-191.719 58.444)"/><path class="a" d="M271.979,181.684H264.8v40.5h8.558c15.551,0,35.857,1.266,35.857-20.161C309.217,180.256,287.181,181.684,271.979,181.684Z" transform="translate(-37.749 102.187)"/></g></g></g><g class="e" transform="translate(216 22.75)"><g transform="translate(0 407.5)"><g transform="translate(0)"><path class="a" d="M191.856,201.338c9.432-5.12,12.256-15.016,12.256-23.377,0-23.156,14.365-29.026,25.751-29.026s25.744,5.87,25.744,29.026c0,11.864,5.634,26.858,27.86,26.858s27.86-14.994,27.86-26.858c0-23.156,14.4-29.026,25.782-29.026s25.779,5.87,25.779,29.026c0,11.864,5.634,26.858,27.863,26.858s27.86-14.994,27.86-26.858c0-23.156,14.356-29.026,25.748-29.026S470.1,154.8,470.1,177.96c0,11.864,5.637,26.858,27.866,26.858s27.86-14.994,27.86-26.858c0-23.156,14.372-29.026,25.763-29.026v52.758c-11.392,0-25.763,5.87-25.763,29.039,0,11.852-5.63,26.861-27.86,26.861S470.1,242.583,470.1,230.731c0-23.169-14.362-29.039-25.741-29.039s-25.748,5.87-25.748,29.039c0,11.852-5.637,26.861-27.86,26.861s-27.863-15.009-27.863-26.861c0-23.169-14.393-29.039-25.779-29.039s-25.782,5.87-25.782,29.039c0,11.852-5.63,26.861-27.86,26.861s-27.86-15.009-27.86-26.861c0-23.169-14.362-29.039-25.744-29.039s-25.751,5.87-25.751,29.039c0,8.349-2.825,18.257-12.256,23.38Z" transform="translate(-191.725 33.1)"/><path class="a" d="M191.856,213.831c9.432-5.123,12.256-15.031,12.256-23.38,0-23.163,14.365-29.023,25.751-29.023s25.744,5.861,25.744,29.023c0,11.855,5.634,26.868,27.86,26.868s27.86-15.012,27.86-26.868c0-23.163,14.4-29.023,25.782-29.023s25.779,5.861,25.779,29.023c0,11.855,5.634,26.868,27.863,26.868s27.86-15.012,27.86-26.868c0-23.163,14.356-29.023,25.748-29.023S470.1,167.288,470.1,190.45c0,11.855,5.637,26.868,27.866,26.868s27.86-15.012,27.86-26.868c0-23.163,14.372-29.023,25.763-29.023V186.6c-11.392,0-25.763,5.861-25.763,29.029,0,11.846-5.63,26.855-27.86,26.855S470.1,227.471,470.1,215.626c0-23.169-14.362-29.029-25.741-29.029s-25.748,5.861-25.748,29.029c0,11.846-5.637,26.855-27.86,26.855s-27.863-15.009-27.863-26.855c0-23.169-14.393-29.029-25.779-29.029s-25.782,5.861-25.782,29.029c0,11.846-5.63,26.855-27.86,26.855s-27.86-15.009-27.86-26.855c0-23.169-14.362-29.029-25.744-29.029s-25.751,5.861-25.751,29.029c0,8.349-2.825,18.254-12.256,23.377Z" transform="translate(-191.725 59.47)"/><path class="d" d="M191.856,185.139c9.432-5.123,12.256-15.016,12.256-23.377,0-23.15,14.365-29.029,25.751-29.029s25.744,5.879,25.744,29.029c0,11.861,5.634,26.852,27.86,26.852s27.86-14.991,27.86-26.852c0-23.15,14.4-29.029,25.782-29.029s25.779,5.879,25.779,29.029c0,11.861,5.634,26.852,27.863,26.852s27.86-14.991,27.86-26.852c0-23.15,14.356-29.029,25.748-29.029s25.741,5.879,25.741,29.029c0,11.861,5.637,26.852,27.866,26.852s27.86-14.991,27.86-26.852c0-23.15,14.372-29.029,25.763-29.029V185.5c-11.392,0-25.763,5.861-25.763,29.02,0,11.864-5.63,26.858-27.86,26.858S470.1,226.384,470.1,214.52c0-23.16-14.362-29.02-25.741-29.02s-25.748,5.861-25.748,29.02c0,11.864-5.637,26.858-27.86,26.858s-27.863-14.994-27.863-26.858c0-23.16-14.393-29.02-25.779-29.02s-25.782,5.861-25.782,29.02c0,11.864-5.63,26.858-27.86,26.858s-27.86-14.994-27.86-26.858c0-23.16-14.362-29.02-25.744-29.02s-25.751,5.861-25.751,29.02c0,8.359-2.825,18.254-12.256,23.38Z" transform="translate(-191.725 -1.098)"/><path class="d" d="M191.856,197.647c9.432-5.13,12.256-15.022,12.256-23.383,0-23.153,14.365-29.017,25.751-29.017s25.744,5.864,25.744,29.017c0,11.864,5.634,26.861,27.86,26.861s27.86-15,27.86-26.861c0-23.153,14.4-29.017,25.782-29.017s25.779,5.864,25.779,29.017c0,11.864,5.634,26.861,27.863,26.861s27.86-15,27.86-26.861c0-23.153,14.356-29.017,25.748-29.017s25.741,5.864,25.741,29.017c0,11.864,5.637,26.861,27.866,26.861s27.86-15,27.86-26.861c0-23.153,14.372-29.017,25.763-29.017v25.166c-11.392,0-25.763,5.861-25.763,29.023,0,11.861-5.63,26.858-27.86,26.858s-27.866-15-27.866-26.858c0-23.163-14.362-29.023-25.741-29.023s-25.748,5.861-25.748,29.023c0,11.861-5.637,26.858-27.86,26.858s-27.863-15-27.863-26.858c0-23.163-14.393-29.023-25.779-29.023s-25.782,5.861-25.782,29.023c0,11.861-5.63,26.858-27.86,26.858s-27.86-15-27.86-26.858c0-23.163-14.362-29.023-25.744-29.023s-25.751,5.861-25.751,29.023c0,8.352-2.825,18.254-12.256,23.387Z" transform="translate(-191.725 25.318)"/><path class="a" d="M191.856,181.5c9.432-5.117,12.256-15.009,12.256-23.368,0-23.156,14.365-29.02,25.751-29.02s25.744,5.864,25.744,29.02c0,11.858,5.634,26.852,27.86,26.852s27.86-14.994,27.86-26.852c0-23.156,14.4-29.02,25.782-29.02s25.779,5.864,25.779,29.02c0,11.858,5.634,26.852,27.863,26.852s27.86-14.994,27.86-26.852c0-23.156,14.356-29.02,25.748-29.02s25.741,5.864,25.741,29.02c0,11.858,5.637,26.852,27.866,26.852s27.86-14.994,27.86-26.852c0-23.156,14.372-29.02,25.763-29.02v25.166c-11.392,0-25.763,5.87-25.763,29.014,0,11.852-5.63,26.855-27.86,26.855s-27.866-15-27.866-26.855c0-23.144-14.362-29.014-25.741-29.014s-25.748,5.87-25.748,29.014c0,11.852-5.637,26.855-27.86,26.855s-27.863-15-27.863-26.855c0-23.144-14.393-29.014-25.779-29.014s-25.782,5.87-25.782,29.014c0,11.852-5.63,26.855-27.86,26.855s-27.86-15-27.86-26.855c0-23.144-14.362-29.014-25.744-29.014s-25.751,5.87-25.751,29.014c0,8.346-2.825,18.238-12.256,23.374Z" transform="translate(-191.725 -8.741)"/><path class="d" d="M191.949,165.532c9.444-5.1,12.294-14.984,12.315-23.331.059-23.153,14.44-29,25.825-28.964s25.729,5.942,25.67,29.1c-.031,11.846,5.565,26.855,27.791,26.911s27.9-14.922,27.928-26.768c.059-23.156,14.471-29,25.857-28.964s25.763,5.938,25.7,29.095c-.028,11.846,5.562,26.858,27.795,26.914s27.9-14.925,27.928-26.771c.059-23.156,14.431-28.992,25.822-28.964s25.726,5.941,25.667,29.1c-.028,11.846,5.565,26.855,27.8,26.911s27.9-14.922,27.928-26.768c.059-23.156,14.446-29,25.835-28.967l-.134,52.136v.622c-11.391-.028-25.779,5.8-25.838,28.949-.028,11.864-5.7,26.846-27.928,26.787s-27.826-15.068-27.8-26.93c.062-23.156-14.288-29.051-25.667-29.079s-25.76,5.792-25.822,28.945c-.031,11.864-5.705,26.846-27.925,26.79s-27.826-15.068-27.794-26.933c.059-23.153-14.322-29.048-25.707-29.079s-25.794,5.8-25.853,28.949c-.031,11.861-5.7,26.843-27.931,26.787s-27.819-15.068-27.788-26.93c.059-23.153-14.288-29.051-25.67-29.079s-25.766,5.792-25.828,28.945c-.019,8.362-2.871,18.248-12.315,23.343Z" transform="translate(-191.812 -42.247)"/><path class="a" d="M191.856,162.108c9.432-5.114,12.256-15,12.256-23.359,0-23.153,14.365-29.017,25.751-29.017s25.744,5.864,25.744,29.017c0,11.861,5.634,26.843,27.86,26.843s27.86-14.981,27.86-26.843c0-23.153,14.4-29.017,25.782-29.017s25.779,5.864,25.779,29.017c0,11.861,5.634,26.843,27.863,26.843s27.86-14.981,27.86-26.843c0-23.153,14.356-29.017,25.748-29.017S470.1,115.6,470.1,138.749c0,11.861,5.637,26.843,27.866,26.843s27.86-14.981,27.86-26.843c0-23.153,14.372-29.017,25.763-29.017v25.163c-11.392,0-25.763,5.873-25.763,29,0,11.855-5.63,26.861-27.86,26.861S470.1,175.754,470.1,163.9c0-23.131-14.362-29-25.741-29s-25.748,5.873-25.748,29c0,11.855-5.637,26.861-27.86,26.861s-27.863-15.006-27.863-26.861c0-23.131-14.393-29-25.779-29s-25.782,5.873-25.782,29c0,11.855-5.63,26.861-27.86,26.861s-27.86-15.006-27.86-26.861c0-23.131-14.362-29-25.744-29s-25.751,5.873-25.751,29c0,8.352-2.825,18.245-12.256,23.377Z" transform="translate(-191.725 -49.645)"/><path class="d" d="M191.856,146.452c9.432-5.123,12.256-15.019,12.256-23.38,0-23.156,14.365-29.033,25.751-29.033s25.744,5.876,25.744,29.033c0,11.861,5.634,26.861,27.86,26.861s27.86-15,27.86-26.861c0-23.156,14.4-29.033,25.782-29.033s25.779,5.876,25.779,29.033c0,11.861,5.634,26.861,27.863,26.861s27.86-15,27.86-26.861c0-23.156,14.356-29.033,25.748-29.033S470.1,99.915,470.1,123.072c0,11.861,5.637,26.861,27.866,26.861s27.86-15,27.86-26.861c0-23.156,14.372-29.033,25.763-29.033v52.777c-11.392,0-25.763,5.864-25.763,29.02,0,11.852-5.63,26.843-27.86,26.843S470.1,187.688,470.1,175.836c0-23.156-14.362-29.02-25.741-29.02s-25.748,5.864-25.748,29.02c0,11.852-5.637,26.843-27.86,26.843s-27.863-14.991-27.863-26.843c0-23.156-14.393-29.02-25.779-29.02s-25.782,5.864-25.782,29.02c0,11.852-5.63,26.843-27.86,26.843s-27.86-14.991-27.86-26.843c0-23.156-14.362-29.02-25.744-29.02s-25.751,5.864-25.751,29.02c0,8.355-2.825,18.235-12.256,23.362Z" transform="translate(-191.725 -82.769)"/><path class="a" d="M191.856,142.813c9.432-5.117,12.256-15.016,12.256-23.374,0-23.159,14.365-29.023,25.751-29.023s25.744,5.864,25.744,29.023c0,11.861,5.634,26.861,27.86,26.861s27.86-15,27.86-26.861c0-23.159,14.4-29.023,25.782-29.023s25.779,5.864,25.779,29.023c0,11.861,5.634,26.861,27.863,26.861s27.86-15,27.86-26.861c0-23.159,14.356-29.023,25.748-29.023S470.1,96.28,470.1,119.439c0,11.861,5.637,26.861,27.866,26.861s27.86-15,27.86-26.861c0-23.159,14.372-29.023,25.763-29.023v25.166c-11.392,0-25.763,5.873-25.763,29.023,0,11.858-5.63,26.861-27.86,26.861s-27.866-15-27.866-26.861c0-23.15-14.362-29.023-25.741-29.023s-25.748,5.873-25.748,29.023c0,11.858-5.637,26.861-27.86,26.861s-27.863-15-27.863-26.861c0-23.15-14.393-29.023-25.779-29.023s-25.782,5.873-25.782,29.023c0,11.858-5.63,26.861-27.86,26.861s-27.86-15-27.86-26.861c0-23.15-14.362-29.023-25.744-29.023s-25.751,5.873-25.751,29.023c0,8.349-2.825,18.248-12.256,23.383Z" transform="translate(-191.725 -90.416)"/><path class="a" d="M191.856,230.109c9.432-5.123,12.256-15.019,12.256-23.383,0-23.163,14.365-29.036,25.751-29.036s25.744,5.873,25.744,29.036c0,11.868,5.634,26.864,27.86,26.864s27.86-15,27.86-26.864c0-23.163,14.4-29.036,25.782-29.036s25.779,5.873,25.779,29.036c0,11.868,5.634,26.864,27.863,26.864s27.86-15,27.86-26.864c0-23.163,14.356-29.036,25.748-29.036s25.741,5.873,25.741,29.036c0,11.868,5.637,26.864,27.866,26.864s27.86-15,27.86-26.864c0-23.163,14.372-29.036,25.763-29.036v52.771c-11.392,0-25.763,5.876-25.763,29.039,0,11.849-5.63,26.864-27.86,26.864S470.1,271.348,470.1,259.5c0-23.163-14.362-29.039-25.741-29.039s-25.748,5.876-25.748,29.039c0,11.849-5.637,26.864-27.86,26.864s-27.863-15.015-27.863-26.864c0-23.163-14.393-29.039-25.779-29.039s-25.782,5.876-25.782,29.039c0,11.849-5.63,26.864-27.86,26.864s-27.86-15.015-27.86-26.864c0-23.163-14.362-29.039-25.744-29.039s-25.751,5.876-25.751,29.039c0,8.359-2.825,18.26-12.256,23.38Z" transform="translate(-191.725 93.797)"/><path class="a" d="M191.856,245.673c9.432-5.127,12.256-15.034,12.256-23.377,0-23.169,14.365-29.029,25.751-29.029s25.744,5.861,25.744,29.029c0,11.846,5.634,26.861,27.86,26.861s27.86-15.016,27.86-26.861c0-23.169,14.4-29.029,25.782-29.029s25.779,5.861,25.779,29.029c0,11.846,5.634,26.861,27.863,26.861s27.86-15.016,27.86-26.861c0-23.169,14.356-29.029,25.748-29.029S470.1,199.127,470.1,222.3c0,11.846,5.637,26.861,27.866,26.861s27.86-15.016,27.86-26.861c0-23.169,14.372-29.029,25.763-29.029v25.169c-11.392,0-25.763,5.864-25.763,29.029,0,11.849-5.63,26.861-27.86,26.861S470.1,259.313,470.1,247.464c0-23.166-14.362-29.029-25.741-29.029s-25.748,5.864-25.748,29.029c0,11.849-5.637,26.861-27.86,26.861s-27.863-15.012-27.863-26.861c0-23.166-14.393-29.029-25.779-29.029s-25.782,5.864-25.782,29.029c0,11.849-5.63,26.861-27.86,26.861s-27.86-15.012-27.86-26.861c0-23.166-14.362-29.029-25.744-29.029s-25.751,5.864-25.751,29.029c0,8.349-2.825,18.257-12.256,23.38Z" transform="translate(-191.725 126.674)"/><path class="a" d="M191.856,232.413c9.432-5.127,12.256-15.025,12.256-23.387,0-23.159,14.365-29.033,25.751-29.033s25.744,5.873,25.744,29.033c0,11.871,5.634,26.861,27.86,26.861s27.86-14.991,27.86-26.861c0-23.159,14.4-29.033,25.782-29.033s25.779,5.873,25.779,29.033c0,11.871,5.634,26.861,27.863,26.861s27.86-14.991,27.86-26.861c0-23.159,14.356-29.033,25.748-29.033s25.741,5.873,25.741,29.033c0,11.871,5.637,26.861,27.866,26.861s27.86-14.991,27.86-26.861c0-23.159,14.372-29.033,25.763-29.033v52.764c-11.392,0-25.763,5.876-25.763,29.045,0,11.855-5.63,26.858-27.86,26.858s-27.866-15-27.866-26.858c0-23.169-14.362-29.045-25.741-29.045s-25.748,5.876-25.748,29.045c0,11.855-5.637,26.858-27.86,26.858s-27.863-15-27.863-26.858c0-23.169-14.393-29.045-25.779-29.045s-25.782,5.876-25.782,29.045c0,11.855-5.63,26.858-27.86,26.858s-27.86-15-27.86-26.858c0-23.169-14.362-29.045-25.744-29.045s-25.751,5.876-25.751,29.045c0,8.346-2.825,18.251-12.256,23.38Z" transform="translate(-191.725 98.66)"/><path class="a" d="M191.856,244.9c9.432-5.123,12.256-15.034,12.256-23.383,0-23.163,14.365-29.026,25.751-29.026s25.744,5.864,25.744,29.026c0,11.858,5.634,26.864,27.86,26.864s27.86-15.006,27.86-26.864c0-23.163,14.4-29.026,25.782-29.026s25.779,5.864,25.779,29.026c0,11.858,5.634,26.864,27.863,26.864s27.86-15.006,27.86-26.864c0-23.163,14.356-29.026,25.748-29.026s25.741,5.864,25.741,29.026c0,11.858,5.637,26.864,27.866,26.864s27.86-15.006,27.86-26.864c0-23.163,14.372-29.026,25.763-29.026v25.172c-11.392,0-25.763,5.864-25.763,29.026,0,11.852-5.63,26.864-27.86,26.864S470.1,258.539,470.1,246.687c0-23.163-14.362-29.026-25.741-29.026s-25.748,5.864-25.748,29.026c0,11.852-5.637,26.864-27.86,26.864s-27.863-15.012-27.863-26.864c0-23.163-14.393-29.026-25.779-29.026s-25.782,5.864-25.782,29.026c0,11.852-5.63,26.864-27.86,26.864s-27.86-15.012-27.86-26.864c0-23.163-14.362-29.026-25.744-29.026s-25.751,5.864-25.751,29.026c0,8.352-2.825,18.26-12.256,23.38Z" transform="translate(-191.725 125.034)"/><path class="a" d="M191.856,250.871c9.432-5.123,12.256-15.019,12.256-23.383,0-23.156,14.365-29.033,25.751-29.033s25.744,5.876,25.744,29.033c0,11.864,5.634,26.864,27.86,26.864s27.86-15,27.86-26.864c0-23.156,14.4-29.033,25.782-29.033s25.779,5.876,25.779,29.033c0,11.864,5.634,26.864,27.863,26.864s27.86-15,27.86-26.864c0-23.156,14.356-29.033,25.748-29.033s25.741,5.876,25.741,29.033c0,11.864,5.637,26.864,27.866,26.864s27.86-15,27.86-26.864c0-23.156,14.372-29.033,25.763-29.033v52.774c-11.392,0-25.763,5.873-25.763,29.033,0,11.855-5.63,26.867-27.86,26.867S470.1,292.116,470.1,280.261c0-23.16-14.362-29.033-25.741-29.033s-25.748,5.873-25.748,29.033c0,11.855-5.637,26.867-27.86,26.867s-27.863-15.012-27.863-26.867c0-23.16-14.393-29.033-25.779-29.033s-25.782,5.873-25.782,29.033c0,11.855-5.63,26.867-27.86,26.867s-27.86-15.012-27.86-26.867c0-23.16-14.362-29.033-25.744-29.033s-25.751,5.873-25.751,29.033c0,8.355-2.825,18.26-12.256,23.38Z" transform="translate(-191.725 137.627)"/><path class="a" d="M191.856,266.439c9.432-5.123,12.256-15.031,12.256-23.38,0-23.159,14.365-29.029,25.751-29.029s25.744,5.87,25.744,29.029c0,11.855,5.634,26.868,27.86,26.868s27.86-15.012,27.86-26.868c0-23.159,14.4-29.029,25.782-29.029s25.779,5.87,25.779,29.029c0,11.855,5.634,26.868,27.863,26.868s27.86-15.012,27.86-26.868c0-23.159,14.356-29.029,25.748-29.029S470.1,219.9,470.1,243.058c0,11.855,5.637,26.868,27.866,26.868s27.86-15.012,27.86-26.868c0-23.159,14.372-29.029,25.763-29.029v25.178c-11.392,0-25.763,5.858-25.763,29.02,0,11.855-5.63,26.864-27.86,26.864S470.1,280.083,470.1,268.227c0-23.163-14.362-29.02-25.741-29.02s-25.748,5.858-25.748,29.02c0,11.855-5.637,26.864-27.86,26.864s-27.863-15.009-27.863-26.864c0-23.163-14.393-29.02-25.779-29.02s-25.782,5.858-25.782,29.02c0,11.855-5.63,26.864-27.86,26.864s-27.86-15.009-27.86-26.864c0-23.163-14.362-29.02-25.744-29.02s-25.751,5.858-25.751,29.02c0,8.359-2.825,18.26-12.256,23.38Z" transform="translate(-191.725 170.499)"/><path class="a" d="M191.856,253.173c9.432-5.12,12.256-15.019,12.256-23.377,0-23.166,14.365-29.039,25.751-29.039s25.744,5.873,25.744,29.039c0,11.864,5.634,26.858,27.86,26.858s27.86-14.994,27.86-26.858c0-23.166,14.4-29.039,25.782-29.039s25.779,5.873,25.779,29.039c0,11.864,5.634,26.858,27.863,26.858s27.86-14.994,27.86-26.858c0-23.166,14.356-29.039,25.748-29.039S470.1,206.63,470.1,229.8c0,11.864,5.637,26.858,27.866,26.858s27.86-14.994,27.86-26.858c0-23.166,14.372-29.039,25.763-29.039v52.768c-11.392,0-25.763,5.873-25.763,29.045,0,11.852-5.63,26.855-27.86,26.855s-27.866-15-27.866-26.855c0-23.172-14.362-29.045-25.741-29.045s-25.748,5.873-25.748,29.045c0,11.852-5.637,26.855-27.86,26.855s-27.863-15-27.863-26.855c0-23.172-14.393-29.045-25.779-29.045s-25.782,5.873-25.782,29.045c0,11.852-5.63,26.855-27.86,26.855s-27.86-15-27.86-26.855c0-23.172-14.362-29.045-25.744-29.045s-25.751,5.873-25.751,29.045c0,8.346-2.825,18.254-12.256,23.377Z" transform="translate(-191.725 142.485)"/><path class="a" d="M191.856,265.663c9.432-5.126,12.256-15.031,12.256-23.383,0-23.156,14.365-29.026,25.751-29.026s25.744,5.87,25.744,29.026c0,11.855,5.634,26.871,27.86,26.871s27.86-15.016,27.86-26.871c0-23.156,14.4-29.026,25.782-29.026s25.779,5.87,25.779,29.026c0,11.855,5.634,26.871,27.863,26.871s27.86-15.016,27.86-26.871c0-23.156,14.356-29.026,25.748-29.026s25.741,5.87,25.741,29.026c0,11.855,5.637,26.871,27.866,26.871s27.86-15.016,27.86-26.871c0-23.156,14.372-29.026,25.763-29.026v25.175c-11.392,0-25.763,5.858-25.763,29.023,0,11.852-5.63,26.868-27.86,26.868S470.1,279.3,470.1,267.451c0-23.166-14.362-29.023-25.741-29.023s-25.748,5.858-25.748,29.023c0,11.852-5.637,26.868-27.86,26.868s-27.863-15.016-27.863-26.868c0-23.166-14.393-29.023-25.779-29.023s-25.782,5.858-25.782,29.023c0,11.852-5.63,26.868-27.86,26.868s-27.86-15.016-27.86-26.868c0-23.166-14.362-29.023-25.744-29.023s-25.751,5.858-25.751,29.023c0,8.352-2.825,18.26-12.256,23.377Z" transform="translate(-191.725 168.861)"/><path class="a" d="M191.856,216.983c9.432-5.123,12.256-15.019,12.256-23.38,0-23.163,14.365-29.039,25.751-29.039s25.744,5.876,25.744,29.039c0,11.861,5.634,26.861,27.86,26.861s27.86-15,27.86-26.861c0-23.163,14.4-29.039,25.782-29.039s25.779,5.876,25.779,29.039c0,11.861,5.634,26.861,27.863,26.861s27.86-15,27.86-26.861c0-23.163,14.356-29.039,25.748-29.039S470.1,170.44,470.1,193.6c0,11.861,5.637,26.861,27.866,26.861s27.86-15,27.86-26.861c0-23.163,14.372-29.039,25.763-29.039v52.783c-11.392,0-25.763,5.864-25.763,29.023,0,11.864-5.63,26.867-27.86,26.867s-27.866-15-27.866-26.867c0-23.16-14.362-29.023-25.741-29.023s-25.748,5.864-25.748,29.023c0,11.864-5.637,26.867-27.86,26.867s-27.863-15-27.863-26.867c0-23.16-14.393-29.023-25.779-29.023s-25.782,5.864-25.782,29.023c0,11.864-5.63,26.867-27.86,26.867s-27.86-15-27.86-26.867c0-23.16-14.362-29.023-25.744-29.023s-25.751,5.864-25.751,29.023c0,8.362-2.825,18.254-12.256,23.387Z" transform="translate(-191.725 66.091)"/><path class="a" d="M191.856,229.495c9.432-5.126,12.256-15.025,12.256-23.387,0-23.16,14.365-29.026,25.751-29.026s25.744,5.867,25.744,29.026c0,11.864,5.634,26.871,27.86,26.871s27.86-15.006,27.86-26.871c0-23.16,14.4-29.026,25.782-29.026s25.779,5.867,25.779,29.026c0,11.864,5.634,26.871,27.863,26.871s27.86-15.006,27.86-26.871c0-23.16,14.356-29.026,25.748-29.026s25.741,5.867,25.741,29.026c0,11.864,5.637,26.871,27.866,26.871s27.86-15.006,27.86-26.871c0-23.16,14.372-29.026,25.763-29.026v25.175c-11.392,0-25.763,5.864-25.763,29.026,0,11.858-5.63,26.858-27.86,26.858s-27.866-15-27.866-26.858c0-23.163-14.362-29.026-25.741-29.026s-25.748,5.864-25.748,29.026c0,11.858-5.637,26.858-27.86,26.858s-27.863-15-27.863-26.858c0-23.163-14.393-29.026-25.779-29.026s-25.782,5.864-25.782,29.026c0,11.858-5.63,26.858-27.86,26.858s-27.86-15-27.86-26.858c0-23.163-14.362-29.026-25.744-29.026s-25.751,5.864-25.751,29.026c0,8.355-2.825,18.257-12.256,23.383Z" transform="translate(-191.725 92.514)"/><path class="a" d="M191.856,213.345c9.432-5.12,12.256-15.019,12.256-23.38,0-23.159,14.365-29.023,25.751-29.023s25.744,5.864,25.744,29.023c0,11.867,5.634,26.864,27.86,26.864s27.86-15,27.86-26.864c0-23.159,14.4-29.023,25.782-29.023s25.779,5.864,25.779,29.023c0,11.867,5.634,26.864,27.863,26.864s27.86-15,27.86-26.864c0-23.159,14.356-29.023,25.748-29.023S470.1,166.8,470.1,189.964c0,11.867,5.637,26.864,27.866,26.864s27.86-15,27.86-26.864c0-23.159,14.372-29.023,25.763-29.023V186.11c-11.392,0-25.763,5.876-25.763,29.026,0,11.855-5.63,26.861-27.86,26.861S470.1,226.991,470.1,215.136c0-23.15-14.362-29.026-25.741-29.026s-25.748,5.876-25.748,29.026c0,11.855-5.637,26.861-27.86,26.861s-27.863-15.006-27.863-26.861c0-23.15-14.393-29.026-25.779-29.026s-25.782,5.876-25.782,29.026c0,11.855-5.63,26.861-27.86,26.861s-27.86-15.006-27.86-26.861c0-23.15-14.362-29.026-25.744-29.026s-25.751,5.876-25.751,29.026c0,8.352-2.825,18.248-12.256,23.38Z" transform="translate(-191.725 58.444)"/><path class="a" d="M302.041,181.684h7.176v40.5H300.66c-15.551,0-35.857,1.266-35.857-20.161C264.8,180.256,286.838,181.684,302.041,181.684Z" transform="translate(-176.27 102.187)"/></g></g></g></g></svg>