<svg xmlns="http://www.w3.org/2000/svg" xmlns:xlink="http://www.w3.org/1999/xlink" width="179.139" height="102.789" viewBox="0 0 179.139 102.789"><defs><style>.a{stroke:#3d3d3d;stroke-miterlimit:10;stroke-width:0.5px;opacity:0.94;fill:url(#a);}.b{fill:#35472d;}.c{fill:#336d15;}</style><linearGradient id="a" y1="0.5" x2="1" y2="0.5" gradientUnits="objectBoundingBox"><stop offset="0.219" stop-color="#4e765c"/><stop offset="1" stop-color="#366043"/></linearGradient></defs><g transform="translate(-1903.076 1173.312)"><path class="a" d="M2082.07-1106.69a1.71,1.71,0,0,0-.23-.13,57.874,57.874,0,0,0-12.53-4.14,53.4,53.4,0,0,0-8.22-1.04c-19.24-.88-32.32,9.04-46.17,19.55-10.24,7.77-20.83,15.8-34.45,19.52-18.12,4.95-39.16,1.3-62.55-10.84a2.056,2.056,0,0,0-.41-.16,85.677,85.677,0,0,1-12.56-28.52,68.13,68.13,0,0,1-1.38-21.33c.06-.71.11-1.43.18-2.17.61-6.46,1.77-13.72,3.22-22.73.58-3.6,1.19-7.03,1.82-10.34.27-1.36.53-2.7.8-4.02a355.7,355.7,0,0,1,50.67,3.06c32.18,4.28,59.11,12.55,75.82,23.3a100.342,100.342,0,0,1,23.79,20.69C2065.28-1119.89,2070.38-1114.13,2082.07-1106.69Z"/><g transform="translate(-3 -9.35)"><g transform="translate(1930.442 -1154.318)"><path class="b" d="M1921.7-1121h0c.762-.043,5.315-.262,6.724-1.666,2-1.993.456-5.57-1.32-8.715h0c1.877-3.333.709-9.222-1.382-11.275a6.338,6.338,0,0,0-4.022-1.666h0a6.62,6.62,0,0,0-4.022,1.666c-2.153,2.02-3.355,7.784-1.809,11.133h0c-1.512,3.287-3.158,6.858-1.035,8.857C1916.261-1121.32,1920.872-1121.058,1921.7-1121Z" transform="translate(-1913.825 1144.318)"/><path d="M1917.721-1128.216a.285.285,0,0,1,.4-.028l3.866,3.354v-9.189a.285.285,0,0,1,.285-.285.285.285,0,0,1,.284.285v4.73l2.578-2.448a.284.284,0,0,1,.4.011.284.284,0,0,1-.011.4l-2.969,2.82v14.11a.284.284,0,0,1-.284.284.285.285,0,0,1-.285-.284v-9.683l-4.239-3.678A.284.284,0,0,1,1917.721-1128.216Z" transform="translate(-1913.897 1144.318)"/></g><g transform="translate(1916.825 -1135.095)"><path class="b" d="M1939.27-1113.79h0c.369-.022,2.576-.128,3.259-.808.97-.966.221-2.7-.64-4.224h0a5.452,5.452,0,0,0-.669-5.465,3.073,3.073,0,0,0-1.95-.808h0a3.218,3.218,0,0,0-1.95.808,5.661,5.661,0,0,0-.876,5.4h0c-.733,1.593-1.531,3.324-.5,4.293C1936.632-1113.948,1938.867-1113.821,1939.27-1113.79Z" transform="translate(-1935.451 1125.095)"/><path d="M1937.34-1117.29a.137.137,0,0,1,.194-.014l1.874,1.626v-4.454a.138.138,0,0,1,.138-.138.138.138,0,0,1,.138.138v2.293l1.249-1.187a.138.138,0,0,1,.195.005.138.138,0,0,1-.005.195l-1.439,1.367v6.839a.138.138,0,0,1-.138.138.138.138,0,0,1-.138-.138v-4.693l-2.054-1.783A.137.137,0,0,1,1937.34-1117.29Z" transform="translate(-1935.486 1125.095)"/></g></g><g transform="translate(18 15)"><path class="c" d="M2013.563-1151.436l.783,1.776,1.93-.209a1.552,1.552,0,0,1,1.42,2.46l-1.146,1.566,1.146,1.567a1.552,1.552,0,0,1-1.42,2.46l-1.93-.21-.783,1.776a1.552,1.552,0,0,1-2.841,0l-.783-1.776-1.93.21a1.552,1.552,0,0,1-1.42-2.46l1.147-1.567-1.147-1.566a1.552,1.552,0,0,1,1.42-2.46l1.93.209.783-1.776A1.553,1.553,0,0,1,2013.563-1151.436Z"/><path d="M2009.134-1144.414a.194.194,0,0,1,.274-.019l2.638,2.288v-6.269a.194.194,0,0,1,.194-.194.194.194,0,0,1,.194.194v3.227l1.758-1.67a.194.194,0,0,1,.274.007.194.194,0,0,1-.007.275l-2.025,1.923v9.626a.193.193,0,0,1-.194.194.193.193,0,0,1-.194-.194v-6.6l-2.893-2.509A.2.2,0,0,1,2009.134-1144.414Z"/></g></g></svg>