<svg xmlns="http://www.w3.org/2000/svg" xmlns:xlink="http://www.w3.org/1999/xlink" width="211.19" height="173.697" viewBox="0 0 211.19 173.697">
  <defs>
    <linearGradient id="linear-gradient" y1="0.5" x2="1" y2="0.5" gradientUnits="objectBoundingBox">
      <stop offset="0" stop-color="#366043"/>
      <stop offset="1" stop-color="#366043"/>
    </linearGradient>
  </defs>
  <g id="Grupo_1941" data-name="Grupo 1941" transform="translate(-107.981 -84.8)">
    <path id="Caminho_13900" data-name="Caminho 13900" d="M120.2,197.183c43.641-15.556,37.722-48.9,70.724-53.362a46.237,46.237,0,0,1,6.2-.426c32.8,0,50.4,36.839,100.245,55.66a145.029,145.029,0,0,0,21.855,6.329,333.138,333.138,0,0,0-74.943,65.826c-.228.272-12.945,15.632-29.419,43.631-.006-.018-.01-.036-.016-.054a3.926,3.926,0,0,1-3.865,2.289,3.739,3.739,0,0,1-2.417-1.26,109.56,109.56,0,0,0-10.847-14.983c-14.425-16.672-29.264-23.058-42.356-28.694-11.125-4.789-20.733-8.925-29.179-18.326-10.667-11.875-16.766-29.718-18.127-53.033,0-.045-.017-.086-.021-.13A99.172,99.172,0,0,0,120.2,197.183Z" transform="translate(-0.05 -58.595)" opacity="0.94" fill="url(#linear-gradient)" style="mix-blend-mode: normal;isolation: isolate"/>
    <g id="Grupo_872" data-name="Grupo 872" transform="translate(-0.05 -58.595)">
      <path id="Caminho_1551" data-name="Caminho 1551" d="M212.732,296.839c0,2.917-1.3,5.244-4.219,5.244s-3.686-2.327-3.686-5.244.807-6.689,3.724-6.689S212.732,293.921,212.732,296.839Z" fill="#91b77d"/>
      <path id="Caminho_1552" data-name="Caminho 1552" d="M210.909,298.643a.153.153,0,0,0-.215-.017h0l-2.067,1.793v-4.911a.152.152,0,1,0-.3,0v2.528l-1.377-1.308a.152.152,0,0,0-.215.005h0a.152.152,0,0,0,.006.215h0l1.586,1.507V306a.152.152,0,1,0,.3,0v-5.175l2.266-1.966a.151.151,0,0,0,.016-.213Z"/>
    </g>
    <g id="Grupo_848" data-name="Grupo 848" transform="translate(-0.05 -58.595)">
      <g id="Grupo_845" data-name="Grupo 845">
        <path id="Caminho_1499" data-name="Caminho 1499" d="M203.875,172.1h0c.762-.043,5.315-.262,6.724-1.666,2-1.993.456-5.57-1.32-8.715h0c1.877-3.333.709-9.222-1.382-11.275a6.338,6.338,0,0,0-4.022-1.666h0a6.618,6.618,0,0,0-4.022,1.666c-2.153,2.02-3.355,7.784-1.809,11.133h0c-1.512,3.287-3.158,6.858-1.035,8.857C198.436,171.775,203.047,172.037,203.875,172.1Z" fill="#35472d"/>
        <path id="Caminho_1500" data-name="Caminho 1500" d="M199.824,164.879a.285.285,0,0,1,.4-.028l3.866,3.354v-9.189a.285.285,0,0,1,.284-.285h0a.285.285,0,0,1,.284.285v4.73l2.578-2.448a.283.283,0,0,1,.389.411l-2.969,2.82v14.11a.284.284,0,0,1-.284.284h0a.285.285,0,0,1-.285-.284v-9.683l-4.239-3.678A.283.283,0,0,1,199.824,164.879Z"/>
      </g>
      <g id="Grupo_847" data-name="Grupo 847">
        <path id="Caminho_1503" data-name="Caminho 1503" d="M186.2,179.3h0c.369-.022,2.577-.128,3.26-.808.969-.966.22-2.7-.641-4.224h0a5.451,5.451,0,0,0-.668-5.465A3.077,3.077,0,0,0,186.2,168h0a3.218,3.218,0,0,0-1.95.808,5.661,5.661,0,0,0-.876,5.4h0c-.733,1.593-1.531,3.324-.5,4.293C183.563,179.147,185.8,179.274,186.2,179.3Z" fill="#35472d"/>
        <path id="Caminho_1504" data-name="Caminho 1504" d="M184.237,175.8a.137.137,0,0,1,.193-.015h0l1.875,1.626v-4.454a.138.138,0,1,1,.275,0v2.293l1.249-1.187a.139.139,0,0,1,.2.005.137.137,0,0,1-.005.195l-1.439,1.367v6.839a.138.138,0,1,1-.275,0v-4.693L184.251,176a.137.137,0,0,1-.015-.193Z"/>
      </g>
    </g>
  </g>
</svg>
