<svg xmlns="http://www.w3.org/2000/svg" xmlns:xlink="http://www.w3.org/1999/xlink" width="277.668" height="145.972" viewBox="0 0 277.668 145.972">
  <defs>
    <linearGradient id="linear-gradient" y1="0.5" x2="1" y2="0.5" gradientUnits="objectBoundingBox">
      <stop offset="0" stop-color="#366043"/>
      <stop offset="1" stop-color="#366043"/>
    </linearGradient>
  </defs>
  <g id="Grupo_1946" data-name="Grupo 1946" transform="translate(-136.286 -553.433)">
    <path id="Caminho_13907" data-name="Caminho 13907" d="M414,758H203.584c-3.653-5.9-6.548-10.236-8.383-12.9-5.346-7.749-10.05-13.811-14.6-19.672-6.644-8.561-12.92-16.647-19.667-28.3-12.668-21.874-21-47.435-24.6-74.621a10.764,10.764,0,0,1,3.25-7.384,10.266,10.266,0,0,1,4.916-2.516c7.34-.488,14.693-.676,21.979-.546,44.989.817,75.445,12.963,107.687,25.823,26.993,10.765,54.9,21.9,91.58,25.407,7.588.726,15.279,1.089,23.031,1.089,8.354,0,16.78-.447,25.225-1.288Z" transform="translate(-0.05 -58.595)" opacity="0.94" fill="url(#linear-gradient)" style="mix-blend-mode: normal;isolation: isolate"/>
    <g id="Grupo_872" data-name="Grupo 872" transform="translate(-0.05 -58.595)">
      <path id="Caminho_1551" data-name="Caminho 1551" d="M165.609,637c0,2.917-1.3,5.244-4.219,5.244S157.7,639.917,157.7,637s.807-6.689,3.724-6.689S165.609,634.082,165.609,637Z" fill="#91b77d"/>
      <path id="Caminho_1552" data-name="Caminho 1552" d="M163.786,638.8a.152.152,0,0,0-.214-.017h0l-2.067,1.793V635.67a.152.152,0,0,0-.3,0V638.2l-1.377-1.308a.152.152,0,0,0-.215.005h0a.153.153,0,0,0,.006.215h0l1.586,1.507v7.542a.152.152,0,0,0,.3,0v-5.175l2.266-1.966a.151.151,0,0,0,.017-.213Z"/>
    </g>
    <g id="Grupo_1919" data-name="Grupo 1919" transform="translate(-0.05 -58.595)">
      <g id="Grupo_821" data-name="Grupo 821">
        <path id="Caminho_1453" data-name="Caminho 1453" d="M361.042,709.493h0c-.782-.045-5.455-.269-6.9-1.71-2.053-2.046-.467-5.717,1.355-8.944h0c-1.926-3.421-.727-9.464,1.418-11.571a6.514,6.514,0,0,1,4.128-1.71h0a6.8,6.8,0,0,1,4.127,1.71c2.209,2.073,3.442,7.988,1.856,11.425h0c1.552,3.374,3.241,7.038,1.063,9.09C366.627,709.16,361.895,709.429,361.042,709.493Z" fill="#35472d"/>
        <path id="Caminho_1454" data-name="Caminho 1454" d="M365.2,702.083a.292.292,0,0,0-.412-.029h0l-3.968,3.442v-9.43a.292.292,0,0,0-.584,0v4.854l-2.644-2.512a.292.292,0,0,0-.413.011h0a.294.294,0,0,0,.01.413l3.048,2.894v14.48a.292.292,0,0,0,.584,0v-9.937l4.351-3.774A.293.293,0,0,0,365.2,702.083Z"/>
      </g>
      <g id="Grupo_853" data-name="Grupo 853">
        <path id="Caminho_1513" data-name="Caminho 1513" d="M369.127,720.537c0,2.917,1.3,5.244,4.219,5.244s3.686-2.327,3.686-5.244-.807-6.689-3.724-6.689S369.127,717.619,369.127,720.537Z" fill="#91b77d"/>
        <path id="Caminho_1514" data-name="Caminho 1514" d="M370.95,722.341a.152.152,0,0,1,.214-.016h0l2.067,1.793v-4.911a.152.152,0,0,1,.152-.152h0a.152.152,0,0,1,.152.152h0v2.528l1.377-1.308a.152.152,0,0,1,.215.005h0a.153.153,0,0,1-.006.215h0l-1.586,1.507V729.7a.152.152,0,0,1-.152.152h0a.152.152,0,0,1-.152-.152h0v-5.175l-2.266-1.966a.151.151,0,0,1-.017-.213Z"/>
      </g>
      <g id="Grupo_875" data-name="Grupo 875">
        <path id="Caminho_1557" data-name="Caminho 1557" d="M397.032,702.364c0,4.429-1.975,7.961-6.4,7.961s-5.6-3.532-5.6-7.961,1.225-10.154,5.654-10.154S397.032,697.935,397.032,702.364Z" fill="#91b77d"/>
        <path id="Caminho_1558" data-name="Caminho 1558" d="M394.264,705.1a.232.232,0,0,0-.326-.023h0L390.8,707.8v-7.455a.231.231,0,0,0-.229-.231h0a.23.23,0,0,0-.23.23h0v3.838l-2.091-1.986a.231.231,0,1,0-.318.334l2.409,2.288v11.449a.231.231,0,0,0,.461,0h0v-7.857l3.44-2.984a.23.23,0,0,0,.023-.324Z"/>
      </g>
      <g id="Grupo_876" data-name="Grupo 876">
        <path id="Caminho_1559" data-name="Caminho 1559" d="M372.6,673.9l.783,1.776,1.93-.209a1.552,1.552,0,0,1,1.419,2.46l-1.146,1.566,1.146,1.567a1.552,1.552,0,0,1-1.419,2.46l-1.93-.21-.783,1.776a1.551,1.551,0,0,1-2.841,0l-.783-1.776-1.93.21a1.552,1.552,0,0,1-1.42-2.46l1.147-1.567-1.147-1.566a1.552,1.552,0,0,1,1.42-2.46l1.93.209.783-1.776a1.553,1.553,0,0,1,2.841,0Z" fill="#336d15"/>
        <path id="Caminho_1560" data-name="Caminho 1560" d="M368.166,680.918a.193.193,0,0,1,.273-.019h0l2.638,2.288v-6.269a.194.194,0,0,1,.194-.194h0a.194.194,0,0,1,.194.194h0v3.227l1.758-1.67a.194.194,0,0,1,.267.281h0l-2.025,1.923v9.626a.194.194,0,0,1-.194.194h0a.192.192,0,0,1-.194-.192v-6.6l-2.894-2.509A.2.2,0,0,1,368.166,680.918Z"/>
      </g>
      <g id="Grupo_877" data-name="Grupo 877">
        <path id="Caminho_1561" data-name="Caminho 1561" d="M391.6,730.774l.783,1.776,1.93-.209a1.552,1.552,0,0,1,1.419,2.46l-1.146,1.566,1.146,1.567a1.552,1.552,0,0,1-1.419,2.46l-1.93-.21-.783,1.776a1.551,1.551,0,0,1-2.841,0l-.783-1.776-1.93.21a1.552,1.552,0,0,1-1.42-2.46l1.147-1.567-1.147-1.566a1.552,1.552,0,0,1,1.42-2.46l1.93.209.783-1.776a1.553,1.553,0,0,1,2.841,0Z" fill="#336d15"/>
        <path id="Caminho_1562" data-name="Caminho 1562" d="M387.166,737.8a.193.193,0,0,1,.273-.019h0l2.638,2.288V733.8a.194.194,0,0,1,.194-.194h0a.194.194,0,0,1,.194.194h0v3.227l1.758-1.67a.194.194,0,1,1,.267.281h0l-2.025,1.923v9.626a.194.194,0,0,1-.194.194h0a.192.192,0,0,1-.194-.192v-6.6l-2.894-2.509A.2.2,0,0,1,387.166,737.8Z"/>
      </g>
    </g>
  </g>
</svg>
