<svg xmlns="http://www.w3.org/2000/svg" xmlns:xlink="http://www.w3.org/1999/xlink" width="277.668" height="145.972" viewBox="0 0 277.668 145.972">
  <defs>
    <linearGradient id="linear-gradient" y1="0.5" x2="1" y2="0.5" gradientUnits="objectBoundingBox">
      <stop offset="0" stop-color="#366043"/>
      <stop offset="1" stop-color="#366043"/>
    </linearGradient>
  </defs>
  <path id="Caminho_13907" data-name="Caminho 13907" d="M414,758H203.584c-3.653-5.9-6.548-10.236-8.383-12.9-5.346-7.749-10.05-13.811-14.6-19.672-6.644-8.561-12.92-16.647-19.667-28.3-12.668-21.874-21-47.435-24.6-74.621a10.764,10.764,0,0,1,3.25-7.384,10.266,10.266,0,0,1,4.916-2.516c7.34-.488,14.693-.676,21.979-.546,44.989.817,75.445,12.963,107.687,25.823,26.993,10.765,54.9,21.9,91.58,25.407,7.588.726,15.279,1.089,23.031,1.089,8.354,0,16.78-.447,25.225-1.288Z" transform="translate(-136.336 -612.028)" opacity="0.94" fill="url(#linear-gradient)" style="mix-blend-mode: normal;isolation: isolate"/>
</svg>
