<svg xmlns="http://www.w3.org/2000/svg" xmlns:xlink="http://www.w3.org/1999/xlink" width="208.18" height="157.12" viewBox="0 0 208.18 157.12"><defs><style>.a{opacity:0.94;fill:url(#a);}.b{fill:#35472d;}.b,.c,.d,.e{stroke:rgba(0,0,0,0);}.d{fill:#91b77d;}.e{fill:#336d15;}</style><linearGradient id="a" y1="0.5" x2="1" y2="0.5" gradientUnits="objectBoundingBox"><stop offset="0.219" stop-color="#4e765c"/><stop offset="1" stop-color="#366043"/></linearGradient></defs><g transform="translate(-1790 1458.92)"><path class="a" d="M1998.18-1431.16l-16.57,30.34a174.042,174.042,0,0,0-26.69,53.39,136.111,136.111,0,0,0-4.95,24.13c-.04.35-.08.69-.12,1.04a1.952,1.952,0,0,1-.35.58,2,2,0,0,1-2.82.18c-.28-.25-.57-.48-.85-.72-7.54-6.38-15.23-9.68-22.86-9.78-12.01-.19-20.61,7.36-28.95,14.64a115.366,115.366,0,0,1-9.88,8.01,41.844,41.844,0,0,1-15.71,6.46c-1.44.29-2.91.51-4.42.68a63.44,63.44,0,0,1-7.29.41c-17.62,0-39.93-6.51-66.69-19.49v-4.44c-.01-24.42-.02-40.16-.03-40.27,0,0,2.77-8.77,5-11a53.878,53.878,0,0,1,16.23-15.44c24.56-14.79,83.52-15.44,100.18-14.78,3.53.14,7.36.19,10.21-1.91,2.45-1.81,3.63-4.84,4.56-7.74,5.03-15.65,8.89-25.98,21.82-36.13a31.162,31.162,0,0,1,12.93-5.92c17.48,5.48,29.27,13.31,35.11,23.34a31.172,31.172,0,0,1,2.1,4.31C1998.15-1431.23,1998.17-1431.19,1998.18-1431.16Z"/><path class="b" d="M1839.122-1319.156h0c-.762-.043-5.315-.262-6.724-1.666-2-1.993-.456-5.57,1.32-8.715h0c-1.877-3.333-.708-9.222,1.382-11.275a6.344,6.344,0,0,1,4.022-1.666h0a6.624,6.624,0,0,1,4.023,1.666c2.152,2.02,3.354,7.784,1.808,11.133h0c1.512,3.288,3.158,6.858,1.036,8.857C1844.564-1319.48,1839.953-1319.218,1839.122-1319.156Z"/><path class="c" d="M1843.177-1326.376a.285.285,0,0,0-.4-.028l-3.867,3.354v-9.189a.284.284,0,0,0-.285-.284.284.284,0,0,0-.284.284v4.73l-2.577-2.448a.284.284,0,0,0-.4.011.285.285,0,0,0,.01.4l2.969,2.82v14.11a.285.285,0,0,0,.284.285.285.285,0,0,0,.285-.285v-9.683l4.239-3.677A.285.285,0,0,0,1843.177-1326.376Z"/><path class="b" d="M1813.491-1352h0c-.762-.043-5.315-.262-6.724-1.666-2-1.993-.456-5.57,1.32-8.715h0c-1.877-3.333-.709-9.222,1.382-11.275a6.338,6.338,0,0,1,4.022-1.666h0a6.62,6.62,0,0,1,4.022,1.666c2.153,2.02,3.355,7.784,1.809,11.133h0c1.512,3.287,3.158,6.858,1.035,8.857C1818.933-1352.32,1814.322-1352.058,1813.491-1352Z"/><path class="c" d="M1817.545-1359.216a.285.285,0,0,0-.4-.028l-3.866,3.354v-9.189a.285.285,0,0,0-.285-.285.285.285,0,0,0-.284.285v4.73l-2.578-2.448a.284.284,0,0,0-.4.011.284.284,0,0,0,.011.4l2.969,2.82v14.11a.284.284,0,0,0,.284.284.285.285,0,0,0,.285-.284v-9.683l4.239-3.678A.284.284,0,0,0,1817.545-1359.216Z"/><path class="b" d="M1823.157-1328.771h0c-.369-.021-2.576-.127-3.259-.807-.97-.967-.221-2.7.64-4.225h0a5.451,5.451,0,0,1,.67-5.465,3.072,3.072,0,0,1,1.949-.807h0a3.211,3.211,0,0,1,1.95.807,5.659,5.659,0,0,1,.876,5.4h0c.733,1.594,1.531,3.325.5,4.294C1825.8-1328.928,1823.56-1328.8,1823.157-1328.771Z"/><path class="c" d="M1825.122-1332.27a.137.137,0,0,0-.194-.014l-1.874,1.626v-4.454a.138.138,0,0,0-.138-.138.138.138,0,0,0-.138.138v2.292l-1.249-1.186a.139.139,0,0,0-.2.005.139.139,0,0,0,.005.195l1.439,1.367v6.839a.138.138,0,0,0,.138.138.138.138,0,0,0,.138-.138v-4.693l2.055-1.783A.138.138,0,0,0,1825.122-1332.27Z"/><path class="d" d="M1947-1383.846c0,4.429-1.975,7.961-6.4,7.961s-5.6-3.532-5.6-7.961,1.225-10.154,5.654-10.154S1947-1388.275,1947-1383.846Z"/><path class="c" d="M1944.232-1381.108a.231.231,0,0,0-.326-.023l-3.137,2.721v-7.455a.23.23,0,0,0-.231-.231.23.23,0,0,0-.23.231v3.838l-2.091-1.986a.232.232,0,0,0-.327.008.231.231,0,0,0,.009.326l2.409,2.288v11.449a.23.23,0,0,0,.23.23.23.23,0,0,0,.231-.23v-7.857l3.44-2.984A.23.23,0,0,0,1944.232-1381.108Z"/><path class="e" d="M1945.563-1352.436l.783,1.776,1.93-.209a1.552,1.552,0,0,1,1.42,2.46l-1.146,1.566,1.146,1.567a1.552,1.552,0,0,1-1.42,2.46l-1.93-.21-.783,1.776a1.552,1.552,0,0,1-2.841,0l-.783-1.776-1.93.21a1.552,1.552,0,0,1-1.42-2.46l1.147-1.567-1.147-1.566a1.552,1.552,0,0,1,1.42-2.46l1.93.209.783-1.776A1.553,1.553,0,0,1,1945.563-1352.436Z"/><path class="c" d="M1941.134-1345.414a.194.194,0,0,1,.274-.019l2.638,2.288v-6.269a.194.194,0,0,1,.194-.194.194.194,0,0,1,.194.194v3.227l1.758-1.67a.194.194,0,0,1,.274.007.194.194,0,0,1-.007.275l-2.025,1.923v9.626a.193.193,0,0,1-.194.194.193.193,0,0,1-.194-.194v-6.6l-2.893-2.509A.2.2,0,0,1,1941.134-1345.414Z"/></g></svg>