<svg xmlns="http://www.w3.org/2000/svg" xmlns:xlink="http://www.w3.org/1999/xlink" width="194.133" height="136.143" viewBox="0 0 194.133 136.143">
  <defs>
    <linearGradient id="linear-gradient" y1="0.5" x2="1" y2="0.5" gradientUnits="objectBoundingBox">
      <stop offset="0" stop-color="#366043"/>
      <stop offset="1" stop-color="#366043"/>
    </linearGradient>
  </defs>
  <path id="Caminho_13906" data-name="Caminho 13906" d="M0,758V657.847a48.731,48.731,0,0,0,15.7,2.7q2.157,0,4.292-.211c13.42-1.321,23.635-8.517,34.45-16.136,11.95-8.418,25.494-17.958,46.174-21.224a92.6,92.6,0,0,1,17.183-1.079h0a12.54,12.54,0,0,1,5.713,1.717c5.416,3.235,6.227,9.584,6.328,10.492l.044-.063a205.052,205.052,0,0,0,24.119,67.1c7.019,12.118,13.456,20.412,20.27,29.192,4.482,5.775,9.116,11.745,14.335,19.31,1.315,1.906,3.2,4.711,5.521,8.353Z" transform="translate(-0.004 -621.857)" opacity="0.94" fill="url(#linear-gradient)" style="mix-blend-mode: normal;isolation: isolate"/>
</svg>
