<svg xmlns="http://www.w3.org/2000/svg" xmlns:xlink="http://www.w3.org/1999/xlink" width="166.515" height="121.645" viewBox="0 0 166.515 121.645"><defs><style>.a{stroke:#3d3d3d;stroke-miterlimit:10;stroke-width:0.5px;opacity:0.94;fill:url(#a);}.b{fill:#35472d;}.b,.c,.d{stroke:rgba(0,0,0,0);}.d{fill:#91b77d;}</style><linearGradient id="a" y1="0.5" x2="1" y2="0.5" gradientUnits="objectBoundingBox"><stop offset="0.219" stop-color="#4e765c"/><stop offset="1" stop-color="#366043"/></linearGradient></defs><g transform="translate(-1790.75 1166.145)"><path class="a" d="M1955.42-1048H1790c0-1.75.01-29.52.01-67.98v-4c11.66-.02,20.13-2.81,25.16-8.3.5-.55,5.2-5.95,14.03-24.16,4.22-8.71,10.69-13.23,19.26-13.44.53-.02,1.07-.02,1.61,0,.84.03,1.67.1,2.5.17a54.6,54.6,0,0,1,21.76,7.19,132.621,132.621,0,0,1,25.78,18.92q1.665,1.56,3.3,3.18a2.155,2.155,0,0,1,.34.47c-.07.74-.12,1.46-.18,2.17a68.13,68.13,0,0,0,1.38,21.33,85.677,85.677,0,0,0,12.56,28.52q2.34,3.5,5.03,6.88C1930.96-1066.48,1941.99-1056.71,1955.42-1048Z" transform="translate(1)"/><g transform="translate(-19 10.3)"><path class="b" d="M1821.66-1063.822h0c.952-.055,6.635-.327,8.4-2.08,2.5-2.489.569-6.955-1.648-10.881h0c2.343-4.162.885-11.514-1.725-14.077a7.924,7.924,0,0,0-5.022-2.08h0a8.277,8.277,0,0,0-5.022,2.08c-2.687,2.522-4.188,9.718-2.257,13.9h0c-1.888,4.105-3.943,8.563-1.294,11.059C1814.866-1064.227,1820.622-1063.9,1821.66-1063.822Z"/><path class="c" d="M1816.6-1072.836a.355.355,0,0,1,.5-.036l4.827,4.188v-11.473a.355.355,0,0,1,.355-.355.355.355,0,0,1,.356.355v5.906l3.217-3.056a.355.355,0,0,1,.5.013.355.355,0,0,1-.013.5l-3.706,3.521v17.616a.355.355,0,0,1-.356.355.355.355,0,0,1-.355-.355v-12.089l-5.292-4.592A.354.354,0,0,1,1816.6-1072.836Z"/></g><g transform="translate(-23 14)"><path class="b" d="M1821.035-1107.515h0c.5-.028,3.515-.173,4.447-1.1,1.324-1.318.3-3.684-.873-5.764h0c1.242-2.2.469-6.1-.914-7.457a4.2,4.2,0,0,0-2.66-1.1h0a4.387,4.387,0,0,0-2.66,1.1c-1.424,1.336-2.219,5.148-1.2,7.363h0c-1,2.175-2.089,4.536-.685,5.858C1817.436-1107.729,1820.485-1107.556,1821.035-1107.515Z"/><path class="c" d="M1818.354-1112.29a.188.188,0,0,1,.265-.019l2.557,2.219v-6.078a.188.188,0,0,1,.188-.188.188.188,0,0,1,.188.188v3.129l1.7-1.619a.187.187,0,0,1,.266.007.189.189,0,0,1-.007.266l-1.964,1.865v9.332a.188.188,0,0,1-.188.188.188.188,0,0,1-.188-.188v-6.4l-2.8-2.433A.187.187,0,0,1,1818.354-1112.29Z"/></g><path class="d" d="M1910-1060.311c0,2.917,1.3,5.244,4.219,5.244s3.686-2.327,3.686-5.244-.807-6.689-3.724-6.689S1910-1063.229,1910-1060.311Z"/><path class="c" d="M1911.823-1058.507a.152.152,0,0,1,.215-.016l2.067,1.793v-4.911a.152.152,0,0,1,.152-.152.153.153,0,0,1,.152.152v2.528l1.377-1.308a.152.152,0,0,1,.215.005.152.152,0,0,1-.006.215l-1.586,1.507v7.542a.153.153,0,0,1-.152.152.152.152,0,0,1-.152-.152v-5.175l-2.266-1.966A.151.151,0,0,1,1911.823-1058.507Z"/><g transform="translate(-0.905)"><path class="d" d="M1886-1130.311c0,2.917,1.3,5.244,4.219,5.244s3.686-2.327,3.686-5.244-.807-6.689-3.724-6.689S1886-1133.229,1886-1130.311Z"/><path class="c" d="M1887.823-1128.507a.152.152,0,0,1,.215-.016l2.067,1.793v-4.911a.152.152,0,0,1,.152-.152.153.153,0,0,1,.152.152v2.528l1.377-1.308a.152.152,0,0,1,.215.005.152.152,0,0,1-.006.215l-1.586,1.507v7.542a.153.153,0,0,1-.152.152.152.152,0,0,1-.152-.152v-5.175l-2.266-1.966A.151.151,0,0,1,1887.823-1128.507Z"/></g><path class="d" d="M1893-1112.311c0,2.917,1.3,5.244,4.219,5.244s3.686-2.327,3.686-5.244-.807-6.689-3.724-6.689S1893-1115.229,1893-1112.311Z"/><path class="c" d="M1894.823-1110.507a.152.152,0,0,1,.215-.016l2.067,1.793v-4.911a.152.152,0,0,1,.152-.152.153.153,0,0,1,.152.152v2.528l1.377-1.308a.152.152,0,0,1,.215.005.152.152,0,0,1-.006.215l-1.586,1.507v7.542a.153.153,0,0,1-.152.152.152.152,0,0,1-.152-.152v-5.175l-2.266-1.966A.151.151,0,0,1,1894.823-1110.507Z"/></g></svg>