<svg xmlns="http://www.w3.org/2000/svg" xmlns:xlink="http://www.w3.org/1999/xlink" width="188.314" height="136.289" viewBox="0 0 188.314 136.289">
  <defs>
    <linearGradient id="linear-gradient" y1="0.5" x2="1" y2="0.5" gradientUnits="objectBoundingBox">
      <stop offset="0" stop-color="#366043"/>
      <stop offset="1" stop-color="#366043"/>
    </linearGradient>
  </defs>
  <path id="Caminho_13904" data-name="Caminho 13904" d="M0,362.469a173.644,173.644,0,0,0,34.463,3.57,152.248,152.248,0,0,0,17.531-1c13.552-1.572,25.2-4.8,36.471-7.911,18.425-5.1,35.825-9.91,61.175-8.09a162.6,162.6,0,0,1,31.434,5.444l-.015.041a10.337,10.337,0,0,1,6.481,5.638,10.131,10.131,0,0,1,.118,7.444c.052-.078.109-.157.161-.235-5.292,11.82-10.524,24.605-15.475,38.328-5.2,14.4-9.568,29.171-9.612,29.319-2.993,10.13-4.141,15.351-5.251,20.4-.524,2.386-1.04,4.717-1.737,7.494l-.04-.021c-1.463,6.257-9.432,6.155-9.432,6.155v0a282.358,282.358,0,0,0-28.357-.392c-26.664.99-45.021,5.52-61.217,9.517-14.976,3.7-27.932,6.9-44.456,6.753C8.186,484.9,4.082,484.645,0,484.2Z" transform="translate(-0.004 -348.645)" opacity="0.94" fill="url(#linear-gradient)" style="mix-blend-mode: normal;isolation: isolate"/>
</svg>
