<svg xmlns="http://www.w3.org/2000/svg" xmlns:xlink="http://www.w3.org/1999/xlink" width="234.221" height="64.552" viewBox="0 0 234.221 64.552"><defs><style>.a{stroke:#3d3d3d;stroke-miterlimit:10;stroke-width:0.5px;opacity:0.94;fill:url(#a);}.b{fill:#91b77d;}.c{fill:#336d15;}.d{fill:#35472d;}</style><linearGradient id="a" y1="0.5" x2="1" y2="0.5" gradientUnits="objectBoundingBox"><stop offset="0.219" stop-color="#4e765c"/><stop offset="1" stop-color="#366043"/></linearGradient></defs><g transform="translate(-1916.923 1112.302)"><path class="a" d="M2150.89-1085.46c-.03,1.35-.05,2.7-.08,4.05q-.36,16.725-.81,33.41H1955.42c-13.43-8.71-24.46-18.48-32.88-29.05q-2.685-3.39-5.03-6.88a2.056,2.056,0,0,1,.41.16c23.39,12.14,44.43,15.79,62.55,10.84,13.62-3.72,24.21-11.75,34.45-19.52,13.85-10.51,26.93-20.43,46.17-19.55a53.4,53.4,0,0,1,8.22,1.04,57.874,57.874,0,0,1,12.53,4.14,1.355,1.355,0,0,1,.26.15c18.31,11.64,44.81,17.12,55.63,18.97l.11.16-.09-.15c2.28.39,3.88.63,4.55.72l.92.16h.02Z"/><g transform="translate(14 2.856)"><path class="b" d="M2086-1076.7c0,7.112,3.171,12.784,10.283,12.784s8.985-5.672,8.985-12.784-1.966-16.3-9.078-16.3S2086-1083.807,2086-1076.7Z"/><path d="M2090.445-1072.3a.37.37,0,0,1,.522-.037l5.038,4.371v-11.972a.371.371,0,0,1,.37-.371.371.371,0,0,1,.371.371v6.162l3.357-3.189a.371.371,0,0,1,.524.014.371.371,0,0,1-.013.524l-3.868,3.674v18.382a.371.371,0,0,1-.371.371.371.371,0,0,1-.37-.371v-12.614l-5.523-4.792A.371.371,0,0,1,2090.445-1072.3Z"/></g><path class="c" d="M2010.427-1077.2l.983,2.232,2.424-.264a1.95,1.95,0,0,1,1.785,3.09l-1.441,1.968,1.441,1.967a1.95,1.95,0,0,1-1.785,3.09l-2.424-.263-.983,2.231a1.95,1.95,0,0,1-3.568,0l-.984-2.231-2.424.263a1.95,1.95,0,0,1-1.784-3.09l1.44-1.967-1.44-1.968a1.95,1.95,0,0,1,1.784-3.09l2.424.264.984-2.232A1.95,1.95,0,0,1,2010.427-1077.2Z"/><path d="M2004.864-1068.379a.244.244,0,0,1,.343-.024l3.314,2.874v-7.874a.244.244,0,0,1,.243-.244.244.244,0,0,1,.244.244v4.054l2.209-2.1a.242.242,0,0,1,.344.009.242.242,0,0,1-.009.344l-2.544,2.417v12.091a.244.244,0,0,1-.244.244.244.244,0,0,1-.243-.244v-8.3l-3.633-3.152A.243.243,0,0,1,2004.864-1068.379Z"/><path class="d" d="M1986.475-1055.173h0c.45-.026,3.137-.155,3.969-.984,1.181-1.176.269-3.288-.779-5.144h0a6.639,6.639,0,0,0-.816-6.655,3.742,3.742,0,0,0-2.374-.984h0a3.912,3.912,0,0,0-2.374.984c-1.271,1.192-1.98,4.594-1.068,6.571h0c-.892,1.941-1.864,4.048-.611,5.228C1983.263-1055.364,1985.984-1055.21,1986.475-1055.173Z"/><path d="M1984.082-1059.435a.168.168,0,0,1,.236-.017l2.283,1.98v-5.424a.168.168,0,0,1,.168-.168.168.168,0,0,1,.168.168v2.792l1.521-1.445a.167.167,0,0,1,.237.006.169.169,0,0,1-.006.238l-1.752,1.664v8.329a.168.168,0,0,1-.168.168.168.168,0,0,1-.168-.168v-5.715l-2.5-2.171A.168.168,0,0,1,1984.082-1059.435Z"/></g></svg>