<svg xmlns="http://www.w3.org/2000/svg" xmlns:xlink="http://www.w3.org/1999/xlink" width="246.946" height="149.566" viewBox="0 0 246.946 149.566">
  <defs>
    <linearGradient id="linear-gradient" y1="0.5" x2="1" y2="0.5" gradientUnits="objectBoundingBox">
      <stop offset="0" stop-color="#366043"/>
      <stop offset="1" stop-color="#366043"/>
    </linearGradient>
  </defs>
  <path id="Caminho_13901" data-name="Caminho 13901" d="M404.531,434.1a3.851,3.851,0,0,1-.367,2.777l.071-.028A123.784,123.784,0,0,1,291.227,475.1c-10.639-2.393-15.222-7.484-16.4-9.022A30.41,30.41,0,0,0,267.845,458c-17.38-13.953-52.465-4.458-106.992,29l-.006-.029c-2.969.518-3.148-1.722-3.143-2.335,1.081-3.364,2.178-6.884,3.288-10.633,2.32-7.831,3.285-12.22,4.307-16.866,1.08-4.914,2.2-10,5.109-19.855.043-.144,4.352-14.693,9.466-28.87,6.6-18.286,13.692-34.9,20.751-49.7l1.3-2.719q4.218-8.717,8.365-16.541a4.862,4.862,0,0,1,2.407-1.756,5.761,5.761,0,0,1,4.176.5,6.67,6.67,0,0,1,.707.386c.072.045.143.092.214.137.2.135.377.266.519.382l.043-.027c16.079,9.823,33.357,8.429,50.117,7.077,17.478-1.411,33.986-2.743,48.771,8.309,10.661,7.969,14.562,17.629,18.691,27.857,4.754,11.773,10.143,25.118,26.683,36.1,10.974,7.287,23.964,11.6,38.725,12.909l-.007.013A3.965,3.965,0,0,1,404.531,434.1Z" transform="translate(-157.704 -337.482)" opacity="0.94" fill="url(#linear-gradient)" style="mix-blend-mode: normal;isolation: isolate"/>
</svg>
