<svg xmlns="http://www.w3.org/2000/svg" xmlns:xlink="http://www.w3.org/1999/xlink" width="191.31" height="197.639" viewBox="0 0 191.31 197.639"><defs><style>.a{opacity:0.94;fill:url(#a);}.b{fill:#35472d;}.c{fill:#91b77d;}</style><linearGradient id="a" y1="0.5" x2="1" y2="0.5" gradientUnits="objectBoundingBox"><stop offset="0.219" stop-color="#4e765c"/><stop offset="1" stop-color="#366043"/></linearGradient></defs><g transform="translate(-1960.93 1459.781)"><path class="a" d="M2019.082-1262.271a1.129,1.129,0,0,1,.578-.129h.78c.043,0,.082.013.124.016A1.991,1.991,0,0,1,2022-1263h129a2.015,2.015,0,0,1,1.24.44c-.25-60.02-1.09-120-2.24-179.44-38.66,9.73-82.85,18.53-118.71,1.12-13.92-6.76-24.97-8.25-39.29-14.12a61.368,61.368,0,0,0-21.52-4.77,41.478,41.478,0,0,0-9.55.85c17.48,5.48,29.27,13.31,35.11,23.34a31.172,31.172,0,0,1,2.1,4.31c.01.04.03.08.04.11,2.47,6.35,2.42,11.99,2.37,17.44-.05,6.25-.11,12.16,3.8,17.85,6.28,9.16,20.98,12.05,44.91,8.85l.37-.08a96.088,96.088,0,0,0,10.98-4.65c4.55-2.15,8.85-4.18,13.75-5.28,13.7-1.93,26.36,4.15,30.82,14.87,4.44,9.61-5.05,16.84-16.03,24.01-.79.52-1.55,1.01-2.26,1.49l-.1.07c-7.46,5.7-15.21,9.89-22.71,13.95-9.74,5.27-18.94,10.24-27.49,18.23a74.7,74.7,0,0,0-11.08,14.67c-.69,1.15-1.37,2.33-2.04,3.55-.76,1.39-1.52,2.81-2.26,4.3-3.96,7.91-4.6,16.67-4.44,22.63.06,1.99.71,7.03,1.19,10.65l.1.74c.12.957.372,3.016.755,5.728A1.1,1.1,0,0,1,2019.082-1262.271Z"/><path class="b" d="M2118.4-1396.822h0c-.952-.055-6.636-.327-8.4-2.08-2.5-2.489-.569-6.955,1.648-10.881h0c-2.343-4.162-.885-11.514,1.725-14.077a7.924,7.924,0,0,1,5.022-2.08h0a8.274,8.274,0,0,1,5.021,2.08c2.688,2.522,4.188,9.718,2.258,13.9h0c1.888,4.105,3.943,8.563,1.293,11.059C2125.19-1397.227,2119.433-1396.9,2118.4-1396.822Z"/><path d="M2123.458-1405.836a.355.355,0,0,0-.5-.036l-4.828,4.188v-11.473a.355.355,0,0,0-.355-.355.355.355,0,0,0-.355.355v5.906l-3.217-3.056a.355.355,0,0,0-.5.013.354.354,0,0,0,.012.5l3.707,3.521v17.616a.355.355,0,0,0,.355.355.355.355,0,0,0,.355-.355v-12.089l5.293-4.592A.355.355,0,0,0,2123.458-1405.836Z"/><path class="b" d="M2134.4-1339.822h0c-.952-.055-6.636-.327-8.4-2.08-2.5-2.489-.569-6.955,1.648-10.881h0c-2.343-4.162-.885-11.514,1.725-14.077a7.924,7.924,0,0,1,5.022-2.08h0a8.274,8.274,0,0,1,5.021,2.08c2.688,2.522,4.188,9.718,2.258,13.9h0c1.888,4.105,3.943,8.563,1.293,11.059C2141.19-1340.227,2135.433-1339.9,2134.4-1339.822Z"/><path d="M2139.458-1348.836a.355.355,0,0,0-.5-.036l-4.828,4.188v-11.473a.355.355,0,0,0-.355-.355.355.355,0,0,0-.355.355v5.906l-3.217-3.056a.355.355,0,0,0-.5.013.354.354,0,0,0,.012.5l3.707,3.521v17.616a.355.355,0,0,0,.355.355.355.355,0,0,0,.355-.355v-12.089l5.293-4.592A.355.355,0,0,0,2139.458-1348.836Z"/><g transform="translate(-19.44 -3)"><path class="b" d="M2064.464-1271.827h0c-.461-.026-3.216-.158-4.069-1.008-1.211-1.206-.276-3.371.8-5.274h0a6.807,6.807,0,0,1,.836-6.823,3.842,3.842,0,0,1,2.434-1.008h0a4.012,4.012,0,0,1,2.434,1.008c1.3,1.223,2.03,4.71,1.094,6.737h0c.915,1.99,1.911,4.15.627,5.36C2067.757-1272.023,2064.967-1271.864,2064.464-1271.827Z"/><path d="M2066.917-1276.2a.172.172,0,0,0-.243-.017l-2.339,2.03v-5.561a.172.172,0,0,0-.172-.172.173.173,0,0,0-.173.172v2.863l-1.559-1.482a.172.172,0,0,0-.243.007.171.171,0,0,0,.006.243l1.8,1.706v8.539a.173.173,0,0,0,.173.172.172.172,0,0,0,.172-.172v-5.86l2.565-2.225A.172.172,0,0,0,2066.917-1276.2Z"/></g><g transform="translate(-45.143 40.878)"><path class="b" d="M2078.464-1324.827h0c-.461-.026-3.216-.158-4.069-1.008-1.211-1.206-.276-3.371.8-5.274h0a6.807,6.807,0,0,1,.836-6.823,3.842,3.842,0,0,1,2.434-1.008h0a4.012,4.012,0,0,1,2.434,1.008c1.3,1.223,2.03,4.71,1.094,6.737h0c.915,1.99,1.911,4.15.627,5.36C2081.757-1325.023,2078.967-1324.864,2078.464-1324.827Z"/><path d="M2080.917-1329.2a.172.172,0,0,0-.243-.017l-2.339,2.03v-5.561a.172.172,0,0,0-.172-.172.173.173,0,0,0-.173.172v2.863l-1.559-1.482a.172.172,0,0,0-.243.007.171.171,0,0,0,.006.243l1.8,1.706v8.539a.173.173,0,0,0,.173.172.172.172,0,0,0,.172-.172v-5.86l2.565-2.225A.172.172,0,0,0,2080.917-1329.2Z"/></g><path class="b" d="M2067.076-1408.363h0c-.476-.027-3.321-.164-4.2-1.042-1.251-1.245-.285-3.481.825-5.447h0a7.033,7.033,0,0,1,.863-7.047,3.97,3.97,0,0,1,2.514-1.041h0a4.145,4.145,0,0,1,2.514,1.041c1.346,1.263,2.1,4.865,1.131,6.958h0c.945,2.055,1.973,4.287.647,5.536C2070.478-1408.566,2067.6-1408.4,2067.076-1408.363Z"/><path d="M2069.61-1412.876a.177.177,0,0,0-.25-.018l-2.417,2.1v-5.743a.178.178,0,0,0-.178-.178.177.177,0,0,0-.177.178v2.956l-1.611-1.53a.178.178,0,0,0-.252.007.178.178,0,0,0,.007.251l1.856,1.762v8.819a.178.178,0,0,0,.177.178.178.178,0,0,0,.178-.178v-6.051l2.65-2.3A.178.178,0,0,0,2069.61-1412.876Z"/><path class="c" d="M2033.385-1417.114c0,6.929-3.09,12.456-10.019,12.456s-8.755-5.527-8.755-12.456,1.916-15.886,8.846-15.886S2033.385-1424.043,2033.385-1417.114Z"/><path d="M2029.055-1412.83a.361.361,0,0,0-.51-.036l-4.908,4.258v-11.665a.361.361,0,0,0-.361-.361.361.361,0,0,0-.361.361v6l-3.272-3.107a.361.361,0,0,0-.51.013.362.362,0,0,0,.013.511l3.769,3.579v17.912a.361.361,0,0,0,.361.361.361.361,0,0,0,.361-.361v-12.291l5.382-4.669A.362.362,0,0,0,2029.055-1412.83Z"/></g></svg>