<svg xmlns="http://www.w3.org/2000/svg" xmlns:xlink="http://www.w3.org/1999/xlink" width="246.946" height="149.566" viewBox="0 0 246.946 149.566">
  <defs>
    <linearGradient id="linear-gradient" y1="0.5" x2="1" y2="0.5" gradientUnits="objectBoundingBox">
      <stop offset="0" stop-color="#366043"/>
      <stop offset="1" stop-color="#366043"/>
    </linearGradient>
  </defs>
  <g id="Grupo_1940" data-name="Grupo 1940" transform="translate(-157.654 -278.887)">
    <path id="Caminho_13901" data-name="Caminho 13901" d="M404.531,434.1a3.851,3.851,0,0,1-.367,2.777l.071-.028A123.784,123.784,0,0,1,291.227,475.1c-10.639-2.393-15.222-7.484-16.4-9.022A30.41,30.41,0,0,0,267.845,458c-17.38-13.953-52.465-4.458-106.992,29l-.006-.029c-2.969.518-3.148-1.722-3.143-2.335,1.081-3.364,2.178-6.884,3.288-10.633,2.32-7.831,3.285-12.22,4.307-16.866,1.08-4.914,2.2-10,5.109-19.855.043-.144,4.352-14.693,9.466-28.87,6.6-18.286,13.692-34.9,20.751-49.7l1.3-2.719q4.218-8.717,8.365-16.541a4.862,4.862,0,0,1,2.407-1.756,5.761,5.761,0,0,1,4.176.5,6.67,6.67,0,0,1,.707.386c.072.045.143.092.214.137.2.135.377.266.519.382l.043-.027c16.079,9.823,33.357,8.429,50.117,7.077,17.478-1.411,33.986-2.743,48.771,8.309,10.661,7.969,14.562,17.629,18.691,27.857,4.754,11.773,10.143,25.118,26.683,36.1,10.974,7.287,23.964,11.6,38.725,12.909l-.007.013A3.965,3.965,0,0,1,404.531,434.1Z" transform="translate(-0.05 -58.595)" opacity="0.94" fill="url(#linear-gradient)" style="mix-blend-mode: normal;isolation: isolate"/>
    <g id="Grupo_825" data-name="Grupo 825" transform="translate(-0.05 -58.595)">
      <path id="Caminho_1461" data-name="Caminho 1461" d="M377.938,451.568h0c-.461-.026-3.216-.158-4.069-1.008-1.211-1.206-.276-3.371.8-5.274h0a6.806,6.806,0,0,1,.836-6.823,3.845,3.845,0,0,1,2.434-1.008h0a4.014,4.014,0,0,1,2.434,1.008c1.3,1.223,2.03,4.71,1.094,6.737h0c.915,1.99,1.911,4.15.627,5.36C381.231,451.372,378.441,451.531,377.938,451.568Z" fill="#35472d"/>
      <path id="Caminho_1462" data-name="Caminho 1462" d="M380.391,447.2a.172.172,0,0,0-.243-.017h0l-2.339,2.03v-5.561a.172.172,0,0,0-.172-.172h0a.174.174,0,0,0-.174.172v2.863l-1.559-1.482a.172.172,0,0,0-.238.249h0l1.8,1.706v8.539a.173.173,0,0,0,.345,0h0v-5.86l2.565-2.225a.172.172,0,0,0,.013-.243Z"/>
    </g>
    <g id="Grupo_872" data-name="Grupo 872" transform="translate(-0.05 -58.595)">
      <path id="Caminho_1551" data-name="Caminho 1551" d="M391.49,438.937c0,2.917-1.3,5.244-4.219,5.244s-3.686-2.327-3.686-5.244.807-6.689,3.724-6.689S391.49,436.019,391.49,438.937Z" fill="#91b77d"/>
      <path id="Caminho_1552" data-name="Caminho 1552" d="M389.667,440.741a.152.152,0,0,0-.214-.017h0l-2.067,1.793v-4.911a.152.152,0,0,0-.3,0v2.528l-1.377-1.308a.152.152,0,0,0-.215.005h0a.152.152,0,0,0,.006.215h0l1.586,1.507V448.1a.152.152,0,0,0,.3,0v-5.175l2.266-1.966a.151.151,0,0,0,.017-.213Z"/>
    </g>
    <g id="Grupo_880" data-name="Grupo 880" transform="translate(-0.05 -58.595)">
      <path id="Caminho_1567" data-name="Caminho 1567" d="M178.584,454.377l.783,1.776,1.93-.209a1.552,1.552,0,0,1,1.42,2.46l-1.146,1.566,1.146,1.567A1.552,1.552,0,0,1,181.3,464l-1.93-.21-.783,1.776a1.551,1.551,0,0,1-2.841,0l-.783-1.776-1.93.21a1.552,1.552,0,0,1-1.42-2.46l1.147-1.567L171.61,458.4a1.552,1.552,0,0,1,1.42-2.46l1.93.209.783-1.776a1.554,1.554,0,0,1,2.841,0Z" fill="#336d15"/>
      <path id="Caminho_1568" data-name="Caminho 1568" d="M174.155,461.4a.194.194,0,0,1,.274-.019h0l2.638,2.288V457.4a.194.194,0,0,1,.388,0v3.227l1.758-1.67a.195.195,0,0,1,.268.282h0l-2.025,1.923v9.626a.192.192,0,0,1-.192.194h0a.192.192,0,0,1-.194-.192v-6.6l-2.893-2.509A.2.2,0,0,1,174.155,461.4Z"/>
    </g>
  </g>
</svg>
