<svg xmlns="http://www.w3.org/2000/svg" xmlns:xlink="http://www.w3.org/1999/xlink" width="79.039" height="201.96" viewBox="0 0 79.039 201.96"><defs><style>.a{stroke:#3d3d3d;stroke-miterlimit:10;stroke-width:0.5px;opacity:0.94;fill:url(#a);}.b{fill:#35472d;}.b,.c,.d{stroke:rgba(0,0,0,0);}.d{fill:#91b77d;}</style><linearGradient id="a" y1="0.5" x2="1" y2="0.5" gradientUnits="objectBoundingBox"><stop offset="0.219" stop-color="#4e765c"/><stop offset="1" stop-color="#366043"/></linearGradient></defs><g transform="translate(-1789.76 1321.689)"><path class="a" d="M1859.5-1231.6a183.35,183.35,0,0,1,.5,19.66c-.49,15.59,3.673,32.236-.757,47.336-.83-.07-8.333-1.246-9.173-1.276-.54-.02-1.08-.02-1.61,0-8.57.21-15.04,4.73-19.26,13.44-8.83,18.21-13.53,23.61-14.03,24.16-5.03,5.49-13.5,8.28-25.16,8.3.01-61.85.02-149.04.02-201.31,26.76,12.98,49.07,19.49,66.69,19.49a63.44,63.44,0,0,0,7.29-.41c1.51-.17,2.98-.39,4.42-.68-6.85,21.24-10.03,42.04-9.43,61.83C1859.1-1237.66,1859.31-1234.58,1859.5-1231.6Z"/><path class="b" d="M1816.464-1146.827h0c-.461-.026-3.216-.158-4.069-1.008-1.211-1.206-.276-3.371.8-5.274h0a6.808,6.808,0,0,1,.836-6.823,3.842,3.842,0,0,1,2.434-1.008h0a4.012,4.012,0,0,1,2.434,1.008c1.3,1.223,2.03,4.71,1.094,6.737h0c.915,1.99,1.911,4.15.627,5.36C1819.757-1147.023,1816.967-1146.864,1816.464-1146.827Z"/><path class="c" d="M1818.917-1151.2a.173.173,0,0,0-.243-.017l-2.339,2.03v-5.561a.172.172,0,0,0-.172-.172.173.173,0,0,0-.173.172v2.863l-1.559-1.482a.172.172,0,0,0-.243.007.171.171,0,0,0,.006.243l1.8,1.706v8.539a.173.173,0,0,0,.173.172.172.172,0,0,0,.172-.172v-5.86l2.565-2.225A.172.172,0,0,0,1818.917-1151.2Z"/><path class="b" d="M1826.464-1166.827h0c-.461-.026-3.216-.158-4.069-1.008-1.211-1.206-.276-3.371.8-5.274h0a6.808,6.808,0,0,1,.836-6.823,3.842,3.842,0,0,1,2.434-1.008h0a4.012,4.012,0,0,1,2.434,1.008c1.3,1.223,2.03,4.71,1.094,6.737h0c.915,1.99,1.911,4.15.627,5.36C1829.757-1167.023,1826.967-1166.864,1826.464-1166.827Z"/><path class="c" d="M1828.917-1171.2a.173.173,0,0,0-.243-.017l-2.339,2.03v-5.561a.172.172,0,0,0-.172-.172.173.173,0,0,0-.173.172v2.863l-1.559-1.482a.172.172,0,0,0-.243.007.171.171,0,0,0,.006.243l1.8,1.706v8.539a.173.173,0,0,0,.173.172.172.172,0,0,0,.172-.172v-5.86l2.565-2.225A.172.172,0,0,0,1828.917-1171.2Z"/><g transform="translate(-41.175 -11)"><path class="d" d="M1841-1278.846c0,4.429,1.975,7.961,6.4,7.961s5.6-3.532,5.6-7.961-1.225-10.154-5.654-10.154S1841-1283.275,1841-1278.846Z"/><path class="c" d="M1843.768-1276.108a.231.231,0,0,1,.326-.023l3.137,2.721v-7.455a.23.23,0,0,1,.231-.231.23.23,0,0,1,.23.231v3.838l2.091-1.986a.232.232,0,0,1,.327.008.231.231,0,0,1-.009.326l-2.409,2.288v11.449a.23.23,0,0,1-.23.23.23.23,0,0,1-.231-.23v-7.857l-3.44-2.984A.23.23,0,0,1,1843.768-1276.108Z"/></g><path class="d" d="M1852-1195.458c0,5.47-2.439,9.833-7.91,9.833s-6.912-4.363-6.912-9.833,1.513-12.542,6.984-12.542S1852-1200.929,1852-1195.458Z"/><path class="c" d="M1848.581-1192.077a.286.286,0,0,0-.4-.028l-3.875,3.362v-9.209a.286.286,0,0,0-.285-.286.286.286,0,0,0-.285.286v4.74l-2.583-2.453a.285.285,0,0,0-.4.01.285.285,0,0,0,.011.4l2.975,2.826v14.141a.286.286,0,0,0,.285.285.285.285,0,0,0,.285-.285v-9.7l4.249-3.685A.287.287,0,0,0,1848.581-1192.077Z"/></g></svg>