<svg xmlns="http://www.w3.org/2000/svg" xmlns:xlink="http://www.w3.org/1999/xlink" width="159.861" height="174.312" viewBox="0 0 159.861 174.312">
  <defs>
    <linearGradient id="linear-gradient" y1="0.5" x2="1" y2="0.5" gradientUnits="objectBoundingBox">
      <stop offset="0" stop-color="#366043"/>
      <stop offset="1" stop-color="#366043"/>
    </linearGradient>
  </defs>
  <g id="Grupo_1944" data-name="Grupo 1944" transform="translate(-134.246 -401.204)">
    <path id="Caminho_13902" data-name="Caminho 13902" d="M294.117,619.031a78.165,78.165,0,0,1-.9,9.5l-.037-.024c-1.366,6-6.183,5.666-6.943,5.562q-4.58-1.8-9.109-3.61c-31.492-12.559-64.055-25.547-110.5-26.39-7.065-.13-14.186.034-21.3.472l0-.009c-.065.009-.125.013-.189.021-.652.041-1.3.08-1.956.125-7.127-.075-8.56-6.467-8.841-8.7q-.205-10.857.569-21.874a211.4,211.4,0,0,1,4.994-33.617,241.4,241.4,0,0,1,6.907-23.918c1.606-4.06,6.705-15.12,16.693-21.817,63.771-39.368,89.25-38.612,99.333-30.517a25.706,25.706,0,0,1,7.527,10.848c.052.182.966,2.678.966,2.678,3.333,10.24,4.032,23.94,4.793,38.962,1.061,20.936,2.264,44.667,10.965,66.308l.241.6A85.331,85.331,0,0,1,294.117,619.031Z" transform="translate(-0.05 -58.595)" opacity="0.94" fill="url(#linear-gradient)" style="mix-blend-mode: normal;isolation: isolate"/>
    <g id="Grupo_872" data-name="Grupo 872" transform="translate(-0.05 -58.595)">
      <path id="Caminho_1551" data-name="Caminho 1551" d="M155.056,585.326c0,2.917-1.3,5.244-4.219,5.244s-3.686-2.327-3.686-5.244.807-6.689,3.724-6.689S155.056,582.408,155.056,585.326Z" fill="#91b77d"/>
      <path id="Caminho_1552" data-name="Caminho 1552" d="M153.233,587.13a.151.151,0,0,0-.214-.016h0l-2.067,1.793V584a.152.152,0,0,0-.3,0v2.528l-1.377-1.308a.152.152,0,0,0-.215.005h0a.152.152,0,0,0,.006.215h0l1.586,1.507v7.542a.152.152,0,1,0,.3,0V589.31l2.266-1.966a.152.152,0,0,0,.017-.213Z"/>
    </g>
    <g id="Grupo_880" data-name="Grupo 880" transform="translate(-0.05 -58.595)">
      <path id="Caminho_1567" data-name="Caminho 1567" d="M254.956,477.342l.992,2.251,2.445-.265a1.967,1.967,0,0,1,1.8,3.117l-1.452,1.985,1.452,1.985a1.968,1.968,0,0,1-1.8,3.118l-2.445-.266-.992,2.25a1.967,1.967,0,0,1-3.6,0l-.992-2.25-2.446.266a1.968,1.968,0,0,1-1.8-3.118l1.453-1.985-1.453-1.985a1.966,1.966,0,0,1,1.8-3.117l2.446.265.992-2.251a1.969,1.969,0,0,1,3.6,0Z" fill="#336d15"/>
      <path id="Caminho_1568" data-name="Caminho 1568" d="M249.343,486.241a.246.246,0,0,1,.347-.025h0l3.343,2.9v-7.944a.246.246,0,1,1,.492,0v4.089l2.228-2.116a.246.246,0,0,1,.339.356h0l-2.566,2.437v12.2a.245.245,0,0,1-.243.246h0a.245.245,0,0,1-.246-.244v-8.366l-3.666-3.179A.254.254,0,0,1,249.343,486.241Z"/>
    </g>
    <g id="Grupo_880-2" data-name="Grupo 880" transform="translate(-0.05 -58.595)">
      <path id="Caminho_1567-2" data-name="Caminho 1567" d="M246.623,489.691l.488,1.106,1.2-.13a.967.967,0,0,1,.884,1.533l-.714.976.714.977a.967.967,0,0,1-.884,1.533l-1.2-.131-.488,1.106a.966.966,0,0,1-1.77,0l-.488-1.106-1.2.131a.967.967,0,0,1-.885-1.533l.715-.977-.715-.976a.967.967,0,0,1,.885-1.533l1.2.13.488-1.106a.968.968,0,0,1,1.77,0Z" fill="#336d15"/>
      <path id="Caminho_1568-2" data-name="Caminho 1568" d="M243.863,494.067a.121.121,0,0,1,.171-.012h0l1.644,1.425v-3.906a.121.121,0,1,1,.241,0v2.011l1.1-1.041a.121.121,0,1,1,.167.175h0l-1.262,1.2v6a.12.12,0,0,1-.119.121h0a.121.121,0,0,1-.121-.12h0V495.8l-1.8-1.564A.123.123,0,0,1,243.863,494.067Z"/>
    </g>
  </g>
</svg>
