<svg xmlns="http://www.w3.org/2000/svg" xmlns:xlink="http://www.w3.org/1999/xlink" width="159.861" height="174.312" viewBox="0 0 159.861 174.312">
  <defs>
    <linearGradient id="linear-gradient" y1="0.5" x2="1" y2="0.5" gradientUnits="objectBoundingBox">
      <stop offset="0" stop-color="#366043"/>
      <stop offset="1" stop-color="#366043"/>
    </linearGradient>
  </defs>
  <path id="Caminho_13902" data-name="Caminho 13902" d="M294.117,619.031a78.165,78.165,0,0,1-.9,9.5l-.037-.024c-1.366,6-6.183,5.666-6.943,5.562q-4.58-1.8-9.109-3.61c-31.492-12.559-64.055-25.547-110.5-26.39-7.065-.13-14.186.034-21.3.472l0-.009c-.065.009-.125.013-.189.021-.652.041-1.3.08-1.956.125-7.127-.075-8.56-6.467-8.841-8.7q-.205-10.857.569-21.874a211.4,211.4,0,0,1,4.994-33.617,241.4,241.4,0,0,1,6.907-23.918c1.606-4.06,6.705-15.12,16.693-21.817,63.771-39.368,89.25-38.612,99.333-30.517a25.706,25.706,0,0,1,7.527,10.848c.052.182.966,2.678.966,2.678,3.333,10.24,4.032,23.94,4.793,38.962,1.061,20.936,2.264,44.667,10.965,66.308l.241.6A85.331,85.331,0,0,1,294.117,619.031Z" transform="translate(-134.296 -459.799)" opacity="0.94" fill="url(#linear-gradient)" style="mix-blend-mode: normal;isolation: isolate"/>
</svg>
