<svg xmlns="http://www.w3.org/2000/svg" xmlns:xlink="http://www.w3.org/1999/xlink" width="149.277" height="176.081" viewBox="0 0 149.277 176.081">
  <defs>
    <linearGradient id="linear-gradient" y1="0.5" x2="1" y2="0.5" gradientUnits="objectBoundingBox">
      <stop offset="0" stop-color="#366043"/>
      <stop offset="1" stop-color="#366043"/>
    </linearGradient>
  </defs>
  <path id="Caminho_13905" data-name="Caminho 13905" d="M0,492.257c4.058.412,8.139.639,12.176.672.354,0,.7,0,1.057,0,17.061,0,30.826-3.4,45.382-6.989,15.822-3.906,33.755-8.331,59.6-9.29,8.109-.3,16.271-.228,24.382.2.173.027,4.4.7,5.875,3.186a9.014,9.014,0,0,1,.763,4.646l.046,0c-2.181,6.686-4.278,12.689-6.214,18.218-4.3,12.28-8.013,22.885-10.964,35.808a218.987,218.987,0,0,0-5.173,34.825q-.837,11.663-.616,23.056h-.061c.008.784-.039,11.318-7.525,15.533a12.642,12.642,0,0,1-5.218,1.735l0,.005a100.419,100.419,0,0,0-14.136,1.208c-22.518,3.557-36.87,13.667-49.533,22.587-10.359,7.3-19.306,13.6-30.628,14.715A40.009,40.009,0,0,1,0,649.306Z" transform="translate(-0.004 -476.471)" opacity="0.94" fill="url(#linear-gradient)" style="mix-blend-mode: normal;isolation: isolate"/>
</svg>
