<svg xmlns="http://www.w3.org/2000/svg" xmlns:xlink="http://www.w3.org/1999/xlink" width="91.621" height="197.123" viewBox="0 0 91.621 197.123"><defs><style>.a,.b,.c,.d{stroke:#464646;stroke-width:0.5px;}.a{stroke-miterlimit:10;opacity:0.94;fill:url(#a);}.b{fill:#35472d;}.d{fill:#336d15;}</style><linearGradient id="a" y1="0.5" x2="1" y2="0.5" gradientUnits="objectBoundingBox"><stop offset="0.219" stop-color="#4e765c"/><stop offset="1" stop-color="#366043"/></linearGradient></defs><g transform="translate(-1858.677 1332.253)"><path class="a" d="M1949.85-1322.26c-.34,3.1-.62,6.19-.9,9.4s-.57,6.53-.96,10.08a217.17,217.17,0,0,1-5.11,29.09c-3.79,15.2-8.76,27.35-13.9,39.94-6.83,16.71-13.86,33.9-19.28,60.19-.05.18-.1.35-.14.52h.03c-.27,1.32-.53,2.66-.8,4.02-.63,3.31-1.24,6.74-1.82,10.34-1.45,9.01-2.61,16.27-3.22,22.73a2.155,2.155,0,0,0-.34-.47q-1.635-1.62-3.3-3.18c-8-7.47-2.455-2.279-14.77-10.929-18.327-11.583-18.81-13.855-25.95-14.515,4.43-15.1.12-31.306.61-46.9a183.35,183.35,0,0,0-.5-19.66c-.19-2.98-.4-6.06-.5-9.46-.6-19.79,2.58-40.59,9.43-61.83a41.844,41.844,0,0,0,15.71-6.46,115.366,115.366,0,0,0,9.88-8.01c8.34-7.28,16.94-14.83,28.95-14.64,7.63.1,15.32,3.4,22.86,9.78.28.24.57.47.85.72a2,2,0,0,0,2.82-.18A1.952,1.952,0,0,0,1949.85-1322.26Z"/><path class="b" d="M1912.464-1209.827h0c-.461-.026-3.216-.158-4.069-1.008-1.211-1.206-.276-3.371.8-5.274h0a6.808,6.808,0,0,1,.836-6.823,3.842,3.842,0,0,1,2.434-1.008h0a4.012,4.012,0,0,1,2.434,1.008c1.3,1.223,2.03,4.71,1.094,6.737h0c.915,1.99,1.911,4.15.627,5.36C1915.757-1210.023,1912.967-1209.864,1912.464-1209.827Z"/><path class="c" d="M1914.917-1214.2a.173.173,0,0,0-.243-.017l-2.339,2.03v-5.561a.172.172,0,0,0-.172-.172.173.173,0,0,0-.173.172v2.863l-1.559-1.482a.172.172,0,0,0-.243.007.171.171,0,0,0,.006.243l1.8,1.706v8.539a.173.173,0,0,0,.173.172.172.172,0,0,0,.172-.172v-5.86l2.565-2.225A.172.172,0,0,0,1914.917-1214.2Z"/><path class="d" d="M1892.745-1204.495l1.987,4.506,4.895-.533a3.938,3.938,0,0,1,3.6,6.24l-2.909,3.973,2.909,3.974a3.938,3.938,0,0,1-3.6,6.24l-4.895-.533-1.987,4.506a3.937,3.937,0,0,1-7.2,0l-1.987-4.506-4.9.533a3.938,3.938,0,0,1-3.6-6.24l2.909-3.974-2.909-3.973a3.937,3.937,0,0,1,3.6-6.24l4.9.533,1.987-4.506A3.937,3.937,0,0,1,1892.745-1204.495Z"/><path class="c" d="M1881.511-1186.684a.493.493,0,0,1,.7-.049l6.69,5.8v-15.9a.492.492,0,0,1,.493-.492.492.492,0,0,1,.492.492v8.186l4.459-4.236a.493.493,0,0,1,.7.018.493.493,0,0,1-.018.7l-5.137,4.879v24.417a.493.493,0,0,1-.492.492.493.493,0,0,1-.493-.492v-16.756l-7.335-6.364A.491.491,0,0,1,1881.511-1186.684Z"/></g></svg>