<svg xmlns="http://www.w3.org/2000/svg" xmlns:xlink="http://www.w3.org/1999/xlink" width="197.073" height="258.252" viewBox="0 0 197.073 258.252"><defs><style>.a{stroke:#3d3d3d;stroke-miterlimit:10;stroke-width:0.5px;opacity:0.94;fill:url(#a);}.b{fill:#35472d;}.b,.c,.d,.e{stroke:rgba(0,0,0,0);}.d{fill:#91b77d;}.e{fill:#336d15;}</style><linearGradient id="a" y1="0.5" x2="1" y2="0.5" gradientUnits="objectBoundingBox"><stop offset="0.219" stop-color="#4e765c"/><stop offset="1" stop-color="#366043"/></linearGradient></defs><g transform="translate(-1909.455 1431.751)"><path class="a" d="M2089.15-1358.15c-.79.52-1.55,1.01-2.26,1.49l-.1.07c-7.46,5.7-15.21,9.89-22.71,13.95-9.74,5.27-18.94,10.24-27.49,18.23a74.7,74.7,0,0,0-11.08,14.67c-.69,1.15-1.37,2.33-2.04,3.55l-4.81-4.32c-8.76-7.98-17.35-11.84-25.57-11.49-26.21,1.12-44.83,44.51-61.25,82.79a436.1,436.1,0,0,0-22.14,65.65c5.42-26.29,12.45-43.48,19.28-60.19,5.14-12.59,10.11-24.74,13.9-39.94a217.17,217.17,0,0,0,5.11-29.09c.39-3.55.68-6.87.96-10.08s.56-6.3.9-9.4a2.063,2.063,0,0,0,.12-1.04,136.111,136.111,0,0,1,4.95-24.13,174.042,174.042,0,0,1,26.69-53.39l16.57-30.34c2.47,6.35,2.42,11.99,2.37,17.44-.05,6.25-.11,12.16,3.8,17.85,6.28,9.16,20.98,12.05,44.91,8.85l.37-.08a96.088,96.088,0,0,0,10.98-4.65c4.55-2.15,8.85-4.18,13.75-5.28,13.7-1.93,26.36,4.15,30.82,14.87C2109.62-1372.55,2100.13-1365.32,2089.15-1358.15Z"/><path class="b" d="M2080.464-1370.827h0c-.461-.026-3.216-.158-4.069-1.008-1.211-1.206-.276-3.371.8-5.274h0a6.807,6.807,0,0,1,.836-6.823,3.842,3.842,0,0,1,2.434-1.008h0a4.012,4.012,0,0,1,2.434,1.008c1.3,1.223,2.03,4.71,1.094,6.737h0c.915,1.99,1.911,4.15.627,5.36C2083.757-1371.023,2080.967-1370.864,2080.464-1370.827Z"/><path class="c" d="M2082.917-1375.2a.172.172,0,0,0-.243-.017l-2.339,2.03v-5.561a.172.172,0,0,0-.172-.172.173.173,0,0,0-.173.172v2.863l-1.559-1.482a.172.172,0,0,0-.243.007.171.171,0,0,0,.006.243l1.8,1.706v8.539a.173.173,0,0,0,.173.172.172.172,0,0,0,.172-.172v-5.86l2.565-2.225A.172.172,0,0,0,2082.917-1375.2Z"/><path class="d" d="M1995.516-1398.311c0,2.917-1.3,5.244-4.219,5.244s-3.686-2.327-3.686-5.244.807-6.689,3.724-6.689S1995.516-1401.229,1995.516-1398.311Z"/><path class="c" d="M1993.693-1396.507a.152.152,0,0,0-.215-.016l-2.067,1.793v-4.911a.152.152,0,0,0-.152-.152.152.152,0,0,0-.152.152v2.528l-1.377-1.308a.152.152,0,0,0-.215.005.152.152,0,0,0,.006.215l1.586,1.507v7.542a.152.152,0,0,0,.152.152.152.152,0,0,0,.152-.152v-5.175l2.266-1.966A.151.151,0,0,0,1993.693-1396.507Z"/><path class="e" d="M2049.877-1379.408l-1.652,3.747-4.072-.443a3.275,3.275,0,0,0-3,5.19l2.419,3.3-2.419,3.305a3.274,3.274,0,0,0,3,5.19l4.072-.443,1.652,3.747a3.275,3.275,0,0,0,5.993,0l1.652-3.747,4.072.443a3.275,3.275,0,0,0,3-5.19l-2.419-3.305,2.419-3.3a3.275,3.275,0,0,0-3-5.19l-4.072.443-1.652-3.747A3.275,3.275,0,0,0,2049.877-1379.408Z"/><path class="c" d="M2059.221-1364.594a.41.41,0,0,0-.578-.041l-5.565,4.828v-13.226a.409.409,0,0,0-.409-.409.41.41,0,0,0-.41.409v6.808l-3.709-3.523a.411.411,0,0,0-.579.015.41.41,0,0,0,.015.579l4.273,4.058v20.308a.411.411,0,0,0,.41.41.41.41,0,0,0,.409-.41v-13.935l6.1-5.294A.41.41,0,0,0,2059.221-1364.594Z"/></g></svg>