<svg xmlns="http://www.w3.org/2000/svg" xmlns:xlink="http://www.w3.org/1999/xlink" width="131.851" height="218.481" viewBox="0 0 131.851 218.481">
  <defs>
    <linearGradient id="linear-gradient" y1="0.5" x2="1" y2="0.5" gradientUnits="objectBoundingBox">
      <stop offset="0" stop-color="#366043"/>
      <stop offset="1" stop-color="#366043"/>
    </linearGradient>
  </defs>
  <path id="Caminho_13908" data-name="Caminho 13908" d="M414,655.063a240.959,240.959,0,0,1-47.494.272c-24.1-2.3-44.429-8.072-63.28-14.835-2.97-1.488-2.843-5.826-2.705-7.3a87.157,87.157,0,0,0,1.589-13.912,93.011,93.011,0,0,0-7.371-38.655l-.233-.577c-8.2-20.4-9.369-43.419-10.4-63.73-.465-9.177-.922-17.88-1.959-25.8.023-1.3.586-6.957,8.64-7.376l0-.009a136.729,136.729,0,0,0,22.292,1.841,130.852,130.852,0,0,0,36.476-5.144A133.852,133.852,0,0,0,414,437.9Z" transform="translate(-282.153 -437.896)" opacity="0.94" fill="url(#linear-gradient)" style="mix-blend-mode: normal;isolation: isolate"/>
</svg>
