<svg xmlns="http://www.w3.org/2000/svg" width="414.506" height="716.008" viewBox="0 0 414.506 716.008">
  <g id="Grupo_1947" data-name="Grupo 1947" transform="translate(0.054 16.603)">
    <path id="União_31" data-name="União 31" d="M-5331.1-2967.83a314.281,314.281,0,0,0,48.881-46.181,399.141,399.141,0,0,1-61.608-58.562c-.808-.962-1.422-1.7-1.961-2.354-.864-1.042-1.524-1.838-2.515-2.973-18.025-20.614-42.824-34.881-73.7-42.406l2.422-9.693c32.952,8.03,59.508,23.363,78.933,45.575,1.059,1.211,1.762,2.062,2.686,3.175.525.635,1.125,1.359,1.916,2.3a388.876,388.876,0,0,0,60.247,57.221,110.383,110.383,0,0,1,38.471-28.159v9.961a100.3,100.3,0,0,0-32.21,24.719c-.791.92-1.311,1.561-1.991,2.4-.42.52-.9,1.11-1.53,1.87a320.543,320.543,0,0,1-52.569,50.251Z" transform="translate(5651.279 3114)" fill="#cdd9d0" stroke="rgba(0,0,0,0)" stroke-width="1" opacity="0.38"/>
    <path id="Caminho_13885" data-name="Caminho 13885" d="M104.09,244.117a430.849,430.849,0,0,1-8.724-83.862c0-1.162,0-2.054.006-2.836.007-1.258.012-2.217-.013-3.614-.456-25.392-8.281-50.2-23.259-73.734l6.429-5.538c15.984,25.115,24.337,51.72,24.828,79.077.027,1.493.022,2.519.015,3.863,0,.764-.008,1.635-.006,2.77A420.053,420.053,0,0,0,111.881,242Z" transform="translate(-1.05 -83.569)" fill="#cdd9d0" opacity="0.38"/>
    <g id="Grupo_1917" data-name="Grupo 1917" transform="translate(-0.05 -58.595)">
      <path id="Caminho_13910" data-name="Caminho 13910" d="M319.212,205.384A333.154,333.154,0,0,0,244.27,271.21c-.228.272-12.945,15.631-29.419,43.631-.006-.018-.01-.037-.016-.055a3.927,3.927,0,0,1-3.865,2.29,3.739,3.739,0,0,1-2.417-1.26,109.5,109.5,0,0,0-10.847-14.983c-14.426-16.672-29.264-23.059-42.357-28.7-11.125-4.789-20.733-8.924-29.178-18.326-10.667-11.875-16.766-29.718-18.127-53.033l0-.009a3.709,3.709,0,0,1-.138-.458c-2.7.684-5.373,1.227-8.014,1.661,0,.04,0,.079,0,.119.077-.011.153-.018.231-.03,1.568,24.772,8.324,43.985,20.1,57.1,9.619,10.709,20.474,15.382,31.966,20.328,12.9,5.555,26.246,11.3,39.47,26.581a103.48,103.48,0,0,1,12.572,18.273c0,.009-.012.018-.017.028a9.821,9.821,0,0,1,1.2,5.037,10.74,10.74,0,0,1-1.085,4.125c-.152.32-.294.579-.4.761l.02.055c-1.456,2.738-2.926,5.58-4.4,8.481l-.041-.034a13.1,13.1,0,0,1-13.171,4.868,171.582,171.582,0,0,0-36.122-6.6c-26.72-1.912-45.612,3.308-63.88,8.361-10.975,3.035-22.323,6.174-35.26,7.674A158.341,158.341,0,0,1,0,354.3v8.169a173.63,173.63,0,0,0,34.462,3.571,152.278,152.278,0,0,0,17.532-1c13.551-1.572,25.2-4.8,36.471-7.911,18.425-5.1,35.825-9.91,61.174-8.09a162.542,162.542,0,0,1,31.435,5.444l-.015.04a10.339,10.339,0,0,1,6.48,5.639,10.131,10.131,0,0,1,.119,7.443c.052-.077.109-.157.161-.234-5.292,11.82-10.525,24.6-15.475,38.327-5.2,14.4-9.569,29.172-9.612,29.319-2.993,10.13-4.141,15.352-5.251,20.4-.525,2.385-1.04,4.717-1.737,7.493l-.041-.021c-1.462,6.257-9.431,6.155-9.431,6.155v0a282.051,282.051,0,0,0-28.357-.391c-26.663.989-45.02,5.519-61.216,9.517-14.977,3.7-27.933,6.9-44.457,6.752C8.178,484.9,4.074,484.645,0,484.2v8.054c4.058.412,8.138.639,12.176.671.354,0,.7,0,1.056,0,17.062,0,30.827-3.4,45.382-6.989,15.822-3.9,33.755-8.331,59.6-9.29,8.109-.3,16.27-.227,24.381.2.174.026,4.4.7,5.875,3.185a9,9,0,0,1,.763,4.646l.046,0c-2.18,6.685-4.278,12.688-6.214,18.217-4.3,12.28-8.012,22.886-10.963,35.809a218.955,218.955,0,0,0-5.173,34.825q-.837,11.661-.616,23.055h-.061c.008.784-.039,11.319-7.526,15.533a12.635,12.635,0,0,1-5.217,1.735l0,.005a100.447,100.447,0,0,0-14.137,1.209c-22.517,3.557-36.87,13.667-49.532,22.587-10.36,7.3-19.307,13.6-30.628,14.715A40.008,40.008,0,0,1,0,649.306v8.541a48.753,48.753,0,0,0,15.7,2.7q2.157,0,4.292-.211c13.42-1.321,23.636-8.518,34.451-16.136,11.949-8.418,25.494-17.958,46.174-21.225A92.763,92.763,0,0,1,117.8,621.9h0a12.533,12.533,0,0,1,5.712,1.716c5.417,3.236,6.227,9.585,6.329,10.493l.044-.064A205.049,205.049,0,0,0,154,701.145c7.018,12.118,13.455,20.412,20.27,29.192,4.482,5.774,9.116,11.745,14.335,19.309,1.315,1.907,3.2,4.712,5.52,8.354h9.448c-3.654-5.9-6.548-10.236-8.383-12.9-5.347-7.75-10.051-13.811-14.6-19.672-6.644-8.561-12.92-16.647-19.667-28.3-12.668-21.875-21-47.436-24.6-74.622a10.772,10.772,0,0,1,3.251-7.384,10.259,10.259,0,0,1,4.915-2.515c7.34-.488,14.694-.676,21.98-.547,44.989.818,75.444,12.964,107.687,25.823,26.992,10.766,54.9,21.9,91.58,25.408,7.587.725,15.278,1.089,23.03,1.089,8.354,0,16.781-.448,25.226-1.288v.018h0v-8.08h0v.025a240.965,240.965,0,0,1-47.494.273c-24.1-2.306-44.43-8.073-63.281-14.835-2.97-1.489-2.842-5.825-2.705-7.3a86.926,86.926,0,0,0,1.589-13.912,93.007,93.007,0,0,0-7.37-38.655l-.233-.578c-8.2-20.4-9.369-43.418-10.4-63.729-.465-9.177-.922-17.881-1.96-25.8.024-1.3.587-6.957,8.64-7.375l0-.01a136.607,136.607,0,0,0,22.291,1.841,130.892,130.892,0,0,0,36.477-5.143A133.857,133.857,0,0,0,414,437.9v.271h0V423.719h0v.023c-.033,0-.063-.007-.1-.006-18.444.437-34.218-3.592-46.859-11.986-14.477-9.613-18.952-20.7-23.691-32.433-4.36-10.8-8.867-21.961-21.319-31.269-17.208-12.863-36.016-11.342-54.205-9.876-16.995,1.372-33.089,2.661-47.588-7.432a5.22,5.22,0,0,1-2.178-3.3,6.241,6.241,0,0,1,.476-3.025c17.6-30.823,31.631-47.789,31.867-48.072a326.923,326.923,0,0,1,80.69-68.994c.163.021.334.035.5.055a5.526,5.526,0,0,1,.124-.971c-4.208-.464-8.712-.368-12.5-1.052M160.984,474c2.319-7.831,3.285-12.22,4.306-16.867,1.08-4.914,2.2-10,5.11-19.854.043-.145,4.352-14.693,9.465-28.87,6.6-18.287,13.693-34.9,20.752-49.7l1.3-2.718q4.217-8.717,8.365-16.542a4.862,4.862,0,0,1,2.406-1.755,5.756,5.756,0,0,1,4.176.5,6.888,6.888,0,0,1,.709.387l.212.136c.2.135.378.266.52.383l.043-.028c16.079,9.824,33.357,8.43,50.116,7.077,17.479-1.411,33.986-2.743,48.772,8.31,10.661,7.969,14.561,17.629,18.691,27.856,4.754,11.774,10.142,25.118,26.683,36.1,10.973,7.287,23.964,11.6,38.724,12.908l-.006.013a3.968,3.968,0,0,1,3.19,2.768,3.846,3.846,0,0,1-.368,2.776l.071-.027A123.786,123.786,0,0,1,291.219,475.1c-10.639-2.392-15.222-7.483-16.4-9.021A30.394,30.394,0,0,0,267.837,458c-17.381-13.954-52.465-4.459-106.993,29l-.006-.028c-2.968.517-3.147-1.722-3.142-2.335C158.776,481.271,159.873,477.752,160.984,474ZM294.109,619.031a78.165,78.165,0,0,1-.9,9.5l-.037-.024c-1.366,6-6.183,5.665-6.944,5.561q-4.578-1.8-9.108-3.609c-31.492-12.56-64.056-25.547-110.506-26.391-7.064-.129-14.185.035-21.3.472l0-.009c-.065.01-.125.013-.189.022-.653.04-1.3.08-1.956.125-7.128-.075-8.56-6.468-8.842-8.7q-.2-10.859.57-21.875a211.369,211.369,0,0,1,4.993-33.616,241.53,241.53,0,0,1,6.908-23.919c1.606-4.061,6.7-15.119,16.691-21.816,63.772-39.368,89.252-38.612,99.335-30.517a25.709,25.709,0,0,1,7.527,10.848c.052.182.966,2.678.966,2.678,3.332,10.24,4.032,23.94,4.793,38.961,1.061,20.937,2.264,44.667,10.965,66.309l.241.6A85.347,85.347,0,0,1,294.109,619.031Z" fill="#cccbac" opacity="0.94" style="mix-blend-mode: normal;isolation: isolate"/>
    </g>
  </g>
</svg>
