<svg xmlns="http://www.w3.org/2000/svg" xmlns:xlink="http://www.w3.org/1999/xlink" width="134.156" height="178.067" viewBox="0 0 134.156 178.067"><defs><style>.a{stroke:#3d3d3d;stroke-miterlimit:10;stroke-width:0.5px;opacity:0.94;fill:url(#a);}.b{fill:#35472d;}.b,.c,.d,.e{stroke:rgba(0,0,0,0);}.d{fill:#91b77d;}.e{fill:#336d15;}</style><linearGradient id="a" y1="0.5" x2="1" y2="0.5" gradientUnits="objectBoundingBox"><stop offset="0.219" stop-color="#4e765c"/><stop offset="1" stop-color="#366043"/></linearGradient></defs><g transform="translate(-2018.411 1263.25)"><path class="a" d="M2150.89-1085.48l-7.67-1.35-.44-.63.44.65-.94-.17c-.67-.09-2.27-.33-4.55-.72l-6.29-9.04a208.827,208.827,0,0,0-15.95-15.02c-7.21-6.33-14.68-12.88-21.06-21-7.63-9.02-10.64-19.57-13.54-29.78a150.7,150.7,0,0,0-4.75-14.72l-.04-.11c-3.79-11.38-14.06-17.47-24.94-23.92-2.7-1.61-5.5-3.26-8.24-5.03l-.1-.07a42.269,42.269,0,0,1-9.58-9.8c-4.97-7.07-7.59-15.31-9.12-20.89-1.07-3.91-1.97-7.92-2.73-11.38-.12-.53-.25-1.07-.39-1.65-.26-1.08-.55-2.29-.85-3.8-.28-1.42-.6-3.28-.95-5.55v-.02c-.1-.57-.17-1.18-.26-1.81-.09-.6-.16-1.16-.24-1.71h133.01a1.588,1.588,0,0,1,.53.08v4.92h.01C2152.46-1200.38,2152.09-1142.73,2150.89-1085.48Z"/><g transform="translate(33.318 97.288)"><path class="b" d="M2076.692-1235.005h0c-.782-.045-5.454-.269-6.9-1.71-2.053-2.046-.467-5.717,1.355-8.944h0c-1.926-3.421-.727-9.464,1.418-11.571a6.514,6.514,0,0,1,4.128-1.71h0a6.8,6.8,0,0,1,4.128,1.71c2.209,2.073,3.442,7.988,1.856,11.425h0c1.552,3.374,3.241,7.038,1.063,9.09C2082.277-1235.338,2077.545-1235.069,2076.692-1235.005Z"/><path class="c" d="M2080.853-1242.415a.292.292,0,0,0-.412-.029l-3.968,3.442v-9.43a.292.292,0,0,0-.292-.292.292.292,0,0,0-.292.292v4.854l-2.644-2.512a.292.292,0,0,0-.413.011.293.293,0,0,0,.01.413l3.047,2.894v14.48a.292.292,0,0,0,.292.292.292.292,0,0,0,.292-.292v-9.937l4.351-3.774A.292.292,0,0,0,2080.853-1242.415Z"/></g><g transform="translate(20.095 17.638)"><path class="d" d="M2098-1144.311c0,2.917,1.3,5.244,4.219,5.244s3.686-2.327,3.686-5.244-.807-6.689-3.724-6.689S2098-1147.229,2098-1144.311Z"/><path class="c" d="M2099.823-1142.507a.152.152,0,0,1,.215-.016l2.067,1.793v-4.911a.152.152,0,0,1,.152-.152.152.152,0,0,1,.152.152v2.528l1.377-1.308a.152.152,0,0,1,.215.005.152.152,0,0,1-.006.215l-1.586,1.507v7.542a.152.152,0,0,1-.152.152.152.152,0,0,1-.152-.152v-5.175l-2.266-1.966A.151.151,0,0,1,2099.823-1142.507Z"/></g><path class="d" d="M2041-1230.458c0,5.47,2.439,9.833,7.91,9.833s6.912-4.363,6.912-9.833-1.513-12.542-6.984-12.542S2041-1235.929,2041-1230.458Z"/><path class="c" d="M2044.419-1227.077a.286.286,0,0,1,.4-.028l3.875,3.362v-9.209a.286.286,0,0,1,.285-.286.286.286,0,0,1,.285.286v4.74l2.583-2.453a.284.284,0,0,1,.4.01.285.285,0,0,1-.011.4l-2.975,2.826v14.141a.286.286,0,0,1-.285.285.285.285,0,0,1-.285-.285v-9.7l-4.249-3.685A.287.287,0,0,1,2044.419-1227.077Z"/><path class="d" d="M2146-1144.846c0,4.429-1.975,7.961-6.4,7.961s-5.6-3.532-5.6-7.961,1.225-10.154,5.654-10.154S2146-1149.275,2146-1144.846Z"/><path class="c" d="M2143.232-1142.108a.231.231,0,0,0-.326-.023l-3.137,2.721v-7.455a.23.23,0,0,0-.231-.231.23.23,0,0,0-.23.231v3.838l-2.091-1.986a.232.232,0,0,0-.327.008.231.231,0,0,0,.009.326l2.409,2.288v11.449a.23.23,0,0,0,.23.23.23.23,0,0,0,.231-.23v-7.857l3.44-2.984A.23.23,0,0,0,2143.232-1142.108Z"/><g transform="translate(40 40.122)"><path class="e" d="M2081.563-1213.436l.783,1.776,1.93-.209a1.552,1.552,0,0,1,1.42,2.46l-1.146,1.566,1.146,1.567a1.552,1.552,0,0,1-1.42,2.46l-1.93-.21-.783,1.776a1.552,1.552,0,0,1-2.841,0l-.783-1.776-1.93.21a1.552,1.552,0,0,1-1.42-2.46l1.147-1.567-1.147-1.566a1.552,1.552,0,0,1,1.42-2.46l1.93.209.783-1.776A1.553,1.553,0,0,1,2081.563-1213.436Z"/><path class="c" d="M2077.134-1206.414a.194.194,0,0,1,.274-.019l2.638,2.288v-6.269a.194.194,0,0,1,.194-.194.194.194,0,0,1,.194.194v3.227l1.758-1.67a.194.194,0,0,1,.274.007.194.194,0,0,1-.007.275l-2.025,1.923v9.626a.194.194,0,0,1-.194.194.193.193,0,0,1-.194-.194v-6.6l-2.893-2.509A.2.2,0,0,1,2077.134-1206.414Z"/></g><path class="e" d="M2140.563-1116.436l.783,1.776,1.93-.209a1.552,1.552,0,0,1,1.42,2.46l-1.146,1.566,1.146,1.567a1.552,1.552,0,0,1-1.42,2.46l-1.93-.21-.783,1.776a1.552,1.552,0,0,1-2.841,0l-.783-1.776-1.93.21a1.552,1.552,0,0,1-1.42-2.46l1.147-1.567-1.147-1.566a1.552,1.552,0,0,1,1.42-2.46l1.93.209.783-1.776A1.553,1.553,0,0,1,2140.563-1116.436Z"/><path class="c" d="M2136.134-1109.414a.194.194,0,0,1,.274-.019l2.638,2.288v-6.269a.194.194,0,0,1,.194-.194.194.194,0,0,1,.194.194v3.227l1.758-1.67a.194.194,0,0,1,.274.007.194.194,0,0,1-.007.275l-2.025,1.923v9.626a.194.194,0,0,1-.194.194.193.193,0,0,1-.194-.194v-6.6l-2.893-2.509A.2.2,0,0,1,2136.134-1109.414Z"/></g></svg>