<svg xmlns="http://www.w3.org/2000/svg" xmlns:xlink="http://www.w3.org/1999/xlink" width="205.419" height="155.975" viewBox="0 0 205.419 155.975">
  <defs>
    <linearGradient id="linear-gradient" y1="0.5" x2="1" y2="0.5" gradientUnits="objectBoundingBox">
      <stop offset="0" stop-color="#366043"/>
      <stop offset="1" stop-color="#366043"/>
    </linearGradient>
  </defs>
  <path id="Caminho_13903" data-name="Caminho 13903" d="M0,233.055a63.573,63.573,0,0,1,11.362-14c15.861-14.612,33.75-15.5,53.475-15.5,2.734,0,5.5.017,8.307.017a187.972,187.972,0,0,0,26.977-1.507c1.569,24.771,8.325,43.984,20.1,57.095,9.62,10.709,20.474,15.382,31.967,20.329,12.9,5.554,26.245,11.3,39.469,26.581a103.53,103.53,0,0,1,12.573,18.272c-.005.01-.012.018-.017.028a9.84,9.84,0,0,1,1.194,5.038,10.727,10.727,0,0,1-1.085,4.125c-.152.319-.293.579-.4.761l.02.054c-1.455,2.738-2.925,5.58-4.4,8.482l-.04-.034a13.105,13.105,0,0,1-13.172,4.867,171.578,171.578,0,0,0-36.122-6.6c-26.72-1.912-45.611,3.307-63.879,8.36-10.975,3.035-22.324,6.174-35.261,7.674A158.315,158.315,0,0,1,0,354.3Z" transform="translate(-0.004 -202.063)" opacity="0.94" fill="url(#linear-gradient)" style="mix-blend-mode: normal;isolation: isolate"/>
</svg>
