<svg xmlns="http://www.w3.org/2000/svg" xmlns:xlink="http://www.w3.org/1999/xlink" width="228.993" height="234.922" viewBox="0 0 228.993 234.922"><defs><style>.a{stroke:#3d3d3d;stroke-miterlimit:10;stroke-width:0.5px;opacity:0.94;fill:url(#a);}.b{fill:#35472d;}.b,.c,.d{stroke:rgba(0,0,0,0);}.d{fill:#91b77d;}</style><linearGradient id="a" y1="0.5" x2="1" y2="0.5" gradientUnits="objectBoundingBox"><stop offset="0.219" stop-color="#4e765c"/><stop offset="1" stop-color="#366043"/></linearGradient></defs><g transform="translate(-1909.284 1322.273)"><path class="a" d="M2115.494-1111.759c-7.218-6.331-14.681-12.878-21.066-21.005-7.631-9.017-10.635-19.568-13.539-29.772a150.644,150.644,0,0,0-4.745-14.721l-.041-.111c-3.794-11.382-14.068-17.475-24.944-23.925-2.7-1.6-5.495-3.259-8.24-5.024l-.1-.07a42.246,42.246,0,0,1-9.575-9.8c-4.975-7.077-7.588-15.315-9.12-20.9-1.073-3.909-1.974-7.921-2.734-11.375-.117-.527-.247-1.07-.388-1.654-.259-1.073-.553-2.29-.852-3.8-.33-1.668-.709-3.955-1.127-6.8-.5-3.417-.824-6.041-.961-7.161l-.1-.738c-.485-3.621-1.137-8.664-1.19-10.654-.16-5.954.48-14.715,4.439-22.633.742-1.484,1.5-2.905,2.262-4.3l-4.81-4.321c-8.761-7.979-17.352-11.835-25.577-11.49-26.21,1.126-44.824,44.512-61.248,82.791a435.6,435.6,0,0,0-22.141,65.652c-.035.173-.07.348-.106.521a355.724,355.724,0,0,1,50.673,3.056c32.179,4.281,59.106,12.556,75.817,23.3a100.363,100.363,0,0,1,23.789,20.692c5.4,6.1,10.512,11.863,22.2,19.3,18.306,11.649,44.826,17.134,55.658,18.99l-6.293-9.046A209.814,209.814,0,0,0,2115.494-1111.759Z"/><path class="b" d="M1976.4-1266.822h0c-.952-.055-6.636-.327-8.4-2.08-2.5-2.489-.569-6.955,1.648-10.881h0c-2.343-4.162-.885-11.514,1.725-14.077a7.924,7.924,0,0,1,5.022-2.08h0a8.274,8.274,0,0,1,5.021,2.08c2.688,2.522,4.188,9.718,2.258,13.9h0c1.888,4.105,3.943,8.563,1.293,11.059C1983.19-1267.227,1977.433-1266.9,1976.4-1266.822Z"/><path class="c" d="M1981.458-1275.836a.355.355,0,0,0-.5-.036l-4.828,4.188v-11.473a.355.355,0,0,0-.355-.355.355.355,0,0,0-.355.355v5.906l-3.217-3.056a.355.355,0,0,0-.5.013.354.354,0,0,0,.012.5l3.707,3.521v17.616a.355.355,0,0,0,.355.355.355.355,0,0,0,.355-.355v-12.089l5.293-4.592A.355.355,0,0,0,1981.458-1275.836Z"/><g transform="translate(24 33.696)"><path class="b" d="M2020.464-1201.827h0c-.461-.026-3.216-.158-4.069-1.008-1.211-1.206-.276-3.371.8-5.274h0a6.808,6.808,0,0,1,.836-6.823,3.842,3.842,0,0,1,2.434-1.008h0a4.012,4.012,0,0,1,2.434,1.008c1.3,1.223,2.03,4.71,1.094,6.737h0c.915,1.99,1.911,4.15.627,5.36C2023.757-1202.023,2020.967-1201.864,2020.464-1201.827Z"/><path class="c" d="M2022.917-1206.2a.173.173,0,0,0-.243-.017l-2.339,2.03v-5.561a.172.172,0,0,0-.172-.172.173.173,0,0,0-.173.172v2.863l-1.559-1.482a.172.172,0,0,0-.243.007.171.171,0,0,0,.006.243l1.8,1.706v8.539a.173.173,0,0,0,.173.172.172.172,0,0,0,.172-.172v-5.86l2.565-2.225A.172.172,0,0,0,2022.917-1206.2Z"/></g><path class="b" d="M2093.464-1111.827h0c-.461-.026-3.216-.158-4.069-1.008-1.211-1.206-.276-3.371.8-5.274h0a6.807,6.807,0,0,1,.836-6.823,3.842,3.842,0,0,1,2.434-1.008h0a4.012,4.012,0,0,1,2.434,1.008c1.3,1.223,2.03,4.71,1.094,6.737h0c.915,1.99,1.911,4.15.627,5.36C2096.757-1112.023,2093.967-1111.864,2093.464-1111.827Z"/><path class="c" d="M2095.917-1116.2a.172.172,0,0,0-.243-.017l-2.339,2.03v-5.561a.172.172,0,0,0-.172-.172.173.173,0,0,0-.173.172v2.863l-1.559-1.482a.172.172,0,0,0-.243.007.171.171,0,0,0,.006.243l1.8,1.706v8.539a.173.173,0,0,0,.173.172.172.172,0,0,0,.172-.172v-5.86l2.565-2.225A.172.172,0,0,0,2095.917-1116.2Z"/><g transform="translate(5 -40.084)"><path class="d" d="M2008-1257.846c0,4.429-1.975,7.961-6.4,7.961s-5.6-3.532-5.6-7.961,1.225-10.154,5.654-10.154S2008-1262.275,2008-1257.846Z"/><path class="c" d="M2005.232-1255.108a.231.231,0,0,0-.326-.023l-3.137,2.721v-7.455a.23.23,0,0,0-.231-.231.23.23,0,0,0-.23.231v3.838l-2.091-1.986a.232.232,0,0,0-.327.008.231.231,0,0,0,.009.326l2.409,2.288v11.449a.23.23,0,0,0,.23.23.23.23,0,0,0,.231-.23v-7.857l3.44-2.984A.23.23,0,0,0,2005.232-1255.108Z"/></g><path class="d" d="M2077-1151.458c0,5.47-2.439,9.833-7.91,9.833s-6.912-4.363-6.912-9.833,1.513-12.542,6.984-12.542S2077-1156.929,2077-1151.458Z"/><path class="c" d="M2073.581-1148.077a.286.286,0,0,0-.4-.028l-3.875,3.362v-9.209a.286.286,0,0,0-.285-.286.286.286,0,0,0-.285.286v4.74l-2.583-2.453a.284.284,0,0,0-.4.01.285.285,0,0,0,.011.4l2.975,2.826v14.141a.286.286,0,0,0,.285.285.285.285,0,0,0,.285-.285v-9.7l4.249-3.685A.287.287,0,0,0,2073.581-1148.077Z"/></g></svg>