<svg xmlns="http://www.w3.org/2000/svg" xmlns:xlink="http://www.w3.org/1999/xlink" width="195.976" height="224.714" viewBox="0 0 195.976 224.714">
  <defs>
    <linearGradient id="linear-gradient" y1="0.5" x2="1" y2="0.5" gradientUnits="objectBoundingBox">
      <stop offset="0" stop-color="#366043"/>
      <stop offset="1" stop-color="#366043"/>
    </linearGradient>
  </defs>
  <path id="Caminho_13909" data-name="Caminho 13909" d="M414,423.743c-.032,0-.063-.008-.1-.006-18.443.436-34.217-3.592-46.859-11.987-14.477-9.612-18.952-20.7-23.69-32.432-4.36-10.8-8.868-21.961-21.32-31.27-17.207-12.862-36.016-11.342-54.2-9.876-17,1.373-33.088,2.662-47.588-7.432a5.228,5.228,0,0,1-2.178-3.3,6.252,6.252,0,0,1,.476-3.025c17.6-30.823,31.631-47.788,31.868-48.071a326.863,326.863,0,0,1,80.69-68.994,165.886,165.886,0,0,0,20.783,1.287c17.908,0,38.5-2.71,62.119-9.585Z" transform="translate(-218.028 -199.055)" opacity="0.94" fill="url(#linear-gradient)" style="mix-blend-mode: normal;isolation: isolate"/>
</svg>
