<svg xmlns="http://www.w3.org/2000/svg" width="84.414" height="55.482" viewBox="0 0 84.414 55.482">
  <g id="Grupo_1524" data-name="Grupo 1524" transform="translate(-85.631 -1302.97)">
    <g id="Grupo_1362" data-name="Grupo 1362">
      <path id="Caminho_2160" data-name="Caminho 2160" d="M112.631,1307.57l4.15-4.6,3.813,4.965-3,3.364Z" fill="#fff"/>
      <path id="Caminho_2161" data-name="Caminho 2161" d="M143.159,1307.57l-4.15-4.6-3.813,4.965,3,3.364Z" fill="#fff"/>
      <path id="Caminho_2162" data-name="Caminho 2162" d="M116.781,1302.972h22.228l-3.813,4.965H120.6Z" fill="#fff"/>
      <path id="Caminho_2163" data-name="Caminho 2163" d="M117.6,1311.3l-4.965-3.732v29.945l4.965-3.732V1311.3Z" fill="#fff"/>
      <path id="Caminho_2164" data-name="Caminho 2164" d="M138.194,1311.3v11.24l-.018,11.241,4.962,3.732V1307.57Z" fill="#fff"/>
      <path id="Caminho_2165" data-name="Caminho 2165" d="M112.631,1337.515l4.15,4.6,3.813-4.965-3-3.364Z" fill="#fff"/>
      <path id="Caminho_2166" data-name="Caminho 2166" d="M143.159,1337.515l-4.15,4.6-3.813-4.965,2.98-3.364Z" fill="#fff"/>
      <path id="Caminho_2167" data-name="Caminho 2167" d="M116.781,1342.112h22.228l-3.813-4.965H120.6Z" fill="#fff"/>
      <path id="Caminho_2168" data-name="Caminho 2168" d="M135.2,1337.147H120.6l-3-3.364V1311.3l3-3.364h14.6l3,3.364-.017,22.481Q136.687,1335.461,135.2,1337.147Z" fill="#fff"/>
      <path id="Caminho_1801-16" data-name="Caminho 1801-16" d="M116.741,1310.891a.153.153,0,0,1,.036-.036l.361-.2.221-.121.02-.012a.074.074,0,0,0,.036-.036l.093-.165v-.008l.128-.232h0l.108-.193a.086.086,0,0,1,.044-.04.087.087,0,0,1,.077,0,.081.081,0,0,1,.035.036l.238.433.092.169a.076.076,0,0,0,.035.036l.064.036.539.293a.092.092,0,0,1,.035.121.081.081,0,0,1-.035.036l-.1.056-.229.128-.221.121h0l-.043.025a.072.072,0,0,0-.036.035l-.076.136-.129.233-.124.233a.09.09,0,0,1-.12.032.085.085,0,0,1-.036-.032l-.329-.6a.081.081,0,0,0-.037-.036l-.6-.329A.1.1,0,0,1,116.741,1310.891Z" fill="#fff"/>
      <path id="Caminho_1801-17" data-name="Caminho 1801-17" d="M114.631,1316.241a.378.378,0,0,1,.093-.094l.931-.507.569-.311.052-.03a.2.2,0,0,0,.093-.094l.239-.424v-.02l.33-.6v-.01l.28-.5a.214.214,0,0,1,.114-.1.217.217,0,0,1,.2.01.191.191,0,0,1,.093.093l.611,1.118.238.434a.217.217,0,0,0,.093.094l.166.093,1.386.755a.234.234,0,0,1,.094.311.206.206,0,0,1-.094.093l-.268.145-.59.331-.57.311h-.01l-.114.064a.194.194,0,0,0-.093.092l-.2.352-.332.6-.32.6a.231.231,0,0,1-.31.083.24.24,0,0,1-.093-.083l-.849-1.553a.2.2,0,0,0-.093-.092l-1.553-.849A.249.249,0,0,1,114.631,1316.241Z" fill="#fff"/>
    </g>
    <g id="Grupo_1362-2" data-name="Grupo 1362" transform="translate(0)" opacity="0.5">
      <path id="Caminho_2160-2" data-name="Caminho 2160" d="M112.631,1307.57l4.15-4.6,3.813,4.965-3,3.364Z" fill="#5f5f5f"/>
      <path id="Caminho_2161-2" data-name="Caminho 2161" d="M143.159,1307.57l-4.15-4.6-3.813,4.965,3,3.364Z"/>
      <path id="Caminho_2162-2" data-name="Caminho 2162" d="M116.781,1302.972h22.228l-3.813,4.965H120.6Z"/>
      <path id="Caminho_2163-2" data-name="Caminho 2163" d="M117.6,1311.3l-4.965-3.732v29.945l4.965-3.732V1311.3Z" fill="#343434"/>
      <path id="Caminho_2164-2" data-name="Caminho 2164" d="M138.194,1311.3v11.24l-.018,11.241,4.962,3.732V1307.57Z"/>
      <path id="Caminho_2165-2" data-name="Caminho 2165" d="M112.631,1337.515l4.15,4.6,3.813-4.965-3-3.364Z" fill="#343434"/>
      <path id="Caminho_2166-2" data-name="Caminho 2166" d="M143.159,1337.515l-4.15,4.6-3.813-4.965,2.98-3.364Z"/>
      <path id="Caminho_2167-2" data-name="Caminho 2167" d="M116.781,1342.112h22.228l-3.813-4.965H120.6Z"/>
      <path id="Caminho_2168-2" data-name="Caminho 2168" d="M135.2,1337.147H120.6l-3-3.364V1311.3l3-3.364h14.6l3,3.364-.017,22.481Q136.687,1335.461,135.2,1337.147Z"/>
      <path id="Caminho_1801-16-2" data-name="Caminho 1801-16" d="M116.741,1310.891a.153.153,0,0,1,.036-.036l.361-.2.221-.121.02-.012a.074.074,0,0,0,.036-.036l.093-.165v-.008l.128-.232h0l.108-.193a.086.086,0,0,1,.044-.04.087.087,0,0,1,.077,0,.081.081,0,0,1,.035.036l.238.433.092.169a.076.076,0,0,0,.035.036l.064.036.539.293a.092.092,0,0,1,.035.121.081.081,0,0,1-.035.036l-.1.056-.229.128-.221.121h0l-.043.025a.072.072,0,0,0-.036.035l-.076.136-.129.233-.124.233a.09.09,0,0,1-.12.032.085.085,0,0,1-.036-.032l-.329-.6a.081.081,0,0,0-.037-.036l-.6-.329A.1.1,0,0,1,116.741,1310.891Z" fill="#fff"/>
      <path id="Caminho_1801-17-2" data-name="Caminho 1801-17" d="M114.631,1316.241a.378.378,0,0,1,.093-.094l.931-.507.569-.311.052-.03a.2.2,0,0,0,.093-.094l.239-.424v-.02l.33-.6v-.01l.28-.5a.214.214,0,0,1,.114-.1.217.217,0,0,1,.2.01.191.191,0,0,1,.093.093l.611,1.118.238.434a.217.217,0,0,0,.093.094l.166.093,1.386.755a.234.234,0,0,1,.094.311.206.206,0,0,1-.094.093l-.268.145-.59.331-.57.311h-.01l-.114.064a.194.194,0,0,0-.093.092l-.2.352-.332.6-.32.6a.231.231,0,0,1-.31.083.24.24,0,0,1-.093-.083l-.849-1.553a.2.2,0,0,0-.093-.092l-1.553-.849A.249.249,0,0,1,114.631,1316.241Z" fill="#fff"/>
    </g>
    <g id="Grupo_1365" data-name="Grupo 1365">
      <g id="Caminho_260-18" data-name="Caminho 260-18">
        <path id="Caminho_2169" data-name="Caminho 2169" d="M154.444,1346.508v6.708q2.354-.129,4.645-.289,2.637-.183,5.189-.4c1.052-.087,2.088-.18,3.119-.276a2.861,2.861,0,0,0,2.557-2.392c.165-1.005-1.509-2.01-1.466-3.216.053-1.684,1.734-3.326,1.541-4.67a2.845,2.845,0,0,0-3.093-2.414q-2.054.194-4.163.368c-1.024.087-2.056,0-3.078.126a5.2,5.2,0,0,0-2.82,1.328,7,7,0,0,0-1.719,2.129,6.181,6.181,0,0,0-.369.867A6.537,6.537,0,0,0,154.444,1346.508Z" fill="#ebebeb"/>
      </g>
      <g id="Caminho_260-19" data-name="Caminho 260-19">
        <path id="Caminho_2170" data-name="Caminho 2170" d="M101.231,1347.5v6.708q-2.355-.129-4.645-.289-2.632-.183-5.189-.4c-1.052-.087-2.088-.18-3.118-.276a2.862,2.862,0,0,1-2.557-2.392c-.165-1.005,1.509-2.011,1.466-3.216-.054-1.685-1.734-3.325-1.542-4.671a2.845,2.845,0,0,1,3.094-2.414q2.055.193,4.163.368c1.023.087,2.056,0,3.078.125a5.2,5.2,0,0,1,2.82,1.328,7.023,7.023,0,0,1,1.72,2.129,6.3,6.3,0,0,1,.368.867A6.5,6.5,0,0,1,101.231,1347.5Z" fill="#ebebeb"/>
      </g>
      <g id="Caminho_260-20" data-name="Caminho 260-20">
        <path id="Caminho_261-8" data-name="Caminho 261-8" d="M162.291,1354.541a2.864,2.864,0,0,1-2.567,2.419c-9.622.9-20.146,1.479-31.452,1.492-11.635.015-22.446-.568-32.305-1.494a2.862,2.862,0,0,1-2.559-2.391,26.02,26.02,0,0,1-.073-7.886,2.847,2.847,0,0,1,3.094-2.415c9.666.915,20.265,1.492,31.673,1.484,11.211-.008,21.639-.581,31.163-1.482a2.861,2.861,0,0,1,3.1,2.485,27.642,27.642,0,0,1-.074,7.788Z" fill="#f3f3f3"/>
      </g>
      <g id="Grupo_1364" data-name="Grupo 1364">
        <g id="Grupo_1363" data-name="Grupo 1363">
          <path id="Caminho_2171" data-name="Caminho 2171" d="M106.352,1354.682a.621.621,0,0,1-.467-.2.665.665,0,0,1-.137-.494l.236-4.155-1.453-.083a.468.468,0,0,1-.507-.426.509.509,0,0,1,.007-.129.468.468,0,0,1,.43-.5.461.461,0,0,1,.133.008l4.18.236a.47.47,0,0,1,.507.43.483.483,0,0,1-.007.126.469.469,0,0,1-.426.508.482.482,0,0,1-.137-.008l-1.454-.083-.236,4.156a.686.686,0,0,1-.187.475A.612.612,0,0,1,106.352,1354.682Z" fill="#9a9a9a"/>
          <path id="Caminho_2172" data-name="Caminho 2172" d="M111.978,1354.976a2.569,2.569,0,0,1-1.852-.711,2.533,2.533,0,0,1-.566-1.909l.118-2.794a.659.659,0,0,1,.185-.474.638.638,0,0,1,.483-.149.568.568,0,0,1,.615.517.6.6,0,0,1-.009.159l-.118,2.8a1.556,1.556,0,0,0,.277,1.078,1.179,1.179,0,0,0,.913.4q1.24.051,1.3-1.37l.118-2.8a.568.568,0,0,1,.5-.628.578.578,0,0,1,.161.005.613.613,0,0,1,.457.188.665.665,0,0,1,.139.488l-.116,2.794a2.554,2.554,0,0,1-.712,1.855A2.527,2.527,0,0,1,111.978,1354.976Z" fill="#9a9a9a"/>
          <path id="Caminho_2173" data-name="Caminho 2173" d="M116.22,1355.118a.636.636,0,0,1-.474-.186.669.669,0,0,1-.151-.489l.12-4.563a.574.574,0,0,1,.505-.637.551.551,0,0,1,.162,0l2,.052a2.178,2.178,0,0,1,1.483.507,1.67,1.67,0,0,1,.493,1.323A1.73,1.73,0,0,1,120,1352.2a1.675,1.675,0,0,1-.965.562,1.248,1.248,0,0,1,.7.653l.485.958a.664.664,0,0,1,.051.582c-.077.176-.252.261-.526.254a.789.789,0,0,1-.44-.127.915.915,0,0,1-.287-.362l-.751-1.476a.671.671,0,0,0-.3-.32,1,1,0,0,0-.425-.094l-.625-.017-.043,1.661a.689.689,0,0,1-.173.48A.621.621,0,0,1,116.22,1355.118Zm.717-3.224,1.143.03q1.029.027,1.049-.795t-1-.841l-1.143-.031Z" fill="#9a9a9a"/>
          <path id="Caminho_2174" data-name="Caminho 2174" d="M121.878,1355.254a.561.561,0,0,1-.427-.161.6.6,0,0,1-.144-.436l.045-4.762a.585.585,0,0,1,.16-.439.612.612,0,0,1,.445-.147.679.679,0,0,1,.39.1.921.921,0,0,1,.265.323l1.731,3.233,1.79-3.2a.907.907,0,0,1,.271-.319.643.643,0,0,1,.383-.1.583.583,0,0,1,.431.156.6.6,0,0,1,.148.442l-.044,4.761a.518.518,0,0,1-.436.587.544.544,0,0,1-.145,0,.52.52,0,0,1-.582-.45.5.5,0,0,1,0-.15l.029-3.019-1.372,2.414a.839.839,0,0,1-.211.233.506.506,0,0,1-.293.076.518.518,0,0,1-.3-.082.7.7,0,0,1-.2-.238l-1.326-2.414-.028,2.994a.518.518,0,0,1-.431.591A.548.548,0,0,1,121.878,1355.254Z" fill="#9a9a9a"/>
          <path id="Caminho_2175" data-name="Caminho 2175" d="M128.629,1355.3a.54.54,0,0,1-.5-.227.564.564,0,0,1,0-.567l2.068-4.632a1.015,1.015,0,0,1,.308-.41.721.721,0,0,1,.419-.13.711.711,0,0,1,.42.124.961.961,0,0,1,.308.4l2.16,4.6a.58.58,0,0,1,.017.572.51.51,0,0,1-.463.231.641.641,0,0,1-.433-.128,1.078,1.078,0,0,1-.271-.409l-.352-.787-2.706.022-.33.792a1.187,1.187,0,0,1-.26.418A.564.564,0,0,1,128.629,1355.3Zm2.3-4.535-.9,2.2,1.859-.015-.948-2.181Z" fill="#9a9a9a"/>
          <path id="Caminho_2176" data-name="Caminho 2176" d="M135.3,1355.144a.581.581,0,0,1-.664-.634l-.1-4.515a.652.652,0,0,1,.154-.484.636.636,0,0,1,.472-.179.568.568,0,0,1,.649.634l.091,4.087,2.2-.05a.543.543,0,1,1,.024,1.077Z" fill="#9a9a9a"/>
          <path id="Caminho_2177" data-name="Caminho 2177" d="M139.992,1355.1a.627.627,0,0,1-.481-.158.673.673,0,0,1-.181-.479l-.148-4.63a.575.575,0,0,1,.46-.671.61.61,0,0,1,.16-.007c.422-.013.639.2.654.638l.149,4.628a.572.572,0,0,1-.452.671A.58.58,0,0,1,139.992,1355.1Z" fill="#9a9a9a"/>
          <path id="Caminho_2178" data-name="Caminho 2178" d="M142.366,1355.018c-.4.017-.6-.18-.618-.591l-.2-4.684a.664.664,0,0,1,.132-.483.525.525,0,0,1,.4-.181.576.576,0,0,1,.34.071,1.39,1.39,0,0,1,.292.271l2.81,3.278-.137-3.154a.529.529,0,0,1,.413-.625.485.485,0,0,1,.152-.009.53.53,0,0,1,.613.432.538.538,0,0,1,0,.15l.206,4.741a.63.63,0,0,1-.121.438.478.478,0,0,1-.371.177.66.66,0,0,1-.37-.074,1.408,1.408,0,0,1-.3-.276l-2.81-3.278.138,3.155a.534.534,0,0,1-.573.642Z" fill="#9a9a9a"/>
          <path id="Caminho_2179" data-name="Caminho 2179" d="M148.115,1354.756a.546.546,0,0,1-.506-.2.564.564,0,0,1-.026-.567l1.826-4.733a1.007,1.007,0,0,1,.288-.424.706.706,0,0,1,.412-.153.7.7,0,0,1,.425.1.943.943,0,0,1,.328.388l2.4,4.479a.583.583,0,0,1,.046.571.508.508,0,0,1-.45.253.638.638,0,0,1-.439-.1,1.082,1.082,0,0,1-.292-.394l-.393-.768-2.7.161-.289.808a1.217,1.217,0,0,1-.238.431A.571.571,0,0,1,148.115,1354.756Zm2.062-4.648-.781,2.238,1.857-.111-1.059-2.129Z" fill="#9a9a9a"/>
        </g>
      </g>
    </g>
  </g>
</svg>
