<svg xmlns="http://www.w3.org/2000/svg" width="192.739" height="231.48" viewBox="0 0 192.739 231.48"><defs><style>.a{fill:#2c1f15;}.b{fill:#6aa2bd;}.c{fill:#85b6cf;}.d{fill:#e4d9d1;}.e{fill:#6391a3;}.f{fill:#84b6cf;}.g{fill:#f4b98e;}.h{fill:#bababa;}.i{fill:#6ba2bd;}.j{fill:#f3b88e;}.k{fill:#dfdfde;}.l{fill:#eb9e68;}.m{fill:#bab9b9;}.ak,.n{fill:#ec9f67;}.o{fill:#e2d7d0;}.p{fill:#f5e8e1;}.q{fill:#e3d8cf;}.r{fill:#c6bab2;}.s{fill:#f2e2d7;}.t{fill:#e3d3c7;}.u{fill:#eaa370;}.v{fill:#eca06a;}.w{fill:#c6b9b1;}.x{fill:#70a5b7;}.y{fill:#fcfcfc;}.z{fill:#f3e5db;}.aa{fill:#dfd1c6;}.ab{fill:#c4b5aa;}.ac{fill:#af322f;}.ad{fill:#eca570;}.ae{fill:#f6f5f5;}.af{fill:#e0dfde;}.ag{fill:#e0e0df;}.ah{fill:#f4b98d;}.ai{fill:#b8bab9;}.aj{fill:#dfdfdf;}.ak{opacity:0.46;}.al,.ar{fill:none;}.am{fill:#c98456;}.an{fill:#933535;}.ao{fill:#73625b;}.ap{fill:#3f3e42;}.aq{fill:#775623;}.ar{stroke:#5f411c;stroke-linecap:round;stroke-miterlimit:10;stroke-width:1.961px;}.as{fill:#ee9f69;}</style></defs><g transform="translate(-1789.188 -2639.473)"><path class="a" d="M1805.168,2788.191"/><path class="b" d="M1877.4,2762.7a16.331,16.331,0,0,0-6.136,1.5h0l-16.779,45.062q.035-.6.069-1.2c-1.077,2.025-2.077,4.091-3.062,6.163-1.524,3.207-3.033,6.444-4.854,9.5a58.67,58.67,0,0,1,1.881,7.471l.011-.01.021-.018,5.829-2.155.031-.04c1.63-1.983,13.872,3.537,13.872,3.537a76.635,76.635,0,0,0,4.731-25.018,53.593,53.593,0,0,0-.387-6.34s0-.015,3.619-21.53c.492-2.927.79-4.7,1-7.261A72.856,72.856,0,0,0,1877.4,2762.7Z"/><path class="b" d="M1967.451,2869.122c-1.5-6.01-2.852-12.054-4.4-18.054-1.566-6.079-3.027-12.186-4.557-18.275a99.93,99.93,0,0,0-3.675-12.422,31.909,31.909,0,0,1-1.947-7.405c-.692-4.963-.972-9.975-1.582-14.938-.622-5.054-.058-10.008.332-14.989.239-3.057.3-6.1.247-9.161-.014-.768-.119-1.755-1.026-1.859-.8-.092-.954.845-1.183,1.487a53.556,53.556,0,0,0-2.008,8.813,50.476,50.476,0,0,0-1.119,8.1c-.079,6.086.683,12.118,1.1,18.168.367,5.279.723,10.562,1.175,15.836.067.784-.2,1.118-.939,1.248-3.329.587-6.692.969-10.049,1.286q-6.681.633-13.381,1.127c-6.3.475-12.6.655-18.9.877-3.176.113-6.349-.073-9.524-.22-3.822-.177-7.648-.316-11.436-.861a41.589,41.589,0,0,1-4.461-.716,1.3,1.3,0,0,1-1.137-1.437,21.165,21.165,0,0,1,.914-7.355c.882-2.761,1.941-5.388,4.591-6.975,2.238-1.341,4.448-2.726,6.688-4.064,4.938-2.949,9.713-6.158,14.384-9.5a142.638,142.638,0,0,0,12.924-10.254c1.258-1.14,2.767-2.04,3.594-3.613.072-.58-.347-.878-.691-1.219a27.246,27.246,0,0,0-4.848-3.69,4.053,4.053,0,0,0-4.787-.026,28.474,28.474,0,0,0-9.756,10.547c-.261.494-.468,1.143-1.188,1.035-.7-.1-.764-.762-.884-1.319-.393-1.831-.411-3.724-.9-5.541a16.726,16.726,0,0,0-2.854-6.293c-1.787-2.247-4.005-2.313-5.867-.181a11.3,11.3,0,0,0-2.525,4c-.092.292-.14.725-.549.705s-.416-.448-.5-.75a10.117,10.117,0,0,1,.2-4.6,44.666,44.666,0,0,1,4.9-13.872c.2-.368.588-.724.282-1.222a122.135,122.135,0,0,0-13.58,1.02c-.72.091-1.442.18-2.16.286q-.077,3.115-.264,6.228a152.35,152.35,0,0,1-2.284,18.683q-.663,3.525-1.524,7.012c.029,1.165.143,2.328.193,3.489.31,7.2.594,14.4.777,21.608.14,5.5.686,10.979.529,16.484-.008.281.084.564.1.848.194,3.973.723,7.953-.187,11.909-.979,4.252-2.006,8.494-2.919,12.76a45.212,45.212,0,0,0-1.217,8.166c-.019.694.168.934.873.916,1.914-.049,3.829-.038,5.744-.05a1.98,1.98,0,0,0,.379-1.5c.018-1.1.009-2.2.008-3.3,0-.76.266-1.133,1.1-1.006,5.436.827,10.886,1.51,16.369,1.977,3.693.314,7.4.755,11.086.76,8.1.01,16.213.344,24.32-.374,6.495-.575,12.972-1.2,19.386-2.39.281-.052.563-.084.848-.111.665-.063.989.215.99.9,0,1.183-.01,2.367.008,3.55a1.983,1.983,0,0,0,.38,1.5c.651.012,1.306-.009,1.953.047.722.062,1.012-.159.99-.94-.035-1.3-.113-2.6-.219-3.9-.4-4.868-.556-9.759-.675-14.632-.192-7.86-.61-15.716-.594-23.581a46.586,46.586,0,0,0-.166-4.885c-.067-.649-.011-1.31-.011-2.066a2.176,2.176,0,0,1,.707,1.005c.549,1.688,1.17,3.354,1.681,5.053.849,2.822,1.688,5.648,2.428,8.5.813,3.13,1.51,6.289,2.254,9.437.565,2.4,1.145,4.787,1.682,7.189.58,2.6,1.06,5.221,1.687,7.807q1.131,4.655,1.987,9.362c.276,1.529.344,1.654,1.934,1.64.244,0,.487-.023.731-.035A2.121,2.121,0,0,0,1967.451,2869.122Z"/><path class="c" d="M1967.445,2870.9c-1.064-4.61-2.065-9.235-3.218-13.822-.649-2.582-1.341-5.159-1.994-7.738-.883-3.489-1.728-6.991-2.6-10.484-.7-2.789-1.386-5.579-2.109-8.361a83.308,83.308,0,0,0-3.066-10.085,24.483,24.483,0,0,1-1.677-5.757c-.338-2.444-.727-4.883-.963-7.337-.29-3.023-.651-6.038-.8-9.079-.111-2.221-.616-4.438-.418-6.669.32-3.59.5-7.188.877-10.776a71.156,71.156,0,0,0,.063-7.334.956.956,0,0,0-.137-.462c-.175-.3-.2-.854-.611-.787-.257.041-.539.488-.647.808a54.98,54.98,0,0,0-1.75,7.181c-.49,2.539-.943,5.088-1.306,7.648a43.284,43.284,0,0,0-.083,8.286c.069,1.37.336,2.727.407,4.107.193,3.762.478,7.516.908,11.262.2,1.73.011,3.49.294,5.228.449,2.764.1,5.6.682,8.353.1.483-.007.738-.572.822-4.08.606-8.174,1.068-12.276,1.5-4.308.456-8.628.723-12.936,1.154-1.37.137-2.749.229-4.126.265-6.419.165-12.838.806-19.256.449-4.526-.251-9.07-.182-13.583-.862-2.353-.354-4.728-.575-7.072-1.028-.511-.1-.8-.166-.829-.772a22.152,22.152,0,0,1,2.644-12.423,8.1,8.1,0,0,1,2.873-3.027c3.823-2.339,7.686-4.612,11.471-7.01,2.777-1.758,5.492-3.62,8.168-5.529,3.1-2.213,6.235-4.4,9.154-6.834,3.077-2.569,6.334-4.955,9-7.992.543-.15.813.278,1.132.563q1.141,1.017,2.315,2c1.013.845,1.479.711,1.946-.547a26.306,26.306,0,0,0,.83-3.316c.555-2.421,1.148-4.834,1.6-7.277a2.6,2.6,0,0,1,.471-1.117,32.156,32.156,0,0,0,5.607-11c.07-.264.08-.588.475-.6,1.311.512,2.709.251,4.063.436,3.6.492,7.241.727,10.759,1.743a9.244,9.244,0,0,1,3.318,1.933c3.624,3.022,5.839,7.07,8.082,11.105a73.9,73.9,0,0,1,4.984,11.754c1.192,3.431,2.263,6.906,3.324,10.381.976,3.2,1.921,6.409,2.78,9.64s1.531,6.526,2.406,9.76c.73,2.7,1.2,5.444,1.762,8.172.591,2.89.992,5.822,1.378,8.749.487,3.694.883,7.4,1.278,11.106.508,4.767.8,9.545,1.129,14.321a84.176,84.176,0,0,1,.306,8.421c-.021.663-.178.934-.892.928C1976.49,2870.908,1971.968,2870.909,1967.445,2870.9Z"/><path class="d" d="M1947.89,2714.546c-.565-1.252-.066-2.675-.653-4.014-.078.218-.145.361-.181.512a96.819,96.819,0,0,1-3.708,11.758,22.527,22.527,0,0,1-6.879,9.942,4.977,4.977,0,0,1-7.064-.447,18.973,18.973,0,0,1-3.32-6.542.761.761,0,0,0-1.135-.332c-.225.233-.09.437.051.641.336.325.861.527.746,1.145-.108.826-.347,1.631-.433,2.463a8.1,8.1,0,0,1-.439,2.381,17.857,17.857,0,0,1-3.174,7.205,6.329,6.329,0,0,1-2.952,2.488c-2.3.848-4.129.833-5.347-1.469a1.7,1.7,0,0,0-1.633-.1,9.4,9.4,0,0,1-5.282.014,3.218,3.218,0,0,0-1.329-.1c-.62.191-.967.73-1.426,1.123a3.543,3.543,0,0,1-2.513,1.1,5.924,5.924,0,0,1-5.359-3.255,17.994,17.994,0,0,1-1.97-8.363,2.436,2.436,0,0,0-.136-.737c-.4-.536-.313-1.326-.919-1.753-.812,1.385-1.541,2.827-2.456,4.14-1.611,2.311-3.671,3.988-6.718,3.441a10.808,10.808,0,0,1-5.843-3.063c-3.578-3.658-5.528-8.205-6.8-13.111-.312-1.2-.177-2.521-.911-3.61-.658.928-.363,1.963-.28,2.951.1,1.216.262,2.428.393,3.641a29.662,29.662,0,0,0,2.307,9.783,14.438,14.438,0,0,0,.933,1.916c2.365,3.489,4.823,6.871,8.343,9.373a25.126,25.126,0,0,0,12.086,4.89c.7.074,1.453.1,1.9.842,1.037,1.715,2.378,2.294,3.045,3.082,1.733,2.046,4.624,2.236,9.255,2.54a19.418,19.418,0,0,0,6.954-.6,12.8,12.8,0,0,0,4.27-2.486,2.671,2.671,0,0,0,.89-1.41c.872-.419.863-1.661,1.877-1.97a37.078,37.078,0,0,0,8.093-3.2,35.386,35.386,0,0,0,8.359-6.363,34.141,34.141,0,0,0,4.957-6.869,37.049,37.049,0,0,0,3.417-10.014,10.388,10.388,0,0,0,.758-5.685A4.381,4.381,0,0,1,1947.89,2714.546Z"/><path class="e" d="M1930.5,2774.226a46.137,46.137,0,0,0-1.433,5.73c-.558,2.062-.956,4.168-1.5,6.234-.323,1.225-1.149,1.429-2.109.612-1.172-1-2.336-2-3.5-3.008a23.511,23.511,0,0,0-6.418-4.923,3.22,3.22,0,0,0-3.437.3,28.406,28.406,0,0,0-6.707,5.937,21.214,21.214,0,0,0-3.355,5.161,1.153,1.153,0,0,1-1.227.831,1.451,1.451,0,0,1-1.131-1.272c-.429-1.938-.468-3.933-.946-5.867a15.062,15.062,0,0,0-3.082-6.619c-1.683-1.9-3.681-1.738-5.23.243a10.714,10.714,0,0,0-2.527,4.494.6.6,0,0,1-.637.467.6.6,0,0,1-.635-.469,6.392,6.392,0,0,1-.39-2.143,37.722,37.722,0,0,1,1.958-9.594,48.851,48.851,0,0,1,3.926-8.8,20.936,20.936,0,0,1,3.27-2.642,8.711,8.711,0,0,1,5.5-1.309,2.724,2.724,0,0,1-1.515,4c-1.661.64-1.721.81-1.3,2.536q1.957,8,3.879,16.016c.048.2.079.4.134.6.3,1.061.475,1.144,1.245.391,1.455-1.423,2.975-2.777,4.429-4.2,3.52-3.452,6.865-7.076,10.411-10.5a52.755,52.755,0,0,0,3.984-4.3c.627-.556.656-.93-.174-1.41-1.789-1.034-2.069-1.747-1.474-3.114,1.9,0,3.807.034,5.708-.024a2.8,2.8,0,0,1,2.412,1.043c.921,1.089,1.911,2.119,2.872,3.174,1.269.676,1.177,1.868,1.007,2.983-.339,2.238-.662,4.481-1.178,6.688A8.037,8.037,0,0,1,1930.5,2774.226Z"/><path class="f" d="M1876.2,2870.9c0-1.754.047-3.509-.007-5.261-.027-.887.3-1.217,1.138-1.039,4.438.939,8.96,1.331,13.452,1.831,2.4.267,4.844.422,7.264.624,8.657.722,17.328.5,25.989.39,3.459-.043,6.939-.459,10.405-.8,3.223-.318,6.421-.823,9.645-1.112a23.662,23.662,0,0,0,4.172-.739c2.691-.745,2.809-.7,2.811,2.069q0,2.019.01,4.038c-.366.013-.732.036-1.1.036q-36.342,0-72.684,0C1876.928,2870.932,1876.563,2870.909,1876.2,2870.9Z"/><path class="g" d="M1920.505,2757.6c-.34,1.449.445,2.233,1.6,2.873,1.355.746,1.335.783.294,1.775-3.475,3.433-7.3,6.478-10.951,9.709q-3.794,3.356-7.844,6.418c-.822.62-1.064.505-1.282-.488-.707-3.216-1.247-6.463-1.841-9.7a7.017,7.017,0,0,1-.119-.969c-.078-1.736.058-2.023,1.681-2.666a58.229,58.229,0,0,0,8.229-3.992,37.086,37.086,0,0,0,9.209-7.553c.2-.232.319-.593.731-.558C1920.348,2754.166,1920.075,2755.9,1920.505,2757.6Z"/><path class="h" d="M1866.918,2715.028a37.614,37.614,0,0,1,1.031,4.932c.507,2.295,1.256,4.517,1.914,6.767-.7,1.288-1.423,1.575-2.761.94a6.537,6.537,0,0,1-2.043-1.248c.518-.33,1.312-.126,1.6-.78a2.657,2.657,0,0,0,.157-1.9c-2.984.856-4.33.283-5.86-2.484-.325-.587-.925-1.043-.866-1.814.818.1,1.586.7,2.458.247a7.1,7.1,0,0,0,1.756-1.4,5.423,5.423,0,0,1,1.6-1.6C1866.3,2716.168,1866.848,2715.745,1866.918,2715.028Z"/><path class="i" d="M1930.5,2774.226c.565-3.118,1.14-6.234,1.689-9.354a3.655,3.655,0,0,0-.693-3.077c1.495-.22,2.953.269,4.439.24.292-.006.434.162.4.461A30.829,30.829,0,0,1,1930.5,2774.226Z"/><path class="j" d="M1860.1,2699.362c.184-.453.3-.875,1.007-.569a3.858,3.858,0,0,0,2.276.251c.568-.112.676.2.569.6a10.121,10.121,0,0,1-1.536,3.919c-.479.6-1.141,1.159-1.856.179Q1860.335,2701.553,1860.1,2699.362Z"/><path class="k" d="M1862.761,2719.907a2.094,2.094,0,0,1-2.669-.461,2.746,2.746,0,0,1,2.479-2.488,18.74,18.74,0,0,1,3.337-.265l-1.447,1.733C1863.981,2719.019,1862.9,2718.919,1862.761,2719.907Z"/><path class="h" d="M1946.908,2722.1q.378-2.843.757-5.684c.849,1.405,1.457,3.028,3.352,3.588C1949.73,2721.025,1948.538,2721.983,1946.908,2722.1Z"/><path class="c" d="M1917.72,2851.793c-5.851.461-12.121.335-18.385.27a115.72,115.72,0,0,1-16.48-1.124,34.276,34.276,0,0,0-4.323-.593c-1.282-.034-.9-1.079-.77-1.751.24-1.27.649-2.509.968-3.765a4.971,4.971,0,0,0,.159-1.077c.055-1.922.091-2.1,1.956-1.658,3.558.849,7.2,1.036,10.8,1.572,1.867.278,3.782.417,5.675.554a211.141,211.141,0,0,0,22.063.482c3.917-.128,7.833-.452,11.744-.853,3.018-.309,6.027-.691,9.025-1.111s5.951-1.15,8.914-1.79c.726-.156,1.262-.154,1.257.742-.012,2.156.375,4.29.283,6.454-.038.917-.415,1.176-1.242,1.258-4.626.458-9.239,1.1-13.874,1.384-2.549.158-5.085.527-7.636.546C1924.6,2851.358,1921.387,2852.024,1917.72,2851.793Z"/><path class="l" d="M1880.9,2654.01c-1.167,1.123-2.382,2.2-3.492,3.378a31.057,31.057,0,0,0-6.265,10.582,51.322,51.322,0,0,0-2.626,11.189q-.537,3.921-.814,7.859c-.173,2.481-.319,6.906-.065,6.929.276.024.54-5.216,1.8-11.655,1.6-8.145,3.549-17.462,10.688-24.389a28.57,28.57,0,0,1,5.382-4.1A14.527,14.527,0,0,0,1880.9,2654.01Z"/><path class="m" d="M1941.253,2661.38a18.383,18.383,0,0,0,2.965,1.278,6.567,6.567,0,0,0,4.36-.464c.154-.08.385-.011.8-.011a6.82,6.82,0,0,1-2.694,2.127c-1.592.862-1.679,1.221-.646,2.67a30.607,30.607,0,0,1,3.171,5.433c.525,1.195.394,1.458-.859,1.7-1.315.255-1.561.715-.983,1.882.793,1.6,1.61,3.19,2.392,4.8.709,1.455.5,2.227-.818,3.21-1,.745-1.084,1.392-.31,2.353a8,8,0,0,0,.709.833,5.413,5.413,0,0,1,1.947,5.312c-1.327.329-2.53,1.2-4,.918-.5-1.247-.189-2.575-.368-3.863a43.681,43.681,0,0,1-.354-4.493c-.235-6.772-1.289-13.364-4.154-19.577-.426-.924-.739-1.9-1.133-2.836C1941.1,2662.241,1940.917,2661.808,1941.253,2661.38Z"/><path class="n" d="M1952.029,2702.793a16.094,16.094,0,0,1-1.967,3.892,10.279,10.279,0,0,0-1.309,2.313c-.137.382-.468.867-.986.736-.42-.107-.5-.6-.592-1a1.344,1.344,0,0,1-.017-.365c.149-3.007-.358-6-.257-9,.837-.408,1.754-.733,1.941-1.833a1.487,1.487,0,0,1,1.983.57,10.707,10.707,0,0,1-1.1,4.331Z"/><path class="k" d="M1952.039,2670.7a3.445,3.445,0,0,1,2.694,2.453A5.952,5.952,0,0,1,1952.039,2670.7Z"/><path class="o" d="M1924.891,2725.521l.243.475c-.12.123-.287.228-.434.164a6.792,6.792,0,0,0-3.523-.072,5.867,5.867,0,0,1-3.276-.786,3.825,3.825,0,0,0-1.276-.438c.531.73.285,1.127-.528,1.191a9.233,9.233,0,0,1-6.6-1.609c-1.3-.986-1.779-.972-3.189-.109a13.532,13.532,0,0,1-8.465,1.661c-.082-.006-.209,0-.233-.046-.567-1.191-1.582-.29-2.354-.509a.6.6,0,0,1-.347-.8.578.578,0,0,1,.244-.271c1.371-.514,2.841-.713,4.189-1.322.507-.229,1.222-.533,1.523.107.255.542-.443.859-.835,1.195-.11.094-.306.106-.314.322,1.674-.463,3.459-.511,4.921-1.655,1.153-.9,1.2-.845.157-1.826-.18-.17-.348-.352-.206-.632a.506.506,0,0,1,.509.054,43.177,43.177,0,0,0,6.829-.259c-.108.778-.868.721-1.34,1.012-.98.6-1.047,1.071-.068,1.656a13.537,13.537,0,0,0,3.755,1.574c-.1-.742-.646-1.019-.976-1.441-.239-.305-.7-.582-.4-1.029.272-.4.729-.276,1.113-.115a28.45,28.45,0,0,1,3.982,1.81,6.476,6.476,0,0,0,2.141.839c.236.047.52.108.679-.115.171-.241-.058-.448-.167-.658-.227-.436-.98-.88-.535-1.315.588-.574,1.273,0,1.861.356a5.175,5.175,0,0,0,2.444,1.942C1924.658,2725.032,1924.98,2725.127,1924.891,2725.521Z"/><path class="p" d="M1921.954,2723.082c-.609,0-1.052-.67-1.819-.4.358.5.692.97,1.036,1.436.528.714.2.921-.526.918a4.4,4.4,0,0,1-2.418-.723,44.966,44.966,0,0,0-4.586-2.157c-.151-.078-.378-.011-.679-.011.415.909,1.239,1.313,1.662,2.04.126.217.292.432.13.667a.526.526,0,0,1-.669.128,23.331,23.331,0,0,1-3.857-1.755c-1.264-.86-1.228-1.355.094-2.043.533-.278,1.069-.548,1.6-.822a13.859,13.859,0,0,1,5.3-.087,7.623,7.623,0,0,1,3.264.855C1921.116,2721.674,1921.9,2722.1,1921.954,2723.082Z"/><path class="q" d="M1905.1,2720.62l-.52.014a2.182,2.182,0,0,1-1.738.327,12.644,12.644,0,0,0-6.005,1.237,10.093,10.093,0,0,0-2.959,1.873.814.814,0,0,0-.236,1.142c-.291.68-.883.613-1.457.6-.834-.157-.783-.674-.516-1.277a6.348,6.348,0,0,1,2.4-2.691l2.935-1.17a.7.7,0,0,1,.964-.073,21.16,21.16,0,0,1,5.045-.468A4.939,4.939,0,0,1,1905.1,2720.62Z"/><path class="r" d="M1894.066,2721.841a13.813,13.813,0,0,0-2.179,2.9c-.13.311-.471.694.218.783.291.252.67.029.98.183.189.292.063.563-.052.836-.1.152-.22.28-.431.195-.773,0-1.546.008-2.319,0-.744,0-.883-.312-.624-1.014C1890.433,2723.624,1892.226,2722.716,1894.066,2721.841Z"/><path class="p" d="M1924.891,2725.521l-.494-.481a9.956,9.956,0,0,1-2.49-2.858.4.4,0,0,1,.052-.543,8.682,8.682,0,0,1,3.2,2.072,3.024,3.024,0,0,1,.926,2.044A2.041,2.041,0,0,0,1924.891,2725.521Z"/><path class="s" d="M1921.959,2721.639a36.438,36.438,0,0,0,2.438,3.4,2.9,2.9,0,0,1-2.443-1.959q-.734-.975-1.466-1.952Z"/><path class="t" d="M1893.538,2729.936c-.661-.407-.421-1.178-.7-1.738l-.017-.246c.044-.587-.053-1.236.678-1.516a.574.574,0,0,1,.3.295C1893.929,2727.817,1894.234,2728.916,1893.538,2729.936Z"/><path class="u" d="M1893.33,2726.513q-.255.719-.512,1.439c-.384-.348-.166-.8-.216-1.21l.248-.223A.315.315,0,0,1,1893.33,2726.513Z"/><path class="v" d="M1897.965,2720.6l-.964.073a.8.8,0,0,1,.821-.6C1898.034,2720.086,1897.963,2720.4,1897.965,2720.6Z"/><path class="j" d="M1925.6,2729.682c-.48,4.391-1.94,8.367-5.227,11.438a5.309,5.309,0,0,1-5.179,1.263,2.172,2.172,0,0,1-1.818-1.885c-.107-.614.48-.65.775-.924.363-.336,1.087-.517.822-1.156-.222-.535-.845-.3-1.313-.261-.506.042-1.047.278-1.433-.287a4.4,4.4,0,0,1-.031-2.372c.252-.529.785-.688,1.253-.915a7.308,7.308,0,0,0,2.971-2.652,3.8,3.8,0,0,0,.495-3.71c-.1-.258-.276-.516-.059-.8a2.745,2.745,0,0,1,1.832-.521,27.428,27.428,0,0,1,4.476.1c.888.586.587,1.45.414,2.2a15.063,15.063,0,0,1-1.812,4.5,3.487,3.487,0,0,0-.568,1.213,4.572,4.572,0,0,0,2.271-1.982,17.856,17.856,0,0,0,1.344-2.455C1924.991,2730.142,1925.059,2729.667,1925.6,2729.682Z"/><path class="j" d="M1905.119,2740.271a4.928,4.928,0,0,0-.415.443c-2.581,3.534-7.549,1.654-9.066-1.323a17.591,17.591,0,0,1-2.036-8.73c.7.075.794.748,1.107,1.18a6.57,6.57,0,0,0,2.5,2.492,21.3,21.3,0,0,0-1.309-2.818,14.863,14.863,0,0,1-1.011-2.614c-.168-.649-.38-1.374.366-1.878a10.862,10.862,0,0,1,5.116.387.568.568,0,0,1,.143.563c-.94,2.98,1.828,6.062,4.41,6.938.372.126.819.144,1.009.59a3.559,3.559,0,0,1,0,2.235c-.709.563-1.448.282-2.191.083-.411-.11-.954-.433-1.2.078-.254.531.3.847.663,1.158C1903.782,2739.552,1904.66,2739.581,1905.119,2740.271Z"/><path class="w" d="M1895.3,2725.289l2.529-.559c-.654.962-.406.891.508.959a16.972,16.972,0,0,0,5.733-.627,12.948,12.948,0,0,0,2.681-1.357,2.063,2.063,0,0,1,2.653.251c1.951,1.742,4.372,1.947,6.852,1.8a.58.58,0,0,0,.41-.176c.145-.223-.066-.362-.222-.483-.128-.1-.284-.162-.406-.267a2,2,0,1,1,2.207.265,6.078,6.078,0,0,0,3.518.661c.313-.009.758.2.777-.439.01-.314.291-.21.449-.079a4.945,4.945,0,0,0,2.15.758,1.01,1.01,0,0,1,.963.992,6.729,6.729,0,0,1-2.841-.127c-2.922-.1-5.843.133-8.766.02a23.168,23.168,0,0,1-5.744-1,3.558,3.558,0,0,0-2.232.034,16.642,16.642,0,0,1-8.013.99c-1.035-.181-2.11.017-3.162-.089a1.324,1.324,0,0,1-.388-.122c-.428-.319-.208-.7-.092-1.063A.808.808,0,0,1,1895.3,2725.289Z"/><path class="l" d="M1905.119,2740.271a5.58,5.58,0,0,1-2.62-1.413c-.333-.389-.687-.837-.425-1.277.318-.534.992-.414,1.441-.189a4.958,4.958,0,0,0,2.256.391c2.219.22,4.455-.041,6.672.242.678-.087,1.356-.184,2.037-.258.424-.046.822.008.981.5a.95.95,0,0,1-.4,1.065c-.532.425-1.119.78-1.683,1.164-.582-.438-1.232-.128-1.728.043C1909.416,2741.314,1907.279,2740.723,1905.119,2740.271Z"/><path class="x" d="M1897.408,2776.367a3.971,3.971,0,0,1-1.336-.71c-1.052-.552-1.986-1.306-3.381-.743-1.034.417-1.586-.159-1.273-1.266.706-2.5.968-5.083,1.54-7.608.346-1.526.589-3.072,1.057-4.576a2.7,2.7,0,0,1,1.475-1.654c.291-.147.684-.646,1.051-.129a1,1,0,0,1,0,1.354c-.8.745-.646,1.56-.591,2.539.2,3.4.9,6.739,1.067,10.138A26.818,26.818,0,0,0,1897.408,2776.367Z"/><path class="y" d="M1862.761,2719.907c-.475-.482-.189-.766.274-.961s.95-.349,1.426-.52C1864.1,2719.159,1863.36,2719.45,1862.761,2719.907Z"/><path class="p" d="M1896.513,2722.1a9.487,9.487,0,0,1,5.261-1.467c.934-.022,1.869,0,2.8,0,.044.068.071.16.132.2,1.862,1.248,1.837,1.211-.08,2.566-1.727,1.222-3.746,1.236-5.966,1.777.69-.971,1.669-1.112,2.222-2.164-2.05.359-3.732,1.337-5.595,1.529C1894.977,2723.367,1895.785,2722.754,1896.513,2722.1Z"/><path class="z" d="M1896.513,2722.1a8.857,8.857,0,0,0-1.223,2.443l-.249.008a1.449,1.449,0,0,1-1.466.482c-.638.008-.945-.209-.351-.726C1894.224,2723.438,1895.126,2722.4,1896.513,2722.1Z"/><path class="aa" d="M1893.575,2725.033c.424-.358.977-.322,1.466-.482.01.272-.035.563.254.738-.084.082-.169.163-.254.245-.611.407-1.233.722-1.954.242-.337-.042-.722.1-.981-.248C1892.633,2725.475,1893.261,2725.72,1893.575,2725.033Z"/><path class="ab" d="M1893.087,2725.776l1.954-.243a1.5,1.5,0,0,1-.23.938l-1.237.04-.122,0-.122,0-.48.006Z"/><path class="ac" d="M1905.805,2735.522a7.907,7.907,0,0,1-5.164-3.917,3.963,3.963,0,0,1-.22-3.893c.455-.761,1.281-.593,1.96-.743a9.308,9.308,0,0,1,2.3-.085c2.221-.033,4.442,0,6.662,0a21.963,21.963,0,0,1,4.325.264,1.555,1.555,0,0,1,1.162.549,3.228,3.228,0,0,1,.257,3.8,8,8,0,0,1-4.695,3.883,2.132,2.132,0,0,1-1.479.74,30.58,30.58,0,0,1-3.994.009A1.208,1.208,0,0,1,1905.805,2735.522Z"/><path class="ad" d="M1923.424,2726.531h0c-2.158,0-4.321-.081-6.475.024a22.951,22.951,0,0,1-7.656-.918,4.861,4.861,0,0,0-3.315.063,13.928,13.928,0,0,1-6.314.988,41.548,41.548,0,0,0-4.624-.154h0c-.077-.02-.153-.04-.229-.062a.877.877,0,0,0-1.238.04q-.016,1.713-.034,3.425.032.361.063.725c.983,1.418,1.7,3.057,3.309,3.952.219.121.431.28.66.093s.13-.443.013-.661-.273-.4-.374-.623c-.923-1.989-2.288-3.825-2.165-6.181h0a17.663,17.663,0,0,1,5.376.471,15.709,15.709,0,0,1,4.179-.5,8.393,8.393,0,0,0,2.56-.711.943.943,0,0,1,.948-.022c1.028.61,2.216.438,3.306.728a32.389,32.389,0,0,1,5.418.492,2.011,2.011,0,0,1,.419-.208c2.039-.477,4.111-.158,6.166-.24h0c.148,3.013-1.449,5.419-2.829,7.908a1.365,1.365,0,0,0,1.673-.358c1.626-1.379,2.339-3.338,3.342-5.114q.247-1.347.494-2.694C1925.254,2726.555,1924.283,2726.869,1923.424,2726.531Z"/><path class="o" d="M1905.805,2735.522a12.562,12.562,0,0,0,6.589-.145l.048,2.648c-2.237.3-4.474.584-6.671-.242C1905.972,2737.032,1905.556,2736.272,1905.805,2735.522Z"/><path class="ae" d="M1914.846,2729.646a20.885,20.885,0,0,1-11.727.019c-.417-1.175-.159-1.662,1-1.676q4.586-.056,9.172,0C1914.472,2728,1914.83,2728.439,1914.846,2729.646Z"/><path class="af" d="M1914.846,2729.646c-.267-1.162-1.045-1.463-2.159-1.442-2.715.051-5.432.066-8.145-.005-1.136-.03-1.593.349-1.423,1.466a.994.994,0,0,1-.362.013c-.7-.255-1.75-.418-1.7-1.249.06-.97,1.114-.685,1.8-.689,3.574-.019,7.148-.009,10.721-.007.406,0,.812.016,1.218.024.732.015,1.835.065,1.859.706C1916.682,2729.213,1915.71,2729.616,1914.846,2729.646Z"/><path class="j" d="M1904.6,2727.207c2.27-1.557,4.542-.989,6.814-.005Z"/><path class="l" d="M1920.217,2752.451a21.876,21.876,0,0,1-5.008,5.08,45.951,45.951,0,0,1-12.969,7.249c-1.579.586-1.864,1.268-1.523,3.133.493,2.7.918,5.413,1.463,8.1a11.486,11.486,0,0,1,.508,2.733c2.166-1.756,4.159-3.362,6.142-4.981,3.23-2.636,6.261-5.5,9.517-8.115,1.093-.877,2.078-1.919,3.158-2.835.274-.232.475-.576.9-.567a69.915,69.915,0,0,1-5.542,5.874c-3.762,3.718-7.427,7.534-11.163,11.277-1.039,1.042-2.189,1.972-3.469,3.115-.719-2.977-1.383-5.741-2.053-8.505-.561-2.309-1.122-4.619-1.7-6.925-.3-1.215-.7-2.411-.941-3.638-.151-.771-.231-1.465.919-1.863,2.521-.872,2.538-1.07,2.428-4,.02-.318.041-.637.062-.955.415-.88.037-1.855.3-2.755,1.872.236,3.672,1.05,5.545.747,2.448-.4,4.891.322,7.371-.337a12.349,12.349,0,0,0,6.04-3.774Z"/><path class="j" d="M1954.495,2694.176c-1.022-.13-1.544.277-1.478,1.351a4,4,0,0,1-.064.728c-.25,2.09.04,3.958,2.1,5.1.608.338.512.9.36,1.4-.167.554-.63.509-1.11.411a7.159,7.159,0,0,0-2.27-.372,2.033,2.033,0,0,0-.666.855c-.706,1.753-1.959,3.189-2.794,4.865-.135.275-.268.677-.677.567-.372-.1-.346-.508-.387-.826a2.275,2.275,0,0,1-.017-.488c.149-2.446-.29-4.873-.263-7.314v-.037a8.511,8.511,0,0,0,2.057-2.784,5.17,5.17,0,0,1,1.542.476,45.409,45.409,0,0,0,.46-5.609c-1.35-.2-2.471.53-3.682.9-.1-.226-.2-.442-.284-.64-.018-1.1-.319-2.137-.442-3.223-.541-4.821-.4-9.706-1.392-14.49a46.819,46.819,0,0,0-2.382-8.473,50.461,50.461,0,0,1-2.311-5.821c-.162-.238-.326-.475-.491-.715a4.655,4.655,0,0,1-1.583-.826l-.066-.128a2.775,2.775,0,0,0-.9-.975,8.705,8.705,0,0,1-3.308-4.074c-.064-.191-.179-.407-.417-.35-.211.049-.284.277-.314.478a11.311,11.311,0,0,0,.262,2.642c.412.965,1.449,1.12,2.184,1.664.792.586,1.642,1.1,1.664,2.243a2.446,2.446,0,0,1-.664,2.267c0,.654-.6.706-.983.982-.377.255-.97.27-1.073.824-.13-.336-.348-.642-.664-.48-.684.357-1.941,1.343-2.361.884a2.659,2.659,0,0,0-1.654.064c-.458.579.108.863.373,1.2.933,1.164.884,1.775-.273,2.738a1.322,1.322,0,0,0-.424.421,2.37,2.37,0,0,1-2.477,2.942,11.294,11.294,0,0,1-2.966-.552c-1.076-.446-2.262-.157-3.358-.539-2.26-.787-3.644-2.537-4.907-4.4a50.3,50.3,0,0,1-4.549-9.042c-1.213-2.907-3.061-5.235-6.664-5.186a1.718,1.718,0,0,1-.711-.167,3.97,3.97,0,0,0-2.632-.1,19.805,19.805,0,0,0-5.752,2.3c-1.983,1.208-2.941.987-4.441-.7a5.946,5.946,0,0,0-3.679-.743,9.551,9.551,0,0,0-2.949-.213,14.527,14.527,0,0,0-4.613.206c-1.166,1.123-2.382,2.2-3.492,3.378a31.033,31.033,0,0,0-6.265,10.583,51.289,51.289,0,0,0-2.627,11.188q-.537,3.92-.814,7.858c-.142,2.069-.051,4.154-.066,6.233,0,.64-.091,1.1-.966.944a14.149,14.149,0,0,0-2.193-.057,12.718,12.718,0,0,0,.208,3.429,15.615,15.615,0,0,1,.782,2.792c-.107,1.27.56,2.437.535,3.716-.016.774.817,1.84.35,2.262s-1.608.173-2.452.178c-2.363.012-2.363,0-1.435,2.248.179.446.344.9.54,1.336.994,2.222,1.88,4.533,4.406,5.533.239.5-.074,1.008.026,1.536a59.232,59.232,0,0,0,1.877,7.894c.265.785.315,1.689,1.042,2.269a4.113,4.113,0,0,1,.22.4,23.875,23.875,0,0,0,2.444,5.243c-.523-2.4-1.284-4.726-1.589-7.186-.336-2.707-.743-5.4-.818-8.128a41.48,41.48,0,0,0,2.888,9.106c1.88,3.846,4.137,7.28,8.2,9.145,3.275,1.5,5.915,1.1,8.321-1.429a17.028,17.028,0,0,0,3.454-5.556,1.443,1.443,0,0,0,.017-.383,3,3,0,0,0-.336-1.237,2.274,2.274,0,0,0-1.409-.253c-1.4-.044-1.605-.363-.838-1.549a8.991,8.991,0,0,1,3.725-2.823,17.241,17.241,0,0,0,2.946-1.167c.39-.637.829-.206,1.253-.064,2.291-.35,4.585-.713,6.87.059a24.584,24.584,0,0,0,6.607-.24,18.612,18.612,0,0,1,8.368.654,13.552,13.552,0,0,1,1.571.6c.409.176.824.34,1.213.544,1.434.752,2.655,1.7,2.878,3.468a20.592,20.592,0,0,0,2.264,5.26c2.015,3.311,5.456,4.1,8.439,1.86a18.734,18.734,0,0,0,3.988-4.113,33.669,33.669,0,0,0,4.333-9.264c.926-2.829,2.047-5.606,2.328-8.275.079.647.094,1.62.187,2.586.027.277.11.581.505.561a8.872,8.872,0,0,0,4.188-3.483,50.231,50.231,0,0,0,3.785-6.691C1957.412,2700.742,1957.49,2697.23,1954.495,2694.176Zm-8,2.582c-.009,0-.014-.008-.013-.011Z"/><path class="ag" d="M1951.162,2686.9c2.118-3.638,2.352-4.794,2.03-5.056-.173-.14-.45.081-1.665.314-.726.14-1.445.29-2.161.466a4.32,4.32,0,0,1-.928,1.049,1.747,1.747,0,0,0-.236,2.765,5.285,5.285,0,0,0,.64.738,5.5,5.5,0,0,1,1.885,5.36c-.177,1.767-.216,3.546-.38,5.318-.287.932-.26,1.924-.566,2.851-.618,1.872-.571,1.951,1.394,2.186.2.022.4.022.608.025.405.022.8.125,1.2.159.828.071,1.838.743,2.384-.4.53-1.1-.362-1.652-1.071-2.289-1.823-1.64-1.821-5.181-.041-6.4.546-1.642.287-2.522-.029-3.017-.575-.9-1.562-.878-2.353-1.941A3.906,3.906,0,0,1,1951.162,2686.9Z"/><path class="ag" d="M1865.007,2700.046c-.274-.745-.826-1.446-.39-2.311-.073-1.1-.061-2.214-.2-3.314a3.612,3.612,0,0,0-.08-.606,6.16,6.16,0,0,1,1.056-5.654,2.529,2.529,0,0,0,.329-.549c-.194-.009-.388-.017-.581-.023l-.8-.022c-.428.684-1.771,1.6-4.7,2.853a4.282,4.282,0,0,0-2.647,2.03c-1.179,2.452,1.3,5.635,2.127,5.951a1.112,1.112,0,0,1,.531.372,1.4,1.4,0,0,1,.214.854c1.074-.508,2.135.13,3.211.056.41-.027.267.419.191.672a16.884,16.884,0,0,1-.8,2.416c-.429.922-1,1.561-2.14,1.235-.615.192-1.478.26-1.181,1.2.436,1.377.936,2.782,2.588,3.213a.8.8,0,0,0,.03-.811c-.331-.909.044-1.15.906-1.076a15.609,15.609,0,0,0,2.064,0c1.255-.056,1.471-.289,1.194-1.475C1865.544,2703.4,1865.439,2701.7,1865.007,2700.046Z"/><path class="ag" d="M1866.26,2676.265a12.979,12.979,0,0,1,.24,1.575,1.192,1.192,0,0,0-.066-1.423A.93.93,0,0,0,1866.26,2676.265Z"/><path class="h" d="M1925.122,2672.625c-3.774.577-6.259-1.388-8.22-4.263a42.241,42.241,0,0,1-5-10.007c-.942-2.718-3.4-4.048-6.209-4.664-2.7-.593-4.909.2-7.213,1.107-.892.352-1.67.982-2.544,1.389-1.251.583-2.868.561-3.62-.6a1.514,1.514,0,0,1-.216-.8,6.5,6.5,0,0,0,3.562-1.007c3.684-2.034,7.574-3.212,11.861-2.433a7.928,7.928,0,0,1,6.315,5.7,42.443,42.443,0,0,0,6.374,11.528A12.873,12.873,0,0,0,1925.122,2672.625Z"/><path class="m" d="M1864.444,2694.34c-.63-2.183-.81-4.266.81-6.2a2.086,2.086,0,0,0,.235-2.666c-1.524-2.426-.738-4.723.692-6.908.045-.068.1-.127.143-.2.264-.467.592-1.009.184-1.463s-.9.075-1.359.134c-.374.049-.542.8-1,.4-.361-.311-.227-.869-.155-1.286a9.264,9.264,0,0,1,2.383-4.293c.626-.744,1.242-1.5,1.892-2.219.339-.376.526-.834.259-1.217a.969.969,0,0,0-1.328-.113,17.276,17.276,0,0,0-2.707,1.631c-.228.2-.557.506-.855.288s-.135-.591,0-.9c2.707-6.016,6.563-10.943,12.745-13.759a13.892,13.892,0,0,1,4.482-1.362c.066.6-.413.852-.762,1.162-6.182,5.466-9.178,12.575-10.7,20.492-.638,3.324-.908,6.686-1.351,10.029a22.656,22.656,0,0,0-.073,2.807c-.011,1.426.023,2.852-.013,4.277-.038,1.531-.295,1.777-1.8,1.724C1865.584,2694.682,1864.936,2694.858,1864.444,2694.34Z"/><path class="ah" d="M1899.273,2710.248l-.706,2.647a3.725,3.725,0,0,0-2,3.611,3.8,3.8,0,0,0,3.887,3.213s5.912,4.117,11.279-.647a3.369,3.369,0,0,0,3.374-.657c1-1.176.644-3.8-1.653-5.343q-.294-5.148-.589-10.294l-.353-1.765h-11.176Q1900.3,2705.63,1899.273,2710.248Z"/><path class="n" d="M1913.99,2713.49c.383,2.586-.1,3.513-.641,3.872-1.023.685-2.448-.553-3.992.309-.911.508-.676,1.084-1.608,1.707a4.525,4.525,0,0,1-4.988-.185c-1.136-.954-.849-2.192-2.272-2.978-.776-.429-1.235-.268-1.411-.662-.307-.686.925-1.543,2.25-3.706a9.955,9.955,0,0,0,1.169-2.316c.352-1.111.148-1.422.066-5.537,0,0-.006-.289-.044-2.981h-1.186q-1.029,4.617-2.059,9.235-.353,1.325-.706,2.647a3.726,3.726,0,0,0-2,3.611,3.8,3.8,0,0,0,3.887,3.213s5.911,4.117,11.279-.647a3.367,3.367,0,0,0,3.373-.657C1916.019,2717.339,1915.794,2715.054,1913.99,2713.49Z"/><ellipse class="n" cx="15.551" cy="1.081" rx="15.551" ry="1.081" transform="translate(1893.196 2673.231)"/><ellipse class="n" cx="11.647" cy="1.081" rx="11.647" ry="1.081" transform="translate(1895.931 2680.334)"/><path class="n" d="M1901.9,2689.584c-.022.8-.079,2.933-1.295,4.205a3.03,3.03,0,0,1-1.705.883.076.076,0,0,1-.05-.013c-.155-.119.4-1.046.638-1.517a7.906,7.906,0,0,0,.47-3.558c.021-1.917-.257-2.844.3-3.206a.916.916,0,0,1,.823-.059C1901.979,2686.7,1901.928,2688.6,1901.9,2689.584Z"/><path class="n" d="M1911.66,2689.584c.022.8.079,2.933,1.294,4.205a3.03,3.03,0,0,0,1.706.883.075.075,0,0,0,.049-.013c.156-.119-.405-1.046-.637-1.517a7.905,7.905,0,0,1-.471-3.558c-.021-1.917.258-2.844-.294-3.206a.918.918,0,0,0-.824-.059C1911.582,2686.7,1911.634,2688.6,1911.66,2689.584Z"/><path class="ai" d="M1877.222,2691.709c0,.176,9.883-2.765,17.294.529,0,0,3.471-4.47-3.294-5.706C1891.222,2686.532,1877.164,2684.768,1877.222,2691.709Z"/><path class="aj" d="M1877.222,2691.709l.173-.076a21.806,21.806,0,0,1,5.7-1.426c3.13-.306,5.187-.507,7.618.117a3.57,3.57,0,0,0,2.849-.06,1.856,1.856,0,0,0,.883-1.53c-.047-.856-1.043-1.663-2.526-2.027a16.336,16.336,0,0,0-2.169-.392c-.064-.007-.683-.076-1.363-.1a24.809,24.809,0,0,0-5.287.466c-2.287.489-3.674.977-4.726,2.041a3.6,3.6,0,0,0-.808,1.22,3.881,3.881,0,0,0-.32,1.154v.03C1877.242,2691.382,1877.231,2691.577,1877.222,2691.709Z"/><path class="ai" d="M1936,2691.709c0,.176-9.882-2.765-17.294.529,0,0-3.47-4.47,3.295-5.706C1922,2686.532,1936.06,2684.768,1936,2691.709Z"/><path class="aj" d="M1936,2691.709l-.172-.076a21.808,21.808,0,0,0-5.706-1.426c-3.129-.306-5.186-.507-7.617.117a3.572,3.572,0,0,1-2.85-.06,1.857,1.857,0,0,1-.882-1.53c.047-.856,1.043-1.663,2.526-2.027a16.336,16.336,0,0,1,2.169-.392c.064-.007.683-.076,1.362-.1a24.814,24.814,0,0,1,5.288.466c2.286.489,3.674.977,4.726,2.041a3.6,3.6,0,0,1,.808,1.22,3.912,3.912,0,0,1,.32,1.154v.03C1935.982,2691.382,1935.993,2691.577,1936,2691.709Z"/><circle class="ak" cx="9.451" cy="9.451" r="9.451" transform="translate(1872.729 2705.948)"/><circle class="ak" cx="9.451" cy="9.451" r="9.451" transform="translate(1922.841 2705.237)"/><path class="al" d="M1935.059,2697.685h-19.691a1.691,1.691,0,0,0-1.789,1.576v6.083a5.152,5.152,0,0,0,1.267,2.694c1.833,2,4.914,2.036,10.417,2.029,5.463,0,8.5-.049,10.318-2.029a5.163,5.163,0,0,0,1.267-2.694v-6.083A1.691,1.691,0,0,0,1935.059,2697.685Z"/><path class="am" d="M1897.66,2696.606h-19.691a1.692,1.692,0,0,0-1.79,1.576v6.083a5.154,5.154,0,0,0,1.268,2.694c1.833,2,4.914,2.036,10.416,2.029,5.463-.005,8.5-.049,10.319-2.029a5.158,5.158,0,0,0,1.267-2.694v-6.083A1.692,1.692,0,0,0,1897.66,2696.606Z"/><path class="am" d="M1935.059,2697.685h-19.691a1.691,1.691,0,0,0-1.789,1.576v6.083a5.152,5.152,0,0,0,1.267,2.694c1.833,2,4.914,2.036,10.417,2.029,5.463,0,8.5-.049,10.318-2.029a5.163,5.163,0,0,0,1.267-2.694v-6.083A1.691,1.691,0,0,0,1935.059,2697.685Z"/><path class="an" d="M1900.973,2695.113v-.1h-.109C1900.9,2695.044,1900.938,2695.077,1900.973,2695.113Z"/><path class="an" d="M1874.764,2695.011Z"/><path class="ao" d="M1913.579,2699.261a1.691,1.691,0,0,1,1.789-1.576h19.691a1.691,1.691,0,0,1,1.789,1.576h0a1.691,1.691,0,0,0-1.789-1.576h-7.876l.141-.056c1.443-.569,2.893-1.123,4.353-1.647.407-.146.819-.285,1.23-.427h-19.34a2.119,2.119,0,0,0-2.118,2.118v1.256h-9.87v2.118h9.87v3.07q1.062-.45,2.13-.884Z"/><path class="ao" d="M1938.5,2699.517v-1.832h.459v-.012a2.118,2.118,0,0,0-2.118-2.118h-3.953c-.411.142-.823.281-1.231.427-1.46.524-2.909,1.078-4.353,1.647l-.141.056h7.877a1.691,1.691,0,0,1,1.789,1.576h0v6.083a5.162,5.162,0,0,1-1.267,2.694c-1.816,1.98-4.856,2.024-10.319,2.029-5.5.007-8.583-.029-10.416-2.029a5.145,5.145,0,0,1-1.267-2.694v-2.111q-1.068.434-2.13.884v1.732a7.385,7.385,0,0,0,1.5,3.62c2.166,2.686,5.811,2.735,12.323,2.728,6.463-.01,10.059-.069,12.206-2.728a7.037,7.037,0,0,0,1.347-2.814c.069-.289.117-.56.153-.806v-6.332Z"/><path class="ao" d="M1938.512,2699.532V2697.7h.459v-.013a2.118,2.118,0,0,0-2.118-2.117H1932.9c-.411.142-.823.28-1.23.427-1.461.524-2.91,1.078-4.354,1.646l-.141.057h7.877a1.691,1.691,0,0,1,1.789,1.576h0v6.083a5.159,5.159,0,0,1-1.267,2.693c-1.816,1.981-4.855,2.025-10.319,2.03-5.5.007-8.583-.03-10.416-2.03a5.138,5.138,0,0,1-1.267-2.693v-2.112q-1.068.435-2.13.884v1.733a7.384,7.384,0,0,0,1.5,3.62c2.166,2.686,5.811,2.735,12.323,2.728,6.463-.01,10.059-.069,12.206-2.728a7.026,7.026,0,0,0,1.347-2.815c.069-.288.117-.56.153-.8v-6.332Z"/><path class="ao" d="M1876.179,2702.154v-3.972a1.692,1.692,0,0,1,1.79-1.576h19.691a1.692,1.692,0,0,1,1.789,1.576h0a1.692,1.692,0,0,0-1.789-1.576h-7.877l.141-.056c1.444-.569,2.893-1.123,4.353-1.647.408-.146.82-.285,1.231-.427h-19.341a2.1,2.1,0,0,0-1.4.535h0a2.11,2.11,0,0,0-.714,1.583v1.228h-9.236a.916.916,0,0,0,0,1.832h9.236v3.384Q1875.112,2702.588,1876.179,2702.154Z"/><path class="ao" d="M1901.579,2696.594h0a2.11,2.11,0,0,0-.606-1.481c-.035-.036-.072-.069-.109-.1a2.105,2.105,0,0,0-1.4-.535h-3.953c-.411.142-.823.281-1.231.427-1.46.524-2.909,1.078-4.353,1.647l-.141.056h7.877a1.692,1.692,0,0,1,1.789,1.576h0v6.083a5.158,5.158,0,0,1-1.267,2.694c-1.817,1.98-4.856,2.024-10.319,2.029-5.5.008-8.583-.029-10.416-2.029a5.154,5.154,0,0,1-1.268-2.694v-2.111q-1.068.434-2.129.884v1.732a7.384,7.384,0,0,0,1.5,3.62c2.166,2.686,5.811,2.735,12.323,2.728,6.463-.01,10.059-.069,12.206-2.728a7.378,7.378,0,0,0,1.5-3.62v-8.176Z"/><path class="ao" d="M1947.755,2697.685h-9.236v1.832h9.236a.916.916,0,1,0,0-1.832Z"/><circle class="ap" cx="2.971" cy="2.971" r="2.971" transform="translate(1884.471 2699.362)"/><circle class="ap" cx="2.971" cy="2.971" r="2.971" transform="translate(1922.155 2700.285)"/><path class="aq" d="M1904.995,2670.744"/><path class="a" d="M1978.053,2704.8"/><path class="aq" d="M1958.433,2676.651c-3.456-8.5-5.94-14.616-11.892-20.615-13.434-13.539-34.191-16.073-39.6-16.563-5.414.49-26.171,3.024-39.6,16.563-5.953,6-8.437,12.112-11.892,20.615-.785,1.933-1.751,4.635-.461,6.208,1.391,1.7,4.613,1.115,5.416.951l.776-.21a3.894,3.894,0,0,0,1.481,3.339,3.235,3.235,0,0,0,.294.189,125.453,125.453,0,0,1,87.982,0,3.235,3.235,0,0,0,.294-.189,3.894,3.894,0,0,0,1.481-3.339l.776.21c.8.164,4.025.747,5.416-.951C1960.183,2681.286,1959.218,2678.584,1958.433,2676.651Z"/><path class="ar" d="M1952.7,2683.6a120.818,120.818,0,0,0-44.833-9.489H1906a120.818,120.818,0,0,0-44.833,9.489"/><path class="a" d="M1950.851,2687.128c-.014-.024-.126.007-.145,0-20.541-8.12-42.752-7.925-42.752-7.925l-.294-.015v.015h-1.449v-.015l-.294.015s-22.21-.195-42.751,7.925c-.019.007-.131-.024-.145,0-.375.628,5.626,4.858,11.259,3.4,0,0,12.416-2.759,31.637-3.116.1,0,.2,0,.294.006v-.006h1.449v.006c.1,0,.2-.005.294-.006,19.222.357,31.637,3.116,31.637,3.116C1945.224,2691.986,1951.226,2687.756,1950.851,2687.128Z"/><path class="b" d="M1866.183,2836.446"/><path class="as" d="M1820.917,2778.645a2.537,2.537,0,0,1-.4-1.412c0-.107.01-.186.012-.2a12.85,12.85,0,0,0-.311-4.074,17,17,0,0,0-.915-2.5s.366,1.276.522,2.171a9.339,9.339,0,0,1,.081,2.564,5.175,5.175,0,0,1-.374,1.465c-.126.291-1.717,4.81-5.772,7.038-3.157,1.734-6.208,1.22-11.474.335a42.924,42.924,0,0,1-8.874-2.5c2.315,1.241,4.249,2.166,5.579,2.778,6.27,2.885,8.857,3.3,10.066,5.506a38.649,38.649,0,0,0,2.285,3.134c1.05,1.34,1.589,1.331,3.149.733,2.54-.973,4.559-2.747,6.812-4.161a19.225,19.225,0,0,0,3.212-3.056,1.941,1.941,0,0,0,.654-2.3A41.979,41.979,0,0,1,1820.917,2778.645Z"/><path class="as" d="M1803.707,2761.972a23.136,23.136,0,0,0-3.637.43c-1.9.676-4.211,3.032-5.147,11.042.838,1.32,2.111,3.285,3.729,5.637,2.9,4.2,5.7,5.925,5.225,6.743-.216.37-.981.248-.979.267a24.011,24.011,0,0,0,8.181-1.118,14.235,14.235,0,0,0,4.336-1.823,10.787,10.787,0,0,0,3.792-4.638,11.068,11.068,0,0,0,1.057-4.365c-.011-1.126-.437-2.2-.485-3.32-.053-1.26.484-2.46.412-3.723a14.043,14.043,0,0,0-.511-2.894c-.344-1.256-1.126-4.089-2.832-4.095a1.291,1.291,0,0,0-.38.057,4.02,4.02,0,0,0-2.1.2,28.5,28.5,0,0,1-3.11.735C1810.143,2761.3,1808,2761.527,1803.707,2761.972Z"/><path class="as" d="M1818.043,2766.335c.084-.7-.217-.747-.133-1.487.121-1.071.742-1.545.471-2.228a.588.588,0,0,0-.095-.158c-.06-.085-.224-.36-.244-.4a8.262,8.262,0,0,1-.421-1.77h0c.037-1.026.109-2.526.259-4.334.528-6.355,1.481-9.924-.315-11.588a2.7,2.7,0,0,0-.976-.576,3.964,3.964,0,0,0-4.178,1.706,4.515,4.515,0,0,0-.442.923,17.5,17.5,0,0,0-1.2,5.782,40.332,40.332,0,0,0,.4,9.418c-.491-.08-1.081-.161-1.753-.219-1.39-.12-6-.515-6.374.467-.667,1.752,11.849,8.746,13.966,6.626A3.949,3.949,0,0,0,1818.043,2766.335Z"/><path class="ah" d="M1801.87,2762.051a23.3,23.3,0,0,0-3.637.43c-1.9.677-4.211,3.032-5.148,11.042.42.66.947,1.481,1.573,2.432,1.274,1.936,1.909,2.905,2.157,3.2,2.377,2.877,5.615,3.484,5.4,4.337-.082.318-.7.216-.786.568-.138.575,1.284,1.63,2.821,1.87a4.541,4.541,0,0,0,1.213.022,20.685,20.685,0,0,0,6.34-1.258,11.269,11.269,0,0,0,3.474-1.942,10.223,10.223,0,0,0,3.129-9.339,11.339,11.339,0,0,1-.522-2.8c.053-1.179.524-2.285.677-3.448a10.078,10.078,0,0,0-.087-2.769c-.253-1.669-.9-3.861-2.615-4.582-1.3-.547-1.686.514-6.438,1.369C1808.306,2761.384,1806.16,2761.607,1801.87,2762.051Z"/><path class="ah" d="M1817.153,2767.211a5.211,5.211,0,0,0-.134-1.487c-.089-.819-.231-2.018-.454-3.77t1.069-13.642c.342-1.9-.162-3.717-1.2-4.487-1.425-1.053-3.817-.113-4.911,2.555-.235.573-1.289,2-1.645,6.706a40.327,40.327,0,0,0,.4,9.417c-.491-.08-1.082-.16-1.754-.218-1.694-.146-5.97-.513-6.374.467-.722,1.749,10.406,9.019,13.4,6.844A4,4,0,0,0,1817.153,2767.211Z"/><path class="as" d="M1798.833,2760.659a20.952,20.952,0,0,0-1.482,1.757,22.346,22.346,0,0,0-4.173,10.292c.755,1.265,1.9,3.151,3.355,5.409,3.143,4.88,4.015,5.987,4.681,6.509.046.036.085.065.121.09.016.012.086.061.175.119,2.412,1.556,6.042,1.209,8.547-.2a4.128,4.128,0,0,0,1.134-.819c1.372-1.474,1.07-3.693.955-4.361a5.888,5.888,0,0,0,.985-3.53,22.123,22.123,0,0,0-.866-3.252s.143-1.56.149-2.223a6.472,6.472,0,0,0-1.178-3.595,5.427,5.427,0,0,0,.347-3.085,4.216,4.216,0,0,0-1.1-2.376c-1.31-1.208-3.193-.423-6.8-.363A26.384,26.384,0,0,1,1798.833,2760.659Z"/><path class="ah" d="M1794.11,2785.243a22.3,22.3,0,0,0,15.382-.7,6.019,6.019,0,0,0,1.016-3.554,5.653,5.653,0,0,0-.345-1.7,48.535,48.535,0,0,1-7.549,1.024,18.81,18.81,0,0,1-3.509-.264c-.325-.051-1.055-.165-1.049-.248a4.827,4.827,0,0,1,1.459-.1,36.318,36.318,0,0,0,6.38-.4c.691-.113,1.692-.363,3.695-.864a2.753,2.753,0,0,0,1.115-.385c1.315-1.027-.08-4.732-.08-4.732h0c-.008,0-2.679.383-3.99.548,0,0-8.706,1.094-10.064-.482a.126.126,0,0,1-.039-.1.122.122,0,0,1,.075-.071c.169-.077,5.56.223,8.113-.044,1.655-.174,4.646-.855,5.632-1.074l.007,0a11.5,11.5,0,0,0,.318-1.693,3.707,3.707,0,0,0-1.1-3.126l-.188-.087c-3.189.13-5.821.147-7.733.134-3.111-.021-5.574-.131-5.679-.759a.3.3,0,0,1,.02-.157c2.518.05,4.69.07,6.443.076,2.7.01,4.354-.012,6.125-.073.376-.013.687-.026.9-.035a5.812,5.812,0,0,0,.534-2.746,3.312,3.312,0,0,0-2.181-2.964c-2.177-.147-4.544-.218-7.075-.167-2.3.046-4.454.188-6.451.389a8.429,8.429,0,0,0-2.549,2.678c-.976,1.663-.329,1.99-1.49,4.913a12.263,12.263,0,0,0-1.05,3.8,4.593,4.593,0,0,0,.029,1.119,11.61,11.61,0,0,0,.926,2.334,6.074,6.074,0,0,1,.405,1.21c.3,1.575-.263,2.211.389,3.322.5.856,1.081.9,1.551,1.428a1.743,1.743,0,0,1,.341.533c.3.662.115,1.1.226,1.635A2.268,2.268,0,0,0,1794.11,2785.243Z"/><path class="b" d="M1857.546,2789.314"/><path class="b" d="M1863.3,2820.431a66.054,66.054,0,0,0-6.878-10.525,3.14,3.14,0,0,1-1.745-.533,3.045,3.045,0,0,1-.615-.637.362.362,0,0,1-.216-.1,3.151,3.151,0,0,0-.408-.4,2.02,2.02,0,0,0-.336-.2.844.844,0,0,0,.116.2c1.361,1.73,2.58,3.56,3.818,5.378a59.05,59.05,0,0,1,5.429,9.408,6.129,6.129,0,0,1,.441,3.473,10.274,10.274,0,0,1-11.547,8.348c-3.484-.572-6.2-2.562-8.762-4.819-3.125-2.75-5.777-5.976-8.846-8.783a7.157,7.157,0,0,1-.632-.746c-2.419-2.916-5.117-5.58-7.634-8.409-2.679-3.012-5.3-6.073-7.925-9.128-.919-1.07-1.3-1.673-.115-2.978.769-.85.562-1.6-.371-2.271a7.271,7.271,0,0,0-1.549-.717,5.894,5.894,0,0,1-1.833-.862c.218-.494.663-.551,1-.737a24.827,24.827,0,0,0,10.732-10.851,3.9,3.9,0,0,0,.624-1.83c-.606-1.334-1.685-.982-2.726-.767-.268.679-.114,1.451-.515,2.111a28.584,28.584,0,0,1-8.116,8.624,1.879,1.879,0,0,1-2.462-.1c-.611-.476-1.135-1.047-1.716-1.555-.36-.316-.68-.723-1.244-.66-.742.572-1.86.946-1.2,2.262.32.74,1.34.833,1.546,1.678a39.178,39.178,0,0,0,4.15,6.674c1.462,1.99,2.879,4.021,4.453,5.92,1.993,2.405,3.945,4.843,5.966,7.227,2.992,3.529,5.94,7.094,9.052,10.521,1.555,1.714,3.051,3.482,4.568,5.23,1.81,2.087,3.485,4.31,5.453,6.235a19.906,19.906,0,0,0,9.647,5.127,11.626,11.626,0,0,0,10.07-2.269,21.774,21.774,0,0,0,5.3-6.456A63.99,63.99,0,0,0,1863.3,2820.431Z"/><path class="c" d="M1863.125,2823.831a23.55,23.55,0,0,0-2.448-5.13c-1.33-2.209-2.744-4.37-4.177-6.515a36.633,36.633,0,0,0-2.451-3.452.351.351,0,0,1-.2-.1,3.151,3.151,0,0,0-.408-.4,1.924,1.924,0,0,0-.389-.228l.02.009a.415.415,0,0,1-.207-.163.327.327,0,0,1-.047-.188,1.76,1.76,0,0,1-.807-.305,135.967,135.967,0,0,1-10.9-8.336c-3.216-2.574-6.083-5.52-9.089-8.319a29.869,29.869,0,0,1-4.966-6.1c-.382-.612-.277-1.475-1.005-1.9a2.544,2.544,0,0,0-.453.572,21.884,21.884,0,0,1-5.656,7.974,23.779,23.779,0,0,1-6.319,4.25c-.281.13-.724.073-.656.539a.905.905,0,0,0,.673.646c.868.318,1.745.616,2.607.948,1.641.633,1.815,1.289.591,2.546a1.442,1.442,0,0,0-.2,2.122,58.871,58.871,0,0,0,3.847,4.692c2.431,2.925,5.022,5.724,7.561,8.559,3.6,4.021,7.407,7.861,11.188,11.716a53.245,53.245,0,0,0,5.254,4.735c3.3,2.57,6.891,4.012,11.054,2.955a10.13,10.13,0,0,0,6.992-6.051A7.176,7.176,0,0,0,1863.125,2823.831Z"/></g></svg>