<svg xmlns="http://www.w3.org/2000/svg" width="169.496" height="233.497" viewBox="0 0 169.496 233.497"><defs><style>.a{fill:#bababa;}.al,.b{fill:#ec9f67;}.c{fill:#e0e0df;}.d{fill:#6aa2bd;}.e{fill:#85b6cf;}.f{fill:#e4d9d1;}.g{fill:#f3b88e;}.h{fill:#6391a3;}.i{fill:#84b6cf;}.j{fill:#f4b98e;}.k{fill:#eb9e68;}.l{fill:#ec9f68;}.m{fill:#6ba2bd;}.n{fill:#dfdfde;}.o{fill:#bab9b9;}.p{fill:#bababb;}.q{fill:#e2d7d0;}.r{fill:#f5e8e1;}.s{fill:#e3d8cf;}.t{fill:#c6bab2;}.u{fill:#f2e2d7;}.v{fill:#e3d3c7;}.w{fill:#eaa370;}.x{fill:#eca06a;}.y{fill:#c6b9b1;}.z{fill:#70a5b7;}.aa{fill:#fcfcfc;}.ab{fill:#f3e5db;}.ac{fill:#dfd1c6;}.ad{fill:#c4b5aa;}.ae{fill:#af322f;}.af{fill:#eca570;}.ag{fill:#f6f5f5;}.ah{fill:#e0dfde;}.ai{fill:#f4b98d;}.aj{fill:#b8bab9;}.ak{fill:#dfdfdf;}.al{opacity:0.46;}.am,.as{fill:none;}.an{fill:#c98456;}.ao{fill:#933535;}.ap{fill:#73625b;}.aq{fill:#3f3e42;}.ar{fill:#775623;}.as{stroke:#5f411c;stroke-linecap:round;stroke-miterlimit:10;stroke-width:1.978px;}.at{fill:#2c1f15;}</style></defs><g transform="translate(-1470.871 -2639.473)"><path class="a" d="M1605.044,2722.82q.383-2.867.764-5.734c.856,1.418,1.469,3.055,3.381,3.619C1607.891,2721.736,1606.689,2722.7,1605.044,2722.82Z"/><path class="b" d="M1610.21,2703.345a16.2,16.2,0,0,1-1.984,3.925,10.322,10.322,0,0,0-1.32,2.334c-.139.385-.473.875-.995.742-.425-.107-.505-.6-.6-1a1.374,1.374,0,0,1-.017-.368c.15-3.034-.362-6.048-.26-9.08.845-.412,1.769-.739,1.958-1.849a1.5,1.5,0,0,1,2,.575,10.8,10.8,0,0,1-1.108,4.369Z"/><path class="c" d="M1599.259,2660.3c-.048-.055-.1-.112-.142-.168-.053.019-.1.042-.157.061a.6.6,0,0,0-.462.514,1.135,1.135,0,0,0,.551.925,8.481,8.481,0,0,0,3.506,1.47A14.137,14.137,0,0,1,1599.259,2660.3Z"/><path class="c" d="M1609.335,2687.317c2.136-3.669,2.373-4.835,2.048-5.1-.175-.142-.455.081-1.68.316-.732.141-1.457.293-2.18.47a4.336,4.336,0,0,1-.936,1.058,1.763,1.763,0,0,0-.237,2.789,5.216,5.216,0,0,0,.645.744,5.548,5.548,0,0,1,1.9,5.407c-.178,1.783-.217,3.578-.383,5.365-.289.94-.262,1.941-.571,2.875-.623,1.889-.576,1.968,1.407,2.206.2.022.408.022.613.024.408.023.808.127,1.214.161.835.072,1.854.749,2.405-.4.534-1.107-.366-1.666-1.08-2.309-1.84-1.654-1.837-5.226-.042-6.455.551-1.657.289-2.544-.03-3.043-.579-.907-1.575-.886-2.373-1.958A3.941,3.941,0,0,1,1609.335,2687.317Z"/><path class="d" d="M1533.716,2872.913c-1.931.012-3.863,0-5.793.05-.712.018-.9-.224-.881-.923a45.529,45.529,0,0,1,1.228-8.238c.921-4.3,1.957-8.582,2.944-12.871.918-3.991.384-8,.189-12.013-.014-.286-.107-.571-.1-.855.158-5.553-.392-11.084-.533-16.628-.185-7.268-.472-14.533-.785-21.8-.054-1.268-.189-2.537-.2-3.81-.007-.63-.22-.784-.84-.5-3.839,1.749-7.675,3.507-11.548,5.179-3.5,1.51-7.042,2.9-10.568,4.341-4.076,1.661-8.218,3.1-12.408,4.423-3.879,1.224-7.847,2.208-11.915,1.622a11.729,11.729,0,0,1-8.663-5.778,20.076,20.076,0,0,1-2.967-10.612c.037-2.777.5-5.547.76-8.321.222-2.324.473-4.647.642-6.975.338-4.657.891-9.291,1.387-13.932.335-3.134.759-6.256,1.128-9.384.293-2.471.79-4.919,1.227-7.372a39.5,39.5,0,0,1,1.987-7.674c.474-.738-.168-1.548.15-2.3.5-1.4,1.551-.844,2.485-.7.438.369.364.886.384,1.368.032.778-.02,1.558.057,2.336a1.9,1.9,0,0,0,1.637,1.87,28.832,28.832,0,0,0,11.946-.071c.761-.167,1.217-.816,1.9-1.093.881.611,1.889,1.154,1.336,2.525a3.956,3.956,0,0,1-1.771.818,25.049,25.049,0,0,1-15.391-.29c-.374-.12-.725-.405-1.238-.221a5.985,5.985,0,0,0,.646,1.939,7.356,7.356,0,0,1,.554,1.63c.158,1.149-.245,1.821-1.4,1.851-1.774.045-1.953.74-2.094,2.155-.405,4.044-.818,8.087-1.154,12.139-.316,3.807-.384,7.631-.831,11.427a7.055,7.055,0,0,0-.1.98c.085,4.194-.426,8.376-.261,12.572.136,3.443.57,6.809,2.576,9.752a10.363,10.363,0,0,0,14.131,2.627,6.2,6.2,0,0,0,2.23-2.739,59.743,59.743,0,0,0,3.095-10.511c.466-2.169.954-4.332,1.271-6.53a.883.883,0,0,1,.287-.532,3.353,3.353,0,0,1,1.695-1.314q11.352-6.078,22.71-12.142c1.958-1.045,3.874-2.183,5.888-3.1a24.913,24.913,0,0,1,7.342-1.66,123.313,123.313,0,0,1,13.7-1.028c.309.5-.077.861-.284,1.232a45.079,45.079,0,0,0-4.946,13.993,10.222,10.222,0,0,0-.2,4.64c.086.3.1.738.505.757s.461-.417.553-.712a11.416,11.416,0,0,1,2.548-4.033c1.879-2.151,4.115-2.084,5.918.182a16.873,16.873,0,0,1,2.879,6.349c.489,1.832.507,3.741.9,5.589.121.561.186,1.225.891,1.33.727.11.936-.546,1.2-1.044a28.718,28.718,0,0,1,9.84-10.639,4.09,4.09,0,0,1,4.83.026,27.517,27.517,0,0,1,4.889,3.723c.347.344.77.645.7,1.229-.833,1.587-2.356,2.494-3.624,3.644a143.993,143.993,0,0,1-13.038,10.344c-4.711,3.371-9.527,6.609-14.509,9.583-2.259,1.349-4.489,2.747-6.746,4.1-2.673,1.6-3.741,4.251-4.631,7.036a21.317,21.317,0,0,0-.921,7.419,1.313,1.313,0,0,0,1.146,1.449,41.889,41.889,0,0,0,4.5.723c3.821.549,7.68.689,11.536.868,3.2.148,6.4.336,9.607.223,6.358-.225,12.716-.406,19.067-.886q6.754-.51,13.5-1.136c3.386-.32,6.778-.705,10.137-1.3.743-.131,1.015-.469.947-1.259-.456-5.32-.815-10.649-1.185-15.974-.425-6.1-1.194-12.187-1.115-18.327a51.021,51.021,0,0,1,1.129-8.168,54.034,54.034,0,0,1,2.026-8.89c.231-.647.386-1.593,1.193-1.5.915.1,1.021,1.1,1.035,1.875.057,3.083-.008,6.157-.249,9.241-.394,5.024-.962,10.022-.335,15.12.616,5.006.9,10.062,1.6,15.067a32.234,32.234,0,0,0,1.964,7.47,100.61,100.61,0,0,1,3.706,12.531c1.544,6.142,3.018,12.3,4.6,18.434,1.559,6.052,2.927,12.148,4.436,18.211a2.133,2.133,0,0,1-.006,1.79c-.246.013-.492.034-.738.036-1.6.014-1.672-.112-1.95-1.655q-.858-4.749-2-9.443c-.633-2.609-1.117-5.254-1.7-7.875-.541-2.422-1.126-4.835-1.7-7.251-.75-3.176-1.454-6.363-2.273-9.52-.747-2.876-1.594-5.727-2.449-8.572-.516-1.714-1.142-3.4-1.7-5.1a2.2,2.2,0,0,0-.713-1.014c0,.763-.057,1.43.011,2.084a47.117,47.117,0,0,1,.167,4.928c-.016,7.934.405,15.858.6,23.786.12,4.916.279,9.849.681,14.76.107,1.311.185,2.618.221,3.933.022.788-.27,1.011-1,.948-.654-.057-1.314-.035-1.971-.047a2,2,0,0,1-.383-1.512c-.018-1.193-.006-2.387-.008-3.58,0-.69-.328-.971-1-.907-.287.027-.572.059-.855.112-6.47,1.2-13,1.83-19.555,2.411-8.178.724-16.356.388-24.531.377-3.723,0-7.458-.45-11.184-.767-5.53-.47-11.028-1.159-16.511-1.993-.846-.129-1.116.247-1.115,1.014,0,1.111.01,2.222-.008,3.333A2,2,0,0,1,1533.716,2872.913Z"/><path class="e" d="M1625.76,2872.913c-1.074-4.649-2.083-9.315-3.246-13.942-.655-2.6-1.352-5.2-2.011-7.806-.891-3.519-1.743-7.051-2.623-10.575-.7-2.812-1.4-5.627-2.127-8.433a84.067,84.067,0,0,0-3.093-10.173,24.758,24.758,0,0,1-1.692-5.808c-.34-2.465-.733-4.925-.971-7.4-.293-3.05-.657-6.091-.811-9.159-.112-2.24-.622-4.476-.421-6.727.322-3.62.508-7.251.884-10.87a71.823,71.823,0,0,0,.063-7.4.97.97,0,0,0-.137-.467c-.178-.3-.2-.861-.617-.794-.259.042-.544.493-.653.816a55.406,55.406,0,0,0-1.765,7.243c-.494,2.561-.951,5.133-1.318,7.715a43.7,43.7,0,0,0-.083,8.358c.069,1.382.339,2.751.41,4.143.2,3.795.482,7.582.916,11.36.2,1.745.012,3.52.3,5.273.453,2.789.106,5.646.688,8.426.1.488-.008.745-.577.83-4.115.611-8.245,1.077-12.384,1.515-4.344.46-8.7.729-13.048,1.163-1.382.139-2.773.232-4.161.268-6.476.167-12.95.813-19.425.453-4.565-.254-9.148-.184-13.7-.869-2.373-.358-4.769-.58-7.134-1.037-.516-.1-.8-.168-.836-.779a22.349,22.349,0,0,1,2.667-12.532,8.175,8.175,0,0,1,2.9-3.053c3.855-2.36,7.752-4.652,11.57-7.07,2.8-1.774,5.54-3.652,8.239-5.578,3.127-2.232,6.29-4.435,9.234-6.894,3.1-2.591,6.39-5,9.081-8.062.549-.151.821.281,1.142.568q1.152,1.026,2.335,2.014c1.023.852,1.493.717,1.963-.552a26.56,26.56,0,0,0,.838-3.345c.559-2.441,1.158-4.876,1.618-7.34a2.6,2.6,0,0,1,.475-1.127,32.459,32.459,0,0,0,5.656-11.094c.07-.266.081-.593.479-.606,1.322.516,2.732.253,4.1.44,3.634.5,7.3.733,10.852,1.758a9.314,9.314,0,0,1,3.347,1.95c3.656,3.049,5.89,7.132,8.152,11.2a74.434,74.434,0,0,1,5.027,11.857c1.2,3.46,2.284,6.965,3.353,10.47.985,3.227,1.939,6.465,2.805,9.725s1.545,6.583,2.427,9.844c.737,2.721,1.215,5.492,1.778,8.244.595,2.915,1,5.873,1.389,8.825.492,3.726.891,7.464,1.289,11.2.513,4.809.807,9.629,1.139,14.447a84.687,84.687,0,0,1,.309,8.494c-.021.669-.179.942-.9.936C1634.884,2872.925,1630.322,2872.926,1625.76,2872.913Z"/><path class="e" d="M1498.443,2781.849a24.168,24.168,0,0,1-.887,5.677c-.57,2.539-1.165,5.076-1.853,7.585a23.767,23.767,0,0,1-2.044,5.356,7.24,7.24,0,0,1-4.123,3.108,10.217,10.217,0,0,1-9.285-.9c-3.667-2.3-5.115-5.934-5.531-10.13a53.653,53.653,0,0,1-.2-7.131c.185-5.444.342-10.9.774-16.323.3-3.827.546-7.667.991-11.477a59.381,59.381,0,0,1,.751-6.075,1.454,1.454,0,0,1,1.687-1.332c1.769.019,2.128-.564,1.448-2.2-.357-.862-.75-1.709-1.121-2.565a.911.911,0,0,1,0-.94c.293-.374.559-.011.849.1a24,24,0,0,0,7.5,1.659,22.1,22.1,0,0,0,9.759-1.417,2.547,2.547,0,0,1,.733-.067c.2.825-.5,1.349-.685,2.053a30.109,30.109,0,0,0-1,7.868c.047,4.142-.111,8.286.247,12.426a136.783,136.783,0,0,0,1.492,13.757A1.644,1.644,0,0,0,1498.443,2781.849Z"/><path class="f" d="M1606.034,2715.2c-.569-1.263-.066-2.7-.658-4.049a5.479,5.479,0,0,0-.183.517,97.782,97.782,0,0,1-3.74,11.861,22.725,22.725,0,0,1-6.939,10.028,5.02,5.02,0,0,1-7.125-.451,19.138,19.138,0,0,1-3.35-6.6.768.768,0,0,0-1.145-.335c-.226.235-.09.441.052.646.339.328.869.532.753,1.155-.11.834-.35,1.646-.437,2.485a8.181,8.181,0,0,1-.443,2.4,18.026,18.026,0,0,1-3.2,7.268,6.387,6.387,0,0,1-2.978,2.509c-2.319.856-4.166.841-5.394-1.481a1.71,1.71,0,0,0-1.647-.1,9.494,9.494,0,0,1-5.328.014,3.259,3.259,0,0,0-1.34-.106c-.626.193-.976.736-1.439,1.133a3.585,3.585,0,0,1-2.535,1.108,5.978,5.978,0,0,1-5.406-3.284,18.141,18.141,0,0,1-1.987-8.436,2.512,2.512,0,0,0-.137-.744c-.4-.541-.316-1.337-.927-1.767-.82,1.4-1.554,2.851-2.477,4.175-1.625,2.331-3.7,4.023-6.778,3.471a10.9,10.9,0,0,1-5.893-3.09c-3.609-3.689-5.576-8.276-6.86-13.225-.314-1.21-.178-2.542-.918-3.641-.664.936-.366,1.979-.283,2.977.1,1.226.265,2.448.4,3.673a29.911,29.911,0,0,0,2.327,9.867,14.514,14.514,0,0,0,.941,1.933c2.386,3.52,4.865,6.931,8.415,9.455a25.368,25.368,0,0,0,12.192,4.933c.71.074,1.465.1,1.918.849,1.046,1.73,2.4,2.314,3.073,3.109,1.747,2.063,4.663,2.255,9.335,2.562a19.605,19.605,0,0,0,7.014-.609,12.908,12.908,0,0,0,4.308-2.509,2.681,2.681,0,0,0,.9-1.422c.88-.422.871-1.674,1.894-1.986a37.432,37.432,0,0,0,8.163-3.224,35.725,35.725,0,0,0,8.432-6.418,34.493,34.493,0,0,0,5-6.929,37.437,37.437,0,0,0,3.446-10.1,10.478,10.478,0,0,0,.764-5.734A4.439,4.439,0,0,1,1606.034,2715.2Z"/><path class="g" d="M1480.719,2735.674a16.563,16.563,0,0,1-5.2-7.016,16.117,16.117,0,0,1-1.228-3.641c.471-.738,1.05-.467,1.593-.134a11.206,11.206,0,0,1,2.606,2.429c2.709,3.2,6.288,5.1,10.031,6.749,1.057.465,1.472.247,1.677-.832a4.488,4.488,0,0,1,.889-1.863,32.995,32.995,0,0,1,4.966-5.622c.492-.419.936-.845,1.61-.361.391.281.466-.5.836-.221-2.532-1.918-5.284-3.476-7.921-5.21a16.029,16.029,0,0,1-4.708-4.286c-.337-.5-.125.1-.205.146-.505.273-.682-.13-.856-.413a11.907,11.907,0,0,0-1.527-2.374c2.51,4.245,4.994,8.506,7.845,12.538a9.156,9.156,0,0,1,.627.915,2.407,2.407,0,0,1-.224,2.76,2.364,2.364,0,0,1-2.756.225,9.373,9.373,0,0,1-2.267-1.886c-2.828-3.147-5.728-6.231-8.275-9.622,2.027,2.526,3.848,5.212,6.006,7.631a17.538,17.538,0,0,1,1.8,2.345c.487.779.234,1.2-.675,1.345-1.775.294-3.074-.648-4.348-1.648a41.26,41.26,0,0,1-4.566-4.314,8.723,8.723,0,0,0-2.292-2.029c-.488-.246-.6-.758-.852-1.168a10.865,10.865,0,0,1,2.778-4.931,81.372,81.372,0,0,1,9.086-7.834c2.256-1.728,4.685-1.552,7.271-.7.108-1.7.325-3.327.293-4.946-.091-4.647.379-9.269.527-13.905a2.581,2.581,0,0,1,2.207-2.548c1.44-.107,2.208.569,2.507,2.22a7.5,7.5,0,0,1,.192,1.331c-.027,6.33.456,12.654.255,18.985a8.257,8.257,0,0,0,3.009,6.818c.348.305.9.455.974,1.03-1.234.679-2.433.144-3.538-.272a12.417,12.417,0,0,1-4.237-2.7,5.538,5.538,0,0,1-1.733-3.047c-.257-1.374-.467-1.536-1.894-1.535-.558,0-1.313-.414-1.627.056-.331.5.384.988.613,1.494.264.584.9,1.214.463,1.794-.484.648-1.3.245-1.953.046a4.386,4.386,0,0,0-1.471-.157c2.081.064,3.773,1.146,5.5,2.106a35.475,35.475,0,0,0,5.534,2.692c1.477.511,3.041.967,4.341-.484.7.059.907.808,1.477,1.048a7.424,7.424,0,0,1,.488,4.709,17.535,17.535,0,0,1-5.465,10.265,16.4,16.4,0,0,1-11.358,4.349c-1.768-.027-3.536,0-5.3-.01A2.051,2.051,0,0,1,1480.719,2735.674Z"/><path class="h" d="M1588.494,2775.4a46.476,46.476,0,0,0-1.445,5.78c-.564,2.08-.965,4.2-1.514,6.289-.325,1.235-1.158,1.441-2.127.617-1.182-1.006-2.356-2.023-3.534-3.035a23.72,23.72,0,0,0-6.473-4.965,3.253,3.253,0,0,0-3.468.3,28.667,28.667,0,0,0-6.764,5.989,21.371,21.371,0,0,0-3.385,5.206,1.166,1.166,0,0,1-1.238.839,1.466,1.466,0,0,1-1.141-1.284c-.432-1.955-.471-3.967-.954-5.918a15.193,15.193,0,0,0-3.109-6.677c-1.7-1.917-3.713-1.753-5.275.246a10.8,10.8,0,0,0-2.549,4.532.608.608,0,0,1-.643.471.6.6,0,0,1-.64-.472,6.454,6.454,0,0,1-.394-2.162,38.066,38.066,0,0,1,1.975-9.677,49.337,49.337,0,0,1,3.96-8.88,21.206,21.206,0,0,1,3.3-2.665,8.778,8.778,0,0,1,5.545-1.321,2.748,2.748,0,0,1-1.528,4.039c-1.676.646-1.736.817-1.31,2.559q1.974,8.073,3.913,16.155c.048.2.079.4.134.6.3,1.07.479,1.154,1.256.4,1.468-1.436,3-2.8,4.468-4.241,3.55-3.482,6.924-7.136,10.5-10.591a53.531,53.531,0,0,0,4.019-4.338c.631-.561.661-.938-.176-1.422-1.8-1.043-2.088-1.762-1.487-3.141,1.919,0,3.84.033,5.758-.025a2.826,2.826,0,0,1,2.433,1.053c.929,1.1,1.927,2.137,2.9,3.2,1.281.682,1.188,1.884,1.017,3.009-.342,2.257-.668,4.52-1.189,6.747A8.1,8.1,0,0,1,1588.494,2775.4Z"/><path class="i" d="M1533.716,2872.913c0-1.77.048-3.54-.006-5.307-.027-.9.3-1.228,1.147-1.048,4.478.947,9.038,1.343,13.57,1.847,2.421.269,4.886.425,7.327.629,8.733.729,17.479.5,26.216.393,3.489-.043,7-.463,10.495-.808,3.251-.32,6.477-.83,9.729-1.121a23.789,23.789,0,0,0,4.209-.746c2.715-.751,2.834-.706,2.835,2.087,0,1.358.007,2.716.01,4.074-.369.012-.738.036-1.107.036q-36.658,0-73.317,0C1534.455,2872.949,1534.086,2872.925,1533.716,2872.913Z"/><path class="j" d="M1578.411,2758.632c-.343,1.461.449,2.252,1.619,2.9,1.367.753,1.347.79.3,1.791-3.506,3.463-7.36,6.535-11.046,9.794q-3.828,3.384-7.913,6.473c-.829.626-1.074.51-1.294-.492-.712-3.244-1.257-6.519-1.856-9.784a7.136,7.136,0,0,1-.121-.977c-.078-1.752.059-2.042,1.7-2.69a58.665,58.665,0,0,0,8.3-4.027,37.421,37.421,0,0,0,9.289-7.618c.2-.235.322-.6.737-.564C1578.252,2755.166,1577.977,2756.919,1578.411,2758.632Z"/><path class="k" d="M1480.719,2735.674c2.342-.005,4.686.044,7.026-.025,7.069-.207,12.061-3.664,15.006-10a13.764,13.764,0,0,0,1.132-8.967,3.945,3.945,0,0,1,.962,2.8,16.862,16.862,0,0,1-4.51,11.905,11.014,11.014,0,0,1-3.438,2.9,1.376,1.376,0,0,0-.678,1.347,39.253,39.253,0,0,0,.344,6.627c-.154,1.021-1.054,1.312-1.788,1.439a18.875,18.875,0,0,1-4.235.625c-2.569-.131-5.15.147-7.705-.484-1.57-.388-2-.677-2.1-2.3-.074-1.229-.065-2.463-.094-3.694Q1480.68,2736.761,1480.719,2735.674Z"/><path class="l" d="M1473.309,2720.117a52.067,52.067,0,0,1,5.735,5.4,27.766,27.766,0,0,0,3.511,2.866,3.315,3.315,0,0,0,2.435.614c.346-.049.792.17,1.01-.236.226-.421-.185-.687-.4-.953-1.445-1.822-2.92-3.62-4.375-5.434q-1.689-2.1-3.348-4.234a.866.866,0,0,1-.2-1.033,13.742,13.742,0,0,1,2.708,2.969,85.536,85.536,0,0,0,7.632,8.474,3.045,3.045,0,0,0,1.314.871c.738.171,1.593.293,2.13-.506a1.983,1.983,0,0,0,.022-2.3c-.822-1.272-1.728-2.49-2.544-3.766-1.957-3.059-3.941-6.1-5.713-9.278a2.944,2.944,0,0,1-.412-1.41c1.412.915,1.738,2.439,2.548,3.616.388-.3-.216-.624.164-.938,3.493,4.975,9.445,6.785,13.844,10.709-.5.39-.818-.345-1.255-.126l.27.651c-.118,0-.221.031-.255,0-.666-.7-1.152-.779-2-.016a46.45,46.45,0,0,0-5.3,6.114,1.933,1.933,0,0,0-.309,1.043c-.153,1.392-.731,1.753-1.971,1.21-4-1.752-7.794-3.805-10.638-7.272a10.054,10.054,0,0,0-2.155-2.01,1.253,1.253,0,0,0-1.473-.115A22.131,22.131,0,0,1,1473.309,2720.117Z"/><path class="a" d="M1524.357,2715.687a37.989,37.989,0,0,1,1.04,4.974c.511,2.315,1.267,4.557,1.93,6.827-.705,1.3-1.435,1.588-2.785.947a6.627,6.627,0,0,1-2.061-1.258c.523-.334,1.324-.127,1.617-.787a2.681,2.681,0,0,0,.158-1.912c-3.01.864-4.368.286-5.911-2.505-.328-.593-.933-1.053-.874-1.83.825.1,1.6.7,2.48.249a7.157,7.157,0,0,0,1.771-1.415,5.48,5.48,0,0,1,1.616-1.612C1523.728,2716.836,1524.287,2716.41,1524.357,2715.687Z"/><path class="m" d="M1588.494,2775.4c.569-3.145,1.15-6.288,1.7-9.436a3.683,3.683,0,0,0-.7-3.1c1.509-.222,2.979.271,4.478.242.3-.006.438.163.4.466A31.088,31.088,0,0,1,1588.494,2775.4Z"/><path class="g" d="M1517.484,2699.884c.185-.457.306-.883,1.015-.574a3.9,3.9,0,0,0,2.3.253c.573-.113.682.2.574.607a10.216,10.216,0,0,1-1.549,3.952c-.483.6-1.151,1.17-1.872.181Q1517.715,2702.094,1517.484,2699.884Z"/><path class="n" d="M1520.164,2720.608a2.112,2.112,0,0,1-2.693-.465,2.769,2.769,0,0,1,2.5-2.509,18.727,18.727,0,0,1,3.366-.268l-1.46,1.748C1521.394,2719.712,1520.3,2719.611,1520.164,2720.608Z"/><path class="e" d="M1575.6,2853.643c-5.9.465-12.227.338-18.546.273a116.727,116.727,0,0,1-16.623-1.134,34.63,34.63,0,0,0-4.361-.6c-1.293-.034-.905-1.088-.777-1.765.243-1.282.655-2.531.977-3.8a5.043,5.043,0,0,0,.161-1.085c.055-1.939.091-2.121,1.972-1.673,3.59.856,7.264,1.045,10.889,1.585,1.884.281,3.815.421,5.725.559a212.938,212.938,0,0,0,22.255.487c3.951-.129,7.9-.456,11.846-.861,3.045-.312,6.08-.7,9.1-1.121s6-1.16,8.992-1.8c.732-.158,1.273-.156,1.268.749-.012,2.174.378,4.327.286,6.51-.04.925-.419,1.186-1.253,1.268-4.666.463-9.32,1.106-14,1.4-2.571.159-5.129.531-7.7.55C1582.54,2853.2,1579.3,2853.876,1575.6,2853.643Z"/><path class="k" d="M1538.462,2654.136c-1.178,1.133-2.4,2.221-3.523,3.408a31.328,31.328,0,0,0-6.32,10.674,51.806,51.806,0,0,0-2.648,11.286q-.541,3.957-.821,7.928c-.174,2.5-.322,6.967-.066,6.989.278.025.545-5.26,1.821-11.756,1.614-8.216,3.58-17.615,10.781-24.6a28.834,28.834,0,0,1,5.429-4.134A14.661,14.661,0,0,0,1538.462,2654.136Z"/><path class="o" d="M1599.34,2661.57a18.482,18.482,0,0,0,2.991,1.29,6.628,6.628,0,0,0,4.4-.468c.156-.08.389-.011.8-.011a6.875,6.875,0,0,1-2.718,2.145c-1.606.87-1.694,1.232-.651,2.693a30.981,30.981,0,0,1,3.2,5.481c.53,1.205.4,1.471-.866,1.715-1.327.257-1.575.722-.992,1.9.8,1.614,1.624,3.217,2.413,4.837.715,1.468.5,2.246-.826,3.238-1.006.752-1.093,1.4-.312,2.373a8.008,8.008,0,0,0,.716.841,5.461,5.461,0,0,1,1.964,5.358c-1.339.332-2.553,1.212-4.034.927-.507-1.259-.192-2.6-.372-3.9a44.408,44.408,0,0,1-.357-4.532c-.237-6.83-1.3-13.48-4.19-19.747-.43-.932-.745-1.914-1.143-2.861C1599.19,2662.439,1599,2662,1599.34,2661.57Z"/><path class="p" d="M1588.525,2666.733c-1.563-.744-3.539-1.57-5.1-2.314-1-1.384-1.791-3-2.788-4.391a4.1,4.1,0,0,1-.417-2.427c.894,1.145,1.644,2.18,2.471,3.148,1.662,1.947,3.517,3.646,6.109,4.264a8.407,8.407,0,0,0,4.931-.092,4.219,4.219,0,0,1,.961-.115l-1.023.952a2.762,2.762,0,0,1-2.929.557C1590.072,2666.307,1589.191,2666.741,1588.525,2666.733Z"/><path class="q" d="M1582.835,2726.271l.245.479c-.121.124-.29.23-.437.166a6.849,6.849,0,0,0-3.555-.073,5.917,5.917,0,0,1-3.3-.793,3.857,3.857,0,0,0-1.287-.442c.536.736.288,1.137-.533,1.2a9.306,9.306,0,0,1-6.657-1.624c-1.313-.994-1.794-.98-3.217-.109a13.664,13.664,0,0,1-8.539,1.676c-.082-.007-.211,0-.235-.048-.572-1.2-1.6-.292-2.374-.513a.6.6,0,0,1-.35-.8.584.584,0,0,1,.246-.274c1.383-.518,2.866-.719,4.225-1.334.512-.231,1.234-.537,1.537.108.257.547-.447.867-.842,1.206-.111.095-.309.107-.318.325,1.689-.468,3.49-.515,4.964-1.669,1.164-.911,1.207-.853.159-1.843-.182-.171-.351-.355-.208-.638a.516.516,0,0,1,.514.055,43.534,43.534,0,0,0,6.889-.261c-.11.785-.876.727-1.352,1.02-.989.61-1.056,1.081-.069,1.671a13.638,13.638,0,0,0,3.788,1.588c-.1-.748-.652-1.028-.985-1.454-.241-.308-.7-.587-.4-1.038.274-.405.735-.278,1.122-.116a28.76,28.76,0,0,1,4.017,1.826,6.511,6.511,0,0,0,2.16.846c.238.048.524.109.684-.116.173-.242-.058-.451-.168-.663-.229-.44-.988-.888-.539-1.327.593-.579,1.284.005,1.877.359a5.214,5.214,0,0,0,2.465,1.959C1582.6,2725.777,1582.925,2725.873,1582.835,2726.271Z"/><path class="r" d="M1579.872,2723.81c-.613,0-1.061-.675-1.834-.4.361.5.7.979,1.045,1.448.533.721.2.93-.531.927a4.441,4.441,0,0,1-2.439-.729,45.192,45.192,0,0,0-4.626-2.177c-.152-.079-.381-.01-.685-.01.418.917,1.25,1.324,1.676,2.057.128.219.295.436.132.673a.531.531,0,0,1-.675.129,23.428,23.428,0,0,1-3.891-1.771c-1.274-.867-1.238-1.366.1-2.06.537-.28,1.078-.553,1.617-.829a13.976,13.976,0,0,1,5.344-.088,7.684,7.684,0,0,1,3.292.862C1579.028,2722.391,1579.818,2722.823,1579.872,2723.81Z"/><path class="s" d="M1562.869,2721.327l-.524.014a2.21,2.21,0,0,1-1.754.331,12.734,12.734,0,0,0-6.057,1.247,10.164,10.164,0,0,0-2.985,1.889.822.822,0,0,0-.239,1.152c-.293.686-.89.619-1.469.6-.841-.158-.789-.68-.52-1.288a6.4,6.4,0,0,1,2.42-2.714l2.961-1.18a.705.705,0,0,1,.972-.074,21.322,21.322,0,0,1,5.09-.472A4.974,4.974,0,0,1,1562.869,2721.327Z"/><path class="t" d="M1551.741,2722.559a13.929,13.929,0,0,0-2.2,2.929c-.131.314-.475.7.22.79.293.254.676.029.988.185.191.294.064.567-.053.842-.1.154-.221.283-.434.2-.78,0-1.56.009-2.339.005-.751,0-.891-.315-.63-1.024C1548.077,2724.357,1549.886,2723.442,1551.741,2722.559Z"/><path class="r" d="M1582.835,2726.271l-.5-.485a10.058,10.058,0,0,1-2.512-2.883.4.4,0,0,1,.053-.548,8.759,8.759,0,0,1,3.227,2.09,3.045,3.045,0,0,1,.934,2.062A2.048,2.048,0,0,0,1582.835,2726.271Z"/><path class="u" d="M1579.878,2722.355c.612,1.293,1.715,2.232,2.459,3.431a2.931,2.931,0,0,1-2.465-1.976l-1.479-1.97Z"/><path class="v" d="M1551.209,2730.724c-.667-.41-.425-1.188-.709-1.753l-.017-.248c.044-.592-.054-1.247.684-1.529a.576.576,0,0,1,.3.3C1551.6,2728.587,1551.911,2729.7,1551.209,2730.724Z"/><path class="w" d="M1551,2727.271l-.516,1.452c-.388-.351-.167-.81-.218-1.221l.25-.225A.318.318,0,0,1,1551,2727.271Z"/><path class="x" d="M1555.674,2721.3l-.972.073a.808.808,0,0,1,.828-.6C1555.744,2720.789,1555.672,2721.109,1555.674,2721.3Z"/><path class="g" d="M1583.553,2730.468c-.483,4.43-1.956,8.44-5.272,11.538a5.359,5.359,0,0,1-5.224,1.274,2.193,2.193,0,0,1-1.835-1.9c-.107-.619.485-.656.783-.932.366-.339,1.1-.522.829-1.166-.224-.539-.852-.3-1.324-.263-.512.042-1.057.28-1.446-.29a4.438,4.438,0,0,1-.031-2.392c.254-.534.792-.7,1.263-.924a7.362,7.362,0,0,0,3-2.674,3.831,3.831,0,0,0,.5-3.743c-.106-.26-.278-.52-.06-.809a2.776,2.776,0,0,1,1.849-.525,27.567,27.567,0,0,1,4.514.1c.9.591.593,1.462.418,2.22a15.2,15.2,0,0,1-1.828,4.54,3.515,3.515,0,0,0-.573,1.223,4.617,4.617,0,0,0,2.291-2,18.151,18.151,0,0,0,1.356-2.476C1582.936,2730.933,1583.005,2730.453,1583.553,2730.468Z"/><path class="g" d="M1562.891,2741.149a4.774,4.774,0,0,0-.418.447c-2.6,3.565-7.616,1.668-9.146-1.334a17.736,17.736,0,0,1-2.053-8.807c.71.076.8.755,1.117,1.191a6.62,6.62,0,0,0,2.518,2.514,21.455,21.455,0,0,0-1.319-2.843,15.082,15.082,0,0,1-1.021-2.636c-.169-.656-.382-1.387.37-1.9a10.942,10.942,0,0,1,5.16.391.571.571,0,0,1,.144.567c-.948,3.006,1.844,6.115,4.45,7,.374.126.825.145,1.017.595a3.583,3.583,0,0,1,0,2.254c-.715.569-1.461.285-2.21.084-.415-.111-.962-.437-1.21.079-.256.535.3.854.67,1.168C1561.542,2740.425,1562.428,2740.453,1562.891,2741.149Z"/><path class="y" d="M1552.982,2726.037l2.55-.564c-.659.97-.409.9.513.967a17.1,17.1,0,0,0,5.782-.632,13.105,13.105,0,0,0,2.706-1.369,2.081,2.081,0,0,1,2.675.253c1.968,1.758,4.41,1.964,6.912,1.816a.587.587,0,0,0,.414-.177c.145-.226-.068-.365-.225-.488-.128-.1-.286-.164-.409-.269a4.7,4.7,0,0,1-.4-.464,4.773,4.773,0,0,1,2.625.731,6.121,6.121,0,0,0,3.548.667c.315-.01.764.2.784-.443.009-.317.293-.212.452-.08a4.994,4.994,0,0,0,2.169.765,1.017,1.017,0,0,1,.971,1,6.775,6.775,0,0,1-2.865-.127c-2.948-.1-5.894.134-8.842.019a23.352,23.352,0,0,1-5.8-1.009,3.582,3.582,0,0,0-2.251.035,16.789,16.789,0,0,1-8.082,1c-1.045-.183-2.129.017-3.191-.09a1.333,1.333,0,0,1-.39-.123c-.433-.322-.211-.7-.094-1.072A.815.815,0,0,1,1552.982,2726.037Z"/><path class="k" d="M1562.891,2741.149a5.631,5.631,0,0,1-2.643-1.425c-.336-.392-.693-.844-.429-1.288.321-.538,1-.417,1.454-.191a4.991,4.991,0,0,0,2.276.395c2.238.221,4.493-.042,6.729.244.685-.088,1.369-.186,2.055-.26.429-.046.83.008.99.5a.955.955,0,0,1-.4,1.074c-.536.429-1.129.787-1.7,1.175-.587-.442-1.243-.13-1.744.043C1567.225,2742.2,1565.069,2741.6,1562.891,2741.149Z"/><path class="l" d="M1502.406,2715.636c.009,1.232-.973,1.176-1.738,1.24-1.816.152-3.389-.668-4.979-1.4-2.07-.948-3.946-2.256-6.039-3.17a6.672,6.672,0,0,0-2.833-.609c-.32.005-.786.036-.773-.381s.483-.336.8-.354a4.36,4.36,0,0,1,1.932.265,2.089,2.089,0,0,0,1.587.127,11.125,11.125,0,0,0-1.391-2.812c-.112-.236-.418-.487-.139-.762a.736.736,0,0,1,.8-.2,3,3,0,0,0,1.7.159,1.417,1.417,0,0,1,1.825,1.422c.192,2.529,2.051,3.741,3.818,4.919a8.563,8.563,0,0,0,5.437,1.558Z"/><path class="z" d="M1555.113,2777.56a4,4,0,0,1-1.348-.717c-1.061-.556-2-1.317-3.41-.749-1.043.421-1.6-.16-1.285-1.277.713-2.521.977-5.127,1.554-7.674.349-1.539.594-3.1,1.066-4.616a2.729,2.729,0,0,1,1.488-1.669c.293-.147.689-.651,1.06-.13a1.013,1.013,0,0,1,0,1.366c-.806.751-.652,1.574-.6,2.562.2,3.429.906,6.8,1.076,10.226C1554.761,2775.76,1554.971,2776.63,1555.113,2777.56Z"/><path class="g" d="M1487.674,2718.8a25.7,25.7,0,0,1,6.744,5.337c.88.928-.121,1.588-.64,2.155a.993.993,0,0,1-1.729-.065A36.816,36.816,0,0,1,1487.674,2718.8Z"/><path class="aa" d="M1520.164,2720.608c-.479-.486-.191-.773.276-.97s.958-.351,1.438-.524C1521.517,2719.853,1520.768,2720.147,1520.164,2720.608Z"/><path class="g" d="M1590.091,2665.411c.567.2-.377-.413,0,0Z"/><path class="r" d="M1554.21,2722.82a9.581,9.581,0,0,1,5.307-1.48c.942-.022,1.885,0,2.828,0,.043.069.071.161.132.2,1.878,1.259,1.853,1.221-.08,2.589-1.743,1.232-3.779,1.246-6.018,1.792.7-.979,1.683-1.122,2.241-2.182-2.067.361-3.765,1.347-5.644,1.542C1552.66,2724.1,1553.475,2723.48,1554.21,2722.82Z"/><path class="ab" d="M1554.21,2722.82a8.9,8.9,0,0,0-1.234,2.465l-.251.008a1.46,1.46,0,0,1-1.479.485c-.643.009-.953-.21-.354-.731C1551.9,2724.169,1552.81,2723.122,1554.21,2722.82Z"/><path class="ac" d="M1551.246,2725.778c.428-.361.986-.324,1.479-.485.01.274-.035.567.257.744l-.257.247c-.616.411-1.244.728-1.971.244-.34-.042-.728.1-.99-.25C1550.3,2726.224,1550.929,2726.472,1551.246,2725.778Z"/><path class="ad" d="M1550.754,2726.528l1.972-.245a1.52,1.52,0,0,1-.233.947l-1.248.04-.123,0-.123,0-.484.006Z"/><path class="ae" d="M1563.583,2736.359a7.977,7.977,0,0,1-5.209-3.951,4,4,0,0,1-.222-3.927c.459-.767,1.292-.6,1.977-.749a9.385,9.385,0,0,1,2.322-.087c2.24-.032,4.48,0,6.72,0a22.2,22.2,0,0,1,4.363.266,1.567,1.567,0,0,1,1.172.554,3.26,3.26,0,0,1,.26,3.833,8.073,8.073,0,0,1-4.737,3.917,2.15,2.15,0,0,1-1.491.746,30.816,30.816,0,0,1-4.029.009A1.218,1.218,0,0,1,1563.583,2736.359Z"/><path class="af" d="M1581.355,2727.289h0c-2.177,0-4.358-.082-6.531.023a23.148,23.148,0,0,1-7.723-.925,4.9,4.9,0,0,0-3.344.064,14.055,14.055,0,0,1-6.369,1,42.269,42.269,0,0,0-4.664-.156h0c-.077-.019-.154-.04-.231-.062a.883.883,0,0,0-1.248.041q-.018,1.726-.036,3.454.033.366.065.731c.991,1.431,1.713,3.084,3.338,3.987.22.122.434.282.665.094s.132-.447.013-.667-.275-.408-.377-.628c-.931-2.007-2.308-3.859-2.184-6.236h0a17.836,17.836,0,0,1,5.423.476,15.818,15.818,0,0,1,4.215-.509,8.466,8.466,0,0,0,2.582-.717.948.948,0,0,1,.957-.022c1.037.615,2.235.441,3.335.733a32.642,32.642,0,0,1,5.465.5,2,2,0,0,1,.423-.21c2.057-.481,4.146-.159,6.22-.242h0c.148,3.04-1.462,5.466-2.855,7.977a1.378,1.378,0,0,0,1.688-.361c1.64-1.391,2.359-3.368,3.372-5.159q.249-1.359.5-2.718C1583.2,2727.313,1582.222,2727.631,1581.355,2727.289Z"/><path class="q" d="M1563.583,2736.359a12.669,12.669,0,0,0,6.646-.146q.024,1.335.049,2.671c-2.257.3-4.513.589-6.729-.244C1563.751,2737.883,1563.331,2737.116,1563.583,2736.359Z"/><path class="ag" d="M1572.7,2730.432a21.059,21.059,0,0,1-11.829.019c-.422-1.185-.161-1.677,1.01-1.691q4.626-.056,9.252,0C1572.326,2728.777,1572.686,2729.214,1572.7,2730.432Z"/><path class="ah" d="M1572.7,2730.432c-.27-1.172-1.055-1.476-2.179-1.454-2.737.051-5.478.066-8.215-.006-1.147-.03-1.607.352-1.435,1.479a1.04,1.04,0,0,1-.366.014c-.708-.258-1.765-.422-1.713-1.26.061-.979,1.124-.692,1.814-.7,3.6-.02,7.209-.01,10.814-.008.409,0,.818.017,1.228.025.738.014,1.851.065,1.875.711C1574.554,2730,1573.574,2730.4,1572.7,2730.432Z"/><path class="g" d="M1562.367,2727.972c2.29-1.571,4.582-1,6.874,0Z"/><path class="k" d="M1578.12,2753.435a22.061,22.061,0,0,1-5.051,5.125,46.377,46.377,0,0,1-13.083,7.312c-1.592.591-1.879,1.279-1.535,3.16.5,2.724.926,5.46,1.475,8.173a11.5,11.5,0,0,1,.512,2.757c2.186-1.771,4.2-3.392,6.2-5.024,3.258-2.659,6.316-5.553,9.6-8.187,1.1-.884,2.1-1.935,3.186-2.859.276-.234.479-.581.907-.572a70.652,70.652,0,0,1-5.591,5.925c-3.795,3.75-7.491,7.6-11.26,11.376-1.048,1.05-2.208,1.989-3.5,3.142-.725-3-1.4-5.792-2.072-8.579q-.848-3.5-1.712-6.986c-.307-1.226-.706-2.432-.949-3.67-.153-.777-.233-1.478.927-1.879,2.542-.88,2.56-1.079,2.449-4.034.021-.321.041-.642.062-.963.419-.888.038-1.871.305-2.779,1.888.238,3.7,1.059,5.594.753,2.469-.4,4.933.325,7.435-.34a12.454,12.454,0,0,0,6.093-3.807Q1578.114,2752.457,1578.12,2753.435Z"/><path class="g" d="M1612.7,2694.653c-1.031-.131-1.557.279-1.491,1.362a4.079,4.079,0,0,1-.064.735c-.252,2.108.04,3.992,2.114,5.144.613.342.517.908.363,1.412-.168.559-.635.514-1.12.416a7.2,7.2,0,0,0-2.289-.376,2.053,2.053,0,0,0-.673.863c-.712,1.767-1.975,3.216-2.818,4.907-.136.277-.269.682-.682.571-.376-.1-.349-.512-.391-.833a2.314,2.314,0,0,1-.017-.492c.151-2.467-.292-4.915-.265-7.377v-.038c.849-.48,1.822-2.337,2.075-2.808a5.218,5.218,0,0,1,1.555.48,45.784,45.784,0,0,0,.464-5.658c-1.362-.2-2.492.535-3.713.906-.1-.228-.2-.446-.288-.645-.017-1.108-.321-2.156-.445-3.252-.546-4.863-.4-9.79-1.4-14.616a47.3,47.3,0,0,0-2.4-8.547,51.133,51.133,0,0,1-2.332-5.871q-.244-.36-.494-.722a4.688,4.688,0,0,1-1.6-.833l-.067-.129a2.8,2.8,0,0,0-.9-.984,8.777,8.777,0,0,1-3.338-4.109c-.064-.193-.18-.41-.42-.354-.213.05-.287.28-.317.483a11.382,11.382,0,0,0,.265,2.665c.415.974,1.461,1.13,2.2,1.678.8.591,1.656,1.108,1.678,2.263a2.464,2.464,0,0,1-.67,2.286c0,.661-.61.712-.991.992-.381.257-.979.272-1.083.831-.131-.339-.351-.648-.67-.485-.69.361-1.958,1.355-2.381.893a2.671,2.671,0,0,0-1.669.064c-.462.583.109.87.376,1.206.942,1.175.893,1.79-.274,2.762a1.327,1.327,0,0,0-.428.425,2.39,2.39,0,0,1-2.5,2.967,11.393,11.393,0,0,1-2.992-.556c-1.085-.45-2.282-.159-3.387-.544-2.279-.794-3.676-2.559-4.95-4.443a50.737,50.737,0,0,1-4.588-9.12c-1.224-2.933-3.088-5.281-6.722-5.232a1.721,1.721,0,0,1-.717-.168,4.016,4.016,0,0,0-2.656-.1,19.966,19.966,0,0,0-5.8,2.324c-2,1.218-2.967,1-4.48-.71a6,6,0,0,0-3.711-.749,9.627,9.627,0,0,0-2.974-.215,14.625,14.625,0,0,0-4.653.208c-1.177,1.132-2.4,2.22-3.523,3.406a31.3,31.3,0,0,0-6.319,10.676,51.759,51.759,0,0,0-2.651,11.286q-.541,3.953-.82,7.926c-.144,2.087-.052,4.191-.067,6.287,0,.646-.092,1.11-.974.952a14.436,14.436,0,0,0-2.213-.057,12.864,12.864,0,0,0,.21,3.459,15.682,15.682,0,0,1,.789,2.816c-.108,1.281.565,2.459.539,3.749-.015.781.825,1.856.353,2.282s-1.621.174-2.472.179c-2.385.012-2.385,0-1.448,2.268.181.449.347.905.545,1.347,1,2.241,1.9,4.572,4.444,5.582.241.509-.075,1.017.027,1.549a59.616,59.616,0,0,0,1.893,7.962c.267.792.317,1.7,1.05,2.29a3.774,3.774,0,0,1,.222.4,24.107,24.107,0,0,0,2.466,5.288c-.528-2.416-1.3-4.767-1.6-7.248-.339-2.731-.75-5.448-.825-8.2a41.822,41.822,0,0,0,2.913,9.186c1.9,3.879,4.173,7.343,8.27,9.224,3.3,1.515,5.966,1.115,8.393-1.441a17.179,17.179,0,0,0,3.484-5.6,1.424,1.424,0,0,0,.017-.386,3.032,3.032,0,0,0-.338-1.248,2.292,2.292,0,0,0-1.422-.255c-1.417-.044-1.619-.366-.846-1.563a9.086,9.086,0,0,1,3.758-2.848,17.407,17.407,0,0,0,2.972-1.176c.393-.643.836-.208,1.263-.065,2.312-.353,4.626-.719,6.93.06a24.781,24.781,0,0,0,6.666-.243,18.773,18.773,0,0,1,8.44.66,14.03,14.03,0,0,1,1.585.606c.413.178.831.344,1.224.549,1.446.759,2.677,1.716,2.9,3.5a20.743,20.743,0,0,0,2.285,5.306c2.032,3.34,5.5,4.136,8.512,1.876a18.893,18.893,0,0,0,4.022-4.148,33.941,33.941,0,0,0,4.371-9.345c.935-2.853,2.065-5.655,2.349-8.347.079.653.094,1.634.188,2.608.027.28.111.586.509.566a8.951,8.951,0,0,0,4.225-3.513,50.6,50.6,0,0,0,3.818-6.749C1615.639,2701.276,1615.718,2697.734,1612.7,2694.653Zm-8.067,2.6c-.009,0-.014-.008-.012-.01Z"/><path class="c" d="M1522.429,2700.574c-.276-.752-.833-1.459-.393-2.332-.074-1.112-.061-2.232-.2-3.342a3.646,3.646,0,0,0-.082-.611,6.216,6.216,0,0,1,1.066-5.7,2.531,2.531,0,0,0,.331-.553c-.2-.01-.391-.018-.586-.023l-.8-.023c-.431.69-1.786,1.616-4.742,2.878a4.32,4.32,0,0,0-2.67,2.047c-1.19,2.474,1.313,5.685,2.145,6a1.129,1.129,0,0,1,.536.375,1.422,1.422,0,0,1,.216.861c1.083-.512,2.153.131,3.239.057.413-.027.269.422.193.677a17.159,17.159,0,0,1-.809,2.438c-.433.929-1.009,1.575-2.158,1.246-.621.193-1.491.262-1.192,1.214.44,1.389.945,2.806,2.611,3.241a.8.8,0,0,0,.03-.818c-.334-.918.044-1.16.914-1.086a15.756,15.756,0,0,0,2.082,0c1.266-.057,1.483-.292,1.2-1.489C1522.971,2703.961,1522.865,2702.24,1522.429,2700.574Z"/><path class="c" d="M1523.693,2676.586a13.179,13.179,0,0,1,.243,1.588,1.2,1.2,0,0,0-.068-1.435A.907.907,0,0,0,1523.693,2676.586Z"/><path class="a" d="M1583.068,2672.914c-3.807.582-6.313-1.4-8.291-4.3a42.6,42.6,0,0,1-5.043-10.095c-.95-2.741-3.435-4.083-6.263-4.7-2.725-.6-4.952.2-7.276,1.117-.9.355-1.685.99-2.567,1.4-1.261.587-2.893.566-3.65-.61a1.525,1.525,0,0,1-.219-.811,6.561,6.561,0,0,0,3.593-1.016c3.717-2.052,7.641-3.24,11.964-2.455a8,8,0,0,1,6.371,5.752,42.826,42.826,0,0,0,6.429,11.628A13,13,0,0,0,1583.068,2672.914Z"/><path class="o" d="M1521.862,2694.818c-.636-2.2-.818-4.3.816-6.255a2.1,2.1,0,0,0,.238-2.689c-1.538-2.447-.745-4.765.7-6.968.045-.069.1-.129.144-.2.266-.471.6-1.018.186-1.476s-.908.076-1.372.136c-.377.049-.546.8-1.008.405-.364-.314-.229-.877-.156-1.3a9.334,9.334,0,0,1,2.4-4.33c.631-.751,1.253-1.511,1.909-2.239.341-.38.53-.841.261-1.227a.977.977,0,0,0-1.34-.115,17.387,17.387,0,0,0-2.73,1.646c-.23.207-.562.51-.863.29s-.136-.6,0-.907c2.731-6.068,6.621-11.038,12.856-13.879a14.02,14.02,0,0,1,4.521-1.373c.067.6-.416.859-.769,1.171-6.235,5.514-9.258,12.685-10.79,20.671-.644,3.353-.916,6.744-1.363,10.117a22.871,22.871,0,0,0-.073,2.831c-.012,1.438.023,2.876-.013,4.314-.039,1.545-.3,1.793-1.814,1.74C1523.011,2695.163,1522.358,2695.341,1521.862,2694.818Z"/><path class="ai" d="M1556.994,2710.865l-.712,2.67a3.758,3.758,0,0,0-2.022,3.642,3.831,3.831,0,0,0,3.921,3.241s5.963,4.153,11.378-.653a3.393,3.393,0,0,0,3.4-.662c1.01-1.187.651-3.832-1.667-5.39q-.3-5.191-.593-10.384l-.356-1.78h-11.274Q1558.033,2706.208,1556.994,2710.865Z"/><path class="b" d="M1571.839,2714.135c.387,2.609-.1,3.544-.646,3.906-1.033.69-2.47-.558-4.027.311-.919.513-.682,1.094-1.622,1.722a4.563,4.563,0,0,1-5.031-.186c-1.147-.963-.857-2.211-2.292-3-.783-.433-1.247-.27-1.424-.668-.31-.692.933-1.556,2.269-3.738a10.05,10.05,0,0,0,1.18-2.336c.355-1.121.15-1.435.066-5.585,0,0-.005-.292-.044-3.008h-1.2q-1.039,4.659-2.077,9.316-.355,1.335-.712,2.67a3.758,3.758,0,0,0-2.022,3.642,3.83,3.83,0,0,0,3.921,3.241s5.963,4.153,11.377-.653a3.4,3.4,0,0,0,3.4-.662C1573.886,2718.017,1573.659,2715.713,1571.839,2714.135Z"/><ellipse class="b" cx="15.687" cy="1.09" rx="15.687" ry="1.09" transform="translate(1550.864 2673.525)"/><ellipse class="b" cx="11.748" cy="1.09" rx="11.748" ry="1.09" transform="translate(1553.623 2680.69)"/><path class="b" d="M1559.645,2690.02c-.021.811-.079,2.959-1.305,4.243a3.054,3.054,0,0,1-1.721.89.074.074,0,0,1-.049-.013c-.157-.12.408-1.055.643-1.53a7.978,7.978,0,0,0,.474-3.59c.022-1.933-.26-2.868.3-3.233a.926.926,0,0,1,.831-.06C1559.724,2687.107,1559.672,2689.031,1559.645,2690.02Z"/><path class="b" d="M1569.489,2690.02c.022.811.079,2.959,1.3,4.243a3.055,3.055,0,0,0,1.721.89.078.078,0,0,0,.05-.013c.156-.12-.409-1.055-.643-1.53a7.974,7.974,0,0,1-.475-3.59c-.021-1.933.26-2.868-.3-3.233a.926.926,0,0,0-.831-.06C1569.41,2687.107,1569.462,2689.031,1569.489,2690.02Z"/><path class="aj" d="M1534.751,2692.164c0,.178,9.969-2.789,17.445.534,0,0,3.5-4.51-3.323-5.756C1548.873,2686.942,1534.692,2685.162,1534.751,2692.164Z"/><path class="ak" d="M1534.751,2692.164l.174-.076a22.014,22.014,0,0,1,5.755-1.439c3.157-.309,5.232-.512,7.684.119a3.6,3.6,0,0,0,2.875-.062,1.874,1.874,0,0,0,.89-1.542c-.047-.864-1.052-1.678-2.548-2.046a16.7,16.7,0,0,0-2.188-.4c-.065-.007-.689-.076-1.375-.1a24.937,24.937,0,0,0-5.333.47c-2.306.493-3.706.985-4.767,2.059a3.592,3.592,0,0,0-.815,1.23,3.9,3.9,0,0,0-.323,1.164v.03C1534.771,2691.834,1534.76,2692.031,1534.751,2692.164Z"/><path class="aj" d="M1594.042,2692.164c0,.178-9.968-2.789-17.444.534,0,0-3.5-4.51,3.323-5.756C1579.921,2686.942,1594.1,2685.162,1594.042,2692.164Z"/><path class="ak" d="M1594.042,2692.164l-.173-.076a22.017,22.017,0,0,0-5.756-1.439c-3.157-.309-5.231-.512-7.684.119a3.6,3.6,0,0,1-2.874-.062,1.872,1.872,0,0,1-.89-1.542c.047-.864,1.052-1.678,2.548-2.046a16.69,16.69,0,0,1,2.188-.4c.064-.007.688-.076,1.374-.1a24.942,24.942,0,0,1,5.334.47c2.306.493,3.706.985,4.767,2.059a3.609,3.609,0,0,1,.815,1.23,3.892,3.892,0,0,1,.322,1.164v.03C1594.023,2691.834,1594.034,2692.031,1594.042,2692.164Z"/><circle class="al" cx="9.533" cy="9.533" r="9.533" transform="translate(1530.218 2706.528)"/><circle class="al" cx="9.533" cy="9.533" r="9.533" transform="translate(1580.767 2705.81)"/><path class="am" d="M1593.092,2698.192h-19.863a1.706,1.706,0,0,0-1.8,1.59v6.136a5.187,5.187,0,0,0,1.278,2.717c1.849,2.018,4.957,2.055,10.507,2.047,5.511,0,8.577-.049,10.409-2.047a5.206,5.206,0,0,0,1.278-2.717v-6.136A1.707,1.707,0,0,0,1593.092,2698.192Z"/><path class="an" d="M1555.366,2697.1H1535.5a1.706,1.706,0,0,0-1.805,1.59v6.136a5.192,5.192,0,0,0,1.278,2.717c1.85,2.017,4.957,2.054,10.508,2.047,5.51,0,8.576-.05,10.408-2.047a5.206,5.206,0,0,0,1.278-2.717v-6.136A1.706,1.706,0,0,0,1555.366,2697.1Z"/><path class="an" d="M1593.092,2698.192h-19.863a1.706,1.706,0,0,0-1.8,1.59v6.136a5.187,5.187,0,0,0,1.278,2.717c1.849,2.018,4.957,2.055,10.507,2.047,5.511,0,8.577-.049,10.409-2.047a5.206,5.206,0,0,0,1.278-2.717v-6.136A1.707,1.707,0,0,0,1593.092,2698.192Z"/><path class="ao" d="M1558.709,2695.6v-.1h-.11C1558.636,2695.528,1558.674,2695.562,1558.709,2695.6Z"/><path class="ao" d="M1532.272,2695.495Z"/><path class="ap" d="M1571.425,2699.782a1.706,1.706,0,0,1,1.8-1.59h19.863a1.707,1.707,0,0,1,1.8,1.59h0a1.707,1.707,0,0,0-1.8-1.59h-7.945l.142-.056c1.456-.574,2.918-1.133,4.391-1.661.411-.148.827-.288,1.241-.431h-19.509a2.137,2.137,0,0,0-2.136,2.136v1.267h-9.956v2.136h9.956v3.1q1.071-.453,2.149-.892Z"/><path class="ap" d="M1596.564,2700.041v-1.849h.463v-.012a2.136,2.136,0,0,0-2.136-2.136H1590.9c-.415.143-.83.283-1.241.431-1.473.528-2.935,1.087-4.392,1.661l-.142.056h7.945a1.707,1.707,0,0,1,1.805,1.59h0v6.136a5.207,5.207,0,0,1-1.278,2.717c-1.832,2-4.9,2.042-10.408,2.047-5.551.008-8.658-.029-10.508-2.047a5.188,5.188,0,0,1-1.278-2.717v-2.13q-1.077.438-2.148.892v1.747a7.442,7.442,0,0,0,1.513,3.652c2.185,2.71,5.861,2.759,12.43,2.752,6.52-.01,10.147-.07,12.313-2.752a7.092,7.092,0,0,0,1.358-2.839c.07-.291.119-.565.155-.813v-6.386Z"/><path class="ap" d="M1596.575,2700.055v-1.848h.463v-.012a2.136,2.136,0,0,0-2.136-2.136h-3.988c-.415.143-.83.283-1.241.43-1.473.529-2.935,1.088-4.391,1.661l-.143.057h7.946a1.706,1.706,0,0,1,1.8,1.59h0v6.136a5.2,5.2,0,0,1-1.278,2.717c-1.832,2-4.9,2.042-10.408,2.047-5.551.008-8.658-.03-10.508-2.047a5.191,5.191,0,0,1-1.278-2.717v-2.13q-1.077.438-2.148.892v1.747a7.445,7.445,0,0,0,1.513,3.652c2.185,2.71,5.862,2.759,12.431,2.752,6.519-.01,10.146-.07,12.312-2.752a7.1,7.1,0,0,0,1.358-2.839c.07-.291.119-.565.155-.813v-6.387Z"/><path class="ap" d="M1533.7,2702.7v-4.006a1.706,1.706,0,0,1,1.805-1.59h19.862a1.706,1.706,0,0,1,1.805,1.59h0a1.706,1.706,0,0,0-1.805-1.59h-7.945l.142-.057c1.457-.573,2.919-1.132,4.392-1.661.411-.147.826-.287,1.241-.431h-19.509a2.121,2.121,0,0,0-1.415.54h0a2.125,2.125,0,0,0-.721,1.6v1.238h-9.316a.924.924,0,0,0,0,1.849h9.316v3.413Q1532.622,2703.138,1533.7,2702.7Z"/><path class="ap" d="M1559.32,2697.092h0a2.129,2.129,0,0,0-.611-1.494c-.035-.036-.073-.07-.11-.1a2.122,2.122,0,0,0-1.415-.54H1553.2c-.415.143-.83.283-1.241.43-1.473.529-2.935,1.088-4.392,1.661l-.142.057h7.945a1.706,1.706,0,0,1,1.805,1.59h0v6.136a5.206,5.206,0,0,1-1.278,2.717c-1.832,2-4.9,2.042-10.408,2.047-5.551.007-8.658-.03-10.508-2.047a5.192,5.192,0,0,1-1.278-2.717v-2.13q-1.077.438-2.148.892v1.747a7.446,7.446,0,0,0,1.513,3.652c2.185,2.709,5.862,2.759,12.43,2.751,6.52-.009,10.147-.069,12.313-2.751a7.46,7.46,0,0,0,1.513-3.652v-8.247Z"/><path class="ap" d="M1605.9,2698.192h-9.316v1.849h9.316a.925.925,0,0,0,0-1.849Z"/><circle class="aq" cx="2.996" cy="2.996" r="2.996" transform="translate(1542.063 2699.884)"/><circle class="aq" cx="2.996" cy="2.996" r="2.996" transform="translate(1580.075 2700.815)"/><path class="ar" d="M1562.766,2671.017"/><path class="ar" d="M1616.669,2676.975c-3.485-8.577-5.991-14.744-11.995-20.8-13.552-13.656-34.489-16.213-39.951-16.707-5.461.494-26.4,3.051-39.95,16.707-6,6.051-8.51,12.218-11.995,20.8-.792,1.95-1.766,4.675-.465,6.262,1.4,1.712,4.654,1.125,5.463.959l.783-.211a3.93,3.93,0,0,0,1.493,3.368,3.274,3.274,0,0,0,.3.19,126.551,126.551,0,0,1,88.749,0,3.274,3.274,0,0,0,.3-.19,3.929,3.929,0,0,0,1.493-3.368l.783.211c.81.166,4.06.753,5.463-.959C1618.435,2681.65,1617.461,2678.925,1616.669,2676.975Z"/><path class="as" d="M1610.888,2683.985a121.873,121.873,0,0,0-45.224-9.572h-1.881a121.874,121.874,0,0,0-45.224,9.572"/><path class="at" d="M1609.021,2687.543c-.014-.024-.127.008-.146,0-20.72-8.191-43.124-7.994-43.124-7.994l-.3-.015v.015h-1.461v-.015l-.3.015s-22.4-.2-43.124,7.994c-.019.008-.132-.024-.146,0-.379.634,5.675,4.9,11.358,3.427,0,0,12.523-2.784,31.912-3.144l.3.007v-.007h1.461v.007l.3-.007c19.389.36,31.913,3.144,31.913,3.144C1603.346,2692.443,1609.4,2688.177,1609.021,2687.543Z"/></g></svg>