<svg xmlns="http://www.w3.org/2000/svg" width="168.878" height="231.291" viewBox="0 0 168.878 231.291"><defs><style>.a{fill:#bababb;}.b{fill:#f3b88e;}.c{fill:#e0e0df;}.d{fill:#6aa2bd;}.e{fill:#85b6cf;}.f{fill:#e4d9d1;}.g{fill:#6391a3;}.h{fill:#84b6cf;}.i{fill:#f4b98e;}.j{fill:#bababa;}.k{fill:#6ba2bd;}.l{fill:#dfdfde;}.m{fill:#eb9e68;}.n{fill:#bab9b9;}.ak,.o{fill:#ec9f67;}.p{fill:#e2d7d0;}.q{fill:#f5e8e1;}.r{fill:#e3d8cf;}.s{fill:#c6bab2;}.t{fill:#f2e2d7;}.u{fill:#e3d3c7;}.v{fill:#eaa370;}.w{fill:#eca06a;}.x{fill:#c6b9b1;}.y{fill:#70a5b7;}.z{fill:#fcfcfc;}.aa{fill:#f3e5db;}.ab{fill:#dfd1c6;}.ac{fill:#c4b5aa;}.ad{fill:#af322f;}.ae{fill:#eca570;}.af{fill:#f6f5f5;}.ag{fill:#e0dfde;}.ah{fill:#f4b98d;}.ai{fill:#b8bab9;}.aj{fill:#dfdfdf;}.ak{opacity:0.46;}.al,.ar{fill:none;}.am{fill:#c98456;}.an{fill:#933535;}.ao{fill:#73625b;}.ap{fill:#3f3e42;}.aq{fill:#775623;}.ar{stroke:#5f411c;stroke-linecap:round;stroke-miterlimit:10;stroke-width:8px;}.as{fill:#2c1f15;}.at{fill:#ee9f69;}</style></defs><g transform="translate(-4189.426 -2053.095)"><path class="a" d="M4643.955,2135.464c-1.549-.737-3.506-1.556-5.055-2.292-.993-1.372-1.774-2.975-2.762-4.35a4.062,4.062,0,0,1-.413-2.4c.886,1.135,1.628,2.159,2.447,3.119a11.6,11.6,0,0,0,6.052,4.223,8.331,8.331,0,0,0,4.885-.09,4.126,4.126,0,0,1,.952-.114l-1.013.943a2.737,2.737,0,0,1-2.9.552C4645.487,2135.042,4644.614,2135.472,4643.955,2135.464Z" transform="translate(-337.003 -55.367)"/><g transform="translate(4308.412 2078.643)"><path class="b" d="M4675.382,2157.561c.562.2-.374-.409,0,0Z" transform="translate(-4675.292 -2157.417)"/></g><path class="c" d="M4710.42,2136.817c-.048-.055-.094-.111-.141-.167-.053.02-.1.042-.156.061a.6.6,0,0,0-.458.51,1.125,1.125,0,0,0,.547.916,8.391,8.391,0,0,0,3.473,1.457A13.98,13.98,0,0,1,4710.42,2136.817Z" transform="translate(-392.835 -63.093)"/><path class="a" d="M4500.326,2074.444a21.064,21.064,0,0,1-3.677-.743,6.434,6.434,0,0,0,1.977-4.645,5.874,5.874,0,0,1,.38-2.817c.323-.633-.442-1.312-1.018-1.764-.5-.4-1.067-.718-1.63-1.237,2.638.173,4.821-1.221,7.14-2.134.076.134.152.267.227.4-.586.545-1.182,1.081-1.756,1.639s-.445.906.341,1.018a1.86,1.86,0,0,1,.363.033c.331.121.827.069.942.425.135.414-.335.582-.612.8a2.84,2.84,0,0,0-1.314,2.553,21.327,21.327,0,0,1-1.114,5.177A3.941,3.941,0,0,0,4500.326,2074.444Z" transform="translate(-231.765 -6.048)"/><path class="d" d="M4255.7,2584.085c-1.914.013-3.827,0-5.739.05-.705.018-.892-.222-.872-.915a45.171,45.171,0,0,1,1.215-8.16c.914-4.262,1.939-8.5,2.917-12.749.91-3.953.38-7.929.188-11.9-.015-.283-.107-.565-.1-.847.157-5.5-.389-10.979-.528-16.471-.183-7.2-.467-14.4-.776-21.591-.054-1.256-.188-2.513-.2-3.774-.007-.624-.219-.775-.832-.5-3.8,1.732-7.6,3.474-11.439,5.13-3.463,1.5-6.975,2.876-10.468,4.3-4.037,1.645-8.14,3.071-12.29,4.381-3.843,1.213-7.773,2.188-11.8,1.607a11.615,11.615,0,0,1-8.581-5.723,19.89,19.89,0,0,1-2.939-10.513c.036-2.75.491-5.494.753-8.241.219-2.3.468-4.6.636-6.91.335-4.613.882-9.2,1.374-13.8.332-3.1.75-6.2,1.117-9.3.29-2.448.783-4.873,1.215-7.3a39,39,0,0,1,1.969-7.6c.469-.731-.167-1.534.148-2.274.5-1.387,1.537-.835,2.462-.694.434.365.36.877.379,1.355.032.771-.019,1.543.057,2.313a1.879,1.879,0,0,0,1.622,1.853,28.548,28.548,0,0,0,11.832-.071c.754-.165,1.207-.808,1.882-1.082.873.6,1.872,1.143,1.324,2.5a3.907,3.907,0,0,1-1.754.81,24.809,24.809,0,0,1-15.247-.287c-.37-.118-.717-.4-1.225-.219a5.892,5.892,0,0,0,.639,1.921,7.3,7.3,0,0,1,.549,1.615c.156,1.138-.242,1.8-1.388,1.833-1.757.045-1.934.734-2.075,2.135-.4,4.005-.81,8.01-1.143,12.024-.312,3.771-.381,7.558-.823,11.318a7.082,7.082,0,0,0-.1.971c.083,4.155-.422,8.3-.259,12.453.135,3.41.564,6.745,2.552,9.66a10.265,10.265,0,0,0,14,2.6,6.133,6.133,0,0,0,2.208-2.713,59.167,59.167,0,0,0,3.065-10.412c.461-2.149.945-4.292,1.259-6.469a.871.871,0,0,1,.285-.527,3.322,3.322,0,0,1,1.679-1.3q11.246-6.019,22.5-12.027c1.939-1.036,3.836-2.163,5.832-3.075a24.651,24.651,0,0,1,7.272-1.644,122.165,122.165,0,0,1,13.568-1.018c.306.5-.076.853-.281,1.221a44.647,44.647,0,0,0-4.9,13.86,10.121,10.121,0,0,0-.2,4.6c.085.3.1.731.5.75s.458-.414.549-.705a11.3,11.3,0,0,1,2.523-4c1.861-2.13,4.076-2.065,5.862.18a16.729,16.729,0,0,1,2.852,6.289c.484,1.815.5,3.707.9,5.537.119.556.184,1.213.883,1.318.719.108.926-.541,1.188-1.035a28.451,28.451,0,0,1,9.747-10.538,4.05,4.05,0,0,1,4.783.026,27.22,27.22,0,0,1,4.844,3.688c.344.341.762.638.69,1.217-.826,1.572-2.334,2.471-3.59,3.61a142.7,142.7,0,0,1-12.915,10.246c-4.667,3.338-9.437,6.546-14.372,9.492-2.238,1.336-4.446,2.721-6.683,4.06-2.648,1.586-3.706,4.211-4.586,6.97a21.116,21.116,0,0,0-.913,7.349,1.3,1.3,0,0,0,1.136,1.436,41.344,41.344,0,0,0,4.457.716c3.786.545,7.608.683,11.427.86,3.172.147,6.343.333,9.517.221,6.3-.223,12.6-.4,18.887-.877q6.691-.505,13.371-1.125c3.354-.317,6.714-.7,10.041-1.285.737-.13,1.006-.464.939-1.247-.452-5.27-.808-10.549-1.174-15.823-.421-6.045-1.183-12.072-1.1-18.153a50.572,50.572,0,0,1,1.118-8.092,53.6,53.6,0,0,1,2.007-8.805c.229-.642.382-1.578,1.182-1.486.906.1,1.011,1.09,1.025,1.857.056,3.054-.009,6.1-.248,9.154-.389,4.977-.952,9.927-.331,14.977.61,4.959.889,9.966,1.581,14.925a31.885,31.885,0,0,0,1.945,7.4,100,100,0,0,1,3.672,12.413c1.529,6.083,2.988,12.186,4.553,18.259,1.545,6,2.9,12.034,4.395,18.04a2.118,2.118,0,0,1-.006,1.773c-.244.012-.487.033-.731.036-1.588.014-1.656-.111-1.932-1.639q-.849-4.706-1.985-9.354c-.627-2.584-1.106-5.2-1.687-7.8-.536-2.4-1.115-4.79-1.68-7.183-.743-3.146-1.44-6.3-2.252-9.43-.739-2.849-1.578-5.672-2.425-8.491-.51-1.7-1.131-3.363-1.679-5.049a2.186,2.186,0,0,0-.708-1c0,.755-.055,1.416.012,2.064a46.692,46.692,0,0,1,.166,4.881c-.017,7.859.4,15.708.593,23.562.119,4.869.276,9.756.675,14.62.106,1.3.184,2.594.22,3.9.021.78-.269,1-.99.939-.647-.056-1.3-.034-1.952-.047a1.974,1.974,0,0,1-.379-1.5c-.018-1.182-.007-2.364-.008-3.546,0-.683-.326-.961-.99-.9-.285.027-.567.059-.847.111-6.409,1.19-12.879,1.813-19.37,2.388-8.1.718-16.2.385-24.3.374-3.688,0-7.388-.446-11.078-.76-5.478-.466-10.924-1.149-16.355-1.975-.838-.127-1.1.245-1.1,1,0,1.1.011,2.2-.008,3.3A1.98,1.98,0,0,1,4255.7,2584.085Z" transform="translate(-3.034 -299.757)"/><path class="e" d="M4546.2,2663.348c-1.063-4.606-2.064-9.227-3.216-13.811-.648-2.58-1.339-5.155-1.992-7.732-.883-3.486-1.727-6.985-2.6-10.475-.7-2.786-1.384-5.574-2.107-8.354a83.261,83.261,0,0,0-3.063-10.077,24.42,24.42,0,0,1-1.675-5.752c-.338-2.442-.727-4.879-.962-7.331-.29-3.021-.65-6.033-.8-9.072-.112-2.219-.616-4.434-.418-6.664.32-3.586.5-7.182.876-10.767a70.762,70.762,0,0,0,.063-7.328.955.955,0,0,0-.135-.462c-.176-.3-.2-.854-.611-.787-.257.041-.539.488-.646.807a54.978,54.978,0,0,0-1.749,7.175c-.49,2.537-.942,5.084-1.305,7.642a43.385,43.385,0,0,0-.083,8.279c.069,1.369.336,2.725.407,4.1.192,3.759.477,7.51.907,11.253.2,1.729.012,3.487.293,5.223.449,2.762.105,5.593.682,8.346.1.483-.007.738-.571.822-4.077.606-8.167,1.067-12.266,1.5-4.3.456-8.622.722-12.926,1.153-1.369.136-2.747.229-4.123.264-6.414.165-12.827.806-19.24.449-4.522-.252-9.062-.183-13.573-.861-2.351-.354-4.724-.574-7.066-1.027-.51-.1-.794-.166-.828-.772a22.139,22.139,0,0,1,2.642-12.413,8.107,8.107,0,0,1,2.872-3.025c3.819-2.337,7.68-4.608,11.461-7,2.774-1.757,5.487-3.617,8.161-5.526,3.1-2.21,6.23-4.393,9.147-6.828,3.074-2.567,6.329-4.951,8.995-7.986.543-.15.813.278,1.131.562q1.142,1.017,2.313,2c1.012.844,1.478.71,1.944-.547a26.26,26.26,0,0,0,.83-3.313c.554-2.418,1.147-4.83,1.6-7.271a2.564,2.564,0,0,1,.471-1.116,32.146,32.146,0,0,0,5.6-10.989c.07-.264.08-.588.475-.6,1.31.512,2.707.251,4.061.436,3.6.491,7.234.726,10.749,1.742a9.226,9.226,0,0,1,3.315,1.931c3.622,3.02,5.834,7.064,8.076,11.1a73.825,73.825,0,0,1,4.979,11.745c1.192,3.428,2.262,6.9,3.321,10.372.976,3.2,1.92,6.4,2.778,9.633s1.53,6.52,2.4,9.751c.73,2.695,1.2,5.44,1.761,8.166.59,2.887.991,5.817,1.377,8.742.487,3.691.882,7.393,1.277,11.1.507,4.763.8,9.538,1.128,14.31a83.954,83.954,0,0,1,.305,8.414c-.02.663-.177.934-.891.927C4555.239,2663.359,4550.721,2663.359,4546.2,2663.348Z" transform="translate(-202.367 -379.018)"/><path class="e" d="M4231.792,2514.408a23.965,23.965,0,0,1-.879,5.624c-.564,2.515-1.154,5.027-1.835,7.512a23.568,23.568,0,0,1-2.024,5.306,7.172,7.172,0,0,1-4.084,3.079,10.12,10.12,0,0,1-9.2-.889c-3.633-2.283-5.067-5.877-5.479-10.034a53.043,53.043,0,0,1-.195-7.063c.183-5.393.339-10.793.766-16.169.3-3.791.541-7.594.981-11.368a59.414,59.414,0,0,1,.744-6.018,1.441,1.441,0,0,1,1.671-1.319c1.753.019,2.107-.558,1.435-2.181-.354-.854-.743-1.692-1.111-2.54a.9.9,0,0,1,0-.932c.29-.37.554-.011.841.1a23.775,23.775,0,0,0,7.431,1.643,21.873,21.873,0,0,0,9.667-1.4,2.525,2.525,0,0,1,.726-.067c.2.817-.5,1.336-.678,2.034a29.841,29.841,0,0,0-.988,7.793c.046,4.1-.11,8.208.245,12.309a135.59,135.59,0,0,0,1.478,13.627A1.626,1.626,0,0,0,4231.792,2514.408Z" transform="translate(-14.072 -320.282)"/><path class="f" d="M4499.225,2347.028c-.564-1.251-.066-2.673-.651-4.011-.079.218-.146.361-.182.511a96.808,96.808,0,0,1-3.7,11.749,22.514,22.514,0,0,1-6.873,9.934,4.974,4.974,0,0,1-7.059-.447,18.972,18.972,0,0,1-3.317-6.536.762.762,0,0,0-1.134-.333c-.224.233-.089.437.051.641.336.325.861.527.746,1.144-.109.825-.347,1.63-.434,2.461a8.081,8.081,0,0,1-.438,2.379,17.855,17.855,0,0,1-3.171,7.2,6.322,6.322,0,0,1-2.949,2.486c-2.3.847-4.126.833-5.343-1.468a1.7,1.7,0,0,0-1.631-.1,9.4,9.4,0,0,1-5.278.014,3.213,3.213,0,0,0-1.327-.1c-.621.191-.967.729-1.426,1.122a3.548,3.548,0,0,1-2.51,1.1,5.921,5.921,0,0,1-5.355-3.253,17.972,17.972,0,0,1-1.969-8.356,2.462,2.462,0,0,0-.136-.737c-.4-.536-.313-1.324-.918-1.751-.812,1.383-1.54,2.824-2.454,4.136-1.609,2.309-3.668,3.985-6.713,3.439a10.8,10.8,0,0,1-5.838-3.061c-3.574-3.655-5.522-8.2-6.794-13.1-.312-1.2-.177-2.519-.91-3.607-.658.928-.362,1.961-.279,2.949.1,1.215.261,2.425.392,3.638a29.679,29.679,0,0,0,2.306,9.774,14.335,14.335,0,0,0,.932,1.914c2.364,3.487,4.819,6.866,8.336,9.366a25.116,25.116,0,0,0,12.076,4.886c.7.073,1.451.1,1.9.841,1.037,1.714,2.376,2.292,3.043,3.08,1.73,2.044,4.62,2.233,9.247,2.537a19.4,19.4,0,0,0,6.949-.6,12.787,12.787,0,0,0,4.267-2.485,2.669,2.669,0,0,0,.889-1.408c.872-.418.862-1.659,1.875-1.968a37.042,37.042,0,0,0,8.086-3.193,35.38,35.38,0,0,0,8.352-6.358,34.12,34.12,0,0,0,4.954-6.864,37.026,37.026,0,0,0,3.414-10.007,10.374,10.374,0,0,0,.757-5.679A4.383,4.383,0,0,1,4499.225,2347.028Z" transform="translate(-174.929 -218.922)"/><path class="g" d="M4532.806,2551.5a46.049,46.049,0,0,0-1.43,5.725c-.559,2.061-.956,4.164-1.5,6.229-.322,1.223-1.147,1.427-2.106.611-1.171-1-2.334-2-3.5-3.006a23.477,23.477,0,0,0-6.412-4.919,3.221,3.221,0,0,0-3.435.3,28.387,28.387,0,0,0-6.7,5.932,21.2,21.2,0,0,0-3.353,5.157,1.153,1.153,0,0,1-1.226.831,1.451,1.451,0,0,1-1.13-1.272c-.428-1.937-.467-3.929-.945-5.862a15.057,15.057,0,0,0-3.08-6.613c-1.682-1.9-3.679-1.736-5.226.244a10.694,10.694,0,0,0-2.524,4.489.6.6,0,0,1-.637.466.594.594,0,0,1-.634-.468,6.4,6.4,0,0,1-.391-2.142,37.73,37.73,0,0,1,1.957-9.586,48.8,48.8,0,0,1,3.923-8.8,20.936,20.936,0,0,1,3.268-2.64,8.7,8.7,0,0,1,5.493-1.308,2.722,2.722,0,0,1-1.514,4c-1.66.639-1.719.809-1.3,2.534q1.956,8,3.875,16c.048.2.079.4.134.6.3,1.06.474,1.143,1.243.391,1.455-1.421,2.973-2.775,4.426-4.2,3.518-3.449,6.859-7.069,10.4-10.491a52.866,52.866,0,0,0,3.98-4.3c.626-.555.656-.929-.174-1.408-1.788-1.033-2.067-1.745-1.473-3.112,1.9,0,3.8.033,5.7-.024a2.8,2.8,0,0,1,2.41,1.042c.92,1.087,1.91,2.117,2.869,3.171,1.269.675,1.176,1.866,1.007,2.981-.338,2.235-.662,4.477-1.177,6.682A8.018,8.018,0,0,1,4532.806,2551.5Z" transform="translate(-225.886 -363.757)"/><path class="h" d="M4447.615,2977.231c0-1.752.047-3.506-.007-5.257-.027-.886.3-1.215,1.137-1.038,4.435.938,8.953,1.33,13.441,1.829,2.4.267,4.84.422,7.258.623,8.65.722,17.314.5,25.969.39,3.456-.043,6.934-.459,10.4-.8,3.22-.318,6.416-.822,9.637-1.111a23.585,23.585,0,0,0,4.169-.739c2.689-.744,2.807-.7,2.809,2.067,0,1.345.006,2.69.009,4.035-.365.012-.73.036-1.1.036q-36.313,0-72.625,0C4448.345,2977.268,4447.98,2977.244,4447.615,2977.231Z" transform="translate(-194.953 -692.903)"/><path class="i" d="M4566.323,2519.188c-.339,1.448.445,2.231,1.6,2.871,1.354.746,1.333.782.294,1.773-3.473,3.43-7.29,6.473-10.942,9.7q-3.791,3.352-7.837,6.412c-.821.62-1.064.5-1.282-.488-.705-3.213-1.245-6.457-1.839-9.691a7.169,7.169,0,0,1-.12-.968c-.077-1.735.06-2.022,1.681-2.665a58.019,58.019,0,0,0,8.222-3.988,37.048,37.048,0,0,0,9.2-7.546c.2-.232.319-.593.729-.558C4566.167,2515.755,4565.895,2517.492,4566.323,2519.188Z" transform="translate(-269.39 -348.061)"/><path class="j" d="M4388.739,2361.364a37.7,37.7,0,0,1,1.029,4.927c.507,2.293,1.255,4.514,1.912,6.762-.7,1.287-1.421,1.573-2.759.939a6.554,6.554,0,0,1-2.042-1.246c.519-.331,1.312-.126,1.6-.78a2.651,2.651,0,0,0,.157-1.894c-2.981.855-4.326.284-5.854-2.482-.325-.587-.925-1.042-.866-1.812.817.1,1.585.695,2.457.247a7.1,7.1,0,0,0,1.754-1.4,5.411,5.411,0,0,1,1.6-1.6C4388.116,2362.5,4388.669,2362.08,4388.739,2361.364Z" transform="translate(-145.349 -232.775)"/><path class="k" d="M4669.2,2564.418c.564-3.115,1.139-6.229,1.688-9.347a3.65,3.65,0,0,0-.692-3.074c1.494-.219,2.951.269,4.436.24.292-.006.434.163.4.461A30.784,30.784,0,0,1,4669.2,2564.418Z" transform="translate(-362.281 -376.68)"/><path class="b" d="M4381.98,2295.371c.183-.453.3-.875,1.006-.57a3.848,3.848,0,0,0,2.274.251c.568-.112.676.2.569.6a10.1,10.1,0,0,1-1.535,3.915c-.479.6-1.139,1.159-1.854.179Q4382.21,2297.559,4381.98,2295.371Z" transform="translate(-145.399 -182.435)"/><path class="l" d="M4384.6,2371.343a2.092,2.092,0,0,1-2.667-.46,2.744,2.744,0,0,1,2.478-2.486,18.662,18.662,0,0,1,3.335-.265l-1.447,1.732C4385.815,2370.456,4384.733,2370.355,4384.6,2371.343Z" transform="translate(-145.36 -237.88)"/><path class="j" d="M4736.144,2372.7q.379-2.84.757-5.679c.848,1.4,1.455,3.026,3.349,3.584C4738.964,2371.63,4737.773,2372.587,4736.144,2372.7Z" transform="translate(-412.83 -237.049)"/><path class="e" d="M4493.477,2885.72c-5.847.46-12.111.334-18.37.27a115.558,115.558,0,0,1-16.466-1.124,34.273,34.273,0,0,0-4.32-.592c-1.28-.034-.9-1.079-.77-1.749.241-1.27.648-2.507.968-3.763a4.952,4.952,0,0,0,.159-1.075c.055-1.921.091-2.1,1.954-1.656,3.556.848,7.195,1.034,10.787,1.57,1.866.278,3.779.417,5.67.554a211.062,211.062,0,0,0,22.045.482c3.914-.128,7.827-.452,11.734-.852,3.016-.309,6.022-.691,9.018-1.111s5.946-1.149,8.906-1.788c.726-.156,1.261-.154,1.257.741-.012,2.154.374,4.286.282,6.449-.039.916-.415,1.174-1.241,1.256-4.622.458-9.231,1.1-13.863,1.383-2.545.158-5.08.526-7.629.545C4500.351,2885.286,4497.141,2885.951,4493.477,2885.72Z" transform="translate(-199.327 -620.479)"/><path class="m" d="M4425.554,2111.52c-1.167,1.123-2.38,2.2-3.49,3.375a31.042,31.042,0,0,0-6.26,10.573,51.269,51.269,0,0,0-2.624,11.179q-.537,3.918-.813,7.853c-.173,2.48-.318,6.9-.065,6.923.276.024.541-5.211,1.8-11.645,1.6-8.139,3.546-17.448,10.678-24.369a28.573,28.573,0,0,1,5.378-4.095A14.508,14.508,0,0,0,4425.554,2111.52Z" transform="translate(-168.192 -43.9)"/><path class="n" d="M4712.5,2142.474a18.334,18.334,0,0,0,2.963,1.278,6.565,6.565,0,0,0,4.356-.464c.154-.079.385-.01.8-.01a6.822,6.822,0,0,1-2.692,2.125c-1.591.862-1.679,1.221-.646,2.668a30.609,30.609,0,0,1,3.168,5.429c.525,1.194.393,1.457-.857,1.7-1.315.254-1.56.714-.982,1.88.793,1.6,1.609,3.188,2.39,4.792.708,1.453.5,2.225-.817,3.208-1,.744-1.083,1.391-.31,2.351a8.145,8.145,0,0,0,.709.832,5.408,5.408,0,0,1,1.945,5.307c-1.327.329-2.528,1.2-4,.918-.5-1.247-.189-2.574-.368-3.861a44.209,44.209,0,0,1-.353-4.489c-.235-6.767-1.288-13.353-4.151-19.561-.426-.923-.738-1.9-1.132-2.834C4712.349,2143.335,4712.161,2142.9,4712.5,2142.474Z" transform="translate(-394.833 -67.491)"/><path class="o" d="M4741.2,2294.763a16.073,16.073,0,0,1-1.964,3.888,10.246,10.246,0,0,0-1.309,2.312c-.138.382-.467.866-.985.735-.42-.107-.5-.6-.591-1a1.376,1.376,0,0,1-.017-.365c.149-3-.357-5.99-.257-8.993.836-.408,1.752-.733,1.939-1.832a1.486,1.486,0,0,1,1.981.57,10.707,10.707,0,0,1-1.1,4.327Z" transform="translate(-412.767 -178.399)"/><path class="l" d="M4757.08,2180.485a3.441,3.441,0,0,1,2.691,2.451A5.939,5.939,0,0,1,4757.08,2180.485Z" transform="translate(-428.638 -96.193)"/><path class="p" d="M4553.832,2388.276l.243.475c-.12.123-.287.227-.434.164a6.791,6.791,0,0,0-3.521-.072,5.858,5.858,0,0,1-3.273-.785,3.8,3.8,0,0,0-1.274-.438c.531.729.284,1.126-.528,1.19a9.223,9.223,0,0,1-6.595-1.608c-1.3-.985-1.777-.971-3.186-.109a13.529,13.529,0,0,1-8.458,1.66c-.081-.007-.209,0-.233-.047-.567-1.189-1.58-.289-2.352-.509a.6.6,0,0,1-.346-.794.584.584,0,0,1,.243-.271c1.371-.514,2.839-.713,4.186-1.321.507-.229,1.223-.533,1.522.107.254.541-.443.859-.834,1.194-.109.094-.306.106-.314.322,1.673-.463,3.457-.51,4.917-1.653,1.152-.9,1.2-.845.157-1.825-.18-.17-.348-.353-.206-.632a.509.509,0,0,1,.509.054,43.083,43.083,0,0,0,6.824-.258c-.108.777-.868.72-1.339,1.011-.979.6-1.047,1.07-.069,1.655a13.517,13.517,0,0,0,3.752,1.573c-.1-.741-.645-1.018-.976-1.44-.238-.3-.7-.581-.4-1.029.272-.4.729-.276,1.112-.115a28.4,28.4,0,0,1,3.979,1.809,6.458,6.458,0,0,0,2.139.838c.236.047.519.107.678-.115.171-.24-.058-.447-.167-.657-.227-.436-.979-.88-.534-1.314.588-.573,1.271.005,1.86.356a5.166,5.166,0,0,0,2.442,1.941C4553.6,2387.787,4553.922,2387.882,4553.832,2388.276Z" transform="translate(-252.517 -249.204)"/><path class="q" d="M4595.36,2384.917c-.608,0-1.052-.669-1.817-.4.358.5.69.969,1.035,1.435.528.714.2.921-.526.918a4.393,4.393,0,0,1-2.416-.722,45.006,45.006,0,0,0-4.582-2.156c-.151-.078-.377-.01-.679-.01.414.908,1.237,1.311,1.66,2.038.126.218.292.432.131.667a.527.527,0,0,1-.669.127,23.288,23.288,0,0,1-3.854-1.754c-1.263-.859-1.226-1.353.094-2.041.533-.277,1.068-.547,1.6-.821a13.845,13.845,0,0,1,5.293-.087,7.617,7.617,0,0,1,3.261.854C4594.523,2383.51,4595.306,2383.939,4595.36,2384.917Z" transform="translate(-296.979 -248.282)"/><path class="r" d="M4523.639,2382.593l-.52.014a2.183,2.183,0,0,1-1.736.328,12.625,12.625,0,0,0-6,1.236,10.08,10.08,0,0,0-2.956,1.871.813.813,0,0,0-.237,1.141c-.291.679-.882.613-1.456.6-.833-.157-.782-.674-.515-1.276a6.338,6.338,0,0,1,2.4-2.689l2.933-1.169a.7.7,0,0,1,.963-.073,21.064,21.064,0,0,1,5.041-.468A4.943,4.943,0,0,1,4523.639,2382.593Z" transform="translate(-242.101 -248.417)"/><path class="s" d="M4506.6,2389.16a13.854,13.854,0,0,0-2.177,2.9c-.129.312-.47.694.218.782.29.252.669.03.979.183.189.292.063.563-.052.835-.1.152-.219.28-.43.2-.772,0-1.545.008-2.317,0-.743,0-.882-.311-.624-1.014C4502.97,2390.942,4504.762,2390.034,4506.6,2389.16Z" transform="translate(-236.085 -253.764)"/><path class="q" d="M4636.858,2392.214l-.493-.48a9.937,9.937,0,0,1-2.487-2.856.394.394,0,0,1,.051-.542,8.682,8.682,0,0,1,3.2,2.07,3.018,3.018,0,0,1,.925,2.043A2.032,2.032,0,0,0,4636.858,2392.214Z" transform="translate(-335.544 -253.141)"/><path class="t" d="M4629.817,2386.763a36.573,36.573,0,0,0,2.437,3.4,2.9,2.9,0,0,1-2.441-1.957l-1.466-1.951Z" transform="translate(-331.432 -251.569)"/><path class="u" d="M4516.176,2411.4c-.661-.406-.421-1.177-.7-1.737-.006-.082-.011-.164-.017-.245.044-.586-.054-1.235.678-1.514a.565.565,0,0,1,.293.295C4516.566,2409.288,4516.87,2410.386,4516.176,2411.4Z" transform="translate(-246.187 -267.921)"/><path class="v" d="M4515.249,2407.887l-.512,1.438c-.384-.347-.166-.8-.216-1.209l.249-.223A.314.314,0,0,1,4515.249,2407.887Z" transform="translate(-245.468 -267.824)"/><path class="w" d="M4533.484,2382.468l-.963.072a.8.8,0,0,1,.82-.6C4533.553,2381.956,4533.482,2382.274,4533.484,2382.468Z" transform="translate(-259.073 -248.314)"/><path class="b" d="M4607.469,2412.448c-.479,4.388-1.937,8.36-5.223,11.428a5.305,5.305,0,0,1-5.174,1.262,2.17,2.17,0,0,1-1.817-1.884c-.107-.613.479-.649.775-.923.363-.336,1.086-.517.821-1.156-.222-.534-.843-.3-1.312-.26-.506.042-1.046.278-1.432-.287a4.388,4.388,0,0,1-.031-2.369c.251-.529.784-.688,1.252-.915a7.3,7.3,0,0,0,2.968-2.649,3.794,3.794,0,0,0,.5-3.707c-.1-.258-.275-.515-.06-.8a2.748,2.748,0,0,1,1.832-.52,27.234,27.234,0,0,1,4.471.1c.888.586.588,1.448.414,2.2a15.04,15.04,0,0,1-1.81,4.5,3.481,3.481,0,0,0-.568,1.212,4.576,4.576,0,0,0,2.27-1.981,17.825,17.825,0,0,0,1.343-2.453C4606.857,2412.907,4606.926,2412.433,4607.469,2412.448Z" transform="translate(-305.442 -269.217)"/><path class="b" d="M4530.127,2423.088a4.873,4.873,0,0,0-.414.442c-2.579,3.531-7.543,1.653-9.059-1.321a17.567,17.567,0,0,1-2.034-8.724c.7.075.793.748,1.106,1.18a6.559,6.559,0,0,0,2.5,2.489,21.209,21.209,0,0,0-1.308-2.815,15.029,15.029,0,0,1-1.011-2.612c-.167-.649-.378-1.373.366-1.876a10.838,10.838,0,0,1,5.111.387.567.567,0,0,1,.143.562c-.939,2.977,1.827,6.057,4.407,6.932.371.126.818.144,1.009.59a3.56,3.56,0,0,1,0,2.233c-.709.563-1.448.282-2.189.083-.411-.11-.953-.433-1.2.078-.254.529.3.846.663,1.156C4528.792,2422.37,4529.669,2422.4,4530.127,2423.088Z" transform="translate(-248.568 -269.277)"/><path class="x" d="M4523.723,2397.221l2.526-.559c-.653.961-.406.891.507.959a16.963,16.963,0,0,0,5.729-.626,12.973,12.973,0,0,0,2.679-1.356,2.061,2.061,0,0,1,2.651.251c1.948,1.741,4.368,1.945,6.846,1.8a.584.584,0,0,0,.411-.175c.143-.224-.067-.362-.223-.483-.127-.1-.283-.163-.405-.267a2,2,0,1,1,2.205.265,6.07,6.07,0,0,0,3.516.66c.312-.009.756.2.776-.438.009-.314.29-.21.448-.079a4.96,4.96,0,0,0,2.148.758,1.008,1.008,0,0,1,.962.99,6.706,6.706,0,0,1-2.838-.126c-2.92-.1-5.839.133-8.759.02a23.132,23.132,0,0,1-5.74-1,3.549,3.549,0,0,0-2.23.034,16.63,16.63,0,0,1-8.006.989c-1.035-.181-2.108.016-3.16-.089a1.287,1.287,0,0,1-.387-.122c-.429-.318-.209-.694-.094-1.062A.818.818,0,0,1,4523.723,2397.221Z" transform="translate(-251.978 -258.38)"/><path class="m" d="M4555.981,2454.9a5.578,5.578,0,0,1-2.619-1.412c-.332-.388-.686-.836-.423-1.276.317-.533.99-.413,1.439-.189a4.943,4.943,0,0,0,2.254.392c2.216.219,4.451-.042,6.666.241.678-.087,1.356-.184,2.036-.258.425-.046.822.007.981.5a.951.951,0,0,1-.4,1.064c-.531.425-1.118.779-1.682,1.163-.581-.437-1.231-.129-1.727.043C4560.274,2455.94,4558.14,2455.349,4555.981,2454.9Z" transform="translate(-274.422 -301.087)"/><path class="y" d="M4515.459,2559.514a3.963,3.963,0,0,1-1.335-.709c-1.051-.551-1.984-1.3-3.378-.742-1.033.417-1.585-.159-1.272-1.265.707-2.5.967-5.078,1.539-7.6.346-1.525.588-3.069,1.057-4.573a2.7,2.7,0,0,1,1.474-1.653c.29-.146.683-.645,1.05-.128a1,1,0,0,1,0,1.353c-.8.744-.646,1.559-.59,2.538.194,3.4.9,6.733,1.066,10.129C4515.111,2557.732,4515.318,2558.594,4515.459,2559.514Z" transform="translate(-241.604 -369.638)"/><path class="z" d="M4392.068,2376.706c-.475-.481-.189-.765.273-.96s.949-.348,1.425-.519C4393.408,2375.958,4392.667,2376.25,4392.068,2376.706Z" transform="translate(-152.832 -243.243)"/><path class="q" d="M4526.548,2385.666a9.485,9.485,0,0,1,5.257-1.465c.933-.022,1.867,0,2.8,0,.042.068.07.16.131.2,1.86,1.247,1.835,1.21-.08,2.564-1.726,1.221-3.743,1.235-5.961,1.776.69-.97,1.667-1.112,2.22-2.162-2.048.358-3.729,1.335-5.59,1.528C4525.013,2386.932,4525.821,2386.319,4526.548,2385.666Z" transform="translate(-253.588 -250.012)"/><path class="aa" d="M4519.417,2390.215a8.838,8.838,0,0,0-1.221,2.442l-.249.008a1.444,1.444,0,0,1-1.465.48c-.637.009-.944-.208-.351-.724C4517.131,2391.552,4518.032,2390.515,4519.417,2390.215Z" transform="translate(-246.457 -254.561)"/><path class="ab" d="M4514.017,2400.7c.423-.357.977-.321,1.465-.48.01.271-.035.562.254.737l-.254.244c-.61.407-1.232.722-1.952.242-.337-.042-.722.1-.981-.248C4513.076,2401.141,4513.7,2401.386,4514.017,2400.7Z" transform="translate(-243.992 -262.114)"/><path class="ac" d="M4515.822,2404.467l1.952-.242a1.5,1.5,0,0,1-.23.937l-1.236.04-.122,0-.122,0-.48.006Z" transform="translate(-246.284 -265.14)"/><path class="ad" d="M4550.572,2418.275a7.9,7.9,0,0,1-5.159-3.913,3.96,3.96,0,0,1-.22-3.89c.455-.76,1.28-.593,1.958-.742a9.266,9.266,0,0,1,2.3-.086c2.219-.032,4.438,0,6.657,0a21.964,21.964,0,0,1,4.322.264,1.552,1.552,0,0,1,1.161.548,3.229,3.229,0,0,1,.258,3.8,8,8,0,0,1-4.692,3.88,2.13,2.13,0,0,1-1.477.739,30.409,30.409,0,0,1-3.991.009A1.206,1.206,0,0,1,4550.572,2418.275Z" transform="translate(-268.327 -269.21)"/><path class="ae" d="M4548.255,2404.735h0c-2.156,0-4.316-.081-6.469.023a22.946,22.946,0,0,1-7.649-.917,4.852,4.852,0,0,0-3.313.063,13.916,13.916,0,0,1-6.309.987,41.9,41.9,0,0,0-4.62-.154h0l-.229-.061a.875.875,0,0,0-1.236.04q-.019,1.711-.036,3.422c.022.241.043.483.064.724.981,1.417,1.7,3.055,3.307,3.948.218.121.431.28.659.093s.13-.442.013-.661-.272-.4-.374-.622c-.923-1.988-2.285-3.822-2.163-6.177h0a17.65,17.65,0,0,1,5.372.471,15.7,15.7,0,0,1,4.175-.5,8.374,8.374,0,0,0,2.558-.71.939.939,0,0,1,.947-.022c1.028.609,2.215.438,3.3.727a32.328,32.328,0,0,1,5.414.492,1.99,1.99,0,0,1,.419-.207c2.037-.478,4.106-.158,6.16-.241h0c.148,3.011-1.446,5.414-2.826,7.9a1.364,1.364,0,0,0,1.672-.358c1.624-1.378,2.336-3.335,3.339-5.11q.246-1.345.493-2.691C4550.084,2404.759,4549.114,2405.074,4548.255,2404.735Z" transform="translate(-248.405 -264.654)"/><path class="p" d="M4568.188,2444.532a12.549,12.549,0,0,0,6.583-.144q.025,1.322.049,2.645c-2.235.3-4.471.583-6.665-.241C4568.354,2446.042,4567.939,2445.282,4568.188,2444.532Z" transform="translate(-285.944 -295.467)"/><path class="af" d="M4568.625,2415.812a20.868,20.868,0,0,1-11.718.019c-.417-1.174-.159-1.661,1-1.675q4.582-.055,9.164,0C4568.251,2414.172,4568.608,2414.606,4568.625,2415.812Z" transform="translate(-277.346 -272.618)"/><path class="ag" d="M4562.849,2415.022c-.267-1.161-1.044-1.462-2.157-1.441-2.713.051-5.428.066-8.139-.005-1.136-.03-1.592.349-1.422,1.465a1,1,0,0,1-.361.014c-.7-.255-1.748-.418-1.7-1.248.061-.969,1.113-.685,1.8-.688,3.57-.019,7.141-.01,10.712-.008.405,0,.811.017,1.216.025.732.014,1.834.065,1.857.705C4564.683,2414.588,4563.711,2414.991,4562.849,2415.022Z" transform="translate(-271.569 -271.827)"/><path class="b" d="M4563.525,2408.074c2.269-1.556,4.538-.989,6.809-.005Z" transform="translate(-282.485 -267.317)"/><path class="m" d="M4557.11,2508.074a21.859,21.859,0,0,1-5,5.076,45.919,45.919,0,0,1-12.958,7.243c-1.577.586-1.862,1.267-1.522,3.131.493,2.7.918,5.408,1.462,8.1a11.442,11.442,0,0,1,.507,2.731c2.165-1.755,4.156-3.36,6.137-4.977,3.228-2.634,6.256-5.5,9.51-8.109,1.092-.875,2.075-1.916,3.155-2.832.273-.231.475-.575.9-.567a69.91,69.91,0,0,1-5.538,5.87c-3.758,3.714-7.42,7.528-11.153,11.268-1.038,1.041-2.187,1.97-3.466,3.112-.718-2.974-1.381-5.737-2.051-8.5-.561-2.308-1.121-4.616-1.7-6.919-.3-1.215-.7-2.409-.94-3.635-.151-.77-.23-1.464.918-1.862,2.519-.871,2.536-1.068,2.425-4q.031-.477.062-.954c.416-.879.038-1.854.3-2.752,1.871.235,3.669,1.049,5.541.746,2.446-.4,4.888.322,7.365-.336a12.335,12.335,0,0,0,6.035-3.772Z" transform="translate(-260.464 -342.093)"/><path class="b" d="M4480.27,2147.525c-1.021-.13-1.542.277-1.477,1.35a4.088,4.088,0,0,1-.064.727c-.25,2.089.039,3.955,2.094,5.1.608.338.512.9.36,1.4-.167.553-.629.51-1.109.412a7.138,7.138,0,0,0-2.268-.373,2.029,2.029,0,0,0-.667.855c-.706,1.751-1.957,3.186-2.792,4.861-.134.274-.267.676-.675.565-.373-.1-.346-.507-.388-.825a2.326,2.326,0,0,1-.017-.487c.149-2.444-.289-4.869-.262-7.308v-.038a8.506,8.506,0,0,0,2.055-2.781,5.156,5.156,0,0,1,1.541.476,45.156,45.156,0,0,0,.459-5.605c-1.348-.2-2.469.531-3.678.9-.1-.226-.2-.442-.285-.639-.017-1.1-.318-2.135-.44-3.22-.541-4.817-.4-9.7-1.391-14.478a46.81,46.81,0,0,0-2.38-8.466,50.739,50.739,0,0,1-2.309-5.816c-.162-.238-.326-.475-.49-.715a4.629,4.629,0,0,1-1.582-.825l-.066-.127a2.785,2.785,0,0,0-.894-.975,8.694,8.694,0,0,1-3.306-4.07c-.063-.191-.179-.406-.416-.35-.211.049-.285.277-.314.477a11.282,11.282,0,0,0,.262,2.64c.411.965,1.447,1.119,2.182,1.663.791.585,1.641,1.1,1.663,2.241a2.446,2.446,0,0,1-.664,2.265c0,.654-.6.705-.981.982-.377.255-.971.27-1.072.823-.13-.336-.349-.642-.665-.48-.683.358-1.939,1.342-2.357.884a2.651,2.651,0,0,0-1.653.064c-.458.578.108.862.372,1.195.933,1.163.884,1.773-.272,2.736a1.315,1.315,0,0,0-.424.421,2.368,2.368,0,0,1-2.476,2.939,11.277,11.277,0,0,1-2.963-.552c-1.075-.445-2.26-.156-3.355-.538-2.258-.786-3.642-2.535-4.9-4.4a50.238,50.238,0,0,1-4.545-9.034c-1.212-2.9-3.059-5.231-6.659-5.182a1.721,1.721,0,0,1-.71-.167,3.973,3.973,0,0,0-2.63-.1,19.8,19.8,0,0,0-5.748,2.3c-1.981,1.207-2.938.987-4.437-.7a5.941,5.941,0,0,0-3.676-.742,9.535,9.535,0,0,0-2.946-.213,14.486,14.486,0,0,0-4.609.206c-1.166,1.122-2.38,2.2-3.49,3.375a31.007,31.007,0,0,0-6.26,10.574,51.292,51.292,0,0,0-2.625,11.18q-.535,3.916-.813,7.851c-.142,2.067-.051,4.151-.066,6.228,0,.639-.091,1.1-.964.943a14.2,14.2,0,0,0-2.192-.056,12.758,12.758,0,0,0,.209,3.426,15.6,15.6,0,0,1,.78,2.789c-.107,1.269.56,2.436.534,3.713-.015.774.817,1.839.351,2.26s-1.606.173-2.45.177c-2.362.012-2.362,0-1.434,2.247.179.445.344.9.54,1.334.994,2.22,1.878,4.529,4.4,5.529.239.5-.075,1.007.026,1.534a58.99,58.99,0,0,0,1.875,7.887c.265.785.314,1.688,1.041,2.268a4,4,0,0,1,.22.4,23.825,23.825,0,0,0,2.443,5.238c-.523-2.394-1.284-4.722-1.589-7.18-.335-2.7-.742-5.4-.817-8.121a41.452,41.452,0,0,0,2.886,9.1c1.878,3.843,4.134,7.273,8.192,9.137,3.271,1.5,5.909,1.1,8.313-1.428a17.006,17.006,0,0,0,3.451-5.552,1.428,1.428,0,0,0,.018-.382,3.013,3.013,0,0,0-.335-1.237,2.271,2.271,0,0,0-1.409-.252c-1.4-.044-1.6-.363-.837-1.548a8.988,8.988,0,0,1,3.722-2.821,17.2,17.2,0,0,0,2.944-1.166c.389-.637.827-.206,1.251-.064,2.29-.35,4.582-.713,6.865.059a24.548,24.548,0,0,0,6.6-.24,18.593,18.593,0,0,1,8.361.654,13.507,13.507,0,0,1,1.569.6c.409.176.823.34,1.212.543,1.433.752,2.653,1.7,2.875,3.465a20.567,20.567,0,0,0,2.263,5.255c2.012,3.309,5.451,4.1,8.432,1.859a18.7,18.7,0,0,0,3.984-4.109,33.659,33.659,0,0,0,4.33-9.257c.925-2.826,2.045-5.6,2.326-8.268.079.646.093,1.619.186,2.583.027.277.111.581.5.561a8.878,8.878,0,0,0,4.186-3.48,49.982,49.982,0,0,0,3.78-6.686C4483.184,2154.086,4483.262,2150.577,4480.27,2147.525Zm-7.991,2.58c-.009,0-.014-.008-.013-.011Z" transform="translate(-149.374 -39.772)"/><path class="c" d="M4742.629,2230.9c2.116-3.635,2.35-4.791,2.028-5.052-.173-.141-.45.081-1.664.314-.726.139-1.444.29-2.159.465a4.312,4.312,0,0,1-.928,1.048,1.745,1.745,0,0,0-.235,2.762,5.253,5.253,0,0,0,.639.737,5.494,5.494,0,0,1,1.883,5.356c-.176,1.766-.215,3.544-.379,5.314-.287.93-.26,1.922-.566,2.848-.617,1.871-.57,1.949,1.394,2.184.2.022.4.022.607.024.4.022.8.125,1.2.159.828.071,1.836.742,2.382-.394.529-1.1-.362-1.65-1.069-2.287-1.822-1.639-1.82-5.177-.042-6.395.546-1.64.287-2.52-.029-3.014-.574-.9-1.561-.877-2.351-1.939A3.9,3.9,0,0,1,4742.629,2230.9Z" transform="translate(-415.064 -130.416)"/><path class="c" d="M4376.339,2261.79c-.274-.744-.825-1.445-.389-2.309-.074-1.1-.062-2.211-.2-3.311a3.512,3.512,0,0,0-.081-.6,6.155,6.155,0,0,1,1.055-5.65,2.51,2.51,0,0,0,.329-.549c-.194-.009-.387-.017-.58-.023l-.8-.022c-.427.683-1.769,1.6-4.7,2.851a4.276,4.276,0,0,0-2.645,2.028c-1.179,2.45,1.3,5.631,2.125,5.947a1.111,1.111,0,0,1,.53.372,1.414,1.414,0,0,1,.214.853c1.073-.507,2.133.13,3.208.056.409-.027.267.419.191.671a16.885,16.885,0,0,1-.8,2.415c-.429.921-1,1.56-2.138,1.234-.615.191-1.477.26-1.181,1.2.437,1.376.936,2.78,2.586,3.211a.8.8,0,0,0,.03-.811c-.33-.909.044-1.149.906-1.075a15.628,15.628,0,0,0,2.063,0c1.254-.056,1.469-.289,1.192-1.474C4376.875,2265.145,4376.77,2263.44,4376.339,2261.79Z" transform="translate(-134.858 -148.171)"/><path class="c" d="M4407.1,2203.207a13.045,13.045,0,0,1,.24,1.574,1.19,1.19,0,0,0-.067-1.422A.947.947,0,0,0,4407.1,2203.207Z" transform="translate(-164.364 -113.351)"/><path class="j" d="M4545.521,2122.027c-3.77.576-6.253-1.386-8.212-4.26a42.169,42.169,0,0,1-5-10c-.942-2.715-3.4-4.044-6.2-4.659-2.7-.593-4.906.2-7.208,1.106-.89.352-1.668.981-2.542,1.388-1.25.582-2.866.561-3.616-.6a1.506,1.506,0,0,1-.216-.8,6.494,6.494,0,0,0,3.559-1.006c3.682-2.032,7.569-3.21,11.851-2.432a7.926,7.926,0,0,1,6.311,5.7,42.4,42.4,0,0,0,6.368,11.518A12.868,12.868,0,0,0,4545.521,2122.027Z" transform="translate(-243.976 -35.808)"/><path class="n" d="M4396.7,2153.323c-.629-2.181-.809-4.262.809-6.2a2.084,2.084,0,0,0,.235-2.664c-1.523-2.424-.738-4.719.691-6.9.044-.068.1-.127.143-.2.263-.466.591-1.008.184-1.462s-.9.075-1.358.135c-.374.048-.542.8-1,.4-.361-.311-.227-.868-.154-1.285a9.253,9.253,0,0,1,2.381-4.289c.625-.743,1.241-1.5,1.891-2.218.338-.376.525-.833.258-1.216a.969.969,0,0,0-1.327-.114,17.184,17.184,0,0,0-2.7,1.63c-.228.205-.557.506-.855.288s-.134-.591,0-.9c2.7-6.011,6.558-10.935,12.734-13.748a13.886,13.886,0,0,1,4.479-1.36c.066.6-.412.851-.762,1.16-6.177,5.462-9.17,12.565-10.689,20.476-.638,3.321-.907,6.68-1.35,10.02a22.508,22.508,0,0,0-.073,2.8c-.011,1.424.022,2.849-.014,4.273-.038,1.531-.295,1.776-1.8,1.723C4397.836,2153.666,4397.189,2153.841,4396.7,2153.323Z" transform="translate(-155.78 -45.407)"/><g transform="translate(4272.991 2114.584)"><path class="ah" d="M4533.38,2313.408q-.353,1.322-.705,2.645a3.721,3.721,0,0,0-2,3.607,3.793,3.793,0,0,0,3.883,3.21s5.908,4.114,11.271-.646a3.362,3.362,0,0,0,3.371-.656c1-1.176.645-3.8-1.652-5.339q-.293-5.143-.587-10.286l-.353-1.763h-11.167Q4534.409,2308.794,4533.38,2313.408Z" transform="translate(-4530.652 -2304.18)"/><path class="o" d="M4548.086,2316.646c.384,2.585-.1,3.511-.639,3.869-1.024.684-2.447-.552-3.99.309-.911.508-.676,1.083-1.606,1.705a4.518,4.518,0,0,1-4.984-.184c-1.135-.953-.849-2.19-2.271-2.975-.775-.429-1.234-.268-1.41-.661-.307-.686.924-1.542,2.248-3.7a9.909,9.909,0,0,0,1.168-2.315c.352-1.11.149-1.421.066-5.532,0,0-.006-.289-.044-2.979h-1.185q-1.028,4.614-2.057,9.228-.353,1.322-.705,2.645a3.723,3.723,0,0,0-2,3.607,3.794,3.794,0,0,0,3.884,3.21s5.907,4.114,11.27-.646a3.363,3.363,0,0,0,3.371-.656C4550.115,2320.492,4549.889,2318.209,4548.086,2316.646Z" transform="translate(-4530.654 -2304.18)"/></g><g transform="translate(4240.373 2086.825)"><g transform="translate(13.313 0)"><ellipse class="o" cx="15.539" cy="1.08" rx="15.539" ry="1.08" transform="translate(15.961)"/><ellipse class="o" cx="11.637" cy="1.08" rx="11.637" ry="1.08" transform="translate(18.694 7.097)"/><g transform="translate(21.586 13.007)"><path class="o" d="M4543.039,2247.273c-.021.8-.078,2.931-1.293,4.2a3.027,3.027,0,0,1-1.7.882.076.076,0,0,1-.049-.012c-.156-.119.4-1.045.637-1.516a7.906,7.906,0,0,0,.471-3.556c.021-1.915-.258-2.842.293-3.2a.916.916,0,0,1,.823-.059C4543.117,2244.388,4543.065,2246.294,4543.039,2247.273Z" transform="translate(-4539.966 -2243.941)"/><path class="o" d="M4592.3,2247.273c.022.8.079,2.931,1.293,4.2a3.029,3.029,0,0,0,1.705.882.075.075,0,0,0,.049-.012c.155-.119-.4-1.045-.637-1.516a7.909,7.909,0,0,1-.47-3.556c-.021-1.915.257-2.842-.294-3.2a.916.916,0,0,0-.823-.059C4592.219,2244.388,4592.27,2246.294,4592.3,2247.273Z" transform="translate(-4579.473 -2243.941)"/></g><g transform="translate(0 12.964)"><path class="ai" d="M4451.823,2249.653c0,.176,9.874-2.762,17.28.529,0,0,3.468-4.467-3.291-5.7C4465.813,2244.48,4451.766,2242.717,4451.823,2249.653Z" transform="translate(-4451.823 -2244.153)"/><path class="aj" d="M4451.824,2249.263l.171-.076a21.818,21.818,0,0,1,5.7-1.425c3.127-.306,5.182-.506,7.611.118a3.571,3.571,0,0,0,2.848-.061,1.856,1.856,0,0,0,.881-1.528c-.046-.856-1.042-1.663-2.524-2.026a16.548,16.548,0,0,0-2.167-.392c-.064-.007-.682-.075-1.361-.1a24.734,24.734,0,0,0-5.283.465c-2.285.488-3.671.976-4.723,2.04a3.549,3.549,0,0,0-.807,1.219,3.886,3.886,0,0,0-.32,1.153v.029C4451.843,2248.936,4451.833,2249.131,4451.824,2249.263Z" transform="translate(-4451.824 -2243.763)"/></g><g transform="translate(40.562 12.964)"><path class="ai" d="M4635.623,2249.653c0,.176-9.874-2.762-17.28.529,0,0-3.467-4.467,3.292-5.7C4621.634,2244.48,4635.681,2242.717,4635.623,2249.653Z" transform="translate(-4617.453 -2244.153)"/><path class="aj" d="M4638.564,2249.263l-.172-.076a21.81,21.81,0,0,0-5.7-1.425c-3.128-.306-5.182-.506-7.612.118a3.568,3.568,0,0,1-2.847-.061,1.857,1.857,0,0,1-.882-1.528c.047-.856,1.042-1.663,2.524-2.026a16.577,16.577,0,0,1,2.168-.392c.063-.007.682-.075,1.361-.1a24.723,24.723,0,0,1,5.283.465c2.285.488,3.671.976,4.723,2.04a3.574,3.574,0,0,1,.807,1.219,3.867,3.867,0,0,1,.32,1.153v.029C4638.544,2248.936,4638.556,2249.131,4638.564,2249.263Z" transform="translate(-4620.395 -2243.763)"/></g></g><circle class="ak" cx="9.443" cy="9.443" r="9.443" transform="translate(8.823 32.691)"/><circle class="ak" cx="9.443" cy="9.443" r="9.443" transform="translate(58.895 31.98)"/><path class="al" d="M4621.623,2290.6h-19.675a1.69,1.69,0,0,0-1.788,1.575v6.078a5.147,5.147,0,0,0,1.266,2.691c1.833,2,4.91,2.035,10.409,2.028,5.458,0,8.5-.049,10.31-2.028a5.157,5.157,0,0,0,1.266-2.691v-6.078A1.69,1.69,0,0,0,4621.623,2290.6Z" transform="translate(-4550.52 -2266.167)"/><path class="am" d="M4469.031,2286.2h-19.675a1.69,1.69,0,0,0-1.788,1.575v6.079a5.151,5.151,0,0,0,1.266,2.691c1.833,2,4.911,2.035,10.408,2.028,5.459,0,8.5-.049,10.31-2.028a5.15,5.15,0,0,0,1.267-2.691v-6.079A1.69,1.69,0,0,0,4469.031,2286.2Z" transform="translate(-4435.297 -2262.843)"/><path class="am" d="M4621.623,2290.6h-19.675a1.69,1.69,0,0,0-1.788,1.575v6.078a5.147,5.147,0,0,0,1.266,2.691c1.833,2,4.91,2.035,10.409,2.028,5.458,0,8.5-.049,10.31-2.028a5.157,5.157,0,0,0,1.266-2.691v-6.078A1.69,1.69,0,0,0,4621.623,2290.6Z" transform="translate(-4550.52 -2266.167)"/><path class="an" d="M4548.392,2279.792v-.1h-.109C4548.32,2279.723,4548.356,2279.757,4548.392,2279.792Z" transform="translate(-4511.347 -2257.928)"/><path class="an" d="M4441.795,2279.69Z" transform="translate(-4430.937 -2257.928)"/><path class="ao" d="M4563.189,2285.614a1.69,1.69,0,0,1,1.787-1.575h19.675a1.69,1.69,0,0,1,1.788,1.575h0a1.69,1.69,0,0,0-1.788-1.575h-7.87l.142-.056c1.442-.568,2.89-1.122,4.349-1.645.408-.146.818-.285,1.229-.427h-19.324a2.116,2.116,0,0,0-2.115,2.116v1.256H4551.2v2.116h9.863v3.067q1.061-.449,2.128-.884Z" transform="translate(-4513.548 -2259.605)"/><path class="ao" d="M4618.443,2285.87v-1.831h.458v-.012a2.116,2.116,0,0,0-2.116-2.116h-3.95c-.411.142-.822.281-1.229.427-1.459.524-2.907,1.077-4.35,1.645l-.14.056h7.869a1.69,1.69,0,0,1,1.788,1.575h0v6.078a5.147,5.147,0,0,1-1.266,2.691c-1.814,1.979-4.852,2.023-10.31,2.028-5.5.007-8.577-.03-10.408-2.028a5.141,5.141,0,0,1-1.266-2.691v-2.11q-1.067.434-2.128.884v1.731a7.364,7.364,0,0,0,1.5,3.617c2.164,2.684,5.806,2.733,12.313,2.726,6.458-.01,10.05-.068,12.2-2.726a7.024,7.024,0,0,0,1.345-2.812c.069-.288.118-.559.153-.8v-6.326Z" transform="translate(-4543.902 -2259.605)"/><path class="ao" d="M4618.489,2285.93V2284.1h.458v-.012a2.117,2.117,0,0,0-2.116-2.116h-3.95c-.411.142-.822.281-1.23.427-1.459.524-2.906,1.077-4.35,1.645l-.141.057h7.87a1.691,1.691,0,0,1,1.788,1.575h0v6.078a5.152,5.152,0,0,1-1.267,2.691c-1.814,1.979-4.851,2.023-10.31,2.028-5.5.007-8.576-.03-10.408-2.028a5.148,5.148,0,0,1-1.266-2.691v-2.11q-1.066.434-2.128.884v1.731a7.374,7.374,0,0,0,1.5,3.617c2.165,2.684,5.806,2.733,12.313,2.726,6.458-.01,10.05-.069,12.2-2.726a7.029,7.029,0,0,0,1.345-2.812c.07-.288.118-.559.154-.8v-6.326Z" transform="translate(-4543.935 -2259.65)"/><path class="ao" d="M4409.73,2285.181v-3.969a1.691,1.691,0,0,1,1.789-1.575h19.675a1.689,1.689,0,0,1,1.787,1.575h0a1.689,1.689,0,0,0-1.787-1.575h-7.87l.141-.056c1.442-.568,2.891-1.122,4.35-1.645.407-.146.818-.285,1.229-.427h-19.325a2.107,2.107,0,0,0-1.4.534h0a2.113,2.113,0,0,0-.715,1.582v1.227h-9.228a.916.916,0,0,0,0,1.831h9.228v3.38Q4408.665,2285.615,4409.73,2285.181Z" transform="translate(-4397.46 -2256.281)"/><path class="ao" d="M4466.385,2279.625h0a2.107,2.107,0,0,0-.605-1.479c-.034-.036-.071-.069-.108-.1a2.108,2.108,0,0,0-1.4-.534h-3.95c-.41.142-.822.28-1.229.427-1.46.524-2.907,1.077-4.351,1.646l-.141.056h7.87a1.69,1.69,0,0,1,1.788,1.575h0v6.078a5.147,5.147,0,0,1-1.267,2.692c-1.814,1.979-4.851,2.022-10.31,2.027-5.5.007-8.576-.029-10.408-2.027a5.155,5.155,0,0,1-1.267-2.692v-2.109q-1.066.434-2.128.883v1.731a7.388,7.388,0,0,0,1.5,3.617c2.165,2.684,5.807,2.733,12.313,2.726,6.457-.01,10.051-.069,12.2-2.726a7.367,7.367,0,0,0,1.5-3.617v-8.17Z" transform="translate(-4428.735 -2256.281)"/><path class="ao" d="M4711.147,2290.6h-9.228v1.831h9.228a.916.916,0,0,0,0-1.831Z" transform="translate(-4627.358 -2266.167)"/><circle class="ap" cx="2.968" cy="2.968" r="2.968" transform="translate(20.557 26.11)"/><circle class="ap" cx="2.968" cy="2.968" r="2.968" transform="translate(58.209 27.032)"/></g><path class="aq" d="M4565.136,2180.682" transform="translate(-283.701 -96.341)"/><g transform="translate(4230.831 2053.095)"><path class="aq" d="M4462.5,2090.243c-3.452-8.5-5.934-14.6-11.882-20.6-13.423-13.528-34.163-16.06-39.572-16.55-5.41.49-26.15,3.022-39.573,16.55-5.948,5.994-8.429,12.1-11.882,20.6-.785,1.932-1.75,4.631-.46,6.2,1.39,1.7,4.609,1.114,5.412.95l.775-.21a3.892,3.892,0,0,0,1.479,3.336,3.27,3.27,0,0,0,.293.188,125.351,125.351,0,0,1,87.91,0,3.332,3.332,0,0,0,.294-.188,3.9,3.9,0,0,0,1.479-3.336l.775.21c.8.164,4.021.746,5.412-.95C4464.245,2094.873,4463.281,2092.174,4462.5,2090.243Z" transform="translate(-4358.496 -2053.095)"/><path class="ar" d="M4477.787,2203.9a120.723,120.723,0,0,0-44.8-9.481h-1.864a120.72,120.72,0,0,0-44.8,9.481" transform="translate(-4379.513 -2159.811)"/><path class="as" d="M4481.588,2223.065c-.015-.024-.126.008-.146,0-20.524-8.114-42.717-7.918-42.717-7.918l-.293-.016v.016h-1.448v-.016l-.293.016s-22.191-.2-42.716,7.918c-.02.008-.131-.024-.146,0-.375.628,5.622,4.854,11.25,3.395,0,0,12.406-2.757,31.611-3.114l.293.006v-.006h1.448v.006l.293-.006c19.206.357,31.612,3.114,31.612,3.114C4475.966,2227.919,4481.962,2223.693,4481.588,2223.065Z" transform="translate(-4385.165 -2175.449)"/></g><g transform="translate(4189.426 2095.955)"><path class="at" d="M4233.579,2384.238c2.32-.005,4.641.043,6.959-.025,7-.2,11.947-3.63,14.864-9.9a13.631,13.631,0,0,0,1.121-8.882,3.9,3.9,0,0,1,.953,2.773,16.7,16.7,0,0,1-4.467,11.792,10.915,10.915,0,0,1-3.406,2.869,1.364,1.364,0,0,0-.672,1.333,38.978,38.978,0,0,0,.341,6.565c-.153,1.011-1.043,1.3-1.771,1.425a18.663,18.663,0,0,1-4.194.619c-2.546-.13-5.1.145-7.633-.48-1.556-.384-1.985-.67-2.082-2.273-.074-1.218-.065-2.44-.093-3.66Z" transform="translate(-4222.707 -2331.798)"/><g transform="translate(0 0)"><path class="i" d="M4221.177,2260.078a4.066,4.066,0,0,1-.508-.293c-2.454-1.667-2.755-5.885-2.755-5.885l-.424-21.055a2.284,2.284,0,0,0-4.559,0l-.753,19.147-1.863-.436-.4-21.248a2.428,2.428,0,0,0-4.836.436l-.594,22.357-1.07.634-2.974-20.97a2.308,2.308,0,0,0-4.6.337q1.1,12.635,2.2,25.271l-.654-.02-3.449-13.557a2.351,2.351,0,0,0-4.5,1.249l3.637,18.195s.228,12.011,7.363,16.213c0,0,15.381,5.233,22.833-11.654l10.914-14.353a2.965,2.965,0,0,0-2.342-4.985,3.319,3.319,0,0,0-2.453,1.385Z" transform="translate(-4189.426 -2228.107)"/><path class="at" d="M4239.8,2363.6c-3.125-2.388-2.388-6.773-2.088-8.06.832-3.559,3.869-6.445,7.963-7.592-4.232-3.448-10.446,1.281-11.858,2.449l4.411.429-.451.258a8.51,8.51,0,0,0-4.027,9.855c1.27,3.986,5.852,6.635,9.613,5.56a6.72,6.72,0,0,0,3.187-2.111A7.1,7.1,0,0,1,4239.8,2363.6Z" transform="translate(-4222.616 -2317.668)"/></g></g></g></svg>