<svg xmlns="http://www.w3.org/2000/svg" width="301.4" height="356.787" viewBox="0 0 301.4 356.787"><defs><style>.a{fill:#7d9e85;}</style></defs><path class="a" d="M519.656,657.529a5.3,5.3,0,0,1-1.588,1.385,17.71,17.71,0,0,1-6.8,1.883c-.266.144-.54.277-.81.417.025.1.053.2.07.312-3.018,1.013-4.659,3.411-8.778,3.33a45.659,45.659,0,0,1-13.928,2.3c-.186.063-.365.168-.55.214l-.007.14c-17.1,6.391-40.491-.74-57.154-3.316-3.358-5.055-3.635-13.2-6.647-18.615-.06-11.415-4.035-21.914-5.311-33.883-2.254-21.115,2.948-41.434,14.615-49.168,16.484-6.959,28.505-18.384,39.278-31.061V502.839a6.876,6.876,0,0,1-5.388,3.877c-2.244-4.126,1.3-10.738,5.388-13.269v-14.5c-2.612,7.562-4.883,15.45-9.371,21.122.358,2.57-1.185,3.239-.663,5.974-9.767,13.781-17.388,32.94-29.9,43.853-3.478,3.036-8.011,6.917-13.294,6.643-1.977-2.794.442-5.921.67-8.631-.3-2.37-3.183-2.146-4.659-3.327-4.747-6.913-1.29-15.779,0-25.914,1.129-8.869-1.911-20.105-2.654-29.227-.007-.066-.014-.123-.021-.189-.74-3.492-1.381-6.983-1.774-10.5-1.665-5.287-4.729-8.961-10.836-10.577-10.566-2.787-13.455,15.439-13.29,23.257.442,20.9,8.855,35.93,9.266,54.567.014.112.053.217.056.333a3.863,3.863,0,0,1,.084.939c.126.778.214,1.56.315,2.342l-.186-1.4c.158,1.185.424,2.356.5,3.551.014.235-.052.459-.06.694.056,2.524.063,5.006-.673,6.752l-.035-.011a5.926,5.926,0,0,1-.375,2.819c4.659,14.044,3.359,36.758,6.391,54.98,1.4,8.407,6.531,23.411.666,33.227-20.1-7.642-32.877-31.247-39.874-53.82-.961-3.081-3.246-5.816-2.661-9.3-.873-1.788-1.784-3.53-2.657-5.315-4.337-34.423-6.219-71.3-29.9-86.374-16.267,4.922-10.745,28.957-5.984,42.521,1.567,6.542,9.045,10.272,7.975,17.276-14.363-5.2-31.5-15.338-40.537-25.907a93.316,93.316,0,0,1-8.039-11.176c.028-.035.028-.088.06-.119-.1-.077-.2-.175-.3-.259v.011c-2.328-1.865-3.975-5.175-5.174-6.023,1.2.834,2.84,4.147,5.174,6.012-2.65-4.245-5.15-8.631-7.741-12.947.014-.032.049-.046.06-.084h-.109c-.989-1.641-2-3.274-3.029-4.877v9.781a12.5,12.5,0,0,1,1.15,4.4,2.741,2.741,0,0,1-1.15.529v30.7c7.551,8.273,15.951,14.843,24.014,17.56a4.62,4.62,0,0,1,3.011,1.823l.039-.116c9.259.274,16.312,2.745,24.593,3.986l0,.035a4.717,4.717,0,0,1,1.834.533,5.965,5.965,0,0,1,.817.109c.147.021.312.018.452.049a4.455,4.455,0,0,1,.834-.126,5.074,5.074,0,0,1,2.692.729l.01-.007c7.4,1.777,3.516,13.374,4.656,21.269.449,3.113,2.047,5.651,2.654,7.968,8.046,30.952,23.408,55.692,47.853,70.441,3.593-.052,6.324.771,7.976,2.65.1.038.2.081.3.126a4.964,4.964,0,0,1,1.855.533l0,0c.613.147,1.213.347,1.823.5.929.235,1.869.445,2.794.687,2.145.449,4.14.617,6.521-1.181,7.369,5.041,6.759,18.058,11.3,25.918,4.354,32.638,18.409,62.577,12.624,99.7h5.315c.063-2.37.312-4.572,1.995-5.329,2.776.116,2.493,3.271,3.32,5.329h20.6c-12.459-21.739-19.765-55.254-25.255-84.407-1.35-7.159-6.128-17.781-3.323-23.271-2.92-1.045-3.039-9.76.67-9.956a342.841,342.841,0,0,0,40.54,2.647c10.566.021,21.588,2.149,30.566,0,5.017-1.185,13.662-5.578,19.271-8.635,7.614-4.133,11.933-11.039,15.958-17.953C534.226,652.741,525.451,654.946,519.656,657.529ZM465.994,515.355c-.512,5.693-1.827,10.584-7.313,11.3a4.68,4.68,0,0,0-1.988-1.332C457.752,520.319,461.055,514.289,465.994,515.355ZM453.37,537.942c-1.483,5.4-2.889,10.85-9.963,10.637C441.433,542.594,448.693,537.343,453.37,537.942Zm-17.283,16.617c-2.153,5.378-6.647,8.407-11.962,10.622-.648-.9-2.24-.856-2.657-1.988C423.813,558.167,430.446,554.086,436.087,554.559ZM270.925,503.186c.344.838-.673,1.571.778,1.578C270.248,504.757,271.265,504.031,270.925,503.186Zm4.333,36.081c4.568.978,7.239,3.842,7.306,9.311C276.436,549.508,274.431,543.12,275.258,539.267Zm5.981-5.311c-5.038-.5-4.617-6.461-5.981-10.626C280.306,521.192,286.971,531.2,281.239,533.956Zm7.972,7.309c4.7.179,6.608,3.141,7.309,7.313C291.507,551.373,288.331,544.442,289.211,541.266Zm17.946,17.949c-5.146-.06-8.253-5.35-7.306-9.315,4.379.274,6.286,3.012,8.631,5.318C308.8,557.3,307.539,557.82,307.157,559.215Zm19.275,4.638c-5.069,3.923-12.175-2.615-9.97-7.969,4.568.312,6.959,2.8,9.97,4.652Zm33.227,39.871c-6.026,2.791-9.336-2.538-7.969-9.3C356.931,594.935,358.235,599.391,359.658,603.724Zm-7.969-19.278c-1.4.382-1.907,1.655-3.993,1.332-.021-.642-.813-.512-1.332-.666-.372-2.608-1.914-8.512.673-9.963C349.246,577.589,351.984,579.5,351.69,584.446ZM345.706,551.9c-5.1.522-6.451-5.77-4.656-9.967C344.983,542.878,348.479,548.284,345.706,551.9ZM338.4,522.661c4.459-.154,8.757,10.321.659,9.3C337.625,530.082,335.827,524.5,338.4,522.661Zm-16.624-7.306c3.18-1.507,8.175,5.437,4.656,8.638C321.958,524.463,319.788,519.134,321.776,515.355Zm3.232,16.8c.091-.035.179-.074.266-.1h-.007a4.747,4.747,0,0,1,4.918,1.244,4.836,4.836,0,0,0-4.911-1.244,8.337,8.337,0,0,1,5.806,7.877C326.578,541.6,322.428,535.979,325.008,532.158Zm6.738-17.462c-3.832-.978-7.253-7.415-3.989-11.3,3.642,1.458,5,5.181,7.309,7.968C335.185,513.693,332.731,513.451,331.746,514.7Zm3.32,41.189c4.084-1.129,11.026,11.618,1.329,11.292C334.894,564.908,333.618,558.913,335.066,555.885Zm2.661,38.538c.291-3.047-.666-7.32.673-9.311,3.923,1.62,6.265,4.813,7.306,9.311C343.581,596.6,339.672,596.873,337.727,594.423Zm9.97,23.916c-1.6.266-1.441-1.22-3.32-.67-.775-3-3.134-8.421-.673-10.622C347.55,608,351.069,614.353,347.7,618.339ZM357,633.62c-5.6,1.041-7.278-4.932-6.647-7.968C354.961,625.813,359.234,628.7,357,633.62Zm0-19.267c4.137-.288,8.161,4.466,8.642,9.967-.985.34-1.679.978-2.661,1.332C359.164,623.7,356.84,620.278,357,614.353Zm12.628,37.872c-5.981,0-7.327-4.638-8.638-9.307,5.15-2.542,5.862,4.649,9.96,5.325C371.483,650.539,370.214,651.047,369.629,652.225Zm17.942,9.3c-5.6,1.791-11.054-.459-11.962-6.647C379.262,654.9,388.809,654.441,387.571,661.526Zm2-8.642c5.406.14,8.235,2.843,12.624,3.983C401.724,668.092,388.966,660.075,389.569,652.884Zm27.247-8.631c-7.723.8-7.124-7.131-5.318-12.621h2C415.455,634.648,419.641,640.649,416.816,644.253Zm-1.325-65.778c-.782-.112-1.188.133-1.336.659-5.129.7-7.292-10.657,0-9.3C415.561,571.555,417.065,575.892,415.491,578.476Zm-.67-17.273c-6.717,3.306-9.027-6.128-7.313-11.3h1.329C412.84,551.66,413.994,556.277,414.821,561.2Zm-5.984-41.2c-1.946.175-2.04-1.5-3.986-1.336-.768-2.156-1.245-7.222,0-9.294h1.329C410.2,509.9,411.333,516.943,408.837,520.007Zm0-16.61c-5.581,1.024-5.364-6.857-3.986-10.637C409.888,492.862,411.224,499.751,408.837,503.4Zm-7.309-27.24c3.741.421,8.123,9.2,2.661,10.626C400.462,486.362,400.493,479.165,401.527,476.157Zm-5.981,2.65c.946,2.335,3.863,7.306,0,8.649C390.4,487.849,390.4,478.411,395.547,478.808Zm-2.654,19.274c4.025.4,4.712,4.14,5.315,7.965-.989.347-1.679.992-2.661,1.329C391.946,507.25,391.525,501.027,392.893,498.082Zm3.986,14.612c2.6,1.609,4,4.417,4.649,7.982a5.055,5.055,0,0,1-4.649,1.329C395.525,520.575,394.309,513.858,396.879,512.694Zm3.983,18.612c.547,3.435,4.242,3.73,3.99,7.961-.593.3-1.182.6-1.329,1.339C398.53,541.7,395.88,532.1,400.861,531.306Zm2.661,24.579a21.285,21.285,0,0,0,3.327,8.638c-1.108,1.111-1.735,2.682-3.99,2.654C399.112,565.753,397.632,556.207,403.522,555.885Zm-1.329,17.269c3.306,2.23,5.1,5.974,5.984,10.633-2.188.035-3.306,1.125-5.984.659C401.345,581.788,400.973,575.765,402.193,573.154Zm5.984,15.948c1.76,3.779,3.169,7.912,4.649,11.958-.641.018-.512.81-.659,1.332-1.111,1.115-3.9.522-5.988.666C403.9,601.136,401.534,588.014,408.178,589.1Zm-.67,21.918c2.913,1.9,7.011,7.674,3.989,11.306C406.533,622.483,405.093,614.065,407.508,611.019Zm3.334,41.865c4.922,1.28,4.568,7.832,7.968,10.64.316,2.082-1.784,1.753-1.995,3.327C408.774,668.548,408.051,657.813,410.842,652.884Zm2.654,26.581c5.315.894,7.474,4.936,8.642,9.981C415.754,692.159,413.257,685.561,413.5,679.465Zm23.257,105.687c-5.96-.463-5.385-5.451-3.989-10.64h3.323C437.815,776.893,438.972,782.684,436.753,785.152Zm7.313-2.005c5.241.526,4.508,7.018,7.306,9.967C447.091,802.912,438.593,789.18,444.066,783.147Zm-4.652-17.273c-6.454,4.389-10.8-9.413-2.661-8.649C437.314,760.843,440.823,762.095,439.414,765.874Zm-5.984-18.619c-7.807.533-7.075-7.152-5.984-12.624C432.83,735.01,436.153,743.034,433.429,747.255Zm-7.969-21.925c-.021-.649-.82-.529-1.336-.663-.831-2.489-1.227-8.217,0-10.633,3.334,1.546,4.771,4.974,5.322,9.3C428.371,724.254,427.806,725.691,425.461,725.33Zm3.313-17.935c-1.066,1.36-3.327,1.529-5.977,1.315-3.011-2.044-3.372-13.833,2.664-10.626C426.3,701.449,427.677,704.282,428.774,707.395ZM422.8,678.15c-.855-1.353-3.222-1.213-2.661-3.993,3.425-1.89,4.919-5.711,9.311-6.65C431.655,672.958,426.874,676.8,422.8,678.15Zm15.948,0a5.072,5.072,0,0,1-1.332-4.663c3.145-.673,5.3-4.179,8.645-2.657C446.106,675.759,443.074,677.607,438.744,678.15Zm10.636,2.657c-.354-2.352-1.949-2.98-.669-5.322,4,.477,5.637-4.284,9.311-2C457.23,678.014,454.376,680.489,449.38,680.808Zm20.6,0c-2.443-.217-5.883.564-7.309-.673.442-4.438,4.5-5.248,9.308-5.315C472.63,678.129,470.615,678.785,469.98,680.808Zm9.311-4.656c4.831.039,7.79-6.875,11.958-3.323C491.169,677.8,480.112,685.961,479.291,676.152Zm19.271-1.332c-.238-3.691,6.577-5.735,10.629-7.313C511.754,672.965,503.351,678.925,498.562,674.82Zm17.283-3.989c-.172-2.268-1.683-3.187-1.329-5.97,3.46-1.322,6.966-5.721,11.292-4C524.382,666.091,521.332,669.677,515.846,670.83Z" transform="translate(-316.888 -409.115) rotate(-6)"/></svg>