<svg xmlns="http://www.w3.org/2000/svg" xmlns:xlink="http://www.w3.org/1999/xlink" width="346" height="369.469" viewBox="0 0 346 369.469"><defs><style>.a{fill:#fff;}.b{filter:url(#a);}</style><filter id="a" x="0" y="0" width="346" height="369.469" filterUnits="userSpaceOnUse"><feOffset dy="3" input="SourceAlpha"/><feGaussianBlur stdDeviation="3" result="b"/><feFlood flood-opacity="0.161"/><feComposite operator="in" in2="b"/><feComposite in="SourceGraphic"/></filter></defs><g transform="translate(9 6)"><g class="b" transform="matrix(1, 0, 0, 1, -9, -6)"><path class="a" d="M24,351.469c-13.255,0-24-12.392-24-27.677V76.433C0,61.147,10.745,48.756,24,48.756H129.538C133.114,41.9,143,24.476,155.867,14.268,169.016,3.836,194.206-.946,199.775.44c-5.306,5.44-19.354,22.172-25.172,48.316H304c13.254,0,24,12.391,24,27.677v247.36c0,15.285-10.745,27.677-24,27.677ZM199.988.714c-.137.118-.25.1-.213-.274-.2-.287-.089-.282.038-.206.054-.17.141-.149.224-.047.443-.391.381-.095.206.2-.016.028-.034.056-.052.083L200.2.5c.07.193.094.387.008.387C200.165.883,200.094.835,199.988.714Z" transform="translate(337 357.47) rotate(180)"/></g></g></svg>