<svg xmlns="http://www.w3.org/2000/svg" xmlns:xlink="http://www.w3.org/1999/xlink" width="79.039" height="201.96" viewBox="0 0 79.039 201.96"><defs><style>.a{stroke:#3d3d3d;stroke-miterlimit:10;stroke-width:0.5px;opacity:0.94;fill:url(#a);}.b{fill:#35472d;}.c{fill:#91b77d;}.d,.o{fill:none;}.e{fill:#6bbfc7;}.f{fill:#edf7fb;}.g{fill:#bee1e5;}.h{fill:#2188a8;}.i{fill:#fff;}.j{fill:#b2dbdf;}.k,.n{fill:#46a1a6;}.l,.m,.n,.o{isolation:isolate;}.m{fill:#daeff6;}.m,.n,.o{font-size:8.137px;font-family:AgencyFB-Bold, Agency FB;font-weight:700;}.o{stroke:#b2dbdf;stroke-width:0.095px;}</style><linearGradient id="a" y1="0.5" x2="1" y2="0.5" gradientUnits="objectBoundingBox"><stop offset="0.219" stop-color="#4e765c"/><stop offset="1" stop-color="#366043"/></linearGradient></defs><g transform="translate(-1789.76 1321.689)"><path class="a" d="M1859.5-1231.6a183.35,183.35,0,0,1,.5,19.66,184.924,184.924,0,0,1-7.43,46.23c-.83-.07-1.66-.14-2.5-.17-.54-.02-1.08-.02-1.61,0-8.57.21-15.04,4.73-19.26,13.44-8.83,18.21-13.53,23.61-14.03,24.16-5.03,5.49-13.5,8.28-25.16,8.3.01-61.85.02-149.04.02-201.31,26.76,12.98,49.07,19.49,66.69,19.49a63.44,63.44,0,0,0,7.29-.41c1.51-.17,2.98-.39,4.42-.68-6.85,21.24-10.03,42.04-9.43,61.83C1859.1-1237.66,1859.31-1234.58,1859.5-1231.6Z"/><path class="b" d="M1805.4-1277.822h0c-.952-.055-6.636-.327-8.4-2.08-2.5-2.489-.569-6.955,1.648-10.881h0c-2.343-4.162-.885-11.514,1.725-14.077a7.924,7.924,0,0,1,5.022-2.08h0a8.274,8.274,0,0,1,5.021,2.08c2.688,2.522,4.188,9.718,2.258,13.9h0c1.888,4.105,3.943,8.563,1.293,11.059C1812.19-1278.227,1806.433-1277.9,1805.4-1277.822Z"/><path d="M1810.458-1286.836a.355.355,0,0,0-.5-.036l-4.828,4.188v-11.473a.355.355,0,0,0-.355-.355.355.355,0,0,0-.355.355v5.906l-3.217-3.056a.355.355,0,0,0-.5.013.354.354,0,0,0,.012.5l3.707,3.521v17.616a.355.355,0,0,0,.355.355.355.355,0,0,0,.355-.355v-12.089l5.293-4.592A.355.355,0,0,0,1810.458-1286.836Z"/><path class="b" d="M1804.4-1175.822h0c-.952-.055-6.636-.327-8.4-2.08-2.5-2.489-.569-6.955,1.648-10.881h0c-2.343-4.162-.885-11.514,1.725-14.077a7.924,7.924,0,0,1,5.022-2.08h0a8.274,8.274,0,0,1,5.021,2.08c2.688,2.522,4.188,9.718,2.258,13.9h0c1.888,4.105,3.943,8.563,1.293,11.059C1811.19-1176.227,1805.433-1175.9,1804.4-1175.822Z"/><path d="M1809.458-1184.836a.355.355,0,0,0-.5-.036l-4.828,4.188v-11.473a.355.355,0,0,0-.355-.355.355.355,0,0,0-.355.355v5.906l-3.217-3.056a.355.355,0,0,0-.5.013.354.354,0,0,0,.012.5l3.707,3.521v17.616a.355.355,0,0,0,.355.355.355.355,0,0,0,.355-.355v-12.089l5.293-4.592A.355.355,0,0,0,1809.458-1184.836Z"/><path class="b" d="M1816.464-1146.827h0c-.461-.026-3.216-.158-4.069-1.008-1.211-1.206-.276-3.371.8-5.274h0a6.808,6.808,0,0,1,.836-6.823,3.842,3.842,0,0,1,2.434-1.008h0a4.012,4.012,0,0,1,2.434,1.008c1.3,1.223,2.03,4.71,1.094,6.737h0c.915,1.99,1.911,4.15.627,5.36C1819.757-1147.023,1816.967-1146.864,1816.464-1146.827Z"/><path d="M1818.917-1151.2a.173.173,0,0,0-.243-.017l-2.339,2.03v-5.561a.172.172,0,0,0-.172-.172.173.173,0,0,0-.173.172v2.863l-1.559-1.482a.172.172,0,0,0-.243.007.171.171,0,0,0,.006.243l1.8,1.706v8.539a.173.173,0,0,0,.173.172.172.172,0,0,0,.172-.172v-5.86l2.565-2.225A.172.172,0,0,0,1818.917-1151.2Z"/><path class="b" d="M1826.464-1166.827h0c-.461-.026-3.216-.158-4.069-1.008-1.211-1.206-.276-3.371.8-5.274h0a6.808,6.808,0,0,1,.836-6.823,3.842,3.842,0,0,1,2.434-1.008h0a4.012,4.012,0,0,1,2.434,1.008c1.3,1.223,2.03,4.71,1.094,6.737h0c.915,1.99,1.911,4.15.627,5.36C1829.757-1167.023,1826.967-1166.864,1826.464-1166.827Z"/><path d="M1828.917-1171.2a.173.173,0,0,0-.243-.017l-2.339,2.03v-5.561a.172.172,0,0,0-.172-.172.173.173,0,0,0-.173.172v2.863l-1.559-1.482a.172.172,0,0,0-.243.007.171.171,0,0,0,.006.243l1.8,1.706v8.539a.173.173,0,0,0,.173.172.172.172,0,0,0,.172-.172v-5.86l2.565-2.225A.172.172,0,0,0,1828.917-1171.2Z"/><path class="c" d="M1841-1278.846c0,4.429,1.975,7.961,6.4,7.961s5.6-3.532,5.6-7.961-1.225-10.154-5.654-10.154S1841-1283.275,1841-1278.846Z"/><path d="M1843.768-1276.108a.231.231,0,0,1,.326-.023l3.137,2.721v-7.455a.23.23,0,0,1,.231-.231.23.23,0,0,1,.23.231v3.838l2.091-1.986a.232.232,0,0,1,.327.008.231.231,0,0,1-.009.326l-2.409,2.288v11.449a.23.23,0,0,1-.23.23.23.23,0,0,1-.231-.23v-7.857l-3.44-2.984A.23.23,0,0,1,1843.768-1276.108Z"/><path class="c" d="M1852-1195.458c0,5.47-2.439,9.833-7.91,9.833s-6.912-4.363-6.912-9.833,1.513-12.542,6.984-12.542S1852-1200.929,1852-1195.458Z"/><path d="M1848.581-1192.077a.286.286,0,0,0-.4-.028l-3.875,3.362v-9.209a.286.286,0,0,0-.285-.286.286.286,0,0,0-.285.286v4.74l-2.583-2.453a.285.285,0,0,0-.4.01.285.285,0,0,0,.011.4l2.975,2.826v14.141a.286.286,0,0,0,.285.285.285.285,0,0,0,.285-.285v-9.7l4.249-3.685A.287.287,0,0,0,1848.581-1192.077Z"/><path class="d" d="M1818.038-1250.967h-3.6c.818-6.987,8.15-14.186,10.7-16.5h0c-2.552,2.313-9.886,9.514-10.707,16.506h3.6Z"/><path class="d" d="M1825.141-1237.593a10.168,10.168,0,0,1-1.281-.2,10.168,10.168,0,0,0,1.281.2Z"/><path class="d" d="M1820.708-1245.049l-2.032,4.431a13.5,13.5,0,0,1-4.281-8.272,9.789,9.789,0,0,1-.032-1.029h0a10.123,10.123,0,0,0,.032,1.029,13.508,13.508,0,0,0,4.283,8.275l2.033-4.433Z"/><path class="d" d="M1821.53-1244.334l-2.03,4.428h0l2.03-4.426Z"/><path class="d" d="M1823.612-1237.843c-.068-.016-.133-.039-.2-.056C1823.479-1237.882,1823.544-1237.859,1823.612-1237.843Z"/><path class="d" d="M1819.1-1250.487a7.981,7.981,0,0,0,4.145,6,7.974,7.974,0,0,1-4.141-5.995c-.394-4.617,5.085-9.825,6.545-11.125l0,0C1824.189-1260.312,1818.708-1255.1,1819.1-1250.487Z"/><path class="d" d="M1833.173-1251.6l3.44,0v-.005h-3.436a15.893,15.893,0,0,0-3.513-7.151,32.456,32.456,0,0,0-3.478-3.793l.006-4.874,0,0-.006,4.88a32.629,32.629,0,0,1,3.479,3.793A15.949,15.949,0,0,1,1833.173-1251.6Z"/><path class="d" d="M1836.939-1248.846Z"/><path class="d" d="M1836.813-1250.551h0a11.93,11.93,0,0,1,.128,1.688A11.909,11.909,0,0,0,1836.813-1250.551Z"/><path class="d" d="M1826.191-1237.588h0a11.2,11.2,0,0,0,5.867-1.981h0A11.211,11.211,0,0,1,1826.191-1237.588Z"/><path class="d" d="M1833.262-1250.444c0-.035,0-.07,0-.107h0v.108a7.582,7.582,0,0,1-2.466,5.6l2.12,4.622,0,0-2.119-4.62A7.585,7.585,0,0,0,1833.262-1250.444Z"/><rect class="d" width="0.001" height="5.269" transform="translate(1826.187 -1242.857)"/><path class="e" d="M1814.4-1248.89a13.5,13.5,0,0,0,4.281,8.272l2.032-4.431a9.054,9.054,0,0,1-2.59-4.87h-3.755A9.789,9.789,0,0,0,1814.4-1248.89Z"/><path class="f" d="M1814.44-1250.967h3.6c0-2.307,1.145-4.909,3.419-7.749a31.034,31.034,0,0,1,3.68-3.838l.006-4.914C1822.59-1265.153,1815.258-1257.954,1814.44-1250.967Z"/><path class="e" d="M1825.136-1242.865a6.966,6.966,0,0,1-3.6-1.467l-2.03,4.425a10.184,10.184,0,0,0,3.91,2.008c.067.017.132.04.2.056s.165.033.248.051a10.168,10.168,0,0,0,1.281.2Z"/><path class="e" d="M1829.953-1244.17a7.558,7.558,0,0,1-3.768,1.313l.006,5.269a11.211,11.211,0,0,0,5.869-1.981Z"/><path class="e" d="M1829.663-1258.752a15.893,15.893,0,0,1,3.513,7.151h3.436c-1.524-6.777-8.032-13.525-10.421-15.818l-.006,4.874A32.456,32.456,0,0,1,1829.663-1258.752Z"/><path class="g" d="M1819.1-1250.486a7.974,7.974,0,0,0,4.141,5.995,5.333,5.333,0,0,0,2.412.6h0a6.561,6.561,0,0,0,6.551-6.555c0-4.67-5.161-9.848-6.562-11.167C1824.19-1260.311,1818.711-1255.1,1819.1-1250.486Z"/><path class="e" d="M1836.938-1248.863a11.93,11.93,0,0,0-.128-1.688h-3.55c0,.037,0,.072,0,.107a7.585,7.585,0,0,1-2.465,5.6l2.119,4.62a11.249,11.249,0,0,0,4.02-8.621h0Z"/><path class="h" d="M1826.091-1268.95l-.441-.405-.468.454a51.08,51.08,0,0,0-6.244,6.484,31.574,31.574,0,0,0-4.078,6.406,14.414,14.414,0,0,0-1.508,7.208,14.455,14.455,0,0,0,3.889,8.259,11.659,11.659,0,0,0,8.429,4.014,12.332,12.332,0,0,0,12.317-12.317C1837.985-1257.992,1827.195-1267.955,1826.091-1268.95Zm.1,1.527,0,0c2.389,2.293,8.9,9.041,10.421,15.818v.005l-3.44,0a15.949,15.949,0,0,0-3.513-7.152,32.629,32.629,0,0,0-3.479-3.793Zm-.539,5.81,0,0c1.4,1.319,6.562,6.5,6.562,11.167a6.561,6.561,0,0,1-6.551,6.555h0a5.333,5.333,0,0,1-2.412-.6,7.981,7.981,0,0,1-4.145-6C1818.708-1255.1,1824.189-1260.312,1825.648-1261.613Zm-.505-5.855h0l-.006,4.914a31.034,31.034,0,0,0-3.68,3.838c-2.274,2.84-3.419,5.442-3.419,7.749v.005h-3.6C1815.257-1257.954,1822.591-1265.155,1825.143-1267.468Zm-10.75,18.577a10.123,10.123,0,0,1-.032-1.029h3.757a9.054,9.054,0,0,0,2.59,4.87h0l-2.033,4.433A13.508,13.508,0,0,1,1814.393-1248.891Zm9.219,11.048c-.068-.016-.133-.039-.2-.056a10.184,10.184,0,0,1-3.91-2.008h0l2.031-4.428,0,0a6.966,6.966,0,0,0,3.6,1.467l.005,5.272h0a10.168,10.168,0,0,1-1.281-.2C1823.777-1237.81,1823.694-1237.823,1823.612-1237.843Zm2.581.255h-.005l0-5.269h0a7.558,7.558,0,0,0,3.768-1.313l2.107,4.6h0A11.2,11.2,0,0,1,1826.193-1237.588Zm10.746-11.258h0a11.249,11.249,0,0,1-4.02,8.621l0,0-2.12-4.622a7.582,7.582,0,0,0,2.466-5.6v-.108h3.553a11.909,11.909,0,0,1,.125,1.688v.016Z"/><path class="i" d="M1829.288-1261.782l.692,1.264a.189.189,0,0,0,.074.074l1.265.692a.187.187,0,0,1,.074.253.187.187,0,0,1-.074.074l-1.265.692a.189.189,0,0,0-.074.074l-.692,1.264a.186.186,0,0,1-.253.075.185.185,0,0,1-.074-.075l-.691-1.264a.189.189,0,0,0-.074-.074l-1.264-.692a.186.186,0,0,1-.075-.253.184.184,0,0,1,.075-.074l1.264-.692a.189.189,0,0,0,.074-.074l.691-1.264a.186.186,0,0,1,.253-.075A.185.185,0,0,1,1829.288-1261.782Z"/><path class="i" d="M1831.718-1258.285l.506.337a.076.076,0,0,0,.042.012l.6.01a.077.077,0,0,1,.077.079.077.077,0,0,1-.013.042l-.337.506a.077.077,0,0,0-.012.042l-.01.6a.078.078,0,0,1-.08.077.077.077,0,0,1-.041-.013l-.506-.337a.076.076,0,0,0-.042-.012l-.6-.01a.078.078,0,0,1-.077-.08.076.076,0,0,1,.013-.041l.337-.506a.076.076,0,0,0,.012-.042l.01-.6a.077.077,0,0,1,.077-.078A.078.078,0,0,1,1831.718-1258.285Z"/><path class="i" d="M1819.128-1248.066l.188.343a.045.045,0,0,0,.021.02l.343.188a.051.051,0,0,1,.019.069.052.052,0,0,1-.019.02l-.343.188a.045.045,0,0,0-.021.02l-.188.343a.051.051,0,0,1-.068.02.054.054,0,0,1-.02-.02l-.188-.343a.049.049,0,0,0-.02-.02l-.343-.188a.05.05,0,0,1-.02-.069.054.054,0,0,1,.02-.02l.343-.188a.049.049,0,0,0,.02-.02l.188-.343a.052.052,0,0,1,.069-.02A.053.053,0,0,1,1819.128-1248.066Z"/><path class="j" d="M1851.586-1220.112h-51.852v-10.6h51.852Z"/><path class="k" d="M1799.971-1230.473v10.124h51.378v-10.124h-51.378m-.473-.473h52.324v11.07H1799.5Z"/><g class="l"><text class="m" transform="translate(1804.921 -1222.147)"><tspan x="0" y="0">AGUA MARINHA</tspan></text></g><g class="l"><text class="n" transform="translate(1804.637 -1222.478)"><tspan x="0" y="0">AGUA MARINHA</tspan></text></g><g class="l"><text class="o" transform="translate(1804.637 -1222.478)"><tspan x="0" y="0">AGUA MARINHA</tspan></text></g></g></svg>