<svg xmlns="http://www.w3.org/2000/svg" xmlns:xlink="http://www.w3.org/1999/xlink" width="166.515" height="118.395" viewBox="0 0 166.515 118.395"><defs><style>.a{stroke:#3d3d3d;stroke-miterlimit:10;stroke-width:0.5px;opacity:0.94;fill:url(#a);}.b{fill:#35472d;}.c{fill:#91b77d;}.d{fill:#336d15;}.e,.p{fill:none;}.f{fill:#6bbfc7;}.g{fill:#edf7fb;}.h{fill:#bee1e5;}.i{fill:#2188a8;}.j{fill:#fff;}.k{fill:#b2dbdf;}.l,.o{fill:#46a1a6;}.m,.n,.o,.p{isolation:isolate;}.n{fill:#daeff6;}.n,.o,.p{font-size:8.137px;font-family:AgencyFB-Bold, Agency FB;font-weight:700;}.p{stroke:#b2dbdf;stroke-width:0.095px;}</style><linearGradient id="a" y1="0.5" x2="1" y2="0.5" gradientUnits="objectBoundingBox"><stop offset="0.219" stop-color="#4e765c"/><stop offset="1" stop-color="#366043"/></linearGradient></defs><g transform="translate(-1789.75 1166.145)"><path class="a" d="M1955.42-1048H1790c0-1.75.01-29.52.01-67.98v-4c11.66-.02,20.13-2.81,25.16-8.3.5-.55,5.2-5.95,14.03-24.16,4.22-8.71,10.69-13.23,19.26-13.44.53-.02,1.07-.02,1.61,0,.84.03,1.67.1,2.5.17a54.6,54.6,0,0,1,21.76,7.19,132.621,132.621,0,0,1,25.78,18.92q1.665,1.56,3.3,3.18a2.155,2.155,0,0,1,.34.47c-.07.74-.12,1.46-.18,2.17a68.13,68.13,0,0,0,1.38,21.33,85.677,85.677,0,0,0,12.56,28.52q2.34,3.5,5.03,6.88C1930.96-1066.48,1941.99-1056.71,1955.42-1048Z"/><path class="b" d="M1821.66-1063.822h0c.952-.055,6.635-.327,8.4-2.08,2.5-2.489.569-6.955-1.648-10.881h0c2.343-4.162.885-11.514-1.725-14.077a7.924,7.924,0,0,0-5.022-2.08h0a8.277,8.277,0,0,0-5.022,2.08c-2.687,2.522-4.188,9.718-2.257,13.9h0c-1.888,4.105-3.943,8.563-1.294,11.059C1814.866-1064.227,1820.622-1063.9,1821.66-1063.822Z"/><path d="M1816.6-1072.836a.355.355,0,0,1,.5-.036l4.827,4.188v-11.473a.355.355,0,0,1,.355-.355.355.355,0,0,1,.356.355v5.906l3.217-3.056a.355.355,0,0,1,.5.013.355.355,0,0,1-.013.5l-3.706,3.521v17.616a.355.355,0,0,1-.356.355.355.355,0,0,1-.355-.355v-12.089l-5.292-4.592A.354.354,0,0,1,1816.6-1072.836Z"/><path class="b" d="M1837.035-1102.515h0c.5-.028,3.515-.173,4.447-1.1,1.324-1.318.3-3.684-.873-5.764h0c1.242-2.2.469-6.1-.914-7.457a4.2,4.2,0,0,0-2.66-1.1h0a4.387,4.387,0,0,0-2.66,1.1c-1.424,1.336-2.219,5.148-1.2,7.363h0c-1,2.175-2.089,4.536-.685,5.858C1833.436-1102.729,1836.485-1102.556,1837.035-1102.515Z"/><path d="M1834.354-1107.29a.188.188,0,0,1,.265-.019l2.557,2.219v-6.078a.188.188,0,0,1,.188-.188.188.188,0,0,1,.188.188v3.129l1.7-1.619a.187.187,0,0,1,.266.007.189.189,0,0,1-.007.266l-1.964,1.865v9.332a.188.188,0,0,1-.188.188.188.188,0,0,1-.188-.188v-6.4l-2.8-2.433A.187.187,0,0,1,1834.354-1107.29Z"/><path class="b" d="M1821.035-1107.515h0c.5-.028,3.515-.173,4.447-1.1,1.324-1.318.3-3.684-.873-5.764h0c1.242-2.2.469-6.1-.914-7.457a4.2,4.2,0,0,0-2.66-1.1h0a4.387,4.387,0,0,0-2.66,1.1c-1.424,1.336-2.219,5.148-1.2,7.363h0c-1,2.175-2.089,4.536-.685,5.858C1817.436-1107.729,1820.485-1107.556,1821.035-1107.515Z"/><path d="M1818.354-1112.29a.188.188,0,0,1,.265-.019l2.557,2.219v-6.078a.188.188,0,0,1,.188-.188.188.188,0,0,1,.188.188v3.129l1.7-1.619a.187.187,0,0,1,.266.007.189.189,0,0,1-.007.266l-1.964,1.865v9.332a.188.188,0,0,1-.188.188.188.188,0,0,1-.188-.188v-6.4l-2.8-2.433A.187.187,0,0,1,1818.354-1112.29Z"/><path class="c" d="M1910-1060.311c0,2.917,1.3,5.244,4.219,5.244s3.686-2.327,3.686-5.244-.807-6.689-3.724-6.689S1910-1063.229,1910-1060.311Z"/><path d="M1911.823-1058.507a.152.152,0,0,1,.215-.016l2.067,1.793v-4.911a.152.152,0,0,1,.152-.152.153.153,0,0,1,.152.152v2.528l1.377-1.308a.152.152,0,0,1,.215.005.152.152,0,0,1-.006.215l-1.586,1.507v7.542a.153.153,0,0,1-.152.152.152.152,0,0,1-.152-.152v-5.175l-2.266-1.966A.151.151,0,0,1,1911.823-1058.507Z"/><path class="c" d="M1886-1130.311c0,2.917,1.3,5.244,4.219,5.244s3.686-2.327,3.686-5.244-.807-6.689-3.724-6.689S1886-1133.229,1886-1130.311Z"/><path d="M1887.823-1128.507a.152.152,0,0,1,.215-.016l2.067,1.793v-4.911a.152.152,0,0,1,.152-.152.153.153,0,0,1,.152.152v2.528l1.377-1.308a.152.152,0,0,1,.215.005.152.152,0,0,1-.006.215l-1.586,1.507v7.542a.153.153,0,0,1-.152.152.152.152,0,0,1-.152-.152v-5.175l-2.266-1.966A.151.151,0,0,1,1887.823-1128.507Z"/><path class="c" d="M1893-1112.311c0,2.917,1.3,5.244,4.219,5.244s3.686-2.327,3.686-5.244-.807-6.689-3.724-6.689S1893-1115.229,1893-1112.311Z"/><path d="M1894.823-1110.507a.152.152,0,0,1,.215-.016l2.067,1.793v-4.911a.152.152,0,0,1,.152-.152.153.153,0,0,1,.152.152v2.528l1.377-1.308a.152.152,0,0,1,.215.005.152.152,0,0,1-.006.215l-1.586,1.507v7.542a.153.153,0,0,1-.152.152.152.152,0,0,1-.152-.152v-5.175l-2.266-1.966A.151.151,0,0,1,1894.823-1110.507Z"/><path class="d" d="M1851.639-1156.408l1.652,3.747,4.072-.443a3.275,3.275,0,0,1,3,5.19l-2.419,3.3,2.419,3.305a3.274,3.274,0,0,1-3,5.19l-4.072-.443-1.652,3.747a3.275,3.275,0,0,1-5.993,0l-1.652-3.747-4.072.443a3.274,3.274,0,0,1-3-5.19l2.419-3.305-2.419-3.3a3.275,3.275,0,0,1,3-5.19l4.072.443,1.652-3.747A3.275,3.275,0,0,1,1851.639-1156.408Z"/><path d="M1842.3-1141.594a.41.41,0,0,1,.578-.041l5.565,4.828v-13.226a.409.409,0,0,1,.409-.409.41.41,0,0,1,.41.409v6.808l3.709-3.523a.411.411,0,0,1,.579.015.41.41,0,0,1-.015.579l-4.273,4.058v20.308a.41.41,0,0,1-.41.41.41.41,0,0,1-.409-.41v-13.935l-6.1-5.294A.41.41,0,0,1,1842.3-1141.594Z"/><path class="e" d="M1863.257-1097.751h-3.6c.82-6.987,8.155-14.184,10.708-16.5h0c-2.553,2.313-9.888,9.511-10.711,16.5h3.6Z"/><path class="e" d="M1870.356-1084.375a9.995,9.995,0,0,1-1.281-.2,9.995,9.995,0,0,0,1.281.2Z"/><path class="e" d="M1865.925-1091.832l-2.033,4.43a13.5,13.5,0,0,1-4.279-8.273,9.787,9.787,0,0,1-.032-1.029h0a9.845,9.845,0,0,0,.031,1.029,13.515,13.515,0,0,0,4.281,8.276l2.034-4.432Z"/><path class="e" d="M1866.746-1091.117l-2.031,4.427h0l2.031-4.425Z"/><path class="e" d="M1868.827-1084.625c-.068-.017-.133-.039-.2-.057C1868.694-1084.664,1868.759-1084.642,1868.827-1084.625Z"/><path class="e" d="M1864.32-1097.271a7.981,7.981,0,0,0,4.143,6,7.978,7.978,0,0,1-4.14-6c-.392-4.618,5.089-9.824,6.549-11.124l0,0C1869.41-1107.095,1863.928-1101.887,1864.32-1097.271Z"/><path class="e" d="M1878.392-1098.378l3.44,0v-.005H1878.4a15.906,15.906,0,0,0-3.511-7.152,32.466,32.466,0,0,0-3.478-3.794l.008-4.874,0,0-.008,4.88a32.521,32.521,0,0,1,3.478,3.793A15.959,15.959,0,0,1,1878.392-1098.378Z"/><path class="e" d="M1882.157-1095.625Z"/><path class="e" d="M1882.032-1097.329h0a11.743,11.743,0,0,1,.128,1.687A11.881,11.881,0,0,0,1882.032-1097.329Z"/><path class="e" d="M1871.406-1084.37h0a11.208,11.208,0,0,0,5.868-1.979h0A11.2,11.2,0,0,1,1871.406-1084.37Z"/><path class="e" d="M1878.481-1097.223c0-.035,0-.071,0-.107h0v.107a7.583,7.583,0,0,1-2.467,5.6l2.119,4.622,0,0-2.118-4.621A7.59,7.59,0,0,0,1878.481-1097.223Z"/><rect class="e" width="0.001" height="5.269" transform="translate(1871.402 -1089.639)"/><path class="f" d="M1859.613-1095.675a13.5,13.5,0,0,0,4.279,8.273l2.033-4.43a9.064,9.064,0,0,1-2.589-4.871h-3.755A9.787,9.787,0,0,0,1859.613-1095.675Z"/><path class="g" d="M1859.658-1097.752h3.6c0-2.307,1.146-4.909,3.421-7.748a31.129,31.129,0,0,1,3.681-3.838l.007-4.913C1867.813-1111.936,1860.478-1104.739,1859.658-1097.752Z"/><path class="f" d="M1870.352-1089.647a6.957,6.957,0,0,1-3.6-1.469l-2.03,4.425a10.182,10.182,0,0,0,3.909,2.009c.067.018.132.04.2.057s.165.032.248.05a9.995,9.995,0,0,0,1.281.2Z"/><path class="f" d="M1875.17-1090.951a7.561,7.561,0,0,1-3.769,1.312l.005,5.269a11.2,11.2,0,0,0,5.87-1.98Z"/><path class="f" d="M1874.884-1105.533a15.906,15.906,0,0,1,3.511,7.152h3.436c-1.523-6.777-8.028-13.527-10.417-15.821l-.008,4.874A32.466,32.466,0,0,1,1874.884-1105.533Z"/><path class="h" d="M1864.323-1097.269a7.978,7.978,0,0,0,4.14,6,5.345,5.345,0,0,0,2.412.6h0a6.561,6.561,0,0,0,6.553-6.554c0-4.669-5.158-9.848-6.558-11.168C1869.412-1107.093,1863.931-1101.887,1864.323-1097.269Z"/><path class="f" d="M1882.156-1095.642a11.743,11.743,0,0,0-.128-1.687h-3.549c0,.036,0,.072,0,.107a7.59,7.59,0,0,1-2.467,5.6l2.118,4.621a11.249,11.249,0,0,0,4.022-8.62h0C1882.157-1095.631,1882.156-1095.636,1882.156-1095.642Z"/><path class="i" d="M1871.315-1115.732l-.442-.4-.468.454a51.144,51.144,0,0,0-6.245,6.482,31.6,31.6,0,0,0-4.08,6.405,14.427,14.427,0,0,0-1.51,7.207,14.454,14.454,0,0,0,3.887,8.261,11.657,11.657,0,0,0,8.427,4.016,12.331,12.331,0,0,0,12.321-12.314C1883.206-1104.771,1872.419-1114.736,1871.315-1115.732Zm.1,1.528,0,0c2.389,2.294,8.894,9.044,10.417,15.821v.005l-3.44,0a15.959,15.959,0,0,0-3.511-7.153,32.521,32.521,0,0,0-3.478-3.793Zm-.542,5.809,0,0c1.4,1.32,6.56,6.5,6.558,11.168a6.561,6.561,0,0,1-6.553,6.554h0a5.345,5.345,0,0,1-2.412-.6,7.981,7.981,0,0,1-4.143-6C1863.928-1101.887,1869.41-1107.095,1870.869-1108.4Zm-.5-5.855h0l-.007,4.913a31.129,31.129,0,0,0-3.681,3.838c-2.275,2.839-3.421,5.441-3.421,7.748v.005h-3.6C1860.478-1104.739,1867.813-1111.937,1870.366-1114.25Zm-10.755,18.574a9.845,9.845,0,0,1-.031-1.029h3.756a9.064,9.064,0,0,0,2.589,4.871h0l-2.034,4.432A13.515,13.515,0,0,1,1859.611-1095.676Zm9.216,11.051c-.068-.017-.133-.039-.2-.057a10.182,10.182,0,0,1-3.909-2.009h0l2.032-4.427h0a6.957,6.957,0,0,0,3.6,1.469l0,5.272h0a9.995,9.995,0,0,1-1.281-.2C1868.992-1084.593,1868.909-1084.6,1868.827-1084.625Zm2.581.255h-.005l0-5.269h0a7.561,7.561,0,0,0,3.769-1.312l2.106,4.6h0A11.208,11.208,0,0,1,1871.408-1084.37Zm10.749-11.255h0a11.249,11.249,0,0,1-4.022,8.62l0,0-2.119-4.622a7.583,7.583,0,0,0,2.467-5.6v-.107h3.554a11.881,11.881,0,0,1,.124,1.687c0,.006,0,.011,0,.016Z"/><path class="j" d="M1874.51-1108.563l.691,1.264a.187.187,0,0,0,.074.074l1.265.693a.186.186,0,0,1,.074.252.181.181,0,0,1-.075.075l-1.264.691a.189.189,0,0,0-.074.074l-.693,1.265a.186.186,0,0,1-.252.074.187.187,0,0,1-.075-.075l-.69-1.264a.189.189,0,0,0-.074-.074l-1.265-.693a.186.186,0,0,1-.074-.252.187.187,0,0,1,.075-.075l1.264-.691a.187.187,0,0,0,.074-.074l.692-1.264a.185.185,0,0,1,.252-.075A.18.18,0,0,1,1874.51-1108.563Z"/><path class="j" d="M1876.939-1105.066l.505.338a.078.078,0,0,0,.042.012l.6.01a.078.078,0,0,1,.077.08.087.087,0,0,1-.013.041l-.337.506a.069.069,0,0,0-.013.042l-.01.6a.077.077,0,0,1-.079.077.078.078,0,0,1-.042-.013l-.506-.337a.077.077,0,0,0-.042-.013l-.6-.009a.079.079,0,0,1-.077-.08.073.073,0,0,1,.013-.041l.337-.506a.081.081,0,0,0,.013-.042l.009-.6a.077.077,0,0,1,.078-.077A.078.078,0,0,1,1876.939-1105.066Z"/><path class="j" d="M1864.346-1094.85l.188.343a.058.058,0,0,0,.02.021l.343.188a.049.049,0,0,1,.02.068.043.043,0,0,1-.02.02l-.343.188a.062.062,0,0,0-.02.02l-.188.343a.05.05,0,0,1-.069.02.055.055,0,0,1-.02-.02l-.187-.343a.057.057,0,0,0-.021-.02l-.343-.188a.051.051,0,0,1-.019-.069.052.052,0,0,1,.019-.02l.343-.187a.053.053,0,0,0,.021-.021l.188-.343a.05.05,0,0,1,.069-.019A.043.043,0,0,1,1864.346-1094.85Z"/><path class="k" d="M1896.8-1066.887l-51.852-.015,0-10.6,51.852.014Z"/><path class="l" d="M1845.184-1077.262l0,10.124,51.378.015,0-10.125-51.378-.014m-.473-.473,52.324.014,0,11.071-52.324-.015Z"/><g class="m"><text class="n" transform="translate(1850.159 -1068.977) rotate(0.015)"><tspan x="0" y="0">AGUA MARINHA</tspan></text></g><g class="m"><text class="o" transform="translate(1849.875 -1069.308) rotate(0.015)"><tspan x="0" y="0">AGUA MARINHA</tspan></text></g><g class="m"><text class="p" transform="translate(1849.875 -1069.308) rotate(0.015)"><tspan x="0" y="0">AGUA MARINHA</tspan></text></g></g></svg>