<svg xmlns="http://www.w3.org/2000/svg" xmlns:xlink="http://www.w3.org/1999/xlink" width="134.156" height="178.067" viewBox="0 0 134.156 178.067"><defs><style>.a{stroke:#3d3d3d;stroke-miterlimit:10;stroke-width:0.5px;opacity:0.94;fill:url(#a);}.b{fill:#35472d;}.c{fill:#91b77d;}.d{fill:#336d15;}.e,.p{fill:none;}.f{fill:#6bbfc7;}.g{fill:#edf7fb;}.h{fill:#bee1e5;}.i{fill:#2188a8;}.j{fill:#fff;}.k{fill:#b2dbdf;}.l,.o{fill:#46a1a6;}.m,.n,.o,.p{isolation:isolate;}.n{fill:#daeff6;}.n,.o,.p{font-size:8.137px;font-family:AgencyFB-Bold, Agency FB;font-weight:700;}.p{stroke:#b2dbdf;stroke-width:0.095px;}</style><linearGradient id="a" y1="0.5" x2="1" y2="0.5" gradientUnits="objectBoundingBox"><stop offset="0.219" stop-color="#4e765c"/><stop offset="1" stop-color="#366043"/></linearGradient></defs><g transform="translate(-2018.411 1263.25)"><path class="a" d="M2150.89-1085.48l-7.67-1.35-.44-.63.44.65-.94-.17c-.67-.09-2.27-.33-4.55-.72l-6.29-9.04a208.827,208.827,0,0,0-15.95-15.02c-7.21-6.33-14.68-12.88-21.06-21-7.63-9.02-10.64-19.57-13.54-29.78a150.7,150.7,0,0,0-4.75-14.72l-.04-.11c-3.79-11.38-14.06-17.47-24.94-23.92-2.7-1.61-5.5-3.26-8.24-5.03l-.1-.07a42.269,42.269,0,0,1-9.58-9.8c-4.97-7.07-7.59-15.31-9.12-20.89-1.07-3.91-1.97-7.92-2.73-11.38-.12-.53-.25-1.07-.39-1.65-.26-1.08-.55-2.29-.85-3.8-.28-1.42-.6-3.28-.95-5.55v-.02c-.1-.57-.17-1.18-.26-1.81-.09-.6-.16-1.16-.24-1.71h133.01a1.588,1.588,0,0,1,.53.08v4.92h.01C2152.46-1200.38,2152.09-1142.73,2150.89-1085.48Z"/><path class="b" d="M2076.692-1235.005h0c-.782-.045-5.454-.269-6.9-1.71-2.053-2.046-.467-5.717,1.355-8.944h0c-1.926-3.421-.727-9.464,1.418-11.571a6.514,6.514,0,0,1,4.128-1.71h0a6.8,6.8,0,0,1,4.128,1.71c2.209,2.073,3.442,7.988,1.856,11.425h0c1.552,3.374,3.241,7.038,1.063,9.09C2082.277-1235.338,2077.545-1235.069,2076.692-1235.005Z"/><path d="M2080.853-1242.415a.292.292,0,0,0-.412-.029l-3.968,3.442v-9.43a.292.292,0,0,0-.292-.292.292.292,0,0,0-.292.292v4.854l-2.644-2.512a.292.292,0,0,0-.413.011.293.293,0,0,0,.01.413l3.047,2.894v14.48a.292.292,0,0,0,.292.292.292.292,0,0,0,.292-.292v-9.937l4.351-3.774A.292.292,0,0,0,2080.853-1242.415Z"/><path class="b" d="M2102.464-1227.827h0c-.461-.026-3.216-.158-4.069-1.008-1.211-1.206-.276-3.371.8-5.274h0a6.807,6.807,0,0,1,.836-6.823,3.842,3.842,0,0,1,2.434-1.008h0a4.012,4.012,0,0,1,2.434,1.008c1.3,1.223,2.03,4.71,1.094,6.737h0c.915,1.99,1.911,4.15.627,5.36C2105.757-1228.023,2102.967-1227.864,2102.464-1227.827Z"/><path d="M2104.917-1232.2a.172.172,0,0,0-.243-.017l-2.339,2.03v-5.561a.172.172,0,0,0-.172-.172.173.173,0,0,0-.173.172v2.863l-1.559-1.482a.172.172,0,0,0-.243.007.171.171,0,0,0,.006.243l1.8,1.706v8.539a.173.173,0,0,0,.173.172.172.172,0,0,0,.172-.172v-5.86l2.565-2.225A.172.172,0,0,0,2104.917-1232.2Z"/><path class="b" d="M2137.66-1226.822h0c.952-.055,6.635-.327,8.4-2.08,2.5-2.489.569-6.955-1.648-10.881h0c2.343-4.162.885-11.514-1.725-14.077a7.924,7.924,0,0,0-5.022-2.08h0a8.277,8.277,0,0,0-5.022,2.08c-2.687,2.522-4.188,9.718-2.257,13.9h0c-1.888,4.105-3.943,8.563-1.294,11.059C2130.866-1227.227,2136.622-1226.9,2137.66-1226.822Z"/><path d="M2132.6-1235.836a.355.355,0,0,1,.5-.036l4.827,4.188v-11.473a.355.355,0,0,1,.355-.355.355.355,0,0,1,.356.355v5.906l3.217-3.056a.355.355,0,0,1,.5.013.355.355,0,0,1-.013.5l-3.706,3.521v17.616a.355.355,0,0,1-.356.355.355.355,0,0,1-.355-.355v-12.089l-5.292-4.592A.355.355,0,0,1,2132.6-1235.836Z"/><path class="c" d="M2098-1144.311c0,2.917,1.3,5.244,4.219,5.244s3.686-2.327,3.686-5.244-.807-6.689-3.724-6.689S2098-1147.229,2098-1144.311Z"/><path d="M2099.823-1142.507a.152.152,0,0,1,.215-.016l2.067,1.793v-4.911a.152.152,0,0,1,.152-.152.152.152,0,0,1,.152.152v2.528l1.377-1.308a.152.152,0,0,1,.215.005.152.152,0,0,1-.006.215l-1.586,1.507v7.542a.152.152,0,0,1-.152.152.152.152,0,0,1-.152-.152v-5.175l-2.266-1.966A.151.151,0,0,1,2099.823-1142.507Z"/><path class="c" d="M2041-1230.458c0,5.47,2.439,9.833,7.91,9.833s6.912-4.363,6.912-9.833-1.513-12.542-6.984-12.542S2041-1235.929,2041-1230.458Z"/><path d="M2044.419-1227.077a.286.286,0,0,1,.4-.028l3.875,3.362v-9.209a.286.286,0,0,1,.285-.286.286.286,0,0,1,.285.286v4.74l2.583-2.453a.284.284,0,0,1,.4.01.285.285,0,0,1-.011.4l-2.975,2.826v14.141a.286.286,0,0,1-.285.285.285.285,0,0,1-.285-.285v-9.7l-4.249-3.685A.287.287,0,0,1,2044.419-1227.077Z"/><path class="c" d="M2146-1144.846c0,4.429-1.975,7.961-6.4,7.961s-5.6-3.532-5.6-7.961,1.225-10.154,5.654-10.154S2146-1149.275,2146-1144.846Z"/><path d="M2143.232-1142.108a.231.231,0,0,0-.326-.023l-3.137,2.721v-7.455a.23.23,0,0,0-.231-.231.23.23,0,0,0-.23.231v3.838l-2.091-1.986a.232.232,0,0,0-.327.008.231.231,0,0,0,.009.326l2.409,2.288v11.449a.23.23,0,0,0,.23.23.23.23,0,0,0,.231-.23v-7.857l3.44-2.984A.23.23,0,0,0,2143.232-1142.108Z"/><path class="d" d="M2081.563-1213.436l.783,1.776,1.93-.209a1.552,1.552,0,0,1,1.42,2.46l-1.146,1.566,1.146,1.567a1.552,1.552,0,0,1-1.42,2.46l-1.93-.21-.783,1.776a1.552,1.552,0,0,1-2.841,0l-.783-1.776-1.93.21a1.552,1.552,0,0,1-1.42-2.46l1.147-1.567-1.147-1.566a1.552,1.552,0,0,1,1.42-2.46l1.93.209.783-1.776A1.553,1.553,0,0,1,2081.563-1213.436Z"/><path d="M2077.134-1206.414a.194.194,0,0,1,.274-.019l2.638,2.288v-6.269a.194.194,0,0,1,.194-.194.194.194,0,0,1,.194.194v3.227l1.758-1.67a.194.194,0,0,1,.274.007.194.194,0,0,1-.007.275l-2.025,1.923v9.626a.194.194,0,0,1-.194.194.193.193,0,0,1-.194-.194v-6.6l-2.893-2.509A.2.2,0,0,1,2077.134-1206.414Z"/><path class="d" d="M2140.563-1116.436l.783,1.776,1.93-.209a1.552,1.552,0,0,1,1.42,2.46l-1.146,1.566,1.146,1.567a1.552,1.552,0,0,1-1.42,2.46l-1.93-.21-.783,1.776a1.552,1.552,0,0,1-2.841,0l-.783-1.776-1.93.21a1.552,1.552,0,0,1-1.42-2.46l1.147-1.567-1.147-1.566a1.552,1.552,0,0,1,1.42-2.46l1.93.209.783-1.776A1.553,1.553,0,0,1,2140.563-1116.436Z"/><path d="M2136.134-1109.414a.194.194,0,0,1,.274-.019l2.638,2.288v-6.269a.194.194,0,0,1,.194-.194.194.194,0,0,1,.194.194v3.227l1.758-1.67a.194.194,0,0,1,.274.007.194.194,0,0,1-.007.275l-2.025,1.923v9.626a.194.194,0,0,1-.194.194.193.193,0,0,1-.194-.194v-6.6l-2.893-2.509A.2.2,0,0,1,2136.134-1109.414Z"/><path class="e" d="M2109.481-1194.561h-3.6c.818-6.987,8.15-14.186,10.7-16.5h0c-2.552,2.313-9.886,9.514-10.707,16.506h3.6Z"/><path class="e" d="M2116.584-1181.187a10.168,10.168,0,0,1-1.281-.2,10.168,10.168,0,0,0,1.281.2Z"/><path class="e" d="M2112.151-1188.643l-2.032,4.431a13.507,13.507,0,0,1-4.281-8.272,9.923,9.923,0,0,1-.032-1.029h0a10.194,10.194,0,0,0,.032,1.029,13.508,13.508,0,0,0,4.283,8.275l2.033-4.433Z"/><path class="e" d="M2112.973-1187.928l-2.031,4.428h0l2.03-4.426Z"/><path class="e" d="M2115.055-1181.437c-.067-.016-.133-.039-.2-.056C2114.922-1181.475,2114.988-1181.453,2115.055-1181.437Z"/><path class="e" d="M2110.544-1194.081a7.981,7.981,0,0,0,4.145,6,7.974,7.974,0,0,1-4.141-5.995c-.394-4.617,5.085-9.825,6.545-11.125l0,0C2115.632-1203.906,2110.151-1198.7,2110.544-1194.081Z"/><path class="e" d="M2124.616-1195.192l3.44,0v-.005h-3.436a15.893,15.893,0,0,0-3.513-7.151,32.436,32.436,0,0,0-3.478-3.793l.006-4.874,0,0,0,4.88a32.707,32.707,0,0,1,3.478,3.793A15.947,15.947,0,0,1,2124.616-1195.192Z"/><path class="e" d="M2128.382-1192.44Z"/><path class="e" d="M2128.256-1194.145h0a11.947,11.947,0,0,1,.128,1.688A11.98,11.98,0,0,0,2128.256-1194.145Z"/><path class="e" d="M2117.634-1181.182h0a11.2,11.2,0,0,0,5.867-1.981h0A11.2,11.2,0,0,1,2117.634-1181.182Z"/><path class="e" d="M2124.705-1194.038c0-.034,0-.07,0-.107h0v.108a7.582,7.582,0,0,1-2.466,5.6l2.12,4.622,0,0-2.119-4.62A7.585,7.585,0,0,0,2124.705-1194.038Z"/><rect class="e" width="0.001" height="5.269" transform="translate(2117.63 -1186.451)"/><path class="f" d="M2105.838-1192.484a13.507,13.507,0,0,0,4.281,8.272l2.032-4.431a9.054,9.054,0,0,1-2.59-4.87h-3.755A9.923,9.923,0,0,0,2105.838-1192.484Z"/><path class="g" d="M2105.883-1194.561h3.6c0-2.307,1.145-4.909,3.419-7.749a31.121,31.121,0,0,1,3.68-3.838l.006-4.914C2114.033-1208.747,2106.7-1201.548,2105.883-1194.561Z"/><path class="f" d="M2116.579-1186.459a6.966,6.966,0,0,1-3.6-1.467l-2.03,4.425a10.183,10.183,0,0,0,3.91,2.008c.067.017.133.04.2.056.082.02.165.033.248.051a10.168,10.168,0,0,0,1.281.2Z"/><path class="f" d="M2121.4-1187.764a7.558,7.558,0,0,1-3.768,1.313l.006,5.269a11.2,11.2,0,0,0,5.869-1.981Z"/><path class="f" d="M2121.106-1202.346a15.893,15.893,0,0,1,3.513,7.151h3.436c-1.524-6.777-8.032-13.525-10.421-15.818l-.006,4.874A32.436,32.436,0,0,1,2121.106-1202.346Z"/><path class="h" d="M2110.548-1194.08a7.974,7.974,0,0,0,4.141,5.995,5.333,5.333,0,0,0,2.412.6h0a6.561,6.561,0,0,0,6.551-6.555c0-4.67-5.161-9.848-6.562-11.167C2115.633-1203.905,2110.154-1198.7,2110.548-1194.08Z"/><path class="f" d="M2128.381-1192.457a11.947,11.947,0,0,0-.128-1.688H2124.7c0,.037,0,.073,0,.107a7.585,7.585,0,0,1-2.465,5.6l2.119,4.62a11.249,11.249,0,0,0,4.02-8.621h0Z"/><path class="i" d="M2117.534-1212.544l-.441-.405-.468.454a51.079,51.079,0,0,0-6.244,6.484,31.564,31.564,0,0,0-4.078,6.406,14.427,14.427,0,0,0-1.508,7.208,14.455,14.455,0,0,0,3.889,8.259,11.659,11.659,0,0,0,8.429,4.014,12.331,12.331,0,0,0,12.317-12.317C2129.428-1201.586,2118.638-1211.549,2117.534-1212.544Zm.1,1.527,0,0c2.389,2.293,8.9,9.041,10.421,15.818v.005l-3.44,0a15.947,15.947,0,0,0-3.513-7.152,32.707,32.707,0,0,0-3.478-3.793Zm-.539,5.81,0,0c1.4,1.319,6.562,6.5,6.562,11.167a6.561,6.561,0,0,1-6.551,6.555h0a5.333,5.333,0,0,1-2.412-.6,7.981,7.981,0,0,1-4.145-6C2110.151-1198.7,2115.632-1203.906,2117.091-1205.207Zm-.505-5.855h0l-.006,4.914a31.121,31.121,0,0,0-3.68,3.838c-2.274,2.84-3.419,5.442-3.419,7.749v.005h-3.6C2106.7-1201.548,2114.034-1208.749,2116.586-1211.062Zm-10.75,18.577a10.194,10.194,0,0,1-.032-1.029h3.757a9.054,9.054,0,0,0,2.59,4.87h0l-2.033,4.433A13.508,13.508,0,0,1,2105.836-1192.485Zm9.219,11.048c-.067-.016-.133-.038-.2-.056a10.183,10.183,0,0,1-3.91-2.008h0l2.031-4.428,0,0a6.966,6.966,0,0,0,3.6,1.467l0,5.272h0a10.168,10.168,0,0,1-1.281-.2C2115.22-1181.4,2115.137-1181.417,2115.055-1181.437Zm2.581.255h0l0-5.269h0a7.558,7.558,0,0,0,3.768-1.313l2.107,4.6h0A11.2,11.2,0,0,1,2117.636-1181.182Zm10.746-11.258h0a11.249,11.249,0,0,1-4.02,8.621l0,0-2.12-4.622a7.582,7.582,0,0,0,2.466-5.6v-.108h3.553a11.98,11.98,0,0,1,.125,1.688v.016Z"/><path class="j" d="M2120.731-1205.376l.692,1.264a.188.188,0,0,0,.074.074l1.265.692a.187.187,0,0,1,.074.253.187.187,0,0,1-.074.074l-1.265.692a.187.187,0,0,0-.074.074l-.692,1.264a.186.186,0,0,1-.253.075.184.184,0,0,1-.074-.075l-.691-1.264a.187.187,0,0,0-.074-.074l-1.264-.692a.186.186,0,0,1-.075-.253.183.183,0,0,1,.075-.074l1.264-.692a.188.188,0,0,0,.074-.074l.691-1.264a.186.186,0,0,1,.253-.075A.184.184,0,0,1,2120.731-1205.376Z"/><path class="j" d="M2123.161-1201.879l.506.337a.077.077,0,0,0,.042.012l.6.01a.077.077,0,0,1,.077.079.069.069,0,0,1-.013.042l-.337.506a.076.076,0,0,0-.012.042l-.01.6a.077.077,0,0,1-.079.077.078.078,0,0,1-.042-.013l-.506-.337a.075.075,0,0,0-.042-.012l-.6-.01a.077.077,0,0,1-.077-.08.078.078,0,0,1,.013-.041l.337-.506a.078.078,0,0,0,.012-.042l.01-.6a.077.077,0,0,1,.077-.078A.077.077,0,0,1,2123.161-1201.879Z"/><path class="j" d="M2110.572-1191.66l.188.343a.039.039,0,0,0,.02.02l.343.188a.052.052,0,0,1,.02.069.064.064,0,0,1-.02.02l-.343.188a.039.039,0,0,0-.02.02l-.188.343a.052.052,0,0,1-.069.02.056.056,0,0,1-.02-.02l-.188-.343a.047.047,0,0,0-.02-.02l-.343-.188a.051.051,0,0,1-.02-.069.063.063,0,0,1,.02-.02l.343-.188a.047.047,0,0,0,.02-.02l.188-.343a.052.052,0,0,1,.069-.02A.065.065,0,0,1,2110.572-1191.66Z"/><path class="k" d="M2143.029-1163.706h-51.852v-10.6h51.852Z"/><path class="l" d="M2091.414-1174.067v10.124h51.378v-10.124h-51.378m-.473-.473h52.324v11.071h-52.324Z"/><g class="m"><text class="n" transform="translate(2096.363 -1165.741)"><tspan x="0" y="0">AGUA MARINHA</tspan></text></g><g class="m"><text class="o" transform="translate(2096.079 -1166.071)"><tspan x="0" y="0">AGUA MARINHA</tspan></text></g><g class="m"><text class="p" transform="translate(2096.079 -1166.071)"><tspan x="0" y="0">AGUA MARINHA</tspan></text></g></g></svg>