<svg xmlns="http://www.w3.org/2000/svg" xmlns:xlink="http://www.w3.org/1999/xlink" width="208.702" height="157.628" viewBox="0 0 208.702 157.628"><defs><style>.a{stroke:#3d3d3d;stroke-miterlimit:10;stroke-width:0.5px;opacity:0.94;fill:url(#a);}.b{fill:#35472d;}.c{fill:#91b77d;}.d{fill:#336d15;}.e,.p{fill:none;}.f{fill:#6bbfc7;}.g{fill:#edf7fb;}.h{fill:#bee1e5;}.i{fill:#2188a8;}.j{fill:#fff;}.k{fill:#b2dbdf;}.l,.o{fill:#46a1a6;}.m,.n,.o,.p{isolation:isolate;}.n{fill:#daeff6;}.n,.o,.p{font-size:8.137px;font-family:AgencyFB-Bold, Agency FB;font-weight:700;}.p{stroke:#b2dbdf;stroke-width:0.095px;}</style><linearGradient id="a" y1="0.5" x2="1" y2="0.5" gradientUnits="objectBoundingBox"><stop offset="0.219" stop-color="#4e765c"/><stop offset="1" stop-color="#366043"/></linearGradient></defs><g transform="translate(-1789.75 1459.178)"><path class="a" d="M1998.18-1431.16l-16.57,30.34a174.042,174.042,0,0,0-26.69,53.39,136.111,136.111,0,0,0-4.95,24.13c-.04.35-.08.69-.12,1.04a1.952,1.952,0,0,1-.35.58,2,2,0,0,1-2.82.18c-.28-.25-.57-.48-.85-.72-7.54-6.38-15.23-9.68-22.86-9.78-12.01-.19-20.61,7.36-28.95,14.64a115.366,115.366,0,0,1-9.88,8.01,41.844,41.844,0,0,1-15.71,6.46c-1.44.29-2.91.51-4.42.68a63.44,63.44,0,0,1-7.29.41c-17.62,0-39.93-6.51-66.69-19.49v-4.44c-.01-24.42-.02-40.16-.03-40.27,0,0,2.77-8.77,5-11a53.878,53.878,0,0,1,16.23-15.44c24.56-14.79,83.52-15.44,100.18-14.78,3.53.14,7.36.19,10.21-1.91,2.45-1.81,3.63-4.84,4.56-7.74,5.03-15.65,8.89-25.98,21.82-36.13a31.162,31.162,0,0,1,12.93-5.92c17.48,5.48,29.27,13.31,35.11,23.34a31.172,31.172,0,0,1,2.1,4.31C1998.15-1431.23,1998.17-1431.19,1998.18-1431.16Z"/><path class="b" d="M1839.122-1319.156h0c-.762-.043-5.315-.262-6.724-1.666-2-1.993-.456-5.57,1.32-8.715h0c-1.877-3.333-.708-9.222,1.382-11.275a6.344,6.344,0,0,1,4.022-1.666h0a6.624,6.624,0,0,1,4.023,1.666c2.152,2.02,3.354,7.784,1.808,11.133h0c1.512,3.288,3.158,6.858,1.036,8.857C1844.564-1319.48,1839.953-1319.218,1839.122-1319.156Z"/><path d="M1843.177-1326.376a.285.285,0,0,0-.4-.028l-3.867,3.354v-9.189a.284.284,0,0,0-.285-.284.284.284,0,0,0-.284.284v4.73l-2.577-2.448a.284.284,0,0,0-.4.011.285.285,0,0,0,.01.4l2.969,2.82v14.11a.285.285,0,0,0,.284.285.285.285,0,0,0,.285-.285v-9.683l4.239-3.677A.285.285,0,0,0,1843.177-1326.376Z"/><path class="b" d="M1839.122-1369.617h0c-.762-.044-5.315-.262-6.724-1.666-2-1.994-.456-5.571,1.32-8.716h0c-1.877-3.333-.708-9.222,1.382-11.275a6.344,6.344,0,0,1,4.022-1.666h0a6.635,6.635,0,0,1,4.023,1.666c2.152,2.02,3.354,7.784,1.808,11.133h0c1.512,3.288,3.158,6.859,1.036,8.858C1844.564-1369.941,1839.953-1369.679,1839.122-1369.617Z"/><path d="M1843.177-1376.837a.284.284,0,0,0-.4-.029l-3.867,3.355v-9.19a.284.284,0,0,0-.285-.284.284.284,0,0,0-.284.284v4.731l-2.577-2.448a.284.284,0,0,0-.4.01.284.284,0,0,0,.01.4l2.969,2.82v14.11a.285.285,0,0,0,.284.285.285.285,0,0,0,.285-.285v-9.682l4.239-3.678A.284.284,0,0,0,1843.177-1376.837Z"/><path class="b" d="M1813.491-1352h0c-.762-.043-5.315-.262-6.724-1.666-2-1.993-.456-5.57,1.32-8.715h0c-1.877-3.333-.709-9.222,1.382-11.275a6.338,6.338,0,0,1,4.022-1.666h0a6.62,6.62,0,0,1,4.022,1.666c2.153,2.02,3.355,7.784,1.809,11.133h0c1.512,3.287,3.158,6.858,1.035,8.857C1818.933-1352.32,1814.322-1352.058,1813.491-1352Z"/><path d="M1817.545-1359.216a.285.285,0,0,0-.4-.028l-3.866,3.354v-9.189a.285.285,0,0,0-.285-.285.285.285,0,0,0-.284.285v4.73l-2.578-2.448a.284.284,0,0,0-.4.011.284.284,0,0,0,.011.4l2.969,2.82v14.11a.284.284,0,0,0,.284.284.285.285,0,0,0,.285-.284v-9.683l4.239-3.678A.284.284,0,0,0,1817.545-1359.216Z"/><path class="b" d="M1823.157-1328.771h0c-.369-.021-2.576-.127-3.259-.807-.97-.967-.221-2.7.64-4.225h0a5.451,5.451,0,0,1,.67-5.465,3.072,3.072,0,0,1,1.949-.807h0a3.211,3.211,0,0,1,1.95.807,5.659,5.659,0,0,1,.876,5.4h0c.733,1.594,1.531,3.325.5,4.294C1825.8-1328.928,1823.56-1328.8,1823.157-1328.771Z"/><path d="M1825.122-1332.27a.137.137,0,0,0-.194-.014l-1.874,1.626v-4.454a.138.138,0,0,0-.138-.138.138.138,0,0,0-.138.138v2.292l-1.249-1.186a.139.139,0,0,0-.2.005.139.139,0,0,0,.005.195l1.439,1.367v6.839a.138.138,0,0,0,.138.138.138.138,0,0,0,.138-.138v-4.693l2.055-1.783A.138.138,0,0,0,1825.122-1332.27Z"/><path class="b" d="M1831.167-1344.79h0c-.369-.022-2.576-.128-3.259-.808-.97-.966-.221-2.7.64-4.224h0a5.452,5.452,0,0,1,.669-5.465,3.073,3.073,0,0,1,1.95-.808h0a3.218,3.218,0,0,1,1.95.808,5.661,5.661,0,0,1,.876,5.4h0c.733,1.593,1.531,3.324.5,4.293C1833.805-1344.948,1831.57-1344.821,1831.167-1344.79Z"/><path d="M1833.132-1348.29a.137.137,0,0,0-.194-.014l-1.874,1.626v-4.454a.138.138,0,0,0-.138-.138.138.138,0,0,0-.138.138v2.293l-1.249-1.187a.138.138,0,0,0-.195.005.138.138,0,0,0,.005.195l1.439,1.367v6.839a.138.138,0,0,0,.138.138.138.138,0,0,0,.138-.138v-4.693l2.054-1.783A.137.137,0,0,0,1833.132-1348.29Z"/><path class="c" d="M1947-1383.846c0,4.429-1.975,7.961-6.4,7.961s-5.6-3.532-5.6-7.961,1.225-10.154,5.654-10.154S1947-1388.275,1947-1383.846Z"/><path d="M1944.232-1381.108a.231.231,0,0,0-.326-.023l-3.137,2.721v-7.455a.23.23,0,0,0-.231-.231.23.23,0,0,0-.23.231v3.838l-2.091-1.986a.232.232,0,0,0-.327.008.231.231,0,0,0,.009.326l2.409,2.288v11.449a.23.23,0,0,0,.23.23.23.23,0,0,0,.231-.23v-7.857l3.44-2.984A.23.23,0,0,0,1944.232-1381.108Z"/><path class="d" d="M1944.563-1416.436l.783,1.776,1.93-.209a1.552,1.552,0,0,1,1.42,2.46l-1.146,1.566,1.146,1.567a1.552,1.552,0,0,1-1.42,2.46l-1.93-.21-.783,1.776a1.552,1.552,0,0,1-2.841,0l-.783-1.776-1.93.21a1.552,1.552,0,0,1-1.42-2.46l1.147-1.567-1.147-1.566a1.552,1.552,0,0,1,1.42-2.46l1.93.209.783-1.776A1.553,1.553,0,0,1,1944.563-1416.436Z"/><path d="M1940.134-1409.414a.194.194,0,0,1,.274-.019l2.638,2.288v-6.269a.194.194,0,0,1,.194-.194.194.194,0,0,1,.194.194v3.227l1.758-1.67a.194.194,0,0,1,.274.007.194.194,0,0,1-.007.275l-2.025,1.923v9.626a.193.193,0,0,1-.194.194.193.193,0,0,1-.194-.194v-6.6l-2.893-2.509A.2.2,0,0,1,1940.134-1409.414Z"/><path class="d" d="M1923.563-1377.436l.783,1.776,1.93-.209a1.552,1.552,0,0,1,1.42,2.46l-1.146,1.566,1.146,1.567a1.552,1.552,0,0,1-1.42,2.46l-1.93-.21-.783,1.776a1.552,1.552,0,0,1-2.841,0l-.783-1.776-1.93.21a1.552,1.552,0,0,1-1.42-2.46l1.147-1.567-1.147-1.566a1.552,1.552,0,0,1,1.42-2.46l1.93.209.783-1.776A1.553,1.553,0,0,1,1923.563-1377.436Z"/><path d="M1919.134-1370.414a.194.194,0,0,1,.274-.019l2.638,2.288v-6.269a.194.194,0,0,1,.194-.194.194.194,0,0,1,.194.194v3.227l1.758-1.67a.194.194,0,0,1,.274.007.194.194,0,0,1-.007.275l-2.025,1.923v9.626a.193.193,0,0,1-.194.194.193.193,0,0,1-.194-.194v-6.6l-2.893-2.509A.2.2,0,0,1,1919.134-1370.414Z"/><path class="d" d="M1945.563-1352.436l.783,1.776,1.93-.209a1.552,1.552,0,0,1,1.42,2.46l-1.146,1.566,1.146,1.567a1.552,1.552,0,0,1-1.42,2.46l-1.93-.21-.783,1.776a1.552,1.552,0,0,1-2.841,0l-.783-1.776-1.93.21a1.552,1.552,0,0,1-1.42-2.46l1.147-1.567-1.147-1.566a1.552,1.552,0,0,1,1.42-2.46l1.93.209.783-1.776A1.553,1.553,0,0,1,1945.563-1352.436Z"/><path d="M1941.134-1345.414a.194.194,0,0,1,.274-.019l2.638,2.288v-6.269a.194.194,0,0,1,.194-.194.194.194,0,0,1,.194.194v3.227l1.758-1.67a.194.194,0,0,1,.274.007.194.194,0,0,1-.007.275l-2.025,1.923v9.626a.193.193,0,0,1-.194.194.193.193,0,0,1-.194-.194v-6.6l-2.893-2.509A.2.2,0,0,1,1941.134-1345.414Z"/><path class="e" d="M1875.481-1366.561h-3.6c.818-6.987,8.15-14.186,10.7-16.5h0c-2.552,2.313-9.886,9.514-10.707,16.506h3.6Z"/><path class="e" d="M1882.584-1353.187a10.168,10.168,0,0,1-1.281-.2,10.168,10.168,0,0,0,1.281.2Z"/><path class="e" d="M1878.151-1360.643l-2.032,4.431a13.5,13.5,0,0,1-4.281-8.272,9.789,9.789,0,0,1-.032-1.029h0a10.088,10.088,0,0,0,.032,1.029,13.508,13.508,0,0,0,4.283,8.275l2.033-4.433Z"/><path class="e" d="M1878.973-1359.928l-2.03,4.428h0l2.029-4.426Z"/><path class="e" d="M1881.055-1353.437c-.067-.016-.133-.039-.2-.056C1880.922-1353.475,1880.988-1353.453,1881.055-1353.437Z"/><path class="e" d="M1876.544-1366.081a7.981,7.981,0,0,0,4.145,6,7.974,7.974,0,0,1-4.141-5.995c-.394-4.617,5.085-9.825,6.545-11.125l0,0C1881.632-1375.906,1876.151-1370.7,1876.544-1366.081Z"/><path class="e" d="M1890.616-1367.192l3.44,0v-.005h-3.436a15.893,15.893,0,0,0-3.513-7.151,32.456,32.456,0,0,0-3.478-3.793l.006-4.874,0,0-.005,4.88a32.707,32.707,0,0,1,3.478,3.793A15.949,15.949,0,0,1,1890.616-1367.192Z"/><path class="e" d="M1894.382-1364.44Z"/><path class="e" d="M1894.256-1366.145h0a11.911,11.911,0,0,1,.128,1.688A11.907,11.907,0,0,0,1894.256-1366.145Z"/><path class="e" d="M1883.634-1353.182h0a11.2,11.2,0,0,0,5.867-1.981h0A11.2,11.2,0,0,1,1883.634-1353.182Z"/><path class="e" d="M1890.7-1366.038c0-.034,0-.07,0-.107h0v.108a7.583,7.583,0,0,1-2.466,5.6l2.12,4.622,0,0-2.119-4.62A7.585,7.585,0,0,0,1890.7-1366.038Z"/><rect class="e" width="0.001" height="5.269" transform="translate(1883.63 -1358.451)"/><path class="f" d="M1871.838-1364.484a13.5,13.5,0,0,0,4.281,8.272l2.032-4.431a9.054,9.054,0,0,1-2.59-4.87h-3.755A9.789,9.789,0,0,0,1871.838-1364.484Z"/><path class="g" d="M1871.883-1366.561h3.6c0-2.307,1.145-4.909,3.419-7.749a31.119,31.119,0,0,1,3.68-3.838l.006-4.914C1880.033-1380.747,1872.7-1373.548,1871.883-1366.561Z"/><path class="f" d="M1882.579-1358.459a6.966,6.966,0,0,1-3.6-1.467l-2.03,4.425a10.184,10.184,0,0,0,3.91,2.008c.067.017.133.04.2.056s.165.033.248.051a10.168,10.168,0,0,0,1.281.2Z"/><path class="f" d="M1887.4-1359.764a7.558,7.558,0,0,1-3.768,1.313l.006,5.269a11.2,11.2,0,0,0,5.869-1.981Z"/><path class="f" d="M1887.106-1374.346a15.893,15.893,0,0,1,3.513,7.151h3.436c-1.524-6.777-8.032-13.525-10.421-15.818l-.006,4.874A32.456,32.456,0,0,1,1887.106-1374.346Z"/><path class="h" d="M1876.548-1366.08a7.974,7.974,0,0,0,4.141,5.995,5.333,5.333,0,0,0,2.412.6h0a6.561,6.561,0,0,0,6.551-6.555c0-4.67-5.161-9.848-6.562-11.167C1881.633-1375.905,1876.154-1370.7,1876.548-1366.08Z"/><path class="f" d="M1894.381-1364.457a11.911,11.911,0,0,0-.128-1.688H1890.7c0,.037,0,.073,0,.107a7.585,7.585,0,0,1-2.465,5.6l2.119,4.62a11.249,11.249,0,0,0,4.02-8.621h0Z"/><path class="i" d="M1883.534-1384.544l-.441-.405-.468.454a51.089,51.089,0,0,0-6.244,6.484,31.574,31.574,0,0,0-4.078,6.406,14.425,14.425,0,0,0-1.508,7.208,14.455,14.455,0,0,0,3.889,8.259,11.659,11.659,0,0,0,8.429,4.014,12.332,12.332,0,0,0,12.317-12.317C1895.428-1373.586,1884.638-1383.549,1883.534-1384.544Zm.1,1.527,0,0c2.389,2.293,8.9,9.041,10.421,15.818v.005l-3.44,0a15.949,15.949,0,0,0-3.513-7.152,32.707,32.707,0,0,0-3.478-3.793Zm-.539,5.81,0,0c1.4,1.319,6.562,6.5,6.562,11.167a6.561,6.561,0,0,1-6.551,6.555h0a5.333,5.333,0,0,1-2.412-.6,7.981,7.981,0,0,1-4.145-6C1876.151-1370.7,1881.632-1375.906,1883.091-1377.207Zm-.5-5.855h0l-.006,4.914a31.119,31.119,0,0,0-3.68,3.838c-2.274,2.84-3.419,5.442-3.419,7.749v.005h-3.6C1872.7-1373.548,1880.034-1380.749,1882.586-1383.062Zm-10.75,18.577a10.088,10.088,0,0,1-.032-1.029h3.757a9.054,9.054,0,0,0,2.59,4.87h0l-2.033,4.433A13.508,13.508,0,0,1,1871.836-1364.485Zm9.219,11.048c-.067-.016-.133-.038-.2-.056a10.184,10.184,0,0,1-3.91-2.008h0l2.031-4.428,0,0a6.966,6.966,0,0,0,3.6,1.467l.005,5.272h0a10.168,10.168,0,0,1-1.281-.2C1881.22-1353.4,1881.137-1353.417,1881.055-1353.437Zm2.581.255h-.005l0-5.269h0a7.558,7.558,0,0,0,3.768-1.313l2.107,4.6h0A11.2,11.2,0,0,1,1883.636-1353.182Zm10.746-11.258h0a11.249,11.249,0,0,1-4.02,8.621l0,0-2.12-4.622a7.583,7.583,0,0,0,2.466-5.6v-.108h3.553a11.907,11.907,0,0,1,.125,1.688v.016Z"/><path class="j" d="M1886.731-1377.376l.692,1.264a.189.189,0,0,0,.074.074l1.265.692a.187.187,0,0,1,.074.253.189.189,0,0,1-.074.074l-1.265.692a.187.187,0,0,0-.074.074l-.692,1.264a.186.186,0,0,1-.253.075.185.185,0,0,1-.074-.075l-.691-1.264a.187.187,0,0,0-.074-.074l-1.264-.692a.186.186,0,0,1-.075-.253.184.184,0,0,1,.075-.074l1.264-.692a.189.189,0,0,0,.074-.074l.691-1.264a.186.186,0,0,1,.253-.075A.185.185,0,0,1,1886.731-1377.376Z"/><path class="j" d="M1889.161-1373.879l.506.337a.077.077,0,0,0,.042.012l.6.01a.077.077,0,0,1,.077.079.069.069,0,0,1-.013.042l-.337.506a.077.077,0,0,0-.012.042l-.01.6a.077.077,0,0,1-.079.077.077.077,0,0,1-.042-.013l-.506-.337a.076.076,0,0,0-.042-.012l-.6-.01a.077.077,0,0,1-.077-.08.076.076,0,0,1,.013-.041l.337-.506a.076.076,0,0,0,.012-.042l.01-.6a.077.077,0,0,1,.077-.078A.077.077,0,0,1,1889.161-1373.879Z"/><path class="j" d="M1876.572-1363.66l.188.343a.039.039,0,0,0,.02.02l.343.188a.052.052,0,0,1,.02.069.064.064,0,0,1-.02.02l-.343.188a.039.039,0,0,0-.02.02l-.188.343a.052.052,0,0,1-.069.02.055.055,0,0,1-.02-.02l-.188-.343a.049.049,0,0,0-.02-.02l-.343-.188a.051.051,0,0,1-.02-.069.063.063,0,0,1,.02-.02l.343-.188a.049.049,0,0,0,.02-.02l.188-.343a.052.052,0,0,1,.069-.02A.064.064,0,0,1,1876.572-1363.66Z"/><path class="k" d="M1909.029-1335.706h-51.852v-10.6h51.852Z"/><path class="l" d="M1857.414-1346.067v10.124h51.378v-10.124h-51.378m-.473-.473h52.324v11.071h-52.324Z"/><g class="m"><text class="n" transform="translate(1862.363 -1337.741)"><tspan x="0" y="0">AGUA MARINHA</tspan></text></g><g class="m"><text class="o" transform="translate(1862.079 -1338.071)"><tspan x="0" y="0">AGUA MARINHA</tspan></text></g><g class="m"><text class="p" transform="translate(1862.079 -1338.071)"><tspan x="0" y="0">AGUA MARINHA</tspan></text></g></g></svg>