<svg xmlns="http://www.w3.org/2000/svg" xmlns:xlink="http://www.w3.org/1999/xlink" width="228.993" height="234.922" viewBox="0 0 228.993 234.922"><defs><style>.a{stroke:#3d3d3d;stroke-miterlimit:10;stroke-width:0.5px;opacity:0.94;fill:url(#a);}.b{fill:#35472d;}.c{fill:#91b77d;}.d,.o{fill:none;}.e{fill:#6bbfc7;}.f{fill:#edf7fb;}.g{fill:#bee1e5;}.h{fill:#2188a8;}.i{fill:#fff;}.j{fill:#b2dbdf;}.k,.n{fill:#46a1a6;}.l,.m,.n,.o{isolation:isolate;}.m{fill:#daeff6;}.m,.n,.o{font-size:8.137px;font-family:AgencyFB-Bold, Agency FB;font-weight:700;}.o{stroke:#b2dbdf;stroke-width:0.095px;}</style><linearGradient id="a" y1="0.5" x2="1" y2="0.5" gradientUnits="objectBoundingBox"><stop offset="0.219" stop-color="#4e765c"/><stop offset="1" stop-color="#366043"/></linearGradient></defs><g transform="translate(-1909.284 1322.273)"><path class="a" d="M2115.494-1111.759c-7.218-6.331-14.681-12.878-21.066-21.005-7.631-9.017-10.635-19.568-13.539-29.772a150.644,150.644,0,0,0-4.745-14.721l-.041-.111c-3.794-11.382-14.068-17.475-24.944-23.925-2.7-1.6-5.495-3.259-8.24-5.024l-.1-.07a42.246,42.246,0,0,1-9.575-9.8c-4.975-7.077-7.588-15.315-9.12-20.9-1.073-3.909-1.974-7.921-2.734-11.375-.117-.527-.247-1.07-.388-1.654-.259-1.073-.553-2.29-.852-3.8-.33-1.668-.709-3.955-1.127-6.8-.5-3.417-.824-6.041-.961-7.161l-.1-.738c-.485-3.621-1.137-8.664-1.19-10.654-.16-5.954.48-14.715,4.439-22.633.742-1.484,1.5-2.905,2.262-4.3l-4.81-4.321c-8.761-7.979-17.352-11.835-25.577-11.49-26.21,1.126-44.824,44.512-61.248,82.791a435.6,435.6,0,0,0-22.141,65.652c-.035.173-.07.348-.106.521a355.724,355.724,0,0,1,50.673,3.056c32.179,4.281,59.106,12.556,75.817,23.3a100.363,100.363,0,0,1,23.789,20.692c5.4,6.1,10.512,11.863,22.2,19.3,18.306,11.649,44.826,17.134,55.658,18.99l-6.293-9.046A209.814,209.814,0,0,0,2115.494-1111.759Z"/><path class="b" d="M1938.4-1185.822h0c-.952-.055-6.636-.327-8.4-2.08-2.5-2.489-.569-6.955,1.648-10.881h0c-2.343-4.162-.885-11.514,1.725-14.077a7.924,7.924,0,0,1,5.022-2.08h0a8.274,8.274,0,0,1,5.021,2.08c2.688,2.522,4.188,9.718,2.258,13.9h0c1.888,4.105,3.943,8.563,1.293,11.059C1945.19-1186.227,1939.433-1185.9,1938.4-1185.822Z"/><path d="M1943.458-1194.836a.355.355,0,0,0-.5-.036l-4.828,4.188v-11.473a.355.355,0,0,0-.355-.355.355.355,0,0,0-.355.355v5.906l-3.217-3.056a.355.355,0,0,0-.5.013.354.354,0,0,0,.012.5l3.707,3.521v17.616a.355.355,0,0,0,.355.355.355.355,0,0,0,.355-.355v-12.089l5.293-4.592A.355.355,0,0,0,1943.458-1194.836Z"/><path class="b" d="M1976.4-1266.822h0c-.952-.055-6.636-.327-8.4-2.08-2.5-2.489-.569-6.955,1.648-10.881h0c-2.343-4.162-.885-11.514,1.725-14.077a7.924,7.924,0,0,1,5.022-2.08h0a8.274,8.274,0,0,1,5.021,2.08c2.688,2.522,4.188,9.718,2.258,13.9h0c1.888,4.105,3.943,8.563,1.293,11.059C1983.19-1267.227,1977.433-1266.9,1976.4-1266.822Z"/><path d="M1981.458-1275.836a.355.355,0,0,0-.5-.036l-4.828,4.188v-11.473a.355.355,0,0,0-.355-.355.355.355,0,0,0-.355.355v5.906l-3.217-3.056a.355.355,0,0,0-.5.013.354.354,0,0,0,.012.5l3.707,3.521v17.616a.355.355,0,0,0,.355.355.355.355,0,0,0,.355-.355v-12.089l5.293-4.592A.355.355,0,0,0,1981.458-1275.836Z"/><path class="b" d="M2045.4-1162.822h0c-.952-.055-6.636-.327-8.4-2.08-2.5-2.489-.569-6.955,1.648-10.881h0c-2.343-4.162-.885-11.514,1.725-14.077a7.924,7.924,0,0,1,5.022-2.08h0a8.274,8.274,0,0,1,5.021,2.08c2.688,2.522,4.188,9.718,2.258,13.9h0c1.888,4.105,3.943,8.563,1.293,11.059C2052.19-1163.227,2046.433-1162.9,2045.4-1162.822Z"/><path d="M2050.458-1171.836a.355.355,0,0,0-.5-.036l-4.828,4.188v-11.473a.355.355,0,0,0-.355-.355.355.355,0,0,0-.355.355v5.906l-3.217-3.056a.355.355,0,0,0-.5.013.354.354,0,0,0,.012.5l3.707,3.521v17.616a.355.355,0,0,0,.355.355.355.355,0,0,0,.355-.355v-12.089l5.293-4.592A.355.355,0,0,0,2050.458-1171.836Z"/><path class="b" d="M2020.464-1201.827h0c-.461-.026-3.216-.158-4.069-1.008-1.211-1.206-.276-3.371.8-5.274h0a6.808,6.808,0,0,1,.836-6.823,3.842,3.842,0,0,1,2.434-1.008h0a4.012,4.012,0,0,1,2.434,1.008c1.3,1.223,2.03,4.71,1.094,6.737h0c.915,1.99,1.911,4.15.627,5.36C2023.757-1202.023,2020.967-1201.864,2020.464-1201.827Z"/><path d="M2022.917-1206.2a.173.173,0,0,0-.243-.017l-2.339,2.03v-5.561a.172.172,0,0,0-.172-.172.173.173,0,0,0-.173.172v2.863l-1.559-1.482a.172.172,0,0,0-.243.007.171.171,0,0,0,.006.243l1.8,1.706v8.539a.173.173,0,0,0,.173.172.172.172,0,0,0,.172-.172v-5.86l2.565-2.225A.172.172,0,0,0,2022.917-1206.2Z"/><path class="b" d="M2093.464-1111.827h0c-.461-.026-3.216-.158-4.069-1.008-1.211-1.206-.276-3.371.8-5.274h0a6.807,6.807,0,0,1,.836-6.823,3.842,3.842,0,0,1,2.434-1.008h0a4.012,4.012,0,0,1,2.434,1.008c1.3,1.223,2.03,4.71,1.094,6.737h0c.915,1.99,1.911,4.15.627,5.36C2096.757-1112.023,2093.967-1111.864,2093.464-1111.827Z"/><path d="M2095.917-1116.2a.172.172,0,0,0-.243-.017l-2.339,2.03v-5.561a.172.172,0,0,0-.172-.172.173.173,0,0,0-.173.172v2.863l-1.559-1.482a.172.172,0,0,0-.243.007.171.171,0,0,0,.006.243l1.8,1.706v8.539a.173.173,0,0,0,.173.172.172.172,0,0,0,.172-.172v-5.86l2.565-2.225A.172.172,0,0,0,2095.917-1116.2Z"/><path class="b" d="M1998.464-1291.827h0c-.461-.026-3.216-.158-4.069-1.008-1.211-1.206-.276-3.371.8-5.274h0a6.808,6.808,0,0,1,.836-6.823,3.842,3.842,0,0,1,2.434-1.008h0a4.012,4.012,0,0,1,2.434,1.008c1.3,1.223,2.03,4.71,1.094,6.737h0c.915,1.99,1.911,4.15.627,5.36C2001.757-1292.023,1998.967-1291.864,1998.464-1291.827Z"/><path d="M2000.917-1296.2a.173.173,0,0,0-.243-.017l-2.339,2.03v-5.561a.172.172,0,0,0-.172-.172.173.173,0,0,0-.173.172v2.863l-1.559-1.482a.172.172,0,0,0-.243.007.171.171,0,0,0,.006.243l1.8,1.706v8.539a.173.173,0,0,0,.173.172.172.172,0,0,0,.172-.172v-5.86l2.565-2.225A.172.172,0,0,0,2000.917-1296.2Z"/><path class="c" d="M2008-1257.846c0,4.429-1.975,7.961-6.4,7.961s-5.6-3.532-5.6-7.961,1.225-10.154,5.654-10.154S2008-1262.275,2008-1257.846Z"/><path d="M2005.232-1255.108a.231.231,0,0,0-.326-.023l-3.137,2.721v-7.455a.23.23,0,0,0-.231-.231.23.23,0,0,0-.23.231v3.838l-2.091-1.986a.232.232,0,0,0-.327.008.231.231,0,0,0,.009.326l2.409,2.288v11.449a.23.23,0,0,0,.23.23.23.23,0,0,0,.231-.23v-7.857l3.44-2.984A.23.23,0,0,0,2005.232-1255.108Z"/><path class="c" d="M2077-1151.458c0,5.47-2.439,9.833-7.91,9.833s-6.912-4.363-6.912-9.833,1.513-12.542,6.984-12.542S2077-1156.929,2077-1151.458Z"/><path d="M2073.581-1148.077a.286.286,0,0,0-.4-.028l-3.875,3.362v-9.209a.286.286,0,0,0-.285-.286.286.286,0,0,0-.285.286v4.74l-2.583-2.453a.284.284,0,0,0-.4.01.285.285,0,0,0,.011.4l2.975,2.826v14.141a.286.286,0,0,0,.285.285.285.285,0,0,0,.285-.285v-9.7l4.249-3.685A.287.287,0,0,0,2073.581-1148.077Z"/><path class="d" d="M1978.914-1216.547h-3.6c.819-6.987,8.151-14.186,10.7-16.5h0c-2.552,2.313-9.885,9.514-10.706,16.506h3.6Z"/><path class="d" d="M1986.017-1203.173a10.015,10.015,0,0,1-1.282-.2,10.015,10.015,0,0,0,1.282.2Z"/><path class="d" d="M1981.584-1210.629l-2.033,4.431a13.511,13.511,0,0,1-4.28-8.272,9.543,9.543,0,0,1-.032-1.03h0a9.533,9.533,0,0,0,.032,1.029,13.511,13.511,0,0,0,4.282,8.275l2.033-4.433Z"/><path class="d" d="M1982.405-1209.914l-2.03,4.427h0l2.03-4.426Z"/><path class="d" d="M1984.487-1203.423c-.067-.016-.132-.039-.2-.056C1984.355-1203.462,1984.42-1203.439,1984.487-1203.423Z"/><path class="d" d="M1979.977-1216.068a7.976,7.976,0,0,0,4.145,6,7.978,7.978,0,0,1-4.142-5.995c-.393-4.617,5.086-9.825,6.546-11.125l0,0C1985.064-1225.893,1979.584-1220.684,1979.977-1216.068Z"/><path class="d" d="M1994.048-1217.178l3.441,0,0-.005h-3.435a15.9,15.9,0,0,0-3.513-7.152,32.54,32.54,0,0,0-3.479-3.792l.006-4.875,0,0-.006,4.88a32.536,32.536,0,0,1,3.478,3.793A15.936,15.936,0,0,1,1994.048-1217.178Z"/><path class="d" d="M1997.814-1214.427Z"/><path class="d" d="M1997.689-1216.131h0a11.928,11.928,0,0,1,.129,1.688A11.906,11.906,0,0,0,1997.689-1216.131Z"/><path class="d" d="M1987.066-1203.169h0a11.208,11.208,0,0,0,5.867-1.98h0A11.2,11.2,0,0,1,1987.066-1203.169Z"/><path class="d" d="M1994.138-1216.024c0-.035,0-.07,0-.107h0v.108a7.583,7.583,0,0,1-2.465,5.6l2.12,4.622,0,0-2.12-4.621A7.582,7.582,0,0,0,1994.138-1216.024Z"/><rect class="d" width="0.001" height="5.269" transform="translate(1987.062 -1208.437)"/><path class="e" d="M1975.271-1214.47a13.511,13.511,0,0,0,4.28,8.272l2.033-4.431a9.049,9.049,0,0,1-2.59-4.871h-3.755A9.543,9.543,0,0,0,1975.271-1214.47Z"/><path class="f" d="M1975.315-1216.547h3.6c0-2.307,1.145-4.909,3.419-7.749a31.059,31.059,0,0,1,3.68-3.839l.005-4.913C1983.466-1230.733,1976.134-1223.534,1975.315-1216.547Z"/><path class="e" d="M1986.011-1208.445a6.964,6.964,0,0,1-3.6-1.468l-2.029,4.426a10.2,10.2,0,0,0,3.909,2.008c.068.017.133.04.2.056s.166.033.248.05a10.015,10.015,0,0,0,1.282.2Z"/><path class="e" d="M1990.829-1209.75a7.563,7.563,0,0,1-3.769,1.313l.006,5.268a11.2,11.2,0,0,0,5.87-1.981Z"/><path class="e" d="M1990.539-1224.333a15.9,15.9,0,0,1,3.513,7.152h3.435c-1.524-6.777-8.031-13.525-10.421-15.819l-.006,4.875A32.54,32.54,0,0,1,1990.539-1224.333Z"/><path class="g" d="M1979.98-1216.066a7.978,7.978,0,0,0,4.142,5.995,5.342,5.342,0,0,0,2.411.6h0a6.563,6.563,0,0,0,6.552-6.556c0-4.669-5.162-9.847-6.562-11.166C1985.066-1225.891,1979.587-1220.683,1979.98-1216.066Z"/><path class="e" d="M1997.814-1214.443a11.928,11.928,0,0,0-.129-1.688h-3.549c0,.037,0,.072,0,.107a7.582,7.582,0,0,1-2.466,5.6l2.12,4.621a11.256,11.256,0,0,0,4.02-8.622h0Z"/><path class="h" d="M1986.967-1234.53l-.442-.406-.468.455a51.073,51.073,0,0,0-6.243,6.484,31.59,31.59,0,0,0-4.078,6.4,14.431,14.431,0,0,0-1.509,7.208,14.458,14.458,0,0,0,3.89,8.26,11.663,11.663,0,0,0,8.428,4.014,12.332,12.332,0,0,0,12.318-12.317C1998.861-1223.572,1988.071-1233.535,1986.967-1234.53Zm.1,1.527,0,0c2.39,2.294,8.9,9.042,10.421,15.819l0,.005-3.441,0a15.936,15.936,0,0,0-3.513-7.152,32.536,32.536,0,0,0-3.478-3.793Zm-.54,5.81,0,0c1.4,1.319,6.562,6.5,6.562,11.166a6.563,6.563,0,0,1-6.552,6.556h0a5.342,5.342,0,0,1-2.411-.6,7.976,7.976,0,0,1-4.145-6C1979.584-1220.684,1985.064-1225.893,1986.523-1227.193Zm-.505-5.855h0l-.005,4.913a31.059,31.059,0,0,0-3.68,3.839c-2.274,2.84-3.419,5.442-3.419,7.749v.005h-3.6C1976.133-1223.534,1983.466-1230.735,1986.018-1233.048Zm-10.749,18.577a9.533,9.533,0,0,1-.032-1.029h3.757a9.049,9.049,0,0,0,2.59,4.871h0l-2.033,4.433A13.511,13.511,0,0,1,1975.269-1214.471Zm9.218,11.048c-.067-.016-.132-.039-.2-.056a10.2,10.2,0,0,1-3.909-2.008h0l2.03-4.428h0a6.964,6.964,0,0,0,3.6,1.468l.006,5.272h0a10.015,10.015,0,0,1-1.282-.2C1984.653-1203.39,1984.569-1203.4,1984.487-1203.423Zm2.582.254h-.005l0-5.268h0a7.563,7.563,0,0,0,3.769-1.313l2.107,4.6h0A11.208,11.208,0,0,1,1987.069-1203.169Zm10.745-11.258h0a11.256,11.256,0,0,1-4.02,8.622l0,0-2.12-4.622a7.583,7.583,0,0,0,2.465-5.6v-.108h3.554a11.906,11.906,0,0,1,.125,1.688v.016Z"/><path class="i" d="M1990.164-1227.363l.692,1.265a.189.189,0,0,0,.074.074l1.264.692a.186.186,0,0,1,.074.253.187.187,0,0,1-.074.074l-1.264.692a.189.189,0,0,0-.074.074l-.692,1.264a.187.187,0,0,1-.253.075.19.19,0,0,1-.074-.075l-.691-1.264a.19.19,0,0,0-.075-.074l-1.264-.692a.186.186,0,0,1-.074-.253.189.189,0,0,1,.074-.074l1.264-.692a.19.19,0,0,0,.075-.074l.691-1.265a.186.186,0,0,1,.252-.074A.184.184,0,0,1,1990.164-1227.363Z"/><path class="i" d="M1992.594-1223.866l.505.338a.079.079,0,0,0,.042.012l.6.009a.079.079,0,0,1,.077.08.089.089,0,0,1-.013.042l-.337.506a.077.077,0,0,0-.013.042l-.009.6a.079.079,0,0,1-.08.077.079.079,0,0,1-.042-.013l-.505-.337a.089.089,0,0,0-.042-.013l-.6-.009a.078.078,0,0,1-.077-.08.086.086,0,0,1,.013-.041l.337-.506a.077.077,0,0,0,.013-.042l.009-.6a.078.078,0,0,1,.078-.077A.086.086,0,0,1,1992.594-1223.866Z"/><path class="i" d="M1980-1213.646l.188.343a.048.048,0,0,0,.02.02l.343.188a.051.051,0,0,1,.02.069.055.055,0,0,1-.02.02l-.343.188a.048.048,0,0,0-.02.02l-.188.343a.052.052,0,0,1-.069.02.051.051,0,0,1-.019-.02l-.188-.343a.046.046,0,0,0-.021-.02l-.343-.188a.052.052,0,0,1-.02-.069.063.063,0,0,1,.02-.02l.343-.188a.046.046,0,0,0,.021-.02l.188-.343a.05.05,0,0,1,.068-.02A.054.054,0,0,1,1980-1213.646Z"/><path class="j" d="M2012.461-1185.693H1960.61v-10.6h51.851Z"/><path class="k" d="M1960.847-1196.053v10.124h51.378v-10.124h-51.378m-.474-.473H2012.7v11.07h-52.325Z"/><g class="l"><text class="m" transform="translate(1965.796 -1187.727)"><tspan x="0" y="0">AGUA MARINHA</tspan></text></g><g class="l"><text class="n" transform="translate(1965.512 -1188.058)"><tspan x="0" y="0">AGUA MARINHA</tspan></text></g><g class="l"><text class="o" transform="translate(1965.512 -1188.058)"><tspan x="0" y="0">AGUA MARINHA</tspan></text></g></g></svg>