<svg xmlns="http://www.w3.org/2000/svg" xmlns:xlink="http://www.w3.org/1999/xlink" width="98.054" height="197.123" viewBox="0 0 98.054 197.123"><defs><style>.a{stroke:#3d3d3d;stroke-miterlimit:10;stroke-width:0.5px;opacity:0.94;fill:url(#a);}.b{fill:#35472d;}.c{fill:#91b77d;}.d{fill:#336d15;}.e,.p{fill:none;}.f{fill:#6bbfc7;}.g{fill:#edf7fb;}.h{fill:#bee1e5;}.i{fill:#2188a8;}.j{fill:#fff;}.k{fill:#b2dbdf;}.l,.o{fill:#46a1a6;}.m,.n,.o,.p{isolation:isolate;}.n{fill:#daeff6;}.n,.o,.p{font-size:8.137px;font-family:AgencyFB-Bold, Agency FB;font-weight:700;}.p{stroke:#b2dbdf;stroke-width:0.095px;}</style><linearGradient id="a" y1="0.5" x2="1" y2="0.5" gradientUnits="objectBoundingBox"><stop offset="0.219" stop-color="#4e765c"/><stop offset="1" stop-color="#366043"/></linearGradient></defs><g transform="translate(-1852.245 1332.253)"><path class="a" d="M1949.85-1322.26c-.34,3.1-.62,6.19-.9,9.4s-.57,6.53-.96,10.08a217.17,217.17,0,0,1-5.11,29.09c-3.79,15.2-8.76,27.35-13.9,39.94-6.83,16.71-13.86,33.9-19.28,60.19-.05.18-.1.35-.14.52h.03c-.27,1.32-.53,2.66-.8,4.02-.63,3.31-1.24,6.74-1.82,10.34-1.45,9.01-2.61,16.27-3.22,22.73a2.155,2.155,0,0,0-.34-.47q-1.635-1.62-3.3-3.18a132.621,132.621,0,0,0-25.78-18.92,54.6,54.6,0,0,0-21.76-7.19,184.924,184.924,0,0,0,7.43-46.23,183.35,183.35,0,0,0-.5-19.66c-.19-2.98-.4-6.06-.5-9.46-.6-19.79,2.58-40.59,9.43-61.83a41.844,41.844,0,0,0,15.71-6.46,115.366,115.366,0,0,0,9.88-8.01c8.34-7.28,16.94-14.83,28.95-14.64,7.63.1,15.32,3.4,22.86,9.78.28.24.57.47.85.72a2,2,0,0,0,2.82-.18A1.952,1.952,0,0,0,1949.85-1322.26Z"/><path class="b" d="M1912.464-1209.827h0c-.461-.026-3.216-.158-4.069-1.008-1.211-1.206-.276-3.371.8-5.274h0a6.808,6.808,0,0,1,.836-6.823,3.842,3.842,0,0,1,2.434-1.008h0a4.012,4.012,0,0,1,2.434,1.008c1.3,1.223,2.03,4.71,1.094,6.737h0c.915,1.99,1.911,4.15.627,5.36C1915.757-1210.023,1912.967-1209.864,1912.464-1209.827Z"/><path d="M1914.917-1214.2a.173.173,0,0,0-.243-.017l-2.339,2.03v-5.561a.172.172,0,0,0-.172-.172.173.173,0,0,0-.173.172v2.863l-1.559-1.482a.172.172,0,0,0-.243.007.171.171,0,0,0,.006.243l1.8,1.706v8.539a.173.173,0,0,0,.173.172.172.172,0,0,0,.172-.172v-5.86l2.565-2.225A.172.172,0,0,0,1914.917-1214.2Z"/><path class="c" d="M1915-1313.846c0,4.429,1.975,7.961,6.4,7.961s5.6-3.532,5.6-7.961-1.225-10.154-5.654-10.154S1915-1318.275,1915-1313.846Z"/><path d="M1917.768-1311.108a.231.231,0,0,1,.326-.023l3.137,2.721v-7.455a.23.23,0,0,1,.231-.231.23.23,0,0,1,.23.231v3.838l2.091-1.986a.232.232,0,0,1,.327.008.231.231,0,0,1-.009.326l-2.409,2.288v11.449a.23.23,0,0,1-.23.23.23.23,0,0,1-.231-.23v-7.857l-3.44-2.984A.23.23,0,0,1,1917.768-1311.108Z"/><path class="c" d="M1928-1291.846c0,4.429,1.975,7.961,6.4,7.961s5.6-3.532,5.6-7.961-1.225-10.154-5.654-10.154S1928-1296.275,1928-1291.846Z"/><path d="M1930.768-1289.108a.231.231,0,0,1,.326-.023l3.137,2.721v-7.455a.23.23,0,0,1,.231-.231.23.23,0,0,1,.23.231v3.838l2.091-1.986a.232.232,0,0,1,.327.008.231.231,0,0,1-.009.326l-2.409,2.288v11.449a.23.23,0,0,1-.23.23.23.23,0,0,1-.231-.23v-7.857l-3.44-2.984A.23.23,0,0,1,1930.768-1289.108Z"/><path class="d" d="M1892.745-1204.495l1.987,4.506,4.895-.533a3.938,3.938,0,0,1,3.6,6.24l-2.909,3.973,2.909,3.974a3.938,3.938,0,0,1-3.6,6.24l-4.895-.533-1.987,4.506a3.937,3.937,0,0,1-7.2,0l-1.987-4.506-4.9.533a3.938,3.938,0,0,1-3.6-6.24l2.909-3.974-2.909-3.973a3.937,3.937,0,0,1,3.6-6.24l4.9.533,1.987-4.506A3.937,3.937,0,0,1,1892.745-1204.495Z"/><path d="M1881.511-1186.684a.493.493,0,0,1,.7-.049l6.69,5.8v-15.9a.492.492,0,0,1,.493-.492.492.492,0,0,1,.492.492v8.186l4.459-4.236a.493.493,0,0,1,.7.018.493.493,0,0,1-.018.7l-5.137,4.879v24.417a.493.493,0,0,1-.492.492.493.493,0,0,1-.493-.492v-16.756l-7.335-6.364A.491.491,0,0,1,1881.511-1186.684Z"/><path class="e" d="M1888.206-1260.953h-3.6c.818-6.987,8.151-14.186,10.7-16.5h0c-2.552,2.313-9.885,9.514-10.706,16.506h3.6Z"/><path class="e" d="M1895.31-1247.579a10.014,10.014,0,0,1-1.282-.2,10.014,10.014,0,0,0,1.282.2Z"/><path class="e" d="M1890.877-1255.035l-2.033,4.431a13.518,13.518,0,0,1-4.281-8.272,9.866,9.866,0,0,1-.031-1.03h0a9.533,9.533,0,0,0,.032,1.029,13.511,13.511,0,0,0,4.282,8.275l2.033-4.433Z"/><path class="e" d="M1891.7-1254.32l-2.03,4.427h0l2.03-4.426Z"/><path class="e" d="M1893.78-1247.829c-.067-.016-.133-.039-.2-.056C1893.647-1247.868,1893.713-1247.845,1893.78-1247.829Z"/><path class="e" d="M1889.27-1260.474a7.976,7.976,0,0,0,4.145,6,7.976,7.976,0,0,1-4.142-5.995c-.393-4.617,5.086-9.825,6.546-11.125l0,0C1894.357-1270.3,1888.876-1265.09,1889.27-1260.474Z"/><path class="e" d="M1903.341-1261.584l3.441,0,0-.005h-3.435a15.912,15.912,0,0,0-3.513-7.152,32.541,32.541,0,0,0-3.479-3.792l.006-4.875,0,0-.006,4.88a32.525,32.525,0,0,1,3.478,3.793A15.936,15.936,0,0,1,1903.341-1261.584Z"/><path class="e" d="M1907.107-1258.833Z"/><path class="e" d="M1906.982-1260.537h0a11.768,11.768,0,0,1,.128,1.688A11.924,11.924,0,0,0,1906.982-1260.537Z"/><path class="e" d="M1896.359-1247.575h0a11.207,11.207,0,0,0,5.867-1.98h0A11.2,11.2,0,0,1,1896.359-1247.575Z"/><path class="e" d="M1903.431-1260.43c0-.035,0-.07,0-.107h0v.108a7.586,7.586,0,0,1-2.465,5.6l2.12,4.622,0,0-2.12-4.621A7.586,7.586,0,0,0,1903.431-1260.43Z"/><rect class="e" width="0.001" height="5.269" transform="translate(1896.355 -1252.843)"/><path class="f" d="M1884.563-1258.876a13.518,13.518,0,0,0,4.281,8.272l2.033-4.431a9.057,9.057,0,0,1-2.591-4.871h-3.754A9.866,9.866,0,0,0,1884.563-1258.876Z"/><path class="g" d="M1884.608-1260.953h3.6c0-2.308,1.146-4.909,3.42-7.749a30.989,30.989,0,0,1,3.68-3.839l.005-4.913C1892.759-1275.139,1885.426-1267.94,1884.608-1260.953Z"/><path class="f" d="M1895.3-1252.851a6.965,6.965,0,0,1-3.6-1.468l-2.03,4.426a10.213,10.213,0,0,0,3.91,2.008c.067.017.133.04.2.056.082.02.166.033.248.05a10.014,10.014,0,0,0,1.282.2Z"/><path class="f" d="M1900.121-1254.157a7.549,7.549,0,0,1-3.768,1.314l.006,5.268a11.2,11.2,0,0,0,5.87-1.981Z"/><path class="f" d="M1899.832-1268.739a15.912,15.912,0,0,1,3.513,7.152h3.435c-1.524-6.777-8.031-13.525-10.421-15.819l-.006,4.875A32.541,32.541,0,0,1,1899.832-1268.739Z"/><path class="h" d="M1889.273-1260.472a7.976,7.976,0,0,0,4.142,5.995,5.341,5.341,0,0,0,2.411.6h0a6.561,6.561,0,0,0,6.551-6.556c0-4.669-5.161-9.847-6.561-11.166C1894.359-1270.3,1888.88-1265.089,1889.273-1260.472Z"/><path class="f" d="M1907.106-1258.849a11.768,11.768,0,0,0-.128-1.688h-3.549c0,.037,0,.072,0,.107a7.586,7.586,0,0,1-2.466,5.6l2.12,4.621a11.255,11.255,0,0,0,4.02-8.622h0Z"/><path class="i" d="M1896.26-1278.936l-.442-.406-.468.455a51.1,51.1,0,0,0-6.244,6.484,31.629,31.629,0,0,0-4.077,6.4,14.43,14.43,0,0,0-1.509,7.208,14.458,14.458,0,0,0,3.89,8.26,11.661,11.661,0,0,0,8.428,4.014,12.332,12.332,0,0,0,12.318-12.317C1908.154-1267.978,1897.364-1277.941,1896.26-1278.936Zm.1,1.527,0,0c2.39,2.294,8.9,9.042,10.421,15.819l0,.005-3.441,0a15.936,15.936,0,0,0-3.513-7.152,32.525,32.525,0,0,0-3.478-3.793Zm-.54,5.81,0,0c1.4,1.319,6.561,6.5,6.561,11.166a6.561,6.561,0,0,1-6.551,6.556h0a5.341,5.341,0,0,1-2.411-.6,7.976,7.976,0,0,1-4.145-6C1888.876-1265.09,1894.357-1270.3,1895.816-1271.6Zm-.505-5.855h0l-.005,4.913a30.989,30.989,0,0,0-3.68,3.839c-2.274,2.84-3.42,5.441-3.42,7.749v.005h-3.6C1885.426-1267.94,1892.759-1275.141,1895.311-1277.454Zm-10.749,18.577a9.533,9.533,0,0,1-.032-1.029h3.756a9.057,9.057,0,0,0,2.591,4.871h0l-2.033,4.433A13.511,13.511,0,0,1,1884.562-1258.877Zm9.218,11.048c-.067-.016-.133-.039-.2-.056a10.213,10.213,0,0,1-3.91-2.008h0l2.03-4.428h0a6.965,6.965,0,0,0,3.6,1.468l.006,5.272h0a10.014,10.014,0,0,1-1.282-.2C1893.946-1247.8,1893.862-1247.809,1893.78-1247.829Zm2.582.254h-.005l0-5.268h0a7.549,7.549,0,0,0,3.768-1.314l2.108,4.6h0A11.207,11.207,0,0,1,1896.362-1247.575Zm10.745-11.258h0a11.255,11.255,0,0,1-4.02,8.622l0,0-2.12-4.622a7.586,7.586,0,0,0,2.465-5.6v-.108h3.554a11.924,11.924,0,0,1,.124,1.688v.016Z"/><path class="j" d="M1899.457-1271.769l.692,1.265a.181.181,0,0,0,.074.074l1.264.692a.186.186,0,0,1,.074.253.189.189,0,0,1-.074.074l-1.264.692a.181.181,0,0,0-.074.074l-.692,1.264a.187.187,0,0,1-.253.075.184.184,0,0,1-.074-.075l-.692-1.264a.181.181,0,0,0-.074-.074l-1.264-.692a.186.186,0,0,1-.074-.253.189.189,0,0,1,.074-.074l1.264-.692a.181.181,0,0,0,.074-.074l.692-1.265a.186.186,0,0,1,.252-.074A.191.191,0,0,1,1899.457-1271.769Z"/><path class="j" d="M1901.886-1268.272l.506.338a.079.079,0,0,0,.042.012l.6.009a.08.08,0,0,1,.077.08.09.09,0,0,1-.013.042l-.337.506a.07.07,0,0,0-.013.042l-.009.6a.079.079,0,0,1-.08.077.079.079,0,0,1-.042-.013l-.505-.337a.089.089,0,0,0-.042-.013l-.6-.009a.078.078,0,0,1-.077-.08.076.076,0,0,1,.013-.041l.337-.506a.077.077,0,0,0,.013-.042l.009-.6a.078.078,0,0,1,.078-.077A.08.08,0,0,1,1901.886-1268.272Z"/><path class="j" d="M1889.3-1258.052l.188.343a.043.043,0,0,0,.02.02l.343.188a.051.051,0,0,1,.02.069.064.064,0,0,1-.02.02l-.343.188a.048.048,0,0,0-.02.02l-.188.343a.052.052,0,0,1-.069.02.064.064,0,0,1-.02-.02l-.188-.343a.039.039,0,0,0-.02-.02l-.343-.188a.052.052,0,0,1-.02-.069.064.064,0,0,1,.02-.02l.343-.188a.039.039,0,0,0,.02-.02l.188-.343a.051.051,0,0,1,.069-.02A.063.063,0,0,1,1889.3-1258.052Z"/><path class="k" d="M1921.754-1230.1H1869.9v-10.6h51.851Z"/><path class="l" d="M1870.139-1240.459v10.124h51.378v-10.124h-51.378m-.473-.473h52.324v11.07h-52.324Z"/><g class="m"><text class="n" transform="translate(1875.089 -1232.133)"><tspan x="0" y="0">AGUA MARINHA</tspan></text></g><g class="m"><text class="o" transform="translate(1874.805 -1232.463)"><tspan x="0" y="0">AGUA MARINHA</tspan></text></g><g class="m"><text class="p" transform="translate(1874.805 -1232.463)"><tspan x="0" y="0">AGUA MARINHA</tspan></text></g></g></svg>