<svg xmlns="http://www.w3.org/2000/svg" width="158.562" height="54.062" viewBox="0 0 158.562 54.062"><defs><style>.a{opacity:0.2;}.b{fill:#76c9cf;}.c{fill:#5cb5bc;}.d{fill:#939393;}.e,.f,.g,.h{fill:none;stroke:#5cb5bc;stroke-linecap:round;stroke-miterlimit:10;}.e{stroke-width:1.919px;}.f{stroke-width:2.04px;}.g{stroke-width:3.839px;}.h{stroke-width:2.228px;}</style></defs><g class="a" transform="translate(-4746.698 1521.631)"><path class="b" d="M4902.531-1513.653h-11.32v-5.015a.953.953,0,0,0-.955-.95H4872.88a.953.953,0,0,0-.954.95v5.015H4860.61a2.046,2.046,0,0,0-2.044,2.044v42.881a1.02,1.02,0,0,0,1.022,1.022h17.88v-18.9a4.1,4.1,0,0,1,4.1-4.1,4.1,4.1,0,0,1,2.9,1.2,4.092,4.092,0,0,1,1.2,2.9v18.9h17.879a1.02,1.02,0,0,0,1.023-1.022v-42.881A2.045,2.045,0,0,0,4902.531-1513.653Zm-30.241,34.5a.729.729,0,0,1-.729.73h-6.742a.73.73,0,0,1-.73-.73v-8.56a4.1,4.1,0,0,1,4.1-4.1,4.1,4.1,0,0,1,2.9,1.2,4.09,4.09,0,0,1,1.2,2.9Zm26.757,0a.729.729,0,0,1-.729.73h-6.742a.73.73,0,0,1-.73-.73v-8.56a4.1,4.1,0,0,1,4.1-4.1,4.1,4.1,0,0,1,2.9,1.2,4.092,4.092,0,0,1,1.2,2.9Z"/><path class="c" d="M4803.065-1490.308v22.271a.336.336,0,0,1-.336.331h-1.506v-12.218a2.986,2.986,0,0,0-.878-2.116,2.989,2.989,0,0,0-2.117-.878,3,3,0,0,0-3,2.994v12.218h-1.507a.332.332,0,0,1-.331-.331v-22.271a.664.664,0,0,1,.663-.662h8.344A.667.667,0,0,1,4803.065-1490.308Z"/><path class="c" d="M4857.712-1506.172h-7.961a.857.857,0,0,0-.859.854v37.185a.428.428,0,0,0,.427.427h8.82a.428.428,0,0,0,.427-.427v-37.185A.856.856,0,0,0,4857.712-1506.172Zm-3.944,17.918a3.05,3.05,0,0,1-3.052-3.052,3.05,3.05,0,0,1,3.052-3.052,3.053,3.053,0,0,1,3.051,3.052A3.053,3.053,0,0,1,4853.768-1488.254Z"/><path class="b" d="M4791.472-1508.331H4790.4v-4.022a1.335,1.335,0,0,0-1.339-1.334h-9.026v-4.717a.927.927,0,0,0-.926-.926h-17.434a.924.924,0,0,0-.926.926v4.717h-9.031a1.331,1.331,0,0,0-1.334,1.334v4.022h-1.075a1.919,1.919,0,0,0-1.919,1.919v37.746a.956.956,0,0,0,.96.96h17.942v-22.3a.959.959,0,0,1,.959-.96h6.277a.956.956,0,0,1,.96.96v22.3h17.947a.959.959,0,0,0,.959-.96v-37.746A1.922,1.922,0,0,0,4791.472-1508.331Zm-30.366,28.911a.727.727,0,0,1-.724.725h-6.742a.728.728,0,0,1-.73-.725v-11.934a.729.729,0,0,1,.73-.729h6.742a.728.728,0,0,1,.724.729Zm26.757,0a.726.726,0,0,1-.724.725H4780.4a.729.729,0,0,1-.73-.725v-11.934a.729.729,0,0,1,.73-.729h6.742a.727.727,0,0,1,.724.729Z"/><path class="b" d="M4850.149-1508.168l-23.762-12.625a1.043,1.043,0,0,0-.994,0l-23.758,12.625a1.06,1.06,0,0,0,.5,2h.763v37.506a.956.956,0,0,0,.959.96h44.08a.957.957,0,0,0,.96-.96v-37.506h.763A1.06,1.06,0,0,0,4850.149-1508.168Zm-32.491,29.151a.729.729,0,0,1-.725.73h-6.742a.729.729,0,0,1-.729-.73v-11.934a.728.728,0,0,1,.729-.724h6.742a.727.727,0,0,1,.725.724Zm24.838,0a.729.729,0,0,1-.725.73h-6.742a.729.729,0,0,1-.729-.73v-11.934a.728.728,0,0,1,.729-.724h6.742a.727.727,0,0,1,.725.724Z"/><rect class="d" width="8.201" height="0.269" transform="translate(4877.468 -1467.975)"/><line class="e" x2="12.496" y2="0.054" transform="translate(4891.607 -1512.693)"/><line class="e" x2="12.496" y2="0.054" transform="translate(4859.155 -1512.693)"/><line class="f" x2="43.543" transform="translate(4748.617 -1507.453)"/><line class="g" x2="43.543" transform="translate(4748.617 -1469.488)"/><line class="g" x2="43.543" transform="translate(4804.121 -1469.488)"/><line class="g" x2="43.543" transform="translate(4859.796 -1469.488)"/><line class="e" x2="38.542" transform="translate(4751.661 -1512.791)"/><line class="e" x2="38.542" transform="translate(4750.625 -1512.791)"/><line class="e" x2="18.141" transform="translate(4761.526 -1518.377)"/><line class="h" x1="17.376" transform="translate(4872.88 -1519.618)"/><line class="e" y2="10.126" transform="translate(4770.389 -1518.377)"/><path class="g" d="M4802.016-1506.939l23.761-12.626a1.06,1.06,0,0,1,.994,0l23.761,12.626"/></g></svg>