<svg xmlns="http://www.w3.org/2000/svg" width="28.796" height="21.602" viewBox="0 0 28.796 21.602"><defs><style>.a,.j{fill:#373737;}.b,.g,.h,.i,.k,.l{fill:none;}.b{stroke:#333;stroke-miterlimit:10;opacity:0.42;isolation:isolate;}.b,.g,.h,.i,.j,.k,.l{stroke-linecap:round;}.b,.g{stroke-width:0.248px;}.c{fill:#ffd000;}.d{fill:red;}.e{fill:#f2f2f2;}.f{fill:#eae0d8;}.g,.h,.i,.j,.k,.l{stroke:#373737;stroke-linejoin:round;}.h,.j{stroke-width:0.745px;}.i{stroke-width:0.713px;}.k{stroke-width:0.705px;}.l{stroke-width:0.75px;}</style></defs><g transform="translate(-4931.507 -5973.867)"><path class="a" d="M4959.134,5987.569l-.941-.107q-6.437-.727-12.86-1.553l-13.173,7.013,14.6,2.056Z"/><line class="b" x2="13.069" y2="2.114" transform="translate(4934.772 5989.408)"/><path class="c" d="M4946.5,5994.531l11.776-6.6a12.13,12.13,0,0,1-.019-4.49l-11.815,6.477a11.662,11.662,0,0,0,.056,4.616Z"/><path class="c" d="M4946.5,5994.531a11.56,11.56,0,0,1,0-4.607q-3.544-.56-7.257-1.056-3.557-.472-6.984-.846a6.673,6.673,0,0,0,.352,4.59Z"/><path class="c" d="M4946.763,5989.863"/><path class="a" d="M4959.243,5982.722l-13.909-2.047-13.206,7.1,14.816,2.048Z"/><path class="d" d="M4941.406,5986.758"/><path class="e" d="M4946.428,5994.759"/><path class="f" d="M4950.027,5994.129"/><line class="g" x1="8.334" y1="1.117" transform="translate(4937.904 5990.159)"/><line class="g" x1="10.995" y1="1.474" transform="translate(4935.068 5991.212)"/><path class="h" d="M4946.586,5994.961l12.3-7.035"/><path class="h" d="M4959.142,5983.081q-2.874,1.68-5.755,3.352-3.236,1.875-6.482,3.732"/><path class="h" d="M4946.9,5990.165l-14.559-2.12a7.073,7.073,0,0,0-.011,4.935l14.251,1.981"/><path class="i" d="M4945.665,5990.009l-13.335-1.966a7.764,7.764,0,0,0-.438,2.444,7.532,7.532,0,0,0,.377,2.485l13.054,1.831"/><path class="c" d="M4947.52,5984.722"/><path class="e" d="M4947.181,5989.623"/><path class="f" d="M4950.78,5988.99"/><path class="c" d="M4959.571,5981.929q-.5-.067-1-.126a54.269,54.269,0,0,0-12.725.036c-4.391,2.338-8.782,3.063-13.171,5.4l14.6,2.055q3.026-1.66,6.186-3.549Q4956.648,5983.836,4959.571,5981.929Z"/><line class="b" x2="13.069" y2="2.114" transform="translate(4935.281 5985.338)"/><path class="e" d="M4946.875,5989.439c3.969-1.86,7.939-4.9,11.908-6.761-.117-.6-.213-.166-.219-1.011a12.059,12.059,0,0,1,.2-2.3l-11.815,6.477a9.512,9.512,0,0,0-.076,3.593Z"/><path class="c" d="M4932.669,5983.822c.127.623.232.037.232.935a11.578,11.578,0,0,1-.232,2.307q3.545.561,7.256,1.057,3.557.472,6.985.846a6.692,6.692,0,0,0,.232-2.322,1.06,1.06,0,0,0-.181-.613.909.909,0,0,0-.4-.29Z"/><path class="a" d="M4959.882,5978.647l-14.039-1.925-13.465,6.928,14.9,2.142Z"/><path class="d" d="M4941.914,5982.688"/><path class="g" d="M4941.163,5987.207l-8.174-1.1"/><path class="j" d="M4947.766,5985.845q3.015-1.761,6.046-3.489,2.976-1.7,5.971-3.359a4.7,4.7,0,0,1-.212,2.933l-12.559,7.376c.134-.478.263-.982.382-1.509C4947.548,5987.116,4947.67,5986.464,4947.766,5985.845Z"/><path class="i" d="M4932.508,5983.973l14.635,1.981a6.568,6.568,0,0,1-.241,3.351l-14.418-2.022"/><path class="a" d="M4957.427,5978.14c-.461-.042-.927-.092-1.4-.148a53.276,53.276,0,0,1-9.024-1.884c-2.06.735-4.27,1.623-6.585,2.7-2,.933-3.848,1.9-5.526,2.85l13.541,1.9c1.98-1.017,4.055-2.19,6.186-3.549Q4956.089,5979.082,4957.427,5978.14Z"/><line class="b" x2="13.069" y2="2.114" transform="translate(4936.448 5979.608)"/><path class="c" d="M4948.043,5983.708q2.931-1.586,5.953-3.379,1.282-.762,2.521-1.529a3.237,3.237,0,0,1-.246-2.853l-8.153,4.17a9.495,9.495,0,0,0-.2,2.457A9.211,9.211,0,0,0,4948.043,5983.708Z"/><path class="c" d="M4948.179,5983.366c-.113-.623-.208-.037-.208-.936a12.908,12.908,0,0,1,.208-2.307q-3.176-.56-6.5-1.055-3.189-.474-6.261-.847a7.444,7.444,0,0,0-.208,2.321,1.161,1.161,0,0,0,.162.614.81.81,0,0,0,.362.29Z"/><path class="a" d="M4956.961,5975.233l-11.412-1.366-10.368,4.275,13.258,1.919Z"/><line class="g" x1="8.334" y1="1.117" transform="translate(4939.58 5980.359)"/><path class="h" d="M4956.9,5975.588q-.909.525-1.833,1.043-3.306,1.862-6.55,3.544"/><path class="h" d="M4948.262,5983.581l9.05-5.082"/><path class="k" d="M4948.42,5980.194l-12.89-1.761a7.3,7.3,0,0,0-.26,3.348l12.9,1.859"/><path class="l" d="M4957.967,5983.942a11.986,11.986,0,0,0,.074,4.295"/><path class="l" d="M4957.967,5983.942a3.767,3.767,0,0,0-.12,1.62,3.943,3.943,0,0,0,.194.771" transform="translate(-1.917 -7.575)"/><path class="l" d="M4933.021,5984.042a7.192,7.192,0,0,1-.111,3.479"/></g></svg>