<svg xmlns="http://www.w3.org/2000/svg" width="23" height="27" viewBox="0 0 23 27"><defs><style>.a,.b{fill:#373737;}.a,.c{stroke:#373737;}.c,.e{fill:none;}.d,.f{stroke:none;}.f{fill:#373737;}</style></defs><g transform="translate(-81 -4)"><g class="a" transform="translate(85 5)"><path class="d" d="M0,0H15a0,0,0,0,1,0,0V6.5A7.5,7.5,0,0,1,7.5,14h0A7.5,7.5,0,0,1,0,6.5V0A0,0,0,0,1,0,0Z"/><path class="e" d="M.571.5H14.429A.071.071,0,0,1,14.5.571V6.5a7,7,0,0,1-7,7h0a7,7,0,0,1-7-7V.571A.071.071,0,0,1,.571.5Z"/></g><g class="a" transform="translate(84 4)"><rect class="d" width="17" height="1" rx="0.5"/><rect class="e" x="0.5" y="0.5" width="16"/></g><g class="a" transform="translate(88 24)"><rect class="d" width="9" height="7" rx="1"/><rect class="e" x="0.5" y="0.5" width="8" height="6" rx="0.5"/></g><g class="a" transform="translate(90 18)"><rect class="d" width="5" height="2" rx="1"/><rect class="e" x="0.5" y="0.5" width="4" height="1" rx="0.5"/></g><g class="b" transform="translate(91.757 14.393)"><path class="d" d="M 1.284510254859924 12.12071800231934 L 1.190020322799683 12.12054824829102 L 1.121090292930603 12.12041854858398 L 0.3787102997303009 12.12041854858398 C -0.06530255824327469 12.12041854858398 -0.6405761241912842 12.0392599105835 -0.8944289684295654 11.94939994812012 L 0.1342202872037888 0.7882681488990784 L 0.1363302916288376 0.7653681635856628 L 0.1363302916288376 0.7423781752586365 C 0.1363302916288376 0.6087281703948975 0.2450602948665619 0.499998152256012 0.3787102997303009 0.499998152256012 L 1.121090292930603 0.499998152256012 C 1.254740238189697 0.499998152256012 1.363470315933228 0.6087281703948975 1.363470315933228 0.7423781752586365 L 1.363470315933228 0.7638681530952454 L 1.365310311317444 0.7852681279182434 L 2.334695100784302 12.04367733001709 C 2.187090396881104 12.07879161834717 1.885068416595459 12.12071800231934 1.284510254859924 12.12071800231934 Z"/><path class="f" d="M 0.616824746131897 0.9999980926513672 L -0.3564140796661377 11.55991077423096 C -0.1251412630081177 11.59523296356201 0.1569123268127441 11.62041854858398 0.3787100315093994 11.62041854858398 L 1.284510016441345 11.62071800231934 C 1.495840072631836 11.62071800231934 1.663286566734314 11.61550140380859 1.79531991481781 11.60778999328613 L 0.8819551467895508 0.9999980926513672 L 0.616824746131897 0.9999980926513672 M 0.3787100315093994 -1.9073486328125e-06 L 1.121090054512024 -1.9073486328125e-06 C 1.531090021133423 -1.9073486328125e-06 1.863470077514648 0.3323783874511719 1.863470077514648 0.7423782348632812 L 2.853060007095337 12.23544788360596 C 2.853060007095337 12.64545822143555 1.531090021133423 12.62041854858398 1.121090054512024 12.62041854858398 L 0.3787100315093994 12.62041854858398 C -0.03128993511199951 12.62041854858398 -1.411619901657104 12.5229377746582 -1.411619901657104 12.11292839050293 L -0.3636699914932251 0.7423782348632812 C -0.3636699914932251 0.3323783874511719 -0.03128993511199951 -1.9073486328125e-06 0.3787100315093994 -1.9073486328125e-06 Z"/></g><g class="c" transform="translate(99 6)"><path class="d" d="M0,0H1.5A3.5,3.5,0,0,1,5,3.5v0A3.5,3.5,0,0,1,1.5,7H0A0,0,0,0,1,0,7V0A0,0,0,0,1,0,0Z"/><path class="e" d="M.53.5H1.5a3,3,0,0,1,3,3v0a3,3,0,0,1-3,3H.53A.03.03,0,0,1,.5,6.47V.53A.03.03,0,0,1,.53.5Z"/></g><g class="c" transform="translate(81 6)"><path class="d" d="M3.5,0H5A0,0,0,0,1,5,0V7A0,0,0,0,1,5,7H3.5A3.5,3.5,0,0,1,0,3.5v0A3.5,3.5,0,0,1,3.5,0Z"/><path class="e" d="M3.5.5h.97A.03.03,0,0,1,4.5.53V6.47a.03.03,0,0,1-.03.03H3.5a3,3,0,0,1-3-3v0A3,3,0,0,1,3.5.5Z"/></g></g></svg>