<svg xmlns="http://www.w3.org/2000/svg" width="105.573" height="69.076" viewBox="0 0 105.573 69.076">
  <g id="Grupo_1525" data-name="Grupo 1525" transform="translate(-29.868 -254.706)">
    <g id="Grupo_1337" data-name="Grupo 1337">
      <path id="Caminho_2094" data-name="Caminho 2094" d="M96.443,291.1l-13.9,12.132L68.639,291.1V266.837l13.9-12.131,13.9,12.131Z" fill="#fff086"/>
      <path id="Caminho_2095" data-name="Caminho 2095" d="M74.831,272.659l-6.193-5.818h0l13.9-12.132V265.93h0Z" fill="#fff1ae"/>
      <path id="Caminho_2096" data-name="Caminho 2096" d="M96.443,291.1l-13.9,12.132V254.714l13.9,12.132Z" fill="#f9c900"/>
      <path id="Caminho_2097" data-name="Caminho 2097" d="M96.443,281.075v10.03l-13.9,12.132-13.9-12.132h0l6.193-4.988h0Z" fill="#f9c900"/>
      <path id="Caminho_2098" data-name="Caminho 2098" d="M90.25,286.113l-7.71,6.726-7.709-6.726V272.66l7.709-6.726,7.71,6.726Z" fill="#fed502"/>
      <path id="Caminho_1801-20" data-name="Caminho 1801-20" d="M80.567,266.2a.175.175,0,0,1,.045-.045l.451-.25.276-.15.026-.015a.105.105,0,0,0,.045-.046l.115-.2v-.011l.16-.291h0l.136-.241a.1.1,0,0,1,.055-.05.1.1,0,0,1,.14.044l.3.543.115.21a.113.113,0,0,0,.045.047l.081.045.672.366a.114.114,0,0,1,.047.15.1.1,0,0,1-.047.045l-.125.07-.286.161-.275.151h0l-.057.031a.108.108,0,0,0-.045.045l-.095.17-.16.291-.155.291a.112.112,0,0,1-.151.04.116.116,0,0,1-.045-.04l-.412-.75a.106.106,0,0,0-.044-.045l-.751-.412A.125.125,0,0,1,80.567,266.2Z" fill="#fff"/>
      <path id="Caminho_1801-21" data-name="Caminho 1801-21" d="M74.859,269.819a.482.482,0,0,1,.116-.118l1.164-.633.712-.389.065-.039a.262.262,0,0,0,.118-.117l.3-.531v-.025l.412-.75V267.2l.351-.625a.293.293,0,0,1,.392-.113.255.255,0,0,1,.117.117l.764,1.4.3.543a.248.248,0,0,0,.116.117l.208.117,1.734.944a.293.293,0,0,1,.116.389.255.255,0,0,1-.116.116l-.336.181-.738.414-.713.389h-.013l-.142.08a.258.258,0,0,0-.117.116l-.25.44-.415.75-.4.751a.288.288,0,0,1-.388.1.3.3,0,0,1-.117-.1l-1.061-1.942a.253.253,0,0,0-.117-.116l-1.942-1.061A.311.311,0,0,1,74.859,269.819Z" fill="#fff"/>
    </g>
    <g id="Grupo_1505" data-name="Grupo 1505">
      <g id="Grupo_1504" data-name="Grupo 1504">
        <g id="Caminho_260-24" data-name="Caminho 260-24">
          <path id="Caminho_2099" data-name="Caminho 2099" d="M115.93,308.842v8.391q2.944-.16,5.809-.361,3.3-.23,6.491-.5c1.315-.108,2.612-.223,3.9-.345a3.575,3.575,0,0,0,3.2-2.993c.205-1.25-1.888-2.512-1.834-4.019.068-2.108,2.168-4.16,1.928-5.842a3.558,3.558,0,0,0-3.869-3.019q-2.568.241-5.2.46c-1.282.107-2.574,0-3.851.156a6.508,6.508,0,0,0-3.528,1.661,8.805,8.805,0,0,0-2.151,2.66,7.952,7.952,0,0,0-.46,1.085A8.092,8.092,0,0,0,115.93,308.842Z" fill="#e2dccc"/>
        </g>
        <g id="Caminho_260-25" data-name="Caminho 260-25">
          <path id="Caminho_2100" data-name="Caminho 2100" d="M49.378,310.083v8.391q-2.946-.16-5.81-.362-3.294-.228-6.489-.5c-1.315-.109-2.612-.224-3.9-.345a3.576,3.576,0,0,1-3.2-2.993c-.2-1.251,1.888-2.514,1.833-4.02-.066-2.107-2.168-4.159-1.926-5.841a3.559,3.559,0,0,1,3.869-3.02q2.57.243,5.2.46c1.282.108,2.574,0,3.852.158a6.5,6.5,0,0,1,3.527,1.661,8.809,8.809,0,0,1,2.151,2.661,8.041,8.041,0,0,1,.461,1.086A8.147,8.147,0,0,1,49.378,310.083Z" fill="#e2dccc"/>
        </g>
        <g id="Caminho_260-26" data-name="Caminho 260-26">
          <path id="Caminho_261-10" data-name="Caminho 261-10" d="M125.748,318.89a3.581,3.581,0,0,1-3.212,3.026c-12.035,1.125-25.2,1.85-39.335,1.866-14.552.017-28.073-.712-40.4-1.869a3.578,3.578,0,0,1-3.2-2.99,32.519,32.519,0,0,1-.09-9.864,3.561,3.561,0,0,1,3.87-3.019c12.086,1.144,25.345,1.865,39.61,1.855,14.022-.011,27.064-.728,38.977-1.853a3.577,3.577,0,0,1,3.877,3.108,34.388,34.388,0,0,1-.092,9.74Z" fill="#efede6"/>
        </g>
      </g>
      <g id="Grupo_1339" data-name="Grupo 1339">
        <g id="Grupo_1338" data-name="Grupo 1338">
          <path id="Caminho_2101" data-name="Caminho 2101" d="M64.19,319.735a.8.8,0,0,1-.6-.24.866.866,0,0,1-.182-.626l.205-5.253-1.836-.072a.59.59,0,0,1-.652-.521.57.57,0,0,1,0-.17.589.589,0,0,1,.527-.645.576.576,0,0,1,.171.008l5.281.2a.593.593,0,0,1,.653.525.607.607,0,0,1,0,.165.594.594,0,0,1-.535.646.615.615,0,0,1-.166-.008l-1.835-.073-.2,5.253a.878.878,0,0,1-.226.6A.771.771,0,0,1,64.19,319.735Z" fill="#373737"/>
          <path id="Caminho_2102" data-name="Caminho 2102" d="M71.136,319.98a3.705,3.705,0,0,1-1.876-.519,3.28,3.28,0,0,1-1.236-1.348,4.605,4.605,0,0,1,.1-3.979,3.234,3.234,0,0,1,1.291-1.281,4.1,4.1,0,0,1,3.8.093,3.245,3.245,0,0,1,1.236,1.342,4.162,4.162,0,0,1,.4,1.989,4.205,4.205,0,0,1-.5,1.981,3.251,3.251,0,0,1-1.3,1.292A3.746,3.746,0,0,1,71.136,319.98Zm.033-1.376a1.731,1.731,0,0,0,1.444-.6,3.312,3.312,0,0,0,.091-3.533,1.928,1.928,0,0,0-2.849-.07,3.29,3.29,0,0,0-.085,3.533,1.715,1.715,0,0,0,1.4.679Z" fill="#373737"/>
          <path id="Caminho_2103" data-name="Caminho 2103" d="M76.793,320.065a.788.788,0,0,1-.6-.224.841.841,0,0,1-.2-.613l.05-5.761a.725.725,0,0,1,.622-.816.7.7,0,0,1,.2,0l2.523.022a2.664,2.664,0,0,1,1.882.634,2.231,2.231,0,0,1,.652,1.724,2.269,2.269,0,0,1-.682,1.718,2.654,2.654,0,0,1-1.892.6l-1.734-.015-.016,1.9a.86.86,0,0,1-.207.612A.785.785,0,0,1,76.793,320.065Zm.834-3.97,1.461.013c.851.006,1.28-.355,1.287-1.09s-.418-1.083-1.267-1.089l-1.465-.013Z" fill="#373737"/>
          <path id="Caminho_2104" data-name="Caminho 2104" d="M82.285,320.111a.681.681,0,0,1-.625-.288.713.713,0,0,1,.006-.716l2.627-5.837a1.26,1.26,0,0,1,.391-.516.96.96,0,0,1,1.058-.006,1.2,1.2,0,0,1,.388.513l2.708,5.811a.731.731,0,0,1,.02.72.644.644,0,0,1-.585.289.816.816,0,0,1-.548-.163,1.365,1.365,0,0,1-.339-.517l-.441-1-3.416.017-.421,1a1.485,1.485,0,0,1-.329.525A.713.713,0,0,1,82.285,320.111ZM85.2,314.4l-1.136,2.769,2.345-.013L85.227,314.4Zm.626-2.412a.484.484,0,0,1-.33.163.5.5,0,0,1-.318-.1.472.472,0,0,1-.182-.264.393.393,0,0,1,.069-.328l.743-1.1a.512.512,0,0,1,.4-.262.68.68,0,0,1,.432.126.606.606,0,0,1,.25.35.453.453,0,0,1-.133.422Z" fill="#373737"/>
          <path id="Caminho_2105" data-name="Caminho 2105" d="M90.268,319.951a.813.813,0,0,1-.626-.21.719.719,0,0,1-.187-.573,1.391,1.391,0,0,1,.3-.722l3.324-4.53-3.052.06c-.469.01-.708-.211-.717-.66s.221-.675.691-.678l4.172-.084a.831.831,0,0,1,.633.212.7.7,0,0,1,.194.568,1.39,1.39,0,0,1-.306.726l-3.319,4.532,3.207-.063c.472-.01.712.208.72.65s-.222.68-.692.688Z" fill="#373737"/>
          <path id="Caminho_2106" data-name="Caminho 2106" d="M96.948,319.89a.791.791,0,0,1-.607-.2.862.862,0,0,1-.227-.607l-.172-5.841a.724.724,0,0,1,.578-.845.7.7,0,0,1,.205-.009c.532-.017.808.25.823.806l.175,5.841a.723.723,0,0,1-.574.845A.751.751,0,0,1,96.948,319.89Z" fill="#373737"/>
          <path id="Caminho_2107" data-name="Caminho 2107" d="M102.6,319.71a3.711,3.711,0,0,1-1.912-.393,3.282,3.282,0,0,1-1.319-1.267,4.555,4.555,0,0,1-.158-3.967,3.257,3.257,0,0,1,1.206-1.365,3.73,3.73,0,0,1,1.876-.545,3.775,3.775,0,0,1,1.923.388,3.236,3.236,0,0,1,1.32,1.26,4.131,4.131,0,0,1,.532,1.956,4.188,4.188,0,0,1-.367,2.011,3.263,3.263,0,0,1-1.21,1.376A3.726,3.726,0,0,1,102.6,319.71Zm-.056-1.37a1.727,1.727,0,0,0,1.4-.7,3.322,3.322,0,0,0-.14-3.542,1.934,1.934,0,0,0-2.85.118,3.307,3.307,0,0,0,.147,3.541A1.714,1.714,0,0,0,102.548,318.34Z" fill="#373737"/>
        </g>
      </g>
    </g>
  </g>
</svg>
