<svg xmlns="http://www.w3.org/2000/svg" width="66.696" height="66.696" viewBox="0 0 66.696 66.696">
  <g id="Grupo_2029" data-name="Grupo 2029" transform="translate(-240.611 -521.535)">
    <path id="Elipse_30-4-23-2" data-name="Elipse 30-4-23-2" d="M-6873.494-4702.643a31.683,31.683,0,0,1,31.684,31.683h0a31.684,31.684,0,0,1-31.684,31.684h0a31.684,31.684,0,0,1-31.683-31.684h0a31.683,31.683,0,0,1,31.683-31.683Z" transform="translate(7147.177 5225.883)" fill="#ddd" stroke="#9e9e9e" stroke-width="2.332"/>
    <g id="Grupo_1861-2" data-name="Grupo 1861-2" transform="translate(7147.177 5225.883)" opacity="0.53">
      <g id="Grupo_1832-2" data-name="Grupo 1832-2">
        <path id="Caminho_13722-2" data-name="Caminho 13722-2" d="M-6884.577-4659.387l17.5-25.628,4.066,21.562h0Z" fill="#c6c6c6"/>
        <path id="Caminho_13723-2" data-name="Caminho 13723-2" d="M-6841.453-4667.518h0l-25.627-17.5,4.065,21.562-21.562,4.066,25.628,17.5h0l8.748-12.814Z" fill="#676767"/>
        <rect id="Retângulo_473-2" data-name="Retângulo 473-2" width="15.755" height="15.755" transform="translate(-6873.961 -4661.387) rotate(-55.679)" fill="#939393"/>
      </g>
      <path id="Caminho_1801-3" data-name="Caminho 1801-3" d="M-6866.328-4673.855a.166.166,0,0,1,.036-.051l.391-.319.239-.2.021-.019a.111.111,0,0,0,.036-.052l.074-.219v-.01l.1-.31h0l.087-.257a.1.1,0,0,1,.044-.058.1.1,0,0,1,.093-.013.082.082,0,0,1,.05.035l.385.47.15.182a.1.1,0,0,0,.051.035l.086.029.716.231a.111.111,0,0,1,.07.137.09.09,0,0,1-.036.052l-.113.092-.247.207-.238.195h0l-.048.04a.084.084,0,0,0-.035.051l-.061.183-.1.31-.1.309a.11.11,0,0,1-.138.066.137.137,0,0,1-.051-.03l-.534-.652a.1.1,0,0,0-.052-.035l-.8-.26A.119.119,0,0,1-6866.328-4673.855Z" fill="#fff"/>
      <path id="Caminho_1801-4" data-name="Caminho 1801-4" d="M-6871.463-4669.638a.467.467,0,0,1,.091-.134l1.008-.823.616-.5.056-.049a.26.26,0,0,0,.092-.133l.189-.566v-.025l.263-.8v-.012l.224-.664a.248.248,0,0,1,.114-.15.26.26,0,0,1,.24-.033.248.248,0,0,1,.133.09l.991,1.21.387.471a.254.254,0,0,0,.133.091l.221.075,1.845.6a.288.288,0,0,1,.184.353.26.26,0,0,1-.091.133l-.291.236-.638.534-.616.5h-.013l-.123.1a.248.248,0,0,0-.091.132l-.157.471-.263.8-.249.8a.285.285,0,0,1-.356.171.306.306,0,0,1-.132-.079l-1.377-1.681a.244.244,0,0,0-.134-.09l-2.066-.671A.3.3,0,0,1-6871.463-4669.638Z" fill="#fff"/>
    </g>
    <path id="Elipse_30-4-2-2-2" data-name="Elipse 30-4-2-2-2" d="M-6873.218-4702.683A31.683,31.683,0,0,1-6841.535-4671h0a31.683,31.683,0,0,1-31.683,31.683h0A31.682,31.682,0,0,1-6904.9-4671v0a31.683,31.683,0,0,1,31.681-31.683Z" transform="translate(7147.177 5225.883)" fill="none" stroke="#9e9e9e" stroke-width="3.33"/>
  </g>
</svg>
