<svg xmlns="http://www.w3.org/2000/svg" width="57.431" height="57.431" viewBox="0 0 57.431 57.431">
  <g id="Grupo_1345" data-name="Grupo 1345" transform="translate(3.226 -55)">
    <g id="Grupo_1521" data-name="Grupo 1521" transform="translate(0 0)">
      <g id="Grupo_1341" data-name="Grupo 1341" transform="translate(-3.226 55)">
        <g id="Grupo_1340" data-name="Grupo 1340" transform="translate(0)">
          <path id="Caminho_2108" data-name="Caminho 2108" d="M-3796.882-3134.609l28.716-28.715v28.715h-28.716Z" transform="translate(3796.882 3163.325)" fill="#c3c3dd"/>
          <path id="Caminho_2109" data-name="Caminho 2109" d="M-3739.451-3134.609h0l-28.716-28.715v28.715h-28.716l28.716,28.716h0l14.358-14.358,14.358-14.358Z" transform="translate(3796.882 3163.325)" fill="#5d5dba"/>
          <rect id="Retângulo_413" data-name="Retângulo 413" width="20.619" height="20.619" transform="translate(28.715 43.295) rotate(-135)" fill="#8d8dc6"/>
        </g>
        <path id="Caminho_1801" data-name="Caminho 1801" d="M-3780.09-3153.643a.267.267,0,0,1,.057-.06l.581-.314.355-.195.032-.019a.124.124,0,0,0,.057-.058l.148-.263v-.013l.206-.374v-.007l.175-.31a.137.137,0,0,1,.071-.064.137.137,0,0,1,.123.006.129.129,0,0,1,.057.058l.381.7.149.27a.116.116,0,0,0,.056.058l.1.058.863.47a.147.147,0,0,1,.059.195.124.124,0,0,1-.059.058l-.167.09-.368.206-.354.195h-.007l-.072.04a.135.135,0,0,0-.058.058l-.122.218-.206.375-.2.374a.144.144,0,0,1-.194.052.152.152,0,0,1-.058-.052l-.529-.967a.116.116,0,0,0-.057-.058l-.968-.529A.154.154,0,0,1-3780.09-3153.643Z" transform="translate(3807.067 3168.177)" fill="#fff"/>
        <path id="Caminho_1801-2" data-name="Caminho 1801" d="M-3784.829-3150.037a.615.615,0,0,1,.148-.149l1.5-.815.915-.5.083-.048a.336.336,0,0,0,.149-.151l.382-.682v-.034l.532-.964v-.016l.45-.8a.337.337,0,0,1,.183-.165.348.348,0,0,1,.315.016.324.324,0,0,1,.15.149l.982,1.8.383.7a.33.33,0,0,0,.149.151l.267.148,2.227,1.215a.375.375,0,0,1,.151.5.327.327,0,0,1-.151.151l-.431.233-.948.531-.916.5h-.016l-.183.1a.333.333,0,0,0-.149.15l-.315.565-.533.964-.514.966a.372.372,0,0,1-.5.133.4.4,0,0,1-.151-.133l-1.363-2.5a.334.334,0,0,0-.15-.15l-2.5-1.363A.4.4,0,0,1-3784.829-3150.037Z" transform="translate(3804.178 3168.748)" fill="#fff"/>
      </g>
    </g>
  </g>
</svg>
