<svg xmlns="http://www.w3.org/2000/svg" width="66.696" height="66.696" viewBox="0 0 66.696 66.696">
  <g id="Grupo_2032" data-name="Grupo 2032" transform="translate(-146.611 -366.335)">
    <path id="Elipse_30-4-23" data-name="Elipse 30-4-23" d="M-7170.186-5310.878a31.683,31.683,0,0,1,31.683,31.683,31.683,31.683,0,0,1-31.683,31.683,31.683,31.683,0,0,1-31.683-31.683A31.683,31.683,0,0,1-7170.186-5310.878Z" transform="translate(7349.869 5678.918)" fill="#f4de9b" stroke="#ed7100" stroke-width="2.332"/>
    <g id="Grupo_1861" data-name="Grupo 1861" transform="translate(7349.869 5678.918)" opacity="0.53">
      <g id="Grupo_1832" data-name="Grupo 1832">
        <path id="Caminho_13722" data-name="Caminho 13722" d="M-7181.269-5267.622l17.5-25.628,4.066,21.562h0Z" fill="#c3c3dd"/>
        <path id="Caminho_13723" data-name="Caminho 13723" d="M-7138.145-5275.753h0l-25.628-17.5,4.066,21.562-21.562,4.066,25.628,17.5h0l8.748-12.814,8.748-12.814Z" fill="#5d5dba"/>
        <rect id="Retângulo_473" data-name="Retângulo 473" width="15.755" height="15.755" transform="translate(-7157.642 -5260.739) rotate(-145.679)" fill="#8d8dc6"/>
      </g>
      <path id="Caminho_1801" data-name="Caminho 1801" d="M-7163.02-5282.09a.162.162,0,0,1,.035-.052l.391-.319.239-.2.021-.019a.1.1,0,0,0,.036-.052l.074-.219,0-.01.1-.31v0l.087-.257a.1.1,0,0,1,.044-.058.1.1,0,0,1,.093-.013.09.09,0,0,1,.051.035l.385.47.15.182a.094.094,0,0,0,.051.035l.086.029.716.231a.112.112,0,0,1,.071.137.094.094,0,0,1-.036.052l-.113.092-.247.207-.239.195h0l-.048.04a.093.093,0,0,0-.035.052l-.061.182-.1.31-.1.309a.11.11,0,0,1-.138.066.12.12,0,0,1-.051-.03l-.534-.652a.1.1,0,0,0-.052-.035l-.8-.26A.118.118,0,0,1-7163.02-5282.09Z" fill="#fff"/>
      <path id="Caminho_1801-2" data-name="Caminho 1801" d="M-7168.156-5277.873a.481.481,0,0,1,.091-.134l1.009-.823.615-.5.056-.049a.254.254,0,0,0,.092-.134l.19-.566,0-.025.262-.8,0-.012.224-.664a.259.259,0,0,1,.114-.15.265.265,0,0,1,.24-.033.249.249,0,0,1,.133.091l.991,1.21.387.47a.248.248,0,0,0,.133.092l.221.074,1.845.6a.288.288,0,0,1,.184.353.261.261,0,0,1-.092.134l-.291.236-.637.533-.616.5-.013,0-.123.1a.251.251,0,0,0-.091.133l-.157.47-.263.8-.249.8a.285.285,0,0,1-.356.171.315.315,0,0,1-.132-.079l-1.377-1.681a.247.247,0,0,0-.134-.09l-2.066-.671A.3.3,0,0,1-7168.156-5277.873Z" fill="#fff"/>
    </g>
    <path id="Elipse_30-4-2-2" data-name="Elipse 30-4-2-2" d="M-7169.91-5310.918a31.683,31.683,0,0,1,31.683,31.683,31.683,31.683,0,0,1-31.683,31.683,31.682,31.682,0,0,1-31.683-31.683A31.682,31.682,0,0,1-7169.91-5310.918Z" transform="translate(7349.869 5678.918)" fill="none" stroke="#ffc400" stroke-width="3.33"/>
  </g>
</svg>
