<svg xmlns="http://www.w3.org/2000/svg" width="66.569" height="52.761" viewBox="0 0 66.569 52.761">
  <g id="Grupo_1345" data-name="Grupo 1345" transform="translate(-111.631 -1161.981)">
    <g id="Grupo_1521" data-name="Grupo 1521">
      <g id="Grupo_1341" data-name="Grupo 1341">
        <g id="Grupo_1340" data-name="Grupo 1340">
          <path id="Caminho_2108" data-name="Caminho 2108" d="M127.047,1179.849l17.868-17.868v17.868Z" fill="#fff"/>
          <path id="Caminho_2109" data-name="Caminho 2109" d="M162.783,1179.849h0l-17.868-17.868v17.868H127.047l17.868,17.868h0l8.934-8.934,8.934-8.934Z" fill="#fff"/>
          <rect id="Ret창ngulo_413" data-name="Ret창ngulo 413" width="12.83" height="12.83" transform="translate(135.843 1179.849) rotate(-45)" fill="#fff"/>
        </g>
        <path id="Caminho_1801" data-name="Caminho 1801" d="M143.829,1171.025a.158.158,0,0,1,.036-.037l.361-.2.221-.121.02-.012a.09.09,0,0,0,.036-.036l.092-.164v-.008l.128-.233h0l.109-.193a.093.093,0,0,1,.119-.04.071.071,0,0,1,.036.036l.237.434.093.168a.081.081,0,0,0,.035.036l.065.035.537.293a.091.091,0,0,1,.037.121.076.076,0,0,1-.037.036l-.1.056-.229.128-.22.121h0l-.045.025a.089.089,0,0,0-.036.036l-.075.136-.128.233-.124.233a.091.091,0,0,1-.121.032.1.1,0,0,1-.036-.032l-.329-.6a.074.074,0,0,0-.036-.036l-.6-.329A.1.1,0,0,1,143.829,1171.025Z" fill="#fff"/>
        <path id="Caminho_1801-2" data-name="Caminho 1801-2" d="M139.087,1173.624a.387.387,0,0,1,.092-.093l.932-.507.569-.311.052-.03a.206.206,0,0,0,.093-.094l.238-.424v-.021l.331-.6v-.01l.28-.5a.208.208,0,0,1,.114-.1.215.215,0,0,1,.2.01.191.191,0,0,1,.093.093l.611,1.118.238.434a.216.216,0,0,0,.093.094l.166.092,1.386.756a.233.233,0,0,1,.094.31.2.2,0,0,1-.094.094l-.268.145-.59.33-.57.311h-.01l-.114.064a.209.209,0,0,0-.093.093l-.2.352-.332.6-.32.6a.232.232,0,0,1-.31.083.25.25,0,0,1-.094-.083l-.848-1.553a.209.209,0,0,0-.093-.093l-1.553-.848A.249.249,0,0,1,139.087,1173.624Z" fill="#fff"/>
      </g>
      <g id="Grupo_1341-2" data-name="Grupo 1341" transform="translate(0.001)" opacity="0.52">
        <g id="Grupo_1340-2" data-name="Grupo 1340">
          <path id="Caminho_2108-2" data-name="Caminho 2108" d="M127.047,1179.849l17.868-17.868v17.868Z" fill="#c8c8c8"/>
          <path id="Caminho_2109-2" data-name="Caminho 2109" d="M162.783,1179.849h0l-17.868-17.868v17.868H127.047l17.868,17.868h0l8.934-8.934,8.934-8.934Z" fill="#616161"/>
          <rect id="Ret창ngulo_413-2" data-name="Ret창ngulo 413" width="12.83" height="12.83" transform="translate(135.843 1179.849) rotate(-45)" fill="#949494"/>
        </g>
        <path id="Caminho_1801-2-2" data-name="Caminho 1801" d="M143.829,1171.025a.158.158,0,0,1,.036-.037l.361-.2.221-.121.02-.012a.09.09,0,0,0,.036-.036l.092-.164v-.008l.128-.233h0l.109-.193a.093.093,0,0,1,.119-.04.071.071,0,0,1,.036.036l.237.434.093.168a.081.081,0,0,0,.035.036l.065.035.537.293a.091.091,0,0,1,.037.121.076.076,0,0,1-.037.036l-.1.056-.229.128-.22.121h0l-.045.025a.089.089,0,0,0-.036.036l-.075.136-.128.233-.124.233a.091.091,0,0,1-.121.032.1.1,0,0,1-.036-.032l-.329-.6a.074.074,0,0,0-.036-.036l-.6-.329A.1.1,0,0,1,143.829,1171.025Z" fill="#fff"/>
        <path id="Caminho_1801-2-3" data-name="Caminho 1801-2" d="M139.087,1173.624a.387.387,0,0,1,.092-.093l.932-.507.569-.311.052-.03a.206.206,0,0,0,.093-.094l.238-.424v-.021l.331-.6v-.01l.28-.5a.208.208,0,0,1,.114-.1.215.215,0,0,1,.2.01.191.191,0,0,1,.093.093l.611,1.118.238.434a.216.216,0,0,0,.093.094l.166.092,1.386.756a.233.233,0,0,1,.094.31.2.2,0,0,1-.094.094l-.268.145-.59.33-.57.311h-.01l-.114.064a.209.209,0,0,0-.093.093l-.2.352-.332.6-.32.6a.232.232,0,0,1-.31.083.25.25,0,0,1-.094-.083l-.848-1.553a.209.209,0,0,0-.093-.093l-1.553-.848A.249.249,0,0,1,139.087,1173.624Z" fill="#fff"/>
      </g>
      <g id="Grupo_1344" data-name="Grupo 1344">
        <g id="Caminho_260" data-name="Caminho 260">
          <path id="Caminho_2110" data-name="Caminho 2110" d="M162.5,1202.723v6.752q2.37-.131,4.675-.291,2.649-.186,5.222-.4c1.058-.087,2.1-.181,3.138-.277a2.88,2.88,0,0,0,2.573-2.409c.166-1.01-1.519-2.022-1.475-3.234.054-1.7,1.745-3.348,1.551-4.7a2.863,2.863,0,0,0-3.113-2.429q-2.069.2-4.189.371c-1.031.087-2.071,0-3.1.126a5.227,5.227,0,0,0-2.838,1.337,7.09,7.09,0,0,0-1.731,2.141,6.459,6.459,0,0,0-.371.874A6.534,6.534,0,0,0,162.5,1202.723Z" fill="#eaeaea"/>
        </g>
        <g id="Caminho_260-2" data-name="Caminho 260-2">
          <path id="Caminho_2111" data-name="Caminho 2111" d="M127.331,1203.721v6.751q-2.37-.129-4.675-.291-2.65-.185-5.222-.4c-1.058-.087-2.1-.181-3.139-.278a2.879,2.879,0,0,1-2.573-2.408c-.166-1.01,1.519-2.022,1.476-3.235-.054-1.7-1.746-3.348-1.551-4.7a2.864,2.864,0,0,1,3.114-2.429q2.065.2,4.188.371c1.031.087,2.07,0,3.1.126a5.228,5.228,0,0,1,2.838,1.337,7.076,7.076,0,0,1,1.731,2.141,6.456,6.456,0,0,1,.371.874A6.578,6.578,0,0,1,127.331,1203.721Z" fill="#eaeaea"/>
        </g>
        <g id="Caminho_260-3" data-name="Caminho 260-3">
          <path id="Caminho_261" data-name="Caminho 261" d="M170.48,1210.808a2.547,2.547,0,0,1-1.9,2.434,187.228,187.228,0,0,1-47.309,0,2.536,2.536,0,0,1-1.9-2.406c-.122-1.013-.211-2.133-.241-3.345a35.565,35.565,0,0,1,.187-4.592c.16-1.51,1.176-2.573,2.3-2.429a182.8,182.8,0,0,0,46.625,0c1.14-.146,2.15.961,2.3,2.5a37.276,37.276,0,0,1,.169,4.508C170.676,1208.679,170.594,1209.792,170.48,1210.808Z" fill="#f3f3f3"/>
        </g>
        <g id="Grupo_1343" data-name="Grupo 1343">
          <g id="Grupo_1342" data-name="Grupo 1342">
            <path id="Caminho_2112" data-name="Caminho 2112" d="M132.866,1211.4a4.956,4.956,0,0,1-1.056-.148,3.265,3.265,0,0,1-.907-.367.545.545,0,0,1-.28-.344.607.607,0,0,1,.038-.409.47.47,0,0,1,.711-.219,2.628,2.628,0,0,0,.727.3,3.663,3.663,0,0,0,.8.116,1.512,1.512,0,0,0,.862-.16.557.557,0,0,0,.275-.46.454.454,0,0,0-.169-.385,1.684,1.684,0,0,0-.631-.26l-.928-.227q-1.554-.378-1.514-1.671a1.633,1.633,0,0,1,.328-.962,1.956,1.956,0,0,1,.852-.624,3.1,3.1,0,0,1,1.244-.194,3.769,3.769,0,0,1,.907.141,2.7,2.7,0,0,1,.776.35.53.53,0,0,1,.247.332.582.582,0,0,1-.042.379.464.464,0,0,1-.273.248.559.559,0,0,1-.457-.073,2.458,2.458,0,0,0-.573-.225,2.944,2.944,0,0,0-.626-.085,1.381,1.381,0,0,0-.813.177.621.621,0,0,0-.3.517.489.489,0,0,0,.162.4,1.413,1.413,0,0,0,.6.258l.928.228q1.595.4,1.556,1.621a1.586,1.586,0,0,1-.324.947,1.9,1.9,0,0,1-.847.612A3.227,3.227,0,0,1,132.866,1211.4Z" fill="#9a9a9a"/>
            <path id="Caminho_2113" data-name="Caminho 2113" d="M136.166,1211.477a.545.545,0,0,1-.494-.239.569.569,0,0,1,.017-.571l2.194-4.61a1.009,1.009,0,0,1,.32-.4.759.759,0,0,1,.845.013.946.946,0,0,1,.3.414l2.061,4.678a.582.582,0,0,1,0,.574.516.516,0,0,1-.472.221.653.653,0,0,1-.433-.14,1.108,1.108,0,0,1-.263-.417l-.334-.8-2.723-.044-.353.789a1.214,1.214,0,0,1-.271.414A.558.558,0,0,1,136.166,1211.477Zm2.422-4.505-.954,2.186,1.871.031-.9-2.217Z" fill="#9a9a9a"/>
            <path id="Caminho_2114" data-name="Caminho 2114" d="M142.887,1211.562a.648.648,0,0,1-.483-.174.694.694,0,0,1-.169-.506l.007-4.561a.593.593,0,0,1,.5-.67.635.635,0,0,1,.168,0h2.831a.443.443,0,0,1,.5.377.422.422,0,0,1,0,.123.446.446,0,0,1-.386.5.473.473,0,0,1-.119,0H143.52v1.424h2.037a.446.446,0,0,1,.511.37.436.436,0,0,1,0,.13.451.451,0,0,1-.391.5.469.469,0,0,1-.124,0h-2.036v1.8C143.516,1211.337,143.307,1211.563,142.887,1211.562Z" fill="#9a9a9a"/>
            <path id="Caminho_2115" data-name="Caminho 2115" d="M147.585,1211.552a.633.633,0,0,1-.481-.171.682.682,0,0,1-.169-.486l-.037-4.661a.578.578,0,0,1,.477-.664.568.568,0,0,1,.164,0,.576.576,0,0,1,.643.657l.036,4.66C148.221,1211.326,148.009,1211.549,147.585,1211.552Zm.438-6.468a.38.38,0,0,1-.516.054.38.38,0,0,1-.147-.211.314.314,0,0,1,.056-.26l.589-.883a.4.4,0,0,1,.317-.209.533.533,0,0,1,.345.1.475.475,0,0,1,.2.28.362.362,0,0,1-.1.335Z" fill="#9a9a9a"/>
            <path id="Caminho_2116" data-name="Caminho 2116" d="M150.034,1211.528a.633.633,0,0,1-.484-.166.678.678,0,0,1-.174-.485l-.085-4.592a.578.578,0,0,1,.477-.664.564.564,0,0,1,.164,0l2.011-.038a2.192,2.192,0,0,1,1.516.444,1.673,1.673,0,0,1,.554,1.3,1.731,1.731,0,0,1-.315,1.1,1.675,1.675,0,0,1-.944.607,1.257,1.257,0,0,1,.731.624l.53.944a.66.66,0,0,1,.078.582q-.1.272-.517.279a.789.789,0,0,1-.448-.107.908.908,0,0,1-.3-.351l-.822-1.45a.683.683,0,0,0-.312-.31,1.029,1.029,0,0,0-.432-.075l-.629.012.032,1.672a.692.692,0,0,1-.152.491A.619.619,0,0,1,150.034,1211.528Zm.577-3.272,1.15-.021q1.032-.021,1.019-.847c-.01-.546-.361-.813-1.049-.8l-1.15.021Z" fill="#9a9a9a"/>
            <path id="Caminho_2117" data-name="Caminho 2117" d="M155.169,1211.424a.547.547,0,0,1-.5-.215.569.569,0,0,1-.011-.571l1.961-4.713a1,1,0,0,1,.3-.42.753.753,0,0,1,.843-.03.971.971,0,0,1,.32.4l2.292,4.569a.588.588,0,0,1,.032.574.515.515,0,0,1-.46.243.644.644,0,0,1-.438-.118,1.066,1.066,0,0,1-.284-.4l-.375-.783-2.722.094-.312.805a1.212,1.212,0,0,1-.25.427A.573.573,0,0,1,155.169,1211.424Zm2.195-4.621-.844,2.232,1.87-.064-1.009-2.169Z" fill="#9a9a9a"/>
          </g>
        </g>
      </g>
    </g>
  </g>
</svg>
